<svg xmlns="http://www.w3.org/2000/svg" xmlns:xlink="http://www.w3.org/1999/xlink" width="484" height="391" viewBox="0 0 484 391">
  <defs>
    <polygon id="answers-a" points="0 146.543 199.548 146.543 199.548 0 0 0"/>
    <path id="answers-d" d="M32.4815164,136.791746 L0,169.273262 L0,75.4601227 C0.000464510049,75.3080118 0,75.1540601 0,75 C0,33.5786438 33.5786438,0 75,0 C116.421356,0 150,33.5786438 150,75 C150,116.421356 116.421356,150 75,150 C59.2129758,150 44.5651995,145.1223 32.4815164,136.791746 Z"/>
    <filter id="answers-c" width="109.3%" height="108.3%" x="-4.7%" y="-3%" filterUnits="objectBoundingBox">
      <feOffset dy="2" in="SourceAlpha" result="shadowOffsetOuter1"/>
      <feGaussianBlur in="shadowOffsetOuter1" result="shadowBlurOuter1" stdDeviation="2"/>
      <feColorMatrix in="shadowBlurOuter1" values="0 0 0 0 0   0 0 0 0 0   0 0 0 0 0  0 0 0 0.1 0"/>
    </filter>
    <path id="answers-f" d="M28.1506476,118.552847 L0,146.703494 L0,65.398773 C0.000402575376,65.2669436 0,65.1335188 0,65 C0,29.1014913 29.1014913,0 65,0 C100.898509,0 130,29.1014913 130,65 C130,100.898509 100.898509,130 65,130 C51.3179124,130 38.6231729,125.77266 28.1506476,118.552847 Z"/>
    <filter id="answers-e" width="110.8%" height="109.5%" x="-5.4%" y="-3.4%" filterUnits="objectBoundingBox">
      <feOffset dy="2" in="SourceAlpha" result="shadowOffsetOuter1"/>
      <feGaussianBlur in="shadowOffsetOuter1" result="shadowBlurOuter1" stdDeviation="2"/>
      <feColorMatrix in="shadowBlurOuter1" values="0 0 0 0 0   0 0 0 0 0   0 0 0 0 0  0 0 0 0.1 0"/>
    </filter>
  </defs>
  <g fill="none" fill-rule="evenodd" transform="translate(0 2)">
    <g transform="translate(3 333)">
      <polyline stroke="#EF4F5D" stroke-width="2" points="4.79 50.298 67.841 8.199 158.206 37.291 265.716 12.864 335.47 50.298 396.836 2.395"/>
      <circle cx="4.834" cy="50.342" r="4.834" fill="#EF4F5D"/>
      <circle cx="68.32" cy="8.412" r="4.834" fill="#EF4F5D"/>
      <circle cx="158.123" cy="37.168" r="4.834" fill="#EF4F5D"/>
      <circle cx="264.707" cy="14.414" r="4.834" fill="#EF4F5D"/>
      <circle cx="335.364" cy="49.144" r="4.834" fill="#EF4F5D"/>
      <circle cx="394.045" cy="4.834" r="4.834" fill="#EF4F5D"/>
    </g>
    <g transform="translate(3 316)">
      <path fill="#EF4F5D" d="M3.999886,1.92631531 C4.29540671,0.86244074 5.4353191,0 6.54243482,0 L37.5275123,0 C38.6362026,0 39.2938132,0.868177414 38.999886,1.92631531 L35.0700612,16.0736847 C34.7745405,17.1375593 33.6346281,18 32.5275123,18 L1.54243482,18 C0.433744596,18 -0.223866022,17.1318226 0.0700611712,16.0736847 L3.999886,1.92631531 Z"/>
      <text fill="#FFF" font-family="MyriadSetPro-Bold, Myriad Set Pro" font-size="13" font-weight="bold">
        <tspan x="10" y="13">T20</tspan>
      </text>
    </g>
    <g transform="translate(0 121)">
      <g transform="translate(0 40)">
        <text fill="#333" font-family="MyriadSetPro-Medium, Myriad Set Pro" font-size="16" font-weight="400">
          <tspan x="23" y="13">All rounder</tspan>
        </text>
        <g transform="translate(0 2)">
          <path fill="#333" d="M18,9 C18,13.97052 13.97052,18 9,18 C4.02948,18 0,13.97052 0,9 C0,4.02948 4.02948,0 9,0 C13.97052,0 18,4.02948 18,9"/>
          <path fill="#FFF" d="M10.808514,4.57175475 L9.495909,6.82092225 C9.337149,7.08842475 9.128169,7.34742225 8.9692065,7.65684225 C9.1781865,7.50638475 9.4458915,7.34742225 9.704889,7.13823975 L12.012579,5.66727975 C11.962359,5.56663725 11.912139,5.50811475 11.803599,5.40787725 L11.017494,4.67199225 C10.9674765,4.62197475 10.858734,4.57175475 10.808514,4.57175475 M13.9021065,3.20892975 C13.9021065,3.04996725 13.801869,2.89120725 13.6931265,2.73264975 C13.534164,2.63200725 13.3752015,2.57328225 13.1662215,2.57328225 C13.0074615,2.57328225 12.7984815,2.63200725 12.698244,2.79096975 L11.0679165,4.41279225 C10.858734,4.30425225 10.599534,4.25423475 10.3320315,4.25423475 C10.022814,4.25423475 9.704889,4.41279225 9.495909,4.62197475 L3.936069,10.2822547 C3.8775465,10.3320697 3.7771065,10.4914372 3.7771065,10.7506372 C3.7771065,10.9091947 3.8273265,11.0683597 3.936069,11.2771372 C4.094829,11.5946572 4.404249,11.9044822 4.5632115,12.0630397 C4.8807315,12.3220372 5.457654,12.7989247 5.925834,12.7487047 C6.134814,12.7487047 6.352299,12.6899797 6.4525365,12.5314222 L11.962359,6.92946225 C12.3805215,6.45277725 12.430539,5.82583725 12.0711015,5.35745475 L13.6931265,3.72712725 C13.8518865,3.57666975 13.9021065,3.41811225 13.9021065,3.20892975"/>
          <path fill="#FFF" d="M10.9540091,14.9459422 C9.94738163,14.9459422 9.01972913,14.529501 8.34267038,13.7731635 L8.18593538,13.6197697 L8.15950913,13.6471072 L8.06473913,13.4487585 C8.05410788,13.4268885 8.03102288,13.3962097 8.00884913,13.366746 C7.97968913,13.3287772 7.95144038,13.290201 7.93078538,13.2519285 C7.91013038,13.2261097 7.89798038,13.2018097 7.88917163,13.1847997 L7.82265038,13.1276947 L7.80928538,13.1428822 L7.79774288,13.1064322 L7.77192413,13.0842585 L7.78528913,13.066641 L7.72848788,12.886821 C7.70995913,12.8294122 7.69203788,12.7625872 7.67350913,12.6957622 C7.65984038,12.645036 7.64586788,12.5943097 7.63219913,12.5484435 C7.61154413,12.5171572 7.60060913,12.4852635 7.59180038,12.4600522 L7.48366538,12.359511 L7.54866788,12.274461 L7.51039538,12.0733785 C7.47759038,11.9017597 7.43263538,11.6663535 7.43263538,11.4649672 C7.43263538,9.52825725 9.01213538,7.95240225 10.9540091,7.95240225 C11.6690366,7.95240225 12.3506516,8.175051 12.9247391,8.59635225 L13.0629454,8.69780475 L13.0908904,8.68747725 L13.1877866,8.78103225 C13.2494479,8.840871 13.3074641,8.89706475 13.3912991,8.95234725 L13.4070941,8.96267475 L13.4198516,8.97664725 C13.4821204,9.04225725 13.5495529,9.11333475 13.5890404,9.19534725 L13.6257941,9.2715885 L13.6388554,9.26763975 L13.7038579,9.33264225 C13.7898191,9.4186035 13.8341666,9.50334975 13.8681866,9.5741235 C13.8861079,9.595386 13.9049404,9.6215085 13.9228616,9.64793475 C13.9362266,9.667071 13.9489841,9.68681475 13.9614379,9.699876 L14.1224254,9.8730135 L14.0665354,9.89154225 L14.0966066,9.953811 C14.1300191,10.023066 14.1631279,10.0926247 14.2020079,10.1621835 C14.3620841,10.5980647 14.4349841,11.016936 14.4349841,11.4649672 C14.4349841,13.3843635 12.8734054,14.9459422 10.9540091,14.9459422"/>
          <path fill="#333" d="M10.9539484,7.80052725 C8.92854338,7.80052725 7.28069963,9.44442225 7.28069963,11.4649672 C7.28069963,11.6794147 7.32717338,11.923326 7.36119338,12.1016272 L7.38458213,12.2255572 L7.27097963,12.3552585 L7.43895338,12.5107785 L7.47509963,12.700926 L7.50760088,12.6650835 C7.51428338,12.6890797 7.52126963,12.7139872 7.52795213,12.738591 C7.54648088,12.8063272 7.56500963,12.8740635 7.58353838,12.9323835 L7.61057213,13.0189522 L7.55012588,13.0869922 L7.66251338,13.183281 L7.74543713,13.4451135 L7.81894463,13.3615822 C7.84202963,13.3986397 7.86663338,13.431141 7.88819963,13.459086 C7.90247588,13.4782222 7.91827088,13.4964472 7.92829463,13.5155835 L7.94712713,13.551426 L7.92647213,13.5742072 L7.99603088,13.643766 L8.12482088,13.8888922 L8.18314088,13.8305722 L8.19286088,13.8396847 L8.23629713,13.8822097 C8.94221213,14.6661885 9.90692213,15.0978172 10.9539484,15.0978172 C12.9571796,15.0978172 14.5867984,13.4681985 14.5867984,11.4649672 C14.5867984,10.998711 14.5108609,10.5628297 14.3550371,10.1327197 L14.3468359,10.109331 L14.3346859,10.0877647 C14.3146384,10.052226 14.2964134,10.0166872 14.2787959,9.9811485 L14.3933096,9.94317975 L14.0731571,9.5972085 C14.0661709,9.5887035 14.0573621,9.574731 14.0479459,9.561366 C14.0324546,9.5388885 14.0157484,9.51489225 13.9966121,9.490896 C13.9595546,9.415566 13.9070059,9.32109975 13.8113246,9.2254185 L13.7353871,9.14917725 L13.7259709,9.12973725 C13.6761559,9.025551 13.5950546,8.940501 13.5467584,8.88977475 L13.5312671,8.87337225 L13.5060559,8.84603475 L13.4747696,8.8256835 C13.4729471,8.8244685 13.4711246,8.8232535 13.4693021,8.82173475 L13.4826671,8.8171785 L13.3216796,8.6993235 C13.3125671,8.69051475 13.3031509,8.68140225 13.2937346,8.67228975 L13.2645746,8.644041 L13.1275834,8.5122135 L13.0871846,8.52709725 L13.0145884,8.473941 C12.4143784,8.0335035 11.7017809,7.80052725 10.9539484,7.80052725 M13.9598584,10.0197247 C13.9944859,10.0920172 14.0291134,10.164006 14.0695121,10.2362985 C14.2137934,10.634211 14.2830484,11.0324272 14.2830484,11.4649672 C14.2830484,13.3114635 12.8001409,14.7940672 10.9539484,14.7940672 C9.93851213,14.7940672 9.07312838,14.3612235 8.45590838,13.6720147 C8.42097713,13.6373872 8.38057838,13.5997222 8.34625463,13.5650947 C9.10775588,12.7316047 9.97891088,12.0101985 10.9539484,11.3929785 C11.8597309,10.8161572 12.8751671,10.380276 13.9598584,10.0197247 M13.5962696,9.439866 C13.6712959,9.51489225 13.7062271,9.58718475 13.7405509,9.6591735 C13.7751784,9.693801 13.8155771,9.7660935 13.8502046,9.80345475 C12.7655134,10.164006 11.7500771,10.634211 10.8442946,11.2140697 C9.86925713,11.790891 8.99810213,12.552696 8.20197338,13.3834522 C8.16734588,13.3114635 8.09231963,13.239171 8.05769213,13.1668785 C8.02306463,13.1295172 8.02306463,13.092156 7.98266588,13.0575285 C8.78456588,12.1544797 9.68457713,11.3929785 10.7003171,10.7784922 C11.5711684,10.2362985 12.5462059,9.7660935 13.5962696,9.439866 M13.0540759,8.86304475 C13.1291021,8.9350335 13.1983571,9.007326 13.3080109,9.07931475 C13.3426384,9.11697975 13.4176646,9.1889685 13.4522921,9.26095725 C12.4022284,9.58718475 11.4618184,10.0197247 10.5903596,10.5995835 C9.58069463,11.2140697 8.66914088,11.9382097 7.87301213,12.8409547 C7.83838463,12.7316047 7.80375713,12.5873235 7.76912963,12.4776697 C7.73450213,12.4430422 7.73450213,12.3707497 7.69410338,12.3333885 C8.45590838,11.4649672 9.32706338,10.7438647 10.3021009,10.164006 C11.1386284,9.62181225 12.0732671,9.223596 13.0540759,8.86304475 M10.9539484,8.10427725 C11.6404234,8.10427725 12.2925746,8.320851 12.8347684,8.7187635 C11.8943584,9.0419535 10.9885759,9.477531 10.1578196,9.9823635 C9.25203713,10.5622222 8.38057838,11.2486972 7.65947588,12.044826 C7.62484838,11.8631835 7.58444963,11.6466097 7.58444963,11.4649672 C7.58444963,9.62181225 9.10775588,8.10427725 10.9539484,8.10427725"/>
        </g>
      </g>
      <text fill="#333" font-family="MyriadSetPro-Thin, Myriad Set Pro" font-size="36" font-style="condensed" font-weight="300">
        <tspan x="0" y="30">R Ashwin</tspan>
      </text>
    </g>
    <text fill="#333" font-family="MyriadSetPro-Semibold, Myriad Set Pro" font-size="15" font-weight="500">
      <tspan x="0" y="218">MOST WICKETS</tspan>
    </text>
    <text fill="#3ACA60" font-family="Gotham-Black, Gotham" font-size="36" font-weight="700">
      <tspan x="3" y="270">235</tspan>
    </text>
    <path stroke="#333" stroke-linecap="square" d="M3,229.5 L96,229.5"/>
    <text fill="#333" font-family="MyriadSetPro-Semibold, Myriad Set Pro" font-size="15" font-weight="500">
      <tspan x="3" y="292">Tests</tspan>
    </text>
    <text fill="#FF8200" font-family="Gotham-Black, Gotham" font-size="36" font-weight="700" letter-spacing="-1">
      <tspan x="222" y="270">183</tspan>
    </text>
    <text fill="#333" font-family="MyriadSetPro-Semibold, Myriad Set Pro" font-size="15" font-weight="500">
      <tspan x="222" y="292">ODI</tspan>
    </text>
    <path fill="#EF4F5D" d="M131.584,264.708 C135.256,264.708 136.192,261.468 136.372,259.452 C134.824,260.892 132.988,261.504 131.008,261.504 C126.148,261.504 122.548,258.444 122.548,253.512 L122.548,253.44 C122.548,247.896 126.832,244.296 132.592,244.296 C136.264,244.296 138.424,245.304 140.332,247.212 C142.168,249.048 143.356,251.928 143.356,256.572 L143.356,256.644 C143.356,264.852 139.252,270.504 131.728,270.504 C127.948,270.504 125.248,269.316 122.908,267.516 L126.184,262.692 C127.948,264.06 129.604,264.708 131.584,264.708 Z M132.916,256.5 C135.112,256.5 136.444,255.06 136.444,253.224 L136.444,253.152 C136.444,251.208 135.04,249.696 132.844,249.696 C130.648,249.696 129.316,251.172 129.316,253.116 L129.316,253.188 C129.316,255.096 130.72,256.5 132.916,256.5 Z M157.936,270.504 C150.772,270.504 146.308,264.6 146.308,257.472 L146.308,257.4 C146.308,250.272 150.844,244.296 158.008,244.296 C165.172,244.296 169.636,250.2 169.636,257.328 L169.636,257.4 C169.636,264.528 165.136,270.504 157.936,270.504 Z M158.008,264.312 C160.816,264.312 162.616,261.468 162.616,257.472 L162.616,257.4 C162.616,253.368 160.744,250.452 157.936,250.452 C155.164,250.452 153.328,253.296 153.328,257.328 L153.328,257.4 C153.328,261.432 155.2,264.312 158.008,264.312 Z"/>
    <text fill="#333" font-family="MyriadSetPro-Semibold, Myriad Set Pro" font-size="15" font-weight="500">
      <tspan x="121" y="292">T20I</tspan>
    </text>
    <text fill="#0077C2" font-family="Gotham-Black, Gotham" font-size="36" font-weight="700">
      <tspan x="330" y="270">113</tspan>
    </text>
    <text fill="#333" font-family="MyriadSetPro-Semibold, Myriad Set Pro" font-size="15" font-weight="500">
      <tspan x="330" y="292">IPL</tspan>
    </text>
    <g transform="translate(95 34)">
      <path fill="#DDAB62" d="M125.689211 111.634132L121.520757 111.634132C120.716972 111.634132 120.065237 112.082082 120.065237 112.634763 120.065237 113.186814 120.716972 113.634763 121.520757 113.634763L121.714448 113.634763C122.518233 113.634763 123.169968 114.082082 123.169968 114.634763 123.169968 115.187445 122.518233 115.635394 121.714448 115.635394L112.753565 115.635394C111.95041 115.635394 111.298675 116.082713 111.298675 116.635394 111.298675 117.187445 111.95041 117.635394 112.753565 117.635394L123.52265 117.635394 145.533375 117.635394C146.337161 117.635394 146.988896 117.187445 146.988896 116.635394 146.988896 116.082713 146.337161 115.635394 145.533375 115.635394L143.046309 115.635394C142.243155 115.635394 141.59142 115.187445 141.59142 114.634763 141.59142 114.082082 142.243155 113.634763 143.046309 113.634763L152.814132 113.634763C153.617918 113.634763 154.269653 113.186814 154.269653 112.634763 154.269653 112.082082 153.617918 111.634132 152.814132 111.634132L152.084795 111.634132 125.689211 111.634132zM151.54164 117.90347C150.867823 117.90347 150.321451 117.423344 150.321451 116.831546 150.321451 116.239748 150.867823 115.759621 151.54164 115.759621L155.280442 115.759621C155.954259 115.759621 156.500631 116.239748 156.500631 116.831546 156.500631 117.423344 155.954259 117.90347 155.280442 117.90347L151.54164 117.90347zM109.57653 112.660694C108.897035 112.660694 108.345615 112.176151 108.345615 111.579306 108.345615 110.98183 108.897035 110.497918 109.57653 110.497918L113.348139 110.497918C114.027634 110.497918 114.578423 110.98183 114.578423 111.579306 114.578423 112.176151 114.027634 112.660694 113.348139 112.660694L109.57653 112.660694z"/>
      <path fill="#BF8D43" d="M180.458233,144.707256 C180.458233,145.721136 173.70429,146.543218 165.37306,146.543218 C157.04183,146.543218 150.287886,145.721136 150.287886,144.707256 C150.287886,143.693375 157.04183,142.871293 165.37306,142.871293 C173.70429,142.871293 180.458233,143.693375 180.458233,144.707256"/>
      <path fill="#244242" d="M153.479243,144.699369 L153.479243,77.1454259 C153.479243,75.4905363 154.307634,74.1359621 155.320883,74.1359621 C156.333502,74.1359621 157.161893,75.4905363 157.161893,77.1454259 L157.161893,144.699369"/>
      <mask id="answers-b" fill="#fff">
        <use xlink:href="#answers-a"/>
      </mask>
      <polygon fill="#EAEAEA" points="153.479 138.679 157.162 138.679 157.162 126.763 153.479 126.763" mask="url(#answers-b)"/>
      <path fill="#244242" d="M163.310789,144.699369 L163.310789,77.1454259 C163.310789,75.4905363 164.13918,74.1359621 165.152429,74.1359621 C166.165047,74.1359621 166.993438,75.4905363 166.993438,77.1454259 L166.993438,144.699369" mask="url(#answers-b)"/>
      <polygon fill="#EAEAEA" points="163.311 138.679 166.994 138.679 166.994 126.763 163.311 126.763" mask="url(#answers-b)"/>
      <path fill="#244242" d="M172.774511,144.699369 L172.774511,77.1454259 C172.774511,75.4905363 173.602902,74.1359621 174.616151,74.1359621 C175.62877,74.1359621 176.457161,75.4905363 176.457161,77.1454259 L176.457161,144.699369" mask="url(#answers-b)"/>
      <polygon fill="#EAEAEA" points="172.775 138.679 176.457 138.679 176.457 126.763 172.775 126.763" mask="url(#answers-b)"/>
      <polygon fill="#F06A08" points="154.265 74.634 156.861 74.634 156.861 73.893 154.265 73.893" mask="url(#answers-b)"/>
      <path fill="#F06A08" d="M159.764669,75.3411356 C159.764669,75.5638486 159.582334,75.746183 159.359621,75.746183 L157.821451,75.746183 C157.598738,75.746183 157.416404,75.5638486 157.416404,75.3411356 L157.416404,73.5562776 C157.416404,73.3329338 157.598738,73.1505994 157.821451,73.1505994 L159.359621,73.1505994 C159.582334,73.1505994 159.764669,73.3329338 159.764669,73.5562776 L159.764669,75.3411356 Z" mask="url(#answers-b)"/>
      <path fill="#E0610A" d="M157.478297,75.6191798 C157.478297,75.8418927 157.311735,76.0242271 157.107319,76.0242271 C156.903533,76.0242271 156.736972,75.8418927 156.736972,75.6191798 L156.736972,73.2778549 C156.736972,73.055142 156.903533,72.8728076 157.107319,72.8728076 C157.311735,72.8728076 157.478297,73.055142 157.478297,73.2778549 L157.478297,75.6191798 Z" mask="url(#answers-b)"/>
      <polygon fill="#F06A08" points="163.318 74.634 165.914 74.634 165.914 73.893 163.318 73.893" mask="url(#answers-b)"/>
      <path fill="#F06A08" d="M160.413502,75.3411356 C160.413502,75.5638486 160.595836,75.746183 160.818549,75.746183 L162.356719,75.746183 C162.579432,75.746183 162.761767,75.5638486 162.761767,75.3411356 L162.761767,73.5562776 C162.761767,73.3329338 162.579432,73.1505994 162.356719,73.1505994 L160.818549,73.1505994 C160.595836,73.1505994 160.413502,73.3329338 160.413502,73.5562776 L160.413502,75.3411356 Z" mask="url(#answers-b)"/>
      <path fill="#E0610A" d="M162.699874 75.6191798C162.699874 75.8418927 162.866435 76.0242271 163.070852 76.0242271 163.274637 76.0242271 163.441199 75.8418927 163.441199 75.6191798L163.441199 73.2778549C163.441199 73.055142 163.274637 72.8728076 163.070852 72.8728076 162.866435 72.8728076 162.699874 73.055142 162.699874 73.2778549L162.699874 75.6191798zM159.764669 75.6191798C159.764669 75.8418927 159.93123 76.0242271 160.135647 76.0242271 160.339432 76.0242271 160.505994 75.8418927 160.505994 75.6191798L160.505994 73.2778549C160.505994 73.055142 160.339432 72.8728076 160.135647 72.8728076 159.93123 72.8728076 159.764669 73.055142 159.764669 73.2778549L159.764669 75.6191798z" mask="url(#answers-b)"/>
      <polygon fill="#F06A08" points="164.36 74.634 166.955 74.634 166.955 73.893 164.36 73.893" mask="url(#answers-b)"/>
      <path fill="#F06A08" d="M169.859306,75.3411356 C169.859306,75.5638486 169.676972,75.746183 169.454259,75.746183 L167.916088,75.746183 C167.693375,75.746183 167.511041,75.5638486 167.511041,75.3411356 L167.511041,73.5562776 C167.511041,73.3329338 167.693375,73.1505994 167.916088,73.1505994 L169.454259,73.1505994 C169.676972,73.1505994 169.859306,73.3329338 169.859306,73.5562776 L169.859306,75.3411356 Z" mask="url(#answers-b)"/>
      <path fill="#E0610A" d="M167.572934,75.6191798 C167.572934,75.8418927 167.406372,76.0242271 167.201956,76.0242271 C166.99817,76.0242271 166.831609,75.8418927 166.831609,75.6191798 L166.831609,73.2778549 C166.831609,73.055142 166.99817,72.8728076 167.201956,72.8728076 C167.406372,72.8728076 167.572934,73.055142 167.572934,73.2778549 L167.572934,75.6191798 Z" mask="url(#answers-b)"/>
      <polygon fill="#F06A08" points="173.413 74.634 176.008 74.634 176.008 73.893 173.413 73.893" mask="url(#answers-b)"/>
      <path fill="#F06A08" d="M170.508139,75.3411356 C170.508139,75.5638486 170.690473,75.746183 170.913186,75.746183 L172.451356,75.746183 C172.674069,75.746183 172.856404,75.5638486 172.856404,75.3411356 L172.856404,73.5562776 C172.856404,73.3329338 172.674069,73.1505994 172.451356,73.1505994 L170.913186,73.1505994 C170.690473,73.1505994 170.508139,73.3329338 170.508139,73.5562776 L170.508139,75.3411356 Z" mask="url(#answers-b)"/>
      <path fill="#E0610A" d="M172.794511 75.6191798C172.794511 75.8418927 172.961073 76.0242271 173.165489 76.0242271 173.369274 76.0242271 173.535836 75.8418927 173.535836 75.6191798L173.535836 73.2778549C173.535836 73.055142 173.369274 72.8728076 173.165489 72.8728076 172.961073 72.8728076 172.794511 73.055142 172.794511 73.2778549L172.794511 75.6191798zM169.859306 75.6191798C169.859306 75.8418927 170.025868 76.0242271 170.230284 76.0242271 170.434069 76.0242271 170.600631 75.8418927 170.600631 75.6191798L170.600631 73.2778549C170.600631 73.055142 170.434069 72.8728076 170.230284 72.8728076 170.025868 72.8728076 169.859306 73.055142 169.859306 73.2778549L169.859306 75.6191798z" mask="url(#answers-b)"/>
      <polygon fill="#E6C599" points="77.241 34.218 85.245 16.615 52.586 1.764 44.581 19.366" mask="url(#answers-b)"/>
      <path fill="#1E0000" d="M59.3758991,26.0938801 L59.7979811,17.0042902 C59.7979811,16.8232177 59.7197476,16.6509779 59.5841009,16.5311041 L57.1594953,14.3916719 C57.1311041,14.3658044 57.1046057,14.3380442 57.0806309,14.3083912 L53.7809464,10.1083912 C53.6938801,9.99735016 53.6465615,9.85981073 53.6465615,9.7184858 L53.6465615,8.309653 C53.6465615,8.05350158 53.8011356,7.82321767 54.0377287,7.72605678 L60.0768454,5.17022082 C60.0768454,5.17022082 54.1273186,1.20744479 51.9336278,0.306498423 C51.5853628,0.163280757 50.6869401,-0.000126182965 50.4591798,-0.000126182965 L47.1904101,-0.000126182965 C46.0635962,-0.000126182965 45.0730599,0.746876972 44.7639117,1.83015773 C44.7639117,1.83015773 42.4535016,9.91659306 41.6831546,12.6124921 C41.6673817,12.6686435 41.6591798,12.7266877 41.6591798,12.7853628 L41.6591798,15.6938801 C41.6591798,15.8465615 41.7576025,16.0137539 41.8150158,16.1090221 C42.5121767,17.2635962 44.6370978,20.7071293 44.6370978,20.7071293 L47.9708517,11.946877 C48.0276341,11.798612 48.139306,11.6774763 48.2818927,11.6074448 L50.2964038,10.6213249 C50.5512934,10.4964038 50.8585489,10.5576025 51.0465615,10.7702208 L54.6774763,14.8812618 C54.8213249,15.0434069 54.8711672,15.2680126 54.8105994,15.4762145 L54.0244795,23.6604416 L59.3758991,26.0938801 Z" mask="url(#answers-b)"/>
      <path fill="#E6C596" d="M80.0259937,67.2929968 C79.275205,67.4576656 78.8020189,68.2046688 78.9748896,68.9541956 L86.7111672,102.450726 C86.8846688,103.199621 86.4764669,104.118233 85.8045426,104.491735 L84.5193691,105.205931 C83.8474448,105.579432 83.5875079,106.443785 83.9414511,107.125804 L89.9742587,118.754196 C90.3282019,119.436845 91.1982334,119.752303 91.9080126,119.455773 L93.3685804,118.845047 C94.0777287,118.548517 94.3427129,117.761767 93.9565931,117.096782 L92.9748896,115.403407 C92.5894006,114.738423 92.7944479,113.841262 93.431041,113.410347 L96.9654259,111.016656 C97.6020189,110.585741 97.9824606,109.619811 97.8114826,108.870284 L88.2291483,66.9283281 C88.0575394,66.1788013 87.3029653,65.6999369 86.5521767,65.8646057 L80.0259937,67.2929968 Z" mask="url(#answers-b)"/>
      <path fill="#1D44C1" d="M135.542524 80.7668139C135.35388 80.4570347 134.943785 80.3699685 134.645363 80.5756467L95.3980442 107.683533C95.1299054 107.879117 94.94 108.163028 94.8623975 108.485426L87.2680757 139.88795 73.3431546 141.114448 81.5147634 103.757981C81.7292744 102.776909 82.2888959 101.904984 83.0920505 101.30183L106.827066 83.4677603 139.958927 57.0160252 158.580379 91.9851104C158.767129 92.3358991 159.032114 92.7687066 159.418233 92.8633438L191.502776 100.538423 189.504038 113.69489 152.427066 105.941577C151.234006 105.691735 150.208139 104.935899 149.617603 103.869653L135.542524 80.7668139zM90.4253628 73.7464984L80.1673186 32.3313565C79.6102208 30.0834069 77.3364038 28.712429 75.0884543 29.2688959L73.4146372 29.6834069C71.1666877 30.2405047 69.7957098 32.5143218 70.3528076 34.7622713L80.6108517 76.1774132 90.4253628 73.7464984z" mask="url(#answers-b)"/>
      <path fill="#126EE7" d="M112.996278,82.242776 L139.514259,61.3159621 C141.152114,59.6787382 141.152114,57.0232177 139.514259,55.3853628 L94.4013249,10.272429 C90.5798738,6.45097792 86.089653,7.0415142 80.5628391,10.272429 L64.7483281,26.087571 C60.926877,29.9083912 60.926877,36.1039748 64.7483281,39.9254259 L107.065678,82.242776 C108.703533,83.8806309 111.358423,83.8806309 112.996278,82.242776" mask="url(#answers-b)"/>
      <polygon fill="#E6C599" points="76.334 19.826 76.334 27.864 65.151 22.971" mask="url(#answers-b)"/>
      <path fill="#E6C596" d="M5.70473186,53.6319874 L11.6271293,60.5550158 C12.1274448,61.138612 13.0782334,61.2982334 13.7413249,60.908959 L50.8422713,39.1259937 C51.5053628,38.7367192 51.7343849,37.8729968 51.3507886,37.2061199 L48.0208202,31.4149527 C47.6378549,30.7480757 46.7741325,30.5083281 46.1022082,30.8818297 L9.55709779,51.1878233" mask="url(#answers-b)"/>
      <path fill="#E6C596" d="M10.5170978,52.2919243 L0.389652997,58.3890852 C-0.225488959,57.9007571 -0.0160252366,56.8912934 0.359369085,56.6950789 C2.2407571,55.7127445 6.71646688,53.0427129 9.90384858,51.11653" mask="url(#answers-b)"/>
      <path fill="#E6C596" d="M10.5170978 52.2919243L14.8811356 59.9745741C7.08681388 67.1032808 4.80353312 57.7947634 4.80353312 57.7947634 4.80353312 57.7947634 2.67419558 59.0338801 1.90384858 59.3083281.809842271 59.6976025.389652997 58.3890852.389652997 58.3890852M7.18082019 52.1259937C7.56063091 52.7941325 8.41804416 53.0307256 9.08681388 52.6509148 9.75495268 52.2711041 9.99154574 51.4130599 9.61173502 50.7449211L8.49880126 48.7871924C8.11899054 48.1184227 7.26157729 47.8824606 6.59280757 48.2622713 5.92466877 48.642082 5.68870662 49.4994953 6.06851735 50.168265L7.18082019 52.1259937z" mask="url(#answers-b)"/>
      <path fill="#E6C596" d="M12.7116719,49.4352681 C12.7116719,49.4352681 7.99116719,47.4674448 6.68454259,48.2100315 L8.95835962,52.6125552 L12.7116719,49.4352681 Z" mask="url(#answers-b)"/>
      <path fill="#1D44C1" d="M50.2385489,39.7131861 L90.9073186,15.8204416 C92.2846057,15.0116088 92.7445426,13.2393691 91.9357098,11.862082 L89.6947003,8.04820189 C88.9129968,6.71697161 87.1994322,6.27154574 85.8682019,7.05388013 L45.1167823,30.995205 L50.2385489,39.7131861 Z" mask="url(#answers-b)"/>
      <path fill="#D8791A" d="M189.896909,100.069022 L189.82183,106.057035 C189.82183,106.057035 189.442019,106.683533 188.602271,106.858927 C187.513943,107.086688 184.252114,106.251356 185.501956,110.140315 C185.501956,110.140315 186.929716,114.25388 192.60795,114.601514 L192.60795,119.045047 C192.60795,119.045047 194.550536,122.794574 198.161262,120.989527 L199.548013,118.975647 L199.548013,100.713817 L198.423722,100.069022" mask="url(#answers-b)"/>
      <polygon fill="#203759" points="198.286 120.989 198.286 100.069 199.548 100.714 199.548 119.045" mask="url(#answers-b)"/>
      <polygon fill="#203759" points="189.453 112.536 190.286 112.536 190.286 108.786 189.453 108.786" mask="url(#answers-b)"/>
      <polygon fill="#203759" points="190.703 112.536 191.536 112.536 191.536 108.786 190.703 108.786" mask="url(#answers-b)"/>
      <path fill="#D8791A" d="M88.3056782,136.405489 L82.3176656,136.33041 C82.3176656,136.33041 81.6911672,135.950599 81.5157729,135.110852 C81.2880126,134.022524 82.1233438,130.71653 78.2343849,131.966372 C78.2343849,131.966372 74.1208202,133.350599 73.7731861,139.028833 L69.329653,139.028833 C69.329653,139.028833 65.5801262,140.97142 67.3851735,144.582145 L69.3990536,145.968896 L87.6608833,145.968896 L88.3056782,144.888139" mask="url(#answers-b)"/>
      <polygon fill="#203759" points="67.385 144.707 88.306 144.707 87.66 145.969 69.33 145.969" mask="url(#answers-b)"/>
      <polygon fill="#203759" points="75.839 136.795 79.589 136.795 79.589 135.962 75.839 135.962" mask="url(#answers-b)"/>
      <polygon fill="#203759" points="75.839 138.045 79.589 138.045 79.589 137.211 75.839 137.211" mask="url(#answers-b)"/>
      <path fill="#E6C599" d="M49.6325552,21.6071924 L51.0357098,23.1630284 C51.744858,24.0803785 51.9581073,23.7762776 52.3051104,22.9264353 L52.8098423,21.6071924 L49.6325552,21.6071924 Z" mask="url(#answers-b)"/>
    </g>
    <g transform="translate(330 37)">
      <use fill="#000" filter="url(#answers-c)" xlink:href="#answers-d"/>
      <use fill="#FFF" xlink:href="#answers-d"/>
      <text fill="#333" font-family="Lato-Regular, Lato" font-size="20">
        <tspan x="22" y="75">Top 10 T20 </tspan> <tspan x="22" y="100">players?</tspan>
      </text>
    </g>
    <g transform="translate(190)">
      <use fill="#000" filter="url(#answers-e)" xlink:href="#answers-f"/>
      <use fill="#FFF" xlink:href="#answers-f"/>
      <text fill="#333" font-family="Lato-Regular, Lato" font-size="16">
        <tspan x="22" y="60">Best bowler </tspan> <tspan x="22" y="79">in T20?</tspan>
      </text>
    </g>
  </g>
</svg>
