<svg xmlns="http://www.w3.org/2000/svg" xmlns:xlink="http://www.w3.org/1999/xlink" width="438" height="283" viewBox="0 0 438 283">
  <defs>
    <path id="team-a" d="M54.8974179,12.6850453 C54.8666807,12.1618449 54.486475,11.7201648 53.9701793,11.6188211 C39.6038832,8.74199817 28.6015276,0.326912353 28.493502,0.241382776 C28.0983732,-0.0653209423 27.5513402,-0.0800213384 27.1401746,0.19884072 L26.8575261,0.388386737 C26.8377028,0.4001916 26.8187705,0.416228396 26.8029564,0.428033259 C26.3412304,0.776610833 15.3172697,8.95047652 1.02336186,11.8123764 C0.507957062,11.9177292 0.127751363,12.3554001 0.0970141713,12.8786005 C-0.931345354,30.8326843 6.41372982,43.8084566 12.750046,51.5326238 C19.6135718,59.8891308 26.6281108,63.957354 26.9230097,64.1241812 C27.0976326,64.2244112 27.2874013,64.2749717 27.4818475,64.2749717 C27.6874303,64.2749717 27.8927903,64.2163928 28.0745407,64.1121537 C28.1132963,64.0923304 28.1480427,64.0656024 28.18368,64.0426609 C30.4669188,62.7274209 56.8441068,46.7398492 54.8974179,12.6850453"/>
  </defs>
  <g fill="none" fill-rule="evenodd" transform="translate(1 1)">
    <path fill="#3ACA60" d="M1.188,157 L21.132,157 L21.132,151.312 L10.728,151.312 L15.048,148.288 C18.792,145.588 20.88,143.5 20.88,139.468 L20.88,139.396 C20.88,134.644 17.1,131.368 11.592,131.368 C6.732,131.368 4.032,133.276 1.332,136.768 L6.048,140.692 C8.028,138.424 9.36,137.416 11.052,137.416 C12.78,137.416 13.896,138.388 13.896,140.008 C13.896,141.52 12.96,142.708 10.62,144.544 L1.188,151.744 L1.188,157 Z M33.84,157.504 C39.456,157.504 43.56,154.228 43.56,149.116 L43.56,149.044 C43.56,144.724 40.644,142.744 37.044,141.952 L43.056,136.768 L43.056,131.8 L24.876,131.8 L24.876,137.452 L34.488,137.452 L28.728,142.672 L29.7,146.308 L32.652,146.308 C35.316,146.308 36.756,147.28 36.756,148.9 L36.756,148.972 C36.756,150.52 35.532,151.528 33.552,151.528 C31.212,151.528 29.34,150.484 27.54,148.648 L23.112,153.04 C25.596,155.74 28.98,157.504 33.84,157.504 Z M55.728,157.504 C61.848,157.504 66.132,154.12 66.132,148.54 L66.132,148.468 C66.132,142.996 62.028,140.476 57.492,140.476 C55.8,140.476 54.612,140.836 53.46,141.376 L53.676,137.56 L65.016,137.56 L65.016,131.8 L48.168,131.8 L47.448,144.544 L51.588,146.884 C52.776,146.164 54.072,145.624 55.62,145.624 C57.816,145.624 59.328,146.704 59.328,148.54 L59.328,148.612 C59.328,150.412 57.96,151.564 55.656,151.564 C53.496,151.564 51.552,150.556 49.536,148.828 L45.54,153.508 C48.168,155.956 51.264,157.504 55.728,157.504 Z"/>
    <path fill="#333" d="M6.986 170.838L4.284 170.838 4.284 179 2.758 179 2.758 170.838.07 170.838.07 169.564 6.986 169.564 6.986 170.838zM13.608 175.276C13.608 175.546668 13.5893335 175.775332 13.552 175.962L9.016 175.962C9.03466676 176.634003 9.2539979 177.147332 9.674 177.502 10.0566686 177.819335 10.5513303 177.978 11.158 177.978 11.8300034 177.978 12.4413306 177.870668 12.992 177.656L13.23 178.706C12.5859968 178.986001 11.8253377 179.126 10.948 179.126 9.89332806 179.126 9.06500301 178.81567 8.463 178.195 7.86099699 177.57433 7.56 176.741339 7.56 175.696 7.56 174.669328 7.8399972 173.815337 8.4 173.134 8.98800294 172.405996 9.78132834 172.042 10.78 172.042 11.7600049 172.042 12.5019975 172.405996 13.006 173.134 13.4073353 173.71267 13.608 174.426662 13.608 175.276zM12.166 174.884C12.1753334 174.435998 12.0773344 174.048668 11.872 173.722 11.6106654 173.301998 11.209336 173.092 10.668 173.092 10.1733309 173.092 9.77200154 173.297331 9.464 173.708 9.21199874 174.034668 9.0626669 174.426664 9.016 174.884L12.166 174.884zM19.18 177.04C19.18 177.67467 18.946669 178.183331 18.48 178.566 18.013331 178.948669 17.3693374 179.14 16.548 179.14 15.7733295 179.14 15.115336 178.986002 14.574 178.678L14.896 177.558C15.4186693 177.875335 15.9739971 178.034 16.562 178.034 17.3366705 178.034 17.724 177.749336 17.724 177.18 17.724 176.927999 17.6400008 176.720334 17.472 176.557 17.3039992 176.393666 17.0053355 176.232667 16.576 176.074 15.3626606 175.625998 14.756 174.972671 14.756 174.114 14.756 173.525997 14.9799978 173.036002 15.428 172.644 15.8760022 172.251998 16.468663 172.056 17.206 172.056 17.8780034 172.056 18.4519976 172.191332 18.928 172.462L18.606 173.54C18.1673311 173.278665 17.7053358 173.148 17.22 173.148 16.9026651 173.148 16.6553342 173.222666 16.478 173.372 16.3006658 173.521334 16.212 173.712666 16.212 173.946 16.212 174.179335 16.3053324 174.370666 16.492 174.52 16.6506675 174.660001 16.9586644 174.813999 17.416 174.982 18.5920059 175.430002 19.18 176.115995 19.18 177.04zM24.08 173.33L22.414 173.33 22.414 176.634C22.414 177.474004 22.7079971 177.894 23.296 177.894 23.566668 177.894 23.7906658 177.870667 23.968 177.824L24.01 178.972C23.7113318 179.084001 23.3193358 179.14 22.834 179.14 22.2366637 179.14 21.7700017 178.958002 21.434 178.594 21.0979983 178.229998 20.93 177.618671 20.93 176.76L20.93 173.33 19.936 173.33 19.936 172.196 20.93 172.196 20.93 170.95 22.414 170.502 22.414 172.196 24.08 172.196 24.08 173.33zM29.554 177.04C29.554 177.67467 29.320669 178.183331 28.854 178.566 28.387331 178.948669 27.7433374 179.14 26.922 179.14 26.1473295 179.14 25.489336 178.986002 24.948 178.678L25.27 177.558C25.7926693 177.875335 26.3479971 178.034 26.936 178.034 27.7106705 178.034 28.098 177.749336 28.098 177.18 28.098 176.927999 28.0140008 176.720334 27.846 176.557 27.6779992 176.393666 27.3793355 176.232667 26.95 176.074 25.7366606 175.625998 25.13 174.972671 25.13 174.114 25.13 173.525997 25.3539978 173.036002 25.802 172.644 26.2500022 172.251998 26.842663 172.056 27.58 172.056 28.2520034 172.056 28.8259976 172.191332 29.302 172.462L28.98 173.54C28.5413311 173.278665 28.0793358 173.148 27.594 173.148 27.2766651 173.148 27.0293342 173.222666 26.852 173.372 26.6746658 173.521334 26.586 173.712666 26.586 173.946 26.586 174.179335 26.6793324 174.370666 26.866 174.52 27.0246675 174.660001 27.3326644 174.813999 27.79 174.982 28.9660059 175.430002 29.554 176.115995 29.554 177.04zM8.7 104L7.08 104 7.08 99.44 2.7 99.44 2.7 104 1.08 104 1.08 93.89 2.7 93.89 2.7 98.015 7.08 98.015 7.08 93.89 8.7 93.89 8.7 104zM12.48 104L10.86 104 10.86 93.89 12.48 93.89 12.48 104zM22.395 103.55C21.4149951 103.920002 20.3800054 104.105 19.29 104.105 17.6699919 104.105 16.4050045 103.665004 15.495 102.785 14.5549953 101.874995 14.085 100.625008 14.085 99.035 14.085 97.4549921 14.587495 96.1850048 15.5925 95.225 16.597505 94.2649952 17.9199918 93.785 19.56 93.785 20.6100052 93.785 21.4549968 93.9399984 22.095 94.25L21.735 95.57C21.1149969 95.2899986 20.3800042 95.15 19.53 95.15 18.3999943 95.15 17.5000033 95.4749967 16.83 96.125 16.1399965 96.8050034 15.795 97.744994 15.795 98.945 15.795 100.145006 16.1249967 101.089997 16.785 101.78 17.4150031 102.440003 18.2749945 102.77 19.365 102.77 20.0450034 102.77 20.5349985 102.700001 20.835 102.56L20.835 99.815 18.99 99.815 18.99 98.54 22.395 98.54 22.395 103.55zM31.92 104L30.3 104 30.3 99.44 25.92 99.44 25.92 104 24.3 104 24.3 93.89 25.92 93.89 25.92 98.015 30.3 98.015 30.3 93.89 31.92 93.89 31.92 104zM43.425 101.165C43.425 102.025004 43.125003 102.724997 42.525 103.265 41.8649967 103.855003 40.9450059 104.15 39.765 104.15 38.6749945 104.15 37.8000033 103.940002 37.14 103.52L37.515 102.17C38.2250035 102.590002 39.0049957 102.8 39.855 102.8 40.465003 102.8 40.9399983 102.662501 41.28 102.3875 41.6200017 102.112499 41.79 101.745002 41.79 101.285 41.79 100.874998 41.6500014 100.530001 41.37 100.25 41.0899986 99.9699986 40.6250032 99.7100012 39.975 99.47 38.2049911 98.8099967 37.32 97.8450063 37.32 96.575 37.32 95.7449958 37.6324969 95.0650026 38.2575 94.535 38.8825031 94.0049973 39.7099948 93.74 40.74 93.74 41.6600046 93.74 42.4249969 93.8999984 43.035 94.22L42.63 95.54C42.0599971 95.2299984 41.4150036 95.075 40.695 95.075 40.1249971 95.075 39.6800016 95.2149986 39.36 95.495 39.0899986 95.7450012 38.955 96.0499982 38.955 96.41 38.955 96.810002 39.1099984 97.1399987 39.42 97.4 39.6900013 97.6400012 40.1799964 97.8999986 40.89 98.18 41.7600043 98.5300017 42.3999979 98.9399976 42.81 99.41 43.220002 99.8800023 43.425 100.464996 43.425 101.165zM52.155 94.175L51.795 95.48C51.2349972 95.2199987 50.5950036 95.09 49.875 95.09 48.7849945 95.09 47.9200032 95.4199967 47.28 96.08 46.5999966 96.7700034 46.26 97.7349938 46.26 98.975 46.26 100.165006 46.5749968 101.097497 47.205 101.7725 47.8350031 102.447503 48.7099944 102.785 49.83 102.785 50.6200039 102.785 51.2849973 102.660001 51.825 102.41L52.11 103.7C51.509997 103.990001 50.6550055 104.135 49.545 104.135 48.0249924 104.135 46.8200044 103.690004 45.93 102.8 45.0099954 101.879995 44.55 100.630008 44.55 99.05 44.55 97.4299919 45.049995 96.1300049 46.05 95.15 47.0200048 94.2099953 48.2749923 93.74 49.815 93.74 50.8350051 93.74 51.6149973 93.8849985 52.155 94.175zM62.295 98.84C62.295 100.370008 61.9050039 101.619995 61.125 102.59 60.2849958 103.640005 59.1200074 104.165 57.63 104.165 56.2199929 104.165 55.1000041 103.650005 54.27 102.62 53.4999961 101.669995 53.115 100.470007 53.115 99.02 53.115 97.5399926 53.514996 96.3050049 54.315 95.315 55.1750043 94.2549947 56.3249928 93.725 57.765 93.725 59.1850071 93.725 60.3099958 94.2349949 61.14 95.255 61.9100038 96.1950047 62.295 97.3899927 62.295 98.84zM60.57 98.9C60.57 97.899995 60.3450022 97.0400036 59.895 96.32 59.3749974 95.4599957 58.6450047 95.03 57.705 95.03 56.7349951 95.03 55.9900026 95.4699956 55.47 96.35 55.0299978 97.0700036 54.81 97.9449948 54.81 98.975 54.81 99.985005 55.0349977 100.849996 55.485 101.57 56.0150026 102.430004 56.7499953 102.86 57.69 102.86 58.6600048 102.86 59.4049974 102.420004 59.925 101.54 60.3550021 100.819996 60.57 99.9400052 60.57 98.9zM70.725 104L69.045 104C68.8849992 103.699998 68.6650014 102.900006 68.385 101.6 68.2449993 100.919997 68.0325014 100.442501 67.7475 100.1675 67.4624986 99.8924986 67.0500027 99.755 66.51 99.755L65.505 99.755 65.505 104 63.9 104 63.9 94.025C64.6400037 93.8849993 65.5149949 93.815 66.525 93.815 67.8950068 93.815 68.8949968 94.0849973 69.525 94.625 70.0850028 95.1050024 70.365 95.7699957 70.365 96.62 70.365 97.2400031 70.1800018 97.7849976 69.81 98.255 69.4799983 98.6750021 69.0500026 98.979999 68.52 99.17L68.52 99.2C69.2100034 99.4600013 69.6849987 100.129995 69.945 101.21 70.145001 102.050004 70.2899995 102.629998 70.38 102.95 70.5200007 103.480003 70.6349995 103.829999 70.725 104zM68.745 96.785C68.745 95.6349942 68.0550069 95.055 66.675 95.045 66.1549974 95.045 65.7650013 95.0799996 65.505 95.15L65.505 98.555 66.645 98.555C67.2850032 98.555 67.7949981 98.3925016 68.175 98.0675 68.5550019 97.7424984 68.745 97.3150026 68.745 96.785zM77.94 104L72.12 104 72.12 93.89 77.73 93.89 77.73 95.225 73.74 95.225 73.74 98.075 77.505 98.075 77.505 99.41 73.74 99.41 73.74 102.665 77.94 102.665 77.94 104z"/>
    <path stroke="#333" stroke-linecap="square" d="M2,112.5 L77,112.5"/>
    <path fill="#333" d="M257.485,95.255 L254.59,95.255 L254.59,104 L252.955,104 L252.955,95.255 L250.075,95.255 L250.075,93.89 L257.485,93.89 L257.485,95.255 Z M264.46,104 L258.64,104 L258.64,93.89 L264.25,93.89 L264.25,95.225 L260.26,95.225 L260.26,98.075 L264.025,98.075 L264.025,99.41 L260.26,99.41 L260.26,102.665 L264.46,102.665 L264.46,104 Z M273.865,104 L272.14,104 L271.195,101.03 L267.91,101.03 L267.01,104 L265.33,104 L268.585,93.89 L270.595,93.89 L273.865,104 Z M270.91,99.785 L270.055,97.145 C269.965,96.8749987 269.795001,96.240005 269.545,95.24 L269.515,95.24 C269.415,95.6700022 269.255001,96.3049958 269.035,97.145 L268.195,99.785 L270.91,99.785 Z M285.46,104 L283.885,104 L283.675,99.77 C283.575,97.8599905 283.53,96.4400047 283.54,95.51 L283.495,95.51 C283.174998,96.700006 282.780002,97.9749932 282.31,99.335 L280.735,103.91 L279.505,103.91 L278.065,99.41 C277.634998,98.0499932 277.285001,96.7500062 277.015,95.51 L276.985,95.51 C276.935,97.0300076 276.875,98.4749932 276.805,99.845 L276.565,104 L275.05,104 L275.725,93.89 L277.81,93.89 L279.265,98.27 C279.625002,99.3500054 279.939999,100.509994 280.21,101.75 L280.255,101.75 C280.575002,100.459994 280.914998,99.3000052 281.275,98.27 L282.79,93.89 L284.875,93.89 L285.46,104 Z M297.73,104 L296.05,104 C295.889999,103.699999 295.670001,102.900007 295.39,101.6 C295.249999,100.919997 295.037501,100.442501 294.7525,100.1675 C294.467499,99.8924986 294.055003,99.755 293.515,99.755 L292.51,99.755 L292.51,104 L290.905,104 L290.905,94.025 C291.645004,93.8849993 292.519995,93.815 293.53,93.815 C294.900007,93.815 295.899997,94.0849973 296.53,94.625 C297.090003,95.1050024 297.37,95.7699958 297.37,96.62 C297.37,97.2400031 297.185002,97.7849977 296.815,98.255 C296.484998,98.6750021 296.055003,98.9799991 295.525,99.17 L295.525,99.2 C296.215003,99.4600013 296.689999,100.129995 296.95,101.21 C297.150001,102.050004 297.295,102.629998 297.385,102.95 C297.525001,103.480003 297.64,103.829999 297.73,104 Z M295.75,96.785 C295.75,95.6349943 295.060007,95.0550001 293.68,95.045 C293.159997,95.045 292.770001,95.0799997 292.51,95.15 L292.51,98.555 L293.65,98.555 C294.290003,98.555 294.799998,98.3925016 295.18,98.0675 C295.560002,97.7424984 295.75,97.3150027 295.75,96.785 Z M306.91,104 L305.185,104 L304.24,101.03 L300.955,101.03 L300.055,104 L298.375,104 L301.63,93.89 L303.64,93.89 L306.91,104 Z M303.955,99.785 L303.1,97.145 C303.01,96.8749987 302.840001,96.240005 302.59,95.24 L302.56,95.24 C302.46,95.6700022 302.300001,96.3049958 302.08,97.145 L301.24,99.785 L303.955,99.785 Z M316.045,104 L314.38,104 L311.59,99.305 C310.839996,98.0349937 310.240002,96.8850052 309.79,95.855 L309.745,95.87 C309.815,97.0000057 309.85,98.4299914 309.85,100.16 L309.85,104 L308.35,104 L308.35,93.89 L310.15,93.89 L312.94,98.525 C313.590003,99.6050054 314.164998,100.719994 314.665,101.87 L314.695,101.855 C314.584999,100.714994 314.53,99.3150083 314.53,97.655 L314.53,93.89 L316.045,93.89 L316.045,104 Z M325.57,104 L323.665,104 L320.71,99.245 L319.795,100.325 L319.795,104 L318.19,104 L318.19,93.89 L319.795,93.89 L319.795,98.63 L319.84,98.63 C320.100001,98.219998 320.349999,97.8550016 320.59,97.535 L323.335,93.89 L325.33,93.89 L321.85,98.195 L325.57,104 Z M328.165,104 L326.545,104 L326.545,93.89 L328.165,93.89 L328.165,104 Z M338.02,104 L336.355,104 L333.565,99.305 C332.814996,98.0349937 332.215002,96.8850052 331.765,95.855 L331.72,95.87 C331.79,97.0000057 331.825,98.4299914 331.825,100.16 L331.825,104 L330.325,104 L330.325,93.89 L332.125,93.89 L334.915,98.525 C335.565003,99.6050054 336.139998,100.719994 336.64,101.87 L336.67,101.855 C336.559999,100.714994 336.505,99.3150083 336.505,97.655 L336.505,93.89 L338.02,93.89 L338.02,104 Z M347.92,103.55 C346.939995,103.920002 345.905005,104.105 344.815,104.105 C343.194992,104.105 341.930005,103.665004 341.02,102.785 C340.079995,101.874995 339.61,100.625008 339.61,99.035 C339.61,97.4549921 340.112495,96.1850048 341.1175,95.225 C342.122505,94.2649952 343.444992,93.785 345.085,93.785 C346.135005,93.785 346.979997,93.9399985 347.62,94.25 L347.26,95.57 C346.639997,95.2899986 345.905004,95.15 345.055,95.15 C343.924994,95.15 343.025003,95.4749968 342.355,96.125 C341.664997,96.8050034 341.32,97.744994 341.32,98.945 C341.32,100.145006 341.649997,101.089997 342.31,101.78 C342.940003,102.440003 343.799995,102.77 344.89,102.77 C345.570003,102.77 346.059999,102.700001 346.36,102.56 L346.36,99.815 L344.515,99.815 L344.515,98.54 L347.92,98.54 L347.92,103.55 Z"/>
    <path stroke="#333" stroke-linecap="square" d="M252,112.5 L347,112.5"/>
    <path fill="#EF4F5D" d="M98.584,151.708 C102.256,151.708 103.192,148.468 103.372,146.452 C101.824,147.892 99.988,148.504 98.008,148.504 C93.148,148.504 89.548,145.444 89.548,140.512 L89.548,140.44 C89.548,134.896 93.832,131.296 99.592,131.296 C103.264,131.296 105.424,132.304 107.332,134.212 C109.168,136.048 110.356,138.928 110.356,143.572 L110.356,143.644 C110.356,151.852 106.252,157.504 98.728,157.504 C94.948,157.504 92.248,156.316 89.908,154.516 L93.184,149.692 C94.948,151.06 96.604,151.708 98.584,151.708 Z M99.916,143.5 C102.112,143.5 103.444,142.06 103.444,140.224 L103.444,140.152 C103.444,138.208 102.04,136.696 99.844,136.696 C97.648,136.696 96.316,138.172 96.316,140.116 L96.316,140.188 C96.316,142.096 97.72,143.5 99.916,143.5 Z M124.936,157.504 C117.772,157.504 113.308,151.6 113.308,144.472 L113.308,144.4 C113.308,137.272 117.844,131.296 125.008,131.296 C132.172,131.296 136.636,137.2 136.636,144.328 L136.636,144.4 C136.636,151.528 132.136,157.504 124.936,157.504 Z M125.008,151.312 C127.816,151.312 129.616,148.468 129.616,144.472 L129.616,144.4 C129.616,140.368 127.744,137.452 124.936,137.452 C122.164,137.452 120.328,140.296 120.328,144.328 L120.328,144.4 C120.328,148.432 122.2,151.312 125.008,151.312 Z"/>
    <path fill="#333" d="M97.058,174.184 C97.058,175.612007 96.6940036,176.778662 95.966,177.684 C95.1819961,178.664005 94.0946736,179.154 92.704,179.154 C91.3879934,179.154 90.3426705,178.673338 89.568,177.712 C88.8493297,176.825329 88.49,175.70534 88.49,174.352 C88.49,172.97066 88.8633296,171.818005 89.61,170.894 C90.4126707,169.904662 91.4859933,169.41 92.83,169.41 C94.15534,169.41 95.2053295,169.885995 95.98,170.838 C96.6986703,171.715338 97.058,172.83066 97.058,174.184 Z M95.448,174.24 C95.448,173.306662 95.2380021,172.504003 94.818,171.832 C94.3326642,171.029329 93.6513377,170.628 92.774,170.628 C91.8686621,170.628 91.1733358,171.038663 90.688,171.86 C90.2773313,172.532003 90.072,173.348662 90.072,174.31 C90.072,175.252671 90.2819979,176.059997 90.702,176.732 C91.1966691,177.534671 91.8826623,177.936 92.76,177.936 C93.6653379,177.936 94.3606642,177.525337 94.846,176.704 C95.2473353,176.031997 95.448,175.210672 95.448,174.24 Z M106.312,174.058 C106.312,175.756675 105.803338,177.035329 104.786,177.894 C103.843329,178.687337 102.504009,179.084 100.768,179.084 C99.909329,179.084 99.1720031,179.046667 98.556,178.972 L98.556,169.69 C99.3586707,169.559333 100.226662,169.494 101.16,169.494 C102.812008,169.494 104.057996,169.85333 104.898,170.572 C105.840671,171.384004 106.312,172.545992 106.312,174.058 Z M104.716,174.1 C104.716,172.998661 104.424336,172.154003 103.841,171.566 C103.257664,170.977997 102.406006,170.684 101.286,170.684 C100.809998,170.684 100.404002,170.716666 100.068,170.782 L100.068,177.838 C100.254668,177.866 100.595331,177.88 101.09,177.88 C102.247339,177.88 103.140997,177.558003 103.771,176.914 C104.401003,176.269997 104.716,175.332006 104.716,174.1 Z M109.336,179 L107.824,179 L107.824,169.564 L109.336,169.564 L109.336,179 Z"/>
    <path fill="#FF8200" d="M169.584,151.708 C173.256,151.708 174.192,148.468 174.372,146.452 C172.824,147.892 170.988,148.504 169.008,148.504 C164.148,148.504 160.548,145.444 160.548,140.512 L160.548,140.44 C160.548,134.896 164.832,131.296 170.592,131.296 C174.264,131.296 176.424,132.304 178.332,134.212 C180.168,136.048 181.356,138.928 181.356,143.572 L181.356,143.644 C181.356,151.852 177.252,157.504 169.728,157.504 C165.948,157.504 163.248,156.316 160.908,154.516 L164.184,149.692 C165.948,151.06 167.604,151.708 169.584,151.708 Z M170.916,143.5 C173.112,143.5 174.444,142.06 174.444,140.224 L174.444,140.152 C174.444,138.208 173.04,136.696 170.844,136.696 C168.648,136.696 167.316,138.172 167.316,140.116 L167.316,140.188 C167.316,142.096 168.72,143.5 170.916,143.5 Z M195.936,157.504 C188.772,157.504 184.308,151.6 184.308,144.472 L184.308,144.4 C184.308,137.272 188.844,131.296 196.008,131.296 C203.172,131.296 207.636,137.2 207.636,144.328 L207.636,144.4 C207.636,151.528 203.136,157.504 195.936,157.504 Z M196.008,151.312 C198.816,151.312 200.616,148.468 200.616,144.472 L200.616,144.4 C200.616,140.368 198.744,137.452 195.936,137.452 C193.164,137.452 191.328,140.296 191.328,144.328 L191.328,144.4 C191.328,148.432 193.2,151.312 196.008,151.312 Z"/>
    <path fill="#333" d="M165.986,170.838 L163.284,170.838 L163.284,179 L161.758,179 L161.758,170.838 L159.07,170.838 L159.07,169.564 L165.986,169.564 L165.986,170.838 Z M172.58,179 L166.658,179 L166.658,178.076 L167.68,177.096 C168.856006,175.947994 169.649331,175.103336 170.06,174.562 C170.592003,173.861997 170.858,173.213336 170.858,172.616 C170.867333,171.533328 170.316672,170.992 169.206,170.992 C168.57133,170.992 167.93667,171.239331 167.302,171.734 L166.854,170.656 C167.591337,170.04933 168.473328,169.746 169.5,169.746 C170.433338,169.746 171.161331,170.021331 171.684,170.572 C172.150669,171.066669 172.384,171.691996 172.384,172.448 C172.384,173.213337 172.118003,173.983329 171.586,174.758 C171.165998,175.383336 170.480005,176.139329 169.528,177.026 L168.786,177.712 L168.786,177.74 L172.58,177.74 L172.58,179 Z M180.098,174.38 C180.098,175.67734 179.888002,176.736663 179.468,177.558 C178.926664,178.622005 178.068006,179.154 176.892,179.154 C175.790661,179.154 174.969336,178.617339 174.428,177.544 C174.007998,176.722663 173.798,175.700673 173.798,174.478 C173.798,173.227327 174.021998,172.182004 174.47,171.342 C175.030003,170.277995 175.879328,169.746 177.018,169.746 C178.138006,169.746 178.963997,170.268661 179.496,171.314 C179.897335,172.116671 180.098,173.13866 180.098,174.38 Z M178.572,174.422 C178.572,172.088655 178.030672,170.922 176.948,170.922 C176.31333,170.922 175.856001,171.393329 175.576,172.336 C175.398666,172.94267 175.31,173.661329 175.31,174.492 C175.31,175.322671 175.398666,176.031997 175.576,176.62 C175.846668,177.525338 176.303997,177.978 176.948,177.978 C178.030672,177.978 178.572,176.792679 178.572,174.422 Z M183.108,179 L181.596,179 L181.596,169.564 L183.108,169.564 L183.108,179 Z"/>
    <g transform="translate(0 220)">
      <polyline stroke="#3ACA60" stroke-width="2" points="5.246 56.136 74.291 9.894 173.249 41.849 290.983 15.017 367.369 56.136 434.571 3.518"/>
      <ellipse cx="5.293" cy="56.184" fill="#3ACA60" rx="5.293" ry="5.31"/>
      <ellipse cx="74.816" cy="10.128" fill="#3ACA60" rx="5.293" ry="5.31"/>
      <ellipse cx="173.159" cy="41.714" fill="#3ACA60" rx="5.293" ry="5.31"/>
      <ellipse cx="289.878" cy="16.721" fill="#3ACA60" rx="5.293" ry="5.31"/>
      <ellipse cx="367.253" cy="54.868" fill="#3ACA60" rx="5.293" ry="5.31"/>
      <ellipse cx="431.514" cy="6.197" fill="#3ACA60" rx="5.293" ry="5.31"/>
    </g>
    <g transform="translate(0 202)">
      <path fill="#3ACA60" d="M4.00041942,1.92631531 C4.29594014,0.86244074 5.43439907,0 6.52716455,0 L47.5438495,0 C48.6438116,0 49.2943466,0.868177414 49.0004194,1.92631531 L45.0705946,16.0736847 C44.7750739,17.1375593 43.6366149,18 42.5438495,18 L1.52716455,18 C0.427202462,18 -0.223332599,17.1318226 0.0705945932,16.0736847 L4.00041942,1.92631531 Z"/>
      <path fill="#FFF" d="M19.643,5.655 L17.212,5.655 L17.212,13 L15.535,13 L15.535,5.655 L13.13,5.655 L13.13,4.238 L19.643,4.238 L19.643,5.655 Z M26,9.594 C26,9.88000143 25.9826668,10.1183324 25.948,10.309 L21.827,10.309 C21.8530001,10.8203359 22.0479982,11.210332 22.412,11.479 C22.7500017,11.7303346 23.1833307,11.856 23.712,11.856 C24.3273364,11.856 24.8949974,11.7606676 25.415,11.57 L25.662,12.727 C25.0379969,12.9870013 24.3056709,13.117 23.465,13.117 C22.4509949,13.117 21.6558362,12.8288362 21.0795,12.2525 C20.5031638,11.6761638 20.215,10.8940049 20.215,9.906 C20.215,8.97866203 20.4749974,8.19433654 20.995,7.553 C21.5670029,6.8596632 22.3339952,6.513 23.296,6.513 C24.223338,6.513 24.925331,6.84666333 25.402,7.514 C25.8006687,8.06866944 26,8.76199584 26,9.594 Z M24.427,9.139 C24.427,8.76633147 24.3446675,8.44566801 24.18,8.177 C23.9633323,7.8303316 23.6340022,7.657 23.192,7.657 C22.7759979,7.657 22.4423346,7.82599831 22.191,8.164 C21.982999,8.43266801 21.8616668,8.75766476 21.827,9.139 L24.427,9.139 Z M31.369,11.128 C31.369,11.7346697 31.1480022,12.2156649 30.706,12.571 C30.2379977,12.9436685 29.5966707,13.13 28.782,13.13 C28.0193295,13.13 27.3780026,12.9826681 26.858,12.688 L27.183,11.479 C27.6770025,11.7823348 28.2099971,11.934 28.782,11.934 C29.4233365,11.934 29.744,11.7130022 29.744,11.271 C29.744,11.062999 29.6725007,10.8961673 29.5295,10.7705 C29.3864993,10.6448327 29.1286685,10.5170006 28.756,10.387 C27.5946609,9.97099792 27.014,9.35133745 27.014,8.528 C27.014,7.94733043 27.2349978,7.46850189 27.677,7.0915 C28.1190022,6.71449811 28.7039964,6.526 29.432,6.526 C30.09067,6.526 30.6496644,6.64733212 31.109,6.89 L30.784,8.073 C30.3593312,7.83033212 29.9216689,7.709 29.471,7.709 C28.9076639,7.709 28.626,7.92133121 28.626,8.346 C28.626,8.52800091 28.7039992,8.67749941 28.86,8.7945 C29.0160008,8.91150058 29.2933313,9.04366593 29.692,9.191 C30.8013389,9.59833537 31.3603333,10.2439956 31.369,11.128 Z M36.023,7.904 L34.541,7.904 L34.541,10.608 C34.541,11.3706705 34.809664,11.752 35.347,11.752 C35.5810012,11.752 35.7803325,11.7303336 35.945,11.687 L35.971,12.974 C35.6763319,13.0780005 35.2820025,13.13 34.788,13.13 C34.1986637,13.13 33.7350017,12.9545018 33.397,12.6035 C33.0589983,12.2524982 32.89,11.6566709 32.89,10.816 L32.89,7.904 L32.019,7.904 L32.019,6.656 L32.89,6.656 L32.89,5.486 L34.541,5.018 L34.541,6.656 L36.023,6.656 L36.023,7.904 Z"/>
    </g>
    <mask id="team-b" fill="#fff">
      <use xlink:href="#team-a"/>
    </mask>
    <use fill="#D7DF23" stroke="#333" stroke-width="2" xlink:href="#team-a"/>
    <g mask="url(#team-b)">
      <g transform="translate(-24.292 -4.583)">
        <rect width="103.125" height="68.75" fill="#F93" fill-rule="nonzero"/>
        <rect width="103.125" height="22.917" y="22.917" fill="#FFF" fill-rule="nonzero"/>
        <rect width="103.125" height="22.917" y="45.833" fill="#128807" fill-rule="nonzero"/>
        <g transform="translate(19.48)">
          <circle cx="32.083" cy="34.375" r="9.167" fill="#008" fill-rule="nonzero"/>
          <circle cx="32.083" cy="34.375" r="8.021" fill="#FFF" fill-rule="nonzero"/>
          <circle cx="32.083" cy="34.375" r="1.604" fill="#008" fill-rule="nonzero"/>
          <g fill="#008" fill-rule="nonzero" transform="translate(6.875 13.75)">
            <g transform="translate(10.083 10.083)">
              <g transform="translate(8.708 6.875)">
                <g transform="translate(5.958 4.125)">
                  <circle cx="8.397" cy=".709" r="1" transform="rotate(7.5 8.86 1.163)"/>
                  <path d="M0.641666667,7.5625 L1.1,2.75 L0.641666667,0.458333333 L0.183333333,2.75 L0.641666667,7.5625 Z"/>
                </g>
                <g transform="rotate(15 -12.229 24.233)">
                  <circle cx="8.397" cy=".709" r="1" transform="rotate(7.5 8.86 1.163)"/>
                  <path d="M0.641666667,7.5625 L1.1,2.75 L0.641666667,0.458333333 L0.183333333,2.75 L0.641666667,7.5625 Z"/>
                </g>
              </g>
              <g transform="rotate(30 -2.058 23.354)">
                <g transform="translate(5.958 4.125)">
                  <circle cx="8.397" cy=".709" r="1" transform="rotate(7.5 8.86 1.163)"/>
                  <path d="M0.641666667,7.5625 L1.1,2.75 L0.641666667,0.458333333 L0.183333333,2.75 L0.641666667,7.5625 Z"/>
                </g>
                <g transform="rotate(15 -12.229 24.233)">
                  <circle cx="8.397" cy=".709" r="1" transform="rotate(7.5 8.86 1.163)"/>
                  <path d="M0.641666667,7.5625 L1.1,2.75 L0.641666667,0.458333333 L0.183333333,2.75 L0.641666667,7.5625 Z"/>
                </g>
              </g>
            </g>
            <g transform="rotate(60 11.434 24.316)">
              <g transform="translate(8.708 6.875)">
                <g transform="translate(5.958 4.125)">
                  <circle cx="8.397" cy=".709" r="1" transform="rotate(7.5 8.86 1.163)"/>
                  <path d="M0.641666667,7.5625 L1.1,2.75 L0.641666667,0.458333333 L0.183333333,2.75 L0.641666667,7.5625 Z"/>
                </g>
                <g transform="rotate(15 -12.229 24.233)">
                  <circle cx="8.397" cy=".709" r="1" transform="rotate(7.5 8.86 1.163)"/>
                  <path d="M0.641666667,7.5625 L1.1,2.75 L0.641666667,0.458333333 L0.183333333,2.75 L0.641666667,7.5625 Z"/>
                </g>
              </g>
              <g transform="rotate(30 -2.058 23.354)">
                <g transform="translate(5.958 4.125)">
                  <circle cx="8.397" cy=".709" r="1" transform="rotate(7.5 8.86 1.163)"/>
                  <path d="M0.641666667,7.5625 L1.1,2.75 L0.641666667,0.458333333 L0.183333333,2.75 L0.641666667,7.5625 Z"/>
                </g>
                <g transform="rotate(15 -12.229 24.233)">
                  <circle cx="8.397" cy=".709" r="1" transform="rotate(7.5 8.86 1.163)"/>
                  <path d="M0.641666667,7.5625 L1.1,2.75 L0.641666667,0.458333333 L0.183333333,2.75 L0.641666667,7.5625 Z"/>
                </g>
              </g>
            </g>
          </g>
          <g fill="#008" fill-rule="nonzero" transform="rotate(120 24.677 29.485)">
            <g transform="translate(10.083 10.083)">
              <g transform="translate(8.708 6.875)">
                <g transform="translate(5.958 4.125)">
                  <circle cx="8.397" cy=".709" r="1" transform="rotate(7.5 8.86 1.163)"/>
                  <path d="M0.641666667,7.5625 L1.1,2.75 L0.641666667,0.458333333 L0.183333333,2.75 L0.641666667,7.5625 Z"/>
                </g>
                <g transform="rotate(15 -12.229 24.233)">
                  <circle cx="8.397" cy=".709" r="1" transform="rotate(7.5 8.86 1.163)"/>
                  <path d="M0.641666667,7.5625 L1.1,2.75 L0.641666667,0.458333333 L0.183333333,2.75 L0.641666667,7.5625 Z"/>
                </g>
              </g>
              <g transform="rotate(30 -2.058 23.354)">
                <g transform="translate(5.958 4.125)">
                  <circle cx="8.397" cy=".709" r="1" transform="rotate(7.5 8.86 1.163)"/>
                  <path d="M0.641666667,7.5625 L1.1,2.75 L0.641666667,0.458333333 L0.183333333,2.75 L0.641666667,7.5625 Z"/>
                </g>
                <g transform="rotate(15 -12.229 24.233)">
                  <circle cx="8.397" cy=".709" r="1" transform="rotate(7.5 8.86 1.163)"/>
                  <path d="M0.641666667,7.5625 L1.1,2.75 L0.641666667,0.458333333 L0.183333333,2.75 L0.641666667,7.5625 Z"/>
                </g>
              </g>
            </g>
            <g transform="rotate(60 11.434 24.316)">
              <g transform="translate(8.708 6.875)">
                <g transform="translate(5.958 4.125)">
                  <circle cx="8.397" cy=".709" r="1" transform="rotate(7.5 8.86 1.163)"/>
                  <path d="M0.641666667,7.5625 L1.1,2.75 L0.641666667,0.458333333 L0.183333333,2.75 L0.641666667,7.5625 Z"/>
                </g>
                <g transform="rotate(15 -12.229 24.233)">
                  <circle cx="8.397" cy=".709" r="1" transform="rotate(7.5 8.86 1.163)"/>
                  <path d="M0.641666667,7.5625 L1.1,2.75 L0.641666667,0.458333333 L0.183333333,2.75 L0.641666667,7.5625 Z"/>
                </g>
              </g>
              <g transform="rotate(30 -2.058 23.354)">
                <g transform="translate(5.958 4.125)">
                  <circle cx="8.397" cy=".709" r="1" transform="rotate(7.5 8.86 1.163)"/>
                  <path d="M0.641666667,7.5625 L1.1,2.75 L0.641666667,0.458333333 L0.183333333,2.75 L0.641666667,7.5625 Z"/>
                </g>
                <g transform="rotate(15 -12.229 24.233)">
                  <circle cx="8.397" cy=".709" r="1" transform="rotate(7.5 8.86 1.163)"/>
                  <path d="M0.641666667,7.5625 L1.1,2.75 L0.641666667,0.458333333 L0.183333333,2.75 L0.641666667,7.5625 Z"/>
                </g>
              </g>
            </g>
          </g>
          <g fill="#008" fill-rule="nonzero" transform="rotate(-120 32.615 25.515)">
            <g transform="translate(10.083 10.083)">
              <g transform="translate(8.708 6.875)">
                <g transform="translate(5.958 4.125)">
                  <circle cx="8.397" cy=".709" r="1" transform="rotate(7.5 8.86 1.163)"/>
                  <path d="M0.641666667,7.5625 L1.1,2.75 L0.641666667,0.458333333 L0.183333333,2.75 L0.641666667,7.5625 Z"/>
                </g>
                <g transform="rotate(15 -12.229 24.233)">
                  <circle cx="8.397" cy=".709" r="1" transform="rotate(7.5 8.86 1.163)"/>
                  <path d="M0.641666667,7.5625 L1.1,2.75 L0.641666667,0.458333333 L0.183333333,2.75 L0.641666667,7.5625 Z"/>
                </g>
              </g>
              <g transform="rotate(30 -2.058 23.354)">
                <g transform="translate(5.958 4.125)">
                  <circle cx="8.397" cy=".709" r="1" transform="rotate(7.5 8.86 1.163)"/>
                  <path d="M0.641666667,7.5625 L1.1,2.75 L0.641666667,0.458333333 L0.183333333,2.75 L0.641666667,7.5625 Z"/>
                </g>
                <g transform="rotate(15 -12.229 24.233)">
                  <circle cx="8.397" cy=".709" r="1" transform="rotate(7.5 8.86 1.163)"/>
                  <path d="M0.641666667,7.5625 L1.1,2.75 L0.641666667,0.458333333 L0.183333333,2.75 L0.641666667,7.5625 Z"/>
                </g>
              </g>
            </g>
            <g transform="rotate(60 11.434 24.316)">
              <g transform="translate(8.708 6.875)">
                <g transform="translate(5.958 4.125)">
                  <circle cx="8.397" cy=".709" r="1" transform="rotate(7.5 8.86 1.163)"/>
                  <path d="M0.641666667,7.5625 L1.1,2.75 L0.641666667,0.458333333 L0.183333333,2.75 L0.641666667,7.5625 Z"/>
                </g>
                <g transform="rotate(15 -12.229 24.233)">
                  <circle cx="8.397" cy=".709" r="1" transform="rotate(7.5 8.86 1.163)"/>
                  <path d="M0.641666667,7.5625 L1.1,2.75 L0.641666667,0.458333333 L0.183333333,2.75 L0.641666667,7.5625 Z"/>
                </g>
              </g>
              <g transform="rotate(30 -2.058 23.354)">
                <g transform="translate(5.958 4.125)">
                  <circle cx="8.397" cy=".709" r="1" transform="rotate(7.5 8.86 1.163)"/>
                  <path d="M0.641666667,7.5625 L1.1,2.75 L0.641666667,0.458333333 L0.183333333,2.75 L0.641666667,7.5625 Z"/>
                </g>
                <g transform="rotate(15 -12.229 24.233)">
                  <circle cx="8.397" cy=".709" r="1" transform="rotate(7.5 8.86 1.163)"/>
                  <path d="M0.641666667,7.5625 L1.1,2.75 L0.641666667,0.458333333 L0.183333333,2.75 L0.641666667,7.5625 Z"/>
                </g>
              </g>
            </g>
          </g>
        </g>
      </g>
    </g>
    <g fill="#333" transform="translate(70 2)">
      <path d="M14.544 55.672C22.704 55.672 28.416 51.16 28.416 43.72L28.416 43.624C28.416 36.328 22.944 32.968 16.896 32.968 14.64 32.968 13.056 33.448 11.52 34.168L11.808 29.08 26.928 29.08 26.928 21.4 4.464 21.4 3.504 38.392 9.024 41.512C10.608 40.552 12.336 39.832 14.4 39.832 17.328 39.832 19.344 41.272 19.344 43.72L19.344 43.816C19.344 46.216 17.52 47.752 14.448 47.752 11.568 47.752 8.976 46.408 6.288 44.104L.96 50.344C4.464 53.608 8.592 55.672 14.544 55.672zM45.36 55.576C37.296 55.576 31.584 51.592 31.584 45.736L31.584 45.64C31.584 41.56 33.696 39.112 37.296 37.576 34.752 36.136 32.736 33.88 32.736 30.232L32.736 30.136C32.736 24.808 37.824 20.824 45.36 20.824 52.896 20.824 58.032 24.808 58.032 30.136L58.032 30.232C58.032 33.88 56.016 36.136 53.424 37.576 56.832 39.16 59.184 41.416 59.184 45.544L59.184 45.64C59.184 51.688 53.424 55.576 45.36 55.576zM45.36 35.032C47.856 35.032 49.536 33.448 49.536 31.336L49.536 31.24C49.536 29.368 47.952 27.688 45.36 27.688 42.816 27.688 41.232 29.368 41.232 31.24L41.232 31.336C41.232 33.448 42.864 35.032 45.36 35.032zM45.36 48.616C48.48 48.616 50.208 46.84 50.208 44.824L50.208 44.728C50.208 42.52 48.24 41.032 45.36 41.032 42.528 41.032 40.512 42.52 40.512 44.728L40.512 44.824C40.512 46.84 42.24 48.616 45.36 48.616zM76.848 55.672C72.096 55.672 69.024 54.232 66.576 51.832 64.08 49.336 62.448 45.544 62.448 39.256L62.448 39.16C62.448 28.696 67.536 20.728 78.048 20.728 82.752 20.728 86.016 22.024 89.232 24.424L84.864 30.952C82.8 29.416 80.88 28.408 78.192 28.408 73.344 28.408 72.096 32.92 71.856 35.608 74.016 33.928 76.224 33.016 79.104 33.016 85.008 33.016 90.192 36.76 90.192 43.48L90.192 43.576C90.192 51.064 84.192 55.672 76.848 55.672zM76.464 48.424C79.392 48.424 81.168 46.552 81.168 44.104L81.168 44.008C81.168 41.56 79.296 39.688 76.368 39.688 73.44 39.688 71.712 41.512 71.712 43.96L71.712 44.056C71.712 46.504 73.536 48.424 76.464 48.424zM110.736 55L110.736 48.472 94.416 48.472 92.928 41.896 110.352 21.16 119.712 21.16 119.712 41.512 123.984 41.512 123.984 48.472 119.712 48.472 119.712 55 110.736 55zM102.672 41.56L110.736 41.56 110.736 31.864 102.672 41.56zM142.8 55.672C133.248 55.672 127.296 47.8 127.296 38.296L127.296 38.2C127.296 28.696 133.344 20.728 142.896 20.728 152.448 20.728 158.4 28.6 158.4 38.104L158.4 38.2C158.4 47.704 152.4 55.672 142.8 55.672zM142.896 47.416C146.64 47.416 149.04 43.624 149.04 38.296L149.04 38.2C149.04 32.824 146.544 28.936 142.8 28.936 139.104 28.936 136.656 32.728 136.656 38.104L136.656 38.2C136.656 43.576 139.152 47.416 142.896 47.416zM7.485 2.255L4.59 2.255 4.59 11 2.955 11 2.955 2.255.075 2.255.075.89 7.485.89 7.485 2.255zM17.265 5.84C17.265 7.37000765 16.8750039 8.61999515 16.095 9.59 15.2549958 10.6400052 14.0900074 11.165 12.6 11.165 11.189993 11.165 10.0700042 10.6500051 9.24 9.62 8.46999615 8.66999525 8.085 7.47000725 8.085 6.02 8.085 4.5399926 8.484996 3.30500495 9.285 2.315 10.1450043 1.2549947 11.2949928.725 12.735.725 14.1550071.725 15.2799959 1.2349949 16.11 2.255 16.8800039 3.1950047 17.265 4.38999275 17.265 5.84zM15.54 5.9C15.54 4.899995 15.3150023 4.0400036 14.865 3.32 14.3449974 2.4599957 13.6150047 2.03 12.675 2.03 11.7049952 2.03 10.9600026 2.4699956 10.44 3.35 9.9999978 4.0700036 9.78 4.94499485 9.78 5.975 9.78 6.98500505 10.0049978 7.8499964 10.455 8.57 10.9850027 9.4300043 11.7199953 9.86 12.66 9.86 13.6300049 9.86 14.3749974 9.4200044 14.895 8.54 15.3250022 7.8199964 15.54 6.9400052 15.54 5.9zM25.275 2.255L22.38 2.255 22.38 11 20.745 11 20.745 2.255 17.865 2.255 17.865.89 25.275.89 25.275 2.255zM34.215 11L32.49 11 31.545 8.03 28.26 8.03 27.36 11 25.68 11 28.935.89 30.945.89 34.215 11zM31.26 6.785L30.405 4.145C30.3149995 3.87499865 30.1450012 3.240005 29.895 2.24L29.865 2.24C29.7649995 2.67000215 29.6050011 3.3049958 29.385 4.145L28.545 6.785 31.26 6.785zM41.4 11L35.655 11 35.655.89 37.275.89 37.275 9.635 41.4 9.635 41.4 11zM52.14 8.165C52.14 9.0250043 51.840003 9.7249973 51.24 10.265 50.5799967 10.8550029 49.6600059 11.15 48.48 11.15 47.3899945 11.15 46.5150033 10.9400021 45.855 10.52L46.23 9.17C46.9400035 9.5900021 47.7199957 9.8 48.57 9.8 49.180003 9.8 49.6549983 9.66250137 49.995 9.3875 50.3350017 9.11249862 50.505 8.7450023 50.505 8.285 50.505 7.87499795 50.3650014 7.5300014 50.085 7.25 49.8049986 6.9699986 49.3400032 6.7100012 48.69 6.47 46.9199911 5.8099967 46.035 4.84500635 46.035 3.575 46.035 2.74499585 46.3474969 2.06500265 46.9725 1.535 47.5975031 1.00499735 48.4249948.74 49.455.74 50.3750046.74 51.1399969.8999984 51.75 1.22L51.345 2.54C50.7749971 2.22999845 50.1300036 2.075 49.41 2.075 48.8399971 2.075 48.3950016 2.2149986 48.075 2.495 47.8049986 2.74500125 47.67 3.0499982 47.67 3.41 47.67 3.810002 47.8249984 4.1399987 48.135 4.4 48.4050013 4.6400012 48.8949964 4.8999986 49.605 5.18 50.4750043 5.53000175 51.1149979 5.93999765 51.525 6.41 51.935002 6.88000235 52.14 7.4649965 52.14 8.165zM60.87 1.175L60.51 2.48C59.9499972 2.2199987 59.3100036 2.09 58.59 2.09 57.4999945 2.09 56.6350032 2.4199967 55.995 3.08 55.3149966 3.77000345 54.975 4.7349938 54.975 5.975 54.975 7.16500595 55.2899968 8.09749662 55.92 8.7725 56.5500031 9.44750337 57.4249944 9.785 58.545 9.785 59.3350039 9.785 59.9999973 9.66000125 60.54 9.41L60.825 10.7C60.224997 10.9900014 59.3700055 11.135 58.26 11.135 56.7399924 11.135 55.5350045 10.6900044 54.645 9.8 53.7249954 8.8799954 53.265 7.6300079 53.265 6.05 53.265 4.4299919 53.764995 3.1300049 54.765 2.15 55.7350048 1.2099953 56.9899923.74 58.53.74 59.5500051.74 60.3299973.88499855 60.87 1.175zM71.01 5.84C71.01 7.37000765 70.6200039 8.61999515 69.84 9.59 68.9999958 10.6400052 67.8350074 11.165 66.345 11.165 64.9349929 11.165 63.8150041 10.6500051 62.985 9.62 62.2149961 8.66999525 61.83 7.47000725 61.83 6.02 61.83 4.5399926 62.229996 3.30500495 63.03 2.315 63.8900043 1.2549947 65.0399928.725 66.48.725 67.9000071.725 69.0249958 1.2349949 69.855 2.255 70.6250038 3.1950047 71.01 4.38999275 71.01 5.84zM69.285 5.9C69.285 4.899995 69.0600022 4.0400036 68.61 3.32 68.0899974 2.4599957 67.3600047 2.03 66.42 2.03 65.4499951 2.03 64.7050026 2.4699956 64.185 3.35 63.7449978 4.0700036 63.525 4.94499485 63.525 5.975 63.525 6.98500505 63.7499977 7.8499964 64.2 8.57 64.7300026 9.4300043 65.4649953 9.86 66.405 9.86 67.3750048 9.86 68.1199974 9.4200044 68.64 8.54 69.0700021 7.8199964 69.285 6.9400052 69.285 5.9zM79.44 11L77.76 11C77.5999992 10.6999985 77.3800014 9.9000065 77.1 8.6 76.9599993 7.9199966 76.7475014 7.44250137 76.4625 7.1675 76.1774986 6.89249862 75.7650027 6.755 75.225 6.755L74.22 6.755 74.22 11 72.615 11 72.615 1.025C73.3550037.8849993 74.2299949.815 75.24.815 76.6100069.815 77.6099969 1.0849973 78.24 1.625 78.8000028 2.1050024 79.08 2.76999575 79.08 3.62 79.08 4.2400031 78.8950018 4.78499765 78.525 5.255 78.1949983 5.6750021 77.7650026 5.97999905 77.235 6.17L77.235 6.2C77.9250034 6.4600013 78.3999987 7.1299946 78.66 8.21 78.860001 9.0500042 79.0049995 9.6299984 79.095 9.95 79.2350007 10.4800026 79.3499995 10.8299991 79.44 11zM77.46 3.785C77.46 2.63499425 76.7700069 2.05500005 75.39 2.045 74.8699974 2.045 74.4800013 2.07999965 74.22 2.15L74.22 5.555 75.36 5.555C76.0000032 5.555 76.5099981 5.39250162 76.89 5.0675 77.2700019 4.74249837 77.46 4.31500265 77.46 3.785zM86.655 11L80.835 11 80.835.89 86.445.89 86.445 2.225 82.455 2.225 82.455 5.075 86.22 5.075 86.22 6.41 82.455 6.41 82.455 9.665 86.655 9.665 86.655 11zM94.08 8.165C94.08 9.0250043 93.780003 9.7249973 93.18 10.265 92.5199967 10.8550029 91.6000059 11.15 90.42 11.15 89.3299945 11.15 88.4550033 10.9400021 87.795 10.52L88.17 9.17C88.8800035 9.5900021 89.6599957 9.8 90.51 9.8 91.120003 9.8 91.5949983 9.66250137 91.935 9.3875 92.2750017 9.11249862 92.445 8.7450023 92.445 8.285 92.445 7.87499795 92.3050014 7.5300014 92.025 7.25 91.7449986 6.9699986 91.2800032 6.7100012 90.63 6.47 88.8599911 5.8099967 87.975 4.84500635 87.975 3.575 87.975 2.74499585 88.2874969 2.06500265 88.9125 1.535 89.5375031 1.00499735 90.3649948.74 91.395.74 92.3150046.74 93.0799969.8999984 93.69 1.22L93.285 2.54C92.7149971 2.22999845 92.0700036 2.075 91.35 2.075 90.7799971 2.075 90.3350016 2.2149986 90.015 2.495 89.7449986 2.74500125 89.61 3.0499982 89.61 3.41 89.61 3.810002 89.7649984 4.1399987 90.075 4.4 90.3450013 4.6400012 90.8349964 4.8999986 91.545 5.18 92.4150043 5.53000175 93.0549979 5.93999765 93.465 6.41 93.875002 6.88000235 94.08 7.4649965 94.08 8.165z"/>
    </g>
    <circle cx="275" cy="152" r="25" fill="#3ACA60"/>
    <circle cx="340" cy="152" r="25" fill="#EF4F5D"/>
    <circle cx="405" cy="152" r="25" fill="#FF8200" stroke="#FF8200" stroke-width="2"/>
    <polygon fill="#FFF" points="277.592 159 274.568 159 274.568 146.208 274.52 146.208 271.664 147.624 271.136 145.296 275 143.4 277.592 143.4"/>
    <path fill="#FFF" d="M346.264 155.088L344.32 155.088 344.32 159 341.392 159 341.392 155.088 334.48 155.088 334.48 153.072 340.648 143.4 344.32 143.4 344.32 152.736 346.264 152.736 346.264 155.088zM341.488 145.968L341.416 145.968C341.127999 146.592003 340.664003 147.495994 340.024 148.68L337.408 152.736 341.392 152.736 341.392 148.728C341.392 148.023996 341.424 147.104006 341.488 145.968zM410.544 159L400.008 159 400.008 157.104 401.88 155.352C403.80001 153.527991 405.103997 152.176004 405.792 151.296 406.656004 150.175994 407.096 149.136005 407.112 148.176 407.112 146.495992 406.216009 145.656 404.424 145.656 403.351995 145.656 402.264006 146.079996 401.16 146.928L400.272 144.696C401.600007 143.655995 403.191991 143.136 405.048 143.136 406.696008 143.136 407.983995 143.599995 408.912 144.528 409.776004 145.392004 410.208 146.511993 410.208 147.888 410.208 149.152006 409.784004 150.423994 408.936 151.704 408.247997 152.744005 407.176007 153.903994 405.72 155.184L404.376 156.384 404.376 156.432 410.544 156.432 410.544 159z"/>
  </g>
</svg>
