<svg id="Layer_1" data-name="Layer 1" xmlns="http://www.w3.org/2000/svg" viewBox="0 0 700 450"><defs><style>.cls-1{fill:#0a1a36;}.cls-2{fill:#10234b;}.cls-3{isolation:isolate;}.cls-4{fill:#8da6ce;}.cls-5{fill:#fff;}.cls-6{fill:#fbde2d;}.cls-7{fill:#61ce3c;}.cls-8{fill:#ff5053;}.cls-9{fill:#ffb90d;}.cls-10{fill:#00d34e;}</style></defs><title>Artboard 1</title><rect class="cls-1" width="700" height="450" rx="5" ry="5"/><rect class="cls-2" y="260" width="700" height="160"/><g class="cls-3"><path class="cls-4" d="M58.81,115.53a5.33,5.33,0,0,1-1.27.54,5,5,0,0,1-1.33.18,4.4,4.4,0,0,1-3.37-1.29,5.89,5.89,0,0,1,0-7.17,4.4,4.4,0,0,1,3.37-1.29,5,5,0,0,1,1.31.17,5.62,5.62,0,0,1,1.29.54v1.6a4.13,4.13,0,0,0-1.22-.78,3.74,3.74,0,0,0-1.38-.24,2.71,2.71,0,0,0-2.21.93A4.94,4.94,0,0,0,54,114a2.7,2.7,0,0,0,2.2.93,3.92,3.92,0,0,0,1.43-.24,3.57,3.57,0,0,0,1.17-.76Z"/><path class="cls-4" d="M61.85,112.48v-5.76h1.53v5.76a3.07,3.07,0,0,0,.44,1.84,1.61,1.61,0,0,0,1.37.59,1.94,1.94,0,0,0,1.65-.76,3.57,3.57,0,0,0,.57-2.18v-5.25H69V116H67.42v-1.39a2.89,2.89,0,0,1-1.11,1.22,3.16,3.16,0,0,1-1.64.41,2.48,2.48,0,0,1-2.12-.93A4.71,4.71,0,0,1,61.85,112.48Z"/><path class="cls-4" d="M80.06,108.62a3.46,3.46,0,0,0-1-.56,3.4,3.4,0,0,0-1.11-.17,2.69,2.69,0,0,0-2.18.9,3.92,3.92,0,0,0-.76,2.59V116H73.47v-9.3H75v1.82A3.1,3.1,0,0,1,76.18,107a3.32,3.32,0,0,1,1.88-.53,3.8,3.8,0,0,1,1.05.14,3.36,3.36,0,0,1,.94.44Z"/><path class="cls-4" d="M86.67,112.64a2.65,2.65,0,0,0,.38,1.55,1.29,1.29,0,0,0,1.12.52H90V116H88a2.64,2.64,0,0,1-2.12-.88,3.7,3.7,0,0,1-.75-2.49v-8.41H82.7V103h4Z"/><path class="cls-4" d="M102,110h8.8v1.4H102Z"/></g><g class="cls-3"><path class="cls-5" d="M112.12,103.61h1.8l2.72,4.67,2.77-4.67h1.8l-3.71,5.83,4,6.57h-1.8l-3-5.34L113.37,116h-1.81l4.15-6.57Z"/><path class="cls-5" d="M133.51,103.61h3.62a4.63,4.63,0,0,1,3.15.94,4.11,4.11,0,0,1,0,5.53,4.64,4.64,0,0,1-3.15.94h-1.94v5h-1.68Zm1.68,1.38v4.66h1.94a2.54,2.54,0,0,0,1.81-.61,2.59,2.59,0,0,0,0-3.43,2.55,2.55,0,0,0-1.82-.61Z"/><path class="cls-5" d="M151.38,109.82a9.06,9.06,0,0,1-1,4.83,3.86,3.86,0,0,1-6.25,0,9.09,9.09,0,0,1-1-4.84,9.09,9.09,0,0,1,1-4.84,3.85,3.85,0,0,1,6.24,0A9.09,9.09,0,0,1,151.38,109.82Zm-1.75,0a9.78,9.78,0,0,0-.56-3.9,2,2,0,0,0-3.67,0,9.76,9.76,0,0,0-.56,3.9,9.72,9.72,0,0,0,.56,3.89,2,2,0,0,0,3.67,0A9.74,9.74,0,0,0,149.63,109.82Z"/><path class="cls-5" d="M160.75,104v1.7a6.61,6.61,0,0,0-1.53-.74,5,5,0,0,0-1.55-.25,2.92,2.92,0,0,0-1.88.55,1.81,1.81,0,0,0-.69,1.49,1.65,1.65,0,0,0,.45,1.25,3.78,3.78,0,0,0,1.69.72l.88.2a4.86,4.86,0,0,1,2.54,1.28,3.38,3.38,0,0,1,.8,2.37,3.34,3.34,0,0,1-1.1,2.7,4.8,4.8,0,0,1-3.19.93,8.38,8.38,0,0,1-1.75-.19,9.86,9.86,0,0,1-1.77-.56v-1.79a8.27,8.27,0,0,0,1.81.89,5.43,5.43,0,0,0,1.71.28,3.07,3.07,0,0,0,2-.57,2.22,2.22,0,0,0,.22-3,3.42,3.42,0,0,0-1.69-.75l-.9-.21a5,5,0,0,1-2.51-1.18,2.88,2.88,0,0,1-.78-2.12,3.4,3.4,0,0,1,1.12-2.66,4.28,4.28,0,0,1,3-1,7.44,7.44,0,0,1,1.5.16A11.26,11.26,0,0,1,160.75,104Z"/><path class="cls-5" d="M163,103.61h9.45V105h-3.88v11h-1.69V105H163Z"/><path class="cls-5" d="M185.49,103.61l6.52,14h-1.58l-6.53-14Z"/></g><g class="cls-3"><path class="cls-4" d="M50.85,134h8.8v1.4h-8.8Z"/><path class="cls-4" d="M67.36,131.89v-4.81h1.53V140H67.36v-1.17a2.66,2.66,0,0,1-1,1,2.92,2.92,0,0,1-1.47.36,3.12,3.12,0,0,1-2.65-1.31,6,6,0,0,1-1-3.61,5.8,5.8,0,0,1,1-3.56,3.14,3.14,0,0,1,2.65-1.29,3,3,0,0,1,1.48.36A2.54,2.54,0,0,1,67.36,131.89Zm-4.49,3.47a5.13,5.13,0,0,0,.56,2.68,1.84,1.84,0,0,0,1.67.9,1.87,1.87,0,0,0,1.68-.91,6.49,6.49,0,0,0,0-5.35,1.87,1.87,0,0,0-1.68-.91,1.84,1.84,0,0,0-1.67.91A5.13,5.13,0,0,0,62.87,135.36Z"/></g><g class="cls-3"><path class="cls-6" d="M125.06,127.16v5.08H123.2v-5.08Zm4.42,0v5.08h-1.86v-5.08Z"/><path class="cls-6" d="M137,128.06v2.64h3.47v1.19H137v5a2.06,2.06,0,0,0,.39,1.44,1.84,1.84,0,0,0,1.36.41h1.72V140h-1.87a3.42,3.42,0,0,1-2.42-.69,3.24,3.24,0,0,1-.71-2.37v-5H133V130.7h2.48v-2.64Z"/><path class="cls-6" d="M151.41,134.59v.75h-6.62v0a3.68,3.68,0,0,0,.73,2.73,3,3,0,0,0,2.24.83,5.44,5.44,0,0,0,1.53-.23A9.31,9.31,0,0,0,151,138v1.52a10.37,10.37,0,0,1-1.68.54,7.24,7.24,0,0,1-1.56.18,4.42,4.42,0,0,1-3.39-1.3,5,5,0,0,1-1.22-3.58,5.11,5.11,0,0,1,1.2-3.55,4.08,4.08,0,0,1,3.19-1.33,3.48,3.48,0,0,1,2.8,1.2A4.62,4.62,0,0,1,151.41,134.59Zm-1.53-.45a3,3,0,0,0-.7-1.66,2.16,2.16,0,0,0-1.73-.7,2.44,2.44,0,0,0-1.82.73,2.58,2.58,0,0,0-.78,1.64Z"/><path class="cls-6" d="M161.63,130.7l-3.33,4.45L162,140h-1.77l-2.72-3.73L154.75,140H153l3.65-4.85-3.33-4.45H155l2.47,3.36,2.45-3.36Z"/><path class="cls-6" d="M167.68,128.06v2.64h3.47v1.19h-3.47v5a2.06,2.06,0,0,0,.39,1.44,1.84,1.84,0,0,0,1.36.41h1.72V140h-1.87a3.42,3.42,0,0,1-2.42-.69,3.24,3.24,0,0,1-.71-2.37v-5h-2.48V130.7h2.48v-2.64Z"/><path class="cls-6" d="M173.55,131.94h8.77v1.4h-8.77Zm0,3.91h8.77v1.4h-8.77Z"/><path class="cls-6" d="M184.43,127.61h3.67a4.6,4.6,0,0,1,2.93.82,2.8,2.8,0,0,1,1,2.32,2.23,2.23,0,0,1-.54,1.46,2.52,2.52,0,0,1-1.63.82,2.91,2.91,0,0,1,1.91,1,3.94,3.94,0,0,1,.69,2.52,3,3,0,0,1-1.1,2.54,5.29,5.29,0,0,1-3.29.86h-3.67Zm1.69,1.38v3.4h2a2.69,2.69,0,0,0,1.76-.46,1.48,1.48,0,0,0,.54-1.17,1.6,1.6,0,0,0-.54-1.35,2.91,2.91,0,0,0-1.76-.42Zm0,4.77v4.87h2a3.31,3.31,0,0,0,2.08-.51,2.05,2.05,0,0,0,.62-1.68,2.72,2.72,0,0,0-.66-2.11,3.08,3.08,0,0,0-2.05-.57Z"/><path class="cls-6" d="M202.58,134.59v.75H196v0a3.68,3.68,0,0,0,.73,2.73,3,3,0,0,0,2.24.83,5.44,5.44,0,0,0,1.53-.23,9.31,9.31,0,0,0,1.7-.71v1.52a10.37,10.37,0,0,1-1.68.54,7.24,7.24,0,0,1-1.56.18,4.42,4.42,0,0,1-3.39-1.3,5,5,0,0,1-1.22-3.58,5.11,5.11,0,0,1,1.2-3.55,4.08,4.08,0,0,1,3.19-1.33,3.48,3.48,0,0,1,2.8,1.2A4.62,4.62,0,0,1,202.58,134.59Zm-1.53-.45a3,3,0,0,0-.7-1.66,2.16,2.16,0,0,0-1.73-.7,2.44,2.44,0,0,0-1.82.73,2.58,2.58,0,0,0-.78,1.64Z"/><path class="cls-6" d="M211.6,131v1.49a5.79,5.79,0,0,0-1.32-.57,4.88,4.88,0,0,0-1.35-.19,2.85,2.85,0,0,0-1.55.34,1.14,1.14,0,0,0-.51,1,1.12,1.12,0,0,0,.38.93,5.23,5.23,0,0,0,1.9.6l.61.12a3,3,0,0,1,1.72.86,2.42,2.42,0,0,1,.58,1.69,2.6,2.6,0,0,1-1,2.15,4.28,4.28,0,0,1-2.72.78,7.66,7.66,0,0,1-1.44-.14,13.23,13.23,0,0,1-1.64-.44v-1.58a8.78,8.78,0,0,0,1.64.66,5.46,5.46,0,0,0,1.48.22,2.6,2.6,0,0,0,1.57-.41,1.35,1.35,0,0,0,.56-1.15q0-1.06-2-1.47l-.07,0-.57-.12a3.66,3.66,0,0,1-1.93-.87,2.26,2.26,0,0,1-.61-1.67,2.49,2.49,0,0,1,.9-2.06,4,4,0,0,1,2.58-.73,7.31,7.31,0,0,1,1.44.14A7.14,7.14,0,0,1,211.6,131Z"/><path class="cls-6" d="M218.85,128.06v2.64h3.47v1.19h-3.47v5a2.06,2.06,0,0,0,.39,1.44,1.84,1.84,0,0,0,1.36.41h1.72V140h-1.87a3.42,3.42,0,0,1-2.42-.69,3.24,3.24,0,0,1-.71-2.37v-5h-2.48V130.7h2.48v-2.64Z"/><path class="cls-6" d="M242.3,131v1.49a5.79,5.79,0,0,0-1.32-.57,4.88,4.88,0,0,0-1.35-.19,2.85,2.85,0,0,0-1.55.34,1.14,1.14,0,0,0-.51,1,1.12,1.12,0,0,0,.38.93,5.23,5.23,0,0,0,1.9.6l.61.12a3,3,0,0,1,1.72.86,2.42,2.42,0,0,1,.58,1.69,2.6,2.6,0,0,1-1,2.15,4.28,4.28,0,0,1-2.72.78,7.66,7.66,0,0,1-1.44-.14,13.23,13.23,0,0,1-1.64-.44v-1.58a8.78,8.78,0,0,0,1.64.66,5.46,5.46,0,0,0,1.48.22,2.6,2.6,0,0,0,1.57-.41,1.35,1.35,0,0,0,.56-1.15q0-1.06-2-1.47l-.07,0-.57-.12a3.66,3.66,0,0,1-1.93-.87,2.26,2.26,0,0,1-.61-1.67,2.49,2.49,0,0,1,.9-2.06,4,4,0,0,1,2.58-.73,7.31,7.31,0,0,1,1.44.14A7.14,7.14,0,0,1,242.3,131Z"/><path class="cls-6" d="M253.27,139.53a5.33,5.33,0,0,1-1.27.54,5,5,0,0,1-1.33.18,4.4,4.4,0,0,1-3.37-1.29,5.89,5.89,0,0,1,0-7.17,4.4,4.4,0,0,1,3.37-1.29,5,5,0,0,1,1.31.17,5.62,5.62,0,0,1,1.29.54v1.6a4.13,4.13,0,0,0-1.22-.78,3.74,3.74,0,0,0-1.38-.24,2.71,2.71,0,0,0-2.21.93,4.94,4.94,0,0,0,0,5.31,2.7,2.7,0,0,0,2.2.93,3.92,3.92,0,0,0,1.43-.24,3.57,3.57,0,0,0,1.17-.76Z"/><path class="cls-6" d="M259.81,130.48a3.6,3.6,0,0,1,3,1.25,6.95,6.95,0,0,1,0,7.26,4.13,4.13,0,0,1-5.92,0,7,7,0,0,1,0-7.26A3.59,3.59,0,0,1,259.81,130.48Zm0,1.29a2,2,0,0,0-1.76.91,6.3,6.3,0,0,0,0,5.36,2.17,2.17,0,0,0,3.53,0,6.3,6.3,0,0,0,0-5.36A2,2,0,0,0,259.81,131.77Z"/><path class="cls-6" d="M274.52,132.62a3.46,3.46,0,0,0-1-.56,3.4,3.4,0,0,0-1.11-.17,2.69,2.69,0,0,0-2.18.9,3.92,3.92,0,0,0-.76,2.59V140h-1.54v-9.3h1.54v1.82a3.1,3.1,0,0,1,1.17-1.52,3.32,3.32,0,0,1,1.88-.53,3.8,3.8,0,0,1,1.05.14,3.36,3.36,0,0,1,.94.44Z"/><path class="cls-6" d="M284.46,134.59v.75h-6.62v0a3.68,3.68,0,0,0,.73,2.73,3,3,0,0,0,2.24.83,5.44,5.44,0,0,0,1.53-.23A9.31,9.31,0,0,0,284,138v1.52a10.37,10.37,0,0,1-1.68.54,7.24,7.24,0,0,1-1.56.18,4.42,4.42,0,0,1-3.39-1.3,5,5,0,0,1-1.22-3.58,5.11,5.11,0,0,1,1.2-3.55,4.08,4.08,0,0,1,3.19-1.33,3.48,3.48,0,0,1,2.8,1.2A4.62,4.62,0,0,1,284.46,134.59Zm-1.53-.45a3,3,0,0,0-.7-1.66,2.16,2.16,0,0,0-1.73-.7,2.44,2.44,0,0,0-1.82.73,2.58,2.58,0,0,0-.78,1.64Z"/><path class="cls-6" d="M300.75,130.48a3.6,3.6,0,0,1,3,1.25,6.95,6.95,0,0,1,0,7.26,4.13,4.13,0,0,1-5.92,0,7,7,0,0,1,0-7.26A3.59,3.59,0,0,1,300.75,130.48Zm0,1.29a2,2,0,0,0-1.76.91,6.3,6.3,0,0,0,0,5.36,2.17,2.17,0,0,0,3.53,0,6.3,6.3,0,0,0,0-5.36A2,2,0,0,0,300.75,131.77Z"/><path class="cls-6" d="M314.7,127.08v1.27H313a1.54,1.54,0,0,0-1.14.34,1.72,1.72,0,0,0-.32,1.19v.82h3.2v1.19h-3.2V140H310v-8.11h-2.48V130.7H310v-.65a3.12,3.12,0,0,1,.7-2.25,2.93,2.93,0,0,1,2.19-.72Z"/><path class="cls-6" d="M331.45,138.59l2.91-11h1.73L332.48,140h-2l-3.63-12.39h1.73Z"/><path class="cls-6" d="M339.2,130.74h3.91v8.08h3V140h-7.59v-1.19h3v-6.89H339.2Zm2.38-3.61h1.53v1.93h-1.53Z"/><path class="cls-6" d="M356.4,132.62a3.47,3.47,0,0,0-1-.56,3.4,3.4,0,0,0-1.11-.17,2.7,2.7,0,0,0-2.18.9,3.92,3.92,0,0,0-.75,2.59V140h-1.54v-9.3h1.54v1.82a3.1,3.1,0,0,1,1.17-1.52,3.32,3.32,0,0,1,1.88-.53,3.8,3.8,0,0,1,1.05.14,3.35,3.35,0,0,1,.94.44Z"/><path class="cls-6" d="M365.84,134.7V140H364.3v-1.38a3.15,3.15,0,0,1-1.23,1.22,3.82,3.82,0,0,1-1.81.39,3.16,3.16,0,0,1-2.27-.8,3.17,3.17,0,0,1,.2-4.5,4.93,4.93,0,0,1,3.06-.81h2.05v-.24a2.1,2.1,0,0,0-.56-1.61,2.6,2.6,0,0,0-1.78-.5,5.8,5.8,0,0,0-1.58.22,6.87,6.87,0,0,0-1.55.66v-1.53a10.59,10.59,0,0,1,1.62-.49,7.41,7.41,0,0,1,1.51-.16,5.14,5.14,0,0,1,2,.34,3.09,3.09,0,0,1,1.32,1,2.57,2.57,0,0,1,.45,1A9.29,9.29,0,0,1,365.84,134.7Zm-3,.63h-.51a3.54,3.54,0,0,0-2,.47,1.59,1.59,0,0,0-.68,1.4,1.68,1.68,0,0,0,.51,1.3,2,2,0,0,0,1.4.46,2.43,2.43,0,0,0,2-.88,3.73,3.73,0,0,0,.73-2.42v-.34Z"/><path class="cls-6" d="M372.38,128.06v2.64h3.47v1.19h-3.47v5a2.06,2.06,0,0,0,.39,1.44,1.84,1.84,0,0,0,1.36.41h1.72V140H374a3.42,3.42,0,0,1-2.42-.69,3.24,3.24,0,0,1-.71-2.37v-5h-2.48V130.7h2.48v-2.64Z"/><path class="cls-6" d="M388.58,130.7h1.59l2.7,7.8,2.71-7.8h1.59l-3.3,9.3h-2Z"/><path class="cls-6" d="M406.06,131v1.49a5.78,5.78,0,0,0-1.32-.57,4.89,4.89,0,0,0-1.35-.19,2.85,2.85,0,0,0-1.55.34,1.14,1.14,0,0,0-.51,1,1.13,1.13,0,0,0,.38.93,5.24,5.24,0,0,0,1.9.6l.61.12a3,3,0,0,1,1.72.86,2.42,2.42,0,0,1,.58,1.69,2.6,2.6,0,0,1-1,2.15,4.28,4.28,0,0,1-2.72.78,7.65,7.65,0,0,1-1.44-.14,13.24,13.24,0,0,1-1.64-.44v-1.58a8.79,8.79,0,0,0,1.64.66,5.46,5.46,0,0,0,1.48.22,2.6,2.6,0,0,0,1.57-.41,1.35,1.35,0,0,0,.56-1.15q0-1.06-2-1.47l-.07,0-.57-.12a3.66,3.66,0,0,1-1.93-.87,2.26,2.26,0,0,1-.61-1.67,2.49,2.49,0,0,1,.91-2.06,4,4,0,0,1,2.58-.73,7.32,7.32,0,0,1,1.44.14A7.13,7.13,0,0,1,406.06,131Z"/><path class="cls-6" d="M422.56,127.61h2L428.38,140h-1.74l-.91-3.23h-4.34l-.9,3.23h-1.74Zm1,1.48-1.77,6.34h3.54Z"/><path class="cls-6" d="M430.31,136.48v-5.76h1.53v5.76a3.07,3.07,0,0,0,.44,1.84,1.61,1.61,0,0,0,1.37.59,1.94,1.94,0,0,0,1.65-.76,3.57,3.57,0,0,0,.57-2.18v-5.25h1.54V140h-1.54v-1.39a2.88,2.88,0,0,1-1.11,1.22,3.16,3.16,0,0,1-1.64.41,2.48,2.48,0,0,1-2.12-.93A4.71,4.71,0,0,1,430.31,136.48Z"/><path class="cls-6" d="M447,131v1.49a5.78,5.78,0,0,0-1.32-.57,4.89,4.89,0,0,0-1.35-.19,2.85,2.85,0,0,0-1.55.34,1.14,1.14,0,0,0-.51,1,1.13,1.13,0,0,0,.38.93,5.24,5.24,0,0,0,1.9.6l.61.12a3,3,0,0,1,1.72.86,2.42,2.42,0,0,1,.58,1.69,2.6,2.6,0,0,1-1,2.15,4.28,4.28,0,0,1-2.72.78,7.65,7.65,0,0,1-1.44-.14,13.24,13.24,0,0,1-1.64-.44v-1.58a8.79,8.79,0,0,0,1.64.66,5.46,5.46,0,0,0,1.48.22,2.6,2.6,0,0,0,1.57-.41,1.35,1.35,0,0,0,.56-1.15q0-1.06-2-1.47l-.07,0-.57-.12a3.66,3.66,0,0,1-1.93-.87,2.26,2.26,0,0,1-.61-1.67,2.49,2.49,0,0,1,.91-2.06,4,4,0,0,1,2.58-.73,7.32,7.32,0,0,1,1.44.14A7.13,7.13,0,0,1,447,131Z"/><path class="cls-6" d="M454.26,128.06v2.64h3.47v1.19h-3.47v5a2.06,2.06,0,0,0,.39,1.44,1.84,1.84,0,0,0,1.36.41h1.72V140h-1.87a3.42,3.42,0,0,1-2.42-.69,3.24,3.24,0,0,1-.71-2.37v-5h-2.48V130.7h2.48v-2.64Z"/><path class="cls-6" d="M469,132.62a3.44,3.44,0,0,0-1-.56,3.39,3.39,0,0,0-1.11-.17,2.69,2.69,0,0,0-2.18.9,3.92,3.92,0,0,0-.76,2.59V140H462.4v-9.3h1.54v1.82a3.1,3.1,0,0,1,1.17-1.52,3.31,3.31,0,0,1,1.88-.53,3.81,3.81,0,0,1,1.05.14,3.36,3.36,0,0,1,.94.44Z"/><path class="cls-6" d="M478.42,134.7V140h-1.54v-1.38a3.15,3.15,0,0,1-1.23,1.22,3.81,3.81,0,0,1-1.81.39,3.16,3.16,0,0,1-2.27-.8,3.17,3.17,0,0,1,.19-4.5,4.94,4.94,0,0,1,3.06-.81h2v-.24a2.1,2.1,0,0,0-.56-1.61,2.6,2.6,0,0,0-1.78-.5A5.81,5.81,0,0,0,473,132a6.84,6.84,0,0,0-1.55.66v-1.53a10.61,10.61,0,0,1,1.62-.49,7.42,7.42,0,0,1,1.51-.16,5.13,5.13,0,0,1,2,.34,3.1,3.1,0,0,1,1.32,1,2.59,2.59,0,0,1,.45,1A9.36,9.36,0,0,1,478.42,134.7Zm-3,.63H475a3.54,3.54,0,0,0-2,.47,1.59,1.59,0,0,0-.68,1.4,1.68,1.68,0,0,0,.51,1.3,2,2,0,0,0,1.4.46,2.43,2.43,0,0,0,2-.88,3.73,3.73,0,0,0,.73-2.42v-.34Z"/><path class="cls-6" d="M485.83,136.64a2.64,2.64,0,0,0,.38,1.55,1.29,1.29,0,0,0,1.12.52h1.79V140h-1.93a2.64,2.64,0,0,1-2.12-.88,3.7,3.7,0,0,1-.75-2.49v-8.41h-2.45V127h4Z"/><path class="cls-6" d="M492.72,130.74h3.91v8.08h3V140h-7.59v-1.19h3v-6.89h-2.38Zm2.38-3.61h1.53v1.93H495.1Z"/><path class="cls-6" d="M509.12,134.7V140h-1.54v-1.38a3.15,3.15,0,0,1-1.23,1.22,3.82,3.82,0,0,1-1.81.39,3.16,3.16,0,0,1-2.27-.8,3.17,3.17,0,0,1,.2-4.5,4.93,4.93,0,0,1,3.06-.81h2.05v-.24a2.1,2.1,0,0,0-.56-1.61,2.6,2.6,0,0,0-1.78-.5,5.8,5.8,0,0,0-1.58.22,6.87,6.87,0,0,0-1.55.66v-1.53a10.59,10.59,0,0,1,1.62-.49,7.41,7.41,0,0,1,1.51-.16,5.14,5.14,0,0,1,2,.34,3.09,3.09,0,0,1,1.32,1,2.57,2.57,0,0,1,.45,1A9.29,9.29,0,0,1,509.12,134.7Zm-3,.63h-.51a3.54,3.54,0,0,0-2,.47,1.59,1.59,0,0,0-.68,1.4,1.68,1.68,0,0,0,.51,1.3,2,2,0,0,0,1.4.46,2.43,2.43,0,0,0,2-.88,3.73,3.73,0,0,0,.73-2.42v-.34Z"/><path class="cls-6" d="M514,127.16v5.08h-1.86v-5.08Zm4.42,0v5.08h-1.86v-5.08Z"/></g><g class="cls-3"><path class="cls-4" d="M523.24,127.61l6.52,14h-1.58l-6.53-14Z"/></g><g class="cls-3"><path class="cls-4" d="M50.85,158h8.8v1.4h-8.8Z"/><path class="cls-4" d="M67.36,155.89v-4.81h1.53V164H67.36v-1.17a2.66,2.66,0,0,1-1,1,2.92,2.92,0,0,1-1.47.36,3.12,3.12,0,0,1-2.65-1.31,6,6,0,0,1-1-3.61,5.8,5.8,0,0,1,1-3.56,3.14,3.14,0,0,1,2.65-1.29,3,3,0,0,1,1.48.36A2.54,2.54,0,0,1,67.36,155.89Zm-4.49,3.47a5.13,5.13,0,0,0,.56,2.68,1.84,1.84,0,0,0,1.67.9,1.87,1.87,0,0,0,1.68-.91,6.49,6.49,0,0,0,0-5.35,1.87,1.87,0,0,0-1.68-.91,1.84,1.84,0,0,0-1.67.91A5.13,5.13,0,0,0,62.87,159.36Z"/><path class="cls-4" d="M84.12,151.16v5.08H82.27v-5.08Zm4.42,0v5.08H86.69v-5.08Z"/><path class="cls-4" d="M92.56,160.48v-5.76h1.53v5.76a3.07,3.07,0,0,0,.44,1.84,1.61,1.61,0,0,0,1.37.59,1.94,1.94,0,0,0,1.65-.76,3.57,3.57,0,0,0,.57-2.18v-5.25h1.54V164H98.13v-1.39A2.89,2.89,0,0,1,97,163.83a3.16,3.16,0,0,1-1.64.41,2.48,2.48,0,0,1-2.12-.93A4.71,4.71,0,0,1,92.56,160.48Z"/><path class="cls-4" d="M109.25,155v1.49a5.79,5.79,0,0,0-1.32-.57,4.88,4.88,0,0,0-1.35-.19,2.85,2.85,0,0,0-1.55.34,1.14,1.14,0,0,0-.51,1,1.12,1.12,0,0,0,.38.93,5.23,5.23,0,0,0,1.9.6l.61.12a3,3,0,0,1,1.72.86,2.42,2.42,0,0,1,.58,1.69,2.6,2.6,0,0,1-1,2.15,4.28,4.28,0,0,1-2.72.78,7.66,7.66,0,0,1-1.44-.14,13.23,13.23,0,0,1-1.64-.44v-1.58a8.78,8.78,0,0,0,1.64.66,5.46,5.46,0,0,0,1.48.22,2.6,2.6,0,0,0,1.57-.41,1.35,1.35,0,0,0,.56-1.15q0-1.06-2-1.47l-.07,0-.57-.12a3.66,3.66,0,0,1-1.93-.87,2.26,2.26,0,0,1-.61-1.67,2.49,2.49,0,0,1,.9-2.06,4,4,0,0,1,2.58-.73,7.31,7.31,0,0,1,1.44.14A7.14,7.14,0,0,1,109.25,155Z"/><path class="cls-4" d="M120.71,158.59v.75h-6.62v0a3.68,3.68,0,0,0,.73,2.73,3,3,0,0,0,2.24.83,5.44,5.44,0,0,0,1.53-.23,9.31,9.31,0,0,0,1.7-.71v1.52a10.37,10.37,0,0,1-1.68.54,7.24,7.24,0,0,1-1.56.18,4.42,4.42,0,0,1-3.39-1.3,5,5,0,0,1-1.22-3.58,5.11,5.11,0,0,1,1.2-3.55,4.08,4.08,0,0,1,3.19-1.33,3.48,3.48,0,0,1,2.8,1.2A4.62,4.62,0,0,1,120.71,158.59Zm-1.53-.45a3,3,0,0,0-.7-1.66,2.16,2.16,0,0,0-1.73-.7,2.44,2.44,0,0,0-1.82.73,2.58,2.58,0,0,0-.78,1.64Z"/><path class="cls-4" d="M131.23,156.62a3.46,3.46,0,0,0-1-.56,3.4,3.4,0,0,0-1.11-.17,2.69,2.69,0,0,0-2.18.9,3.92,3.92,0,0,0-.76,2.59V164h-1.54v-9.3h1.54v1.82a3.1,3.1,0,0,1,1.17-1.52,3.32,3.32,0,0,1,1.88-.53,3.8,3.8,0,0,1,1.05.14,3.36,3.36,0,0,1,.94.44Z"/><path class="cls-4" d="M142,165.58V167H131.88v-1.41Z"/><path class="cls-4" d="M144.07,151.08h1.58v7.48l4-3.86h1.86l-3.66,3.5,4.23,5.79h-1.87l-3.44-4.8-1.14,1.07V164h-1.58Z"/><path class="cls-4" d="M161.65,158.59v.75H155v0a3.68,3.68,0,0,0,.73,2.73,3,3,0,0,0,2.24.83,5.44,5.44,0,0,0,1.53-.23,9.31,9.31,0,0,0,1.7-.71v1.52a10.37,10.37,0,0,1-1.68.54,7.24,7.24,0,0,1-1.56.18,4.42,4.42,0,0,1-3.39-1.3,5,5,0,0,1-1.22-3.58,5.11,5.11,0,0,1,1.2-3.55,4.08,4.08,0,0,1,3.19-1.33,3.48,3.48,0,0,1,2.8,1.2A4.62,4.62,0,0,1,161.65,158.59Zm-1.53-.45a3,3,0,0,0-.7-1.66,2.16,2.16,0,0,0-1.73-.7,2.44,2.44,0,0,0-1.82.73,2.58,2.58,0,0,0-.78,1.64Z"/><path class="cls-4" d="M169.71,161q-.38,1-1,2.56a24.63,24.63,0,0,1-1.1,2.67,2.6,2.6,0,0,1-1,1,2.68,2.68,0,0,1-1.34.32h-1.23v-1.28h.9a1.4,1.4,0,0,0,1.05-.39,6.69,6.69,0,0,0,1-2l-3.59-9.15h1.62l2.76,7.27,2.71-7.27h1.62Z"/><path class="cls-4" d="M173.55,155.94h8.77v1.4h-8.77Zm0,3.91h8.77v1.4h-8.77Z"/><path class="cls-4" d="M184.67,160.48v-5.76h1.53v5.76a3.07,3.07,0,0,0,.44,1.84,1.61,1.61,0,0,0,1.37.59,1.94,1.94,0,0,0,1.65-.76,3.57,3.57,0,0,0,.57-2.18v-5.25h1.54V164h-1.54v-1.39a2.89,2.89,0,0,1-1.11,1.22,3.16,3.16,0,0,1-1.64.41,2.48,2.48,0,0,1-2.12-.93A4.71,4.71,0,0,1,184.67,160.48Z"/><path class="cls-4" d="M201.36,155v1.49a5.79,5.79,0,0,0-1.32-.57,4.88,4.88,0,0,0-1.35-.19,2.85,2.85,0,0,0-1.55.34,1.14,1.14,0,0,0-.51,1,1.12,1.12,0,0,0,.38.93,5.23,5.23,0,0,0,1.9.6l.61.12a3,3,0,0,1,1.72.86,2.42,2.42,0,0,1,.58,1.69,2.6,2.6,0,0,1-1,2.15,4.28,4.28,0,0,1-2.72.78,7.66,7.66,0,0,1-1.44-.14,13.23,13.23,0,0,1-1.64-.44v-1.58a8.78,8.78,0,0,0,1.64.66,5.46,5.46,0,0,0,1.48.22,2.6,2.6,0,0,0,1.57-.41,1.35,1.35,0,0,0,.56-1.15q0-1.06-2-1.47l-.07,0-.57-.12a3.66,3.66,0,0,1-1.93-.87,2.26,2.26,0,0,1-.61-1.67,2.49,2.49,0,0,1,.9-2.06,4,4,0,0,1,2.58-.73,7.31,7.31,0,0,1,1.44.14A7.14,7.14,0,0,1,201.36,155Z"/><path class="cls-4" d="M212.82,158.59v.75H206.2v0a3.68,3.68,0,0,0,.73,2.73,3,3,0,0,0,2.24.83,5.44,5.44,0,0,0,1.53-.23,9.31,9.31,0,0,0,1.7-.71v1.52a10.37,10.37,0,0,1-1.68.54,7.24,7.24,0,0,1-1.56.18,4.42,4.42,0,0,1-3.39-1.3,5,5,0,0,1-1.22-3.58,5.11,5.11,0,0,1,1.2-3.55,4.08,4.08,0,0,1,3.19-1.33,3.48,3.48,0,0,1,2.8,1.2A4.62,4.62,0,0,1,212.82,158.59Zm-1.53-.45a3,3,0,0,0-.7-1.66,2.16,2.16,0,0,0-1.73-.7,2.44,2.44,0,0,0-1.82.73,2.58,2.58,0,0,0-.78,1.64Z"/><path class="cls-4" d="M223.35,156.62a3.46,3.46,0,0,0-1-.56,3.4,3.4,0,0,0-1.11-.17,2.69,2.69,0,0,0-2.18.9,3.92,3.92,0,0,0-.76,2.59V164h-1.54v-9.3h1.54v1.82a3.1,3.1,0,0,1,1.17-1.52,3.32,3.32,0,0,1,1.88-.53,3.8,3.8,0,0,1,1.05.14,3.36,3.36,0,0,1,.94.44Z"/><path class="cls-4" d="M227.41,151.16v5.08h-1.86v-5.08Zm4.42,0v5.08H230v-5.08Z"/><path class="cls-4" d="M246.89,151.61l6.52,14h-1.58l-6.53-14Z"/></g><g class="cls-3"><path class="cls-4" d="M50.85,182h8.8v1.4h-8.8Z"/><path class="cls-4" d="M67.36,179.89v-4.81h1.53V188H67.36v-1.17a2.66,2.66,0,0,1-1,1,2.92,2.92,0,0,1-1.47.36,3.12,3.12,0,0,1-2.65-1.31,6,6,0,0,1-1-3.61,5.8,5.8,0,0,1,1-3.56,3.14,3.14,0,0,1,2.65-1.29,3,3,0,0,1,1.48.36A2.54,2.54,0,0,1,67.36,179.89Zm-4.49,3.47a5.13,5.13,0,0,0,.56,2.68,1.84,1.84,0,0,0,1.67.9,1.87,1.87,0,0,0,1.68-.91,6.49,6.49,0,0,0,0-5.35,1.87,1.87,0,0,0-1.68-.91,1.84,1.84,0,0,0-1.67.91A5.13,5.13,0,0,0,62.87,183.36Z"/><path class="cls-4" d="M84.12,175.16v5.08H82.27v-5.08Zm4.42,0v5.08H86.69v-5.08Z"/><path class="cls-4" d="M99.73,182.7V188H98.19v-1.38A3.15,3.15,0,0,1,97,187.85a3.81,3.81,0,0,1-1.81.39,3.16,3.16,0,0,1-2.27-.8,3.17,3.17,0,0,1,.19-4.5,4.94,4.94,0,0,1,3.06-.81h2.05v-.24a2.1,2.1,0,0,0-.56-1.61,2.6,2.6,0,0,0-1.78-.5,5.81,5.81,0,0,0-1.58.22,6.86,6.86,0,0,0-1.55.66v-1.53a10.6,10.6,0,0,1,1.62-.49,7.41,7.41,0,0,1,1.51-.16,5.13,5.13,0,0,1,2,.34,3.1,3.1,0,0,1,1.32,1,2.58,2.58,0,0,1,.45,1A9.32,9.32,0,0,1,99.73,182.7Zm-3,.63h-.51a3.54,3.54,0,0,0-2,.47,1.59,1.59,0,0,0-.68,1.4,1.68,1.68,0,0,0,.51,1.3,2,2,0,0,0,1.4.46,2.43,2.43,0,0,0,2-.88,3.73,3.73,0,0,0,.73-2.42v-.34Z"/><path class="cls-4" d="M110,187.53a5.33,5.33,0,0,1-1.27.54,5,5,0,0,1-1.33.18,4.4,4.4,0,0,1-3.37-1.29,5.89,5.89,0,0,1,0-7.17,4.4,4.4,0,0,1,3.37-1.29,5,5,0,0,1,1.31.17,5.62,5.62,0,0,1,1.29.54v1.6a4.13,4.13,0,0,0-1.22-.78,3.74,3.74,0,0,0-1.38-.24,2.71,2.71,0,0,0-2.21.93,4.94,4.94,0,0,0,0,5.31,2.7,2.7,0,0,0,2.2.93,3.92,3.92,0,0,0,1.43-.24,3.57,3.57,0,0,0,1.17-.76Z"/><path class="cls-4" d="M120.22,187.53a5.33,5.33,0,0,1-1.27.54,5,5,0,0,1-1.33.18,4.4,4.4,0,0,1-3.37-1.29,5.89,5.89,0,0,1,0-7.17,4.4,4.4,0,0,1,3.37-1.29,5,5,0,0,1,1.31.17,5.62,5.62,0,0,1,1.29.54v1.6A4.13,4.13,0,0,0,119,180a3.74,3.74,0,0,0-1.38-.24,2.71,2.71,0,0,0-2.21.93,4.94,4.94,0,0,0,0,5.31,2.7,2.7,0,0,0,2.2.93,3.92,3.92,0,0,0,1.43-.24,3.57,3.57,0,0,0,1.17-.76Z"/><path class="cls-4" d="M130.94,182.59v.75h-6.62v0a3.68,3.68,0,0,0,.73,2.73,3,3,0,0,0,2.24.83,5.44,5.44,0,0,0,1.53-.23,9.31,9.31,0,0,0,1.7-.71v1.52a10.37,10.37,0,0,1-1.68.54,7.24,7.24,0,0,1-1.56.18,4.42,4.42,0,0,1-3.39-1.3,5,5,0,0,1-1.22-3.58,5.11,5.11,0,0,1,1.2-3.55,4.08,4.08,0,0,1,3.19-1.33,3.48,3.48,0,0,1,2.8,1.2A4.62,4.62,0,0,1,130.94,182.59Zm-1.53-.45a3,3,0,0,0-.7-1.66,2.16,2.16,0,0,0-1.73-.7,2.44,2.44,0,0,0-1.82.73,2.58,2.58,0,0,0-.78,1.64Z"/><path class="cls-4" d="M140,179v1.49a5.79,5.79,0,0,0-1.32-.57,4.88,4.88,0,0,0-1.35-.19,2.85,2.85,0,0,0-1.55.34,1.14,1.14,0,0,0-.51,1,1.12,1.12,0,0,0,.38.93,5.23,5.23,0,0,0,1.9.6l.61.12a3,3,0,0,1,1.72.86,2.42,2.42,0,0,1,.58,1.69,2.6,2.6,0,0,1-1,2.15,4.28,4.28,0,0,1-2.72.78,7.66,7.66,0,0,1-1.44-.14,13.23,13.23,0,0,1-1.64-.44v-1.58a8.78,8.78,0,0,0,1.64.66,5.46,5.46,0,0,0,1.48.22,2.6,2.6,0,0,0,1.57-.41,1.35,1.35,0,0,0,.56-1.15q0-1.06-2-1.47l-.07,0-.57-.12a3.66,3.66,0,0,1-1.93-.87,2.26,2.26,0,0,1-.61-1.67,2.49,2.49,0,0,1,.9-2.06,4,4,0,0,1,2.58-.73,7.31,7.31,0,0,1,1.44.14A7.14,7.14,0,0,1,140,179Z"/><path class="cls-4" d="M150.19,179v1.49a5.79,5.79,0,0,0-1.32-.57,4.88,4.88,0,0,0-1.35-.19,2.85,2.85,0,0,0-1.55.34,1.14,1.14,0,0,0-.51,1,1.12,1.12,0,0,0,.38.93,5.23,5.23,0,0,0,1.9.6l.61.12a3,3,0,0,1,1.72.86,2.42,2.42,0,0,1,.58,1.69,2.6,2.6,0,0,1-1,2.15,4.28,4.28,0,0,1-2.72.78,7.66,7.66,0,0,1-1.44-.14,13.23,13.23,0,0,1-1.64-.44v-1.58a8.78,8.78,0,0,0,1.64.66A5.46,5.46,0,0,0,147,187a2.6,2.6,0,0,0,1.57-.41,1.35,1.35,0,0,0,.56-1.15q0-1.06-2-1.47l-.07,0-.57-.12a3.66,3.66,0,0,1-1.93-.87,2.26,2.26,0,0,1-.61-1.67,2.49,2.49,0,0,1,.9-2.06,4,4,0,0,1,2.58-.73,7.31,7.31,0,0,1,1.44.14A7.14,7.14,0,0,1,150.19,179Z"/><path class="cls-4" d="M162.51,189.58V191H152.35v-1.41Z"/><path class="cls-4" d="M167.68,176.06v2.64h3.47v1.19h-3.47v5a2.06,2.06,0,0,0,.39,1.44,1.84,1.84,0,0,0,1.36.41h1.72V188h-1.87a3.42,3.42,0,0,1-2.42-.69,3.24,3.24,0,0,1-.71-2.37v-5h-2.48V178.7h2.48v-2.64Z"/><path class="cls-4" d="M177.93,178.48a3.6,3.6,0,0,1,3,1.25,6.95,6.95,0,0,1,0,7.26,4.13,4.13,0,0,1-5.92,0,7,7,0,0,1,0-7.26A3.59,3.59,0,0,1,177.93,178.48Zm0,1.29a2,2,0,0,0-1.76.91,6.3,6.3,0,0,0,0,5.36,2.17,2.17,0,0,0,3.53,0,6.3,6.3,0,0,0,0-5.36A2,2,0,0,0,177.93,179.77Z"/><path class="cls-4" d="M185,175.08h1.58v7.48l4-3.86h1.86l-3.66,3.5L193,188h-1.87l-3.44-4.8-1.14,1.07V188H185Z"/><path class="cls-4" d="M202.58,182.59v.75H196v0a3.68,3.68,0,0,0,.73,2.73,3,3,0,0,0,2.24.83,5.44,5.44,0,0,0,1.53-.23,9.31,9.31,0,0,0,1.7-.71v1.52a10.37,10.37,0,0,1-1.68.54,7.24,7.24,0,0,1-1.56.18,4.42,4.42,0,0,1-3.39-1.3,5,5,0,0,1-1.22-3.58,5.11,5.11,0,0,1,1.2-3.55,4.08,4.08,0,0,1,3.19-1.33,3.48,3.48,0,0,1,2.8,1.2A4.62,4.62,0,0,1,202.58,182.59Zm-1.53-.45a3,3,0,0,0-.7-1.66,2.16,2.16,0,0,0-1.73-.7,2.44,2.44,0,0,0-1.82.73,2.58,2.58,0,0,0-.78,1.64Z"/><path class="cls-4" d="M212.25,182.24V188h-1.54v-5.76a3.09,3.09,0,0,0-.44-1.84,1.61,1.61,0,0,0-1.38-.59,2,2,0,0,0-1.65.76,3.55,3.55,0,0,0-.58,2.18V188h-1.53v-9.3h1.53v1.39a2.88,2.88,0,0,1,1.1-1.21,3.2,3.2,0,0,1,1.65-.41,2.48,2.48,0,0,1,2.12.93A4.69,4.69,0,0,1,212.25,182.24Z"/><path class="cls-4" d="M214.49,179.94h8.77v1.4h-8.77Zm0,3.91h8.77v1.4h-8.77Z"/><path class="cls-4" d="M229.09,176.06v2.64h3.47v1.19h-3.47v5a2.06,2.06,0,0,0,.39,1.44,1.84,1.84,0,0,0,1.36.41h1.72V188h-1.87a3.42,3.42,0,0,1-2.42-.69,3.24,3.24,0,0,1-.71-2.37v-5h-2.48V178.7h2.48v-2.64Z"/><path class="cls-4" d="M239.34,178.48a3.6,3.6,0,0,1,3,1.25,6.95,6.95,0,0,1,0,7.26,4.13,4.13,0,0,1-5.92,0,7,7,0,0,1,0-7.26A3.59,3.59,0,0,1,239.34,178.48Zm0,1.29a2,2,0,0,0-1.76.91,6.3,6.3,0,0,0,0,5.36,2.17,2.17,0,0,0,3.53,0,6.3,6.3,0,0,0,0-5.36A2,2,0,0,0,239.34,179.77Z"/><path class="cls-4" d="M246.42,175.08H248v7.48l4-3.86h1.86l-3.66,3.5,4.23,5.79h-1.87l-3.44-4.8L248,184.27V188h-1.58Z"/><path class="cls-4" d="M264,182.59v.75h-6.62v0a3.68,3.68,0,0,0,.73,2.73,3,3,0,0,0,2.24.83,5.44,5.44,0,0,0,1.53-.23,9.31,9.31,0,0,0,1.7-.71v1.52a10.37,10.37,0,0,1-1.68.54,7.24,7.24,0,0,1-1.56.18,4.42,4.42,0,0,1-3.39-1.3,5,5,0,0,1-1.22-3.58,5.11,5.11,0,0,1,1.2-3.55,4.08,4.08,0,0,1,3.19-1.33,3.48,3.48,0,0,1,2.8,1.2A4.62,4.62,0,0,1,264,182.59Zm-1.53-.45a3,3,0,0,0-.7-1.66,2.16,2.16,0,0,0-1.73-.7,2.44,2.44,0,0,0-1.82.73,2.58,2.58,0,0,0-.78,1.64Z"/><path class="cls-4" d="M273.66,182.24V188h-1.54v-5.76a3.09,3.09,0,0,0-.44-1.84,1.61,1.61,0,0,0-1.38-.59,2,2,0,0,0-1.65.76,3.55,3.55,0,0,0-.58,2.18V188h-1.53v-9.3h1.53v1.39a2.88,2.88,0,0,1,1.1-1.21,3.2,3.2,0,0,1,1.65-.41,2.48,2.48,0,0,1,2.12.93A4.69,4.69,0,0,1,273.66,182.24Z"/><path class="cls-4" d="M278.59,175.16v5.08h-1.86v-5.08Zm4.42,0v5.08h-1.86v-5.08Z"/><path class="cls-4" d="M298.07,175.61l6.52,14H303l-6.53-14Z"/></g><g class="cls-3"><path class="cls-5" d="M58.72,206.24V212H57.19v-5.76a3.09,3.09,0,0,0-.44-1.84,1.61,1.61,0,0,0-1.38-.59,2,2,0,0,0-1.65.76,3.55,3.55,0,0,0-.58,2.18V212H51.62V199.08h1.53v5a2.88,2.88,0,0,1,1.1-1.21,3.2,3.2,0,0,1,1.65-.41,2.48,2.48,0,0,1,2.12.93A4.69,4.69,0,0,1,58.72,206.24Z"/><path class="cls-5" d="M65.33,200.06v2.64H68.8v1.19H65.33v5a2.06,2.06,0,0,0,.39,1.44,1.84,1.84,0,0,0,1.36.41H68.8V212H66.93a3.42,3.42,0,0,1-2.42-.69,3.24,3.24,0,0,1-.71-2.37v-5H61.32V202.7H63.8v-2.64Z"/><path class="cls-5" d="M75.57,200.06v2.64H79v1.19H75.57v5a2.06,2.06,0,0,0,.39,1.44,1.84,1.84,0,0,0,1.36.41H79V212H77.17a3.42,3.42,0,0,1-2.42-.69,3.24,3.24,0,0,1-.71-2.37v-5H71.56V202.7H74v-2.64Z"/><path class="cls-5" d="M83.82,210.83v4.71H82.28V202.7h1.54v1.19a2.65,2.65,0,0,1,1-1.05,2.92,2.92,0,0,1,1.46-.36,3.1,3.1,0,0,1,2.64,1.3,6,6,0,0,1,1,3.61,5.83,5.83,0,0,1-1,3.56,3.11,3.11,0,0,1-2.64,1.29,3,3,0,0,1-1.48-.36A2.55,2.55,0,0,1,83.82,210.83Zm4.48-3.47a5.17,5.17,0,0,0-.56-2.68,1.83,1.83,0,0,0-1.66-.91,1.87,1.87,0,0,0-1.69.91,6.53,6.53,0,0,0,0,5.35,1.86,1.86,0,0,0,1.69.91,1.83,1.83,0,0,0,1.66-.9A5.17,5.17,0,0,0,88.3,207.36Z"/><path class="cls-5" d="M99,203v1.49a5.79,5.79,0,0,0-1.32-.57,4.88,4.88,0,0,0-1.35-.19,2.85,2.85,0,0,0-1.55.34,1.14,1.14,0,0,0-.51,1,1.12,1.12,0,0,0,.38.93,5.23,5.23,0,0,0,1.9.6l.61.12a3,3,0,0,1,1.72.86,2.42,2.42,0,0,1,.58,1.69,2.6,2.6,0,0,1-1,2.15,4.28,4.28,0,0,1-2.72.78,7.66,7.66,0,0,1-1.44-.14,13.23,13.23,0,0,1-1.64-.44v-1.58a8.78,8.78,0,0,0,1.64.66,5.46,5.46,0,0,0,1.48.22,2.6,2.6,0,0,0,1.57-.41,1.35,1.35,0,0,0,.56-1.15q0-1.06-2-1.47l-.07,0-.57-.12a3.66,3.66,0,0,1-1.93-.87,2.26,2.26,0,0,1-.61-1.67,2.49,2.49,0,0,1,.9-2.06,4,4,0,0,1,2.58-.73,7.31,7.31,0,0,1,1.44.14A7.14,7.14,0,0,1,99,203Z"/><path class="cls-5" d="M104.74,202.71h2.59v3h-2.59Zm0,6.27h2.59v3h-2.59Z"/><path class="cls-5" d="M118.79,199.61h1.58l-6.52,14h-1.59Z"/><path class="cls-5" d="M129,199.61h1.58l-6.52,14h-1.59Z"/><path class="cls-5" d="M141.47,204.62a3.46,3.46,0,0,0-1-.56,3.4,3.4,0,0,0-1.11-.17,2.69,2.69,0,0,0-2.18.9,3.92,3.92,0,0,0-.76,2.59V212h-1.54v-9.3h1.54v1.82a3.1,3.1,0,0,1,1.17-1.52,3.32,3.32,0,0,1,1.88-.53,3.8,3.8,0,0,1,1.05.14,3.36,3.36,0,0,1,.94.44Z"/><path class="cls-5" d="M151.41,206.59v.75h-6.62v0a3.68,3.68,0,0,0,.73,2.73,3,3,0,0,0,2.24.83,5.44,5.44,0,0,0,1.53-.23A9.31,9.31,0,0,0,151,210v1.52a10.37,10.37,0,0,1-1.68.54,7.24,7.24,0,0,1-1.56.18,4.42,4.42,0,0,1-3.39-1.3,5,5,0,0,1-1.22-3.58,5.11,5.11,0,0,1,1.2-3.55,4.08,4.08,0,0,1,3.19-1.33,3.48,3.48,0,0,1,2.8,1.2A4.62,4.62,0,0,1,151.41,206.59Zm-1.53-.45a3,3,0,0,0-.7-1.66,2.16,2.16,0,0,0-1.73-.7,2.44,2.44,0,0,0-1.82.73,2.58,2.58,0,0,0-.78,1.64Z"/><path class="cls-5" d="M160.43,203v1.49a5.79,5.79,0,0,0-1.32-.57,4.88,4.88,0,0,0-1.35-.19,2.85,2.85,0,0,0-1.55.34,1.14,1.14,0,0,0-.51,1,1.12,1.12,0,0,0,.38.93,5.23,5.23,0,0,0,1.9.6l.61.12a3,3,0,0,1,1.72.86,2.42,2.42,0,0,1,.58,1.69,2.6,2.6,0,0,1-1,2.15,4.28,4.28,0,0,1-2.72.78,7.66,7.66,0,0,1-1.44-.14,13.23,13.23,0,0,1-1.64-.44v-1.58a8.78,8.78,0,0,0,1.64.66,5.46,5.46,0,0,0,1.48.22,2.6,2.6,0,0,0,1.57-.41,1.35,1.35,0,0,0,.56-1.15q0-1.06-2-1.47l-.07,0-.57-.12a3.66,3.66,0,0,1-1.93-.87,2.26,2.26,0,0,1-.61-1.67,2.49,2.49,0,0,1,.9-2.06,4,4,0,0,1,2.58-.73,7.31,7.31,0,0,1,1.44.14A7.14,7.14,0,0,1,160.43,203Z"/><path class="cls-5" d="M167.68,200.06v2.64h3.47v1.19h-3.47v5a2.06,2.06,0,0,0,.39,1.44,1.84,1.84,0,0,0,1.36.41h1.72V212h-1.87a3.42,3.42,0,0,1-2.42-.69,3.24,3.24,0,0,1-.71-2.37v-5h-2.48V202.7h2.48v-2.64Z"/><path class="cls-5" d="M176,208.65H179V212H176Z"/><path class="cls-5" d="M191.86,211.53a5.33,5.33,0,0,1-1.27.54,5,5,0,0,1-1.33.18,4.4,4.4,0,0,1-3.37-1.29,5.89,5.89,0,0,1,0-7.17,4.4,4.4,0,0,1,3.37-1.29,5,5,0,0,1,1.31.17,5.62,5.62,0,0,1,1.29.54v1.6a4.13,4.13,0,0,0-1.22-.78,3.74,3.74,0,0,0-1.38-.24,2.71,2.71,0,0,0-2.21.93,4.94,4.94,0,0,0,0,5.31,2.7,2.7,0,0,0,2.2.93,3.92,3.92,0,0,0,1.43-.24,3.57,3.57,0,0,0,1.17-.76Z"/><path class="cls-5" d="M202.88,204.62a3.46,3.46,0,0,0-1-.56,3.4,3.4,0,0,0-1.11-.17,2.69,2.69,0,0,0-2.18.9,3.92,3.92,0,0,0-.76,2.59V212h-1.54v-9.3h1.54v1.82A3.1,3.1,0,0,1,199,203a3.32,3.32,0,0,1,1.88-.53,3.8,3.8,0,0,1,1.05.14,3.36,3.36,0,0,1,.94.44Z"/><path class="cls-5" d="M206.15,202.74h3.91v8.08h3V212H205.5v-1.19h3v-6.89h-2.38Zm2.38-3.61h1.53v1.93h-1.53Z"/><path class="cls-5" d="M222.56,211.53a5.33,5.33,0,0,1-1.27.54,5,5,0,0,1-1.33.18,4.4,4.4,0,0,1-3.37-1.29,5.89,5.89,0,0,1,0-7.17,4.4,4.4,0,0,1,3.37-1.29,5,5,0,0,1,1.31.17,5.62,5.62,0,0,1,1.29.54v1.6a4.13,4.13,0,0,0-1.22-.78,3.74,3.74,0,0,0-1.38-.24,2.71,2.71,0,0,0-2.21.93,4.94,4.94,0,0,0,0,5.31,2.7,2.7,0,0,0,2.2.93,3.92,3.92,0,0,0,1.43-.24,3.57,3.57,0,0,0,1.17-.76Z"/><path class="cls-5" d="M226,199.08h1.58v7.48l4-3.86h1.86l-3.66,3.5L234,212H232.1l-3.44-4.8-1.14,1.07V212H226Z"/><path class="cls-5" d="M243.52,206.59v.75h-6.62v0a3.68,3.68,0,0,0,.73,2.73,3,3,0,0,0,2.24.83,5.44,5.44,0,0,0,1.53-.23,9.31,9.31,0,0,0,1.7-.71v1.52a10.37,10.37,0,0,1-1.68.54,7.24,7.24,0,0,1-1.56.18,4.42,4.42,0,0,1-3.39-1.3,5,5,0,0,1-1.22-3.58,5.11,5.11,0,0,1,1.2-3.55,4.08,4.08,0,0,1,3.19-1.33,3.48,3.48,0,0,1,2.8,1.2A4.62,4.62,0,0,1,243.52,206.59Zm-1.53-.45a3,3,0,0,0-.7-1.66,2.16,2.16,0,0,0-1.73-.7,2.44,2.44,0,0,0-1.82.73,2.58,2.58,0,0,0-.78,1.64Z"/><path class="cls-5" d="M249.56,200.06v2.64H253v1.19h-3.47v5a2.06,2.06,0,0,0,.39,1.44,1.84,1.84,0,0,0,1.36.41H253V212h-1.87a3.42,3.42,0,0,1-2.42-.69,3.24,3.24,0,0,1-.71-2.37v-5h-2.48V202.7H248v-2.64Z"/><path class="cls-5" d="M263.49,206.7V212H262v-1.38a3.15,3.15,0,0,1-1.23,1.22,3.81,3.81,0,0,1-1.81.39,3.16,3.16,0,0,1-2.27-.8,3.17,3.17,0,0,1,.19-4.5,4.94,4.94,0,0,1,3.06-.81H262v-.24a2.1,2.1,0,0,0-.56-1.61,2.6,2.6,0,0,0-1.78-.5A5.81,5.81,0,0,0,258,204a6.86,6.86,0,0,0-1.55.66v-1.53a10.6,10.6,0,0,1,1.62-.49,7.41,7.41,0,0,1,1.51-.16,5.13,5.13,0,0,1,2,.34,3.1,3.1,0,0,1,1.32,1,2.58,2.58,0,0,1,.45,1A9.32,9.32,0,0,1,263.49,206.7Zm-3,.63H260a3.54,3.54,0,0,0-2,.47,1.59,1.59,0,0,0-.68,1.4,1.68,1.68,0,0,0,.51,1.3,2,2,0,0,0,1.4.46,2.43,2.43,0,0,0,2-.88,3.73,3.73,0,0,0,.73-2.42v-.34Z"/><path class="cls-5" d="M268,210.83v4.71h-1.54V202.7H268v1.19a2.65,2.65,0,0,1,1-1.05,2.92,2.92,0,0,1,1.46-.36,3.1,3.1,0,0,1,2.64,1.3,6,6,0,0,1,1,3.61,5.83,5.83,0,0,1-1,3.56,3.11,3.11,0,0,1-2.64,1.29,3,3,0,0,1-1.48-.36A2.55,2.55,0,0,1,268,210.83Zm4.48-3.47a5.17,5.17,0,0,0-.56-2.68,1.83,1.83,0,0,0-1.66-.91,1.87,1.87,0,0,0-1.69.91,6.53,6.53,0,0,0,0,5.35,1.86,1.86,0,0,0,1.69.91A1.83,1.83,0,0,0,272,210,5.17,5.17,0,0,0,272.53,207.36Z"/><path class="cls-5" d="M277.79,202.74h3.91v8.08h3V212h-7.59v-1.19h3v-6.89h-2.38Zm2.38-3.61h1.53v1.93h-1.53Z"/><path class="cls-5" d="M288.63,208.65h2.92V212h-2.92Z"/><path class="cls-5" d="M304.44,211.53a5.33,5.33,0,0,1-1.27.54,5,5,0,0,1-1.33.18,4.4,4.4,0,0,1-3.37-1.29,5.89,5.89,0,0,1,0-7.17,4.4,4.4,0,0,1,3.37-1.29,5,5,0,0,1,1.31.17,5.62,5.62,0,0,1,1.29.54v1.6a4.13,4.13,0,0,0-1.22-.78,3.74,3.74,0,0,0-1.38-.24,2.71,2.71,0,0,0-2.21.93,4.94,4.94,0,0,0,0,5.31,2.7,2.7,0,0,0,2.2.93,3.92,3.92,0,0,0,1.43-.24,3.57,3.57,0,0,0,1.17-.76Z"/><path class="cls-5" d="M311,202.48a3.6,3.6,0,0,1,3,1.25,6.95,6.95,0,0,1,0,7.26,4.13,4.13,0,0,1-5.92,0,7,7,0,0,1,0-7.26A3.59,3.59,0,0,1,311,202.48Zm0,1.29a2,2,0,0,0-1.76.91,6.3,6.3,0,0,0,0,5.36,2.17,2.17,0,0,0,3.53,0,6.3,6.3,0,0,0,0-5.36A2,2,0,0,0,311,203.77Z"/><path class="cls-5" d="M321.72,203.65a2.09,2.09,0,0,1,.72-.88,1.87,1.87,0,0,1,1.05-.29,1.64,1.64,0,0,1,1.58.87,7.83,7.83,0,0,1,.46,3.27V212h-1.39v-5.32a7.82,7.82,0,0,0-.22-2.45.8.8,0,0,0-.8-.48.92.92,0,0,0-.91.51,7.12,7.12,0,0,0-.24,2.41V212h-1.39v-5.32a7.28,7.28,0,0,0-.24-2.46.87.87,0,0,0-.85-.46.85.85,0,0,0-.84.51,7.36,7.36,0,0,0-.24,2.41V212H317v-9.3h1.39v.8a2,2,0,0,1,.68-.76,1.71,1.71,0,0,1,.93-.26,1.8,1.8,0,0,1,1.05.29A1.86,1.86,0,0,1,321.72,203.65Z"/><path class="cls-5" d="M333.72,199.61h1.58l-6.52,14h-1.59Z"/><path class="cls-5" d="M346.16,204.62a3.46,3.46,0,0,0-1-.56,3.4,3.4,0,0,0-1.11-.17,2.69,2.69,0,0,0-2.18.9,3.92,3.92,0,0,0-.76,2.59V212h-1.54v-9.3h1.54v1.82a3.1,3.1,0,0,1,1.17-1.52,3.32,3.32,0,0,1,1.88-.53,3.8,3.8,0,0,1,1.05.14,3.36,3.36,0,0,1,.94.44Z"/><path class="cls-5" d="M356.11,206.59v.75h-6.62v0a3.68,3.68,0,0,0,.73,2.73,3,3,0,0,0,2.24.83,5.44,5.44,0,0,0,1.53-.23,9.3,9.3,0,0,0,1.7-.71v1.52a10.39,10.39,0,0,1-1.68.54,7.25,7.25,0,0,1-1.56.18,4.42,4.42,0,0,1-3.39-1.3,5,5,0,0,1-1.22-3.58,5.11,5.11,0,0,1,1.2-3.55,4.08,4.08,0,0,1,3.19-1.33,3.48,3.48,0,0,1,2.8,1.2A4.62,4.62,0,0,1,356.11,206.59Zm-1.53-.45a3,3,0,0,0-.7-1.66,2.15,2.15,0,0,0-1.73-.7,2.44,2.44,0,0,0-1.82.73,2.58,2.58,0,0,0-.78,1.64Z"/><path class="cls-5" d="M365.12,203v1.49a5.79,5.79,0,0,0-1.32-.57,4.89,4.89,0,0,0-1.35-.19,2.85,2.85,0,0,0-1.55.34,1.14,1.14,0,0,0-.51,1,1.12,1.12,0,0,0,.38.93,5.22,5.22,0,0,0,1.9.6l.61.12a3,3,0,0,1,1.72.86,2.42,2.42,0,0,1,.58,1.69,2.59,2.59,0,0,1-1,2.15,4.28,4.28,0,0,1-2.72.78,7.66,7.66,0,0,1-1.44-.14,13.18,13.18,0,0,1-1.63-.44v-1.58a8.78,8.78,0,0,0,1.63.66,5.46,5.46,0,0,0,1.48.22,2.61,2.61,0,0,0,1.57-.41,1.35,1.35,0,0,0,.56-1.15q0-1.06-2-1.47l-.07,0-.57-.12a3.66,3.66,0,0,1-1.93-.87,2.26,2.26,0,0,1-.61-1.67,2.49,2.49,0,0,1,.9-2.06,4,4,0,0,1,2.58-.73,7.31,7.31,0,0,1,1.44.14A7.17,7.17,0,0,1,365.12,203Z"/><path class="cls-5" d="M372.38,200.06v2.64h3.47v1.19h-3.47v5a2.07,2.07,0,0,0,.39,1.44,1.84,1.84,0,0,0,1.36.41h1.72V212H374a3.42,3.42,0,0,1-2.42-.69,3.25,3.25,0,0,1-.71-2.37v-5h-2.48V202.7h2.48v-2.64Z"/><path class="cls-5" d="M384.89,199.61h1.58l-6.53,14h-1.58Z"/><path class="cls-5" d="M388.58,202.7h1.59l2.7,7.8,2.71-7.8h1.58l-3.3,9.3h-2Z"/><path class="cls-5" d="M404.43,205.37a3.39,3.39,0,0,1,1.87,1.15,3.24,3.24,0,0,1,.65,2.06,3.33,3.33,0,0,1-1.15,2.69,4.77,4.77,0,0,1-3.18,1,9.94,9.94,0,0,1-1.74-.16,11.23,11.23,0,0,1-1.74-.46V210a8.07,8.07,0,0,0,1.67.66,6.39,6.39,0,0,0,1.63.22,3.2,3.2,0,0,0,2.12-.62,2.21,2.21,0,0,0,.74-1.79,2.14,2.14,0,0,0-.74-1.71,3,3,0,0,0-2-.64h-1.28v-1.38h1.28a2.86,2.86,0,0,0,1.8-.51,1.69,1.69,0,0,0,.65-1.41,1.81,1.81,0,0,0-.6-1.46,2.57,2.57,0,0,0-1.71-.51,7.42,7.42,0,0,0-1.53.17,10.77,10.77,0,0,0-1.65.5v-1.54q1-.27,1.79-.4a8.4,8.4,0,0,1,1.39-.13,4.35,4.35,0,0,1,2.89.91,3,3,0,0,1,1.08,2.41,2.56,2.56,0,0,1-.57,1.7A3.09,3.09,0,0,1,404.43,205.37Z"/><path class="cls-5" d="M415.6,199.61h1.58l-6.52,14h-1.59Z"/><path class="cls-5" d="M421.58,203.89a2.58,2.58,0,0,1,1-1,3,3,0,0,1,1.49-.37,3.12,3.12,0,0,1,2.64,1.29,5.83,5.83,0,0,1,1,3.56,6,6,0,0,1-1,3.61,3.12,3.12,0,0,1-2.65,1.31,2.92,2.92,0,0,1-1.46-.36,2.66,2.66,0,0,1-1-1V212h-1.53V199.08h1.53Zm4.49,3.47a5.13,5.13,0,0,0-.56-2.68,1.84,1.84,0,0,0-1.67-.91,1.87,1.87,0,0,0-1.68.91,6.53,6.53,0,0,0,0,5.35,1.86,1.86,0,0,0,1.68.91,1.84,1.84,0,0,0,1.67-.9A5.14,5.14,0,0,0,426.08,207.36Z"/><path class="cls-5" d="M433.8,202.48a3.6,3.6,0,0,1,3,1.25,6.95,6.95,0,0,1,0,7.26,4.13,4.13,0,0,1-5.92,0,7,7,0,0,1,0-7.26A3.59,3.59,0,0,1,433.8,202.48Zm0,1.29a2,2,0,0,0-1.76.91,6.3,6.3,0,0,0,0,5.36,2.17,2.17,0,0,0,3.53,0,6.3,6.3,0,0,0,0-5.36A2,2,0,0,0,433.8,203.77Z"/><path class="cls-5" d="M444,200.06v2.64h3.47v1.19H444v5a2.06,2.06,0,0,0,.39,1.44,1.84,1.84,0,0,0,1.36.41h1.72V212h-1.87a3.42,3.42,0,0,1-2.42-.69,3.25,3.25,0,0,1-.71-2.37v-5H440V202.7h2.48v-2.64Z"/><path class="cls-5" d="M456.54,199.61h1.58l-6.52,14H450Z"/></g><g class="cls-3"><path class="cls-4" d="M57.91,297.27v1.13h-.5a4.15,4.15,0,0,1-2.61-.58,3,3,0,0,1-.66-2.3v-2.65a2.43,2.43,0,0,0-.42-1.63,2,2,0,0,0-1.51-.45h-.48v-1.12h.48a2,2,0,0,0,1.52-.45,2.4,2.4,0,0,0,.41-1.62v-1.87a3,3,0,0,1,.66-2.3,4.17,4.17,0,0,1,2.61-.57h.5V284h-.55a2.08,2.08,0,0,0-1.43.34,2.18,2.18,0,0,0-.33,1.45v1.94a3.41,3.41,0,0,1-.36,1.78,1.84,1.84,0,0,1-1.21.75,1.89,1.89,0,0,1,1.22.77,3.42,3.42,0,0,1,.35,1.77v2.72a2.18,2.18,0,0,0,.33,1.45,2.1,2.1,0,0,0,1.43.34Z"/></g><g class="cls-3"><path class="cls-4" d="M53.22,306.91v4.78H51.47v-4.78Zm4.16,0v4.78H55.63v-4.78Z"/><path class="cls-4" d="M67.92,318.55a5,5,0,0,1-1.19.5,4.72,4.72,0,0,1-1.25.17A4.14,4.14,0,0,1,62.3,318a5.55,5.55,0,0,1,0-6.75A4.14,4.14,0,0,1,65.48,310a4.67,4.67,0,0,1,1.23.16,5.3,5.3,0,0,1,1.21.51v1.51a3.89,3.89,0,0,0-1.14-.73,3.51,3.51,0,0,0-1.3-.23,2.55,2.55,0,0,0-2.08.88,4.65,4.65,0,0,0,0,5,2.55,2.55,0,0,0,2.07.88,3.7,3.7,0,0,0,1.34-.23,3.35,3.35,0,0,0,1.1-.71Z"/><path class="cls-4" d="M74.08,310a3.39,3.39,0,0,1,2.79,1.18,6.54,6.54,0,0,1,0,6.83,3.89,3.89,0,0,1-5.57,0,6.55,6.55,0,0,1,0-6.83A3.38,3.38,0,0,1,74.08,310Zm0,1.22a1.86,1.86,0,0,0-1.66.85,5.93,5.93,0,0,0,0,5,2,2,0,0,0,3.32,0,5.93,5.93,0,0,0,0-5A1.87,1.87,0,0,0,74.08,311.26Z"/><path class="cls-4" d="M87.11,313.58V319H85.66v-5.42a2.92,2.92,0,0,0-.41-1.73,1.51,1.51,0,0,0-1.3-.55,1.83,1.83,0,0,0-1.55.71,3.34,3.34,0,0,0-.54,2.05V319H80.42v-8.75h1.44v1.31a2.71,2.71,0,0,1,1-1.14,3,3,0,0,1,1.55-.39,2.34,2.34,0,0,1,2,.88A4.41,4.41,0,0,1,87.11,313.58Z"/><path class="cls-4" d="M96.84,306.84V308H95.2a1.45,1.45,0,0,0-1.07.32,1.62,1.62,0,0,0-.3,1.12v.77h3v1.12h-3V319H92.39v-7.63H90.05v-1.12h2.34v-.61a2.94,2.94,0,0,1,.66-2.12,2.76,2.76,0,0,1,2.06-.68Z"/><path class="cls-4" d="M100.63,310.28h3.68v7.6h2.85V319H100v-1.12h2.85V311.4h-2.24Zm2.24-3.4h1.44v1.81h-1.44Z"/><path class="cls-4" d="M114.5,311.37v-4.52h1.44V319H114.5v-1.1a2.5,2.5,0,0,1-1,1,2.74,2.74,0,0,1-1.38.34,2.94,2.94,0,0,1-2.5-1.23,5.6,5.6,0,0,1-.91-3.39,5.45,5.45,0,0,1,.91-3.35,3,3,0,0,1,2.49-1.21,2.78,2.78,0,0,1,1.39.34A2.39,2.39,0,0,1,114.5,311.37Zm-4.23,3.27a4.83,4.83,0,0,0,.53,2.52,1.73,1.73,0,0,0,1.57.85,1.76,1.76,0,0,0,1.58-.86,6.11,6.11,0,0,0,0-5,1.76,1.76,0,0,0-1.58-.86,1.73,1.73,0,0,0-1.57.85A4.83,4.83,0,0,0,110.27,314.63Z"/><path class="cls-4" d="M126.18,313.91v.7H120v0a3.46,3.46,0,0,0,.68,2.57,2.77,2.77,0,0,0,2.11.78,5.14,5.14,0,0,0,1.44-.22,8.8,8.8,0,0,0,1.6-.66v1.43a9.76,9.76,0,0,1-1.58.5,6.82,6.82,0,0,1-1.47.17,4.16,4.16,0,0,1-3.19-1.22,4.73,4.73,0,0,1-1.15-3.37,4.81,4.81,0,0,1,1.13-3.34,3.84,3.84,0,0,1,3-1.25,3.28,3.28,0,0,1,2.64,1.13A4.35,4.35,0,0,1,126.18,313.91Zm-1.44-.42a2.79,2.79,0,0,0-.66-1.57,2,2,0,0,0-1.63-.66,2.29,2.29,0,0,0-1.71.69,2.42,2.42,0,0,0-.73,1.55Z"/><path class="cls-4" d="M135.27,313.58V319h-1.45v-5.42a2.92,2.92,0,0,0-.41-1.73,1.51,1.51,0,0,0-1.3-.55,1.83,1.83,0,0,0-1.55.71,3.34,3.34,0,0,0-.54,2.05V319h-1.44v-8.75H130v1.31a2.71,2.71,0,0,1,1-1.14,3,3,0,0,1,1.55-.39,2.34,2.34,0,0,1,2,.88A4.41,4.41,0,0,1,135.27,313.58Z"/><path class="cls-4" d="M141.49,307.77v2.48h3.27v1.12h-3.27v4.75a1.94,1.94,0,0,0,.37,1.35,1.74,1.74,0,0,0,1.28.38h1.62V319H143a3.22,3.22,0,0,1-2.28-.65,3.05,3.05,0,0,1-.66-2.23v-4.75h-2.34v-1.12h2.34v-2.48Z"/><path class="cls-4" d="M149.55,306.91v4.78H147.8v-4.78Zm4.16,0v4.78H152v-4.78Z"/><path class="cls-4" d="M159.31,310.26h2.44v2.82h-2.44Zm0,5.9h2.44V319h-2.44Z"/><path class="cls-4" d="M177.34,317.68h2.45v-8.81l-2.94,1.41v-1.52l2.92-1.39h1.58v10.3h2.42V319h-6.44Z"/><path class="cls-4" d="M187.9,315.84h2.75V319H187.9Z"/><path class="cls-4" d="M199.3,307.16a3.13,3.13,0,0,1,2.82,1.52,11.09,11.09,0,0,1,0,9,3.38,3.38,0,0,1-5.64,0,11.14,11.14,0,0,1,0-9A3.12,3.12,0,0,1,199.3,307.16Zm0,1.25a1.75,1.75,0,0,0-1.64,1.18,9,9,0,0,0-.54,3.6,13.5,13.5,0,0,0,.15,2.06l3.64-5.8A1.79,1.79,0,0,0,199.3,308.41Zm0,9.56A1.76,1.76,0,0,0,201,316.8a9.06,9.06,0,0,0,.54-3.6,15.77,15.77,0,0,0-.16-2.33l-3.72,5.82A1.84,1.84,0,0,0,199.3,318Z"/><path class="cls-4" d="M207.58,316.18H210v2.07l-1.73,3.37h-1.56l.86-3.37Z"/></g><g class="cls-3"><path class="cls-4" d="M53.22,330.91v4.78H51.47v-4.78Zm4.16,0v4.78H55.63v-4.78Z"/><path class="cls-4" d="M67.92,342.55a5,5,0,0,1-1.19.5,4.72,4.72,0,0,1-1.25.17A4.14,4.14,0,0,1,62.3,342a5.55,5.55,0,0,1,0-6.75A4.14,4.14,0,0,1,65.48,334a4.67,4.67,0,0,1,1.23.16,5.3,5.3,0,0,1,1.21.51v1.51a3.89,3.89,0,0,0-1.14-.73,3.51,3.51,0,0,0-1.3-.23,2.55,2.55,0,0,0-2.08.88,4.65,4.65,0,0,0,0,5,2.55,2.55,0,0,0,2.07.88,3.7,3.7,0,0,0,1.34-.23,3.35,3.35,0,0,0,1.1-.71Z"/><path class="cls-4" d="M74.08,334a3.39,3.39,0,0,1,2.79,1.18,6.54,6.54,0,0,1,0,6.83,3.89,3.89,0,0,1-5.57,0,6.55,6.55,0,0,1,0-6.83A3.38,3.38,0,0,1,74.08,334Zm0,1.22a1.86,1.86,0,0,0-1.66.85,5.93,5.93,0,0,0,0,5,2,2,0,0,0,3.32,0,5.93,5.93,0,0,0,0-5A1.87,1.87,0,0,0,74.08,335.26Z"/><path class="cls-4" d="M87.11,337.58V343H85.66v-5.42a2.92,2.92,0,0,0-.41-1.73,1.51,1.51,0,0,0-1.3-.55,1.83,1.83,0,0,0-1.55.71,3.34,3.34,0,0,0-.54,2.05V343H80.42v-8.75h1.44v1.31a2.71,2.71,0,0,1,1-1.14,3,3,0,0,1,1.55-.39,2.34,2.34,0,0,1,2,.88A4.41,4.41,0,0,1,87.11,337.58Z"/><path class="cls-4" d="M93.33,331.77v2.48h3.27v1.12H93.33v4.75a1.94,1.94,0,0,0,.37,1.35,1.74,1.74,0,0,0,1.28.38h1.62V343H94.84a3.22,3.22,0,0,1-2.28-.65,3.05,3.05,0,0,1-.66-2.23v-4.75H89.55v-1.12h2.34v-2.48Z"/><path class="cls-4" d="M106.91,337.91v.7h-6.23v0a3.46,3.46,0,0,0,.68,2.57,2.77,2.77,0,0,0,2.11.78,5.14,5.14,0,0,0,1.44-.22,8.8,8.8,0,0,0,1.6-.66v1.43a9.76,9.76,0,0,1-1.58.5,6.82,6.82,0,0,1-1.47.17,4.16,4.16,0,0,1-3.19-1.22,4.73,4.73,0,0,1-1.15-3.37,4.81,4.81,0,0,1,1.13-3.34,3.84,3.84,0,0,1,3-1.25,3.28,3.28,0,0,1,2.64,1.13A4.35,4.35,0,0,1,106.91,337.91Zm-1.44-.42a2.79,2.79,0,0,0-.66-1.57,2,2,0,0,0-1.63-.66,2.29,2.29,0,0,0-1.71.69,2.42,2.42,0,0,0-.73,1.55Z"/><path class="cls-4" d="M116,337.58V343h-1.45v-5.42a2.92,2.92,0,0,0-.41-1.73,1.51,1.51,0,0,0-1.3-.55,1.83,1.83,0,0,0-1.55.71,3.34,3.34,0,0,0-.54,2.05V343h-1.44v-8.75h1.44v1.31a2.71,2.71,0,0,1,1-1.14,3,3,0,0,1,1.55-.39,2.34,2.34,0,0,1,2,.88A4.41,4.41,0,0,1,116,337.58Z"/><path class="cls-4" d="M122.23,331.77v2.48h3.27v1.12h-3.27v4.75a1.94,1.94,0,0,0,.37,1.35,1.74,1.74,0,0,0,1.28.38h1.62V343h-1.76a3.22,3.22,0,0,1-2.28-.65,3.05,3.05,0,0,1-.66-2.23v-4.75h-2.34v-1.12h2.34v-2.48Z"/><path class="cls-4" d="M130.28,330.91v4.78h-1.75v-4.78Zm4.16,0v4.78H132.7v-4.78Z"/><path class="cls-4" d="M140,334.26h2.44v2.82H140Zm0,5.9h2.44V343H140Z"/></g><g class="cls-3"><path class="cls-7" d="M178.45,330.91v4.78H176.7v-4.78Zm4.16,0v4.78h-1.75v-4.78Z"/><path class="cls-7" d="M185.93,331.34h1.59v4.47h4.32v-4.47h1.59V343h-1.59v-5.87h-4.32V343h-1.59Z"/><path class="cls-7" d="M203.24,337.91v.7H197v0a3.46,3.46,0,0,0,.68,2.57,2.77,2.77,0,0,0,2.11.78,5.14,5.14,0,0,0,1.44-.22,8.8,8.8,0,0,0,1.6-.66v1.43a9.76,9.76,0,0,1-1.58.5,6.82,6.82,0,0,1-1.47.17A4.16,4.16,0,0,1,196.6,342a4.73,4.73,0,0,1-1.15-3.37,4.81,4.81,0,0,1,1.13-3.34,3.84,3.84,0,0,1,3-1.25,3.28,3.28,0,0,1,2.64,1.13A4.35,4.35,0,0,1,203.24,337.91Zm-1.44-.42a2.79,2.79,0,0,0-.66-1.57,2,2,0,0,0-1.63-.66,2.29,2.29,0,0,0-1.71.69,2.42,2.42,0,0,0-.73,1.55Z"/><path class="cls-7" d="M221.36,334.55V336a5.51,5.51,0,0,0-1.24-.54,4.58,4.58,0,0,0-1.27-.18,2.68,2.68,0,0,0-1.46.32,1.08,1.08,0,0,0-.48,1,1.05,1.05,0,0,0,.36.88,4.91,4.91,0,0,0,1.79.56l.58.11a2.82,2.82,0,0,1,1.62.81,2.27,2.27,0,0,1,.55,1.59,2.44,2.44,0,0,1-.92,2,4,4,0,0,1-2.56.73,7.22,7.22,0,0,1-1.36-.14,12.29,12.29,0,0,1-1.54-.41V341.2a8.26,8.26,0,0,0,1.54.62,5.14,5.14,0,0,0,1.39.21,2.45,2.45,0,0,0,1.48-.39,1.27,1.27,0,0,0,.52-1.08q0-1-1.91-1.38l-.06,0-.54-.11a3.44,3.44,0,0,1-1.81-.82,2.12,2.12,0,0,1-.57-1.57,2.35,2.35,0,0,1,.85-1.94,3.79,3.79,0,0,1,2.43-.68,6.92,6.92,0,0,1,1.35.13A6.83,6.83,0,0,1,221.36,334.55Z"/><path class="cls-7" d="M231.68,342.55a5,5,0,0,1-1.19.5,4.72,4.72,0,0,1-1.25.17,4.14,4.14,0,0,1-3.18-1.22,5.55,5.55,0,0,1,0-6.75,4.14,4.14,0,0,1,3.18-1.22,4.67,4.67,0,0,1,1.23.16,5.3,5.3,0,0,1,1.21.51v1.51a3.89,3.89,0,0,0-1.14-.73,3.51,3.51,0,0,0-1.3-.23,2.55,2.55,0,0,0-2.08.88,4.65,4.65,0,0,0,0,5,2.55,2.55,0,0,0,2.07.88,3.7,3.7,0,0,0,1.34-.23,3.35,3.35,0,0,0,1.1-.71Z"/><path class="cls-7" d="M237.84,334a3.39,3.39,0,0,1,2.79,1.18,6.54,6.54,0,0,1,0,6.83,3.89,3.89,0,0,1-5.57,0,6.55,6.55,0,0,1,0-6.83A3.38,3.38,0,0,1,237.84,334Zm0,1.22a1.86,1.86,0,0,0-1.66.85,5.93,5.93,0,0,0,0,5,2,2,0,0,0,3.32,0,5.93,5.93,0,0,0,0-5A1.87,1.87,0,0,0,237.84,335.26Z"/><path class="cls-7" d="M251.68,336.05a3.27,3.27,0,0,0-.94-.52,3.2,3.2,0,0,0-1-.16,2.54,2.54,0,0,0-2.05.84,3.69,3.69,0,0,0-.71,2.44V343h-1.45v-8.75h1.45V336a2.91,2.91,0,0,1,1.11-1.43,3.12,3.12,0,0,1,1.77-.5,3.56,3.56,0,0,1,1,.13,3.18,3.18,0,0,1,.88.41Z"/><path class="cls-7" d="M261,337.91v.7h-6.23v0a3.46,3.46,0,0,0,.68,2.57,2.77,2.77,0,0,0,2.11.78,5.14,5.14,0,0,0,1.44-.22,8.8,8.8,0,0,0,1.6-.66v1.43a9.76,9.76,0,0,1-1.58.5,6.82,6.82,0,0,1-1.47.17A4.16,4.16,0,0,1,254.4,342a4.73,4.73,0,0,1-1.15-3.37,4.81,4.81,0,0,1,1.13-3.34,3.84,3.84,0,0,1,3-1.25,3.28,3.28,0,0,1,2.64,1.13A4.35,4.35,0,0,1,261,337.91Zm-1.44-.42a2.79,2.79,0,0,0-.66-1.57,2,2,0,0,0-1.63-.66,2.29,2.29,0,0,0-1.71.69,2.42,2.42,0,0,0-.73,1.55Z"/><path class="cls-7" d="M268.63,335.37v-4.52h1.44V343h-1.44v-1.1a2.5,2.5,0,0,1-1,1,2.74,2.74,0,0,1-1.38.34,2.94,2.94,0,0,1-2.5-1.23,5.6,5.6,0,0,1-.91-3.39,5.45,5.45,0,0,1,.91-3.35,3,3,0,0,1,2.49-1.21,2.78,2.78,0,0,1,1.39.34A2.39,2.39,0,0,1,268.63,335.37Zm-4.23,3.27a4.83,4.83,0,0,0,.53,2.52,1.73,1.73,0,0,0,1.57.85,1.76,1.76,0,0,0,1.58-.86,6.11,6.11,0,0,0,0-5,1.76,1.76,0,0,0-1.58-.86,1.73,1.73,0,0,0-1.57.85A4.83,4.83,0,0,0,264.4,338.63Z"/><path class="cls-7" d="M283,342.76V341.3a4.31,4.31,0,0,0,2.2.59,2.57,2.57,0,0,0,2.27-1.13,5.91,5.91,0,0,0,.77-3.32,2.77,2.77,0,0,1-1,1.2,2.8,2.8,0,0,1-1.52.42,3.32,3.32,0,0,1-2.61-1,4.28,4.28,0,0,1-.93-2.95,4.16,4.16,0,0,1,.95-2.92,3.46,3.46,0,0,1,2.68-1,3.29,3.29,0,0,1,3,1.46,8.67,8.67,0,0,1,.95,4.59,7.53,7.53,0,0,1-1.14,4.5,3.84,3.84,0,0,1-3.3,1.55,5.56,5.56,0,0,1-1.15-.12A6.1,6.1,0,0,1,283,342.76Zm2.81-4.93a1.91,1.91,0,0,0,1.58-.73,3.8,3.8,0,0,0,0-4,1.91,1.91,0,0,0-1.58-.73,1.87,1.87,0,0,0-1.58.69,4.21,4.21,0,0,0,0,4.09A1.87,1.87,0,0,0,285.84,337.83Z"/><path class="cls-7" d="M295.63,331.16a3.13,3.13,0,0,1,2.82,1.52,11.09,11.09,0,0,1,0,9,3.38,3.38,0,0,1-5.64,0,11.14,11.14,0,0,1,0-9A3.12,3.12,0,0,1,295.63,331.16Zm0,1.25a1.75,1.75,0,0,0-1.64,1.18,9,9,0,0,0-.54,3.6,13.5,13.5,0,0,0,.15,2.06l3.64-5.8A1.79,1.79,0,0,0,295.63,332.41Zm0,9.56a1.76,1.76,0,0,0,1.65-1.18,9.06,9.06,0,0,0,.54-3.6,15.77,15.77,0,0,0-.16-2.33L294,340.69A1.84,1.84,0,0,0,295.63,342Z"/><path class="cls-7" d="M312.56,334.28h3.68v7.6h2.85V343h-7.14v-1.12h2.85V335.4h-2.24Zm2.24-3.4h1.44v1.81H314.8Z"/><path class="cls-7" d="M327.93,337.58V343h-1.45v-5.42a2.92,2.92,0,0,0-.41-1.73,1.51,1.51,0,0,0-1.3-.55,1.83,1.83,0,0,0-1.55.71,3.34,3.34,0,0,0-.54,2.05V343h-1.44v-8.75h1.44v1.31a2.71,2.71,0,0,1,1-1.14,3,3,0,0,1,1.55-.39,2.34,2.34,0,0,1,2,.88A4.41,4.41,0,0,1,327.93,337.58Z"/><path class="cls-7" d="M340.6,331.34h5.91v1.33H342v2.87a3.79,3.79,0,0,1,.68-.18,4,4,0,0,1,.68-.06,3.87,3.87,0,0,1,2.88,1.07,3.93,3.93,0,0,1,1.06,2.9,3.83,3.83,0,0,1-1.11,2.91,4.23,4.23,0,0,1-3,1.06,10.67,10.67,0,0,1-1.7-.12,6.25,6.25,0,0,1-1.38-.37v-1.6a6.48,6.48,0,0,0,1.45.58,5.79,5.79,0,0,0,1.48.19,2.77,2.77,0,0,0,2-.69,2.6,2.6,0,0,0,.71-2,2.56,2.56,0,0,0-.73-1.95,2.83,2.83,0,0,0-2-.7,5.25,5.25,0,0,0-1.23.14,4.91,4.91,0,0,0-1.15.43Z"/><path class="cls-7" d="M350.23,331.34h5.91v1.33h-4.47v2.87a3.79,3.79,0,0,1,.68-.18,4,4,0,0,1,.68-.06,3.87,3.87,0,0,1,2.88,1.07,3.93,3.93,0,0,1,1.06,2.9,3.83,3.83,0,0,1-1.11,2.91,4.23,4.23,0,0,1-3,1.06,10.67,10.67,0,0,1-1.7-.12,6.25,6.25,0,0,1-1.38-.37v-1.6a6.49,6.49,0,0,0,1.44.58,5.79,5.79,0,0,0,1.48.19,2.77,2.77,0,0,0,2-.69,2.6,2.6,0,0,0,.71-2,2.56,2.56,0,0,0-.73-1.95,2.83,2.83,0,0,0-2-.7,5.25,5.25,0,0,0-1.23.14,4.92,4.92,0,0,0-1.15.43Z"/><path class="cls-7" d="M370.83,335.37a2.43,2.43,0,0,1,.95-1,2.79,2.79,0,0,1,1.4-.34,2.93,2.93,0,0,1,2.48,1.21,5.49,5.49,0,0,1,.91,3.35,5.61,5.61,0,0,1-.91,3.39,2.94,2.94,0,0,1-2.5,1.23,2.74,2.74,0,0,1-1.38-.34,2.5,2.5,0,0,1-1-1V343h-1.44V330.84h1.44Zm4.23,3.27a4.83,4.83,0,0,0-.53-2.52,1.74,1.74,0,0,0-1.57-.85,1.76,1.76,0,0,0-1.59.86,6.15,6.15,0,0,0,0,5A1.75,1.75,0,0,0,373,342a1.74,1.74,0,0,0,1.57-.85A4.83,4.83,0,0,0,375.05,338.63Z"/><path class="cls-7" d="M385.79,338v5h-1.45v-1.3a3,3,0,0,1-1.16,1.15,3.59,3.59,0,0,1-1.7.37,3,3,0,0,1-2.13-.75,3,3,0,0,1,.18-4.24,4.65,4.65,0,0,1,2.88-.76h1.93v-.23a2,2,0,0,0-.53-1.52,2.45,2.45,0,0,0-1.67-.47,5.47,5.47,0,0,0-1.48.21,6.48,6.48,0,0,0-1.46.62v-1.44a10,10,0,0,1,1.53-.46,6.94,6.94,0,0,1,1.42-.15,4.82,4.82,0,0,1,1.86.32,2.92,2.92,0,0,1,1.25,1,2.42,2.42,0,0,1,.42,1A8.78,8.78,0,0,1,385.79,338Zm-2.79.59h-.48a3.34,3.34,0,0,0-1.89.44,1.5,1.5,0,0,0-.64,1.32,1.58,1.58,0,0,0,.48,1.23,1.88,1.88,0,0,0,1.32.44,2.29,2.29,0,0,0,1.87-.82,3.51,3.51,0,0,0,.69-2.28v-.32Z"/><path class="cls-7" d="M392.77,339.84a2.49,2.49,0,0,0,.36,1.46,1.21,1.21,0,0,0,1.05.49h1.68V343H394a2.49,2.49,0,0,1-2-.82,3.49,3.49,0,0,1-.71-2.34v-7.91H389V330.8h3.74Z"/><path class="cls-7" d="M402.4,339.84a2.49,2.49,0,0,0,.36,1.46,1.21,1.21,0,0,0,1.05.49h1.68V343h-1.82a2.49,2.49,0,0,1-2-.82,3.49,3.49,0,0,1-.71-2.34v-7.91h-2.3V330.8h3.74Z"/><path class="cls-7" d="M414,334.55V336a5.49,5.49,0,0,0-1.24-.54,4.57,4.57,0,0,0-1.27-.18,2.68,2.68,0,0,0-1.46.32,1.08,1.08,0,0,0-.48,1,1.06,1.06,0,0,0,.36.88,4.91,4.91,0,0,0,1.79.56l.58.11a2.82,2.82,0,0,1,1.62.81,2.27,2.27,0,0,1,.55,1.59,2.44,2.44,0,0,1-.92,2,4,4,0,0,1-2.56.73,7.22,7.22,0,0,1-1.36-.14,12.32,12.32,0,0,1-1.54-.41V341.2a8.27,8.27,0,0,0,1.54.62A5.14,5.14,0,0,0,411,342a2.45,2.45,0,0,0,1.48-.39,1.27,1.27,0,0,0,.52-1.08q0-1-1.91-1.38l-.06,0-.54-.11a3.44,3.44,0,0,1-1.81-.82,2.13,2.13,0,0,1-.57-1.57,2.35,2.35,0,0,1,.85-1.94,3.79,3.79,0,0,1,2.43-.68,6.92,6.92,0,0,1,1.35.13A6.82,6.82,0,0,1,414,334.55Z"/><path class="cls-7" d="M430.49,334a3.39,3.39,0,0,1,2.79,1.18,6.54,6.54,0,0,1,0,6.83,3.89,3.89,0,0,1-5.57,0,6.55,6.55,0,0,1,0-6.83A3.38,3.38,0,0,1,430.49,334Zm0,1.22a1.86,1.86,0,0,0-1.66.85,5.93,5.93,0,0,0,0,5,2,2,0,0,0,3.32,0,5.93,5.93,0,0,0,0-5A1.87,1.87,0,0,0,430.49,335.26Z"/><path class="cls-7" d="M443.52,337.58V343h-1.45v-5.42a2.91,2.91,0,0,0-.41-1.73,1.51,1.51,0,0,0-1.3-.55,1.83,1.83,0,0,0-1.55.71,3.34,3.34,0,0,0-.54,2.05V343h-1.44v-8.75h1.44v1.31a2.71,2.71,0,0,1,1-1.14,3,3,0,0,1,1.55-.39,2.34,2.34,0,0,1,2,.88A4.41,4.41,0,0,1,443.52,337.58Z"/><path class="cls-7" d="M455.43,342.52v-1.84a5.28,5.28,0,0,0,1.47.95,4,4,0,0,0,1.57.32,1.84,1.84,0,0,0,1.56-.58,3.8,3.8,0,0,0,.44-2.17v-6.53h-3v-1.33H462v7.86a4.64,4.64,0,0,1-.82,3.12,3.56,3.56,0,0,1-2.75.91,6.61,6.61,0,0,1-1.49-.17A8.51,8.51,0,0,1,455.43,342.52Z"/><path class="cls-7" d="M472.48,338v5H471v-1.3a3,3,0,0,1-1.16,1.15,3.59,3.59,0,0,1-1.7.37,3,3,0,0,1-2.13-.75,3,3,0,0,1,.18-4.24,4.65,4.65,0,0,1,2.88-.76H471v-.23a2,2,0,0,0-.53-1.52,2.45,2.45,0,0,0-1.67-.47,5.47,5.47,0,0,0-1.48.21,6.48,6.48,0,0,0-1.46.62v-1.44a10,10,0,0,1,1.53-.46,6.94,6.94,0,0,1,1.42-.15,4.82,4.82,0,0,1,1.86.32,2.92,2.92,0,0,1,1.25,1,2.42,2.42,0,0,1,.42,1A8.78,8.78,0,0,1,472.48,338Zm-2.79.59h-.48a3.34,3.34,0,0,0-1.89.44,1.5,1.5,0,0,0-.64,1.32,1.58,1.58,0,0,0,.48,1.23,1.88,1.88,0,0,0,1.32.44,2.29,2.29,0,0,0,1.87-.82,3.51,3.51,0,0,0,.69-2.28v-.32Z"/><path class="cls-7" d="M482.05,337.58V343h-1.45v-5.42a2.91,2.91,0,0,0-.41-1.73,1.51,1.51,0,0,0-1.3-.55,1.83,1.83,0,0,0-1.55.71,3.34,3.34,0,0,0-.54,2.05V343h-1.44v-8.75h1.44v1.31a2.71,2.71,0,0,1,1-1.14,3,3,0,0,1,1.55-.39,2.34,2.34,0,0,1,2,.88A4.41,4.41,0,0,1,482.05,337.58Z"/><path class="cls-7" d="M496,341.67h5.36V343H494.3v-1.33l2.55-2.72q1.09-1.18,1.51-1.66a8,8,0,0,0,1.05-1.54,2.84,2.84,0,0,0,.27-1.21,2,2,0,0,0-.57-1.53,2.17,2.17,0,0,0-1.57-.55,4.76,4.76,0,0,0-1.49.26,8.39,8.39,0,0,0-1.66.78V331.9a8.51,8.51,0,0,1,1.58-.58,6.3,6.3,0,0,1,1.54-.2,4,4,0,0,1,2.75.91,3,3,0,0,1,1,2.39,3.55,3.55,0,0,1-.35,1.5,7.41,7.41,0,0,1-1.13,1.66q-.44.51-1.27,1.41T496,341.67Z"/><path class="cls-7" d="M510.48,331.59V333a4.31,4.31,0,0,0-2.2-.59,2.58,2.58,0,0,0-2.27,1.13,5.89,5.89,0,0,0-.77,3.32,2.73,2.73,0,0,1,2.56-1.62,3.32,3.32,0,0,1,2.61,1,4.25,4.25,0,0,1,.93,2.93,4.17,4.17,0,0,1-1,2.93,3.45,3.45,0,0,1-2.68,1,3.29,3.29,0,0,1-3-1.46,8.65,8.65,0,0,1-.95-4.59,7.55,7.55,0,0,1,1.14-4.5,3.83,3.83,0,0,1,3.29-1.55,5.6,5.6,0,0,1,1.16.12A6.1,6.1,0,0,1,510.48,331.59Zm-2.81,4.93a1.92,1.92,0,0,0-1.59.73,3.78,3.78,0,0,0,0,4,1.92,1.92,0,0,0,1.59.73,1.87,1.87,0,0,0,1.58-.69,4.2,4.2,0,0,0,0-4.09A1.87,1.87,0,0,0,507.67,336.52Z"/><path class="cls-7" d="M515.83,340.18h2.44v2.07l-1.73,3.37H515l.86-3.37Z"/><path class="cls-7" d="M534.55,341.67h5.36V343h-7.09v-1.33l2.55-2.72q1.09-1.18,1.51-1.66a8,8,0,0,0,1.05-1.54,2.84,2.84,0,0,0,.27-1.21,2,2,0,0,0-.57-1.53,2.17,2.17,0,0,0-1.57-.55,4.76,4.76,0,0,0-1.49.26,8.39,8.39,0,0,0-1.66.78V331.9a8.51,8.51,0,0,1,1.58-.58,6.3,6.3,0,0,1,1.54-.2,4,4,0,0,1,2.75.91,3,3,0,0,1,1,2.39,3.55,3.55,0,0,1-.35,1.5,7.41,7.41,0,0,1-1.13,1.66q-.44.51-1.27,1.41T534.55,341.67Z"/><path class="cls-7" d="M546.09,331.16a3.12,3.12,0,0,1,2.82,1.52,11.09,11.09,0,0,1,0,9,3.38,3.38,0,0,1-5.64,0,11.14,11.14,0,0,1,0-9A3.12,3.12,0,0,1,546.09,331.16Zm0,1.25a1.75,1.75,0,0,0-1.64,1.18,9,9,0,0,0-.54,3.6,13.57,13.57,0,0,0,.15,2.06l3.64-5.8A1.79,1.79,0,0,0,546.09,332.41Zm0,9.56a1.76,1.76,0,0,0,1.65-1.18,9,9,0,0,0,.54-3.6,15.7,15.7,0,0,0-.16-2.33l-3.72,5.82A1.84,1.84,0,0,0,546.09,342Z"/><path class="cls-7" d="M553,341.68h2.45v-8.81l-2.94,1.41v-1.52l2.92-1.39H557v10.3h2.42V343H553Z"/><path class="cls-7" d="M568.28,331.59V333a4.31,4.31,0,0,0-2.2-.59,2.58,2.58,0,0,0-2.27,1.13,5.89,5.89,0,0,0-.77,3.32,2.73,2.73,0,0,1,2.56-1.62,3.32,3.32,0,0,1,2.61,1,4.25,4.25,0,0,1,.93,2.93,4.17,4.17,0,0,1-1,2.93,3.45,3.45,0,0,1-2.68,1,3.29,3.29,0,0,1-3-1.46,8.65,8.65,0,0,1-.95-4.59,7.55,7.55,0,0,1,1.14-4.5,3.83,3.83,0,0,1,3.29-1.55,5.6,5.6,0,0,1,1.16.12A6.1,6.1,0,0,1,568.28,331.59Zm-2.81,4.93a1.92,1.92,0,0,0-1.59.73,3.78,3.78,0,0,0,0,4,1.92,1.92,0,0,0,1.59.73,1.87,1.87,0,0,0,1.58-.69,4.2,4.2,0,0,0,0-4.09A1.87,1.87,0,0,0,565.47,336.52Z"/><path class="cls-7" d="M588.08,338v5h-1.45v-1.3a3,3,0,0,1-1.16,1.15,3.59,3.59,0,0,1-1.7.37,3,3,0,0,1-2.13-.75,3,3,0,0,1,.18-4.24,4.65,4.65,0,0,1,2.88-.76h1.93v-.23a2,2,0,0,0-.53-1.52,2.45,2.45,0,0,0-1.67-.47,5.47,5.47,0,0,0-1.48.21,6.48,6.48,0,0,0-1.46.62v-1.44a10,10,0,0,1,1.53-.46,6.94,6.94,0,0,1,1.42-.15,4.82,4.82,0,0,1,1.86.32,2.92,2.92,0,0,1,1.25,1,2.42,2.42,0,0,1,.42,1A8.78,8.78,0,0,1,588.08,338Zm-2.79.59h-.48a3.34,3.34,0,0,0-1.89.44,1.5,1.5,0,0,0-.64,1.32,1.58,1.58,0,0,0,.48,1.23,1.88,1.88,0,0,0,1.32.44,2.29,2.29,0,0,0,1.87-.82,3.51,3.51,0,0,0,.69-2.28v-.32Z"/><path class="cls-7" d="M597.58,342.44a4.28,4.28,0,0,1-.93,3,3.52,3.52,0,0,1-2.73,1,7.44,7.44,0,0,1-1.24-.11,9.1,9.1,0,0,1-1.3-.32v-1.42a8.84,8.84,0,0,0,1.39.53,4.38,4.38,0,0,0,1.15.17,2.09,2.09,0,0,0,1.7-.63,3.09,3.09,0,0,0,.53-2v-1a2.45,2.45,0,0,1-.94,1.09,2.75,2.75,0,0,1-1.45.36,2.9,2.9,0,0,1-2.45-1.23,6.36,6.36,0,0,1,0-6.57,2.9,2.9,0,0,1,2.45-1.23,2.84,2.84,0,0,1,1.43.34,2.47,2.47,0,0,1,1,1v-1.13h1.44Zm-1.44-3.88a4.66,4.66,0,0,0-.53-2.46,1.7,1.7,0,0,0-1.54-.84,1.81,1.81,0,0,0-1.61.84,5.72,5.72,0,0,0,0,4.92,1.82,1.82,0,0,0,1.62.85,1.69,1.69,0,0,0,1.52-.85A4.71,4.71,0,0,0,596.14,338.55Z"/><path class="cls-7" d="M607.34,338v5H605.9v-1.3a3,3,0,0,1-1.16,1.15,3.59,3.59,0,0,1-1.7.37,3,3,0,0,1-2.13-.75,3,3,0,0,1,.18-4.24,4.65,4.65,0,0,1,2.88-.76h1.93v-.23a2,2,0,0,0-.53-1.52,2.45,2.45,0,0,0-1.67-.47,5.47,5.47,0,0,0-1.48.21,6.48,6.48,0,0,0-1.46.62v-1.44a10,10,0,0,1,1.53-.46,6.94,6.94,0,0,1,1.42-.15,4.82,4.82,0,0,1,1.86.32,2.92,2.92,0,0,1,1.25,1,2.42,2.42,0,0,1,.42,1A8.78,8.78,0,0,1,607.34,338Zm-2.79.59h-.48a3.34,3.34,0,0,0-1.89.44,1.5,1.5,0,0,0-.64,1.32,1.58,1.58,0,0,0,.48,1.23,1.88,1.88,0,0,0,1.32.44,2.29,2.29,0,0,0,1.87-.82,3.51,3.51,0,0,0,.69-2.28v-.32Z"/><path class="cls-7" d="M611.17,334.28h3.68v7.6h2.85V343h-7.14v-1.12h2.85V335.4h-2.24Zm2.24-3.4h1.44v1.81h-1.44Z"/><path class="cls-7" d="M626.55,337.58V343H625.1v-5.42a2.91,2.91,0,0,0-.41-1.73,1.51,1.51,0,0,0-1.3-.55,1.83,1.83,0,0,0-1.55.71,3.34,3.34,0,0,0-.54,2.05V343h-1.44v-8.75h1.44v1.31a2.71,2.71,0,0,1,1-1.14,3,3,0,0,1,1.55-.39,2.34,2.34,0,0,1,2,.88A4.41,4.41,0,0,1,626.55,337.58Z"/><path class="cls-7" d="M635.57,334.55V336a5.49,5.49,0,0,0-1.24-.54,4.57,4.57,0,0,0-1.27-.18,2.68,2.68,0,0,0-1.46.32,1.08,1.08,0,0,0-.48,1,1.06,1.06,0,0,0,.36.88,4.91,4.91,0,0,0,1.79.56l.58.11a2.82,2.82,0,0,1,1.62.81,2.27,2.27,0,0,1,.55,1.59,2.44,2.44,0,0,1-.92,2,4,4,0,0,1-2.56.73,7.22,7.22,0,0,1-1.36-.14,12.32,12.32,0,0,1-1.54-.41V341.2a8.27,8.27,0,0,0,1.54.62,5.14,5.14,0,0,0,1.39.21,2.45,2.45,0,0,0,1.48-.39,1.27,1.27,0,0,0,.52-1.08q0-1-1.91-1.38l-.06,0L632,339a3.44,3.44,0,0,1-1.81-.82,2.13,2.13,0,0,1-.57-1.57,2.35,2.35,0,0,1,.85-1.94,3.79,3.79,0,0,1,2.43-.68,6.92,6.92,0,0,1,1.35.13A6.82,6.82,0,0,1,635.57,334.55Z"/><path class="cls-7" d="M642.4,331.77v2.48h3.27v1.12H642.4v4.75a1.94,1.94,0,0,0,.37,1.35,1.74,1.74,0,0,0,1.28.38h1.62V343h-1.76a3.22,3.22,0,0,1-2.28-.65,3.06,3.06,0,0,1-.66-2.23v-4.75h-2.34v-1.12H641v-2.48Z"/></g><g class="cls-3"><path class="cls-7" d="M53.86,355.34h1.91L59.34,367H57.71l-.86-3H52.77l-.84,3H50.29Zm1,1.39-1.66,6h3.33Z"/><path class="cls-7" d="M61.16,363.69v-5.42h1.44v5.42a2.89,2.89,0,0,0,.42,1.73,1.51,1.51,0,0,0,1.29.55,1.83,1.83,0,0,0,1.55-.71,3.36,3.36,0,0,0,.54-2.05v-4.95h1.45V367H66.4v-1.31a2.72,2.72,0,0,1-1,1.15,3,3,0,0,1-1.54.39,2.33,2.33,0,0,1-2-.88A4.43,4.43,0,0,1,61.16,363.69Z"/><path class="cls-7" d="M76.87,358.55V360a5.51,5.51,0,0,0-1.24-.54,4.58,4.58,0,0,0-1.27-.18,2.68,2.68,0,0,0-1.46.32,1.08,1.08,0,0,0-.48,1,1.05,1.05,0,0,0,.36.88,4.91,4.91,0,0,0,1.79.56l.58.11a2.82,2.82,0,0,1,1.62.81,2.27,2.27,0,0,1,.55,1.59,2.44,2.44,0,0,1-.92,2,4,4,0,0,1-2.56.73,7.22,7.22,0,0,1-1.36-.14,12.29,12.29,0,0,1-1.54-.41V365.2a8.26,8.26,0,0,0,1.54.62,5.14,5.14,0,0,0,1.39.21,2.45,2.45,0,0,0,1.48-.39,1.27,1.27,0,0,0,.52-1.08q0-1-1.91-1.38l-.06,0-.54-.11a3.44,3.44,0,0,1-1.81-.82,2.12,2.12,0,0,1-.57-1.57,2.35,2.35,0,0,1,.85-1.94,3.79,3.79,0,0,1,2.43-.68,6.92,6.92,0,0,1,1.35.13A6.83,6.83,0,0,1,76.87,358.55Z"/><path class="cls-7" d="M83.7,355.77v2.48H87v1.12H83.7v4.75a1.94,1.94,0,0,0,.37,1.35,1.74,1.74,0,0,0,1.28.38H87V367H85.2a3.22,3.22,0,0,1-2.28-.65,3.05,3.05,0,0,1-.66-2.23v-4.75H79.92v-1.12h2.34v-2.48Z"/><path class="cls-7" d="M97.55,360.05a3.27,3.27,0,0,0-.94-.52,3.2,3.2,0,0,0-1-.16,2.54,2.54,0,0,0-2.05.84,3.69,3.69,0,0,0-.71,2.44V367H91.36v-8.75H92.8V360a2.91,2.91,0,0,1,1.11-1.43,3.12,3.12,0,0,1,1.77-.5,3.56,3.56,0,0,1,1,.13,3.18,3.18,0,0,1,.88.41Z"/><path class="cls-7" d="M106.44,362v5H105v-1.3a3,3,0,0,1-1.16,1.15,3.59,3.59,0,0,1-1.7.37,3,3,0,0,1-2.13-.75,3,3,0,0,1,.18-4.24,4.65,4.65,0,0,1,2.88-.76H105v-.23a2,2,0,0,0-.53-1.52,2.45,2.45,0,0,0-1.67-.47,5.46,5.46,0,0,0-1.48.21,6.48,6.48,0,0,0-1.46.62v-1.44a10,10,0,0,1,1.53-.46,6.94,6.94,0,0,1,1.42-.15,4.82,4.82,0,0,1,1.86.32,2.92,2.92,0,0,1,1.25,1,2.43,2.43,0,0,1,.42,1A8.78,8.78,0,0,1,106.44,362Zm-2.79.59h-.48a3.33,3.33,0,0,0-1.89.44,1.5,1.5,0,0,0-.64,1.32,1.58,1.58,0,0,0,.48,1.23,1.88,1.88,0,0,0,1.32.44,2.29,2.29,0,0,0,1.87-.82,3.51,3.51,0,0,0,.69-2.28v-.32Z"/><path class="cls-7" d="M113.41,363.84a2.49,2.49,0,0,0,.36,1.46,1.21,1.21,0,0,0,1.05.49h1.68V367h-1.82a2.49,2.49,0,0,1-2-.82,3.49,3.49,0,0,1-.71-2.34v-7.91h-2.3V354.8h3.74Z"/><path class="cls-7" d="M119.9,358.28h3.68v7.6h2.85V367h-7.14v-1.12h2.85V359.4H119.9Zm2.24-3.4h1.44v1.81h-1.44Z"/><path class="cls-7" d="M135.34,362v5h-1.45v-1.3a3,3,0,0,1-1.16,1.15,3.59,3.59,0,0,1-1.7.37,3,3,0,0,1-2.13-.75,3,3,0,0,1,.18-4.24,4.65,4.65,0,0,1,2.88-.76h1.93v-.23a2,2,0,0,0-.53-1.52,2.45,2.45,0,0,0-1.67-.47,5.46,5.46,0,0,0-1.48.21,6.48,6.48,0,0,0-1.46.62v-1.44a10,10,0,0,1,1.53-.46,6.94,6.94,0,0,1,1.42-.15,4.82,4.82,0,0,1,1.86.32,2.92,2.92,0,0,1,1.25,1,2.43,2.43,0,0,1,.42,1A8.78,8.78,0,0,1,135.34,362Zm-2.79.59h-.48a3.33,3.33,0,0,0-1.89.44,1.5,1.5,0,0,0-.64,1.32,1.58,1.58,0,0,0,.48,1.23,1.88,1.88,0,0,0,1.32.44,2.29,2.29,0,0,0,1.87-.82,3.51,3.51,0,0,0,.69-2.28v-.32Z"/><path class="cls-7" d="M139.91,354.91v4.78h-1.75v-4.78Zm4.16,0v4.78h-1.75v-4.78Z"/></g><g class="cls-3"><path class="cls-4" d="M51.73,393.27h.53a2.09,2.09,0,0,0,1.44-.34,2.17,2.17,0,0,0,.34-1.45v-2.72a3.42,3.42,0,0,1,.35-1.77,1.89,1.89,0,0,1,1.22-.77,1.84,1.84,0,0,1-1.21-.75,3.41,3.41,0,0,1-.36-1.78v-1.94a2.17,2.17,0,0,0-.34-1.45,2.09,2.09,0,0,0-1.44-.34h-.53v-1.12h.48a4.15,4.15,0,0,1,2.6.57,3,3,0,0,1,.66,2.3v1.88a2.38,2.38,0,0,0,.42,1.62,2,2,0,0,0,1.52.45h.5v1.12h-.5a2,2,0,0,0-1.52.45,2.43,2.43,0,0,0-.42,1.63v2.65a3.05,3.05,0,0,1-.66,2.3,4.13,4.13,0,0,1-2.6.58h-.48Z"/></g><rect class="cls-1" width="700" height="50" rx="5" ry="5"/><circle class="cls-8" cx="26.5" cy="25.5" r="6.5"/><circle class="cls-9" cx="46.5" cy="25.5" r="6.5"/><circle class="cls-10" cx="66.5" cy="25.5" r="6.5"/></svg>