<svg xmlns="http://www.w3.org/2000/svg" width="120" height="120" viewBox="0 0 120 120">
  <g fill="none" transform="translate(15 41)">
    <path fill="#092E20" d="M89.8378218,33.5038812 C89.8378218,36.2598416 87.6036832,38.4939802 84.8477228,38.4939802 L4.99009901,38.4939802 C2.23413861,38.4939802 0,36.2598416 0,33.5038812 L0,4.99009901 C0,2.23413861 2.23413861,0 4.99009901,0 L84.8477228,0 C87.6036832,0 89.8378218,2.23413861 89.8378218,4.99009901 L89.8378218,33.5038812 Z"/>
    <g fill="#FFF" transform="translate(6.238 5.881)">
      <path d="M9.25752475,0.163782178 L13.5119406,0.163782178 L13.5119406,19.8561386 C11.3294851,20.270495 9.72712871,20.4362376 7.98683168,20.4362376 C2.79320792,20.4362376 0.0859009901,18.088396 0.0859009901,13.5850099 C0.0859009901,9.24790099 2.95912871,6.43009901 7.40673267,6.43009901 C8.09732673,6.43009901 8.62217822,6.48552475 9.25770297,6.65091089 L9.25770297,0.163782178 L9.25752475,0.163782178 Z M9.25752475,10.0762574 C8.76029703,9.91069307 8.34594059,9.85544554 7.82108911,9.85544554 C5.66625743,9.85544554 4.4230099,11.1815644 4.4230099,13.5017822 C4.4230099,15.7674653 5.6110099,17.0105347 7.79346535,17.0105347 C8.26289109,17.0105347 8.64980198,16.9829109 9.25752475,16.900396 L9.25752475,10.0762574 Z"/>
      <path d="M20.2799406 6.73360396L20.2799406 16.5963564C20.2799406 19.9940792 20.0313267 21.6238812 19.2854851 23.0330495 18.5947129 24.3867921 17.6829505 25.2427723 15.8045347 26.1821584L11.8539802 24.3035644C13.7325743 23.419604 14.6441584 22.6466733 15.2242574 21.4581386 15.8321584 20.2428713 16.025703 18.8335248 16.025703 15.1317624L16.025703 6.73360396 20.2799406 6.73360396zM16.025703.186415842L20.2799406.186415842 20.2799406 4.55150495 16.025703 4.55150495 16.025703.186415842zM22.8496634 7.70061386C24.7284356 6.81647525 26.5239802 6.42992079 28.4854455 6.42992079 30.667901 6.42992079 32.1043366 7.0100198 32.7398614 8.14277228 33.0987921 8.77794059 33.2092871 9.60665347 33.2092871 11.3751089L33.2092871 20.021703C31.3028911 20.298297 28.8996238 20.4914851 27.131703 20.4914851 23.5680594 20.4914851 21.9655248 19.2480594 21.9655248 16.4858614 21.9655248 13.5017822 24.0927327 12.1207723 29.3141584 11.6784356L29.3141584 10.7390495C29.3141584 9.96576238 28.9274257 9.68970297 27.8499208 9.68970297 26.2753663 9.68970297 24.5072673 10.131505 22.8494851 10.9880198L22.8494851 7.70061386 22.8496634 7.70061386zM29.5075248 14.4689703C26.6895446 14.7455644 25.7779604 15.1873663 25.7779604 16.2923168 25.7779604 17.1210297 26.3029901 17.5079406 27.4631881 17.5079406 28.0987129 17.5079406 28.6786337 17.4525149 29.5075248 17.3147525L29.5075248 14.4689703zM35.2814257 7.39693069C37.7951881 6.73360396 39.8671485 6.42992079 41.9667327 6.42992079 44.1491881 6.42992079 45.7239208 6.92679208 46.6634851 7.89415842 47.5474455 8.80538614 47.823505 9.79984158 47.823505 11.9275842L47.823505 20.270495 43.5692673 20.270495 43.5692673 12.0931485C43.5692673 10.4633465 43.0167921 9.85526733 41.4974851 9.85526733 40.9173861 9.85526733 40.3925347 9.91069307 39.5358416 10.1593069L39.5358416 20.2703168 35.281604 20.2703168 35.281604 7.39693069 35.2814257 7.39693069zM49.4773663 22.5910693C50.9694059 23.3643564 52.4610891 23.7234653 54.0356436 23.7234653 56.8256436 23.7234653 58.0136436 22.5910693 58.0136436 19.8835842 58.0136436 19.8561386 58.0136436 19.8283366 58.0136436 19.8003564 57.1849307 20.2148911 56.3560396 20.3808119 55.2512673 20.3808119 51.521703 20.3808119 49.1455248 17.9219406 49.1455248 14.0269901 49.1455248 9.19229703 52.6542772 6.45754455 58.869802 6.45754455 60.6933267 6.45754455 62.3785545 6.65073267 64.4228911 7.06473267L62.9661386 10.134C61.8333861 9.91283168 62.8754257 10.1042376 62.0194455 10.0213663L62.0194455 10.4633465 62.0745149 12.2587129 62.1019604 14.5794653C62.1295842 15.1592079 62.1295842 15.7396634 62.1573861 16.3195842 62.1573861 16.8444356 62.1573861 17.0934059 62.1573861 17.4801386 62.1573861 21.1268317 61.8535248 22.8396832 60.9419406 24.2483168 59.6158218 26.3204554 57.3228713 27.3425347 54.0630891 27.3425347 52.4054851 27.3425347 50.9692277 27.0937426 49.4771881 26.5136436L49.4771881 22.5910693 49.4773663 22.5910693zM57.9309505 9.88306931C57.875703 9.88306931 57.8206337 9.88306931 57.7930099 9.88306931L57.4889703 9.88306931C56.6604356 9.85544554 55.693604 10.0762574 55.0302772 10.4906139 54.0083762 11.0710693 53.4831683 12.1205941 53.4831683 13.6126337 53.4831683 15.7400198 54.5332277 16.9552871 56.4116436 16.9552871 56.9917426 16.9552871 57.4615248 16.8447921 58.0138218 16.6790495L58.0138218 16.3751881 58.0138218 15.2149901C58.0138218 14.7177624 57.9863762 14.1649307 57.9863762 13.5850099L57.9589307 11.6235446 57.9311287 10.2147327 57.9311287 9.88306931 57.9309505 9.88306931zM71.0274653 6.37485149C75.281703 6.37485149 77.8786931 9.05471287 77.8786931 13.3914653 77.8786931 17.8392475 75.1715644 20.6294257 70.8617228 20.6294257 66.6071287 20.6294257 63.9826931 17.9497426 63.9826931 13.6404356 63.9828713 9.16467327 66.6903564 6.37485149 71.0274653 6.37485149zM70.9442376 17.203901C72.574396 17.203901 73.5414059 15.8501584 73.5414059 13.5017822 73.5414059 11.1815644 72.6020198 9.8000198 70.972396 9.8000198 69.2869901 9.8000198 68.319802 11.1541188 68.319802 13.5017822 68.3199802 15.8503366 69.2869901 17.203901 70.9442376 17.203901z"/>
    </g>
  </g>
</svg>
