<svg id="Layer_1" data-name="Layer 1" xmlns="http://www.w3.org/2000/svg" viewBox="0 0 700 454"><defs><style>.cls-1{fill:#0a1a36;}.cls-2{fill:#10234b;}.cls-3{isolation:isolate;}.cls-4{fill:#8da6ce;}.cls-5{fill:#fff;}.cls-6{fill:#fbde2d;}.cls-7{fill:#61ce3c;}.cls-8{fill:#ff5053;}.cls-9{fill:#ffb90d;}.cls-10{fill:#00d34e;}</style></defs><title>getstarted_code</title><rect class="cls-1" width="700" height="454" rx="5" ry="5"/><rect class="cls-2" y="286" width="700" height="138"/><g class="cls-3"><path class="cls-4" d="M58.81,115.53a5.33,5.33,0,0,1-1.27.54,5,5,0,0,1-1.33.18,4.4,4.4,0,0,1-3.37-1.29,5.89,5.89,0,0,1,0-7.17,4.4,4.4,0,0,1,3.37-1.29,5,5,0,0,1,1.31.17,5.62,5.62,0,0,1,1.29.54v1.6a4.13,4.13,0,0,0-1.22-.78,3.74,3.74,0,0,0-1.38-.24,2.71,2.71,0,0,0-2.21.93A4.94,4.94,0,0,0,54,114a2.7,2.7,0,0,0,2.2.93,3.92,3.92,0,0,0,1.43-.24,3.57,3.57,0,0,0,1.17-.76Z"/><path class="cls-4" d="M61.85,112.48v-5.76h1.53v5.76a3.07,3.07,0,0,0,.44,1.84,1.61,1.61,0,0,0,1.37.59,1.94,1.94,0,0,0,1.65-.76,3.57,3.57,0,0,0,.57-2.18v-5.25H69V116H67.42v-1.39a2.89,2.89,0,0,1-1.11,1.22,3.16,3.16,0,0,1-1.64.41,2.48,2.48,0,0,1-2.12-.93A4.71,4.71,0,0,1,61.85,112.48Z"/><path class="cls-4" d="M80.06,108.62a3.46,3.46,0,0,0-1-.56,3.4,3.4,0,0,0-1.11-.17,2.69,2.69,0,0,0-2.18.9,3.92,3.92,0,0,0-.76,2.59V116H73.47v-9.3H75v1.82A3.1,3.1,0,0,1,76.18,107a3.32,3.32,0,0,1,1.88-.53,3.8,3.8,0,0,1,1.05.14,3.36,3.36,0,0,1,.94.44Z"/><path class="cls-4" d="M86.67,112.64a2.65,2.65,0,0,0,.38,1.55,1.29,1.29,0,0,0,1.12.52H90V116H88a2.64,2.64,0,0,1-2.12-.88,3.7,3.7,0,0,1-.75-2.49v-8.41H82.7V103h4Z"/><path class="cls-4" d="M102,110h8.8v1.4H102Z"/></g><g class="cls-3"><path class="cls-5" d="M112.12,103.61h1.8l2.72,4.67,2.77-4.67h1.8l-3.71,5.83,4,6.57h-1.8l-3-5.34L113.37,116h-1.81l4.15-6.57Z"/><path class="cls-5" d="M133.51,103.61h3.62a4.63,4.63,0,0,1,3.15.94,4.11,4.11,0,0,1,0,5.53,4.64,4.64,0,0,1-3.15.94h-1.94v5h-1.68Zm1.68,1.38v4.66h1.94a2.54,2.54,0,0,0,1.81-.61,2.59,2.59,0,0,0,0-3.43,2.55,2.55,0,0,0-1.82-.61Z"/><path class="cls-5" d="M151.38,109.82a9.06,9.06,0,0,1-1,4.83,3.86,3.86,0,0,1-6.25,0,9.09,9.09,0,0,1-1-4.84,9.09,9.09,0,0,1,1-4.84,3.85,3.85,0,0,1,6.24,0A9.09,9.09,0,0,1,151.38,109.82Zm-1.75,0a9.78,9.78,0,0,0-.56-3.9,2,2,0,0,0-3.67,0,9.76,9.76,0,0,0-.56,3.9,9.72,9.72,0,0,0,.56,3.89,2,2,0,0,0,3.67,0A9.74,9.74,0,0,0,149.63,109.82Z"/><path class="cls-5" d="M160.75,104v1.7a6.61,6.61,0,0,0-1.53-.74,5,5,0,0,0-1.55-.25,2.92,2.92,0,0,0-1.88.55,1.81,1.81,0,0,0-.69,1.49,1.65,1.65,0,0,0,.45,1.25,3.78,3.78,0,0,0,1.69.72l.88.2a4.86,4.86,0,0,1,2.54,1.28,3.38,3.38,0,0,1,.8,2.37,3.34,3.34,0,0,1-1.1,2.7,4.8,4.8,0,0,1-3.19.93,8.38,8.38,0,0,1-1.75-.19,9.86,9.86,0,0,1-1.77-.56v-1.79a8.27,8.27,0,0,0,1.81.89,5.43,5.43,0,0,0,1.71.28,3.07,3.07,0,0,0,2-.57,2.22,2.22,0,0,0,.22-3,3.42,3.42,0,0,0-1.69-.75l-.9-.21a5,5,0,0,1-2.51-1.18,2.88,2.88,0,0,1-.78-2.12,3.4,3.4,0,0,1,1.12-2.66,4.28,4.28,0,0,1,3-1,7.44,7.44,0,0,1,1.5.16A11.26,11.26,0,0,1,160.75,104Z"/><path class="cls-5" d="M163,103.61h9.45V105h-3.88v11h-1.69V105H163Z"/><path class="cls-5" d="M185.49,103.61l6.52,14h-1.58l-6.53-14Z"/></g><g class="cls-3"><path class="cls-4" d="M50.85,136h8.8v1.4h-8.8Z"/><path class="cls-4" d="M67.36,133.89v-4.81h1.53V142H67.36v-1.17a2.66,2.66,0,0,1-1,1,2.92,2.92,0,0,1-1.47.36,3.12,3.12,0,0,1-2.65-1.31,6,6,0,0,1-1-3.61,5.8,5.8,0,0,1,1-3.56,3.14,3.14,0,0,1,2.65-1.29,3,3,0,0,1,1.48.36A2.54,2.54,0,0,1,67.36,133.89Zm-4.49,3.47a5.13,5.13,0,0,0,.56,2.68,1.84,1.84,0,0,0,1.67.9,1.87,1.87,0,0,0,1.68-.91,6.49,6.49,0,0,0,0-5.35,1.87,1.87,0,0,0-1.68-.91,1.84,1.84,0,0,0-1.67.91A5.13,5.13,0,0,0,62.87,137.36Z"/></g><g class="cls-3"><path class="cls-6" d="M125.06,129.16v5.08H123.2v-5.08Zm4.42,0v5.08h-1.86v-5.08Z"/><path class="cls-6" d="M140.67,136.7V142h-1.54v-1.38a3.15,3.15,0,0,1-1.23,1.22,3.81,3.81,0,0,1-1.81.39,3.16,3.16,0,0,1-2.27-.8,3.17,3.17,0,0,1,.19-4.5,4.94,4.94,0,0,1,3.06-.81h2.05v-.24a2.1,2.1,0,0,0-.56-1.61,2.6,2.6,0,0,0-1.78-.5,5.81,5.81,0,0,0-1.58.22,6.86,6.86,0,0,0-1.55.66v-1.53a10.6,10.6,0,0,1,1.62-.49,7.41,7.41,0,0,1,1.51-.16,5.13,5.13,0,0,1,2,.34,3.1,3.1,0,0,1,1.32,1,2.58,2.58,0,0,1,.45,1A9.32,9.32,0,0,1,140.67,136.7Zm-3,.63h-.51a3.54,3.54,0,0,0-2,.47,1.59,1.59,0,0,0-.68,1.4,1.68,1.68,0,0,0,.51,1.3,2,2,0,0,0,1.4.46,2.43,2.43,0,0,0,2-.88,3.73,3.73,0,0,0,.73-2.42v-.34Z"/><path class="cls-6" d="M150.92,141.53a5.33,5.33,0,0,1-1.27.54,5,5,0,0,1-1.33.18,4.4,4.4,0,0,1-3.37-1.29,5.89,5.89,0,0,1,0-7.17,4.4,4.4,0,0,1,3.37-1.29,5,5,0,0,1,1.31.17,5.62,5.62,0,0,1,1.29.54v1.6a4.13,4.13,0,0,0-1.22-.78,3.74,3.74,0,0,0-1.38-.24,2.71,2.71,0,0,0-2.21.93,4.94,4.94,0,0,0,0,5.31,2.7,2.7,0,0,0,2.2.93,3.92,3.92,0,0,0,1.43-.24,3.57,3.57,0,0,0,1.17-.76Z"/><path class="cls-6" d="M161.16,141.53a5.33,5.33,0,0,1-1.27.54,5,5,0,0,1-1.33.18,4.4,4.4,0,0,1-3.37-1.29,5.89,5.89,0,0,1,0-7.17,4.4,4.4,0,0,1,3.37-1.29,5,5,0,0,1,1.31.17,5.62,5.62,0,0,1,1.29.54v1.6a4.13,4.13,0,0,0-1.22-.78,3.74,3.74,0,0,0-1.38-.24,2.71,2.71,0,0,0-2.21.93,4.94,4.94,0,0,0,0,5.31,2.7,2.7,0,0,0,2.2.93,3.92,3.92,0,0,0,1.43-.24,3.57,3.57,0,0,0,1.17-.76Z"/><path class="cls-6" d="M171.88,136.59v.75h-6.62v0a3.68,3.68,0,0,0,.73,2.73,3,3,0,0,0,2.24.83,5.44,5.44,0,0,0,1.53-.23,9.31,9.31,0,0,0,1.7-.71v1.52a10.37,10.37,0,0,1-1.68.54,7.24,7.24,0,0,1-1.56.18,4.42,4.42,0,0,1-3.39-1.3,5,5,0,0,1-1.22-3.58,5.11,5.11,0,0,1,1.2-3.55,4.08,4.08,0,0,1,3.19-1.33,3.48,3.48,0,0,1,2.8,1.2A4.62,4.62,0,0,1,171.88,136.59Zm-1.53-.45a3,3,0,0,0-.7-1.66,2.16,2.16,0,0,0-1.73-.7,2.44,2.44,0,0,0-1.82.73,2.58,2.58,0,0,0-.78,1.64Z"/><path class="cls-6" d="M180.9,133v1.49a5.79,5.79,0,0,0-1.32-.57,4.88,4.88,0,0,0-1.35-.19,2.85,2.85,0,0,0-1.55.34,1.14,1.14,0,0,0-.51,1,1.12,1.12,0,0,0,.38.93,5.23,5.23,0,0,0,1.9.6l.61.12a3,3,0,0,1,1.72.86,2.42,2.42,0,0,1,.58,1.69,2.6,2.6,0,0,1-1,2.15,4.28,4.28,0,0,1-2.72.78,7.66,7.66,0,0,1-1.44-.14,13.23,13.23,0,0,1-1.64-.44v-1.58a8.78,8.78,0,0,0,1.64.66,5.46,5.46,0,0,0,1.48.22,2.6,2.6,0,0,0,1.57-.41,1.35,1.35,0,0,0,.56-1.15q0-1.06-2-1.47l-.07,0-.57-.12a3.66,3.66,0,0,1-1.93-.87,2.26,2.26,0,0,1-.61-1.67,2.49,2.49,0,0,1,.9-2.06,4,4,0,0,1,2.58-.73,7.31,7.31,0,0,1,1.44.14A7.14,7.14,0,0,1,180.9,133Z"/><path class="cls-6" d="M191.13,133v1.49a5.79,5.79,0,0,0-1.32-.57,4.88,4.88,0,0,0-1.35-.19,2.85,2.85,0,0,0-1.55.34,1.14,1.14,0,0,0-.51,1,1.12,1.12,0,0,0,.38.93,5.23,5.23,0,0,0,1.9.6l.61.12a3,3,0,0,1,1.72.86,2.42,2.42,0,0,1,.58,1.69,2.6,2.6,0,0,1-1,2.15,4.28,4.28,0,0,1-2.72.78,7.66,7.66,0,0,1-1.44-.14,13.23,13.23,0,0,1-1.64-.44v-1.58a8.78,8.78,0,0,0,1.64.66,5.46,5.46,0,0,0,1.48.22,2.6,2.6,0,0,0,1.57-.41,1.35,1.35,0,0,0,.56-1.15q0-1.06-2-1.47l-.07,0-.57-.12a3.66,3.66,0,0,1-1.93-.87,2.26,2.26,0,0,1-.61-1.67,2.49,2.49,0,0,1,.9-2.06,4,4,0,0,1,2.58-.73,7.31,7.31,0,0,1,1.44.14A7.14,7.14,0,0,1,191.13,133Z"/><path class="cls-6" d="M203.45,143.58V145H193.29v-1.41Z"/><path class="cls-6" d="M205.48,129.08h1.58v7.48l4-3.86h1.86l-3.66,3.5L213.5,142h-1.87l-3.44-4.8-1.14,1.07V142h-1.58Z"/><path class="cls-6" d="M223.05,136.59v.75h-6.62v0a3.68,3.68,0,0,0,.73,2.73,3,3,0,0,0,2.24.83,5.44,5.44,0,0,0,1.53-.23,9.31,9.31,0,0,0,1.7-.71v1.52a10.37,10.37,0,0,1-1.68.54,7.24,7.24,0,0,1-1.56.18,4.42,4.42,0,0,1-3.39-1.3,5,5,0,0,1-1.22-3.58,5.11,5.11,0,0,1,1.2-3.55,4.08,4.08,0,0,1,3.19-1.33,3.48,3.48,0,0,1,2.8,1.2A4.62,4.62,0,0,1,223.05,136.59Zm-1.53-.45a3,3,0,0,0-.7-1.66,2.16,2.16,0,0,0-1.73-.7,2.44,2.44,0,0,0-1.82.73,2.58,2.58,0,0,0-.78,1.64Z"/><path class="cls-6" d="M231.11,139q-.38,1-1,2.56a24.63,24.63,0,0,1-1.1,2.67,2.6,2.6,0,0,1-1,1,2.68,2.68,0,0,1-1.34.32h-1.23v-1.28h.9a1.4,1.4,0,0,0,1.05-.39,6.69,6.69,0,0,0,1-2l-3.59-9.15h1.62l2.76,7.27,2.71-7.27h1.62Z"/><path class="cls-6" d="M235,133.94h8.77v1.4H235Zm0,3.91h8.77v1.4H235Z"/><path class="cls-6" d="M244.77,129.61h1.78l3,5.47,3-5.47h1.8l-4,6.83V142h-1.69v-5.56Z"/><path class="cls-6" d="M264,135.82a9.06,9.06,0,0,1-1,4.83,3.86,3.86,0,0,1-6.25,0,12,12,0,0,1,0-9.68,3.85,3.85,0,0,1,6.24,0A9.09,9.09,0,0,1,264,135.82Zm-1.75,0a9.78,9.78,0,0,0-.56-3.9,2,2,0,0,0-3.67,0,13.83,13.83,0,0,0,0,7.79,2,2,0,0,0,3.67,0A9.74,9.74,0,0,0,262.21,135.82Z"/><path class="cls-6" d="M266.15,137.24v-7.64h1.69V138a11.48,11.48,0,0,0,0,1.29,1.56,1.56,0,0,0,.17.59,1.73,1.73,0,0,0,.77.74,3.11,3.11,0,0,0,2.44,0,1.78,1.78,0,0,0,.77-.74,1.56,1.56,0,0,0,.17-.59,11.29,11.29,0,0,0,0-1.28v-8.42h1.68v7.64a10.67,10.67,0,0,1-.24,2.7,2.81,2.81,0,0,1-.82,1.32,3.61,3.61,0,0,1-1.25.73,5.32,5.32,0,0,1-3.16,0,3.7,3.7,0,0,1-1.26-.73,2.81,2.81,0,0,1-.81-1.33A10.59,10.59,0,0,1,266.15,137.24Z"/><path class="cls-6" d="M281.48,136.15a2.34,2.34,0,0,1,1.1.63,7.71,7.71,0,0,1,1.14,1.84L285.4,142h-1.8l-1.48-3.13a4.93,4.93,0,0,0-1.15-1.72,2.15,2.15,0,0,0-1.33-.39H278V142h-1.69V129.61h3.45a4.71,4.71,0,0,1,3.13.92,3.3,3.3,0,0,1,1.09,2.67,3,3,0,0,1-.67,2A2.93,2.93,0,0,1,281.48,136.15ZM278,131v4.4h1.83a2.58,2.58,0,0,0,1.79-.54,2.13,2.13,0,0,0,.59-1.65,2.1,2.1,0,0,0-.63-1.64,2.62,2.62,0,0,0-1.82-.57Z"/><path class="cls-6" d="M295.56,143.58V145H285.4v-1.41Z"/><path class="cls-6" d="M299.74,129.61h2L305.56,142h-1.73l-.91-3.23h-4.34l-.9,3.23h-1.73Zm1,1.48L299,137.43h3.54Z"/><path class="cls-6" d="M314.78,141.56a5.65,5.65,0,0,1-2.74.68,4.42,4.42,0,0,1-3.7-1.68,9.16,9.16,0,0,1,0-9.48,4.41,4.41,0,0,1,3.69-1.7,5.64,5.64,0,0,1,2.74.68v1.72a4.65,4.65,0,0,0-1.32-.77,4,4,0,0,0-1.42-.27,2.72,2.72,0,0,0-2.45,1.26,9.31,9.31,0,0,0,0,7.61,2.72,2.72,0,0,0,2.45,1.26,4,4,0,0,0,1.43-.27,4.52,4.52,0,0,0,1.31-.77Z"/><path class="cls-6" d="M325,141.56a5.65,5.65,0,0,1-2.74.68,4.42,4.42,0,0,1-3.7-1.68,9.16,9.16,0,0,1,0-9.48,4.41,4.41,0,0,1,3.69-1.7,5.64,5.64,0,0,1,2.74.68v1.72a4.65,4.65,0,0,0-1.32-.77,4,4,0,0,0-1.42-.27,2.72,2.72,0,0,0-2.45,1.26,9.31,9.31,0,0,0,0,7.61,2.72,2.72,0,0,0,2.45,1.26,4,4,0,0,0,1.43-.27,4.52,4.52,0,0,0,1.31-.77Z"/><path class="cls-6" d="M328,129.61h7.35V131h-5.68v3.34h5.43v1.41h-5.43v4.82h5.84V142H328Z"/><path class="cls-6" d="M345,130v1.7a6.61,6.61,0,0,0-1.53-.74,5,5,0,0,0-1.55-.25,2.92,2.92,0,0,0-1.88.55,1.81,1.81,0,0,0-.69,1.49,1.65,1.65,0,0,0,.45,1.25,3.78,3.78,0,0,0,1.69.72l.88.2a4.86,4.86,0,0,1,2.54,1.28,3.38,3.38,0,0,1,.8,2.37,3.34,3.34,0,0,1-1.1,2.7,4.8,4.8,0,0,1-3.19.93,8.38,8.38,0,0,1-1.75-.19,9.86,9.86,0,0,1-1.77-.56v-1.79a8.27,8.27,0,0,0,1.81.89,5.43,5.43,0,0,0,1.71.28,3.07,3.07,0,0,0,2-.57,2.22,2.22,0,0,0,.22-3,3.42,3.42,0,0,0-1.69-.75l-.9-.21a5,5,0,0,1-2.51-1.18,2.88,2.88,0,0,1-.78-2.12,3.4,3.4,0,0,1,1.12-2.66,4.28,4.28,0,0,1,3-1,7.44,7.44,0,0,1,1.5.16A11.26,11.26,0,0,1,345,130Z"/><path class="cls-6" d="M355.21,130v1.7a6.61,6.61,0,0,0-1.53-.74,5,5,0,0,0-1.55-.25,2.92,2.92,0,0,0-1.88.55,1.81,1.81,0,0,0-.69,1.49A1.65,1.65,0,0,0,350,134a3.78,3.78,0,0,0,1.69.72l.88.2a4.86,4.86,0,0,1,2.54,1.28,3.38,3.38,0,0,1,.8,2.37,3.34,3.34,0,0,1-1.1,2.7,4.8,4.8,0,0,1-3.19.93,8.38,8.38,0,0,1-1.75-.19,9.86,9.86,0,0,1-1.77-.56v-1.79a8.27,8.27,0,0,0,1.81.89,5.43,5.43,0,0,0,1.71.28,3.07,3.07,0,0,0,2-.57,2.22,2.22,0,0,0,.22-3,3.42,3.42,0,0,0-1.69-.75l-.9-.21a5,5,0,0,1-2.51-1.18A2.88,2.88,0,0,1,348,133a3.4,3.4,0,0,1,1.12-2.66,4.28,4.28,0,0,1,3-1,7.44,7.44,0,0,1,1.5.16A11.25,11.25,0,0,1,355.21,130Z"/><path class="cls-6" d="M367.21,143.58V145H357v-1.41Z"/><path class="cls-6" d="M368.42,129.61h1.68v5.51l5.24-5.51h2l-4.82,5.06,5,7.33h-2l-4-6.21-1.28,1.36V142h-1.68Z"/><path class="cls-6" d="M379.15,129.61h7.35V131h-5.68v3.34h5.43v1.41h-5.43v4.82h5.84V142h-7.51Z"/><path class="cls-6" d="M388.06,129.61h1.78l3,5.47,3-5.47h1.8l-4,6.83V142H392v-5.56Z"/><path class="cls-6" d="M401.41,129.16v5.08h-1.86v-5.08Zm4.42,0v5.08H404v-5.08Z"/></g><g class="cls-3"><path class="cls-4" d="M410.65,129.61l6.52,14H415.6l-6.53-14Z"/></g><g class="cls-3"><path class="cls-4" d="M50.85,162h8.8v1.4h-8.8Z"/><path class="cls-4" d="M67.36,159.89v-4.81h1.53V168H67.36v-1.17a2.66,2.66,0,0,1-1,1,2.92,2.92,0,0,1-1.47.36,3.12,3.12,0,0,1-2.65-1.31,6,6,0,0,1-1-3.61,5.8,5.8,0,0,1,1-3.56,3.14,3.14,0,0,1,2.65-1.29,3,3,0,0,1,1.48.36A2.54,2.54,0,0,1,67.36,159.89Zm-4.49,3.47a5.13,5.13,0,0,0,.56,2.68,1.84,1.84,0,0,0,1.67.9,1.87,1.87,0,0,0,1.68-.91,6.49,6.49,0,0,0,0-5.35,1.87,1.87,0,0,0-1.68-.91,1.84,1.84,0,0,0-1.67.91A5.13,5.13,0,0,0,62.87,163.36Z"/></g><g class="cls-3"><path class="cls-6" d="M125.06,155.16v5.08H123.2v-5.08Zm4.42,0v5.08h-1.86v-5.08Z"/><path class="cls-6" d="M140,159v1.49a5.79,5.79,0,0,0-1.32-.57,4.88,4.88,0,0,0-1.35-.19,2.85,2.85,0,0,0-1.55.34,1.14,1.14,0,0,0-.51,1,1.12,1.12,0,0,0,.38.93,5.23,5.23,0,0,0,1.9.6l.61.12a3,3,0,0,1,1.72.86,2.42,2.42,0,0,1,.58,1.69,2.6,2.6,0,0,1-1,2.15,4.28,4.28,0,0,1-2.72.78,7.66,7.66,0,0,1-1.44-.14,13.23,13.23,0,0,1-1.64-.44v-1.58a8.78,8.78,0,0,0,1.64.66,5.46,5.46,0,0,0,1.48.22,2.6,2.6,0,0,0,1.57-.41,1.35,1.35,0,0,0,.56-1.15q0-1.06-2-1.47l-.07,0-.57-.12a3.66,3.66,0,0,1-1.93-.87,2.26,2.26,0,0,1-.61-1.67,2.49,2.49,0,0,1,.9-2.06,4,4,0,0,1,2.58-.73,7.31,7.31,0,0,1,1.44.14A7.14,7.14,0,0,1,140,159Z"/><path class="cls-6" d="M151.41,162.59v.75h-6.62v0a3.68,3.68,0,0,0,.73,2.73,3,3,0,0,0,2.24.83,5.44,5.44,0,0,0,1.53-.23A9.31,9.31,0,0,0,151,166v1.52a10.37,10.37,0,0,1-1.68.54,7.24,7.24,0,0,1-1.56.18,4.42,4.42,0,0,1-3.39-1.3,5,5,0,0,1-1.22-3.58,5.11,5.11,0,0,1,1.2-3.55,4.08,4.08,0,0,1,3.19-1.33,3.48,3.48,0,0,1,2.8,1.2A4.62,4.62,0,0,1,151.41,162.59Zm-1.53-.45a3,3,0,0,0-.7-1.66,2.16,2.16,0,0,0-1.73-.7,2.44,2.44,0,0,0-1.82.73,2.58,2.58,0,0,0-.78,1.64Z"/><path class="cls-6" d="M161.16,167.53a5.33,5.33,0,0,1-1.27.54,5,5,0,0,1-1.33.18,4.4,4.4,0,0,1-3.37-1.29,5.89,5.89,0,0,1,0-7.17,4.4,4.4,0,0,1,3.37-1.29,5,5,0,0,1,1.31.17,5.62,5.62,0,0,1,1.29.54v1.6a4.13,4.13,0,0,0-1.22-.78,3.74,3.74,0,0,0-1.38-.24,2.71,2.71,0,0,0-2.21.93,4.94,4.94,0,0,0,0,5.31,2.7,2.7,0,0,0,2.2.93,3.92,3.92,0,0,0,1.43-.24,3.57,3.57,0,0,0,1.17-.76Z"/><path class="cls-6" d="M172.17,160.62a3.46,3.46,0,0,0-1-.56,3.4,3.4,0,0,0-1.11-.17,2.69,2.69,0,0,0-2.18.9,3.92,3.92,0,0,0-.76,2.59V168h-1.54v-9.3h1.54v1.82A3.1,3.1,0,0,1,168.3,159a3.32,3.32,0,0,1,1.88-.53,3.8,3.8,0,0,1,1.05.14,3.36,3.36,0,0,1,.94.44Z"/><path class="cls-6" d="M182.12,162.59v.75H175.5v0a3.68,3.68,0,0,0,.73,2.73,3,3,0,0,0,2.24.83,5.44,5.44,0,0,0,1.53-.23,9.31,9.31,0,0,0,1.7-.71v1.52a10.37,10.37,0,0,1-1.68.54,7.24,7.24,0,0,1-1.56.18,4.42,4.42,0,0,1-3.39-1.3,5,5,0,0,1-1.22-3.58,5.11,5.11,0,0,1,1.2-3.55,4.08,4.08,0,0,1,3.19-1.33,3.48,3.48,0,0,1,2.8,1.2A4.62,4.62,0,0,1,182.12,162.59Zm-1.53-.45a3,3,0,0,0-.7-1.66,2.16,2.16,0,0,0-1.73-.7,2.44,2.44,0,0,0-1.82.73,2.58,2.58,0,0,0-.78,1.64Z"/><path class="cls-6" d="M188.15,156.06v2.64h3.47v1.19h-3.47v5a2.06,2.06,0,0,0,.39,1.44,1.84,1.84,0,0,0,1.36.41h1.72V168h-1.87a3.42,3.42,0,0,1-2.42-.69,3.24,3.24,0,0,1-.71-2.37v-5h-2.48V158.7h2.48v-2.64Z"/><path class="cls-6" d="M203.45,169.58V171H193.29v-1.41Z"/><path class="cls-6" d="M205.48,155.08h1.58v7.48l4-3.86h1.86l-3.66,3.5L213.5,168h-1.87l-3.44-4.8-1.14,1.07V168h-1.58Z"/><path class="cls-6" d="M223.05,162.59v.75h-6.62v0a3.68,3.68,0,0,0,.73,2.73,3,3,0,0,0,2.24.83,5.44,5.44,0,0,0,1.53-.23,9.31,9.31,0,0,0,1.7-.71v1.52a10.37,10.37,0,0,1-1.68.54,7.24,7.24,0,0,1-1.56.18,4.42,4.42,0,0,1-3.39-1.3,5,5,0,0,1-1.22-3.58,5.11,5.11,0,0,1,1.2-3.55,4.08,4.08,0,0,1,3.19-1.33,3.48,3.48,0,0,1,2.8,1.2A4.62,4.62,0,0,1,223.05,162.59Zm-1.53-.45a3,3,0,0,0-.7-1.66,2.16,2.16,0,0,0-1.73-.7,2.44,2.44,0,0,0-1.82.73,2.58,2.58,0,0,0-.78,1.64Z"/><path class="cls-6" d="M231.11,165q-.38,1-1,2.56a24.63,24.63,0,0,1-1.1,2.67,2.6,2.6,0,0,1-1,1,2.68,2.68,0,0,1-1.34.32h-1.23v-1.28h.9a1.4,1.4,0,0,0,1.05-.39,6.69,6.69,0,0,0,1-2l-3.59-9.15h1.62l2.76,7.27,2.71-7.27h1.62Z"/><path class="cls-6" d="M235,159.94h8.77v1.4H235Zm0,3.91h8.77v1.4H235Z"/><path class="cls-6" d="M244.77,155.61h1.78l3,5.47,3-5.47h1.8l-4,6.83V168h-1.69v-5.56Z"/><path class="cls-6" d="M264,161.82a9.06,9.06,0,0,1-1,4.83,3.86,3.86,0,0,1-6.25,0,12,12,0,0,1,0-9.68,3.85,3.85,0,0,1,6.24,0A9.09,9.09,0,0,1,264,161.82Zm-1.75,0a9.78,9.78,0,0,0-.56-3.9,2,2,0,0,0-3.67,0,13.83,13.83,0,0,0,0,7.79,2,2,0,0,0,3.67,0A9.74,9.74,0,0,0,262.21,161.82Z"/><path class="cls-6" d="M266.15,163.24v-7.64h1.69V164a11.48,11.48,0,0,0,0,1.29,1.56,1.56,0,0,0,.17.59,1.73,1.73,0,0,0,.77.74,3.11,3.11,0,0,0,2.44,0,1.78,1.78,0,0,0,.77-.74,1.56,1.56,0,0,0,.17-.59,11.29,11.29,0,0,0,0-1.28v-8.42h1.68v7.64a10.67,10.67,0,0,1-.24,2.7,2.81,2.81,0,0,1-.82,1.32,3.61,3.61,0,0,1-1.25.73,5.32,5.32,0,0,1-3.16,0,3.7,3.7,0,0,1-1.26-.73,2.81,2.81,0,0,1-.81-1.33A10.59,10.59,0,0,1,266.15,163.24Z"/><path class="cls-6" d="M281.48,162.15a2.34,2.34,0,0,1,1.1.63,7.71,7.71,0,0,1,1.14,1.84L285.4,168h-1.8l-1.48-3.13a4.93,4.93,0,0,0-1.15-1.72,2.15,2.15,0,0,0-1.33-.39H278V168h-1.69V155.61h3.45a4.71,4.71,0,0,1,3.13.92,3.3,3.3,0,0,1,1.09,2.67,3,3,0,0,1-.67,2A2.93,2.93,0,0,1,281.48,162.15ZM278,157v4.4h1.83a2.58,2.58,0,0,0,1.79-.54,2.13,2.13,0,0,0,.59-1.65,2.1,2.1,0,0,0-.63-1.64,2.62,2.62,0,0,0-1.82-.57Z"/><path class="cls-6" d="M295.56,169.58V171H285.4v-1.41Z"/><path class="cls-6" d="M304,156v1.7a6.61,6.61,0,0,0-1.53-.74,5,5,0,0,0-1.55-.25,2.92,2.92,0,0,0-1.88.55,1.81,1.81,0,0,0-.69,1.49,1.65,1.65,0,0,0,.45,1.25,3.78,3.78,0,0,0,1.69.72l.88.2a4.86,4.86,0,0,1,2.54,1.28,3.38,3.38,0,0,1,.8,2.37,3.34,3.34,0,0,1-1.1,2.7,4.8,4.8,0,0,1-3.19.93,8.38,8.38,0,0,1-1.75-.19,9.86,9.86,0,0,1-1.77-.56v-1.79a8.27,8.27,0,0,0,1.81.89,5.43,5.43,0,0,0,1.71.28,3.07,3.07,0,0,0,2-.57,2.22,2.22,0,0,0,.22-3,3.42,3.42,0,0,0-1.69-.75l-.9-.21a5,5,0,0,1-2.51-1.18,2.88,2.88,0,0,1-.78-2.12,3.4,3.4,0,0,1,1.12-2.66,4.28,4.28,0,0,1,3-1,7.44,7.44,0,0,1,1.5.16A11.26,11.26,0,0,1,304,156Z"/><path class="cls-6" d="M307.51,155.61h7.35V157h-5.68v3.34h5.43v1.41h-5.43v4.82H315V168h-7.51Z"/><path class="cls-6" d="M325,167.56a5.65,5.65,0,0,1-2.74.68,4.42,4.42,0,0,1-3.7-1.68,9.16,9.16,0,0,1,0-9.48,4.41,4.41,0,0,1,3.69-1.7,5.64,5.64,0,0,1,2.74.68v1.72a4.65,4.65,0,0,0-1.32-.77,4,4,0,0,0-1.42-.27,2.72,2.72,0,0,0-2.45,1.26,9.31,9.31,0,0,0,0,7.61,2.72,2.72,0,0,0,2.45,1.26,4,4,0,0,0,1.43-.27,4.52,4.52,0,0,0,1.31-.77Z"/><path class="cls-6" d="M332.65,162.15a2.34,2.34,0,0,1,1.1.63,7.71,7.71,0,0,1,1.14,1.84l1.69,3.39h-1.8l-1.48-3.13a4.93,4.93,0,0,0-1.15-1.72,2.15,2.15,0,0,0-1.33-.39h-1.6V168h-1.69V155.61H331a4.71,4.71,0,0,1,3.13.92,3.3,3.3,0,0,1,1.09,2.67,3,3,0,0,1-.67,2A2.93,2.93,0,0,1,332.65,162.15ZM329.21,157v4.4H331a2.58,2.58,0,0,0,1.79-.54,2.13,2.13,0,0,0,.59-1.65,2.1,2.1,0,0,0-.63-1.64A2.62,2.62,0,0,0,331,157Z"/><path class="cls-6" d="M338.21,155.61h7.35V157h-5.68v3.34h5.43v1.41h-5.43v4.82h5.84V168h-7.51Z"/><path class="cls-6" d="M347.2,155.61h9.45V157h-3.88v11h-1.69V157H347.2Z"/><path class="cls-6" d="M367.21,169.58V171H357v-1.41Z"/><path class="cls-6" d="M368.42,155.61h1.68v5.51l5.24-5.51h2l-4.82,5.06,5,7.33h-2l-4-6.21-1.28,1.36V168h-1.68Z"/><path class="cls-6" d="M379.15,155.61h7.35V157h-5.68v3.34h5.43v1.41h-5.43v4.82h5.84V168h-7.51Z"/><path class="cls-6" d="M388.06,155.61h1.78l3,5.47,3-5.47h1.8l-4,6.83V168H392v-5.56Z"/><path class="cls-6" d="M401.41,155.16v5.08h-1.86v-5.08Zm4.42,0v5.08H404v-5.08Z"/></g><g class="cls-3"><path class="cls-4" d="M410.65,155.61l6.52,14H415.6l-6.53-14Z"/></g><g class="cls-3"><path class="cls-4" d="M50.85,188h8.8v1.4h-8.8Z"/><path class="cls-4" d="M67.36,185.89v-4.81h1.53V194H67.36v-1.17a2.66,2.66,0,0,1-1,1,2.92,2.92,0,0,1-1.47.36,3.12,3.12,0,0,1-2.65-1.31,6,6,0,0,1-1-3.61,5.8,5.8,0,0,1,1-3.56,3.14,3.14,0,0,1,2.65-1.29,3,3,0,0,1,1.48.36A2.54,2.54,0,0,1,67.36,185.89Zm-4.49,3.47a5.13,5.13,0,0,0,.56,2.68,1.84,1.84,0,0,0,1.67.9,1.87,1.87,0,0,0,1.68-.91,6.49,6.49,0,0,0,0-5.35,1.87,1.87,0,0,0-1.68-.91,1.84,1.84,0,0,0-1.67.91A5.13,5.13,0,0,0,62.87,189.36Z"/></g><g class="cls-3"><path class="cls-6" d="M125.06,181.16v5.08H123.2v-5.08Zm4.42,0v5.08h-1.86v-5.08Z"/><path class="cls-6" d="M140.67,188.7V194h-1.54v-1.38a3.15,3.15,0,0,1-1.23,1.22,3.81,3.81,0,0,1-1.81.39,3.16,3.16,0,0,1-2.27-.8,3.17,3.17,0,0,1,.19-4.5,4.94,4.94,0,0,1,3.06-.81h2.05v-.24a2.1,2.1,0,0,0-.56-1.61,2.6,2.6,0,0,0-1.78-.5,5.81,5.81,0,0,0-1.58.22,6.86,6.86,0,0,0-1.55.66v-1.53a10.6,10.6,0,0,1,1.62-.49,7.41,7.41,0,0,1,1.51-.16,5.13,5.13,0,0,1,2,.34,3.1,3.1,0,0,1,1.32,1,2.58,2.58,0,0,1,.45,1A9.32,9.32,0,0,1,140.67,188.7Zm-3,.63h-.51a3.54,3.54,0,0,0-2,.47,1.59,1.59,0,0,0-.68,1.4,1.68,1.68,0,0,0,.51,1.3,2,2,0,0,0,1.4.46,2.43,2.43,0,0,0,2-.88,3.73,3.73,0,0,0,.73-2.42v-.34Z"/><path class="cls-6" d="M145.23,192.83v4.71h-1.54V184.7h1.54v1.19a2.65,2.65,0,0,1,1-1.05,2.92,2.92,0,0,1,1.46-.36,3.1,3.1,0,0,1,2.64,1.3,6,6,0,0,1,1,3.61,5.83,5.83,0,0,1-1,3.56,3.11,3.11,0,0,1-2.64,1.29,3,3,0,0,1-1.48-.36A2.55,2.55,0,0,1,145.23,192.83Zm4.48-3.47a5.17,5.17,0,0,0-.56-2.68,1.83,1.83,0,0,0-1.66-.91,1.87,1.87,0,0,0-1.69.91,6.53,6.53,0,0,0,0,5.35,1.86,1.86,0,0,0,1.69.91,1.83,1.83,0,0,0,1.66-.9A5.17,5.17,0,0,0,149.71,189.36Z"/><path class="cls-6" d="M155.46,192.83v4.71h-1.54V184.7h1.54v1.19a2.65,2.65,0,0,1,1-1.05,2.92,2.92,0,0,1,1.46-.36,3.1,3.1,0,0,1,2.64,1.3,6,6,0,0,1,1,3.61,5.83,5.83,0,0,1-1,3.56,3.11,3.11,0,0,1-2.64,1.29,3,3,0,0,1-1.48-.36A2.55,2.55,0,0,1,155.46,192.83Zm4.48-3.47a5.17,5.17,0,0,0-.56-2.68,1.83,1.83,0,0,0-1.66-.91,1.87,1.87,0,0,0-1.69.91,6.53,6.53,0,0,0,0,5.35,1.86,1.86,0,0,0,1.69.91,1.83,1.83,0,0,0,1.66-.9A5.17,5.17,0,0,0,159.94,189.36Z"/><path class="cls-6" d="M172.74,195.58V197H162.58v-1.41Z"/><path class="cls-6" d="M175.44,184.74h3.91v8.08h3V194h-7.59v-1.19h3v-6.89h-2.38Zm2.38-3.61h1.53v1.93h-1.53Z"/><path class="cls-6" d="M190.18,185.89v-4.81h1.53V194h-1.53v-1.17a2.66,2.66,0,0,1-1,1,2.92,2.92,0,0,1-1.47.36,3.12,3.12,0,0,1-2.65-1.31,6,6,0,0,1-1-3.61,5.8,5.8,0,0,1,1-3.56,3.14,3.14,0,0,1,2.65-1.29,3,3,0,0,1,1.48.36A2.54,2.54,0,0,1,190.18,185.89Zm-4.49,3.47a5.13,5.13,0,0,0,.56,2.68,1.84,1.84,0,0,0,1.67.9,1.87,1.87,0,0,0,1.68-.91,6.49,6.49,0,0,0,0-5.35,1.87,1.87,0,0,0-1.68-.91,1.84,1.84,0,0,0-1.67.91A5.13,5.13,0,0,0,185.68,189.36Z"/><path class="cls-6" d="M194,185.94h8.77v1.4H194Zm0,3.91h8.77v1.4H194Z"/><path class="cls-6" d="M212.33,193.53a5.33,5.33,0,0,1-1.27.54,5,5,0,0,1-1.33.18,4.4,4.4,0,0,1-3.37-1.29,5.89,5.89,0,0,1,0-7.17,4.4,4.4,0,0,1,3.37-1.29,5,5,0,0,1,1.31.17,5.62,5.62,0,0,1,1.29.54v1.6a4.13,4.13,0,0,0-1.22-.78,3.74,3.74,0,0,0-1.38-.24,2.71,2.71,0,0,0-2.21.93,4.94,4.94,0,0,0,0,5.31,2.7,2.7,0,0,0,2.2.93,3.92,3.92,0,0,0,1.43-.24,3.57,3.57,0,0,0,1.17-.76Z"/><path class="cls-6" d="M218.87,184.48a3.6,3.6,0,0,1,3,1.25,6.95,6.95,0,0,1,0,7.26,4.13,4.13,0,0,1-5.92,0,7,7,0,0,1,0-7.26A3.59,3.59,0,0,1,218.87,184.48Zm0,1.29a2,2,0,0,0-1.76.91,6.3,6.3,0,0,0,0,5.36,2.17,2.17,0,0,0,3.53,0,6.3,6.3,0,0,0,0-5.36A2,2,0,0,0,218.87,185.77Z"/><path class="cls-6" d="M229.6,185.65a2.09,2.09,0,0,1,.72-.88,1.87,1.87,0,0,1,1.05-.29,1.64,1.64,0,0,1,1.58.87,7.83,7.83,0,0,1,.46,3.27V194H232v-5.32a7.82,7.82,0,0,0-.22-2.45.8.8,0,0,0-.8-.48.92.92,0,0,0-.91.51,7.12,7.12,0,0,0-.24,2.41V194h-1.39v-5.32a7.28,7.28,0,0,0-.24-2.46.87.87,0,0,0-.85-.46.85.85,0,0,0-.84.51,7.36,7.36,0,0,0-.24,2.41V194H224.9v-9.3h1.39v.8a2,2,0,0,1,.68-.76,1.71,1.71,0,0,1,.93-.26,1.8,1.8,0,0,1,1.05.29A1.86,1.86,0,0,1,229.6,185.65Z"/><path class="cls-6" d="M237.46,190.65h2.92V194h-2.92Z"/><path class="cls-6" d="M251.58,191q-.38,1-1,2.56a24.63,24.63,0,0,1-1.1,2.67,2.6,2.6,0,0,1-1,1,2.68,2.68,0,0,1-1.34.32H246v-1.28h.9a1.4,1.4,0,0,0,1.05-.39,6.69,6.69,0,0,0,1-2l-3.59-9.15h1.62L249.7,192l2.71-7.27H254Z"/><path class="cls-6" d="M259.81,184.48a3.6,3.6,0,0,1,3,1.25,6.95,6.95,0,0,1,0,7.26,4.13,4.13,0,0,1-5.92,0,7,7,0,0,1,0-7.26A3.59,3.59,0,0,1,259.81,184.48Zm0,1.29a2,2,0,0,0-1.76.91,6.3,6.3,0,0,0,0,5.36,2.17,2.17,0,0,0,3.53,0,6.3,6.3,0,0,0,0-5.36A2,2,0,0,0,259.81,185.77Z"/><path class="cls-6" d="M266.55,190.48v-5.76h1.53v5.76a3.07,3.07,0,0,0,.44,1.84,1.61,1.61,0,0,0,1.37.59,1.94,1.94,0,0,0,1.65-.76,3.57,3.57,0,0,0,.57-2.18v-5.25h1.54V194h-1.54v-1.39a2.89,2.89,0,0,1-1.11,1.22,3.16,3.16,0,0,1-1.64.41,2.48,2.48,0,0,1-2.12-.93A4.71,4.71,0,0,1,266.55,190.48Z"/><path class="cls-6" d="M284.75,186.62a3.46,3.46,0,0,0-1-.56,3.4,3.4,0,0,0-1.11-.17,2.69,2.69,0,0,0-2.18.9,3.92,3.92,0,0,0-.76,2.59V194h-1.54v-9.3h1.54v1.82a3.1,3.1,0,0,1,1.17-1.52,3.32,3.32,0,0,1,1.88-.53,3.8,3.8,0,0,1,1.05.14,3.36,3.36,0,0,1,.94.44Z"/><path class="cls-6" d="M294.21,193.53a5.33,5.33,0,0,1-1.27.54,5,5,0,0,1-1.33.18,4.4,4.4,0,0,1-3.37-1.29,5.89,5.89,0,0,1,0-7.17,4.4,4.4,0,0,1,3.37-1.29,5,5,0,0,1,1.31.17,5.62,5.62,0,0,1,1.29.54v1.6A4.13,4.13,0,0,0,293,186a3.74,3.74,0,0,0-1.38-.24,2.71,2.71,0,0,0-2.21.93,4.94,4.94,0,0,0,0,5.31,2.7,2.7,0,0,0,2.2.93,3.92,3.92,0,0,0,1.43-.24,3.57,3.57,0,0,0,1.17-.76Z"/><path class="cls-6" d="M300.75,184.48a3.6,3.6,0,0,1,3,1.25,6.95,6.95,0,0,1,0,7.26,4.13,4.13,0,0,1-5.92,0,7,7,0,0,1,0-7.26A3.59,3.59,0,0,1,300.75,184.48Zm0,1.29a2,2,0,0,0-1.76.91,6.3,6.3,0,0,0,0,5.36,2.17,2.17,0,0,0,3.53,0,6.3,6.3,0,0,0,0-5.36A2,2,0,0,0,300.75,185.77Z"/><path class="cls-6" d="M311.48,185.65a2.09,2.09,0,0,1,.72-.88,1.87,1.87,0,0,1,1.05-.29,1.64,1.64,0,0,1,1.58.87,7.83,7.83,0,0,1,.46,3.27V194H313.9v-5.32a7.82,7.82,0,0,0-.22-2.45.8.8,0,0,0-.8-.48.92.92,0,0,0-.91.51,7.12,7.12,0,0,0-.24,2.41V194h-1.39v-5.32a7.28,7.28,0,0,0-.24-2.46.87.87,0,0,0-.85-.46.85.85,0,0,0-.84.51,7.36,7.36,0,0,0-.24,2.41V194h-1.39v-9.3h1.39v.8a2,2,0,0,1,.68-.76,1.71,1.71,0,0,1,.93-.26,1.8,1.8,0,0,1,1.05.29A1.86,1.86,0,0,1,311.48,185.65Z"/><path class="cls-6" d="M319.22,192.83v4.71h-1.54V184.7h1.54v1.19a2.65,2.65,0,0,1,1-1.05,2.92,2.92,0,0,1,1.46-.36,3.1,3.1,0,0,1,2.64,1.3,6,6,0,0,1,1,3.61,5.83,5.83,0,0,1-1,3.56,3.11,3.11,0,0,1-2.64,1.29,3,3,0,0,1-1.48-.36A2.55,2.55,0,0,1,319.22,192.83Zm4.48-3.47a5.17,5.17,0,0,0-.56-2.68,1.83,1.83,0,0,0-1.66-.91,1.87,1.87,0,0,0-1.69.91,6.53,6.53,0,0,0,0,5.35,1.86,1.86,0,0,0,1.69.91,1.83,1.83,0,0,0,1.66-.9A5.17,5.17,0,0,0,323.7,189.36Z"/><path class="cls-6" d="M335.13,188.7V194H333.6v-1.38a3.15,3.15,0,0,1-1.23,1.22,3.81,3.81,0,0,1-1.81.39,3.16,3.16,0,0,1-2.27-.8,3.17,3.17,0,0,1,.19-4.5,4.94,4.94,0,0,1,3.06-.81h2.05v-.24a2.1,2.1,0,0,0-.56-1.61,2.6,2.6,0,0,0-1.78-.5,5.81,5.81,0,0,0-1.58.22,6.86,6.86,0,0,0-1.55.66v-1.53a10.6,10.6,0,0,1,1.62-.49,7.41,7.41,0,0,1,1.51-.16,5.13,5.13,0,0,1,2,.34,3.1,3.1,0,0,1,1.32,1,2.58,2.58,0,0,1,.45,1A9.32,9.32,0,0,1,335.13,188.7Zm-3,.63h-.51a3.54,3.54,0,0,0-2,.47,1.59,1.59,0,0,0-.68,1.4,1.68,1.68,0,0,0,.51,1.3,2,2,0,0,0,1.4.46,2.43,2.43,0,0,0,2-.88,3.73,3.73,0,0,0,.73-2.42v-.34Z"/><path class="cls-6" d="M345.3,188.24V194h-1.54v-5.76a3.09,3.09,0,0,0-.44-1.84,1.61,1.61,0,0,0-1.38-.59,2,2,0,0,0-1.65.76,3.55,3.55,0,0,0-.58,2.18V194h-1.53v-9.3h1.53v1.39a2.88,2.88,0,0,1,1.1-1.21,3.2,3.2,0,0,1,1.65-.41,2.48,2.48,0,0,1,2.12.93A4.69,4.69,0,0,1,345.3,188.24Z"/><path class="cls-6" d="M353.93,191q-.38,1-1,2.56a24.49,24.49,0,0,1-1.1,2.67,2.6,2.6,0,0,1-1,1,2.68,2.68,0,0,1-1.34.32h-1.23v-1.28h.9a1.4,1.4,0,0,0,1.05-.39,6.69,6.69,0,0,0,1-2l-3.59-9.15h1.62L352,192l2.71-7.27h1.62Z"/><path class="cls-6" d="M360.27,190.65h2.92V194h-2.92Z"/><path class="cls-6" d="M376.07,188.7V194h-1.54v-1.38a3.15,3.15,0,0,1-1.23,1.22,3.81,3.81,0,0,1-1.81.39,3.16,3.16,0,0,1-2.27-.8,3.17,3.17,0,0,1,.19-4.5,4.94,4.94,0,0,1,3.06-.81h2v-.24a2.1,2.1,0,0,0-.56-1.61,2.6,2.6,0,0,0-1.78-.5,5.81,5.81,0,0,0-1.58.22,6.84,6.84,0,0,0-1.55.66v-1.53a10.61,10.61,0,0,1,1.62-.49,7.42,7.42,0,0,1,1.51-.16,5.13,5.13,0,0,1,2,.34,3.1,3.1,0,0,1,1.32,1,2.59,2.59,0,0,1,.45,1A9.36,9.36,0,0,1,376.07,188.7Zm-3,.63h-.51a3.54,3.54,0,0,0-2,.47,1.59,1.59,0,0,0-.68,1.4,1.68,1.68,0,0,0,.51,1.3,2,2,0,0,0,1.4.46,2.43,2.43,0,0,0,2-.88,3.73,3.73,0,0,0,.73-2.42v-.34Z"/><path class="cls-6" d="M380.63,192.83v4.71h-1.54V184.7h1.54v1.19a2.66,2.66,0,0,1,1-1.05,2.91,2.91,0,0,1,1.46-.36,3.1,3.1,0,0,1,2.64,1.3,6,6,0,0,1,1,3.61,5.84,5.84,0,0,1-1,3.56,3.12,3.12,0,0,1-2.64,1.29,3,3,0,0,1-1.48-.36A2.55,2.55,0,0,1,380.63,192.83Zm4.48-3.47a5.17,5.17,0,0,0-.56-2.68,1.83,1.83,0,0,0-1.67-.91,1.87,1.87,0,0,0-1.68.91,6.53,6.53,0,0,0,0,5.35,1.86,1.86,0,0,0,1.68.91,1.83,1.83,0,0,0,1.67-.9A5.17,5.17,0,0,0,385.11,189.36Z"/><path class="cls-6" d="M390.86,192.83v4.71h-1.54V184.7h1.54v1.19a2.65,2.65,0,0,1,1-1.05,2.92,2.92,0,0,1,1.46-.36,3.1,3.1,0,0,1,2.64,1.3,6,6,0,0,1,1,3.61,5.83,5.83,0,0,1-1,3.56,3.11,3.11,0,0,1-2.64,1.29,3,3,0,0,1-1.48-.36A2.55,2.55,0,0,1,390.86,192.83Zm4.48-3.47a5.17,5.17,0,0,0-.56-2.68,1.83,1.83,0,0,0-1.66-.91,1.87,1.87,0,0,0-1.69.91,6.54,6.54,0,0,0,0,5.35,1.87,1.87,0,0,0,1.69.91,1.83,1.83,0,0,0,1.66-.9A5.17,5.17,0,0,0,395.35,189.36Z"/><path class="cls-6" d="M406.71,188.24V194h-1.54v-5.76a3.09,3.09,0,0,0-.44-1.84,1.61,1.61,0,0,0-1.38-.59,2,2,0,0,0-1.65.76,3.55,3.55,0,0,0-.58,2.18V194H399.6v-9.3h1.53v1.39a2.88,2.88,0,0,1,1.1-1.21,3.2,3.2,0,0,1,1.65-.41,2.48,2.48,0,0,1,2.12.93A4.69,4.69,0,0,1,406.71,188.24Z"/><path class="cls-6" d="M417,188.7V194h-1.54v-1.38a3.15,3.15,0,0,1-1.23,1.22,3.81,3.81,0,0,1-1.81.39,3.16,3.16,0,0,1-2.27-.8,3.17,3.17,0,0,1,.19-4.5,4.94,4.94,0,0,1,3.06-.81h2v-.24a2.1,2.1,0,0,0-.56-1.61,2.6,2.6,0,0,0-1.78-.5,5.81,5.81,0,0,0-1.58.22,6.84,6.84,0,0,0-1.55.66v-1.53a10.61,10.61,0,0,1,1.62-.49,7.42,7.42,0,0,1,1.51-.16,5.13,5.13,0,0,1,2,.34,3.1,3.1,0,0,1,1.32,1,2.59,2.59,0,0,1,.45,1A9.36,9.36,0,0,1,417,188.7Zm-3,.63h-.51a3.54,3.54,0,0,0-2,.47,1.59,1.59,0,0,0-.68,1.4,1.68,1.68,0,0,0,.51,1.3,2,2,0,0,0,1.4.46,2.43,2.43,0,0,0,2-.88,3.73,3.73,0,0,0,.73-2.42v-.34Z"/><path class="cls-6" d="M424.07,185.65a2.08,2.08,0,0,1,.72-.88,1.87,1.87,0,0,1,1-.29,1.64,1.64,0,0,1,1.58.87,7.83,7.83,0,0,1,.46,3.27V194h-1.39v-5.32a7.85,7.85,0,0,0-.22-2.45.8.8,0,0,0-.8-.48.91.91,0,0,0-.91.51,7.11,7.11,0,0,0-.25,2.41V194h-1.39v-5.32a7.29,7.29,0,0,0-.24-2.46.87.87,0,0,0-.85-.46.85.85,0,0,0-.84.51,7.36,7.36,0,0,0-.24,2.41V194h-1.39v-9.3h1.39v.8a2,2,0,0,1,.68-.76,1.71,1.71,0,0,1,.93-.26,1.81,1.81,0,0,1,1.05.29A1.87,1.87,0,0,1,424.07,185.65Z"/><path class="cls-6" d="M438,188.59v.75h-6.62v0a3.68,3.68,0,0,0,.73,2.73,3,3,0,0,0,2.24.83,5.44,5.44,0,0,0,1.53-.23,9.33,9.33,0,0,0,1.7-.71v1.52a10.37,10.37,0,0,1-1.68.54,7.24,7.24,0,0,1-1.56.18,4.42,4.42,0,0,1-3.39-1.3,5,5,0,0,1-1.22-3.58,5.11,5.11,0,0,1,1.2-3.55,4.08,4.08,0,0,1,3.19-1.33,3.48,3.48,0,0,1,2.8,1.2A4.62,4.62,0,0,1,438,188.59Zm-1.53-.45a3,3,0,0,0-.7-1.66,2.16,2.16,0,0,0-1.73-.7,2.44,2.44,0,0,0-1.82.73,2.58,2.58,0,0,0-.78,1.64Z"/><path class="cls-6" d="M442.34,181.16v5.08h-1.86v-5.08Zm4.42,0v5.08h-1.86v-5.08Z"/></g><g class="cls-3"><path class="cls-4" d="M451.59,181.61l6.52,14h-1.58l-6.53-14Z"/></g><g class="cls-3"><path class="cls-4" d="M50.85,214h8.8v1.4h-8.8Z"/><path class="cls-4" d="M67.36,211.89v-4.81h1.53V220H67.36v-1.17a2.66,2.66,0,0,1-1,1,2.92,2.92,0,0,1-1.47.36,3.12,3.12,0,0,1-2.65-1.31,6,6,0,0,1-1-3.61,5.8,5.8,0,0,1,1-3.56,3.14,3.14,0,0,1,2.65-1.29,3,3,0,0,1,1.48.36A2.54,2.54,0,0,1,67.36,211.89Zm-4.49,3.47a5.13,5.13,0,0,0,.56,2.68,1.84,1.84,0,0,0,1.67.9,1.87,1.87,0,0,0,1.68-.91,6.49,6.49,0,0,0,0-5.35,1.87,1.87,0,0,0-1.68-.91,1.84,1.84,0,0,0-1.67.91A5.13,5.13,0,0,0,62.87,215.36Z"/><path class="cls-4" d="M84.12,207.16v5.08H82.27v-5.08Zm4.42,0v5.08H86.69v-5.08Z"/><path class="cls-4" d="M98.06,211.89v-4.81h1.53V220H98.06v-1.17a2.66,2.66,0,0,1-1,1,2.92,2.92,0,0,1-1.47.36,3.12,3.12,0,0,1-2.65-1.31,6,6,0,0,1-1-3.61,5.8,5.8,0,0,1,1-3.56,3.14,3.14,0,0,1,2.65-1.29,3,3,0,0,1,1.48.36A2.54,2.54,0,0,1,98.06,211.89Zm-4.49,3.47a5.13,5.13,0,0,0,.56,2.68,1.84,1.84,0,0,0,1.67.9,1.87,1.87,0,0,0,1.68-.91,6.49,6.49,0,0,0,0-5.35,1.87,1.87,0,0,0-1.68-.91,1.84,1.84,0,0,0-1.67.91A5.13,5.13,0,0,0,93.57,215.36Z"/><path class="cls-4" d="M110.47,214.59v.75h-6.62v0a3.68,3.68,0,0,0,.73,2.73,3,3,0,0,0,2.24.83,5.44,5.44,0,0,0,1.53-.23A9.31,9.31,0,0,0,110,218v1.52a10.37,10.37,0,0,1-1.68.54,7.24,7.24,0,0,1-1.56.18,4.42,4.42,0,0,1-3.39-1.3,5,5,0,0,1-1.22-3.58,5.11,5.11,0,0,1,1.2-3.55,4.08,4.08,0,0,1,3.19-1.33,3.48,3.48,0,0,1,2.8,1.2A4.62,4.62,0,0,1,110.47,214.59Zm-1.53-.45a3,3,0,0,0-.7-1.66,2.16,2.16,0,0,0-1.73-.7,2.44,2.44,0,0,0-1.82.73,2.58,2.58,0,0,0-.78,1.64Z"/><path class="cls-4" d="M112.24,210.7h1.59l2.7,7.8,2.71-7.8h1.59l-3.3,9.3h-2Z"/><path class="cls-4" d="M124.27,210.74h3.91v8.08h3V220h-7.59v-1.19h3v-6.89h-2.38Zm2.38-3.61h1.53v1.93h-1.53Z"/><path class="cls-4" d="M140.69,219.53a5.33,5.33,0,0,1-1.27.54,5,5,0,0,1-1.33.18,4.4,4.4,0,0,1-3.37-1.29,5.89,5.89,0,0,1,0-7.17,4.4,4.4,0,0,1,3.37-1.29,5,5,0,0,1,1.31.17,5.62,5.62,0,0,1,1.29.54v1.6a4.13,4.13,0,0,0-1.22-.78,3.74,3.74,0,0,0-1.38-.24,2.71,2.71,0,0,0-2.21.93,4.94,4.94,0,0,0,0,5.31,2.7,2.7,0,0,0,2.2.93,3.92,3.92,0,0,0,1.43-.24,3.57,3.57,0,0,0,1.17-.76Z"/><path class="cls-4" d="M151.41,214.59v.75h-6.62v0a3.68,3.68,0,0,0,.73,2.73,3,3,0,0,0,2.24.83,5.44,5.44,0,0,0,1.53-.23A9.31,9.31,0,0,0,151,218v1.52a10.37,10.37,0,0,1-1.68.54,7.24,7.24,0,0,1-1.56.18,4.42,4.42,0,0,1-3.39-1.3,5,5,0,0,1-1.22-3.58,5.11,5.11,0,0,1,1.2-3.55,4.08,4.08,0,0,1,3.19-1.33,3.48,3.48,0,0,1,2.8,1.2A4.62,4.62,0,0,1,151.41,214.59Zm-1.53-.45a3,3,0,0,0-.7-1.66,2.16,2.16,0,0,0-1.73-.7,2.44,2.44,0,0,0-1.82.73,2.58,2.58,0,0,0-.78,1.64Z"/><path class="cls-4" d="M162.51,221.58V223H152.35v-1.41Z"/><path class="cls-4" d="M165.21,210.74h3.91v8.08h3V220h-7.59v-1.19h3v-6.89h-2.38Zm2.38-3.61h1.53v1.93h-1.53Z"/><path class="cls-4" d="M179.94,211.89v-4.81h1.53V220h-1.53v-1.17a2.66,2.66,0,0,1-1,1,2.92,2.92,0,0,1-1.47.36,3.12,3.12,0,0,1-2.65-1.31,6,6,0,0,1-1-3.61,5.8,5.8,0,0,1,1-3.56,3.14,3.14,0,0,1,2.65-1.29,3,3,0,0,1,1.48.36A2.54,2.54,0,0,1,179.94,211.89Zm-4.49,3.47A5.13,5.13,0,0,0,176,218a1.84,1.84,0,0,0,1.67.9,1.87,1.87,0,0,0,1.68-.91,6.49,6.49,0,0,0,0-5.35,1.87,1.87,0,0,0-1.68-.91,1.84,1.84,0,0,0-1.67.91A5.13,5.13,0,0,0,175.45,215.36Z"/><path class="cls-4" d="M183.78,211.94h8.77v1.4h-8.77Zm0,3.91h8.77v1.4h-8.77Z"/><path class="cls-4" d="M193.6,207.61h1.78l3,5.47,3-5.47h1.8l-4,6.83V220h-1.69v-5.56Z"/><path class="cls-4" d="M212.79,213.82a9.06,9.06,0,0,1-1,4.83,3.86,3.86,0,0,1-6.25,0,12,12,0,0,1,0-9.68,3.85,3.85,0,0,1,6.24,0A9.09,9.09,0,0,1,212.79,213.82Zm-1.75,0a9.78,9.78,0,0,0-.56-3.9,2,2,0,0,0-3.67,0,13.83,13.83,0,0,0,0,7.79,2,2,0,0,0,3.67,0A9.74,9.74,0,0,0,211,213.82Z"/><path class="cls-4" d="M215,215.24v-7.64h1.69V216a11.48,11.48,0,0,0,0,1.29,1.56,1.56,0,0,0,.17.59,1.73,1.73,0,0,0,.77.74,3.11,3.11,0,0,0,2.44,0,1.78,1.78,0,0,0,.77-.74,1.56,1.56,0,0,0,.17-.59,11.29,11.29,0,0,0,0-1.28v-8.42h1.68v7.64a10.67,10.67,0,0,1-.24,2.7,2.81,2.81,0,0,1-.82,1.32,3.61,3.61,0,0,1-1.25.73,5.32,5.32,0,0,1-3.16,0,3.7,3.7,0,0,1-1.26-.73,2.81,2.81,0,0,1-.81-1.33A10.59,10.59,0,0,1,215,215.24Z"/><path class="cls-4" d="M230.3,214.15a2.34,2.34,0,0,1,1.1.63,7.71,7.71,0,0,1,1.14,1.84l1.69,3.39h-1.8l-1.48-3.13a4.93,4.93,0,0,0-1.15-1.72,2.15,2.15,0,0,0-1.33-.39h-1.6V220h-1.69V207.61h3.45a4.71,4.71,0,0,1,3.13.92,3.3,3.3,0,0,1,1.09,2.67,3,3,0,0,1-.67,2A2.93,2.93,0,0,1,230.3,214.15ZM226.86,209v4.4h1.83a2.58,2.58,0,0,0,1.79-.54,2.13,2.13,0,0,0,.59-1.65,2.1,2.1,0,0,0-.63-1.64,2.62,2.62,0,0,0-1.82-.57Z"/><path class="cls-4" d="M244.39,221.58V223H234.23v-1.41Z"/><path class="cls-4" d="M248.11,207.61a5.32,5.32,0,0,1,4.18,1.51,8.84,8.84,0,0,1,0,9.38,5.33,5.33,0,0,1-4.18,1.51H245.6V207.61Zm0,11a3.61,3.61,0,0,0,3-1,6.21,6.21,0,0,0,.84-3.76A6.29,6.29,0,0,0,251,210a3.6,3.6,0,0,0-3-1h-.8v9.64Z"/><path class="cls-4" d="M256.33,207.61h7.35V209H258v3.34h5.43v1.41H258v4.82h5.84V220h-7.51Z"/><path class="cls-4" d="M270,218.59l2.91-11h1.73L271.07,220h-2l-3.63-12.39h1.73Z"/><path class="cls-4" d="M276.84,207.61h6.88V209h-2.6v9.57h2.6V220h-6.88v-1.41h2.6V209h-2.6Z"/><path class="cls-4" d="M294.31,219.56a5.65,5.65,0,0,1-2.74.68,4.42,4.42,0,0,1-3.7-1.68,9.16,9.16,0,0,1,0-9.48,4.41,4.41,0,0,1,3.69-1.7,5.64,5.64,0,0,1,2.74.68v1.72A4.65,4.65,0,0,0,293,209a4,4,0,0,0-1.42-.27,2.72,2.72,0,0,0-2.45,1.26,9.31,9.31,0,0,0,0,7.61,2.72,2.72,0,0,0,2.45,1.26,4,4,0,0,0,1.43-.27,4.52,4.52,0,0,0,1.31-.77Z"/><path class="cls-4" d="M297.27,207.61h7.35V209h-5.68v3.34h5.43v1.41h-5.43v4.82h5.84V220h-7.51Z"/><path class="cls-4" d="M316,221.58V223H305.87v-1.41Z"/><path class="cls-4" d="M317.77,207.61h6.88V209h-2.6v9.57h2.6V220h-6.88v-1.41h2.6V209h-2.6Z"/><path class="cls-4" d="M330,207.61a5.32,5.32,0,0,1,4.18,1.51,8.84,8.84,0,0,1,0,9.38A5.33,5.33,0,0,1,330,220h-2.52V207.61Zm0,11a3.61,3.61,0,0,0,3-1,6.21,6.21,0,0,0,.84-3.76,6.29,6.29,0,0,0-.83-3.79,3.6,3.6,0,0,0-3-1h-.8v9.64Z"/><path class="cls-4" d="M340,207.16v5.08h-1.86v-5.08Zm4.42,0v5.08h-1.86v-5.08Z"/><path class="cls-4" d="M359.48,207.61l6.52,14h-1.58l-6.53-14Z"/></g><g class="cls-3"><path class="cls-5" d="M58.72,240.24V246H57.19v-5.76a3.09,3.09,0,0,0-.44-1.84,1.61,1.61,0,0,0-1.38-.59,2,2,0,0,0-1.65.76,3.55,3.55,0,0,0-.58,2.18V246H51.62V233.08h1.53v5a2.88,2.88,0,0,1,1.1-1.21,3.2,3.2,0,0,1,1.65-.41,2.48,2.48,0,0,1,2.12.93A4.69,4.69,0,0,1,58.72,240.24Z"/><path class="cls-5" d="M65.33,234.06v2.64H68.8v1.19H65.33v5a2.06,2.06,0,0,0,.39,1.44,1.84,1.84,0,0,0,1.36.41H68.8V246H66.93a3.42,3.42,0,0,1-2.42-.69,3.24,3.24,0,0,1-.71-2.37v-5H61.32V236.7H63.8v-2.64Z"/><path class="cls-5" d="M75.57,234.06v2.64H79v1.19H75.57v5a2.06,2.06,0,0,0,.39,1.44,1.84,1.84,0,0,0,1.36.41H79V246H77.17a3.42,3.42,0,0,1-2.42-.69,3.24,3.24,0,0,1-.71-2.37v-5H71.56V236.7H74v-2.64Z"/><path class="cls-5" d="M83.82,244.83v4.71H82.28V236.7h1.54v1.19a2.65,2.65,0,0,1,1-1.05,2.92,2.92,0,0,1,1.46-.36,3.1,3.1,0,0,1,2.64,1.3,6,6,0,0,1,1,3.61,5.83,5.83,0,0,1-1,3.56,3.11,3.11,0,0,1-2.64,1.29,3,3,0,0,1-1.48-.36A2.55,2.55,0,0,1,83.82,244.83Zm4.48-3.47a5.17,5.17,0,0,0-.56-2.68,1.83,1.83,0,0,0-1.66-.91,1.87,1.87,0,0,0-1.69.91,6.53,6.53,0,0,0,0,5.35,1.86,1.86,0,0,0,1.69.91,1.83,1.83,0,0,0,1.66-.9A5.17,5.17,0,0,0,88.3,241.36Z"/><path class="cls-5" d="M99,237v1.49a5.79,5.79,0,0,0-1.32-.57,4.88,4.88,0,0,0-1.35-.19,2.85,2.85,0,0,0-1.55.34,1.14,1.14,0,0,0-.51,1,1.12,1.12,0,0,0,.38.93,5.23,5.23,0,0,0,1.9.6l.61.12a3,3,0,0,1,1.72.86,2.42,2.42,0,0,1,.58,1.69,2.6,2.6,0,0,1-1,2.15,4.28,4.28,0,0,1-2.72.78,7.66,7.66,0,0,1-1.44-.14,13.23,13.23,0,0,1-1.64-.44v-1.58a8.78,8.78,0,0,0,1.64.66,5.46,5.46,0,0,0,1.48.22,2.6,2.6,0,0,0,1.57-.41,1.35,1.35,0,0,0,.56-1.15q0-1.06-2-1.47l-.07,0-.57-.12a3.66,3.66,0,0,1-1.93-.87,2.26,2.26,0,0,1-.61-1.67,2.49,2.49,0,0,1,.9-2.06,4,4,0,0,1,2.58-.73,7.31,7.31,0,0,1,1.44.14A7.14,7.14,0,0,1,99,237Z"/><path class="cls-5" d="M104.74,236.71h2.59v3h-2.59Zm0,6.27h2.59v3h-2.59Z"/><path class="cls-5" d="M118.79,233.61h1.58l-6.52,14h-1.59Z"/><path class="cls-5" d="M129,233.61h1.58l-6.52,14h-1.59Z"/><path class="cls-5" d="M141.47,238.62a3.46,3.46,0,0,0-1-.56,3.4,3.4,0,0,0-1.11-.17,2.69,2.69,0,0,0-2.18.9,3.92,3.92,0,0,0-.76,2.59V246h-1.54v-9.3h1.54v1.82a3.1,3.1,0,0,1,1.17-1.52,3.32,3.32,0,0,1,1.88-.53,3.8,3.8,0,0,1,1.05.14,3.36,3.36,0,0,1,.94.44Z"/><path class="cls-5" d="M151.41,240.59v.75h-6.62v0a3.68,3.68,0,0,0,.73,2.73,3,3,0,0,0,2.24.83,5.44,5.44,0,0,0,1.53-.23A9.31,9.31,0,0,0,151,244v1.52a10.37,10.37,0,0,1-1.68.54,7.24,7.24,0,0,1-1.56.18,4.42,4.42,0,0,1-3.39-1.3,5,5,0,0,1-1.22-3.58,5.11,5.11,0,0,1,1.2-3.55,4.08,4.08,0,0,1,3.19-1.33,3.48,3.48,0,0,1,2.8,1.2A4.62,4.62,0,0,1,151.41,240.59Zm-1.53-.45a3,3,0,0,0-.7-1.66,2.16,2.16,0,0,0-1.73-.7,2.44,2.44,0,0,0-1.82.73,2.58,2.58,0,0,0-.78,1.64Z"/><path class="cls-5" d="M160.43,237v1.49a5.79,5.79,0,0,0-1.32-.57,4.88,4.88,0,0,0-1.35-.19,2.85,2.85,0,0,0-1.55.34,1.14,1.14,0,0,0-.51,1,1.12,1.12,0,0,0,.38.93,5.23,5.23,0,0,0,1.9.6l.61.12a3,3,0,0,1,1.72.86,2.42,2.42,0,0,1,.58,1.69,2.6,2.6,0,0,1-1,2.15,4.28,4.28,0,0,1-2.72.78,7.66,7.66,0,0,1-1.44-.14,13.23,13.23,0,0,1-1.64-.44v-1.58a8.78,8.78,0,0,0,1.64.66,5.46,5.46,0,0,0,1.48.22,2.6,2.6,0,0,0,1.57-.41,1.35,1.35,0,0,0,.56-1.15q0-1.06-2-1.47l-.07,0-.57-.12a3.66,3.66,0,0,1-1.93-.87,2.26,2.26,0,0,1-.61-1.67,2.49,2.49,0,0,1,.9-2.06,4,4,0,0,1,2.58-.73,7.31,7.31,0,0,1,1.44.14A7.14,7.14,0,0,1,160.43,237Z"/><path class="cls-5" d="M167.68,234.06v2.64h3.47v1.19h-3.47v5a2.06,2.06,0,0,0,.39,1.44,1.84,1.84,0,0,0,1.36.41h1.72V246h-1.87a3.42,3.42,0,0,1-2.42-.69,3.24,3.24,0,0,1-.71-2.37v-5h-2.48V236.7h2.48v-2.64Z"/><path class="cls-5" d="M176,242.65H179V246H176Z"/><path class="cls-5" d="M191.86,245.53a5.33,5.33,0,0,1-1.27.54,5,5,0,0,1-1.33.18,4.4,4.4,0,0,1-3.37-1.29,5.89,5.89,0,0,1,0-7.17,4.4,4.4,0,0,1,3.37-1.29,5,5,0,0,1,1.31.17,5.62,5.62,0,0,1,1.29.54v1.6a4.13,4.13,0,0,0-1.22-.78,3.74,3.74,0,0,0-1.38-.24,2.71,2.71,0,0,0-2.21.93,4.94,4.94,0,0,0,0,5.31,2.7,2.7,0,0,0,2.2.93,3.92,3.92,0,0,0,1.43-.24,3.57,3.57,0,0,0,1.17-.76Z"/><path class="cls-5" d="M202.88,238.62a3.46,3.46,0,0,0-1-.56,3.4,3.4,0,0,0-1.11-.17,2.69,2.69,0,0,0-2.18.9,3.92,3.92,0,0,0-.76,2.59V246h-1.54v-9.3h1.54v1.82A3.1,3.1,0,0,1,199,237a3.32,3.32,0,0,1,1.88-.53,3.8,3.8,0,0,1,1.05.14,3.36,3.36,0,0,1,.94.44Z"/><path class="cls-5" d="M206.15,236.74h3.91v8.08h3V246H205.5v-1.19h3v-6.89h-2.38Zm2.38-3.61h1.53v1.93h-1.53Z"/><path class="cls-5" d="M222.56,245.53a5.33,5.33,0,0,1-1.27.54,5,5,0,0,1-1.33.18,4.4,4.4,0,0,1-3.37-1.29,5.89,5.89,0,0,1,0-7.17,4.4,4.4,0,0,1,3.37-1.29,5,5,0,0,1,1.31.17,5.62,5.62,0,0,1,1.29.54v1.6a4.13,4.13,0,0,0-1.22-.78,3.74,3.74,0,0,0-1.38-.24,2.71,2.71,0,0,0-2.21.93,4.94,4.94,0,0,0,0,5.31,2.7,2.7,0,0,0,2.2.93,3.92,3.92,0,0,0,1.43-.24,3.57,3.57,0,0,0,1.17-.76Z"/><path class="cls-5" d="M226,233.08h1.58v7.48l4-3.86h1.86l-3.66,3.5L234,246H232.1l-3.44-4.8-1.14,1.07V246H226Z"/><path class="cls-5" d="M243.52,240.59v.75h-6.62v0a3.68,3.68,0,0,0,.73,2.73,3,3,0,0,0,2.24.83,5.44,5.44,0,0,0,1.53-.23,9.31,9.31,0,0,0,1.7-.71v1.52a10.37,10.37,0,0,1-1.68.54,7.24,7.24,0,0,1-1.56.18,4.42,4.42,0,0,1-3.39-1.3,5,5,0,0,1-1.22-3.58,5.11,5.11,0,0,1,1.2-3.55,4.08,4.08,0,0,1,3.19-1.33,3.48,3.48,0,0,1,2.8,1.2A4.62,4.62,0,0,1,243.52,240.59Zm-1.53-.45a3,3,0,0,0-.7-1.66,2.16,2.16,0,0,0-1.73-.7,2.44,2.44,0,0,0-1.82.73,2.58,2.58,0,0,0-.78,1.64Z"/><path class="cls-5" d="M249.56,234.06v2.64H253v1.19h-3.47v5a2.06,2.06,0,0,0,.39,1.44,1.84,1.84,0,0,0,1.36.41H253V246h-1.87a3.42,3.42,0,0,1-2.42-.69,3.24,3.24,0,0,1-.71-2.37v-5h-2.48V236.7H248v-2.64Z"/><path class="cls-5" d="M263.49,240.7V246H262v-1.38a3.15,3.15,0,0,1-1.23,1.22,3.81,3.81,0,0,1-1.81.39,3.16,3.16,0,0,1-2.27-.8,3.17,3.17,0,0,1,.19-4.5,4.94,4.94,0,0,1,3.06-.81H262v-.24a2.1,2.1,0,0,0-.56-1.61,2.6,2.6,0,0,0-1.78-.5A5.81,5.81,0,0,0,258,238a6.86,6.86,0,0,0-1.55.66v-1.53a10.6,10.6,0,0,1,1.62-.49,7.41,7.41,0,0,1,1.51-.16,5.13,5.13,0,0,1,2,.34,3.1,3.1,0,0,1,1.32,1,2.58,2.58,0,0,1,.45,1A9.32,9.32,0,0,1,263.49,240.7Zm-3,.63H260a3.54,3.54,0,0,0-2,.47,1.59,1.59,0,0,0-.68,1.4,1.68,1.68,0,0,0,.51,1.3,2,2,0,0,0,1.4.46,2.43,2.43,0,0,0,2-.88,3.73,3.73,0,0,0,.73-2.42v-.34Z"/><path class="cls-5" d="M268,244.83v4.71h-1.54V236.7H268v1.19a2.65,2.65,0,0,1,1-1.05,2.92,2.92,0,0,1,1.46-.36,3.1,3.1,0,0,1,2.64,1.3,6,6,0,0,1,1,3.61,5.83,5.83,0,0,1-1,3.56,3.11,3.11,0,0,1-2.64,1.29,3,3,0,0,1-1.48-.36A2.55,2.55,0,0,1,268,244.83Zm4.48-3.47a5.17,5.17,0,0,0-.56-2.68,1.83,1.83,0,0,0-1.66-.91,1.87,1.87,0,0,0-1.69.91,6.53,6.53,0,0,0,0,5.35,1.86,1.86,0,0,0,1.69.91A1.83,1.83,0,0,0,272,244,5.17,5.17,0,0,0,272.53,241.36Z"/><path class="cls-5" d="M277.79,236.74h3.91v8.08h3V246h-7.59v-1.19h3v-6.89h-2.38Zm2.38-3.61h1.53v1.93h-1.53Z"/><path class="cls-5" d="M288.63,242.65h2.92V246h-2.92Z"/><path class="cls-5" d="M304.44,245.53a5.33,5.33,0,0,1-1.27.54,5,5,0,0,1-1.33.18,4.4,4.4,0,0,1-3.37-1.29,5.89,5.89,0,0,1,0-7.17,4.4,4.4,0,0,1,3.37-1.29,5,5,0,0,1,1.31.17,5.62,5.62,0,0,1,1.29.54v1.6a4.13,4.13,0,0,0-1.22-.78,3.74,3.74,0,0,0-1.38-.24,2.71,2.71,0,0,0-2.21.93,4.94,4.94,0,0,0,0,5.31,2.7,2.7,0,0,0,2.2.93,3.92,3.92,0,0,0,1.43-.24,3.57,3.57,0,0,0,1.17-.76Z"/><path class="cls-5" d="M311,236.48a3.6,3.6,0,0,1,3,1.25,6.95,6.95,0,0,1,0,7.26,4.13,4.13,0,0,1-5.92,0,7,7,0,0,1,0-7.26A3.59,3.59,0,0,1,311,236.48Zm0,1.29a2,2,0,0,0-1.76.91,6.3,6.3,0,0,0,0,5.36,2.17,2.17,0,0,0,3.53,0,6.3,6.3,0,0,0,0-5.36A2,2,0,0,0,311,237.77Z"/><path class="cls-5" d="M321.72,237.65a2.09,2.09,0,0,1,.72-.88,1.87,1.87,0,0,1,1.05-.29,1.64,1.64,0,0,1,1.58.87,7.83,7.83,0,0,1,.46,3.27V246h-1.39v-5.32a7.82,7.82,0,0,0-.22-2.45.8.8,0,0,0-.8-.48.92.92,0,0,0-.91.51,7.12,7.12,0,0,0-.24,2.41V246h-1.39v-5.32a7.28,7.28,0,0,0-.24-2.46.87.87,0,0,0-.85-.46.85.85,0,0,0-.84.51,7.36,7.36,0,0,0-.24,2.41V246H317v-9.3h1.39v.8a2,2,0,0,1,.68-.76,1.71,1.71,0,0,1,.93-.26,1.8,1.8,0,0,1,1.05.29A1.86,1.86,0,0,1,321.72,237.65Z"/><path class="cls-5" d="M333.72,233.61h1.58l-6.52,14h-1.59Z"/><path class="cls-5" d="M346.16,238.62a3.46,3.46,0,0,0-1-.56,3.4,3.4,0,0,0-1.11-.17,2.69,2.69,0,0,0-2.18.9,3.92,3.92,0,0,0-.76,2.59V246h-1.54v-9.3h1.54v1.82a3.1,3.1,0,0,1,1.17-1.52,3.32,3.32,0,0,1,1.88-.53,3.8,3.8,0,0,1,1.05.14,3.36,3.36,0,0,1,.94.44Z"/><path class="cls-5" d="M356.11,240.59v.75h-6.62v0a3.68,3.68,0,0,0,.73,2.73,3,3,0,0,0,2.24.83,5.44,5.44,0,0,0,1.53-.23,9.3,9.3,0,0,0,1.7-.71v1.52a10.39,10.39,0,0,1-1.68.54,7.25,7.25,0,0,1-1.56.18,4.42,4.42,0,0,1-3.39-1.3,5,5,0,0,1-1.22-3.58,5.11,5.11,0,0,1,1.2-3.55,4.08,4.08,0,0,1,3.19-1.33,3.48,3.48,0,0,1,2.8,1.2A4.62,4.62,0,0,1,356.11,240.59Zm-1.53-.45a3,3,0,0,0-.7-1.66,2.15,2.15,0,0,0-1.73-.7,2.44,2.44,0,0,0-1.82.73,2.58,2.58,0,0,0-.78,1.64Z"/><path class="cls-5" d="M365.12,237v1.49a5.79,5.79,0,0,0-1.32-.57,4.89,4.89,0,0,0-1.35-.19,2.85,2.85,0,0,0-1.55.34,1.14,1.14,0,0,0-.51,1,1.12,1.12,0,0,0,.38.93,5.22,5.22,0,0,0,1.9.6l.61.12a3,3,0,0,1,1.72.86,2.42,2.42,0,0,1,.58,1.69,2.59,2.59,0,0,1-1,2.15,4.28,4.28,0,0,1-2.72.78,7.66,7.66,0,0,1-1.44-.14,13.18,13.18,0,0,1-1.63-.44v-1.58a8.78,8.78,0,0,0,1.63.66,5.46,5.46,0,0,0,1.48.22,2.61,2.61,0,0,0,1.57-.41,1.35,1.35,0,0,0,.56-1.15q0-1.06-2-1.47l-.07,0-.57-.12a3.66,3.66,0,0,1-1.93-.87,2.26,2.26,0,0,1-.61-1.67,2.49,2.49,0,0,1,.9-2.06,4,4,0,0,1,2.58-.73,7.31,7.31,0,0,1,1.44.14A7.17,7.17,0,0,1,365.12,237Z"/><path class="cls-5" d="M372.38,234.06v2.64h3.47v1.19h-3.47v5a2.07,2.07,0,0,0,.39,1.44,1.84,1.84,0,0,0,1.36.41h1.72V246H374a3.42,3.42,0,0,1-2.42-.69,3.25,3.25,0,0,1-.71-2.37v-5h-2.48V236.7h2.48v-2.64Z"/><path class="cls-5" d="M384.89,233.61h1.58l-6.53,14h-1.58Z"/><path class="cls-5" d="M388.58,236.7h1.59l2.7,7.8,2.71-7.8h1.58l-3.3,9.3h-2Z"/><path class="cls-5" d="M401.08,244.59h5.69V246h-7.53v-1.41Q400.8,243,402,241.7t1.6-1.77a8.43,8.43,0,0,0,1.12-1.64A3,3,0,0,0,405,237a2.16,2.16,0,0,0-.61-1.63,2.31,2.31,0,0,0-1.67-.59,5,5,0,0,0-1.58.27,8.82,8.82,0,0,0-1.76.83v-1.69a9,9,0,0,1,1.68-.62,6.71,6.71,0,0,1,1.63-.21,4.29,4.29,0,0,1,2.93,1,3.21,3.21,0,0,1,1.11,2.54,3.75,3.75,0,0,1-.37,1.59,7.84,7.84,0,0,1-1.2,1.76q-.46.54-1.35,1.49T401.08,244.59Z"/><path class="cls-5" d="M415.6,233.61h1.58l-6.52,14h-1.59Z"/><path class="cls-5" d="M427.25,240.7V246h-1.54v-1.38a3.15,3.15,0,0,1-1.23,1.22,3.81,3.81,0,0,1-1.81.39,3.16,3.16,0,0,1-2.27-.8,3.16,3.16,0,0,1,.19-4.5,4.93,4.93,0,0,1,3.06-.81h2v-.24a2.1,2.1,0,0,0-.56-1.61,2.6,2.6,0,0,0-1.78-.5,5.81,5.81,0,0,0-1.58.22,6.84,6.84,0,0,0-1.55.66v-1.53a10.61,10.61,0,0,1,1.62-.49,7.42,7.42,0,0,1,1.51-.16,5.13,5.13,0,0,1,2,.34,3.09,3.09,0,0,1,1.32,1,2.58,2.58,0,0,1,.45,1A9.36,9.36,0,0,1,427.25,240.7Zm-3,.63h-.51a3.54,3.54,0,0,0-2,.47,1.59,1.59,0,0,0-.68,1.4,1.69,1.69,0,0,0,.51,1.3,2,2,0,0,0,1.4.46,2.43,2.43,0,0,0,2-.88,3.73,3.73,0,0,0,.73-2.42v-.34Z"/><path class="cls-5" d="M430.31,242.48v-5.76h1.53v5.76a3.08,3.08,0,0,0,.44,1.84,1.61,1.61,0,0,0,1.38.59,1.94,1.94,0,0,0,1.65-.76,3.57,3.57,0,0,0,.57-2.18v-5.25h1.54V246h-1.54v-1.39a2.89,2.89,0,0,1-1.11,1.22,3.16,3.16,0,0,1-1.64.41,2.48,2.48,0,0,1-2.12-.93A4.71,4.71,0,0,1,430.31,242.48Z"/><path class="cls-5" d="M444,234.06v2.64h3.47v1.19H444v5a2.06,2.06,0,0,0,.39,1.44,1.84,1.84,0,0,0,1.36.41h1.72V246h-1.87a3.42,3.42,0,0,1-2.42-.69,3.25,3.25,0,0,1-.71-2.37v-5H440V236.7h2.48v-2.64Z"/><path class="cls-5" d="M457.88,240.24V246h-1.54v-5.76a3.1,3.1,0,0,0-.44-1.84,1.61,1.61,0,0,0-1.38-.59,2,2,0,0,0-1.65.76,3.55,3.55,0,0,0-.58,2.18V246h-1.53V233.08h1.53v5a2.88,2.88,0,0,1,1.1-1.21,3.2,3.2,0,0,1,1.65-.41,2.48,2.48,0,0,1,2.12.93A4.68,4.68,0,0,1,457.88,240.24Z"/><path class="cls-5" d="M466.77,233.61h1.58l-6.53,14h-1.58Z"/></g><g class="cls-3"><path class="cls-4" d="M57.91,323.27v1.13h-.5a4.15,4.15,0,0,1-2.61-.58,3,3,0,0,1-.66-2.3v-2.65a2.43,2.43,0,0,0-.42-1.63,2,2,0,0,0-1.51-.45h-.48v-1.12h.48a2,2,0,0,0,1.52-.45,2.4,2.4,0,0,0,.41-1.62v-1.87a3,3,0,0,1,.66-2.3,4.17,4.17,0,0,1,2.61-.57h.5V310h-.55a2.08,2.08,0,0,0-1.43.34,2.18,2.18,0,0,0-.33,1.45v1.94a3.41,3.41,0,0,1-.36,1.78,1.84,1.84,0,0,1-1.21.75,1.89,1.89,0,0,1,1.22.77,3.42,3.42,0,0,1,.35,1.77v2.72a2.18,2.18,0,0,0,.33,1.45,2.1,2.1,0,0,0,1.43.34Z"/></g><g class="cls-3"><path class="cls-4" d="M53.22,332.91v4.78H51.47v-4.78Zm4.16,0v4.78H55.63v-4.78Z"/><path class="cls-4" d="M67.91,340v5H66.46v-1.3a3,3,0,0,1-1.16,1.15,3.59,3.59,0,0,1-1.7.37,3,3,0,0,1-2.13-.75,3,3,0,0,1,.18-4.24,4.65,4.65,0,0,1,2.88-.76h1.93v-.23a2,2,0,0,0-.53-1.52,2.45,2.45,0,0,0-1.67-.47,5.46,5.46,0,0,0-1.48.21,6.48,6.48,0,0,0-1.46.62v-1.44a10,10,0,0,1,1.53-.46,6.94,6.94,0,0,1,1.42-.15,4.82,4.82,0,0,1,1.86.32,2.92,2.92,0,0,1,1.25,1,2.43,2.43,0,0,1,.42,1A8.78,8.78,0,0,1,67.91,340Zm-2.79.59h-.48a3.33,3.33,0,0,0-1.89.44,1.5,1.5,0,0,0-.64,1.32,1.58,1.58,0,0,0,.48,1.23,1.88,1.88,0,0,0,1.32.44,2.29,2.29,0,0,0,1.87-.82,3.51,3.51,0,0,0,.69-2.28v-.32Z"/><path class="cls-4" d="M77.55,344.55a5,5,0,0,1-1.19.5,4.72,4.72,0,0,1-1.25.17A4.14,4.14,0,0,1,71.93,344a5.55,5.55,0,0,1,0-6.75A4.14,4.14,0,0,1,75.11,336a4.67,4.67,0,0,1,1.23.16,5.3,5.3,0,0,1,1.21.51v1.51a3.89,3.89,0,0,0-1.14-.73,3.51,3.51,0,0,0-1.3-.23,2.55,2.55,0,0,0-2.08.88,4.65,4.65,0,0,0,0,5,2.55,2.55,0,0,0,2.07.88,3.7,3.7,0,0,0,1.34-.23,3.35,3.35,0,0,0,1.1-.71Z"/><path class="cls-4" d="M87.19,344.55a5,5,0,0,1-1.19.5,4.72,4.72,0,0,1-1.25.17A4.14,4.14,0,0,1,81.57,344a5.55,5.55,0,0,1,0-6.75A4.14,4.14,0,0,1,84.74,336a4.67,4.67,0,0,1,1.23.16,5.3,5.3,0,0,1,1.21.51v1.51a3.89,3.89,0,0,0-1.14-.73,3.51,3.51,0,0,0-1.3-.23,2.55,2.55,0,0,0-2.08.88,4.65,4.65,0,0,0,0,5,2.55,2.55,0,0,0,2.07.88,3.7,3.7,0,0,0,1.34-.23,3.35,3.35,0,0,0,1.1-.71Z"/><path class="cls-4" d="M97.28,339.91v.7H91.05v0a3.46,3.46,0,0,0,.68,2.57,2.77,2.77,0,0,0,2.11.78,5.14,5.14,0,0,0,1.44-.22,8.8,8.8,0,0,0,1.6-.66v1.43a9.76,9.76,0,0,1-1.58.5,6.82,6.82,0,0,1-1.47.17A4.16,4.16,0,0,1,90.64,344a4.73,4.73,0,0,1-1.15-3.37,4.81,4.81,0,0,1,1.13-3.34,3.84,3.84,0,0,1,3-1.25,3.28,3.28,0,0,1,2.64,1.13A4.35,4.35,0,0,1,97.28,339.91Zm-1.44-.42a2.79,2.79,0,0,0-.66-1.57,2,2,0,0,0-1.63-.66,2.29,2.29,0,0,0-1.71.69,2.42,2.42,0,0,0-.73,1.55Z"/><path class="cls-4" d="M105.77,336.55V338a5.51,5.51,0,0,0-1.24-.54,4.58,4.58,0,0,0-1.27-.18,2.68,2.68,0,0,0-1.46.32,1.08,1.08,0,0,0-.48,1,1.05,1.05,0,0,0,.36.88,4.91,4.91,0,0,0,1.79.56l.58.11a2.82,2.82,0,0,1,1.62.81,2.27,2.27,0,0,1,.55,1.59,2.44,2.44,0,0,1-.92,2,4,4,0,0,1-2.56.73,7.22,7.22,0,0,1-1.36-.14,12.29,12.29,0,0,1-1.54-.41V343.2a8.26,8.26,0,0,0,1.54.62,5.14,5.14,0,0,0,1.39.21,2.45,2.45,0,0,0,1.48-.39,1.27,1.27,0,0,0,.52-1.08q0-1-1.91-1.38l-.06,0-.54-.11a3.44,3.44,0,0,1-1.81-.82,2.12,2.12,0,0,1-.57-1.57,2.35,2.35,0,0,1,.85-1.94,3.79,3.79,0,0,1,2.43-.68,6.92,6.92,0,0,1,1.35.13A6.83,6.83,0,0,1,105.77,336.55Z"/><path class="cls-4" d="M115.4,336.55V338a5.51,5.51,0,0,0-1.24-.54,4.58,4.58,0,0,0-1.27-.18,2.68,2.68,0,0,0-1.46.32,1.08,1.08,0,0,0-.48,1,1.05,1.05,0,0,0,.36.88,4.91,4.91,0,0,0,1.79.56l.58.11a2.82,2.82,0,0,1,1.62.81,2.27,2.27,0,0,1,.55,1.59,2.44,2.44,0,0,1-.92,2,4,4,0,0,1-2.56.73,7.22,7.22,0,0,1-1.36-.14,12.29,12.29,0,0,1-1.54-.41V343.2a8.26,8.26,0,0,0,1.54.62,5.14,5.14,0,0,0,1.39.21,2.45,2.45,0,0,0,1.48-.39,1.27,1.27,0,0,0,.52-1.08q0-1-1.91-1.38l-.06,0-.54-.11a3.44,3.44,0,0,1-1.81-.82,2.12,2.12,0,0,1-.57-1.57,2.35,2.35,0,0,1,.85-1.94,3.79,3.79,0,0,1,2.43-.68,6.92,6.92,0,0,1,1.35.13A6.83,6.83,0,0,1,115.4,336.55Z"/><path class="cls-4" d="M127,346.48v1.33h-9.56v-1.33Z"/><path class="cls-4" d="M131.86,333.77v2.48h3.27v1.12h-3.27v4.75a1.94,1.94,0,0,0,.37,1.35,1.74,1.74,0,0,0,1.28.38h1.62V345h-1.76a3.22,3.22,0,0,1-2.28-.65,3.05,3.05,0,0,1-.66-2.23v-4.75h-2.34v-1.12h2.34v-2.48Z"/><path class="cls-4" d="M141.51,336a3.39,3.39,0,0,1,2.79,1.18,6.54,6.54,0,0,1,0,6.83,3.89,3.89,0,0,1-5.57,0,6.55,6.55,0,0,1,0-6.83A3.38,3.38,0,0,1,141.51,336Zm0,1.22a1.86,1.86,0,0,0-1.66.85,5.93,5.93,0,0,0,0,5,2,2,0,0,0,3.32,0,5.93,5.93,0,0,0,0-5A1.87,1.87,0,0,0,141.51,337.26Z"/><path class="cls-4" d="M148.17,332.84h1.48v7l3.77-3.63h1.75l-3.45,3.3,4,5.45H154l-3.23-4.52-1.07,1V345h-1.48Z"/><path class="cls-4" d="M164.71,339.91v.7h-6.23v0a3.46,3.46,0,0,0,.68,2.57,2.77,2.77,0,0,0,2.11.78,5.14,5.14,0,0,0,1.44-.22,8.8,8.8,0,0,0,1.6-.66v1.43a9.76,9.76,0,0,1-1.58.5,6.82,6.82,0,0,1-1.47.17,4.16,4.16,0,0,1-3.19-1.22,4.73,4.73,0,0,1-1.15-3.37,4.81,4.81,0,0,1,1.13-3.34,3.84,3.84,0,0,1,3-1.25,3.28,3.28,0,0,1,2.64,1.13A4.35,4.35,0,0,1,164.71,339.91Zm-1.44-.42a2.79,2.79,0,0,0-.66-1.57,2,2,0,0,0-1.63-.66,2.29,2.29,0,0,0-1.71.69,2.42,2.42,0,0,0-.73,1.55Z"/><path class="cls-4" d="M173.8,339.58V345h-1.45v-5.42a2.92,2.92,0,0,0-.41-1.73,1.51,1.51,0,0,0-1.3-.55,1.83,1.83,0,0,0-1.55.71,3.34,3.34,0,0,0-.54,2.05V345h-1.44v-8.75h1.44v1.31a2.71,2.71,0,0,1,1-1.14,3,3,0,0,1,1.55-.39,2.34,2.34,0,0,1,2,.88A4.41,4.41,0,0,1,173.8,339.58Z"/><path class="cls-4" d="M178.45,332.91v4.78H176.7v-4.78Zm4.16,0v4.78h-1.75v-4.78Z"/><path class="cls-4" d="M197.84,336.26h2.44v2.82h-2.44Zm0,5.9h2.44V345h-2.44Z"/></g><g class="cls-3"><path class="cls-7" d="M226.61,332.91v4.78h-1.75v-4.78Zm4.16,0v4.78H229v-4.78Z"/><path class="cls-7" d="M235.94,343.67h5.36V345h-7.09v-1.33l2.55-2.72q1.09-1.18,1.51-1.66a8,8,0,0,0,1.05-1.54,2.85,2.85,0,0,0,.27-1.21A2,2,0,0,0,239,335a2.17,2.17,0,0,0-1.57-.55,4.76,4.76,0,0,0-1.49.26,8.38,8.38,0,0,0-1.66.78V333.9a8.51,8.51,0,0,1,1.58-.58,6.3,6.3,0,0,1,1.54-.2,4,4,0,0,1,2.75.91,3,3,0,0,1,1,2.39,3.55,3.55,0,0,1-.35,1.5,7.43,7.43,0,0,1-1.13,1.66q-.44.51-1.27,1.41T235.94,343.67Z"/><path class="cls-7" d="M250.26,336.55V338a5.51,5.51,0,0,0-1.24-.54,4.58,4.58,0,0,0-1.27-.18,2.68,2.68,0,0,0-1.46.32,1.08,1.08,0,0,0-.48,1,1.05,1.05,0,0,0,.36.88A4.91,4.91,0,0,0,248,340l.58.11a2.82,2.82,0,0,1,1.62.81,2.27,2.27,0,0,1,.55,1.59,2.44,2.44,0,0,1-.92,2,4,4,0,0,1-2.56.73,7.22,7.22,0,0,1-1.36-.14,12.29,12.29,0,0,1-1.54-.41V343.2a8.26,8.26,0,0,0,1.54.62,5.14,5.14,0,0,0,1.39.21,2.45,2.45,0,0,0,1.48-.39,1.27,1.27,0,0,0,.52-1.08q0-1-1.91-1.38l-.06,0-.54-.11a3.44,3.44,0,0,1-1.81-.82,2.12,2.12,0,0,1-.57-1.57,2.35,2.35,0,0,1,.85-1.94,3.79,3.79,0,0,1,2.43-.68,6.92,6.92,0,0,1,1.35.13A6.83,6.83,0,0,1,250.26,336.55Z"/><path class="cls-7" d="M254.4,343.68h2.45v-8.81l-2.94,1.41v-1.52l2.92-1.39h1.58v10.3h2.42V345H254.4Z"/><path class="cls-7" d="M263.54,333.34h5.91v1.33H265v2.87a3.79,3.79,0,0,1,.68-.18,4,4,0,0,1,.68-.06,3.87,3.87,0,0,1,2.88,1.07,3.93,3.93,0,0,1,1.06,2.9,3.83,3.83,0,0,1-1.11,2.91,4.23,4.23,0,0,1-3,1.06,10.67,10.67,0,0,1-1.7-.12,6.25,6.25,0,0,1-1.38-.37v-1.6a6.48,6.48,0,0,0,1.45.58,5.79,5.79,0,0,0,1.48.19,2.77,2.77,0,0,0,2-.69,2.6,2.6,0,0,0,.71-2,2.56,2.56,0,0,0-.73-1.95,2.83,2.83,0,0,0-2-.7,5.25,5.25,0,0,0-1.23.14,4.91,4.91,0,0,0-1.15.43Z"/><path class="cls-7" d="M273.66,343.68h2.45v-8.81l-2.94,1.41v-1.52l2.92-1.39h1.58v10.3h2.42V345h-6.44Z"/><path class="cls-7" d="M283,344.76V343.3a4.31,4.31,0,0,0,2.2.59,2.57,2.57,0,0,0,2.27-1.13,5.91,5.91,0,0,0,.77-3.32,2.77,2.77,0,0,1-1,1.2,2.8,2.8,0,0,1-1.52.42,3.32,3.32,0,0,1-2.61-1,4.28,4.28,0,0,1-.93-2.95,4.16,4.16,0,0,1,.95-2.92,3.46,3.46,0,0,1,2.68-1,3.29,3.29,0,0,1,3,1.46,8.67,8.67,0,0,1,.95,4.59,7.53,7.53,0,0,1-1.14,4.5,3.84,3.84,0,0,1-3.3,1.55,5.56,5.56,0,0,1-1.15-.12A6.1,6.1,0,0,1,283,344.76Zm2.81-4.93a1.91,1.91,0,0,0,1.58-.73,3.8,3.8,0,0,0,0-4,1.91,1.91,0,0,0-1.58-.73,1.87,1.87,0,0,0-1.58.69,4.21,4.21,0,0,0,0,4.09A1.87,1.87,0,0,0,285.84,339.83Z"/><path class="cls-7" d="M292.66,344.76V343.3a4.31,4.31,0,0,0,2.2.59,2.57,2.57,0,0,0,2.27-1.13,5.91,5.91,0,0,0,.77-3.32,2.77,2.77,0,0,1-1,1.2,2.8,2.8,0,0,1-1.52.42,3.32,3.32,0,0,1-2.61-1,4.28,4.28,0,0,1-.93-2.95,4.16,4.16,0,0,1,.95-2.92,3.46,3.46,0,0,1,2.68-1,3.29,3.29,0,0,1,3,1.46,8.67,8.67,0,0,1,.95,4.59,7.53,7.53,0,0,1-1.14,4.5,3.84,3.84,0,0,1-3.3,1.55,5.56,5.56,0,0,1-1.15-.12A6.1,6.1,0,0,1,292.66,344.76Zm2.81-4.93a1.91,1.91,0,0,0,1.58-.73,3.8,3.8,0,0,0,0-4,1.91,1.91,0,0,0-1.58-.73,1.87,1.87,0,0,0-1.58.69,4.21,4.21,0,0,0,0,4.09A1.87,1.87,0,0,0,295.48,339.83Z"/><path class="cls-7" d="M302.56,343.68H305v-8.81l-2.94,1.41v-1.52l2.92-1.39h1.58v10.3H309V345h-6.44Z"/><path class="cls-7" d="M311.93,344.76V343.3a4.31,4.31,0,0,0,2.2.59,2.57,2.57,0,0,0,2.27-1.13,5.91,5.91,0,0,0,.77-3.32,2.77,2.77,0,0,1-1,1.2,2.8,2.8,0,0,1-1.52.42,3.32,3.32,0,0,1-2.61-1,4.28,4.28,0,0,1-.93-2.95,4.16,4.16,0,0,1,.95-2.92,3.46,3.46,0,0,1,2.68-1,3.29,3.29,0,0,1,3,1.46,8.67,8.67,0,0,1,.95,4.59,7.53,7.53,0,0,1-1.14,4.5,3.84,3.84,0,0,1-3.3,1.55,5.56,5.56,0,0,1-1.15-.12A6.1,6.1,0,0,1,311.93,344.76Zm2.81-4.93a1.91,1.91,0,0,0,1.58-.73,3.8,3.8,0,0,0,0-4,1.91,1.91,0,0,0-1.58-.73,1.87,1.87,0,0,0-1.58.69,4.21,4.21,0,0,0,0,4.09A1.87,1.87,0,0,0,314.74,339.83Z"/><path class="cls-7" d="M321.34,333.34h5.91v1.33h-4.47v2.87a3.79,3.79,0,0,1,.68-.18,4,4,0,0,1,.68-.06,3.87,3.87,0,0,1,2.88,1.07,3.93,3.93,0,0,1,1.06,2.9,3.83,3.83,0,0,1-1.11,2.91,4.23,4.23,0,0,1-3,1.06,10.67,10.67,0,0,1-1.7-.12,6.25,6.25,0,0,1-1.38-.37v-1.6a6.48,6.48,0,0,0,1.45.58,5.79,5.79,0,0,0,1.48.19,2.77,2.77,0,0,0,2-.69,2.6,2.6,0,0,0,.71-2,2.56,2.56,0,0,0-.73-1.95,2.83,2.83,0,0,0-2-.7,5.25,5.25,0,0,0-1.23.14,4.91,4.91,0,0,0-1.15.43Z"/><path class="cls-7" d="M332.27,343.67h5.36V345h-7.09v-1.33l2.55-2.72q1.09-1.18,1.51-1.66a8,8,0,0,0,1.05-1.54,2.85,2.85,0,0,0,.27-1.21,2,2,0,0,0-.57-1.53,2.17,2.17,0,0,0-1.57-.55,4.76,4.76,0,0,0-1.49.26,8.38,8.38,0,0,0-1.66.78V333.9a8.51,8.51,0,0,1,1.58-.58,6.3,6.3,0,0,1,1.54-.2,4,4,0,0,1,2.75.91,3,3,0,0,1,1,2.39,3.55,3.55,0,0,1-.35,1.5,7.43,7.43,0,0,1-1.13,1.66q-.44.51-1.27,1.41T332.27,343.67Z"/><path class="cls-7" d="M341.9,343.67h5.36V345h-7.09v-1.33l2.55-2.72q1.09-1.18,1.51-1.66a8,8,0,0,0,1.05-1.54,2.85,2.85,0,0,0,.27-1.21A2,2,0,0,0,345,335a2.17,2.17,0,0,0-1.57-.55,4.76,4.76,0,0,0-1.49.26,8.38,8.38,0,0,0-1.66.78V333.9a8.51,8.51,0,0,1,1.58-.58,6.3,6.3,0,0,1,1.54-.2,4,4,0,0,1,2.75.91,3,3,0,0,1,1,2.39,3.55,3.55,0,0,1-.35,1.5,7.43,7.43,0,0,1-1.13,1.66q-.44.51-1.27,1.41T341.9,343.67Z"/><path class="cls-7" d="M354.68,338.76a3.19,3.19,0,0,1,1.76,1.08,3.05,3.05,0,0,1,.61,1.94,3.14,3.14,0,0,1-1.08,2.53,4.49,4.49,0,0,1-3,.92,9.41,9.41,0,0,1-1.64-.15,10.51,10.51,0,0,1-1.64-.43v-1.57a7.61,7.61,0,0,0,1.57.62,6,6,0,0,0,1.54.2,3,3,0,0,0,2-.59,2.08,2.08,0,0,0,.7-1.69,2,2,0,0,0-.7-1.61,2.79,2.79,0,0,0-1.88-.6h-1.2v-1.3h1.2a2.69,2.69,0,0,0,1.7-.48,1.59,1.59,0,0,0,.61-1.33,1.71,1.71,0,0,0-.57-1.38,2.42,2.42,0,0,0-1.61-.48,7,7,0,0,0-1.44.16,10.25,10.25,0,0,0-1.55.47v-1.45q.94-.25,1.68-.37a8,8,0,0,1,1.31-.12,4.1,4.1,0,0,1,2.72.86,2.82,2.82,0,0,1,1,2.27,2.41,2.41,0,0,1-.54,1.6A2.91,2.91,0,0,1,354.68,338.76Z"/><path class="cls-7" d="M361.16,343.67h5.36V345h-7.09v-1.33L362,341q1.09-1.18,1.51-1.66a8,8,0,0,0,1.05-1.54,2.84,2.84,0,0,0,.27-1.21,2,2,0,0,0-.57-1.53,2.17,2.17,0,0,0-1.57-.55,4.76,4.76,0,0,0-1.49.26,8.39,8.39,0,0,0-1.66.78V333.9a8.51,8.51,0,0,1,1.58-.58,6.3,6.3,0,0,1,1.54-.2,4,4,0,0,1,2.75.91,3,3,0,0,1,1,2.39,3.55,3.55,0,0,1-.35,1.5,7.41,7.41,0,0,1-1.13,1.66q-.44.51-1.27,1.41T361.16,343.67Z"/><path class="cls-7" d="M371.32,338.8a2.86,2.86,0,0,1-1.57-1,2.62,2.62,0,0,1-.57-1.7,2.77,2.77,0,0,1,.95-2.21,4.47,4.47,0,0,1,5.15,0,2.77,2.77,0,0,1,.95,2.21,2.62,2.62,0,0,1-.57,1.7,2.86,2.86,0,0,1-1.57,1,3,3,0,0,1,1.79,1,3.56,3.56,0,0,1-.39,4.49,4.81,4.81,0,0,1-5.57,0,3.11,3.11,0,0,1-1-2.46,3.18,3.18,0,0,1,.62-2A3,3,0,0,1,371.32,338.8Zm1.38.66a2.17,2.17,0,0,0-1.63.59,2.71,2.71,0,0,0,0,3.34,2.53,2.53,0,0,0,3.26,0,2.31,2.31,0,0,0,.57-1.68,2.28,2.28,0,0,0-.58-1.66A2.18,2.18,0,0,0,372.7,339.46Zm-1.95-3.16a1.92,1.92,0,0,0,.5,1.43,2.38,2.38,0,0,0,2.9,0,1.92,1.92,0,0,0,.5-1.43,1.75,1.75,0,0,0-2-2,2,2,0,0,0-1.45.5A2,2,0,0,0,370.75,336.3Z"/><path class="cls-7" d="M381,338.8a2.86,2.86,0,0,1-1.57-1,2.62,2.62,0,0,1-.57-1.7,2.77,2.77,0,0,1,.95-2.21,4.47,4.47,0,0,1,5.15,0,2.77,2.77,0,0,1,.95,2.21,2.62,2.62,0,0,1-.57,1.7,2.86,2.86,0,0,1-1.57,1,3,3,0,0,1,1.79,1,3.56,3.56,0,0,1-.39,4.49,4.81,4.81,0,0,1-5.57,0,3.11,3.11,0,0,1-1-2.46,3.18,3.18,0,0,1,.62-2A3,3,0,0,1,381,338.8Zm1.38.66a2.17,2.17,0,0,0-1.63.59,2.71,2.71,0,0,0,0,3.34,2.53,2.53,0,0,0,3.26,0,2.31,2.31,0,0,0,.57-1.68,2.28,2.28,0,0,0-.58-1.66A2.18,2.18,0,0,0,382.33,339.46Zm-1.95-3.16a1.92,1.92,0,0,0,.5,1.43,2.38,2.38,0,0,0,2.9,0,1.92,1.92,0,0,0,.5-1.43,1.75,1.75,0,0,0-2-2,2,2,0,0,0-1.45.5A2,2,0,0,0,380.38,336.3Z"/><path class="cls-7" d="M394.89,333.59V335a4.31,4.31,0,0,0-2.2-.59,2.58,2.58,0,0,0-2.27,1.13,5.89,5.89,0,0,0-.77,3.32,2.73,2.73,0,0,1,2.56-1.62,3.32,3.32,0,0,1,2.61,1,4.25,4.25,0,0,1,.93,2.93,4.17,4.17,0,0,1-1,2.93,3.45,3.45,0,0,1-2.68,1,3.29,3.29,0,0,1-3-1.46,8.65,8.65,0,0,1-.95-4.59,7.55,7.55,0,0,1,1.14-4.5,3.83,3.83,0,0,1,3.29-1.55,5.6,5.6,0,0,1,1.16.12A6.1,6.1,0,0,1,394.89,333.59Zm-2.81,4.93a1.92,1.92,0,0,0-1.59.73,3.78,3.78,0,0,0,0,4,1.92,1.92,0,0,0,1.59.73,1.87,1.87,0,0,0,1.58-.69,4.2,4.2,0,0,0,0-4.09A1.87,1.87,0,0,0,392.08,338.52Z"/><path class="cls-7" d="M404.38,336.55V338a5.49,5.49,0,0,0-1.24-.54,4.57,4.57,0,0,0-1.27-.18,2.68,2.68,0,0,0-1.46.32,1.08,1.08,0,0,0-.48,1,1.06,1.06,0,0,0,.36.88,4.91,4.91,0,0,0,1.79.56l.58.11a2.82,2.82,0,0,1,1.62.81,2.27,2.27,0,0,1,.55,1.59,2.44,2.44,0,0,1-.92,2,4,4,0,0,1-2.56.73,7.22,7.22,0,0,1-1.36-.14,12.32,12.32,0,0,1-1.54-.41V343.2a8.27,8.27,0,0,0,1.54.62,5.14,5.14,0,0,0,1.39.21,2.45,2.45,0,0,0,1.48-.39,1.27,1.27,0,0,0,.52-1.08q0-1-1.91-1.38l-.06,0-.54-.11a3.44,3.44,0,0,1-1.81-.82,2.13,2.13,0,0,1-.57-1.57,2.35,2.35,0,0,1,.85-1.94,3.79,3.79,0,0,1,2.43-.68,6.92,6.92,0,0,1,1.35.13A6.82,6.82,0,0,1,404.38,336.55Z"/><path class="cls-7" d="M408.26,344.76V343.3a4.31,4.31,0,0,0,2.2.59,2.57,2.57,0,0,0,2.27-1.13,5.91,5.91,0,0,0,.77-3.32,2.77,2.77,0,0,1-1,1.2,2.8,2.8,0,0,1-1.52.42,3.32,3.32,0,0,1-2.61-1,4.28,4.28,0,0,1-.93-2.95,4.16,4.16,0,0,1,.95-2.92,3.46,3.46,0,0,1,2.68-1,3.29,3.29,0,0,1,3,1.46,8.67,8.67,0,0,1,.95,4.59,7.53,7.53,0,0,1-1.14,4.5,3.84,3.84,0,0,1-3.3,1.55,5.57,5.57,0,0,1-1.15-.12A6.1,6.1,0,0,1,408.26,344.76Zm2.81-4.93a1.91,1.91,0,0,0,1.58-.73,3.8,3.8,0,0,0,0-4,1.91,1.91,0,0,0-1.58-.73,1.87,1.87,0,0,0-1.58.69,4.21,4.21,0,0,0,0,4.09A1.87,1.87,0,0,0,411.07,339.83Z"/><path class="cls-7" d="M417.13,333.34h7.34V334l-4.17,11h-1.65l4.06-10.34h-5.59Z"/><path class="cls-7" d="M433.42,333.59V335a4.31,4.31,0,0,0-2.2-.59,2.58,2.58,0,0,0-2.27,1.13,5.89,5.89,0,0,0-.77,3.32,2.73,2.73,0,0,1,2.56-1.62,3.32,3.32,0,0,1,2.61,1,4.25,4.25,0,0,1,.93,2.93,4.17,4.17,0,0,1-1,2.93,3.45,3.45,0,0,1-2.68,1,3.29,3.29,0,0,1-3-1.46,8.65,8.65,0,0,1-.95-4.59,7.55,7.55,0,0,1,1.14-4.5,3.83,3.83,0,0,1,3.29-1.55,5.6,5.6,0,0,1,1.16.12A6.1,6.1,0,0,1,433.42,333.59Zm-2.81,4.93a1.92,1.92,0,0,0-1.59.73,3.78,3.78,0,0,0,0,4,1.92,1.92,0,0,0,1.59.73,1.87,1.87,0,0,0,1.58-.69,4.2,4.2,0,0,0,0-4.09A1.87,1.87,0,0,0,430.61,338.52Z"/><path class="cls-7" d="M440.8,333.34h1.83v7.6h1.55v1.28h-1.55V345h-1.57v-2.78h-4.95v-1.49Zm.26,1.44-3.68,6.16h3.68Z"/><path class="cls-7" d="M446.56,333.34h5.91v1.33H448v2.87a3.79,3.79,0,0,1,.68-.18,4,4,0,0,1,.68-.06,3.87,3.87,0,0,1,2.88,1.07,3.93,3.93,0,0,1,1.06,2.9,3.83,3.83,0,0,1-1.11,2.91,4.23,4.23,0,0,1-3,1.06,10.67,10.67,0,0,1-1.7-.12,6.26,6.26,0,0,1-1.38-.37v-1.6a6.49,6.49,0,0,0,1.45.58,5.79,5.79,0,0,0,1.48.19,2.77,2.77,0,0,0,2-.69,2.6,2.6,0,0,0,.71-2,2.56,2.56,0,0,0-.73-1.95,2.83,2.83,0,0,0-2-.7,5.25,5.25,0,0,0-1.23.14,4.91,4.91,0,0,0-1.15.43Z"/><path class="cls-7" d="M456.69,343.68h2.45v-8.81l-2.94,1.41v-1.52l2.92-1.39h1.58v10.3h2.42V345h-6.44Z"/><path class="cls-7" d="M465.3,333.34h7.34V334l-4.17,11h-1.65l4.06-10.34H465.3Z"/><path class="cls-7" d="M478.66,333.16a3.12,3.12,0,0,1,2.82,1.52,11.09,11.09,0,0,1,0,9,3.38,3.38,0,0,1-5.64,0,11.14,11.14,0,0,1,0-9A3.12,3.12,0,0,1,478.66,333.16Zm0,1.25a1.75,1.75,0,0,0-1.64,1.18,9,9,0,0,0-.54,3.6,13.57,13.57,0,0,0,.15,2.06l3.64-5.8A1.79,1.79,0,0,0,478.66,334.41Zm0,9.56a1.76,1.76,0,0,0,1.65-1.18,9,9,0,0,0,.54-3.6,15.7,15.7,0,0,0-.16-2.33L477,342.69A1.84,1.84,0,0,0,478.66,344Z"/><path class="cls-7" d="M491.22,333.59V335a4.31,4.31,0,0,0-2.2-.59,2.58,2.58,0,0,0-2.27,1.13,5.89,5.89,0,0,0-.77,3.32,2.73,2.73,0,0,1,2.56-1.62,3.32,3.32,0,0,1,2.61,1,4.25,4.25,0,0,1,.93,2.93,4.17,4.17,0,0,1-1,2.93,3.45,3.45,0,0,1-2.68,1,3.29,3.29,0,0,1-3-1.46,8.65,8.65,0,0,1-.95-4.59,7.55,7.55,0,0,1,1.14-4.5,3.83,3.83,0,0,1,3.29-1.55,5.6,5.6,0,0,1,1.16.12A6.1,6.1,0,0,1,491.22,333.59Zm-2.81,4.93a1.92,1.92,0,0,0-1.59.73,3.78,3.78,0,0,0,0,4,1.92,1.92,0,0,0,1.59.73,1.87,1.87,0,0,0,1.58-.69,4.2,4.2,0,0,0,0-4.09A1.87,1.87,0,0,0,488.41,338.52Z"/><path class="cls-7" d="M495.22,343.68h2.45v-8.81l-2.94,1.41v-1.52l2.92-1.39h1.58v10.3h2.42V345h-6.44Z"/><path class="cls-7" d="M504.36,333.34h5.91v1.33H505.8v2.87a3.79,3.79,0,0,1,.68-.18,4,4,0,0,1,.68-.06,3.87,3.87,0,0,1,2.88,1.07,3.93,3.93,0,0,1,1.06,2.9,3.83,3.83,0,0,1-1.11,2.91,4.23,4.23,0,0,1-3,1.06,10.67,10.67,0,0,1-1.7-.12,6.26,6.26,0,0,1-1.38-.37v-1.6a6.49,6.49,0,0,0,1.45.58,5.79,5.79,0,0,0,1.48.19,2.77,2.77,0,0,0,2-.69,2.6,2.6,0,0,0,.71-2,2.56,2.56,0,0,0-.73-1.95,2.83,2.83,0,0,0-2-.7,5.25,5.25,0,0,0-1.23.14,4.91,4.91,0,0,0-1.15.43Z"/><path class="cls-7" d="M520.12,333.59V335a4.31,4.31,0,0,0-2.2-.59,2.58,2.58,0,0,0-2.27,1.13,5.89,5.89,0,0,0-.77,3.32,2.73,2.73,0,0,1,2.56-1.62,3.32,3.32,0,0,1,2.61,1,4.25,4.25,0,0,1,.93,2.93,4.17,4.17,0,0,1-1,2.93,3.45,3.45,0,0,1-2.68,1,3.29,3.29,0,0,1-3-1.46,8.65,8.65,0,0,1-.95-4.59,7.55,7.55,0,0,1,1.14-4.5,3.83,3.83,0,0,1,3.29-1.55,5.6,5.6,0,0,1,1.16.12A6.1,6.1,0,0,1,520.12,333.59Zm-2.81,4.93a1.92,1.92,0,0,0-1.59.73,3.78,3.78,0,0,0,0,4,1.92,1.92,0,0,0,1.59.73,1.87,1.87,0,0,0,1.58-.69,4.2,4.2,0,0,0,0-4.09A1.87,1.87,0,0,0,517.3,338.52Z"/><path class="cls-7" d="M526.82,333.16a3.12,3.12,0,0,1,2.82,1.52,11.09,11.09,0,0,1,0,9,3.38,3.38,0,0,1-5.64,0,11.14,11.14,0,0,1,0-9A3.12,3.12,0,0,1,526.82,333.16Zm0,1.25a1.75,1.75,0,0,0-1.64,1.18,9,9,0,0,0-.54,3.6,13.57,13.57,0,0,0,.15,2.06l3.64-5.8A1.79,1.79,0,0,0,526.82,334.41Zm0,9.56a1.76,1.76,0,0,0,1.65-1.18,9,9,0,0,0,.54-3.6,15.7,15.7,0,0,0-.16-2.33l-3.72,5.82A1.84,1.84,0,0,0,526.82,344Z"/><path class="cls-7" d="M533.48,344.76V343.3a4.31,4.31,0,0,0,2.2.59,2.57,2.57,0,0,0,2.27-1.13,5.91,5.91,0,0,0,.77-3.32,2.77,2.77,0,0,1-1,1.2,2.8,2.8,0,0,1-1.52.42,3.32,3.32,0,0,1-2.61-1,4.28,4.28,0,0,1-.93-2.95,4.16,4.16,0,0,1,.95-2.92,3.46,3.46,0,0,1,2.68-1,3.29,3.29,0,0,1,3,1.46,8.67,8.67,0,0,1,.95,4.59,7.53,7.53,0,0,1-1.14,4.5,3.84,3.84,0,0,1-3.3,1.55,5.57,5.57,0,0,1-1.15-.12A6.1,6.1,0,0,1,533.48,344.76Zm2.81-4.93a1.91,1.91,0,0,0,1.58-.73,3.8,3.8,0,0,0,0-4,1.91,1.91,0,0,0-1.58-.73,1.87,1.87,0,0,0-1.58.69,4.21,4.21,0,0,0,0,4.09A1.87,1.87,0,0,0,536.3,339.83Z"/><path class="cls-7" d="M547.34,338.76a3.19,3.19,0,0,1,1.76,1.08,3.05,3.05,0,0,1,.61,1.94,3.14,3.14,0,0,1-1.08,2.53,4.49,4.49,0,0,1-3,.92,9.41,9.41,0,0,1-1.64-.15,10.51,10.51,0,0,1-1.64-.43v-1.57a7.6,7.6,0,0,0,1.57.62,6,6,0,0,0,1.54.2,3,3,0,0,0,2-.59,2.08,2.08,0,0,0,.7-1.69,2,2,0,0,0-.7-1.61,2.79,2.79,0,0,0-1.88-.6h-1.2v-1.3h1.2a2.69,2.69,0,0,0,1.7-.48,1.59,1.59,0,0,0,.61-1.33,1.71,1.71,0,0,0-.57-1.38,2.42,2.42,0,0,0-1.61-.48,7,7,0,0,0-1.44.16,10.27,10.27,0,0,0-1.55.47v-1.45q.94-.25,1.68-.37a8,8,0,0,1,1.31-.12,4.1,4.1,0,0,1,2.72.86,2.82,2.82,0,0,1,1,2.27,2.41,2.41,0,0,1-.54,1.6A2.91,2.91,0,0,1,547.34,338.76Z"/><path class="cls-7" d="M556.39,333.34h1.83v7.6h1.55v1.28h-1.55V345h-1.57v-2.78H551.7v-1.49Zm.26,1.44L553,340.94h3.68Z"/><path class="cls-7" d="M566,333.34h1.83v7.6h1.55v1.28h-1.55V345h-1.57v-2.78h-4.95v-1.49Zm.26,1.44-3.68,6.16h3.68Z"/><path class="cls-7" d="M573.09,343.67h5.36V345h-7.09v-1.33l2.55-2.72q1.09-1.18,1.51-1.66a8,8,0,0,0,1.05-1.54,2.84,2.84,0,0,0,.27-1.21,2,2,0,0,0-.57-1.53,2.17,2.17,0,0,0-1.57-.55,4.76,4.76,0,0,0-1.49.26,8.39,8.39,0,0,0-1.66.78V333.9a8.51,8.51,0,0,1,1.58-.58,6.3,6.3,0,0,1,1.54-.2,4,4,0,0,1,2.75.91,3,3,0,0,1,1,2.39,3.55,3.55,0,0,1-.35,1.5,7.41,7.41,0,0,1-1.13,1.66q-.44.51-1.27,1.41T573.09,343.67Z"/><path class="cls-7" d="M583,332.91v4.78h-1.75v-4.78Zm4.16,0v4.78h-1.75v-4.78Z"/></g><g class="cls-3"><path class="cls-4" d="M592.89,342.18h2.44v2.07l-1.73,3.37H592l.86-3.37Z"/></g><g class="cls-3"><path class="cls-4" d="M53.22,356.91v4.78H51.47v-4.78Zm4.16,0v4.78H55.63v-4.78Z"/><path class="cls-4" d="M68.38,363.91v.7H62.16v0a3.46,3.46,0,0,0,.68,2.57,2.77,2.77,0,0,0,2.11.78,5.14,5.14,0,0,0,1.44-.22,8.8,8.8,0,0,0,1.6-.66v1.43a9.76,9.76,0,0,1-1.58.5,6.82,6.82,0,0,1-1.47.17A4.16,4.16,0,0,1,61.74,368a4.73,4.73,0,0,1-1.15-3.37,4.81,4.81,0,0,1,1.13-3.34,3.84,3.84,0,0,1,3-1.25,3.28,3.28,0,0,1,2.64,1.13A4.35,4.35,0,0,1,68.38,363.91Zm-1.44-.42a2.79,2.79,0,0,0-.66-1.57,2,2,0,0,0-1.63-.66,2.29,2.29,0,0,0-1.71.69,2.42,2.42,0,0,0-.73,1.55Z"/><path class="cls-4" d="M78,360.25l-3.13,4.19L78.3,369H76.64l-2.56-3.51L71.52,369H69.86l3.44-4.56-3.13-4.19h1.59l2.32,3.16,2.3-3.16Z"/><path class="cls-4" d="M81.83,367.9v4.43H80.38V360.25h1.45v1.12a2.5,2.5,0,0,1,1-1,2.74,2.74,0,0,1,1.38-.34,2.92,2.92,0,0,1,2.49,1.23,5.63,5.63,0,0,1,.9,3.4,5.49,5.49,0,0,1-.91,3.35,2.93,2.93,0,0,1-2.48,1.21,2.77,2.77,0,0,1-1.39-.34A2.39,2.39,0,0,1,81.83,367.9ZM86,364.63a4.86,4.86,0,0,0-.53-2.52,1.73,1.73,0,0,0-1.57-.85,1.76,1.76,0,0,0-1.59.86,6.15,6.15,0,0,0,0,5A1.75,1.75,0,0,0,84,368a1.73,1.73,0,0,0,1.57-.85A4.86,4.86,0,0,0,86,364.63Z"/><path class="cls-4" d="M91,360.28h3.68v7.6h2.85V369H90.39v-1.12h2.85V361.4H91Zm2.24-3.4h1.44v1.81H93.24Z"/><path class="cls-4" d="M107.19,362.05a3.27,3.27,0,0,0-.94-.52,3.2,3.2,0,0,0-1-.16,2.54,2.54,0,0,0-2.05.84,3.69,3.69,0,0,0-.71,2.44V369H101v-8.75h1.45V362a2.91,2.91,0,0,1,1.11-1.43,3.12,3.12,0,0,1,1.77-.5,3.56,3.56,0,0,1,1,.13,3.18,3.18,0,0,1,.88.41Z"/><path class="cls-4" d="M116.55,363.91v.7h-6.23v0a3.46,3.46,0,0,0,.68,2.57,2.77,2.77,0,0,0,2.11.78,5.14,5.14,0,0,0,1.44-.22,8.8,8.8,0,0,0,1.6-.66v1.43a9.76,9.76,0,0,1-1.58.5,6.82,6.82,0,0,1-1.47.17,4.16,4.16,0,0,1-3.19-1.22,4.73,4.73,0,0,1-1.15-3.37,4.81,4.81,0,0,1,1.13-3.34,3.84,3.84,0,0,1,3-1.25,3.28,3.28,0,0,1,2.64,1.13A4.35,4.35,0,0,1,116.55,363.91Zm-1.44-.42a2.79,2.79,0,0,0-.66-1.57,2,2,0,0,0-1.63-.66,2.29,2.29,0,0,0-1.71.69,2.42,2.42,0,0,0-.73,1.55Z"/><path class="cls-4" d="M125,360.55V362a5.51,5.51,0,0,0-1.24-.54,4.58,4.58,0,0,0-1.27-.18,2.68,2.68,0,0,0-1.46.32,1.08,1.08,0,0,0-.48,1,1.05,1.05,0,0,0,.36.88,4.91,4.91,0,0,0,1.79.56l.58.11a2.82,2.82,0,0,1,1.62.81,2.27,2.27,0,0,1,.55,1.59,2.44,2.44,0,0,1-.92,2,4,4,0,0,1-2.56.73,7.22,7.22,0,0,1-1.36-.14,12.29,12.29,0,0,1-1.54-.41V367.2a8.26,8.26,0,0,0,1.54.62A5.14,5.14,0,0,0,122,368a2.45,2.45,0,0,0,1.48-.39,1.27,1.27,0,0,0,.52-1.08q0-1-1.91-1.38l-.06,0-.54-.11a3.44,3.44,0,0,1-1.81-.82,2.12,2.12,0,0,1-.57-1.57,2.35,2.35,0,0,1,.85-1.94,3.79,3.79,0,0,1,2.43-.68,6.92,6.92,0,0,1,1.35.13A6.83,6.83,0,0,1,125,360.55Z"/><path class="cls-4" d="M130.28,356.91v4.78h-1.75v-4.78Zm4.16,0v4.78H132.7v-4.78Z"/><path class="cls-4" d="M149.68,360.26h2.44v2.82h-2.44Zm0,5.9h2.44V369h-2.44Z"/><path class="cls-4" d="M168.81,356.91v4.78h-1.75v-4.78Zm4.16,0v4.78h-1.75v-4.78Z"/><path class="cls-4" d="M178.14,367.67h5.36V369h-7.09v-1.33L179,365q1.09-1.18,1.51-1.66a8,8,0,0,0,1.05-1.54,2.85,2.85,0,0,0,.27-1.21,2,2,0,0,0-.57-1.53,2.17,2.17,0,0,0-1.57-.55,4.76,4.76,0,0,0-1.49.26,8.38,8.38,0,0,0-1.66.78V357.9a8.51,8.51,0,0,1,1.58-.58,6.3,6.3,0,0,1,1.54-.2,4,4,0,0,1,2.75.91,3,3,0,0,1,1,2.39,3.55,3.55,0,0,1-.35,1.5,7.43,7.43,0,0,1-1.13,1.66q-.44.51-1.27,1.41T178.14,367.67Z"/><path class="cls-4" d="M190.92,362.76a3.19,3.19,0,0,1,1.76,1.08,3.05,3.05,0,0,1,.61,1.94,3.14,3.14,0,0,1-1.08,2.53,4.49,4.49,0,0,1-3,.92,9.4,9.4,0,0,1-1.64-.15,10.51,10.51,0,0,1-1.64-.43v-1.57a7.6,7.6,0,0,0,1.57.62,6,6,0,0,0,1.54.2,3,3,0,0,0,2-.59,2.08,2.08,0,0,0,.7-1.69A2,2,0,0,0,191,364a2.79,2.79,0,0,0-1.88-.6h-1.2v-1.3h1.2a2.69,2.69,0,0,0,1.7-.48,1.59,1.59,0,0,0,.61-1.33,1.71,1.71,0,0,0-.57-1.38,2.43,2.43,0,0,0-1.61-.48,7,7,0,0,0-1.44.16,10.26,10.26,0,0,0-1.55.47v-1.45q.94-.25,1.68-.37a8,8,0,0,1,1.31-.12A4.1,4.1,0,0,1,192,358a2.82,2.82,0,0,1,1,2.27,2.41,2.41,0,0,1-.54,1.6A2.91,2.91,0,0,1,190.92,362.76Z"/><path class="cls-4" d="M200,357.34h1.83v7.6h1.55v1.28H201.8V369h-1.57v-2.78h-4.95v-1.49Zm.26,1.44-3.68,6.16h3.68Z"/><path class="cls-4" d="M207,367.67h5.36V369h-7.09v-1.33l2.55-2.72q1.09-1.18,1.51-1.66a8,8,0,0,0,1.05-1.54,2.85,2.85,0,0,0,.27-1.21,2,2,0,0,0-.57-1.53,2.17,2.17,0,0,0-1.57-.55,4.76,4.76,0,0,0-1.49.26,8.38,8.38,0,0,0-1.66.78V357.9a8.51,8.51,0,0,1,1.58-.58,6.3,6.3,0,0,1,1.54-.2,4,4,0,0,1,2.75.91,3,3,0,0,1,1,2.39,3.55,3.55,0,0,1-.35,1.5,7.43,7.43,0,0,1-1.13,1.66q-.44.51-1.27,1.41T207,367.67Z"/><path class="cls-4" d="M219.82,362.76a3.19,3.19,0,0,1,1.76,1.08,3.05,3.05,0,0,1,.61,1.94,3.14,3.14,0,0,1-1.08,2.53,4.49,4.49,0,0,1-3,.92,9.4,9.4,0,0,1-1.64-.15,10.51,10.51,0,0,1-1.64-.43v-1.57a7.6,7.6,0,0,0,1.57.62,6,6,0,0,0,1.54.2,3,3,0,0,0,2-.59,2.08,2.08,0,0,0,.7-1.69,2,2,0,0,0-.7-1.61,2.79,2.79,0,0,0-1.88-.6h-1.2v-1.3H218a2.69,2.69,0,0,0,1.7-.48,1.59,1.59,0,0,0,.61-1.33,1.71,1.71,0,0,0-.57-1.38,2.43,2.43,0,0,0-1.61-.48,7,7,0,0,0-1.44.16,10.26,10.26,0,0,0-1.55.47v-1.45q.94-.25,1.68-.37a8,8,0,0,1,1.31-.12,4.1,4.1,0,0,1,2.72.86,2.82,2.82,0,0,1,1,2.27,2.41,2.41,0,0,1-.54,1.6A2.91,2.91,0,0,1,219.82,362.76Z"/><path class="cls-4" d="M228.88,357.34h1.83v7.6h1.55v1.28H230.7V369h-1.57v-2.78h-4.95v-1.49Zm.26,1.44-3.68,6.16h3.68Z"/><path class="cls-4" d="M238.51,357.34h1.83v7.6h1.55v1.28h-1.55V369h-1.57v-2.78h-4.95v-1.49Zm.26,1.44-3.68,6.16h3.68Z"/><path class="cls-4" d="M248.72,362.76a3.19,3.19,0,0,1,1.76,1.08,3.05,3.05,0,0,1,.61,1.94,3.14,3.14,0,0,1-1.08,2.53,4.49,4.49,0,0,1-3,.92,9.4,9.4,0,0,1-1.64-.15,10.51,10.51,0,0,1-1.64-.43v-1.57a7.6,7.6,0,0,0,1.57.62,6,6,0,0,0,1.54.2,3,3,0,0,0,2-.59,2.08,2.08,0,0,0,.7-1.69,2,2,0,0,0-.7-1.61,2.79,2.79,0,0,0-1.88-.6h-1.2v-1.3h1.2a2.69,2.69,0,0,0,1.7-.48,1.59,1.59,0,0,0,.61-1.33,1.71,1.71,0,0,0-.57-1.38,2.43,2.43,0,0,0-1.61-.48,7,7,0,0,0-1.44.16,10.26,10.26,0,0,0-1.55.47v-1.45q.94-.25,1.68-.37a8,8,0,0,1,1.31-.12,4.1,4.1,0,0,1,2.72.86,2.82,2.82,0,0,1,1,2.27,2.41,2.41,0,0,1-.54,1.6A2.91,2.91,0,0,1,248.72,362.76Z"/><path class="cls-4" d="M253.91,357.34h5.91v1.33h-4.47v2.87a3.79,3.79,0,0,1,.68-.18,4,4,0,0,1,.68-.06,3.87,3.87,0,0,1,2.88,1.07,3.93,3.93,0,0,1,1.06,2.9,3.83,3.83,0,0,1-1.11,2.91,4.23,4.23,0,0,1-3,1.06,10.67,10.67,0,0,1-1.7-.12,6.25,6.25,0,0,1-1.38-.37v-1.6a6.48,6.48,0,0,0,1.45.58,5.79,5.79,0,0,0,1.48.19,2.77,2.77,0,0,0,2-.69,2.6,2.6,0,0,0,.71-2,2.56,2.56,0,0,0-.73-1.95,2.83,2.83,0,0,0-2-.7,5.25,5.25,0,0,0-1.23.14,4.91,4.91,0,0,0-1.15.43Z"/><path class="cls-4" d="M268,362.76a3.19,3.19,0,0,1,1.76,1.08,3.05,3.05,0,0,1,.61,1.94,3.14,3.14,0,0,1-1.08,2.53,4.49,4.49,0,0,1-3,.92,9.4,9.4,0,0,1-1.64-.15,10.51,10.51,0,0,1-1.64-.43v-1.57a7.6,7.6,0,0,0,1.57.62,6,6,0,0,0,1.54.2,3,3,0,0,0,2-.59,2.08,2.08,0,0,0,.7-1.69,2,2,0,0,0-.7-1.61,2.79,2.79,0,0,0-1.88-.6H265v-1.3h1.2a2.69,2.69,0,0,0,1.7-.48,1.59,1.59,0,0,0,.61-1.33,1.71,1.71,0,0,0-.57-1.38,2.43,2.43,0,0,0-1.61-.48,7,7,0,0,0-1.44.16,10.26,10.26,0,0,0-1.55.47v-1.45q.94-.25,1.68-.37a8,8,0,0,1,1.31-.12,4.1,4.1,0,0,1,2.72.86,2.82,2.82,0,0,1,1,2.27,2.41,2.41,0,0,1-.54,1.6A2.91,2.91,0,0,1,268,362.76Z"/><path class="cls-4" d="M277,357.34h1.83v7.6h1.55v1.28h-1.55V369H277.3v-2.78h-4.95v-1.49Zm.26,1.44-3.68,6.16h3.68Z"/><path class="cls-4" d="M282.8,357.34h5.91v1.33h-4.47v2.87a3.79,3.79,0,0,1,.68-.18,4,4,0,0,1,.68-.06,3.87,3.87,0,0,1,2.88,1.07,3.93,3.93,0,0,1,1.06,2.9,3.83,3.83,0,0,1-1.11,2.91,4.23,4.23,0,0,1-3,1.06,10.67,10.67,0,0,1-1.7-.12,6.25,6.25,0,0,1-1.38-.37v-1.6a6.48,6.48,0,0,0,1.45.58,5.79,5.79,0,0,0,1.48.19,2.77,2.77,0,0,0,2-.69,2.6,2.6,0,0,0,.71-2,2.56,2.56,0,0,0-.73-1.95,2.83,2.83,0,0,0-2-.7,5.25,5.25,0,0,0-1.23.14,4.91,4.91,0,0,0-1.15.43Z"/><path class="cls-4" d="M296.88,362.76a3.19,3.19,0,0,1,1.76,1.08,3.05,3.05,0,0,1,.61,1.94,3.14,3.14,0,0,1-1.08,2.53,4.49,4.49,0,0,1-3,.92,9.4,9.4,0,0,1-1.64-.15,10.51,10.51,0,0,1-1.64-.43v-1.57a7.6,7.6,0,0,0,1.57.62,6,6,0,0,0,1.54.2,3,3,0,0,0,2-.59,2.08,2.08,0,0,0,.7-1.69A2,2,0,0,0,297,364a2.79,2.79,0,0,0-1.88-.6h-1.2v-1.3h1.2a2.69,2.69,0,0,0,1.7-.48,1.59,1.59,0,0,0,.61-1.33,1.71,1.71,0,0,0-.57-1.38,2.43,2.43,0,0,0-1.61-.48,7,7,0,0,0-1.44.16,10.26,10.26,0,0,0-1.55.47v-1.45q.94-.25,1.68-.37a8,8,0,0,1,1.31-.12A4.1,4.1,0,0,1,298,358a2.82,2.82,0,0,1,1,2.27,2.41,2.41,0,0,1-.54,1.6A2.91,2.91,0,0,1,296.88,362.76Z"/><path class="cls-4" d="M305.94,357.34h1.83v7.6h1.55v1.28h-1.55V369H306.2v-2.78h-4.95v-1.49Zm.26,1.44-3.68,6.16h3.68Z"/><path class="cls-4" d="M311.7,357.34h5.91v1.33h-4.47v2.87a3.79,3.79,0,0,1,.68-.18,4,4,0,0,1,.68-.06,3.87,3.87,0,0,1,2.88,1.07,3.93,3.93,0,0,1,1.06,2.9,3.83,3.83,0,0,1-1.11,2.91,4.23,4.23,0,0,1-3,1.06,10.67,10.67,0,0,1-1.7-.12,6.25,6.25,0,0,1-1.38-.37v-1.6a6.48,6.48,0,0,0,1.45.58,5.79,5.79,0,0,0,1.48.19,2.77,2.77,0,0,0,2-.69,2.6,2.6,0,0,0,.71-2,2.56,2.56,0,0,0-.73-1.95,2.83,2.83,0,0,0-2-.7,5.25,5.25,0,0,0-1.23.14,4.91,4.91,0,0,0-1.15.43Z"/><path class="cls-4" d="M322.94,356.91v4.78h-1.75v-4.78Zm4.16,0v4.78h-1.75v-4.78Z"/></g><g class="cls-3"><path class="cls-4" d="M51.73,395.27h.53a2.09,2.09,0,0,0,1.44-.34,2.17,2.17,0,0,0,.34-1.45v-2.72a3.42,3.42,0,0,1,.35-1.77,1.89,1.89,0,0,1,1.22-.77,1.84,1.84,0,0,1-1.21-.75,3.41,3.41,0,0,1-.36-1.78v-1.94a2.17,2.17,0,0,0-.34-1.45,2.09,2.09,0,0,0-1.44-.34h-.53v-1.12h.48a4.15,4.15,0,0,1,2.6.57,3,3,0,0,1,.66,2.3v1.88a2.38,2.38,0,0,0,.42,1.62,2,2,0,0,0,1.52.45h.5v1.12h-.5a2,2,0,0,0-1.52.45,2.43,2.43,0,0,0-.42,1.63v2.65a3.05,3.05,0,0,1-.66,2.3,4.13,4.13,0,0,1-2.6.58h-.48Z"/></g><rect class="cls-1" width="700" height="50" rx="5" ry="5"/><circle class="cls-8" cx="26.5" cy="25.5" r="6.5"/><circle class="cls-9" cx="46.5" cy="25.5" r="6.5"/><circle class="cls-10" cx="66.5" cy="25.5" r="6.5"/></svg>