<svg xmlns="http://www.w3.org/2000/svg" width="120" height="120" viewBox="0 0 120 120">
  <g fill="none" transform="translate(32 20)">
    <polygon fill="#E44D26" points="5.257 73.575 .099 15.722 56.776 15.722 51.613 73.565 28.403 80"/>
    <polygon fill="#F16529" points="28.438 75.082 47.192 69.882 51.605 20.452 28.438 20.452"/>
    <polygon fill="#EBEBEB" points="28.438 41.909 19.048 41.909 18.4 34.643 28.438 34.643 28.438 27.548 28.413 27.548 10.646 27.548 10.815 29.451 12.559 49.004 28.438 49.004"/>
    <polygon fill="#EBEBEB" points="28.438 60.336 28.406 60.345 20.504 58.211 19.999 52.552 16.159 52.552 12.876 52.552 13.87 63.693 28.405 67.728 28.438 67.719"/>
    <polygon fill="#000" points="5.372 0 8.978 0 8.978 3.563 12.276 3.563 12.276 0 15.882 0 15.882 10.788 12.277 10.788 12.277 7.176 8.978 7.176 8.978 10.788 5.372 10.788 5.372 0"/>
    <polygon fill="#000" points="20.624 3.578 17.45 3.578 17.45 0 27.406 0 27.406 3.578 24.23 3.578 24.23 10.788 20.624 10.788 20.624 3.578"/>
    <polygon fill="#000" points="28.986 0 32.746 0 35.059 3.791 37.369 0 41.13 0 41.13 10.788 37.54 10.788 37.54 5.441 35.059 9.277 34.997 9.277 32.514 5.441 32.514 10.788 28.986 10.788 28.986 0"/>
    <polygon fill="#000" points="42.925 0 46.532 0 46.532 7.222 51.603 7.222 51.603 10.788 42.925 10.788"/>
    <polygon fill="#FFF" points="28.413 41.909 28.413 49.004 37.15 49.004 36.327 58.206 28.413 60.342 28.413 67.724 42.959 63.693 43.066 62.494 44.733 43.814 44.906 41.909 42.994 41.909"/>
    <polygon fill="#FFF" points="28.413 27.548 28.413 31.955 28.413 34.626 28.413 34.643 45.529 34.643 45.529 34.643 45.552 34.643 45.694 33.048 46.017 29.451 46.187 27.548"/>
  </g>
</svg>
