<svg xmlns="http://www.w3.org/2000/svg" width="120" height="120" viewBox="0 0 120 120">
  <g fill="none" fill-rule="evenodd" transform="translate(15 48)">
    <path fill="#404137" d="M45.4608197,0.151807083 C45.3986742,0.152565936 45.3358153,0.167398482 45.2803538,0.199930523 C45.1696174,0.264944519 45.0998863,0.384344013 45.0998863,0.512738954 L45.0998863,9.71649713 C45.0998863,9.8069312 45.0577761,9.88774148 44.9795762,9.93309511 C44.9011791,9.97856256 44.805512,9.97856256 44.7269236,9.93309511 L43.2230388,9.06685649 C42.9989722,8.93765261 42.7252902,8.93773002 42.5011735,9.06685649 L36.4976651,12.5318079 C36.273213,12.661282 36.1367317,12.9103725 36.1367317,13.1694359 L36.1367317,20.0993388 C36.1367317,20.3582079 36.2734057,20.5952494 36.4976651,20.7249541 L42.5011735,24.1899056 C42.7256256,24.3194175 42.9985867,24.3194175 43.2230388,24.1899056 L49.2265472,20.7249541 C49.4508066,20.5952494 49.5874806,20.3582079 49.5874806,20.0993388 L49.5874806,2.82270658 C49.5874806,2.55989747 49.4440695,2.31326256 49.2145164,2.18505885 L45.6412857,0.187899663 C45.585173,0.1566 45.5229653,0.151133221 45.4608197,0.151826813 L45.4608197,0.151807083 Z M6.84105177,8.80213508 C6.72656509,8.8067489 6.61900523,8.82677352 6.51621248,8.88637083 L0.51270253,12.3513223 C0.289001686,12.4806415 0.151770658,12.716182 0.151770658,12.9769391 L0.163775717,22.2769442 C0.163775717,22.4063029 0.230510793,22.5264202 0.34424317,22.5897906 C0.455717201,22.6565105 0.594077403,22.6565105 0.705175042,22.5897906 L4.26637487,20.5444685 C4.49195919,20.4104519 4.63933761,20.1773383 4.63933761,19.9188531 L4.63933761,15.5756519 C4.63933761,15.3165885 4.77561855,15.078817 5.00027099,14.9500351 L6.51618668,14.0717868 C6.62932867,14.0063752 6.75079528,13.9755369 6.87711855,13.9755369 C7.00084958,13.9755369 7.12803946,14.0063373 7.23805194,14.0717868 L8.75396762,14.9500351 C8.97861248,15.078817 9.11489949,15.3165885 9.11489949,15.5756519 L9.11489949,19.9188531 C9.11489949,20.1773383 9.26375008,20.4119545 9.48786374,20.5444685 L13.0490636,22.5897906 C13.1609049,22.6565105 13.2990708,22.6565105 13.4099954,22.5897906 C13.5205391,22.5264202 13.5904614,22.4063029 13.5904614,22.2769442 L13.6024664,12.9769391 C13.6024664,12.716182 13.4667562,12.4806415 13.2415346,12.3513223 L7.23803828,8.88637083 C7.13649612,8.82677352 7.0284597,8.80683086 6.91319899,8.80213508 L6.84101231,8.80213508 L6.84105177,8.80213508 Z M60.7884162,8.88637083 C60.6629929,8.88621906 60.5400936,8.91794064 60.4274828,8.98261922 L54.4239744,12.4475707 C54.199715,12.5770826 54.0630425,12.8141241 54.0630425,13.0731875 L54.0630425,20.0030889 C54.0630425,20.2636533 54.2098214,20.4999253 54.4360052,20.6287057 L60.3913902,24.0214705 C60.611318,24.1470562 60.8798519,24.1564492 61.1012231,24.0333997 L64.7105479,22.0241899 C64.8250831,21.9606648 64.9025636,21.8420105 64.9030447,21.7113815 C64.9038035,21.5807145 64.8356707,21.4635992 64.7225788,21.398573 L58.6829762,17.9336216 C58.5698843,17.8691358 58.4904794,17.7384688 58.4904794,17.6087641 L58.4904794,15.4431698 C58.4904794,15.3136958 58.5708465,15.19504 58.6829762,15.1303993 L60.5598253,14.0475642 C60.6714739,13.9829616 60.8086275,13.9829616 60.9207572,14.0475642 L62.7976062,15.1303993 C62.9097359,15.19504 62.9780722,15.3136958 62.9780722,15.4431698 L62.9780722,17.1516218 C62.9780722,17.281287 63.0464084,17.3997501 63.1585381,17.4643907 C63.2711489,17.5292241 63.4073418,17.5294927 63.5194715,17.4643907 L67.1167639,15.3710211 C67.340061,15.2413164 67.4776958,15.0036587 67.4776958,14.7454057 L67.4776958,13.0730661 C67.4776958,12.8147722 67.3405422,12.577154 67.1167639,12.4474492 L61.1493481,8.98249781 C61.0369755,8.91735784 60.9138395,8.88640422 60.7884162,8.88624941 L60.7884162,8.88637083 Z M42.8380437,14.0597363 C42.8693433,14.0597363 42.9061872,14.067431 42.9342921,14.0836052 L44.9916071,15.2747013 C45.0474314,15.3070406 45.0878555,15.3666 45.0878555,15.4310858 L45.0878555,17.8132401 C45.0878555,17.8779187 45.0478169,17.937516 44.9916071,17.9696641 L42.9342921,19.1607207 C42.878275,19.1926761 42.8098432,19.1926761 42.7538261,19.1607207 L40.6965111,17.9696641 C40.6404941,17.9373248 40.6002627,17.8779187 40.6002627,17.8132401 L40.6002627,15.4310858 C40.6002627,15.3666 40.6406868,15.3071954 40.6965111,15.2747013 L42.7538261,14.083798 C42.781931,14.0676283 42.8067395,14.059929 42.8380437,14.059929 L42.8380437,14.0597363 Z"/>
    <path fill="#83CD29" d="M78.7748813,8.71793575 C78.5667415,8.71793575 78.3643811,8.76097791 78.1853585,8.86230911 L72.5187187,12.1347622 C72.152012,12.3458934 71.929196,12.7449789 71.929196,13.1694359 L71.929196,19.702331 C71.929196,20.1265573 72.152012,20.5251799 72.5187187,20.7369668 L73.9985418,21.5911927 C74.7175189,21.9455408 74.982685,21.940074 75.3099298,21.940074 C76.3744401,21.940074 76.9822497,21.2941685 76.9822497,20.1715239 L76.9822497,13.7228661 C76.9822497,13.631699 76.903326,13.5664422 76.8138147,13.5664422 L76.1039818,13.5664422 C76.0130256,13.5664422 75.9355452,13.631699 75.9355452,13.7228661 L75.9355452,20.1715239 C75.9355452,20.6691298 75.4172469,21.1695465 74.5760337,20.7490159 L73.0360563,19.8467044 C72.9816754,19.8170605 72.9398064,19.7647391 72.9398064,19.702331 L72.9398064,13.1694359 C72.9398064,13.1074133 72.9811943,13.0444285 73.0360563,13.0130514 L78.6906637,9.75260944 C78.7435998,9.7221946 78.8066423,9.7221946 78.8590988,9.75260944 L84.5137062,13.0130514 C84.5676061,13.0453907 84.6099546,13.1055268 84.6099546,13.1694359 L84.6099546,19.702331 C84.6099546,19.7647391 84.578655,19.8286482 84.5257371,19.858717 L78.8590988,23.119159 C78.8104927,23.1480334 78.7435998,23.1480334 78.6906637,23.119159 L77.2349024,22.2529204 C77.1915901,22.227511 77.132398,22.2294354 77.090529,22.2529204 C76.6886919,22.4807221 76.6131359,22.5072091 76.2363228,22.6379155 C76.1434437,22.6702548 76.0024381,22.7205744 76.2844477,22.8785373 L78.1853585,23.9974088 C78.3663056,24.102126 78.5679465,24.1537933 78.7748813,24.1537933 C78.9847027,24.1537933 79.183457,24.102126 79.364404,23.9974088 L85.0310423,20.7369668 C85.3977506,20.5236789 85.6205651,20.1265573 85.6205651,19.702331 L85.6205651,13.1694359 C85.6205651,12.7449789 85.3977506,12.3467798 85.0310423,12.1347622 L79.364404,8.86230911 C79.1868248,8.76097791 78.9830211,8.71793575 78.7748813,8.71793575 Z M24.8756403,8.85025852 C24.7505403,8.85025852 24.6267425,8.88182833 24.5147084,8.94650691 L18.5112,12.3994472 C18.2867479,12.5288044 18.1502666,12.7782425 18.1502666,13.0370752 L18.1502666,19.9669766 C18.1502666,20.2261174 18.2868936,20.4629661 18.5112,20.5925934 L24.5147084,24.0575449 C24.7391605,24.1871722 25.0121216,24.1871722 25.2365737,24.0575449 L31.2400821,20.5925934 C31.4641487,20.4629661 31.6010155,20.2261174 31.6010155,19.9669766 L31.6010155,13.0370752 C31.6010155,12.7778585 31.4645342,12.5288044 31.2400821,12.3994472 L25.2365737,8.94650691 C25.1245396,8.88182833 25.0007403,8.85025852 24.8756403,8.85025852 Z M87.1846057,8.88644823 L87.1846057,9.05488331 L87.6538184,9.05488331 L87.6538184,10.2940649 L87.8463152,10.2940649 L87.8463152,9.05488331 L88.3275587,9.05488331 L88.3275587,8.88644823 L87.1846057,8.88644823 Z M88.4959938,8.88644823 L88.4959938,10.2940649 L88.6764597,10.2940649 L88.6764597,9.46394013 C88.6764597,9.43006037 88.6779926,9.37766307 88.6764597,9.30755565 C88.6741528,9.23613845 88.6764597,9.17388516 88.6764597,9.13908111 L88.6764597,9.10289292 L89.0734857,10.2939496 L89.2659825,10.2939496 L89.6750393,9.10289292 C89.6750393,9.17865987 89.6649162,9.25180877 89.6630342,9.31945143 C89.6622754,9.38528499 89.6630342,9.43471973 89.6630342,9.46382479 L89.6630342,10.2939496 L89.8435002,10.2939496 L89.8435002,8.88633288 L89.5788167,8.88633288 L89.1697599,10.077429 L88.7727339,8.88633288 L88.4960196,8.88633288 L88.4959938,8.88644823 Z M80.290797,13.3860718 C78.677188,13.3860718 77.7161459,14.072787 77.7161459,15.214796 C77.7161459,16.453671 78.6699698,16.794044 80.2186103,16.9472717 C82.0713976,17.1286437 82.2157695,17.4006804 82.2157695,17.7653853 C82.2157695,18.39797 81.7114265,18.6676968 80.5193879,18.6676968 C79.021759,18.6676968 78.6925882,18.2938295 78.582383,17.5488268 C78.5694066,17.4689393 78.5077907,17.4044535 78.4259803,17.4044535 L77.6920841,17.4044535 C77.6016106,17.4044535 77.5236491,17.4822602 77.5236491,17.5728885 C77.5236491,18.5265197 78.0424285,19.654285 80.5193879,19.654285 C82.3125005,19.654285 83.3466916,18.9504379 83.3466916,17.7172619 C83.3466916,16.4947492 82.5112533,16.166618 80.7720405,15.9366612 C79.0145393,15.7041243 78.847068,15.5903206 78.847068,15.1787231 C78.847068,14.8389648 78.9890342,14.3846332 80.290797,14.3846332 C81.4534801,14.3846332 81.8832309,14.6353796 82.0593653,15.4193449 C82.0747654,15.4930325 82.1397339,15.5516661 82.2157695,15.5516661 L82.9496656,15.5516661 C82.9949024,15.5516661 83.0386958,15.5239467 83.0699772,15.4914921 C83.1007761,15.4568428 83.1224322,15.4178044 83.1181007,15.3712199 C83.0045277,14.0210818 82.1041209,13.3860718 80.290797,13.3860718 Z M60.7763853,15.0343497 C60.7523995,15.0343497 60.7258548,15.0343497 60.7041987,15.0462789 L59.5492148,15.7200192 C59.5059025,15.7446592 59.4770282,15.7905106 59.4770282,15.8403293 L59.4770282,17.1637482 C59.4770282,17.2135669 59.5059025,17.2592272 59.5492148,17.2840599 L60.7041987,17.9457496 C60.7475094,17.9707735 60.7937099,17.9707735 60.8365396,17.9457496 L61.9915234,17.2840599 C62.0343546,17.2594199 62.0637101,17.2135669 62.0637101,17.1637482 L62.0637101,15.8403293 C62.0637101,15.7905106 62.0343744,15.7448125 61.9915234,15.7200192 L60.8365396,15.0462789 C60.8151339,15.0335757 60.8003894,15.0343497 60.7763853,15.0343497 Z"/>
  </g>
</svg>
