<svg xmlns="http://www.w3.org/2000/svg" xmlns:xlink="http://www.w3.org/1999/xlink" width="120" height="120" viewBox="0 0 120 120">
  <defs>
    <path id="php-a" d="M0.0811373093,22.7808599 C0.0811373093,10.2477982 19.3960298,0.0873786408 43.2212205,0.0873786408 C67.0464112,0.0873786408 86.3613037,10.2479542 86.3613037,22.7808599 C86.3613037,35.3137656 67.0464112,45.4743412 43.2212205,45.4743412 C19.3960298,45.4743412 0.0811373093,35.3134535 0.0811373093,22.7808599"/>
    <radialGradient id="php-c" cx="30.02%" cy="82.422%" r=".344%" fx="30.02%" fy="82.422%" gradientTransform="matrix(.52604 0 0 1 .142 0)">
      <stop offset="0%" stop-color="#AEB2D5"/>
      <stop offset="30%" stop-color="#AEB2D5"/>
      <stop offset="75%" stop-color="#484C89"/>
      <stop offset="100%" stop-color="#484C89"/>
    </radialGradient>
    <polygon id="php-d" points="0 50.555 89.875 50.555 89.875 0 0 0"/>
    <polygon id="php-f" points="0 50.555 89.875 50.555 89.875 0 0 0"/>
  </defs>
  <g fill="none" fill-rule="evenodd" transform="matrix(1 0 0 -1 15.075 85.592)">
    <g transform="translate(1.716 2.497)">
      <mask id="php-b" fill="#fff">
        <use xlink:href="#php-a"/>
      </mask>
      <g fill="url(#php-c)" fill-rule="nonzero" mask="url(#php-b)">
        <path d="M0.0811373093,22.7808599 C0.0811373093,10.2477982 19.3960298,0.0873786408 43.2212205,0.0873786408 C67.0464112,0.0873786408 86.3613037,10.2479542 86.3613037,22.7808599 C86.3613037,35.3137656 67.0464112,45.4743412 43.2212205,45.4743412 C19.3960298,45.4743412 0.0811373093,35.3134535 0.0811373093,22.7808599"/>
      </g>
    </g>
    <mask id="php-e" fill="#fff">
      <use xlink:href="#php-d"/>
    </mask>
    <g mask="url(#php-e)">
      <path fill="#777BB3" fill-rule="nonzero" d="M41.5048544,0 C64.3996186,0 82.9597781,9.40568655 82.9597781,21.0083218 C82.9597781,32.610957 64.3996186,42.0171117 41.5048544,42.0171117 C18.6100902,42.0171117 0.0499306519,32.611113 0.0499306519,21.0087899 C0.0499306519,9.40568655 18.6100902,0 41.5048544,0" transform="translate(3.433 4.27)"/>
    </g>
    <g>
      <mask id="php-g" fill="#fff">
        <use xlink:href="#php-f"/>
      </mask>
      <g mask="url(#php-g)">
        <g transform="translate(14.355 11.546)">
          <path fill="#000" fill-rule="nonzero" d="M10.4542302,10.6102635 C12.3367718,10.6102635 13.7421637,10.9574376 14.6312413,11.6416436 C15.5112691,12.3191401 16.1187067,13.4926664 16.4371706,15.1296117 C16.7341019,16.6596741 16.6209778,17.728034 16.1010749,18.304577 C15.5694695,18.8934466 14.4201283,19.1920943 12.6850381,19.1920943 L9.67671637,19.1920943 L8.00872053,10.6102635 L10.4542302,10.6102635 Z M0.614303051,0.0390083218 C0.474653259,0.0390083218 0.342024965,0.101421637 0.253242025,0.209396671 C0.164303051,0.317059639 0.128415395,0.459049931 0.154941054,0.596359223 L4.57505201,23.3382108 C4.61874133,23.5582178 4.81066227,23.7170596 5.03535021,23.7170596 L14.5611824,23.7170596 C17.5554612,23.7170596 19.7836165,22.9041262 21.1847954,21.3005721 C22.593776,19.6887483 23.0275485,17.4353155 22.4779993,14.6036234 C22.2540915,13.4497573 21.8686893,12.3782767 21.332715,11.418984 C20.7959605,10.4585992 20.0869452,9.5699896 19.2247053,8.7773405 C18.1903606,7.81102635 17.0229196,7.11043689 15.7531207,6.69850902 C14.5048544,6.29126214 12.9011442,6.0852982 10.9869279,6.0852982 L7.12947295,6.0852982 L6.02787795,0.417857143 C5.98512483,0.197850208 5.79257975,0.0390083218 5.56851595,0.0390083218 L0.614459085,0.0390083218 L0.614303051,0.0390083218 Z" transform="translate(.426 .516)"/>
          <path fill="#FFF" fill-rule="nonzero" d="M10.4542302,19.1920943 L13.0768377,19.1920943 C15.1708044,19.1920943 15.8983877,18.7325763 16.1455444,18.4587379 C16.5555999,18.0040569 16.6329924,17.0453883 16.3694521,15.6864945 C16.073301,14.1651699 15.5243759,13.0865118 14.737656,12.4807906 C13.9322122,11.8607143 12.6227809,11.5464632 10.8461859,11.5464632 L8.96816921,11.5464632 L10.4542302,19.1920943 Z M14.9526699,24.6532594 L5.42621359,24.6532594 C4.97808599,24.6532594 4.59299584,24.3355756 4.50717753,23.8957178 L0.0872226075,1.15386616 C0.032610957,0.879247573 0.105946602,0.59526699 0.282264216,0.379628988 C0.460142164,0.163834951 0.725398752,0.0390083218 1.00469834,0.0390083218 L5.9587552,0.0390083218 C6.40657074,0.0390083218 6.79197295,0.356692094 6.87779126,0.796549931 L7.90620666,6.0852982 L11.3779473,6.0852982 C13.340846,6.0852982 14.9943308,6.29937587 16.2898752,6.72144591 C17.6223994,7.15443828 18.8488211,7.8885749 19.9341886,8.9034154 C20.83138,9.73039182 21.5709778,10.6572295 22.1311373,11.6589632 C22.6912968,12.6606969 23.0938627,13.781016 23.3274445,14.9824723 C23.9071082,17.9642684 23.4361997,20.3515777 21.9278259,22.0773058 C20.4352115,23.7872746 18.0881588,24.6532594 14.953138,24.6532594 L14.9526699,24.6532594 Z M7.83287101,10.6102635 L10.8458738,10.6102635 C12.8434119,10.6102635 14.3311893,10.9863037 15.3087379,11.7390083 C16.2864424,12.4917129 16.9458391,13.7480929 17.2884882,15.5081484 C17.6161581,17.198457 17.4669903,18.3911755 16.8406727,19.0859917 C16.2134189,19.7808079 14.9589112,20.128294 13.0766817,20.128294 L9.6824896,20.128294 L7.83255895,10.6102635 L7.83287101,10.6102635 Z M14.9526699,23.7170596 C17.8186893,23.7170596 19.9093793,22.9649792 21.2236477,21.4608183 C22.537448,19.9563454 22.9331484,17.8564494 22.4088766,15.1608183 C22.1930825,14.0503294 21.8281207,13.0350208 21.3143031,12.1150485 C20.8009535,11.1947642 20.1284501,10.3531207 19.298353,9.58980583 C18.3091019,8.66452843 17.2106276,8.00450763 16.0013696,7.61239598 C14.7919556,7.21763176 13.2519071,7.02149792 11.3795076,7.02149792 L7.13540222,7.02149792 L5.9601595,0.975208044 L1.00610264,0.975208044 L5.42621359,23.7170596 L14.9526699,23.7170596 Z" transform="translate(.034 .048)"/>
          <path fill="#000" fill-rule="nonzero" d="M12.6386963,0 C12.4988904,0 12.3664182,0.0624133148 12.2776352,0.17038835 C12.1886963,0.278051318 12.1524965,0.420041609 12.1793343,0.557350902 L14.1344313,10.6199376 C14.320423,11.5767337 14.2745492,12.2635922 14.0053918,12.5538141 C13.8401526,12.731224 13.345527,13.0287795 11.8819348,13.0287795 L8.3399792,13.0287795 L5.88167476,0.378848821 C5.8387656,0.158841886 5.64606449,0 5.42215673,0 L0.507108183,0 C0.367302358,0 0.234830097,0.0624133148 0.145891123,0.17038835 C0.0569521498,0.278051318 0.0210644938,0.420041609 0.0475901526,0.557350902 L4.46770111,23.2992025 C4.51045423,23.5192094 4.70331137,23.6780513 4.92721914,23.6780513 L9.84226768,23.6780513 C9.98207351,23.6780513 10.1145458,23.615638 10.2034847,23.507975 C10.2924237,23.399844 10.3283114,23.2580097 10.3017857,23.1207004 L9.23514216,17.6317614 L13.0459431,17.6317614 C15.9487864,17.6317614 17.9173024,17.1199723 19.063835,16.0670596 C20.2325243,14.9929265 20.5971741,13.2756241 20.1477982,10.9616505 L18.0912795,0.379160888 C18.0483703,0.158841886 17.8559813,0 17.6317614,0 L12.6386963,0 Z" transform="translate(21.623 6.602)"/>
          <path fill="#FFF" fill-rule="nonzero" d="M10.2981969,24.6532594 L5.3831484,24.6532594 C4.93486477,24.6532594 4.54961859,24.3355756 4.46411234,23.8957178 L0.044001387,1.15386616 C-0.00936199723,0.879247573 0.0627253814,0.59526699 0.240603329,0.379628988 C0.418481276,0.163834951 0.683425798,0.0390083218 0.963037448,0.0390083218 L5.87808599,0.0390083218 C6.32621359,0.0390083218 6.71161581,0.356692094 6.79712205,0.796549931 L9.18177878,13.0677878 L12.3383322,13.0677878 C13.7991158,13.0677878 14.1057212,12.7557212 14.1180479,12.7423024 C14.2069868,12.6471221 14.3240118,12.2055479 14.1320908,11.2162968 L12.1769938,1.15371012 C12.1239424,0.87909154 12.1957178,0.595423024 12.3735957,0.379785021 C12.5514736,0.163834951 12.8167302,0.0390083218 13.0960298,0.0390083218 L18.089095,0.0390083218 C18.5369105,0.0390083218 18.9223128,0.356692094 19.0081311,0.796549931 L21.0629334,11.3795076 C21.5457004,13.8635576 21.1328363,15.7272191 19.8365118,16.9186893 C18.5994799,18.0546117 16.5273578,18.6069695 13.5015603,18.6069695 L10.2588766,18.6069695 L11.217233,23.5384015 C11.2702843,23.8130201 11.198509,24.0970007 11.0206311,24.3123266 C10.8427531,24.5284327 10.5778086,24.6532594 10.2981969,24.6532594 M10.2981969,23.7170596 L9.1232663,17.6707698 L13.5015603,17.6707698 C16.2567961,17.6707698 18.1571255,17.1898752 19.2030166,16.2293343 C20.2489078,15.2681692 20.5620666,13.710957 20.1442094,11.5580097 L18.0876907,0.975208044 L13.0946255,0.975208044 L15.0497226,11.0374827 C15.2723821,12.1821429 15.1906207,12.9629334 14.8042822,13.3792302 C14.4173197,13.795527 13.5950243,14.0039875 12.337396,14.0039875 L8.40847781,14.0039875 L5.87605756,0.975208044 L0.961009015,0.975208044 L5.3831484,23.7170596 L10.2981969,23.7170596" transform="translate(21.167 6.095)"/>
          <path fill="#000" fill-rule="nonzero" d="M10.4542302,10.6102635 C12.3367718,10.6102635 13.7421637,10.9574376 14.6312413,11.6416436 C15.5112691,12.318828 16.1187067,13.4925104 16.4373266,15.1296117 C16.734258,16.6596741 16.6211338,17.728034 16.1010749,18.304577 C15.5694695,18.8934466 14.4201283,19.1920943 12.6850381,19.1920943 L9.67671637,19.1920943 L8.00872053,10.6102635 L10.4542302,10.6102635 Z M0.614459085,0.0390083218 C0.474809293,0.0390083218 0.342180999,0.101421637 0.253398058,0.209396671 C0.164459085,0.317059639 0.128259362,0.459049931 0.155097087,0.596359223 L4.57505201,23.3382108 C4.61874133,23.5582178 4.81066227,23.7170596 5.03535021,23.7170596 L14.5611824,23.7170596 C17.5554612,23.7170596 19.7836165,22.9041262 21.1847954,21.3005721 C22.593776,19.6887483 23.0275485,17.4356276 22.4783114,14.6036234 C22.2545596,13.4497573 21.8693135,12.3782767 21.333027,11.418984 C20.7962725,10.4585992 20.0875693,9.5699896 19.2250173,8.7773405 C18.1903606,7.81102635 17.0229196,7.11043689 15.7531207,6.69850902 C14.5048544,6.29126214 12.9011442,6.0852982 10.9869279,6.0852982 L7.12916089,6.0852982 L6.02819001,0.417857143 C5.98528086,0.197850208 5.79257975,0.0390083218 5.56851595,0.0390083218 L0.614459085,0.0390083218 Z" transform="translate(39.094 .516)"/>
          <path fill="#FFF" fill-rule="nonzero" d="M10.4542302,19.1920943 L13.0768377,19.1920943 C15.1708044,19.1920943 15.8983877,18.7325763 16.1455444,18.4587379 C16.5559119,18.0040569 16.6331484,17.0453883 16.3694521,15.6866505 C16.073301,14.1653259 15.5242198,13.0865118 14.737656,12.4807906 C13.9322122,11.8607143 12.6227809,11.5464632 10.8461859,11.5464632 L8.96832524,11.5464632 L10.4542302,19.1920943 Z M14.9526699,24.6532594 L5.42636963,24.6532594 C4.97824202,24.6532594 4.59315187,24.3355756 4.50733356,23.8957178 L0.0873786408,1.15386616 C0.0340152566,0.879247573 0.106102635,0.59526699 0.283980583,0.379628988 C0.46185853,0.163834951 0.726647018,0.0390083218 1.0064147,0.0390083218 L5.96047157,0.0390083218 C6.4082871,0.0390083218 6.79368932,0.356692094 6.87950763,0.796549931 L7.90698682,6.0852982 L11.3787275,6.0852982 C13.3416262,6.0852982 14.9944868,6.29937587 16.2903433,6.72144591 C17.6228675,7.15443828 18.8492892,7.8885749 19.9346567,8.90372746 C20.8318481,9.72914355 21.5698856,10.6559813 22.1300451,11.6584951 C22.6903606,12.6613211 23.0929265,13.7796117 23.3269764,14.9823162 C23.9066401,17.9633322 23.4357316,20.3503294 21.9273578,22.0766817 C20.4352115,23.7863384 18.0876907,24.6532594 14.952982,24.6532594 L14.9526699,24.6532594 Z M7.83287101,10.6102635 L10.8458738,10.6102635 C12.8434119,10.6102635 14.3311893,10.9863037 15.3087379,11.7390083 C16.2867545,12.4917129 16.9458391,13.7480929 17.2884882,15.5081484 C17.6164702,17.198457 17.4671463,18.3911755 16.8406727,19.0859917 C16.2134189,19.7808079 14.9589112,20.128294 13.0766817,20.128294 L9.6824896,20.128294 L7.83287101,10.6102635 Z M14.9526699,23.7170596 C17.8186893,23.7170596 19.9093793,22.9649792 21.2236477,21.4608183 C22.537448,19.9563454 22.9331484,17.8564494 22.4088766,15.1608183 C22.1930825,14.0503294 21.8281207,13.0350208 21.3143031,12.1150485 C20.8009535,11.1947642 20.1284501,10.3531207 19.298353,9.58980583 C18.3091019,8.66452843 17.2106276,8.00450763 16.0013696,7.61239598 C14.7919556,7.21763176 13.2519071,7.02149792 11.3795076,7.02149792 L7.13540222,7.02149792 L5.96047157,0.975208044 L1.0064147,0.975208044 L5.42621359,23.7170596 L14.9526699,23.7170596 Z" transform="translate(38.702 .048)"/>
        </g>
      </g>
    </g>
  </g>
</svg>
