<svg xmlns="http://www.w3.org/2000/svg" width="120" height="120" viewBox="0 0 120 120">
  <defs>
    <linearGradient id="python-a" x1="12.959%" x2="79.639%" y1="11.7%" y2="78.453%">
      <stop offset="0%" stop-color="#387EB8"/>
      <stop offset="100%" stop-color="#366994"/>
    </linearGradient>
    <linearGradient id="python-b" x1="19.128%" x2="90.742%" y1="20.316%" y2="88.773%">
      <stop offset="0%" stop-color="#FFE052"/>
      <stop offset="100%" stop-color="#FFC331"/>
    </linearGradient>
  </defs>
  <g fill="none" transform="translate(20 20)">
    <path fill="url(#python-a)" d="M40.2212389,0.707964602 C20.375765,0.707966018 21.6150442,9.31415929 21.6150442,9.31415929 L21.6371681,18.2300885 L40.5752212,18.2300885 L40.5752212,20.9070796 L14.1150442,20.9070796 C14.1150442,20.9070796 1.4159292,19.4668842 1.4159292,39.4911504 C1.41592779,59.5154124 12.5,58.8053097 12.5,58.8053097 L19.1150442,58.8053097 L19.1150442,49.5132743 C19.1150442,49.5132743 18.7584765,38.4292035 30.0221239,38.4292035 C41.2857699,38.4292035 48.8053097,38.4292035 48.8053097,38.4292035 C48.8053097,38.4292035 59.3584071,38.5997947 59.3584071,28.2300885 C59.3584071,17.8603851 59.3584071,11.0840708 59.3584071,11.0840708 C59.3584071,11.0840694 60.9606584,0.707964602 40.2212389,0.707964602 Z M29.7787611,6.70353982 C31.6629586,6.70353841 33.1858407,8.22642195 33.1858407,10.1106195 C33.1858421,11.994817 31.6629586,13.5176991 29.7787611,13.5176991 C27.8945635,13.5177005 26.3716814,11.994817 26.3716814,10.1106195 C26.37168,8.22642195 27.8945635,6.70353982 29.7787611,6.70353982 Z"/>
    <path fill="url(#python-b)" d="M40.7848496,78.475115 C60.6303292,78.475115 59.3910442,69.8689204 59.3910442,69.8689204 L59.3689204,60.9529912 L40.4308673,60.9529912 L40.4308673,58.276 L66.8910442,58.276 C66.8910442,58.276 79.5901593,59.7161912 79.5901593,39.6919221 C79.5901664,19.6676623 68.5060885,20.377765 68.5060885,20.377765 L61.8910442,20.377765 L61.8910442,29.6697982 C61.8910442,29.6697982 62.2476177,40.753869 50.9839646,40.753869 C39.7203172,40.753869 32.2007773,40.753869 32.2007773,40.753869 C32.2007773,40.753869 21.64768,40.5832779 21.64768,50.9529912 C21.64768,61.3226903 21.64768,68.0990088 21.64768,68.0990088 C21.64768,68.0990088 20.0454287,78.475115 40.7848496,78.475115 Z M51.2273274,72.4795398 C49.3431292,72.4795398 47.8202478,70.9566584 47.8202478,69.0724602 C47.8202478,67.1882619 49.3431292,65.6653805 51.2273274,65.6653805 C53.1115257,65.6653805 54.6344071,67.1882619 54.6344071,69.0724602 C54.6344142,70.9566584 53.1115257,72.4795398 51.2273274,72.4795398 Z"/>
  </g>
</svg>
