<svg xmlns="http://www.w3.org/2000/svg" width="120" height="120" viewBox="0 0 120 120">
  <g fill="none" transform="translate(20 20)">
    <path fill="#010101" d="M29.90304,1.40224 C40.22848,-1.24576 51.64032,0.29728 60.74656,5.91744 C72.21536,12.776 79.70272,25.74976 79.89312,39.10464 C80.31232,52.59264 73.28224,65.96672 61.98496,73.30144 C49.4112,81.76 32.0176,82.08416 19.17696,74.04448 C6.08896,66.23328 -1.55072,50.47808 0.41184,35.35136 C1.99264,19.36736 14.33824,5.26976 29.90304,1.40256 L29.90304,1.40224 Z"/>
    <path fill="#FFF" d="M28.3216,7.93696 C47.83008,0.12576 71.7584,14.54752 73.7776,35.46592 C76.92128,54.28832 61.2992,73.41568 42.2288,73.96832 C24.09216,75.77824 6.56512,60.40352 6.05088,42.19104 C4.69824,27.44544 14.4144,12.81408 28.3216,7.93696 Z"/>
    <path fill="#010101" d="M30.28384,37.9808 C39.02848,30.83648 47.5824,23.44448 56.51744,16.50976 C51.83072,23.71136 47.01088,30.81728 42.32416,38.01856 C38.30432,38.03776 34.2848,38.03776 30.28384,37.98048 L30.28384,37.9808 Z M37.67584,41.96224 C41.71456,41.96224 45.7344,41.96224 49.75424,42.01952 C40.95264,49.12544 32.4368,56.5744 23.48256,63.49024 C28.16928,56.28864 32.98912,49.16384 37.67584,41.96224 Z"/>
  </g>
</svg>
