<svg xmlns="http://www.w3.org/2000/svg" width="120" height="120" viewBox="0 0 120 120">
  <g transform="translate(20 20)">
    <path d="M5.68578125 39.9990625C5.68578125 53.580625 13.578125 65.3195312 25.025625 70.880625L8.6571875 26.0339062C6.753125 30.30125 5.68578125 35.0239062 5.68578125 39.9990625zM63.16375 38.2682812C63.16375 34.02625 61.6396875 31.0901562 60.3348437 28.805 58.5959375 25.9770313 56.9642188 23.5846875 56.9642188 20.756875 56.9642188 17.6029687 59.3559375 14.6664063 62.7265625 14.6664063 62.8789063 14.6664063 63.023125 14.6853125 63.17125 14.694375 57.066875 9.10046875 48.9329688 5.68484375 40 5.68484375 28.0117188 5.68484375 17.4653125 11.8364062 11.33 21.1510937 12.1351563 21.1770312 12.894375 21.1928125 13.5384375 21.1928125 17.1265625 21.1928125 22.6832813 20.7567188 22.6832813 20.7567188 24.5320313 20.6482813 24.7504687 23.365625 22.9028125 23.5846875 22.9028125 23.5846875 21.0434375 23.8020312 18.975625 23.910625L31.4707813 61.0796875 38.9809375 38.55875 33.6353125 23.910625C31.7867188 23.8020312 30.03625 23.5846875 30.03625 23.5846875 28.1865625 23.4753125 28.4035938 20.6485937 30.2540625 20.7567187 30.2540625 20.7567187 35.919375 21.1928125 39.29125 21.1928125 42.8789063 21.1928125 48.4371875 20.7567187 48.4371875 20.7567187 50.286875 20.6482812 50.505 23.365625 48.655625 23.5846875 48.655625 23.5846875 46.7940625 23.8021875 44.7285938 23.910625L57.129375 60.79625 60.5528125 49.3609375C62.034375 44.6126563 63.16375 41.2045313 63.16375 38.2682812z"/>
    <path d="M40.601875 43.0003125L30.3053125 72.916875C33.380625 73.82125 36.6315625 74.315 39.9996875 74.315 43.9954687 74.315 47.8278125 73.6251563 51.394375 72.3698438 51.3034375 72.2229687 51.2179687 72.0667187 51.14875 71.896875L40.601875 43.0003125zM70.1098437 23.5370312C70.2575 24.6298437 70.3409375 25.8020312 70.3409375 27.0657812 70.3409375 30.5459375 69.6890625 34.4604687 67.7314062 39.3557812L57.2510937 69.6585937C67.4521875 63.710625 74.3128125 52.6582812 74.3128125 39.999375 74.3128125 34.0326562 72.7884375 28.4239063 70.1098437 23.5370312z"/>
    <path d="M39.9996875,0 C17.9432812,0 0.00015625,17.943125 0.00015625,39.9990625 C0.00015625,62.0560938 17.9432812,80 39.9996875,80 C62.0554687,80 80,62.0559375 80,39.9990625 C80.0003125,17.9429687 62.0554687,0 39.9996875,0 Z M39.9996875,78.1659375 C18.9551562,78.1659375 1.8340625,61.04375 1.8340625,39.9990625 C1.8340625,18.9546875 18.9551562,1.8340625 39.9996875,1.8340625 C61.0434375,1.8340625 78.1653125,18.9548437 78.1653125,39.9990625 C78.1653125,61.04375 61.0434375,78.1659375 39.9996875,78.1659375 Z"/>
  </g>
</svg>
