<svg xmlns="http://www.w3.org/2000/svg" width="79" height="80" viewBox="0 0 79 80">
  <g fill="none" fill-rule="evenodd">
    <path fill="#333" fill-rule="nonzero" d="M8.63888889,0.888888889 C3.89321156,0.888888889 0,4.73898667 0,9.47222222 L0,42.0833333 C0,46.8165778 3.89320267,50.6666667 8.63888889,50.6666667 L13.7222222,50.6666667 L13.7222222,66.6666667 C13.7185778,67.4067529 14.2157787,68.1234187 14.9166667,68.3611111 C15.6175547,68.5988036 16.4693787,68.33964 16.9166667,67.75 L30.2222222,50.6666667 L36.4444444,50.6666667 L36.4444444,42.25 C36.4444444,38.1348 39.7708498,34.6666667 43.9166667,34.6666667 L67.5555556,34.6666667 L67.5555556,9.47222222 C67.5555556,4.73898667 63.662344,0.888888889 58.9166667,0.888888889 L8.63888889,0.888888889 Z"/>
    <path fill="#1880BB" d="M43.9166667,36.4444444 C40.7647707,36.4444444 38.2222222,39.0876889 38.2222222,42.25 L38.2222222,64.3611111 C38.2222222,67.5234222 40.7647707,70.1666667 43.9166667,70.1666667 L58.7777778,70.1666667 L67.3888889,78.5833333 C67.8971154,79.0856902 68.6567168,79.2349537 69.3172427,78.9622595 C69.9777686,78.6895653 70.4108447,78.047912 70.4166667,77.3333333 L70.4166667,70.1666667 L72.5277778,70.1666667 C75.6796738,70.1666667 78.2222222,67.5234222 78.2222222,64.3611111 L78.2222222,42.25 C78.2222222,39.0876889 75.6796738,36.4444444 72.5277778,36.4444444 L43.9166667,36.4444444 Z"/>
    <g fill="#2697D8" fill-rule="nonzero" transform="translate(12 13)">
      <path d="M9.46615385 7.90769231L5.61 11.7638462C5.30923077 12.0646154 5.30923077 12.5507692 5.61 12.8515385 5.76 13.0015385 5.95692308 13.0769231 6.15384615 13.0769231 6.35076923 13.0769231 6.54769231 13.0015385 6.69769231 12.8515385L10.5538462 8.99538462C10.8546154 8.69461538 10.8546154 8.20846154 10.5538462 7.90769231 10.2530769 7.60692308 9.76615385 7.60769231 9.46615385 7.90769231zM16.6876923 7.90769231C16.3869231 7.60692308 15.9007692 7.60692308 15.6 7.90769231 15.2992308 8.20846154 15.2992308 8.69461538 15.6 8.99538462L20.2346154 13.63C20.3846154 13.78 20.5815385 13.8553846 20.7784615 13.8553846 20.9753846 13.8553846 21.1723077 13.78 21.3223077 13.63 21.6230769 13.3292308 21.6230769 12.8430769 21.3223077 12.5423077L16.6876923 7.90769231zM34.39 5.61C34.0892308 5.30923077 33.6030769 5.30923077 33.3023077 5.61L25.61 13.3023077C25.3092308 13.6030769 25.3092308 14.0892308 25.61 14.39 25.76 14.54 25.9569231 14.6153846 26.1538462 14.6153846 26.3507692 14.6153846 26.5476923 14.54 26.6976923 14.39L34.39 6.69769231C34.6907692 6.39692308 34.6907692 5.91076923 34.39 5.61z"/>
      <circle cx="3.855" cy="15.375" r="3.846"/>
      <circle cx="13.077" cy="6.154" r="3.846"/>
      <circle cx="36.923" cy="3.846" r="3.846"/>
      <circle cx="23.077" cy="16.154" r="3.846"/>
    </g>
    <rect width="22" height="3" x="47.055" y="48.075" fill="#FFF" fill-rule="nonzero"/>
    <rect width="14" height="3" x="47.055" y="55.711" fill="#FFF" fill-rule="nonzero"/>
  </g>
</svg>
