<svg id="Layer_1" data-name="Layer 1" xmlns="http://www.w3.org/2000/svg" xmlns:xlink="http://www.w3.org/1999/xlink" viewBox="0 0 246.93 288.57"><defs><style>.cls-1{fill:#f6e337;}.cls-2{fill:url(#linear-gradient);}.cls-3{fill:#fff;}.cls-4{opacity:0.05;}</style><linearGradient id="linear-gradient" x1="40.81" y1="150" x2="256.23" y2="150" gradientUnits="userSpaceOnUse"><stop offset="0" stop-color="#bb282c"/><stop offset="1" stop-color="#f05051"/></linearGradient></defs><title>Cricket API logo_v3</title><path class="cls-1" d="M149.68,23.47C140.77,29.85,96.87,59.75,41,71.84c-5.29,126.73,90.66,193.93,107.46,204.69,16.13-10,113-75.79,107.53-205.52C202.25,59.37,160.89,31.56,149.68,23.47Z" transform="translate(-24.53 -5.71)"/><path class="cls-2" d="M149.68,23.47C140.77,29.85,96.87,59.75,41,71.84c-5.29,126.73,90.66,193.93,107.46,204.69,16.13-10,113-75.79,107.53-205.52C202.25,59.37,160.89,31.56,149.68,23.47Z" transform="translate(-24.53 -5.71)"/><path class="cls-3" d="M238.91,119.36a1.6,1.6,0,0,0,1.55-1.79V112.3a1.61,1.61,0,0,0-1.55-1.8h-2.85a22.93,22.93,0,0,0-1.41-3.42l2-2a1.8,1.8,0,0,0,0-2.54l-3.72-3.72a1.8,1.8,0,0,0-2.54,0l-2.1,2a13,13,0,0,0-3.59-1.46V96.56a1.61,1.61,0,0,0-1.55-1.8h-5.27a2,2,0,0,0-2,1.8v2.67a23.18,23.18,0,0,0-3.45,1.44l-1.8-1.86a1.76,1.76,0,0,0-2.51,0l-3.71,3.72a1.8,1.8,0,0,0,0,2.54l1.81,1.81a13.06,13.06,0,0,0-1.53,3.62h-2.53a2,2,0,0,0-2,1.8v5.26a2,2,0,0,0,2,1.79h2.51a13.27,13.27,0,0,0,1.52,3.66l-1.78,1.79a1.8,1.8,0,0,0,0,2.54l3.72,3.72a1.8,1.8,0,0,0,2.54,0l1.69-1.82a23.54,23.54,0,0,0,3.5,1.47v2.6a2,2,0,0,0,2,1.79h5.27a1.6,1.6,0,0,0,1.55-1.79v-2.69a13.22,13.22,0,0,0,3.63-1.49l2,1.93a1.84,1.84,0,0,0,2.58,0l3.74-3.72a1.79,1.79,0,0,0,0-2.54l-2-2a23.12,23.12,0,0,0,1.41-3.46h2.83Zm-18.55,2.44A6.83,6.83,0,1,1,227.2,115,6.83,6.83,0,0,1,220.36,121.8Z" transform="translate(-24.53 -5.71)"/><path class="cls-4" d="M149.68,23.47C140.77,29.85,96.87,59.75,41,71.84c-5.29,126.73,90.66,193.93,107.46,204.69" transform="translate(-24.53 -5.71)"/><path class="cls-3" d="M207.26,222.13a14.78,14.78,0,0,0,0-2.32,5.83,5.83,0,0,0-1-2.14c-0.48-.67-1.1-0.86-1.12-1.16a28,28,0,0,0-1.13-2.65l-2.46-5.74a81.07,81.07,0,0,0-3.32-7.71c-1.07-1.79-2.33-1.78-2.75-1.69a1,1,0,0,0-.51.81,6.53,6.53,0,0,0-3.26.69,2.19,2.19,0,0,0-1.31,1.73,6.27,6.27,0,0,0-2.19,1,3.15,3.15,0,0,0-1.1,1.71,3.21,3.21,0,0,0-1.35.75,13.07,13.07,0,0,0-1.48,1.78s-2.42-2-3.23-2.78-6.9-5.25-8.43-6.46-9.16-5.18-9.13-5.33-0.18-1.08-.66-0.75a1.56,1.56,0,0,1-1.31-.09,8.71,8.71,0,0,0-.66-1.41,1.78,1.78,0,0,0-.75-0.72l-0.36-.51c-0.36-.51-1-1.83-1.37-2.51a33.56,33.56,0,0,0-2.15-3.08,11,11,0,0,0-3.38-3,4.34,4.34,0,0,0-3.7,0,2,2,0,0,0,.61-1.38,58.29,58.29,0,0,0-.27-8.92c-0.18-1-1.17-9.55-1.17-9.55s5.88,2.42,6.32,2,2.69-.18,2.69-0.18a59.67,59.67,0,0,0-2.46,5.47,1.31,1.31,0,0,0,.9,1.48,25.52,25.52,0,0,0,3.41.9,0.68,0.68,0,0,0,.72-0.54l2.6-7.22,1.21,0.49a6.32,6.32,0,0,0,3.45.45,2.9,2.9,0,0,0,1.52-.81,1.1,1.1,0,0,1,.49-0.72c0.32-.22.68-0.63,0.27-0.94a1.19,1.19,0,0,1-.4-0.86,5.08,5.08,0,0,1,1-.72c0.63-.36.32-2.33,0.32-2.33l0.45-.09a2.66,2.66,0,0,0,1.93-1.08,1.64,1.64,0,0,0,0-1.93l0.63-.63s-0.36-.09.9,0a1.91,1.91,0,0,0,1.8-1l0.76-.13s2.07-.18,2-0.9,0.32-1.06.61-2.62,1.62-7,1.62-7c0.84,0.12.66-.66,0.12-1.79s-3.17-3.41-3.17-3.41l0.78,0.06,0.84-1.32,12.73-31.27S204,73,204.79,70.56s-0.36-2.69-2.33-4.55-6.69-3-8.31-3.11a2,2,0,0,0-2,1.37L189.42,71,172,114.53l-6,14.4a5.88,5.88,0,0,0-.54,2c0-.08-0.18-0.38-2.51-0.11-2.69.31-2,3.5-1.35,4.44a5.34,5.34,0,0,0,2.52,1.46,3.84,3.84,0,0,0-.33.78,1.57,1.57,0,0,0,.45,1.8l-0.76.09a1.13,1.13,0,0,0-.88,1.66,5.48,5.48,0,0,0,1.73,1.91s0.24,0.06-1.26.18-0.54,1.85-.54,1.85-0.06.36-1.55,0.36-3.77,1.37-4.61,1.2a21.08,21.08,0,0,1-4.72-1.61c-0.83-.6-2.27-1.5-2.27-1.5a1,1,0,0,0-.6-0.78,15,15,0,0,1-2.51-1.5,22,22,0,0,0-2.68-1.43s-1-2.09-1.68-3.59-2.15-4.07-2.87-5.44a7.48,7.48,0,0,1-.42-3.65l0.9,0.9,0.3-1.85a8.88,8.88,0,0,0-1.26-1.43c-0.78-.72-2-2-2-2l-0.36-3.65,2.67-.95a8.12,8.12,0,0,0,3.95,2c0.48,0.14,1,.28,1.43.45l1.16,0.42a6.36,6.36,0,0,0,1.89.53A1,1,0,0,0,148,121c0.59-.62,3.77-6.22,4.61-7.79,0.67-1.27.69-1.54,0.64-2.1l0.09-.1-0.1,0c0-.13,0-0.26,0-0.45,0-1-.28-5.06-0.33-5.89a0.2,0.2,0,0,0,.05-0.16c0-.25-0.27-0.3-0.73-0.36-2.24-.27-5.56-0.35-6.86-0.37a10.33,10.33,0,0,1-1.73-2.55c-0.88-2-.24-1.79.48-2.57a0.78,0.78,0,0,0,.06-1.26,39.14,39.14,0,0,1,5.8-1.26c2.39-.24.12-1.38-1.19-2.45s-2.15-4.91-4.72-9.09A18.78,18.78,0,0,0,133,76.71c-4.3-1.25-10.28.48-10.28,0.48-2.49.9-7.6,2.9-10.83,7.77s-3.61,12-3.44,16.56,1.7,4.66,3.2,4.15a4.86,4.86,0,0,1-.39,1.59c-0.36.81,0.63,2.06,0.63,2.06a10.8,10.8,0,0,1-2.78.45,2.21,2.21,0,0,0-1.88,1.44l1.35,6.46s0.36,0.72-.63.81-0.63,1.52-.54,1.88-2.33,3.5-3.86,7.35a39.06,39.06,0,0,0-2.33,11.75c-0.27,3.85.81,10,1.17,12.47s0.09,6.1.72,8.43,0.36,4.12.71,6.28a11.56,11.56,0,0,1-.54,5.65,8.69,8.69,0,0,0,.36,5.38c0.63,2,.72,4.21,1.79,5.74s1.17,1.08.45,2.6-0.27,2.33-1.35,3.23-1.52,2.87-1.89,4.3-1,2.33-1.79,5.2,0.8,2-.81,3.86-1.26,2.15-1.88,4.39a12.82,12.82,0,0,1-2,4.57c-1.52,2.69-.18,4.48-0.8,7a47.63,47.63,0,0,0-.81,7.26s-0.36-.45-1.26,1.71c-0.29.7-.57,0.29-0.55,0.89,7.72,9.4,14.44,16.81,23.63,24.7,1.85-1.79,3.83-3.79,4.19-4.24,0.49-.63.89-1.84,0.18-2.29a4.6,4.6,0,0,0-2.38-.18s-0.23.11-1.07-.67a9.73,9.73,0,0,0-1.7-1.25l3.59-3.11s8.64-6.94,9.81-7.86a34.1,34.1,0,0,1,3.62-2.28l0.11-.08A24.82,24.82,0,0,1,143,227.89c3.56-.12,12.56,2.75,12.56,2.75,1.7,0.24,13.78,3.44,16.14,3.91a68.07,68.07,0,0,0,7.45.69,13.25,13.25,0,0,0,1,1.52,8,8,0,0,0,1.59,1.55,5.65,5.65,0,0,0-.21,2.18c0.15,1.08,2.28,2.54,2.28,2.54s0.57,3.68.63,5.14a8.57,8.57,0,0,0,.35,1.86,250.14,250.14,0,0,0,23.78-26.73,6.13,6.13,0,0,0-.57-1.22C207.65,221.71,207.26,222.13,207.26,222.13ZM147.75,120.75c-0.33.36-.88,0.17-2.2-0.32l-1.17-.42c-0.48-.16-1-0.31-1.45-0.45l-0.71-.22,2.14-.41c1.61,0.8,3,1.59,3.38,1.82h0Zm-2.72-2c1.18-.25,2.13-0.47,2.87-0.68-0.42.66-.8,1.24-1.08,1.63C146.32,119.46,145.71,119.13,145,118.79Zm3,1.62-0.81-.47c0.29-.4.76-1.13,1.31-2a5.61,5.61,0,0,0,1.37-.59C149.11,118.65,148.4,119.83,148,120.41Zm0.83-3,0.57-.94a0.84,0.84,0,0,1,.48.32A1.61,1.61,0,0,1,148.83,117.4ZM152.3,113c-0.4.75-1.2,2.19-2,3.62a1,1,0,0,0-.64-0.57,38.75,38.75,0,0,0,2.23-4.18,6.28,6.28,0,0,0,1.06-.44A3.67,3.67,0,0,1,152.3,113ZM152,111.41a2.86,2.86,0,0,0,.07-0.29l0.42,0.09Zm0.5-6.6c0.07,1.08.33,4.84,0.33,5.74,0,0.14,0,.23,0,0.34l-0.71-.17c0-1.31-.31-5.13-0.37-5.79C152.13,104.88,152.36,104.85,152.54,104.81Zm-0.76-.3c-1.33.15-3.84,0.31-5.55,0.4a2.6,2.6,0,0,0-.13-0.25c-0.1-.15-0.24-0.31-0.36-0.47C147.11,104.22,149.77,104.3,151.78,104.51Zm-7.57,3c0.55-.31,2.77-0.59,2.22-2.17,2.46-.14,4-0.25,5-0.35,0.06,0.66.35,4.3,0.36,5.65a40.27,40.27,0,0,0-7.89-.47,0.16,0.16,0,0,0-.05.06c0-.22,0-0.49,0-0.95C143.73,107.83,143.59,107.83,144.21,107.49Zm-1.24,4.3c-0.34-.9,0-0.48.48-0.83a0.57,0.57,0,0,0,.36-0.46,0.13,0.13,0,0,0,.05,0h0a40.89,40.89,0,0,1,7.83.48,2.69,2.69,0,0,1-.16.53,54.53,54.53,0,0,1-9.63,1.63C142.71,112.88,143.27,112.57,143,111.79Zm8.36,0.27c-0.47,1-1.27,2.47-2.11,3.89-2.53-.8-6.75,0-7.85.19a1.55,1.55,0,0,0,0-.81c-0.24-.95-0.49-1.35-0.34-1.63A62.53,62.53,0,0,0,151.33,112.07Zm-10.16,4.53h0c0.05,0,5-1.09,7.81-.28-0.26.43-.51,0.85-0.76,1.25-1.07.32-2.47,0.64-3.8,0.91a25.66,25.66,0,0,0-3.59-1.5A2.18,2.18,0,0,0,141.18,116.6Zm-0.59.59a0.19,0.19,0,0,0,.09.17,22.43,22.43,0,0,1,3.08,1.26l-2.33.44a5.48,5.48,0,0,1-2.11-1.23A5,5,0,0,0,140.58,117.19Z" transform="translate(-24.53 -5.71)"/><path class="cls-1" d="M271,62.66a5.19,5.19,0,0,0-4.16-4.79C202.34,45,152.95,7.18,152.46,6.8a5.18,5.18,0,0,0-6.08-.19l-1.27.85a3,3,0,0,0-.25.18C142.8,9.2,93.3,45.9,29.13,58.75A5.2,5.2,0,0,0,25,63.53C20.35,144.14,53.33,202.4,81.78,237.08c30.82,37.52,62.31,55.78,63.63,56.53a5,5,0,0,0,2.51.68,5.38,5.38,0,0,0,2.66-.73c0.17-.09.33-0.21,0.49-0.31C161.32,287.34,279.75,215.56,271,62.66ZM148.48,276.53C131.69,265.77,35.74,198.56,41,71.84c55.84-12.09,99.75-42,108.66-48.37C160.89,31.56,202.25,59.37,256,71,261.5,200.74,164.62,266.51,148.48,276.53Z" transform="translate(-24.53 -5.71)"/></svg>