<?xml version="1.0" encoding="UTF-8"?>
<svg width="166px" height="150px" viewBox="0 0 166 150" version="1.1" xmlns="http://www.w3.org/2000/svg" xmlns:xlink="http://www.w3.org/1999/xlink">
    <!-- Generator: Sketch 49 (51002) - http://www.bohemiancoding.com/sketch -->
    <title>batsman</title>
    <desc>Created with Sketch.</desc>
    <defs></defs>
    <g id="Page-1" stroke="none" stroke-width="1" fill="none" fill-rule="evenodd">
        <g id="Cricket-API" transform="translate(-309.000000, -556.000000)">
            <g id="batsman" transform="translate(309.000000, 556.000000)">
                <g id="Player" transform="translate(83.078241, 75.000000) scale(-1, 1) translate(-83.078241, -75.000000) translate(0.137065, 0.000000)">
                    <path d="M99.8508854,103.452177 C98.7136852,104.070534 97.2693819,105.505228 96.640083,106.640972 L84.1367867,129.222548 C83.5081439,130.358292 81.935881,131.287477 80.6438169,131.287477 L54.0242765,131.287477 C52.7315562,131.287477 51.6744128,132.351288 51.6744128,133.650696 L51.6744128,140.47308 C51.6744128,141.773147 52.7315562,142.836299 54.0242765,142.836299 L88.9953153,142.836299 C90.2880357,142.836299 91.8707979,141.913713 92.5132209,140.785228 L107.475967,114.494831 C108.11839,113.367006 109.542351,111.884137 110.641491,111.199787 L118.860437,105.852352 C119.947766,105.150184 121.824507,104.960123 123.029296,105.429996 L140.048583,112.060339 C141.253372,112.529551 141.910231,113.924649 141.507979,115.159383 L135.396758,133.90543 C134.994506,135.140824 134.462325,137.195194 134.21428,138.470844 L133.816621,140.517295 C133.568576,141.792945 134.423609,142.836299 135.715673,142.836299 L145.370391,142.836299 C146.663111,142.836299 148.090354,141.8398 148.541822,140.622225 L159.166408,111.978507 C159.617876,110.760932 159.034511,109.30314 157.86975,108.740218 L124.128436,92.4299821 C122.963676,91.8670595 121.079716,91.9119349 119.943172,92.5296319 L99.8508854,103.452177 Z" id="Fill-1" fill="#002B6D" fill-rule="nonzero" transform="translate(105.496812, 117.435858) scale(-1, 1) translate(-105.496812, -117.435858) "></path>
                    <polygon id="Fill-3" fill="#DC8F6F" fill-rule="nonzero" transform="translate(133.023310, 36.336102) scale(-1, 1) translate(-133.023310, -36.336102) " points="144.838577 48.1584656 130.480194 52.9014016 121.208042 24.5137383 135.567081 19.7708023"></polygon>
                    <path d="M93.499013,46.1134663 L87.8241674,50.0374258 C86.3116189,51.0827592 85.8503081,53.1206312 86.7630868,54.7222878 L116.15771,106.271608 C116.474657,106.827271 117.174826,107.02789 117.735879,106.723002 L144.634306,92.1008737 C145.217014,91.784106 145.424375,91.0463013 145.092992,90.4695201 L115.406358,38.834409 C114.519827,37.2928063 112.633899,36.6520117 110.998641,37.3370218 L107.592946,38.7637962 L107.854115,47.6880656 L93.499013,46.1134663 Z" id="Fill-5" fill="#2697D8" fill-rule="nonzero" transform="translate(115.773370, 71.964551) scale(-1, 1) translate(-115.773370, -71.964551) "></path>
                    <path d="M145.243585,57.6625518 L87.4570165,57.6625518 C84.8387656,57.6625518 82.7166043,55.5283296 82.7166043,52.8951982 C82.7166043,50.2620669 84.8387656,48.1278447 87.4570165,48.1278447 L145.243585,48.1278447 L145.243585,57.6625518 Z" id="Fill-7" fill="#002B6D" fill-rule="nonzero" transform="translate(113.980095, 52.895198) scale(-1, 1) translate(-113.980095, -52.895198) "></path>
                    <path d="M75.2105099,38.1474191 C74.7400122,37.7013046 74.8614098,37.1812777 75.4795532,36.9912171 L99.3181042,29.6600252 C99.9362476,29.4699646 100.806373,29.7002811 101.251279,30.171473 L119.729306,49.7193383 C120.174211,50.1905302 120.010161,50.5759309 119.3638,50.5759309 L109.186088,50.5759309 C108.539728,50.5759309 107.639417,50.1971296 107.185325,49.7351767 L98.3967948,40.7858299 C97.9427022,40.3232171 97.0660147,40.1021397 96.4485275,40.2935201 L83.2752476,44.381803 C82.6577604,44.5738434 81.7679488,44.3653046 81.297451,43.9198501 L75.2105099,38.1474191 Z" id="Fill-9" fill="#002B6D" fill-rule="nonzero" transform="translate(97.451689, 40.084634) scale(-1, 1) translate(-97.451689, -40.084634) "></path>
                    <path d="M68.9542273,51.0471888 L73.2497337,52.2172494 C73.2497337,52.2172494 75.1284432,53.5668117 72.6230596,55.0965356 C72.6230596,55.0965356 73.3389777,58.4265558 70.4753064,57.6168184 C70.4753064,57.6168184 69.5992751,61.2160912 66.6483292,58.9485625 L65.4645385,53.5668117 L66.6483292,51.8569262 L68.9542273,51.0471888 Z" id="Fill-11" fill="#DDB585" fill-rule="nonzero" transform="translate(69.695257, 55.372725) scale(-1, 1) translate(-69.695257, -55.372725) "></path>
                    <polygon id="Fill-13" fill="#5C6662" fill-rule="nonzero" transform="translate(67.294188, 55.660448) scale(-1, 1) translate(-67.294188, -55.660448) " points="61.0451649 52.2126299 74.3647777 54.7546905 73.5432117 59.1082663 60.2235985 56.5662056"></polygon>
                    <path d="M3.18356865,51.8767242 C2.54573931,51.7711349 1.92628335,52.2080104 1.80685396,52.8468252 L0.0291993839,62.3406164 C-0.0902290083,62.9794312 0.335646658,63.5740306 0.976100761,63.6624615 L61.5082241,72.00731 C62.1486782,72.095741 62.7431984,71.6410474 62.8291612,70.9962932 L63.8863048,63.0975592 C63.9729231,62.4534649 63.5214562,61.8403875 62.8836259,61.7347982 L3.18356865,51.8767242 Z" id="Fill-15" fill="#DED6AB" fill-rule="nonzero" transform="translate(31.953039, 61.939644) scale(-1, 1) translate(-31.953039, -61.939644) "></path>
                    <path d="M1.32815534,62.8354312 C1.32815534,62.8354312 43.6299899,75.4084844 64.0943439,71.6666663" id="Fill-17" fill="#D0C99A" fill-rule="nonzero" transform="translate(32.711250, 67.598859) scale(-1, 1) translate(-32.711250, -67.598859) "></path>
                    <path d="M66.8711336,58.5346528 L72.4140823,59.0289423 L72.790743,49.8769962 C72.790743,48.7075955 73.6451196,49.0672588 73.6451196,49.0672588 L86.0007706,49.8769962 C86.3590567,49.0672588 85.6260784,48.1671107 85.150987,48.1671107 C80.7439261,48.1671107 67.0817748,47.1897504 67.0817748,47.1897504 C66.0574415,47.1343161 65.1958468,47.9546124 65.1958468,48.9867471 L65.1958468,56.7383161 C65.1958468,57.6879592 65.9288258,58.473939 66.8711336,58.5346528" id="Fill-19" fill="#D4D4D6" fill-rule="nonzero" transform="translate(75.645982, 53.108020) scale(-1, 1) translate(-75.645982, -53.108020) "></path>
                    <path d="M65.1955572,49.0673908 L78.4324892,49.8771282 C78.7901199,49.0673908 78.0571405,48.1672427 77.5820494,48.1672427 C75.2020002,48.1672427 69.3644162,47.8339767 65.1955572,47.5719834" id="Fill-21" fill="#E6C596" fill-rule="nonzero" transform="translate(71.861546, 48.724556) scale(-1, 1) translate(-71.861546, -48.724556) "></path>
                    <path d="M65.6193383,49.0673908 L65.2689258,59.0290743 C76.7196722,62.0885221 74.1578548,51.5870137 74.1578548,51.5870137 C74.1578548,51.5870137 76.9185017,51.7150407 77.826687,51.5870137 C79.1174392,51.4055322 78.8562704,49.8771282 78.8562704,49.8771282" id="Fill-23" fill="#E6C596" fill-rule="nonzero" transform="translate(72.073436, 54.327615) scale(-1, 1) translate(-72.073436, -54.327615) "></path>
                    <path d="M60.9376938,140.888507 L65.6229849,140.829113 C65.6229849,140.829113 66.1131687,140.530164 66.2503152,139.870231 C66.4281463,139.013639 65.7752241,136.503915 68.8173822,137.487874 C68.8173822,137.487874 72.0360591,138.517369 72.3077272,143.136898 L75.784292,143.136898 C75.784292,143.136898 78.7181766,144.904198 77.3060273,147.745208 L75.7304833,149.076292 L61.4423141,149.076292 L60.9376938,147.894353" id="Fill-25" fill="#FC9E00" fill-rule="nonzero" transform="translate(69.314022, 143.169549) scale(-1, 1) translate(-69.314022, -143.169549) "></path>
                    <polygon id="Fill-28" fill="#203759" fill-rule="nonzero" transform="translate(69.506446, 148.484384) scale(-1, 1) translate(-69.506446, -148.484384) " points="77.6906126 147.756229 61.3222791 147.756229 61.8275556 149.076094 76.1695337 149.076094"></polygon>
                    <polygon id="Fill-30" fill="#F05C58" fill-rule="nonzero" transform="translate(69.403225, 141.268020) scale(-1, 1) translate(-69.403225, -141.268020) " points="67.9362827 141.195178 70.8701674 141.195178 70.8701674 140.539865 67.9362827 140.539865"></polygon>
                    <polygon id="Fill-32" fill="#203759" fill-rule="nonzero" transform="translate(69.403225, 142.251320) scale(-1, 1) translate(-69.403225, -142.251320) " points="67.9362827 142.178478 70.8701674 142.178478 70.8701674 141.523165 67.9362827 141.523165"></polygon>
                    <path d="M161.68867,131.207757 L161.747728,135.919676 C161.747728,135.919676 162.044988,136.412646 162.701191,136.550572 C163.552943,136.729414 166.171194,136.072781 165.193451,139.132229 C165.193451,139.132229 164.29314,142.369198 159.699718,142.64241 L159.699718,146.138734 C159.699718,146.138734 157.942405,149.089293 155.11745,147.669117 L153.793888,146.084619 L153.793888,131.715245 L154.845782,131.207757" id="Fill-33" fill="#FC9E00" fill-rule="nonzero" transform="translate(159.601398, 139.631691) scale(-1, 1) translate(-159.601398, -139.631691) "></path>
                    <polygon id="Fill-34" fill="#203759" fill-rule="nonzero" transform="translate(164.680555, 139.438107) scale(-1, 1) translate(-164.680555, -139.438107) " points="165.264806 147.668787 165.264806 131.207427 163.9524 131.715575 163.9524 146.139064"></polygon>
                    <polygon id="Fill-35" fill="#F05C58" fill-rule="nonzero" transform="translate(157.090909, 139.541717) scale(-1, 1) translate(-157.090909, -139.541717) " points="156.362753 141.016996 157.014363 141.016996 157.014363 138.066437 156.362753 138.066437"></polygon>
                    <polygon id="Fill-36" fill="#203759" fill-rule="nonzero" transform="translate(158.068652, 139.541717) scale(-1, 1) translate(-158.068652, -139.541717) " points="157.340496 141.016996 157.992106 141.016996 157.992106 138.066437 157.340496 138.066437"></polygon>
                    <path d="M147.844709,24.7441868 C149.761479,30.5271767 146.625484,36.8367929 140.874519,38.7644562 L140.282623,38.9630959 C134.531658,40.8907592 128.258355,37.736941 126.341586,31.9532912 L124.239767,25.613978 C122.322997,19.8309881 125.458992,13.521372 131.209958,11.5937087 L131.801853,11.3950689 C137.552818,9.46674571 143.826121,12.6212238 145.74289,18.4042137 L147.844709,24.7441868 Z" id="Fill-37" fill="#EFAA8E" fill-rule="nonzero" transform="translate(136.042238, 25.178953) scale(-1, 1) translate(-136.042238, -25.178953) "></path>
                    <path d="M144.275226,21.3399902 L148.108766,31.5286905 C148.108766,31.5286905 150.628586,33.346145 151.313006,30.4549801 L147.013562,19.4123269 L144.275226,21.3399902 Z" id="Fill-38" fill="#A6673D" fill-rule="nonzero" transform="translate(147.794116, 25.752423) scale(-1, 1) translate(-147.794116, -25.752423) "></path>
                    <path d="M142.032978,9.81446423 C142.213434,10.3595686 141.918142,10.9548279 141.376118,11.1363094 L124.084507,16.9338178 C123.542483,17.1152992 122.950588,16.8176696 122.770132,16.2725652 L122.685482,16.0184912 C122.505026,15.4733868 122.800973,14.8781275 123.342997,14.6966461 L140.634609,8.89913763 C141.176633,8.71765615 141.767872,9.01462585 141.948984,9.56039016 L142.032978,9.81446423 Z" id="Fill-39" fill="#10110B" fill-rule="nonzero" transform="translate(132.359264, 12.916446) scale(-1, 1) translate(-132.359264, -12.916446) "></path>
                    <path d="M128.248824,20.4374663 C126.469201,15.069574 127.386573,9.53471878 130.232527,5.67411272 C131.742451,3.62568174 133.795054,2.04844268 136.275502,1.21692753 C143.432711,-1.18258762 151.442328,3.53263124 154.165571,11.7481329 L128.739664,21.9183551 L128.248824,20.4374663 Z" id="Fill-40" fill="#10110B" fill-rule="nonzero" transform="translate(140.751965, 11.254893) scale(-1, 1) translate(-140.751965, -11.254893) "></path>
                    <path d="M154.198752,17.1399147 C154.198752,17.1399147 155.304454,8.60896524 145.803944,3.8495309 C145.803944,3.8495309 138.056152,10.4356588 142.684354,21.9184871 L154.198752,17.1399147 Z" id="Fill-41" fill="#10110B" fill-rule="nonzero" transform="translate(147.724145, 12.884009) scale(-1, 1) translate(-147.724145, -12.884009) "></path>
                    <polygon id="Fill-42" fill="#FFFFFF" fill-rule="nonzero" transform="translate(145.256381, 20.318414) scale(-1, 1) translate(-145.256381, -20.318414) " points="148.536741 19.7693504 142.304779 21.8586972 141.976021 20.8674784 148.207983 18.7781316"></polygon>
                    <polygon id="Fill-43" fill="#FFFFFF" fill-rule="nonzero" transform="translate(142.564964, 23.472695) scale(-1, 1) translate(-142.564964, -23.472695) " points="145.802342 22.9381491 139.656343 24.9984588 139.327585 24.00724 145.473585 21.9469302"></polygon>
                    <polygon id="Fill-44" fill="#FFFFFF" fill-rule="nonzero" transform="translate(140.818676, 26.780607) scale(-1, 1) translate(-140.818676, -26.780607) " points="143.787995 26.3358124 138.177458 28.2166205 137.849356 27.2254016 143.459238 25.3445935"></polygon>
                    <path d="M130.462476,29.7239067 C130.560251,30.0195565 130.400137,30.3416036 130.106158,30.4405935 L126.492447,31.65157 C126.198468,31.7505599 125.878241,31.5895363 125.780466,31.2938865 L125.669568,30.9606205 C125.571794,30.6656306 125.731907,30.3429235 126.025886,30.2445935 L129.639597,29.0329572 C129.933577,28.9346272 130.25446,29.0956508 130.352234,29.3913006 L130.462476,29.7239067 Z" id="Fill-45" fill="#DD9E5F" fill-rule="nonzero" transform="translate(128.066022, 30.342424) scale(-1, 1) translate(-128.066022, -30.342424) "></path>
                    <polygon id="Fill-46" fill="#FFFFFF" fill-rule="nonzero" transform="translate(130.511101, 31.970449) scale(-1, 1) translate(-130.511101, -31.970449) " points="138.043986 29.9956009 123.306974 34.9365168 122.978216 33.9452979 137.715228 29.0043821"></polygon>
                    <polygon id="Fill-47" fill="#FFFFFF" fill-rule="nonzero" transform="translate(127.394529, 31.817147) scale(-1, 1) translate(-127.394529, -31.817147) " points="130.283464 38.8804063 129.297847 39.2110326 124.505595 24.7538878 125.491212 24.4232615"></polygon>
                    <path d="M132.679704,20.7057289 C133.131828,22.0691498 132.660018,23.4662272 131.632404,23.810712 C130.60479,24.1551969 129.394095,23.3217019 128.941971,21.958941 L127.791647,18.4890151 C127.340179,17.1262541 127.811333,15.7285168 128.838947,15.3840319 C129.867217,15.0395471 131.077912,15.873042 131.52938,17.235803 L132.679704,20.7057289 Z" id="Fill-48" fill="#DD9E5F" fill-rule="nonzero" transform="translate(130.235815, 19.597372) scale(-1, 1) translate(-130.235815, -19.597372) "></path>
                    <path d="M138.440566,17.5882703 L142.301666,16.2941423 C142.572678,16.2030716 142.63108,15.9602164 142.431594,15.7543174 L139.131548,12.3451053 C138.932062,12.1392063 138.546871,12.0448359 138.275859,12.1359067 L124.39388,16.7904117 C124.122211,16.8808225 123.974566,17.1784521 124.065122,17.4510043 C124.155678,17.7235565 124.450969,17.8727013 124.721981,17.7816306 L127.06069,16.9553949 C127.331701,16.8643242 127.428163,17.0253477 127.428163,17.3124184 L127.428163,21.2244992 C127.428163,21.51157 127.775295,21.6725935 128.046963,21.5815228 L132.545236,20.0946945 C132.816248,20.0036238 133.141725,19.7053343 133.230312,19.4321221 L134.481692,15.6058326" id="Fill-49" fill="#734800" fill-rule="nonzero" transform="translate(133.294274, 16.854088) scale(-1, 1) translate(-133.294274, -16.854088) "></path>
                    <path d="M139.977589,41.1936023 L147.205667,38.7703296 C149.651337,37.9500333 150.978179,35.2819255 150.162519,32.8223565 L147.04096,23.4044575 L135.334294,27.329077 L128.091779,16.7589356 L122.724037,18.7506124 L139.977589,41.1936023 Z M147.534425,39.7615484 L139.606178,42.4197572 L121.035626,18.2629221 L128.489439,15.4978043 L135.74639,26.0890636 L147.69782,22.0826124 L151.148136,32.4917302 C152.144909,35.4977235 150.523431,38.7591107 147.534425,39.7615484 Z" id="Fill-55" fill="#FFFFFF" fill-rule="nonzero" transform="translate(136.238821, 28.958781) scale(-1, 1) translate(-136.238821, -28.958781) "></path>
                    <path d="M149.952223,18.3584804 C150.014562,18.5459013 149.913507,18.7485006 149.727145,18.8105343 C149.54144,18.8732279 149.339985,18.7722582 149.277646,18.5848373 C149.215963,18.3974164 149.316362,18.1948171 149.502724,18.1321235 C149.689085,18.0700898 149.889884,18.1710595 149.952223,18.3584804" id="Fill-56" fill="#333333" fill-rule="nonzero" transform="translate(149.987632, 18.842007) scale(-1, 1) translate(-149.987632, -18.842007) "></path>
                    <path d="M143.912463,16.0599349 C143.974802,16.2473558 143.873747,16.4499551 143.687385,16.5119888 C143.501679,16.5746824 143.300225,16.4730528 143.237886,16.2862918 C143.176203,16.098871 143.276602,15.8962716 143.462963,15.833578 C143.649325,15.7715444 143.850123,15.8725141 143.912463,16.0599349" id="Fill-57" fill="#333333" fill-rule="nonzero" transform="translate(143.947872, 16.543461) scale(-1, 1) translate(-143.947872, -16.543461) "></path>
                    <path d="M69.0365382,115.969384 L63.4358436,115.969384 C63.1110231,115.969384 62.8485418,115.705411 62.8485418,115.378744 C62.8485418,115.052078 63.1110231,114.787445 63.4358436,114.787445 L69.0365382,114.787445 C69.3613589,114.787445 69.6238406,115.052078 69.6238406,115.378744 C69.6238406,115.705411 69.3613589,115.969384 69.0365382,115.969384" id="Fill-58" fill="#000000" fill-rule="nonzero" transform="translate(66.236191, 115.515600) scale(-1, 1) translate(-66.236191, -115.515600) "></path>
                    <path d="M129.374971,137.44907 L128.413633,131.900356 C128.357856,131.578309 128.571122,131.272761 128.891349,131.216666 C129.21092,131.160572 129.515398,131.37571 129.571176,131.697097 L130.532513,137.246471 C130.588291,137.567858 130.374368,137.873407 130.054797,137.929501 C129.73457,137.985596 129.430748,137.771117 129.374971,137.44907" id="Fill-59" fill="#000000" fill-rule="nonzero" transform="translate(129.473063, 134.573094) scale(-1, 1) translate(-129.473063, -134.573094) "></path>
                    <path d="M146.017269,137.44907 L145.055931,131.900356 C145.000154,131.578309 145.21342,131.272761 145.533647,131.216666 C145.853218,131.160572 146.157697,131.37571 146.213474,131.697097 L147.174812,137.246471 C147.230589,137.567858 147.016667,137.873407 146.697096,137.929501 C146.376869,137.985596 146.073046,137.771117 146.017269,137.44907" id="Fill-60" fill="#000000" fill-rule="nonzero" transform="translate(146.115362, 134.573094) scale(-1, 1) translate(-146.115362, -134.573094) "></path>
                    <path d="M72.751174,128.117359 L67.3033748,128.117359 C66.9785542,128.117359 66.7160729,127.853385 66.7160729,127.526719 C66.7160729,127.200052 66.9785542,126.935419 67.3033748,126.935419 L72.751174,126.935419 C73.0759946,126.935419 73.3384758,127.200052 73.3384758,127.526719 C73.3384758,127.853385 73.0759946,128.117359 72.751174,128.117359" id="Fill-61" fill="#000000" fill-rule="nonzero" transform="translate(70.027274, 127.663574) scale(-1, 1) translate(-70.027274, -127.663574) "></path>
                    <path d="M55.0137627,145.192588 L46.1642059,142.004453 C45.5532808,141.784696 45.2356784,141.108265 45.4541941,140.493868 L62.6237521,92.2871067 C63.0614387,91.058312 64.4073116,90.4188373 65.6291621,90.8590124 L72.2660015,93.2499484 C73.4878519,93.6901235 74.1237129,95.0429854 73.6860253,96.2717801 L56.5164681,144.478541 C56.2972966,145.092938 55.6246879,145.412346 55.0137627,145.192588" id="Fill-62" fill="#EEEEEE" fill-rule="nonzero" transform="translate(59.604745, 117.990968) scale(-1, 1) translate(-59.604745, -117.990968) "></path>
                    <path d="M65.3183599,94.8354366 L51.252644,134.327787" id="Stroke-63" stroke="#7F7F7F" stroke-width="1.255" stroke-linecap="round" transform="translate(58.285502, 114.581612) scale(-1, 1) translate(-58.285502, -114.581612) "></path>
                    <path d="M63.1059712,95.6323713 L49.0402543,135.124721" id="Stroke-64" stroke="#7F7F7F" stroke-width="1.255" stroke-linecap="round" transform="translate(56.073113, 115.378546) scale(-1, 1) translate(-56.073113, -115.378546) "></path>
                    <path d="M67.5306835,94.0385019 L53.4649669,133.530852" id="Stroke-65" stroke="#7F7F7F" stroke-width="1.255" stroke-linecap="round" transform="translate(60.497825, 113.784677) scale(-1, 1) translate(-60.497825, -113.784677) "></path>
                    <polygon id="Fill-66" fill="#EFEFEF" fill-rule="nonzero" transform="translate(54.488251, 103.920664) scale(-1, 1) translate(-54.488251, -103.920664) " points="58.6321739 109.806603 47.5705561 105.82193 50.3436707 98.0347242 61.4059449 102.019398"></polygon>
                    <path d="M51.88004,101.77872 L56.9498656,103.604754" id="Stroke-67" stroke="#7F7F7F" stroke-width="1.791" stroke-linecap="round" transform="translate(54.414953, 102.691737) scale(-1, 1) translate(-54.414953, -102.691737) "></path>
                    <path d="M52.6724706,104.003683 L57.7422972,105.829717" id="Stroke-68" stroke="#7F7F7F" stroke-width="1.791" stroke-linecap="round" transform="translate(55.207384, 104.916700) scale(-1, 1) translate(-55.207384, -104.916700) "></path>
                    <path d="M102.558107,145.798406 L102.11517,136.35543 C102.084328,135.703416 102.585011,135.150393 103.23334,135.119376 L154.093027,132.704682 C155.389685,132.643309 156.490138,133.650366 156.551821,134.954393 L156.88386,142.03613 C156.944887,143.340157 155.943521,144.446864 154.647519,144.508238 L103.787175,146.922932 C103.138847,146.953948 102.588948,146.45042 102.558107,145.798406" id="Fill-69" fill="#EFEFEF" fill-rule="nonzero" transform="translate(129.500163, 139.813155) scale(-1, 1) translate(-129.500163, -139.813155) "></path>
                    <path d="M105.215896,141.027027 C104.998037,141.027027 104.815612,140.854125 104.805113,140.632387 C104.794614,140.404051 104.96982,140.210031 105.196866,140.199472 L146.863147,138.221653 C147.086912,138.174138 147.283117,138.386637 147.294272,138.614973 C147.304115,138.84397 147.129565,139.03733 146.901863,139.047889 L105.236239,141.025707 C105.22902,141.027027 105.222458,141.027027 105.215896,141.027027" id="Fill-70" fill="#7F7F7F" fill-rule="nonzero" transform="translate(126.049667, 139.620984) scale(-1, 1) translate(-126.049667, -139.620984) "></path>
                    <path d="M105.105195,143.388068 C104.887335,143.388068 104.704911,143.215166 104.694411,142.993429 C104.683912,142.765092 104.859119,142.571072 105.086165,142.560513 L146.752445,140.581375 C146.978179,140.5299 147.172415,140.746358 147.183571,140.975354 C147.193414,141.203691 147.018864,141.397711 146.791161,141.40761 L105.125537,143.386748 C105.118319,143.388068 105.111757,143.388068 105.105195,143.388068" id="Fill-71" fill="#7F7F7F" fill-rule="nonzero" transform="translate(125.938965, 141.980891) scale(-1, 1) translate(-125.938965, -141.980891) "></path>
                    <path d="M105.326663,138.665986 C105.108804,138.665986 104.926379,138.493084 104.91588,138.271346 C104.905381,138.04301 105.080587,137.848989 105.307633,137.838431 L146.973914,135.860612 C147.19571,135.817717 147.393884,136.025596 147.405039,136.253932 C147.414882,136.482929 147.240332,136.676289 147.01263,136.686848 L105.347006,138.664666 C105.339787,138.665986 105.333225,138.665986 105.326663,138.665986" id="Fill-72" fill="#7F7F7F" fill-rule="nonzero" transform="translate(126.160434, 137.260471) scale(-1, 1) translate(-126.160434, -137.260471) "></path>
                    <polygon id="Fill-73" fill="#EFEFEF" fill-rule="nonzero" transform="translate(114.801989, 139.089597) scale(-1, 1) translate(-114.801989, -139.089597) " points="110.971075 145.186385 110.417239 133.382829 118.632904 132.992809 119.186739 144.796365"></polygon>
                    <path d="M113.744239,141.984853 C113.432542,141.984853 113.172686,141.738039 113.157593,141.421931 L112.903642,136.011803 C112.88855,135.686456 113.139219,135.409284 113.463384,135.394766 C113.800016,135.369029 114.062497,135.631022 114.07759,135.956369 L114.331541,141.366497 C114.34729,141.691843 114.09662,141.969015 113.772456,141.983534 C113.763269,141.984853 113.753426,141.984853 113.744239,141.984853" id="Fill-74" fill="#7F7F7F" fill-rule="nonzero" transform="translate(113.631150, 138.688936) scale(-1, 1) translate(-113.631150, -138.688936) "></path>
                    <path d="M116.091412,142.096778 C115.779716,142.096778 115.519859,141.849963 115.504766,141.533855 L115.250816,136.123728 C115.235723,135.798381 115.486393,135.521209 115.810557,135.50669 C116.149158,135.470394 116.409014,135.742946 116.424763,136.068293 L116.678714,141.478421 C116.694463,141.803768 116.443793,142.08094 116.119629,142.095458 C116.110442,142.096778 116.100599,142.096778 116.091412,142.096778" id="Fill-75" fill="#7F7F7F" fill-rule="nonzero" transform="translate(115.978324, 138.800107) scale(-1, 1) translate(-115.978324, -138.800107) "></path>
                </g>
            </g>
        </g>
    </g>
</svg>