<svg xmlns="http://www.w3.org/2000/svg" width="351" height="276" viewBox="0 0 351 276">
  <g fill="none" fill-rule="evenodd" transform="translate(-1)">
    <g fill-rule="nonzero" transform="translate(0 40)">
      <path fill="#E6C596" d="M151.82,109.61 C151.247999,109.734151 150.749499,110.082111 150.435742,110.576232 C150.121985,111.070352 150.019083,111.669509 150.15,112.24 L162.41,165.33 C162.646947,166.603956 162.074396,167.892197 160.97,168.57 L158.97,169.7 C157.922884,170.303066 157.52099,171.613588 158.05,172.7 L167.61,191.13 C168.204398,192.218417 169.516025,192.694203 170.67,192.24 L172.98,191.24 C173.506473,191.035977 173.914933,190.608371 174.094641,190.073111 C174.274349,189.53785 174.206688,188.950391 173.91,188.47 L172.35,185.79 C171.745086,184.707748 172.055956,183.343376 173.07,182.63 L178.67,178.84 C179.719866,178.048349 180.237454,176.735066 180.01,175.44 L164.82,109 C164.541782,107.806091 163.359003,107.054626 162.16,107.31 L151.82,109.61 Z"/>
      <path fill="#093E7B" d="M121.118017,77.7176545 L188.748017,77.7176545 L188.748017,93.7176545 L121.118017,93.7176545 C117.445324,93.7176545 114.468017,90.7403481 114.468017,87.0676545 L114.468017,84.3676545 C114.468017,80.6949609 117.445324,77.7176545 121.118017,77.7176545 Z" transform="rotate(76.09 151.608 85.718)"/>
      <circle cx="9.278" cy="79.569" r="8.28" fill="#FFC001" transform="rotate(-.21 9.278 79.57)"/>
      <path fill="#231F20" d="M3.29,73.85 L3.16,74 C5.88244337,78.9268852 9.97406356,82.9594583 14.94,85.61 L15.08,85.48 C10.1006702,82.8350464 6.00273878,78.7927273 3.29,73.85 Z" opacity=".7" style="mix-blend-mode:multiply"/>
      <path fill="#FFF" d="M5.66 78.62C5.60876161 78.5830541 5.53912854 78.5849975 5.49003047 78.6247435 5.44093239 78.6644896 5.42453273 78.7321918 5.45 78.79L5.86 79.29C5.88899647 79.3370496 5.94295863 79.3626373 5.99773827 79.3553126 6.0525179 79.3479879 6.09786178 79.3091217 6.11347838 79.2561068 6.12909499 79.2030919 6.11206132 79.1458512 6.07 79.11L5.66 78.62zM4.87 77.62C4.82075128 77.57828 4.74936288 77.5756364 4.69716341 77.6135997 4.64496394 77.6515629 4.62548357 77.7202929 4.65 77.78L5.04 78.3C5.06772326 78.3463377 5.11962395 78.3726012 5.17337975 78.3674945 5.22713556 78.3623878 5.27316257 78.3268215 5.29166473 78.2760925 5.31016689 78.2253634 5.29784552 78.168516 5.26 78.13L4.87 77.62zM6.49 79.62C6.43755899 79.5753017 6.36039001 79.5754084 6.30807288 79.6202517 6.25575574 79.665095 6.24384792 79.7413397 6.28 79.8L6.72 80.28C6.75219668 80.2923107 6.78780332 80.2923107 6.82 80.28 6.87310499 80.2773082 6.92010113 80.2447647 6.94130266 80.1960012 6.96250419 80.1472376 6.95425093 80.0906726 6.92 80.05L6.49 79.62zM7.36 80.56C7.3053583 80.5194098 7.22944012 80.524003 7.18009071 80.570885 7.13074129 80.6177669 7.12226341 80.6933499 7.16 80.75L7.62 81.21C7.65327617 81.2547957 7.70997713 81.275552 7.76430972 81.2628271 7.81864232 81.2501021 7.86022947 81.2063261 7.87015327 81.1514128 7.88007707 81.0964995 7.85644216 81.0409367 7.81 81.01L7.36 80.56zM2.83 74.39L2.64 74.63 2.87 75.05C2.89478519 75.0929337 2.94042766 75.1195585 2.99 75.12L3.06 75.12C3.12576866 75.0809573 3.14803148 74.9963585 3.11 74.93L2.83 74.39zM3.44 75.47C3.39714181 75.4138691 3.3191874 75.3984475 3.25818536 75.434032 3.19718331 75.4696166 3.1722359 75.5450642 3.2 75.61L3.54 76.16C3.56718817 76.199112 3.61239749 76.2217167 3.66 76.22L3.73 76.22C3.77955357 76.1663597 3.77955357 76.0836403 3.73 76.03L3.44 75.47zM8.28 81.47C8.24672383 81.4252043 8.19002287 81.404448 8.13569028 81.4171729 8.08135768 81.4298979 8.03977053 81.4736739 8.02984673 81.5285872 8.01992293 81.5835005 8.04355784 81.6390633 8.09 81.67L8.57 82.11C8.60751289 82.1439402 8.66028312 82.1552894 8.70843267 82.1397724 8.75658222 82.1242554 8.79279602 82.0842297 8.80343268 82.0347724 8.81406934 81.9853152 8.79751289 81.9339402 8.76 81.9L8.28 81.47zM10.23 83.15C10.191484 83.1121545 10.1346366 83.0998331 10.0839075 83.1183353 10.0331785 83.1368374 9.99761216 83.1828644 9.9925055 83.2366202 9.98739883 83.2903761 10.0136623 83.3422767 10.06 83.37L10.57 83.77C10.596099 83.7777812 10.623901 83.7777812 10.65 83.77 10.7084621 83.7673182 10.7590874 83.728555 10.776924 83.6728157 10.7947605 83.6170764 10.7760443 83.5561239 10.73 83.52L10.23 83.15zM11.23 83.92C11.1702929 83.8954836 11.1015629 83.9149639 11.0635997 83.9671634 11.0256364 84.0193629 11.02828 84.0907513 11.07 84.14L11.6 84.51 11.68 84.51C11.7384621 84.5073182 11.7890874 84.468555 11.806924 84.4128157 11.8247605 84.3570764 11.8060443 84.2961239 11.76 84.26L11.23 83.92zM4.13 76.55C4.08329557 76.5022937 4.00940342 76.4942034 3.95348267 76.5306734 3.89756192 76.5671435 3.87517347 76.6380255 3.9 76.7L4.27 77.23C4.29517094 77.2662078 4.33593016 77.2884401 4.38 77.29L4.46 77.29C4.50955357 77.2363597 4.50955357 77.1536403 4.46 77.1L4.13 76.55zM14.52 85.93C14.4663512 85.9076277 14.4044587 85.9207334 14.3644823 85.9629306 14.324506 86.0051279 14.3147626 86.0676379 14.34 86.12L14.56 85.95 14.52 85.93zM12.85 84.93L12.31 84.58C12.2480255 84.5551735 12.1771435 84.5775619 12.1406734 84.6334827 12.1042034 84.6894034 12.1122937 84.7632956 12.16 84.81L12.71 85.16 12.78 85.16C12.8425216 85.1590687 12.8968453 85.1167904 12.913101 85.0564118 12.9293568 84.9960333 12.9036028 84.9321956 12.85 84.9L12.85 84.93zM9.23 82.3C9.19414885 82.2579387 9.13690811 82.240905 9.08389319 82.2565216 9.03087828 82.2721382 8.99201209 82.3174821 8.98468738 82.3722617 8.97736267 82.4270414 9.0029504 82.4810035 9.05 82.51L9.55 82.93C9.58585115 82.9720613 9.64309189 82.989095 9.69610681 82.9734784 9.74912172 82.9578618 9.78798791 82.9125179 9.79531262 82.8577383 9.80263733 82.8029586 9.7770496 82.7489965 9.73 82.72L9.23 82.3zM14 85.62L13.44 85.3C13.3750642 85.2722359 13.2996166 85.2971833 13.264032 85.3581854 13.2284475 85.4191874 13.2438691 85.4971418 13.3 85.54L13.86 85.86 13.93 85.86C13.9925216 85.8590687 14.0468453 85.8167904 14.063101 85.7564118 14.0793568 85.6960333 14.0536028 85.6321956 14 85.6L14 85.62zM5.94 76.53C5.89075128 76.48828 5.81936288 76.4856364 5.76716341 76.5235997 5.71496394 76.5615629 5.69548357 76.6302929 5.72 76.69L6.11 77.21C6.14751289 77.2492992 6.20314211 77.2656003 6.25593267 77.2527628 6.30872323 77.2399253 6.35065499 77.1998995 6.36593267 77.1477628 6.38121034 77.0956261 6.36751289 77.0392992 6.33 77L5.94 76.53zM6.73 77.53C6.70621998 77.4760217 6.65115902 77.442738 6.59231269 77.4467696 6.53346636 77.4508012 6.48345916 77.4912832 6.46726297 77.5480003 6.45106679 77.6047174 6.47215626 77.6655019 6.52 77.7L6.93 78.2C6.96513092 78.2150081 7.00486908 78.2150081 7.04 78.2 7.08322349 78.1920368 7.12019859 78.1642379 7.13985403 78.124927 7.15950948 78.0856161 7.15956353 78.0393567 7.14 78L6.73 77.53zM5.2 75.48C5.15329557 75.4322937 5.07940342 75.4242034 5.02348267 75.4606734 4.96756192 75.4971435 4.94517347 75.5680255 4.97 75.63L5.34 76.16C5.36517094 76.1962078 5.40593016 76.2184401 5.45 76.22L5.53 76.22C5.57955357 76.1663597 5.57955357 76.0836403 5.53 76.03L5.2 75.48zM4.51 74.4C4.46714181 74.3438691 4.3891874 74.3284475 4.32818536 74.364032 4.26718331 74.3996166 4.2422359 74.4750642 4.27 74.54L4.61 75.09C4.63718817 75.129112 4.68239749 75.1517167 4.73 75.15L4.8 75.15C4.84955357 75.0963597 4.84955357 75.0136403 4.8 74.96L4.51 74.4zM15.59 84.86C15.5297185 84.843388 15.4657298 84.8687646 15.4332183 84.9221764 15.4007068 84.9755882 15.407556 85.0440835 15.45 85.09L15.63 84.88 15.59 84.86zM8.44 79.47C8.40906326 79.4235578 8.35350054 79.3999229 8.29858721 79.4098467 8.24367388 79.4197705 8.19989792 79.4613577 8.18717295 79.5156903 8.17444797 79.5700229 8.19520433 79.6267238 8.24 79.66L8.7 80.12C8.73327617 80.1647957 8.78997713 80.185552 8.84430972 80.1728271 8.89864232 80.1601021 8.94022947 80.1163261 8.95015327 80.0614128 8.96007707 80.0064995 8.93644216 79.9509367 8.89 79.92L8.44 79.47zM7.57 78.53C7.51755899 78.4853017 7.44039001 78.4854084 7.38807288 78.5302517 7.33575574 78.575095 7.32384792 78.6513397 7.36 78.71L7.8 79.19C7.8546417 79.2305902 7.93055988 79.225997 7.97990929 79.179115 8.02925871 79.1322331 8.03773659 79.0566501 8 79L7.57 78.53zM12.33 82.83C12.2924567 82.7856816 12.2314473 82.7691478 12.1766638 82.7884452 12.1218804 82.8077426 12.084702 82.8588628 12.0832227 82.9169268 12.0817433 82.9749908 12.1162703 83.0279379 12.17 83.05L12.7 83.42 12.78 83.42C12.8384621 83.4173182 12.8890874 83.378555 12.906924 83.3228157 12.9247605 83.2670764 12.9060443 83.2061239 12.86 83.17L12.33 82.83zM11.33 82.06C11.291484 82.0221545 11.2346366 82.0098331 11.1839075 82.0283353 11.1331785 82.0468374 11.0976122 82.0928644 11.0925055 82.1466202 11.0873988 82.2003761 11.1136623 82.2522767 11.16 82.28L11.67 82.68C11.696099 82.6877812 11.723901 82.6877812 11.75 82.68 11.8084621 82.6773182 11.8590874 82.638555 11.876924 82.5828157 11.8947605 82.5270764 11.8760443 82.4661239 11.83 82.43L11.33 82.06zM13.96 83.91L13.42 83.56C13.3580255 83.5351735 13.2871435 83.5575619 13.2506734 83.6134827 13.2142034 83.6694034 13.2222937 83.7432956 13.27 83.79L13.82 84.14 13.89 84.14C13.9525216 84.1390687 14.0068453 84.0967904 14.023101 84.0364118 14.0393568 83.9760333 14.0136028 83.9121956 13.96 83.88L13.96 83.91zM10.31 81.23C10.2513397 81.1938479 10.175095 81.2057557 10.1302517 81.2580729 10.0854084 81.31039 10.0853017 81.387559 10.13 81.44L10.63 81.86C10.6886603 81.8961521 10.764905 81.8842443 10.8097483 81.8319271 10.8545916 81.77961 10.8546983 81.702441 10.81 81.65L10.31 81.23zM3.89 73.29L3.68 73.48 3.95 73.98C3.97478519 74.0229337 4.02042766 74.0495585 4.07 74.05L4.14 74.05C4.20576866 74.0109573 4.22803148 73.9263585 4.19 73.86L3.89 73.29zM15 84.55L14.44 84.23C14.39694 84.197122 14.3387759 84.1920392 14.2906659 84.2169501 14.2425559 84.2418609 14.213137 84.2922933 14.2151341 84.3464333 14.2171311 84.4005732 14.2501855 84.4487012 14.3 84.47L14.86 84.79 14.93 84.79C14.9925216 84.7890687 15.0468453 84.7467904 15.063101 84.6864118 15.0793568 84.6260333 15.0536028 84.5621956 15 84.53L15 84.55zM9.35 80.37C9.29334992 80.3322634 9.2177669 80.3407413 9.17088495 80.3900907 9.12400301 80.4394401 9.11940977 80.5153583 9.16 80.57L9.64 81.01C9.69612261 81.0372848 9.76352773 81.0241304 9.80527352 80.9777462 9.84701931 80.931362 9.85302536 80.8629484 9.82 80.81L9.35 80.37zM16.05 84.29C16.0686291 84.2178498 16.0686291 84.1421502 16.05 84.07 15.99 83.91 15.49 83.88 15.34 83.86 15.3574048 83.7876994 15.3574048 83.7123006 15.34 83.64 15.29 83.46 14.78 83.44 14.63 83.42 14.648202 83.3477961 14.648202 83.2722039 14.63 83.2 14.63 83.11 14.46 83.06 14.31 83.03 14.16 83 14 82.97 13.92 82.96 13.9374048 82.8876994 13.9374048 82.8123006 13.92 82.74 13.92 82.56 13.37 82.51 13.22 82.48 13.238202 82.4077961 13.238202 82.3322039 13.22 82.26 13.22 82.08 12.67 82.03 12.53 81.98 12.5474048 81.9076994 12.5474048 81.8323006 12.53 81.76 12.53 81.57 12 81.49 11.85 81.45 11.868202 81.3777961 11.868202 81.3022039 11.85 81.23 11.85 81.05 11.32 80.96 11.18 80.91 11.1974048 80.8376994 11.1974048 80.7623006 11.18 80.69 11.18 80.5 10.67 80.39 10.52 80.34 10.5365619 80.2709796 10.5365619 80.1990204 10.52 80.13 10.52 79.95 10.01 79.83 9.87 79.77 9.88583845 79.7008959 9.88583845 79.6291041 9.87 79.56 9.87 79.37 9.37 79.24 9.23 79.18 9.24656191 79.1109796 9.24656191 79.0390204 9.23 78.97 9.23 78.79 8.74 78.63 8.6 78.57 8.63273411 78.5048274 8.64985225 78.4329312 8.65 78.36 8.65 78.17 8.17 78.01 8.03 77.94 8.0666946 77.8239585 8.0559071 77.6981042 8 77.59 8 77.4 7.54 77.22 7.4 77.15 7.4365686 77.0858318 7.45714862 77.0138017 7.46 76.94 7.46 76.76 7 76.57 6.87 76.48 6.91007914 76.4167414 6.93410817 76.3446543 6.94 76.27 6.94 76.08 6.49 75.88 6.36 75.8 6.40179015 75.7404255 6.42917599 75.6719609 6.44 75.6 6.44 75.41 6.01 75.19 5.88 75.11 5.92246477 75.050793 5.94991791 74.9821601 5.96 74.91 5.96 74.73 5.54 74.49 5.42 74.4 5.46568621 74.3415646 5.49656376 74.2729479 5.51 74.2 5.51 74.02 5.1 73.77 4.98 73.67 5.02927598 73.6125731 5.06362408 73.5438769 5.08 73.47 5.08 73.29 4.69 73.02 4.57 72.92L4.27 73C4.40191374 73.1654527 4.56081324 73.307448 4.74 73.42 4.69000028 73.4769431 4.65555463 73.5458344 4.64 73.62 4.64 73.8 5.04 74.07 5.17 74.15 5.12396478 74.208224 5.09304656 74.2769311 5.08 74.35 5.08 74.53 5.49 74.79 5.62 74.87 5.57717448 74.9290087 5.54968405 74.9977347 5.54 75.07 5.54 75.26 5.97 75.49 6.1 75.57 6.05788001 75.6293954 6.03046165 75.6979413 6.02 75.77 6.02 75.96 6.47 76.17 6.6 76.25 6.55954523 76.3130796 6.53548395 76.3852635 6.53 76.46 6.53 76.65 6.98 76.86 7.12 76.92 7.08305879 76.9840109 7.0624519 77.056135 7.06 77.13 7.06 77.32 7.53 77.51 7.66 77.58 7.62378775 77.6443175 7.60323283 77.7162598 7.6 77.79 7.6 77.98 8.09 78.15 8.22 78.21 8.20343809 78.2790204 8.20343809 78.3509796 8.22 78.42 8.22 78.61 8.7 78.78 8.85 78.83 8.83305061 78.898974 8.83305061 78.971026 8.85 79.04 8.85 79.23 9.35 79.37 9.49 79.43 9.473808 79.4990636 9.473808 79.5709364 9.49 79.64 9.49 79.83 9.99 79.97 10.14 80.01 10.1213709 80.0821502 10.1213709 80.1578498 10.14 80.23 10.14 80.42 10.66 80.53 10.8 80.58 10.7822056 80.6522539 10.7822056 80.7277461 10.8 80.8 10.8 80.89 10.94 80.97 11.09 81.03 11.24 81.09 11.4 81.11 11.48 81.13 11.4613709 81.2021502 11.4613709 81.2778498 11.48 81.35 11.48 81.54 12.02 81.62 12.16 81.66 12.1425952 81.7323006 12.1425952 81.8076994 12.16 81.88 12.16 81.97 12.31 82.04 12.46 82.09 12.61 82.14 12.78 82.15 12.85 82.17 12.8313709 82.2421502 12.8313709 82.3178498 12.85 82.39 12.85 82.57 13.4 82.63 13.55 82.66 13.5322056 82.7322539 13.5322056 82.8077461 13.55 82.88 13.55 83.07 14.1 83.12 14.26 83.13 14.2409229 83.2020926 14.2409229 83.2779074 14.26 83.35 14.31 83.53 14.83 83.55 14.98 83.57 14.9622056 83.6422539 14.9622056 83.7177461 14.98 83.79 15.04 83.97 15.54 83.99 15.7 84.01 15.6809229 84.0820926 15.6809229 84.1579074 15.7 84.23 15.7160341 84.2655195 15.7444805 84.2939659 15.78 84.31L15.92 84.11 16.05 84.29z"/>
      <path fill="#FFF" d="M13.4,86.47 C13.4186291,86.3978498 13.4186291,86.3221502 13.4,86.25 C13.34,86.09 12.84,86.06 12.69,86.04 C12.7077944,85.9677461 12.7077944,85.8922539 12.69,85.82 C12.64,85.64 12.13,85.62 11.98,85.6 C11.998202,85.5277961 11.998202,85.4522039 11.98,85.38 C11.98,85.29 11.81,85.24 11.66,85.21 C11.51,85.18 11.35,85.15 11.27,85.14 C11.2874048,85.0676994 11.2874048,84.9923006 11.27,84.92 C11.27,84.74 10.72,84.69 10.57,84.66 C10.588202,84.5877961 10.588202,84.5122039 10.57,84.44 C10.57,84.26 10.02,84.21 9.88,84.16 C9.89740482,84.0876994 9.89740482,84.0123006 9.88,83.94 C9.88,83.75 9.35,83.67 9.2,83.63 L9,83.63 C9.01820202,83.5577961 9.01820202,83.4822039 9,83.41 C9,83.23 8.47,83.14 8.33,83.09 C8.34740482,83.0176994 8.34740482,82.9423006 8.33,82.87 C8.33,82.68 7.82,82.57 7.67,82.52 C7.68656191,82.4509796 7.68656191,82.3790204 7.67,82.31 C7.67,82.13 7.16,82.01 7.02,81.95 C7.03583845,81.8808959 7.03583845,81.8091041 7.02,81.74 C7.02,81.55 6.52,81.42 6.38,81.36 C6.39656191,81.2909796 6.39656191,81.2190204 6.38,81.15 C6.38,80.97 5.89,80.81 5.75,80.74 C5.78308816,80.674957 5.80022672,80.6029751 5.8,80.53 C5.8,80.34 5.32,80.18 5.18,80.11 C5.2165686,80.0458318 5.23714862,79.9738017 5.24,79.9 C5.24,79.71 4.78,79.53 4.64,79.46 C4.6765686,79.3958318 4.69714862,79.3238017 4.7,79.25 C4.7,79.07 4.24,78.88 4.11,78.79 C4.15007914,78.7267414 4.17410817,78.6546543 4.18,78.58 C4.18,78.39 3.73,78.19 3.6,78.11 C3.63825316,78.0495309 3.66219489,77.9811259 3.67,77.91 C3.67,77.72 3.24,77.5 3.11,77.42 C3.15246477,77.360793 3.17991791,77.2921601 3.19,77.22 C3.19,77.04 2.77,76.8 2.65,76.71 C2.69568621,76.6515646 2.72656376,76.5829479 2.74,76.51 C2.74,76.33 2.33,76.08 2.21,75.98 C2.25927598,75.9225731 2.29362408,75.8538769 2.31,75.78 C2.31,75.71 2.26,75.62 2.17,75.53 L2,75.55 C1.95000028,75.6069431 1.91555463,75.6758344 1.9,75.75 C1.9,75.93 2.3,76.2 2.43,76.28 C2.38396478,76.338224 2.35304656,76.4069311 2.34,76.48 C2.34,76.66 2.75,76.92 2.88,77 C2.83717448,77.0590087 2.80968405,77.1277347 2.8,77.2 C2.8,77.39 3.23,77.62 3.36,77.7 C3.31788001,77.7593954 3.29046165,77.8279413 3.28,77.9 C3.28,78.09 3.73,78.3 3.86,78.38 C3.81954523,78.4430796 3.79548395,78.5152635 3.79,78.59 C3.79,78.78 4.24,78.99 4.38,79.05 C4.34305879,79.1140109 4.3224519,79.186135 4.32,79.26 C4.32,79.45 4.79,79.64 4.92,79.71 C4.8834314,79.7741682 4.86285138,79.8461983 4.86,79.92 C4.86,80.11 5.35,80.28 5.48,80.34 C5.46343809,80.4090204 5.46343809,80.4809796 5.48,80.55 C5.48,80.74 5.96,80.91 6.11,80.96 C6.09305061,81.028974 6.09305061,81.101026 6.11,81.17 C6.11,81.36 6.61,81.5 6.75,81.56 C6.733808,81.6290636 6.733808,81.7009364 6.75,81.77 C6.75,81.96 7.25,82.1 7.4,82.14 C7.38137089,82.2121502 7.38137089,82.2878498 7.4,82.36 C7.4,82.55 7.92,82.66 8.06,82.71 C8.04220564,82.7822539 8.04220564,82.8577461 8.06,82.93 C8.06,83.02 8.2,83.1 8.35,83.16 C8.5,83.22 8.66,83.24 8.74,83.26 C8.72137089,83.3321502 8.72137089,83.4078498 8.74,83.48 C8.74,83.66 9.28,83.75 9.42,83.79 C9.40259518,83.8623006 9.40259518,83.9376994 9.42,84.01 C9.42,84.1 9.57,84.17 9.72,84.22 C9.87,84.27 10.04,84.28 10.11,84.3 C10.0913709,84.3721502 10.0913709,84.4478498 10.11,84.52 C10.11,84.7 10.66,84.76 10.81,84.79 C10.7922056,84.8622539 10.7922056,84.9377461 10.81,85.01 C10.81,85.2 11.36,85.25 11.52,85.26 C11.5009229,85.3320926 11.5009229,85.4079074 11.52,85.48 C11.57,85.66 12.09,85.68 12.24,85.7 C12.2222056,85.7722539 12.2222056,85.8477461 12.24,85.92 C12.3,86.1 12.8,86.12 12.96,86.14 C12.9409229,86.2120926 12.9409229,86.2879074 12.96,86.36 C12.96,86.43 13.07,86.47 13.19,86.49 L13.57,86.26 C13.65,86.48 13.48,86.48 13.4,86.47 Z"/>
      <path fill="#BCBCBC" d="M224.2 209.89L217.59 209.89C216.32 209.89 215.28 210.6 215.28 211.48 215.28 212.36 216.28 213.07 217.59 213.07L217.9 213.07C219.17 213.07 220.21 213.78 220.21 214.66 220.21 215.54 219.21 216.25 217.9 216.25L203.7 216.25C202.43 216.25 201.39 216.96 201.39 217.84 201.39 218.72 202.39 219.43 203.7 219.43L255.7 219.43C256.97 219.43 258.01 218.72 258.01 217.84 258.01 216.96 257.01 216.25 255.7 216.25L251.76 216.25C250.49 216.25 249.45 215.54 249.45 214.66 249.45 213.78 250.45 213.07 251.76 213.07L267.24 213.07C268.51 213.07 269.55 212.36 269.55 211.48 269.55 210.6 268.55 209.89 267.24 209.89L224.24 209.89 224.2 209.89zM265.17 219.83C264.518621 219.900756 263.884082 219.593091 263.536228 219.037844 263.188375 218.482597 263.188375 217.777403 263.536228 217.222156 263.884082 216.666909 264.518621 216.359244 265.17 216.43L271.1 216.43C271.751379 216.359244 272.385918 216.666909 272.733772 217.222156 273.081625 217.777403 273.081625 218.482597 272.733772 219.037844 272.385918 219.593091 271.751379 219.900756 271.1 219.83L265.17 219.83zM198.66 211.52C197.993133 211.608392 197.335492 211.3022 196.973884 210.734957 196.612277 210.167714 196.612277 209.442286 196.973884 208.875043 197.335492 208.3078 197.993133 208.001608 198.66 208.09L204.66 208.09C205.326867 208.001608 205.984508 208.3078 206.346116 208.875043 206.707723 209.442286 206.707723 210.167714 206.346116 210.734957 205.984508 211.3022 205.326867 211.608392 204.66 211.52L198.66 211.52z"/>
      <ellipse cx="287.09" cy="232.32" fill="#333" rx="23.91" ry="2.91"/>
      <path fill="#244242" d="M268.24 232.3L268.24 125.23C268.24 122.61 269.55 120.46 271.16 120.46 272.77 120.46 274.08 122.61 274.08 125.23L274.08 232.3M283.83 232.3L283.83 125.23C283.83 122.61 285.14 120.46 286.75 120.46 288.36 120.46 289.67 122.61 289.67 125.23L289.67 232.3M298.83 232.3L298.83 125.23C298.83 122.61 300.14 120.46 301.75 120.46 303.36 120.46 304.67 122.61 304.67 125.23L304.67 232.3"/>
      <rect width="4.11" height="1.18" x="269.49" y="120.07" fill="#F06A08"/>
      <rect width="3.72" height="4.11" x="274.48" y="118.9" fill="#F06A08" rx=".64"/>
      <path fill="#E0610A" d="M274.58,122.81 C274.58,123.135848 274.315848,123.4 273.99,123.4 C273.664152,123.4 273.4,123.135848 273.4,122.81 L273.4,119.1 C273.4,118.774152 273.664152,118.51 273.99,118.51 C274.315848,118.51 274.58,118.774152 274.58,119.1 L274.58,122.81 Z"/>
      <rect width="4.11" height="1.18" x="283.84" y="120.07" fill="#F06A08" transform="rotate(-180 285.895 120.66)"/>
      <rect width="3.72" height="4.11" x="279.23" y="118.9" fill="#F06A08" rx=".64"/>
      <path fill="#E0610A" d="M282.86 122.81C282.86 123.135848 283.124152 123.4 283.45 123.4 283.775848 123.4 284.04 123.135848 284.04 122.81L284.04 119.1C284.04 118.774152 283.775848 118.51 283.45 118.51 283.124152 118.51 282.86 118.774152 282.86 119.1L282.86 122.81zM278.21 122.81C278.21 123.135848 278.474152 123.4 278.8 123.4 279.125848 123.4 279.39 123.135848 279.39 122.81L279.39 119.1C279.39 118.774152 279.125848 118.51 278.8 118.51 278.474152 118.51 278.21 118.774152 278.21 119.1L278.21 122.81z"/>
      <rect width="4.11" height="1.18" x="285.49" y="120.07" fill="#F06A08"/>
      <rect width="3.72" height="4.11" x="290.48" y="118.9" fill="#F06A08" rx=".64"/>
      <path fill="#E0610A" d="M290.58,122.81 C290.58,123.135848 290.315848,123.4 289.99,123.4 C289.664152,123.4 289.4,123.135848 289.4,122.81 L289.4,119.1 C289.4,118.774152 289.664152,118.51 289.99,118.51 C290.315848,118.51 290.58,118.774152 290.58,119.1 L290.58,122.81 Z"/>
      <rect width="4.11" height="1.18" x="299.84" y="120.07" fill="#F06A08" transform="rotate(-180 301.895 120.66)"/>
      <rect width="3.72" height="4.11" x="295.23" y="118.9" fill="#F06A08" rx=".64"/>
      <path fill="#E0610A" d="M298.86 122.81C298.86 123.135848 299.124152 123.4 299.45 123.4 299.775848 123.4 300.04 123.135848 300.04 122.81L300.04 119.1C300.04 118.774152 299.775848 118.51 299.45 118.51 299.124152 118.51 298.86 118.774152 298.86 119.1L298.86 122.81zM294.21 122.81C294.21 123.135848 294.474152 123.4 294.8 123.4 295.125848 123.4 295.39 123.135848 295.39 122.81L295.39 119.1C295.39 118.774152 295.125848 118.51 294.8 118.51 294.474152 118.51 294.21 118.774152 294.21 119.1L294.21 122.81z"/>
      <rect width="30.65" height="56.87" x="112.432" y="3.213" fill="#E6C599" transform="rotate(118.96 127.757 31.648)"/>
      <path fill="#1E0000" d="M118,43.76 L119.8,29.45 C119.820923,29.1651231 119.719023,28.8848965 119.52,28.68 L115.95,25 L115.84,24.86 L111.15,17.86 C111.028,17.673676 110.971691,17.4519579 110.99,17.23 L111.17,15 C111.203068,14.5972147 111.47533,14.2539284 111.86,14.13 L121.72,10.84 C121.72,10.84 112.81,3.84 109.46,2.14 C108.725048,1.82913306 107.95661,1.60430616 107.17,1.47 L102,1 C100.210611,0.852776223 98.5423559,1.91588019 97.92,3.6 L91.71,20.25 C91.6775901,20.3367863 91.657397,20.4276553 91.65,20.52 L91.29,25.11 C91.2950735,25.349048 91.360427,25.5829445 91.48,25.79 C92.48,27.7 95.37,33.41 95.37,33.41 L101.73,20 C101.8375,19.7726116 102.02674,19.5940833 102.26,19.5 L105.57,18.19 C105.98977,18.0231132 106.4693,18.1583654 106.74,18.52 L112,25.46 C112.223889,25.7435668 112.277409,26.1258514 112.14,26.46 L109.88,39.29 L118,43.76 Z"/>
      <path fill="#093E7B" d="M239.81,131 C239.666413,130.766107 239.433007,130.601508 239.164484,130.544778 C238.89596,130.488048 238.615923,130.544173 238.39,130.7 L176.18,173.7 C175.755297,174.0094 175.454106,174.459414 175.33,174.97 L163.33,224.74 L141.26,226.68 L154.26,167.47 C154.601169,165.916024 155.488164,164.535861 156.76,163.58 L194.38,135.31 L246.89,93.38 L276.4,148.81 C276.7,149.37 277.12,150.05 277.73,150.2 L328.58,162.37 L325.41,183.22 L266.64,170.93 C264.750969,170.534237 263.12707,169.337295 262.19,167.65 L239.81,131 Z"/>
      <path fill="#4A90E2" d="M204.08,133.31 L246.08,100.14 C248.673975,97.5435313 248.673975,93.3364687 246.08,90.74 L174.58,19.24 C168.52,13.18 161.27,14.24 153.24,20.44 C146.24,25.85 127.58,44.3 127.58,44.3 C121.525936,50.3565221 121.525936,60.1734779 127.58,66.23 L194.65,133.3 C195.896807,134.556253 197.592978,135.263639 199.362921,135.265516 C201.132864,135.267393 202.830532,134.563606 204.08,133.31 Z"/>
      <polygon fill="#E6C599" points="145.97 34.38 145.97 47.12 128.24 39.36"/>
      <path fill="#E6C596" d="M34.48,90.68 L44,101.54 C44.8658372,102.467876 46.2541865,102.68274 47.36,102.06 L105.73,66.8 C106.772787,66.1614568 107.114732,64.8069988 106.5,63.75 L101.11,54.64 C100.481352,53.5873862 99.1280729,53.2279909 98.06,53.83 L40.54,86.73"/>
      <path fill="#E6C596" d="M42.08 88.47L26.15 98.33C25.7617244 97.998353 25.5316008 97.5181277 25.5163648 97.0077205 25.5011287 96.4973132 25.7021979 96.0042164 26.07 95.65 29.07 94.06 36.07 89.74 41.07 86.65M42.08 88.47L49.15 100.56C36.94 112.01 33.15 97.3 33.15 97.3 31.6720001 98.2015627 30.1464512 99.0227553 28.58 99.76 26.85 100.4 26.16 98.33 26.16 98.33"/>
      <path fill="#E6C596" d="M36.79,88.27 C37.4168432,89.3276253 38.7823747,89.6768432 39.84,89.05 C40.8976253,88.4231568 41.2468432,87.0576253 40.62,86 L38.82,83 C38.4910019,82.2036614 37.7309362,81.6696129 36.870223,81.6300192 C36.0095098,81.5904254 35.2036241,82.0524384 34.8029053,82.8152092 C34.4021864,83.57798 34.4790183,84.5037253 35,85.19 L36.79,88.27 Z"/>
      <path fill="#E6C596" d="M45.5,83.89 C45.5,83.89 37.98,80.89 35.92,82.07 L39.62,89 L45.5,83.89 Z"/>
      <path fill="#093E7B" d="M99.5198657,32.3889901 L174.279866,32.3889901 L174.279866,48.3889901 L99.3598657,48.3889901 C96.9132443,48.3889901 94.9298657,46.4056115 94.9298657,43.9589901 L94.9298657,36.9589901 C94.9298657,34.4295259 96.9804016,32.3789901 99.5098657,32.3789901 L99.5198657,32.3889901 Z" transform="rotate(148.85 134.605 40.384)"/>
      <path fill="#D8791A" d="M326,161.56 L325.88,171.05 C325.423611,171.705454 324.732544,172.160198 323.95,172.32 C322.22,172.68 317.05,171.32 319.04,177.52 C319.04,177.52 321.3,184.04 330.3,184.59 L330.3,191.59 C330.3,191.59 333.38,197.53 339.1,194.67 L341.3,191.48 L341.3,162.59 L339.52,161.59"/>
      <polygon fill="#203759" points="339.26 194.72 339.26 161.56 341.26 162.59 341.26 191.64"/>
      <rect width="5.94" height="1.32" x="322.95" y="177.69" fill="#203759" transform="rotate(-90 325.92 178.35)"/>
      <rect width="5.94" height="1.32" x="324.93" y="177.69" fill="#203759" transform="rotate(-90 327.9 178.35)"/>
      <path fill="#D8791A" d="M164.94,219.16 L155.45,219.04 C154.794546,218.583611 154.339802,217.892544 154.18,217.11 C153.82,215.38 155.18,210.11 148.98,212.11 C148.98,212.11 142.46,214.3 141.91,223.3 L134.91,223.3 C134.91,223.3 128.97,226.38 131.83,232.1 L135.02,234.3 L163.96,234.3 L164.96,232.59"/>
      <polygon fill="#203759" points="131.78 232.31 164.94 232.31 163.92 234.31 134.87 234.31"/>
      <rect width="5.94" height="1.32" x="145.18" y="218.45" fill="#203759"/>
      <rect width="5.94" height="1.32" x="145.18" y="220.43" fill="#203759"/>
      <path fill="#E6C599" d="M103.15,35.46 L105.15,38.09 C106.15,39.63 106.53,39.17 107.15,37.87 L108.15,35.87 L103.15,35.46 Z"/>
    </g>
    <g transform="translate(216)">
      <path fill="#FFF" d="M0,42.2597332 C0,38.5572394 3.00146034,35.5555556 6.70417766,35.5555556 L38.2138127,35.5555556 C41.91653,35.5555556 44.9179903,38.5572394 44.9179903,42.2597332 L44.9179903,65.8743051 C44.9179903,69.5770225 41.91653,72.5784828 38.2138127,72.5784828 L10.8095926,72.5784828 C10.320858,72.5784828 9.84575532,72.7387127 9.45668954,73.0345904 L0.358673505,79.9539721 C0.211628542,80.0659319 0,79.9608998 0,79.776088 L0,42.2597332 Z" transform="matrix(-1 0 0 1 44.918 0)"/>
      <path fill="#FFF" d="M54.2222222,79.5969583 L54.2222222,12.0675198 C54.2222222,5.40303086 59.6248508,0 66.289742,0 L123.007085,0 C129.671976,0 135.074605,5.40303086 135.074605,12.0675198 L135.074605,54.5737493 C135.074605,61.2386405 129.671976,66.6412691 123.007085,66.6412691 L73.6794889,66.6412691 C72.7997667,66.6412691 71.9445818,66.9296828 71.2442634,67.4622627 L54.8678345,79.9171498 C54.6031536,80.1186774 54.2222222,79.9296196 54.2222222,79.5969583"/>
      <rect width="57" height="7" x="65" y="18" fill="#EDEDED" rx="2"/>
      <rect width="45" height="7" x="65" y="30" fill="#EDEDED" rx="2"/>
      <rect width="30" height="7" x="65" y="42" fill="#EDEDED" rx="2"/>
      <rect width="30" height="5" x="7" y="45" fill="#EDEDED" rx="1"/>
      <rect width="20" height="5" x="17" y="53" fill="#EDEDED" rx="1"/>
    </g>
  </g>
</svg>
