<?xml version="1.0" encoding="UTF-8"?>
<svg width="87px" height="200px" viewBox="0 0 87 200" version="1.1" xmlns="http://www.w3.org/2000/svg" xmlns:xlink="http://www.w3.org/1999/xlink">
    <!-- Generator: Sketch 49 (51002) - http://www.bohemiancoding.com/sketch -->
    <title>Bowler</title>
    <desc>Created with Sketch.</desc>
    <defs></defs>
    <g id="Page-1" stroke="none" stroke-width="1" fill="none" fill-rule="evenodd">
        <g id="Cricket-API" transform="translate(-150.000000, -491.000000)" fill-rule="nonzero">
            <g id="Bowler" transform="translate(150.000000, 491.000000)">
                <path d="M63.9573747,102.499373 L68.7200801,187.132647 L57.0673277,187.870866 L49.3041179,126.011261 C49.1691746,125.122223 45.5018915,124.749144 44.620791,124.915839 L42.1838734,125.661996 C41.5599169,125.775945 41.0636633,126.25035 40.9217565,126.868548 L28.014825,190.17284 L16.4970159,189.379056 L26.9749677,100.427596 L63.9573747,102.499373 Z" id="Shape" fill="#031B42"></path>
                <rect id="Rectangle-path" fill="#E2987B" transform="translate(43.926862, 29.103179) rotate(-179.700000) translate(-43.926862, -29.103179) " x="37.5170543" y="16.5018544" width="12.8196152" height="25.2026491"></rect>
                <rect id="Rectangle-path" fill="#EFAA8E" transform="translate(43.506953, 17.586528) rotate(-89.427061) translate(-43.506953, -17.586528) " x="29.5594668" y="7.97332005" width="27.8949723" height="19.2264152" rx="9.61320759"></rect>
                <path d="M24.6807676,102.63832 L24.6807676,66.3385677 C24.6807676,65.8543593 24.458508,65.7829187 24.1965592,66.1956865 L21.1325521,70.8869513 C20.8473962,71.29757 20.3089196,71.4447313 19.8545595,71.2362163 L10.1227649,66.3941326 C9.68559364,66.1741416 9.50545699,65.6443279 9.71793497,65.2034562 L19.0448996,45.9700644 C19.318526,45.4757334 19.7367607,45.076887 20.2435138,44.8270152 L32.7694289,39.4213446 L34.3569973,38.7069388 L35.0396517,38.3973629 C35.571186,38.1867765 36.1471029,38.113081 36.7145365,38.1830412 C39.3179176,38.6398661 41.9437642,38.9578293 44.5809381,39.1355823 C47.1810826,38.9557288 49.7698266,38.6377664 52.33621,38.1830412 C52.9062471,38.1127557 53.4848097,38.1864406 54.0190326,38.3973629 L54.7255005,38.7148766 L56.313069,39.4292824 L68.9104246,44.9302071 C69.4168641,45.1842555 69.8346762,45.5854658 70.1090388,46.0811942 L79.4995062,65.2590211 C79.7086587,65.6980818 79.5333725,66.2239404 79.1026141,66.4496975 L69.7200845,71.2124028 C69.2855388,71.4428755 68.746855,71.3012983 68.4817811,70.8869513 L65.8146662,66.2591892 C65.568593,65.8384836 65.370147,65.8940485 65.370147,66.3782569 L65.370147,102.63832 L24.6807676,102.63832 Z" id="Shape" fill="#9D0000"></path>
                <path d="M55.0828671,39.0125102 L51.0186919,36.7025981 C51.0186919,36.7025981 45.8749701,39.3300239 37.5799249,36.8375414 L33.6903822,38.9648831 C33.6903822,38.9648831 41.6282245,39.6554754 44.5969775,39.6554754 C47.5657305,39.6554754 55.0828671,39.0125102 55.0828671,39.0125102 Z" id="Shape" fill="#FCC155"></path>
                <path d="M23.6908536,66.2730449 C23.6908536,66.2730449 39.7967355,88.7688899 56.1407527,90.7692261 L56.1407527,100.739156 C56.1407527,100.739156 32.1843448,90.3326448 23.6908536,66.2730449 Z" id="Shape" fill="#FCC155" transform="translate(39.915803, 83.506100) scale(-1, 1) translate(-39.915803, -83.506100) "></path>
                <ellipse id="Oval" fill="#002B6D" cx="23.3394359" cy="188.180442" rx="4.67538909" ry="2.90525026"></ellipse>
                <ellipse id="Oval" fill="#002B6D" cx="63.2270933" cy="187.67242" rx="4.67538909" ry="2.90525026"></ellipse>
                <path d="M1.09760196,198.174185 L28.8800498,196.896193 C30.0707262,195.245121 29.5230151,191.530211 28.8403606,188.672588 C27.5185432,189.809358 25.8707717,190.498477 24.1332202,190.641173 C23.7248425,190.688961 23.3140188,190.712815 22.9028546,190.712613 C20.3985804,190.787779 18.0102428,189.657082 16.4811402,187.67242 C7.08273502,193.855999 5.55073146,193.490858 2.91536784,194.379897 C2.12262074,194.571784 1.45816035,195.109939 1.10575793,195.845521 C0.753355498,196.581103 0.750360756,197.436152 1.09760196,198.174185 L1.09760196,198.174185 Z" id="Shape" fill="#FA8D43"></path>
                <path d="M24.141158,190.641173 C25.8787095,190.498477 27.5264811,189.809358 28.8482985,188.672588 C28.76892,188.339199 28.6895416,188.021685 28.6101632,187.720047 C27.3883603,188.916389 25.7891327,189.651473 24.0855931,189.799762 L24.0855931,189.799762 C19.4737068,190.347473 17.3860543,187.458098 17.1241055,187.069144 C16.930541,187.233085 16.7573195,187.419631 16.6081457,187.624793 L16.5208295,187.680358 C18.049932,189.66502 20.4382696,190.795716 22.9425438,190.720551 C23.3432672,190.716931 23.7434568,190.690428 24.141158,190.641173 L24.141158,190.641173 Z" id="Shape" fill="#32373B"></path>
                <path d="M27.816379,199.753816 L2.18508635,199.753816 C1.58484402,199.434241 1.17874963,198.841402 1.09760196,198.166247 L28.8800498,196.888255 C28.8959255,199.753816 27.816379,199.753816 27.816379,199.753816 Z" id="Shape" fill="#E74F06"></path>
                <path d="M16.2033158,190.204592 L14.782442,188.783718 L14.075974,189.228237 L15.4650964,190.617359 C15.4650964,190.617359 15.9016778,191.101568 16.2033158,190.855495 C16.5049538,190.609421 16.2033158,190.204592 16.2033158,190.204592 Z" id="Shape" fill="#E6C596"></path>
                <path d="M13.8060874,191.427019 L12.5519083,190.17284 L11.8295647,190.601484 L13.0678681,191.839787 C13.0678681,191.839787 13.5044494,192.323995 13.8060874,192.077922 C14.1077254,191.831849 13.8060874,191.427019 13.8060874,191.427019 Z" id="Shape" fill="#32373B"></path>
                <path d="M10.9643399,192.649447 L9.96417176,191.649279 L9.21007674,192.046171 L10.2181827,193.054277 C10.2181827,193.054277 10.654764,193.538485 10.956402,193.292412 C11.25804,193.046339 10.9643399,192.649447 10.9643399,192.649447 Z" id="Shape" fill="#32373B"></path>
                <path d="M8.33691409,193.800434 L7.43993792,192.903458 L6.64615369,193.236847 L7.61457045,194.205264 C7.61457045,194.205264 8.05115177,194.689472 8.35278978,194.443399 C8.65442778,194.197326 8.33691409,193.800434 8.33691409,193.800434 Z" id="Shape" fill="#32373B"></path>
                <path d="M82.9764448,193.586112 C80.3410811,192.697074 78.8090776,193.062215 69.4106724,186.878636 C67.8815698,188.863298 65.4932322,189.993994 62.988958,189.918829 C62.5777938,189.919031 62.1669701,189.895177 61.7585924,189.847389 C60.021041,189.704692 58.3732694,189.015574 57.051452,187.878804 C56.3687975,190.736427 55.8131486,194.459275 57.0117628,196.102408 L84.7942106,197.380401 C85.1414519,196.642368 85.1384571,195.787319 84.7860547,195.051737 C84.4336523,194.316154 83.7691919,193.778 82.9764448,193.586112 L82.9764448,193.586112 Z" id="Shape" fill="#FA8D43"></path>
                <path d="M62.988958,189.918829 C65.4932322,189.993994 67.8815698,188.863298 69.4106724,186.878636 L69.3233561,186.823071 C69.1741823,186.617909 69.0009608,186.431363 68.8073964,186.267422 C68.5454476,186.664314 66.4260437,189.553688 61.8459087,188.99804 L61.8459087,188.99804 C60.1423691,188.849751 58.5431415,188.114667 57.3213386,186.918325 C57.2419602,187.219963 57.1625818,187.537477 57.0832034,187.870866 C58.4050207,189.007636 60.0527923,189.696755 61.7903438,189.839451 C62.188045,189.888706 62.5882346,189.915209 62.988958,189.918829 L62.988958,189.918829 Z" id="Shape" fill="#32373B"></path>
                <path d="M57.0117628,196.102408 L84.7942106,197.380401 C84.713063,198.055556 84.3069686,198.648394 83.7067263,198.967969 L58.0913093,198.967969 C58.0913093,198.967969 57.0117628,198.960032 57.0117628,196.102408 Z" id="Shape" fill="#E74F06"></path>
                <path d="M69.6964347,190.06171 C69.9980727,190.307783 70.434654,189.823575 70.434654,189.823575 L71.8237764,188.418577 L71.1173084,187.974058 L69.6964347,189.394932 C69.6964347,189.394932 69.3392318,189.76801 69.6964347,190.06171 Z" id="Shape" fill="#32373B"></path>
                <path d="M72.093663,191.2762 C72.3953011,191.522273 72.8318824,191.038065 72.8318824,191.038065 L74.0701858,189.799762 L73.3478421,189.371118 L72.093663,190.625297 C72.093663,190.625297 71.7364601,190.990438 72.093663,191.2762 Z" id="Shape" fill="#32373B"></path>
                <path d="M74.9354106,192.506566 C75.2370486,192.752639 75.6736299,192.268431 75.6736299,192.268431 L76.6817359,191.260325 L75.9276409,190.863432 L74.9274727,191.863601 C74.9274727,191.863601 74.5782077,192.212866 74.9354106,192.506566 Z" id="Shape" fill="#32373B"></path>
                <path d="M77.5628364,193.649615 C77.8644744,193.895688 78.3010557,193.41148 78.3010557,193.41148 L79.2694724,192.443063 L78.4756882,192.109674 L77.578712,193.00665 C77.578712,193.00665 77.2056335,193.363853 77.5628364,193.649615 Z" id="Shape" fill="#32373B"></path>
                <path d="M17.449557,58.095083 C17.1524196,57.8762998 16.7771603,57.7921301 16.4150444,57.8630445 C16.0529286,57.9339588 15.737138,58.1534591 15.5444749,58.4681616 L0.462574582,82.6230155 C0.0440185425,83.3844898 0.00583591493,84.2979358 0.359382633,85.0916845 L13.3060033,110.214955 C13.414102,110.426522 13.6112831,110.578545 13.8433883,110.62927 C14.0754934,110.679995 14.3181163,110.624088 14.5046175,110.476904 L19.8785367,106.269848 C20.5041703,105.745254 20.6966593,104.864372 20.3468694,104.12663 L11.0834075,86.171231 C10.732357,85.3781937 10.7764984,84.4659391 11.2024751,83.7104999 L23.6172604,64.2707242 C24.0326854,63.5973344 23.8637225,62.7180379 23.2283062,62.2465745 L17.449557,58.095083 Z" id="Shape" fill="#EFAA8E"></path>
                <polygon id="Shape" fill="#9D0000" points="10.2419962 66.6123877 19.7039042 71.2877768 26.4748836 60.6510682 20.0452314 58.245902 15.6079776 56.031244"></polygon>
                <circle id="Oval" fill="#D0011B" transform="translate(25.669778, 114.200472) rotate(-0.210000) translate(-25.669778, -114.200472) " cx="25.6697779" cy="114.200472" r="5.81050053"></circle>
                <path d="M21.474043,110.191142 L21.3787889,110.286396 C23.2871673,113.74551 26.1574477,116.577189 29.6420827,118.43856 L29.7373368,118.343306 C26.2480409,116.488273 23.3761477,113.655002 21.474043,110.191142 L21.474043,110.191142 Z" id="Shape" fill="#231F20" opacity="0.7" style="mix-blend-mode: multiply;"></path>
                <path d="M23.1092385,113.532973 C23.0763589,113.491326 23.0159427,113.484218 22.9742952,113.517098 C22.9326477,113.549977 22.9255399,113.610393 22.9584195,113.652041 L23.2521197,114.001306 C23.2871913,114.042953 23.3493844,114.048284 23.3910319,114.013213 C23.4326794,113.978141 23.4380103,113.915948 23.4029387,113.8743 L23.1092385,113.532973 Z M22.5535896,112.818567 C22.5207099,112.774728 22.4585168,112.765843 22.4146773,112.798723 C22.3708379,112.831602 22.3619531,112.893796 22.3948327,112.937635 L22.6726572,113.302776 C22.6978562,113.314326 22.7268366,113.314326 22.7520356,113.302776 L22.8076005,113.302776 C22.8255357,113.284903 22.8356168,113.260624 22.8356168,113.235304 C22.8356168,113.209984 22.8255357,113.185706 22.8076005,113.167832 L22.5535896,112.818567 Z M23.688701,114.215628 C23.6536294,114.176172 23.5932132,114.172618 23.5537577,114.20769 C23.5143022,114.242761 23.5107483,114.303178 23.5458198,114.342633 L23.8553957,114.676023 C23.8783074,114.685291 23.9039245,114.685291 23.9268363,114.676023 C23.96448,114.676198 23.998696,114.654187 24.0141438,114.619858 C24.0295917,114.58553 24.0233734,114.545324 23.9982769,114.517266 L23.688701,114.215628 Z M24.2999149,114.874469 C24.2626513,114.835013 24.2004582,114.833236 24.1610026,114.8705 C24.1215471,114.907763 24.1197702,114.969956 24.1570337,115.009412 L24.4745474,115.334863 C24.511811,115.372127 24.5722271,115.372127 24.6094907,115.334863 C24.6467543,115.2976 24.6467543,115.237184 24.6094907,115.19992 L24.2999149,114.874469 Z M21.124778,110.556282 L20.9977725,110.722977 L21.1644672,111.016677 C21.1823154,111.047694 21.2160423,111.066091 21.2517834,111.064304 L21.2994105,111.064304 C21.3173457,111.046431 21.3274268,111.022153 21.3274268,110.996833 C21.3274268,110.971512 21.3173457,110.947234 21.2994105,110.929361 L21.124778,110.556282 Z M21.5534214,111.350067 C21.5249258,111.304035 21.4645096,111.28982 21.4184781,111.318315 C21.3724467,111.346811 21.3582311,111.407227 21.3867268,111.453259 L21.624862,111.842213 C21.6413097,111.870743 21.671327,111.888753 21.7042404,111.88984 L21.7598053,111.88984 C21.7777405,111.871967 21.7878217,111.847689 21.7878217,111.822368 C21.7878217,111.797048 21.7777405,111.77277 21.7598053,111.754897 L21.5534214,111.350067 Z M24.9508179,115.541247 C24.9252947,115.517142 24.8888502,115.508484 24.8552127,115.518535 C24.8215753,115.528587 24.7958552,115.55582 24.7877411,115.589976 C24.7796269,115.624132 24.7903513,115.660023 24.8158746,115.684128 L25.149264,115.993704 C25.1747872,116.016392 25.2104753,116.023739 25.2428847,116.012979 C25.2752942,116.002219 25.2995013,115.974986 25.3063875,115.941538 C25.3132737,115.908091 25.3017927,115.873511 25.2762695,115.850823 L24.9508179,115.541247 Z M26.3161268,116.716048 C26.2744793,116.683168 26.2140631,116.690276 26.1811835,116.731924 C26.1483039,116.773571 26.1554116,116.833987 26.1970592,116.866867 L26.5542621,117.144691 L26.609827,117.144691 C26.6523901,117.146024 26.6906671,117.118945 26.7035787,117.078365 C26.7164903,117.037786 26.7008994,116.993567 26.6653918,116.970059 L26.3161268,116.716048 Z M27.0384704,117.255821 C26.9946309,117.225134 26.9342148,117.235795 26.9035271,117.279635 C26.8728395,117.323474 26.8835012,117.38389 26.9273406,117.414578 L27.3004192,117.676527 L27.3559841,117.676527 C27.3985472,117.67786 27.4368242,117.65078 27.4497359,117.610201 C27.4626475,117.569621 27.4470565,117.525402 27.411549,117.501894 L27.0384704,117.255821 Z M22.0455677,112.104162 C22.01488,112.060322 21.9544638,112.04966 21.9106243,112.080348 C21.8667849,112.111036 21.8561232,112.171452 21.8868108,112.215291 L22.1487596,112.58837 C22.1670633,112.613871 22.1967553,112.628717 22.228138,112.628059 L22.2837029,112.628059 C22.3016381,112.610186 22.3117192,112.585908 22.3117192,112.560588 C22.3117192,112.535267 22.3016381,112.510989 22.2837029,112.493116 L22.0455677,112.104162 Z M29.3325068,118.684633 C29.294262,118.662685 29.2459529,118.669856 29.2157318,118.701966 C29.1855108,118.734076 29.1812785,118.78273 29.2055014,118.819576 L29.3563204,118.700509 L29.3325068,118.684633 Z M28.1577062,118.009916 L27.7925654,117.771781 C27.7491959,117.749973 27.6963643,117.764269 27.6699086,117.80497 C27.6434528,117.845671 27.6518369,117.899756 27.6893735,117.930538 L28.0703899,118.176611 L28.118017,118.176611 C28.1652158,118.182137 28.2092675,118.15203 28.2212629,118.106047 C28.2332583,118.060065 28.2095275,118.012275 28.165644,117.994041 L28.1577062,118.009916 Z M25.6175967,116.144523 C25.5920734,116.121836 25.5563854,116.114489 25.5239759,116.125249 C25.4915665,116.136009 25.4673594,116.163242 25.4604732,116.196689 C25.453587,116.230137 25.4650679,116.264717 25.4905912,116.287405 L25.8398563,116.581105 C25.8667975,116.603792 25.9037957,116.610383 25.9369142,116.598395 C25.9700326,116.586407 25.9942397,116.557661 26.0004169,116.522985 C26.0065941,116.48831 25.993803,116.452973 25.9668617,116.430286 L25.6175967,116.144523 Z M28.9356147,118.470311 L28.5466605,118.248052 C28.500629,118.221748 28.4419898,118.23774 28.4156861,118.283772 C28.3893824,118.329803 28.4053749,118.388443 28.4514064,118.414746 L28.8482985,118.644944 L28.8959255,118.644944 C28.9431244,118.65047 28.987176,118.620362 28.9991714,118.57438 C29.0111668,118.528398 28.9874361,118.480608 28.9435526,118.462373 L28.9356147,118.470311 Z" id="Shape" fill="#FFFFFF"></path>
                <path d="M23.3314981,112.064472 C23.3102287,112.036113 23.2754456,112.021255 23.2402511,112.025496 C23.2050566,112.029736 23.1747977,112.05243 23.1608727,112.085029 C23.1469476,112.117629 23.1514719,112.155181 23.1727413,112.18354 L23.4505657,112.548681 C23.4757648,112.560231 23.5047451,112.560231 23.5299442,112.548681 L23.5855091,112.548681 C23.6034442,112.530808 23.6135254,112.506529 23.6135254,112.481209 C23.6135254,112.455889 23.6034442,112.431611 23.5855091,112.413737 L23.3314981,112.064472 Z M23.8871471,112.778878 C23.8658777,112.751937 23.831851,112.738389 23.7978845,112.743339 C23.763918,112.748288 23.7351721,112.770982 23.722475,112.802872 C23.7097779,112.834763 23.7150587,112.871005 23.7363281,112.897946 L24.0300282,113.247211 C24.0529399,113.256479 24.0785571,113.256479 24.1014688,113.247211 C24.1391126,113.247386 24.1733285,113.225375 24.1887764,113.191047 C24.2042242,113.156718 24.1980059,113.116512 24.1729094,113.088454 L23.8871471,112.778878 Z M22.8155384,111.326253 C22.7956869,111.297894 22.762214,111.28228 22.7277285,111.285292 C22.6932431,111.288304 22.6629842,111.309485 22.6483501,111.340857 C22.6337161,111.372228 22.6369301,111.409024 22.6567815,111.437383 L22.9107925,111.810461 C22.9290962,111.835962 22.9587882,111.850808 22.9901709,111.850151 L23.0457358,111.850151 C23.063671,111.832278 23.0737521,111.807999 23.0737521,111.782679 C23.0737521,111.757359 23.063671,111.73308 23.0457358,111.715207 L22.8155384,111.326253 Z M22.33133,110.532469 C22.3028343,110.486437 22.2424181,110.472222 22.1963867,110.500718 C22.1503552,110.529213 22.1361396,110.589629 22.1646353,110.635661 L22.4027706,111.024615 C22.4192183,111.053145 22.4492356,111.071155 22.482149,111.072242 L22.5377139,111.072242 C22.5556491,111.054369 22.5657302,111.030091 22.5657302,111.00477 C22.5657302,110.97945 22.5556491,110.955172 22.5377139,110.937299 L22.33133,110.532469 Z M30.1024775,117.874973 C30.0564461,117.846477 29.9960299,117.860693 29.9675342,117.906724 C29.9390386,117.952756 29.9532541,118.013172 29.9992856,118.041668 L30.1262911,117.890849 L30.1024775,117.874973 Z M25.0778234,114.09656 C25.0537181,114.072455 25.0185839,114.063041 24.9856554,114.071864 C24.9527269,114.080687 24.9270069,114.106407 24.9181837,114.139335 C24.9093606,114.172264 24.9187748,114.207398 24.9428801,114.231503 L25.2603938,114.556955 C25.2844991,114.58106 25.3196333,114.590474 25.3525618,114.581651 C25.3854902,114.572828 25.4112103,114.547108 25.4200335,114.51418 C25.4288566,114.481251 25.4194424,114.446117 25.3953371,114.422012 L25.0778234,114.09656 Z M24.4666095,113.437719 C24.431538,113.398264 24.3711218,113.39471 24.3316662,113.429781 C24.2922107,113.464853 24.2886568,113.525269 24.3237284,113.564725 L24.6333042,113.898114 C24.6574095,113.923637 24.6933003,113.934362 24.7274567,113.926248 C24.7616131,113.918133 24.7888461,113.892413 24.7988973,113.858776 C24.8089484,113.825138 24.8002907,113.788694 24.7761854,113.763171 L24.4666095,113.437719 Z M27.8084411,116.454099 C27.7646016,116.423412 27.7041855,116.434073 27.6734978,116.477913 C27.6428102,116.521752 27.6534718,116.582168 27.6973113,116.612856 L28.0703899,116.874805 L28.1259548,116.874805 C28.1685179,116.876138 28.2067949,116.849058 28.2197066,116.808479 C28.2326182,116.767899 28.2170272,116.72368 28.1815197,116.700172 L27.8084411,116.454099 Z M27.0860975,115.914326 C27.04445,115.881446 26.9840338,115.888554 26.9511542,115.930202 C26.9182746,115.971849 26.9253823,116.032265 26.9670299,116.065145 L27.3242328,116.342969 L27.3797977,116.342969 C27.4223608,116.344302 27.4606378,116.317223 27.4735494,116.276643 C27.486461,116.236064 27.4708701,116.191845 27.4353625,116.168337 L27.0860975,115.914326 Z M28.9276769,117.208194 L28.5466605,116.962121 C28.5032909,116.940313 28.4504593,116.954609 28.4240036,116.99531 C28.3975479,117.036011 28.4059319,117.090097 28.4434685,117.120878 L28.8244849,117.366951 L28.872112,117.366951 C28.9193109,117.372477 28.9633625,117.34237 28.9753579,117.296387 C28.9873533,117.250405 28.9636226,117.202615 28.919739,117.184381 L28.9276769,117.208194 Z M26.3875674,115.390428 C26.3620441,115.367741 26.3263561,115.360394 26.2939466,115.371154 C26.2615372,115.381914 26.2373301,115.409147 26.2304439,115.442594 C26.2235577,115.476042 26.2350386,115.510622 26.2605619,115.533309 L26.609827,115.82701 C26.6514745,115.862081 26.7136676,115.85675 26.7487392,115.815103 C26.7838108,115.773455 26.7784799,115.711262 26.7368324,115.676191 L26.3875674,115.390428 Z M21.8868108,109.833939 L21.7359918,109.968882 L21.9265,110.318147 C21.9443483,110.349164 21.9780752,110.367561 22.0138163,110.365774 L22.0614433,110.365774 C22.0793785,110.347901 22.0894597,110.323623 22.0894597,110.298303 C22.0894597,110.272982 22.0793785,110.248704 22.0614433,110.230831 L21.8868108,109.833939 Z M29.7055854,117.732092 L29.3166312,117.509832 C29.286854,117.492817 29.2502611,117.49298 29.2206367,117.51026 C29.1910123,117.52754 29.1728569,117.559311 29.1730097,117.593607 C29.1731624,117.627902 29.1915999,117.659511 29.2213771,117.676527 L29.6182692,117.906724 L29.6658962,117.906724 C29.7130951,117.91225 29.7571467,117.882143 29.7691421,117.836161 C29.7811375,117.790178 29.7574068,117.742389 29.7135233,117.724154 L29.7055854,117.732092 Z M25.7366643,114.803028 C25.6972088,114.765764 25.6350156,114.767541 25.5977521,114.806997 C25.5604885,114.846452 25.5622654,114.908646 25.601721,114.945909 L25.9351104,115.255485 C25.9745659,115.290557 26.0349821,115.287003 26.0700537,115.247547 C26.1051253,115.208092 26.1015714,115.147675 26.0621158,115.112604 L25.7366643,114.803028 Z" id="Shape" fill="#FFFFFF"></path>
                <path d="M30.4199912,117.509832 L30.4199912,117.509832 C30.4324245,117.460328 30.4324245,117.408517 30.4199912,117.359013 C30.3723642,117.247883 30.0230991,117.22407 29.9199072,117.216132 L29.9199072,117.216132 C29.9317165,117.166553 29.9317165,117.114893 29.9199072,117.065313 C29.9199072,116.938308 29.5230151,116.93037 29.4198231,116.914494 L29.4198231,116.914494 C29.4322564,116.86499 29.4322564,116.813179 29.4198231,116.763675 C29.4198231,116.700172 29.3007555,116.668421 29.1975635,116.644607 L28.9276769,116.59698 L28.9276769,116.59698 C28.9391975,116.547367 28.9391975,116.495774 28.9276769,116.446161 C28.9276769,116.319156 28.5466605,116.279467 28.4355307,116.263591 L28.4355307,116.263591 C28.4476438,116.214048 28.4476438,116.162315 28.4355307,116.112772 C28.4355307,115.985766 28.0465764,115.946077 27.9513223,115.914326 L27.9513223,115.914326 C27.9631316,115.864746 27.9631316,115.813086 27.9513223,115.763507 C27.9513223,115.636501 27.5782437,115.580937 27.4750518,115.549185 L27.4750518,115.549185 C27.4871649,115.499642 27.4871649,115.44791 27.4750518,115.398366 C27.4750518,115.271361 27.1019732,115.207858 26.9987812,115.176107 L26.9987812,115.176107 C27.0103018,115.126494 27.0103018,115.074901 26.9987812,115.025288 C26.9987812,114.890344 26.6415783,114.818904 26.5383864,114.779214 L26.5383864,114.779214 C26.5504995,114.729671 26.5504995,114.677939 26.5383864,114.628395 C26.5383864,114.50139 26.1811835,114.414074 26.0779915,114.374385 L26.0779915,114.374385 C26.0898008,114.324805 26.0898008,114.273145 26.0779915,114.223566 C26.0779915,114.088622 25.7287265,113.993368 25.6255345,113.953679 L25.6255345,113.953679 C25.6366757,113.906703 25.6366757,113.857773 25.6255345,113.810798 C25.6255345,113.683792 25.2842073,113.572662 25.1889532,113.525035 L25.1889532,113.525035 C25.199537,113.477996 25.199537,113.429193 25.1889532,113.382154 C25.1889532,113.255149 24.8555638,113.136081 24.7523719,113.088454 L24.7523719,113.088454 C24.7776293,113.042141 24.7912501,112.990382 24.7920611,112.937635 C24.7920611,112.802692 24.4666095,112.675686 24.3713554,112.628059 L24.3713554,112.628059 C24.395404,112.584121 24.4089863,112.535225 24.4110447,112.485178 C24.4110447,112.358173 24.0855931,112.223229 23.9982769,112.167664 L23.9982769,112.167664 C24.025106,112.124416 24.0414184,112.075479 24.0459039,112.024783 C24.0459039,111.897778 23.7363281,111.746959 23.641074,111.691394 L23.641074,111.691394 C23.6707088,111.648871 23.6897589,111.599885 23.6966388,111.548513 C23.6966388,111.421507 23.3950008,111.26275 23.3076846,111.199248 L23.3076846,111.199248 C23.3375987,111.156874 23.3566764,111.107817 23.3632495,111.056366 C23.3632495,110.929361 23.0695493,110.762666 22.982233,110.699164 L22.982233,110.699164 C23.0135605,110.659704 23.0352988,110.61351 23.0457358,110.56422 C23.0457358,110.437215 22.7599735,110.262582 22.6726572,110.191142 L22.6726572,110.191142 C22.7070926,110.152641 22.7316151,110.106321 22.7440978,110.056198 C22.7440978,109.929193 22.4742111,109.738685 22.3868949,109.675182 L22.3868949,109.675182 L22.2519516,109.770436 C22.3456559,109.886501 22.4583879,109.985813 22.5853409,110.064136 L22.5853409,110.064136 C22.5506342,110.102447 22.5260737,110.148839 22.5139004,110.199079 C22.5139004,110.326085 22.7917248,110.516593 22.8869789,110.572158 L22.8869789,110.572158 C22.8551309,110.611292 22.8333308,110.657617 22.8234762,110.707101 C22.8234762,110.834107 23.1171764,111.016677 23.2044926,111.072242 L23.2044926,111.072242 C23.1742847,111.114457 23.1551772,111.163591 23.1489277,111.215123 C23.1489277,111.342129 23.4505657,111.508823 23.5458198,111.564388 L23.5458198,111.564388 C23.516185,111.606911 23.4971348,111.655897 23.4902549,111.70727 C23.4902549,111.842213 23.8077686,111.993032 23.8950849,112.040659 L23.8950849,112.040659 C23.8664183,112.08596 23.850007,112.137929 23.8474579,112.191478 C23.8474579,112.326421 24.1649715,112.469302 24.2602256,112.516929 L24.2602256,112.516929 C24.2356158,112.560638 24.2219953,112.609671 24.2205364,112.659811 C24.2205364,112.794754 24.545988,112.929697 24.6412421,112.977324 L24.6412421,112.977324 C24.6171935,113.021263 24.6036112,113.070159 24.6015529,113.120205 C24.6015529,113.247211 24.9428801,113.374216 25.0381342,113.413906 L25.0381342,113.413906 C25.0272789,113.460914 25.0272789,113.509778 25.0381342,113.556787 C25.0381342,113.69173 25.3715236,113.810798 25.4747155,113.842549 L25.4747155,113.842549 C25.4635743,113.889525 25.4635743,113.938455 25.4747155,113.98543 C25.4747155,114.120374 25.8319184,114.215628 25.9271725,114.255317 L25.9271725,114.255317 C25.9150594,114.30486 25.9150594,114.356593 25.9271725,114.406136 C25.9271725,114.541079 26.2764376,114.636333 26.3875674,114.668085 L26.3875674,114.668085 C26.3751341,114.717589 26.3751341,114.769399 26.3875674,114.818904 C26.3875674,114.953847 26.7527081,115.033225 26.8559001,115.064977 L26.8559001,115.064977 C26.8440907,115.114556 26.8440907,115.166216 26.8559001,115.215796 C26.8559001,115.279299 26.9511542,115.334863 27.0543461,115.374553 L27.3242328,115.445993 L27.3242328,115.445993 C27.3117995,115.495497 27.3117995,115.547308 27.3242328,115.596812 C27.3242328,115.723818 27.7052492,115.78732 27.8005033,115.811134 L27.8005033,115.811134 C27.788694,115.860713 27.788694,115.912373 27.8005033,115.961953 C27.8005033,116.025456 27.9036952,116.073083 28.0068872,116.112772 C28.1100791,116.152461 28.2291468,116.160399 28.2847117,116.168337 L28.2847117,116.168337 C28.2722784,116.217841 28.2722784,116.269652 28.2847117,116.319156 C28.2847117,116.446161 28.6736659,116.485851 28.7768579,116.509664 L28.7768579,116.509664 C28.7650486,116.559244 28.7650486,116.610904 28.7768579,116.660483 C28.7768579,116.787489 29.1658122,116.827178 29.2690041,116.835116 L29.2690041,116.835116 C29.2562331,116.884578 29.2562331,116.936473 29.2690041,116.985935 C29.2690041,117.11294 29.6658962,117.128816 29.7690882,117.144691 L29.7690882,117.144691 C29.7572789,117.194271 29.7572789,117.245931 29.7690882,117.29551 C29.7690882,117.422516 30.1659803,117.438392 30.2691722,117.446329 L30.2691722,117.446329 C30.2564012,117.495791 30.2564012,117.547687 30.2691722,117.597148 C30.2803089,117.621819 30.3000667,117.641577 30.3247371,117.652713 L30.4279291,117.509832 L30.4199912,117.509832 Z" id="Shape" fill="#FFFFFF"></path>
                <path d="M28.5625361,119.041836 L28.5625361,119.041836 C28.5749694,118.992331 28.5749694,118.940521 28.5625361,118.891017 C28.5149091,118.779887 28.165644,118.756073 28.0624521,118.748136 L28.0624521,118.748136 C28.0742614,118.698556 28.0742614,118.646896 28.0624521,118.597317 C28.0624521,118.470311 27.66556,118.462373 27.562368,118.446498 L27.562368,118.446498 C27.5744812,118.396954 27.5744812,118.345222 27.562368,118.295679 C27.562368,118.232176 27.4433004,118.200424 27.3401084,118.176611 L27.0702218,118.128984 L27.0702218,118.128984 C27.0817424,118.079371 27.0817424,118.027778 27.0702218,117.978165 C27.0702218,117.851159 26.6892054,117.81147 26.5780756,117.795595 L26.5780756,117.795595 C26.5901887,117.746051 26.5901887,117.694319 26.5780756,117.644776 C26.5780756,117.51777 26.1891213,117.478081 26.0938672,117.446329 L26.0938672,117.446329 C26.1053878,117.396716 26.1053878,117.345123 26.0938672,117.29551 C26.0938672,117.168505 25.7207886,117.105002 25.6175967,117.081189 L25.6175967,117.081189 C25.6297098,117.031645 25.6297098,116.979913 25.6175967,116.93037 C25.6175967,116.803364 25.2445181,116.739862 25.1413261,116.70811 L25.1413261,116.70811 C25.1528467,116.658497 25.1528467,116.606904 25.1413261,116.557291 C25.1413261,116.422348 24.7841232,116.350907 24.6809313,116.311218 L24.6809313,116.311218 C24.6930444,116.261675 24.6930444,116.209942 24.6809313,116.160399 C24.6809313,116.033394 24.3237284,115.946077 24.2205364,115.906388 L24.2205364,115.906388 C24.2323458,115.856809 24.2323458,115.805149 24.2205364,115.755569 C24.2205364,115.620626 23.8712714,115.525372 23.7680794,115.485682 L23.7680794,115.485682 C23.7792206,115.438707 23.7792206,115.389777 23.7680794,115.342801 C23.7680794,115.215796 23.4267522,115.104666 23.3314981,115.057039 L23.3314981,115.057039 C23.3420819,115.01 23.3420819,114.961197 23.3314981,114.914158 C23.3314981,114.787152 22.9981087,114.668085 22.8949168,114.620458 L22.8949168,114.620458 C22.9201742,114.574144 22.933795,114.522385 22.934606,114.469639 C22.934606,114.334695 22.6091545,114.20769 22.5139004,114.160063 L22.5139004,114.160063 C22.5382224,114.116236 22.551823,114.067274 22.5535896,114.017182 C22.5535896,113.890176 22.228138,113.755233 22.1408218,113.699668 L22.1408218,113.699668 C22.1676509,113.65642 22.1839633,113.607483 22.1884488,113.556787 C22.1884488,113.429781 21.878873,113.278962 21.7836189,113.223397 L21.7836189,113.223397 C21.8129881,113.180733 21.8320126,113.131813 21.8391838,113.080516 C21.8391838,112.953511 21.5375458,112.794754 21.4502295,112.731251 L21.4502295,112.731251 C21.4801436,112.688878 21.4992213,112.639821 21.5057944,112.58837 C21.5057944,112.461365 21.2120942,112.29467 21.124778,112.231167 L21.124778,112.231167 C21.1563591,112.191866 21.1781271,112.145609 21.1882807,112.096224 C21.1882807,111.969218 20.9025184,111.794586 20.8152021,111.723145 L20.8152021,111.723145 C20.8496375,111.684645 20.87416,111.638324 20.8866427,111.588202 C20.8866427,111.532637 20.8866427,111.469134 20.7913886,111.413569 L20.6961345,111.572326 L20.6961345,111.572326 L20.6961345,111.572326 C20.6614278,111.610637 20.6368673,111.657029 20.6246939,111.70727 C20.6246939,111.834275 20.9025184,112.024783 20.9977725,112.080348 L20.9977725,112.080348 C20.9661913,112.119649 20.9444233,112.165906 20.9342697,112.215291 C20.9342697,112.342297 21.2279699,112.524867 21.3152862,112.580432 L21.3152862,112.580432 C21.2850783,112.622647 21.2659708,112.671781 21.2597213,112.723313 C21.2597213,112.850319 21.5613593,113.017013 21.6566134,113.072578 L21.6566134,113.072578 C21.6269785,113.115101 21.6079284,113.164087 21.6010485,113.21546 C21.6010485,113.350403 21.9185622,113.501222 22.0058784,113.548849 L22.0058784,113.548849 C21.9775354,113.5943 21.9611515,113.646182 21.9582514,113.699668 C21.9582514,113.834611 22.2757651,113.977492 22.3710192,114.025119 L22.3710192,114.025119 C22.3464094,114.068828 22.3327889,114.117861 22.33133,114.168001 C22.33133,114.302944 22.6567815,114.437887 22.7520356,114.485514 L22.7520356,114.485514 C22.727987,114.529453 22.7144047,114.578349 22.7123464,114.628395 C22.7123464,114.755401 23.0536736,114.882406 23.1489277,114.922096 L23.1489277,114.922096 C23.1380725,114.969104 23.1380725,115.017968 23.1489277,115.064977 C23.1489277,115.19992 23.4823171,115.318988 23.5855091,115.350739 L23.5855091,115.350739 C23.5743678,115.397715 23.5743678,115.446645 23.5855091,115.49362 C23.5855091,115.628564 23.942712,115.723818 24.0379661,115.763507 L24.0379661,115.763507 C24.0261568,115.813086 24.0261568,115.864746 24.0379661,115.914326 C24.0379661,116.049269 24.3872311,116.144523 24.4983609,116.176275 L24.4983609,116.176275 C24.4859277,116.225779 24.4859277,116.277589 24.4983609,116.327094 C24.4983609,116.462037 24.8635017,116.541415 24.9666936,116.573167 L24.9666936,116.573167 C24.9545805,116.62271 24.9545805,116.674442 24.9666936,116.723986 C24.9666936,116.787489 25.0619477,116.843053 25.1651397,116.882743 L25.4350263,116.954183 L25.4350263,116.954183 C25.4225931,117.003688 25.4225931,117.055498 25.4350263,117.105002 C25.4350263,117.232008 25.8160427,117.29551 25.9112968,117.319324 L25.9112968,117.319324 C25.8994875,117.368903 25.8994875,117.420564 25.9112968,117.470143 C25.9112968,117.533646 26.0144888,117.581273 26.1176807,117.620962 C26.2208727,117.660651 26.3399403,117.668589 26.3955052,117.676527 L26.3955052,117.676527 C26.383072,117.726031 26.383072,117.777842 26.3955052,117.827346 C26.3955052,117.954351 26.7844595,117.994041 26.8876514,118.017854 L26.8876514,118.017854 C26.8758421,118.067434 26.8758421,118.119094 26.8876514,118.168673 C26.8876514,118.295679 27.2766057,118.335368 27.3797977,118.343306 L27.3797977,118.343306 C27.3670266,118.392768 27.3670266,118.444663 27.3797977,118.494125 C27.3797977,118.62113 27.7766898,118.637006 27.8798817,118.652881 L27.8798817,118.652881 C27.8680724,118.702461 27.8680724,118.754121 27.8798817,118.8037 C27.8798817,118.930706 28.2767738,118.946582 28.3799658,118.954519 L28.3799658,118.954519 C28.3671948,119.003981 28.3671948,119.055877 28.3799658,119.105339 C28.3799658,119.152966 28.4593442,119.176779 28.5387226,119.192655 L28.8006714,119.033898 L28.5625361,119.041836 Z" id="Shape" fill="#FFFFFF"></path>
                <path d="M22.4265841,108.508319 L30.7136914,117.239946 C31.0109863,117.097396 31.2340996,116.835728 31.3278677,116.519639 C31.4216357,116.20355 31.3773055,115.862545 31.2058376,115.580937 C29.6182692,114.104498 25.9589239,110.262582 23.3473738,107.508151" id="Shape" fill="#EFAA8E"></path>
                <path d="M22.9286526,108.508319 L16.5783788,114.858593 C22.2936252,123.979174 27.0722063,115.461869 27.0722063,115.461869 C27.8318454,116.274492 28.634732,117.045582 29.4773725,117.771781 C30.4457892,118.454435 31.2157599,117.279635 31.2157599,117.279635" id="Shape" fill="#EFAA8E"></path>
                <path d="M25.7446021,109.254476 C25.1878406,109.809046 24.2869287,109.807269 23.7323591,109.250507 C23.1777896,108.693746 23.1795665,107.792834 23.7363281,107.238264 L25.3238965,105.650696 C25.8806581,105.096126 26.7815699,105.097903 27.3361395,105.654665 C27.8907091,106.211426 27.8889321,107.112338 27.3321706,107.666908 L25.7446021,109.254476 Z" id="Shape" fill="#EFAA8E"></path>
                <path d="M21.0453995,105.071233 C21.0453995,105.071233 26.2129348,104.42033 27.3004192,105.507815 L23.9030227,109.246538 L21.0453995,105.071233 Z" id="Shape" fill="#EFAA8E"></path>
                <polygon id="Shape" fill="#EFAA8E" points="13.2821898 110.222893 16.5208295 115.580937 23.791893 108.389251 20.1881126 103.872619"></polygon>
                <path d="M61.2981976,104.912477 L62.1872359,118.208362" id="Shape" fill="#2E3389"></path>
                <rect id="Rectangle-path" fill="#2245C1" transform="translate(61.737065, 111.559400) rotate(-3.840000) translate(-61.737065, -111.559400) " x="61.3401728" y="104.89955" width="1" height="13.3196993"></rect>
                <path d="M74.3797616,60.1747976 C74.7220389,60.0312249 75.1083412,60.034974 75.4477675,60.1851627 C75.7871938,60.3353513 76.0497717,60.6187173 76.173714,60.9685819 L85.984887,87.9572455 C86.2222444,88.7755022 86.0604973,89.6577588 85.5483057,90.3385982 L63.4572907,116.374721 C62.9492688,116.970059 62.4968118,116.81924 62.4412469,116.041331 L61.8379709,107.063632 C61.8331868,106.150245 62.1103948,105.257635 62.6317551,104.507647 L74.3162589,89.0209164 C74.8035478,88.2924588 74.9430723,87.3855496 74.6972753,86.5443096 L67.0055062,64.7946218 C66.750432,64.0418232 67.1167228,63.2193968 67.8469174,62.9054154 L74.3797616,60.1747976 Z" id="Shape" fill="#EFAA8E"></path>
                <polygon id="Shape" fill="#9D0000" points="78.7932019 66.548885 69.2201642 71.3512795 62.584128 60.6510682 69.0137803 58.245902 73.6732937 55.1818949"></polygon>
                <path d="M39.6517018,132.988625 L42.5966412,128.178292 C43.0316489,127.4813 43.7952198,127.057776 44.6168221,127.057776 C45.4384244,127.057776 46.2019953,127.4813 46.637003,128.178292 L50.2645969,133.917352 L53.2730391,130.313572 L51.2885785,123.836292 L37.9926927,121.875645 L39.6517018,132.988625 Z" id="Shape" fill="#031B42"></path>
                <path d="M38.9214203,25.1530376 C38.9749601,25.5411563 39.3252328,25.8178716 39.7152045,25.7801272 L42.3108789,25.7801272 C42.5685255,25.838468 42.8356385,25.7332807 42.9843254,25.5149286 C43.1330123,25.2965766 43.1330123,25.0094987 42.9843254,24.7911466 C42.8356385,24.5727945 42.5685255,24.4676073 42.3108789,24.5259481 L39.7152045,24.5259481 C39.3252328,24.4882036 38.9749601,24.764919 38.9214203,25.1530376 L38.9214203,25.1530376 Z" id="Shape" fill="#E38661"></path>
                <path d="M54.8606075,9.20591255 C54.4144802,8.44021282 54.0219401,7.64452337 53.6858069,6.82455987 C52.4078143,3.64942297 50.709116,2.85563875 49.756575,2.67306838 C49.3866033,2.59959773 49.0026182,2.65565395 48.6690906,2.83182522 C47.4179508,3.60433336 45.7803448,3.25441755 44.9541804,2.038041 C43.6285607,0.0377047507 40.2867292,0.291715703 40.2867292,0.291715703 C40.2867292,0.291715703 41.9774895,1.78403005 39.7787072,3.18902812 C39.2267299,3.52611312 38.6193379,3.76261974 37.9847549,3.88755824 C37.0798409,4.07806646 35.3732048,4.58608836 34.7461153,5.73707549 C34.399253,6.36927667 33.9545249,6.94260083 33.4284334,7.43577373 C32.3171355,8.47563106 31.1264592,10.6109106 33.9364554,14.214691 L33.9364554,13.0716417 C33.9349779,12.6057121 34.0267413,12.1441965 34.206342,11.7142707 C34.9333953,10.1634994 36.742198,9.44693521 38.33402,10.0790752 C40.1072302,10.6043289 41.9557253,10.8296897 43.8031933,10.7458539 C45.6506555,10.8295407 47.499126,10.6041829 49.2723666,10.0790752 C50.8641886,9.44693521 52.6729913,10.1634994 53.4000445,11.7142707 C53.5798515,12.1441335 53.6716232,12.6056914 53.6699312,13.0716417 L53.6699312,14.817967 C56.1544758,12.3334224 55.5273863,10.2695834 54.8685454,9.20591255" id="Shape" fill="#0D0D0D"></path>
                <path d="M54.1541396,20.1363213 C54.1541396,20.1363213 53.3603553,22.0810927 52.0744249,19.9378753 L52.0744249,9.89650483 L54.5272181,10.5077187" id="Shape" fill="#0D0D0D"></path>
            </g>
        </g>
    </g>
</svg>