<svg xmlns="http://www.w3.org/2000/svg" width="79" height="79" viewBox="0 0 79 79">
  <g fill="none" fill-rule="evenodd">
    <path fill="#333" fill-rule="nonzero" d="M41.0864198,0.543209877 C31.839507,0.543209877 28.3950617,2.32098765 28.3950617,7.0617284 C28.3950617,7.80864158 28.6604942,8.91358025 29.8271605,9.92592593 C32.0493827,11.8641983 36.7407407,12.5493823 40,12.0987654 C49.5555556,10.7716045 54.5432099,12.9876543 57.6790123,15.5061728 C56.1728395,17.0617284 55.5864194,18.4567909 55.1604938,19.5555556 C54.8086424,20.4691358 54.6296304,20.944444 54.1234568,21.382716 C52.5617288,22.7345683 50.5061736,22.092593 46.7654321,20.7407407 C43.8333329,19.6790123 40.2160498,18.3703704 35.9506173,18.3703704 C26.1975309,18.3703704 18.3086428,25.1790127 16.5432099,34.4691358 C15.3148144,33.6975313 13.7839502,33.2839506 12.1975309,33.2839506 C7.78395022,33.2839506 4.69135802,36.3209877 4.69135802,40.691358 C4.69135802,42.6728391 5.92592593,44.6481478 7.90123457,45.8765432 C10.3024687,47.3703712 13.4382712,47.5185193 16.6419753,46.3209877 C19.1543214,50.0185189 24.2716049,50.8950613 26.0740741,51.2098765 C26.2407411,51.2407403 26.3641979,51.2469144 26.4197531,51.2592593 C27.0246921,51.4320988 27.7592589,51.5432107 28.5432099,51.654321 C29.9320984,51.8518519 32.4938272,52.2222222 32.4938272,53.0864198 C32.4938272,53.9691362 31.839507,54.6790131 30.7654321,55.7037037 C29.6666675,56.7407407 28.4444444,57.9012346 28.4444444,59.7037037 C28.4444444,64.2962963 33.7530864,64.7777786 36.5925926,65.037037 C37.3456798,65.1049387 38.0802465,65.1790127 38.4197531,65.2839506 C44.1049379,67.037037 45.5740745,69.1851852 48,72.7407407 L48.345679,73.2345679 C50.4506169,76.3086428 54.3024687,78.0246914 57.1851852,78.0246914 C57.7716053,78.0246914 58.3333341,77.9753086 58.8148148,77.8271605 C60.3148152,77.3641971 61.1851852,76.1913584 61.1851852,74.7160494 C61.1851852,68.7777786 57.7901242,64.6851856 53.8271605,61.9259259 C51.2530868,60.1296292 48.4197531,58.9259267 46.1728395,58.1234568 C48.4938272,56.2901239 49.5740745,53.5000004 50.0246914,51.0123457 C50.0987654,50.5802477 50.1296292,50.1419757 50.1728395,49.7283951 C50.1913584,49.561728 50.253086,49.3950625 50.2716049,49.2345679 C50.3209877,48.6481478 50.3148152,48.092593 50.3209877,47.5555556 C50.3209877,47.3950625 50.3209877,47.2592593 50.3209877,47.1111111 C50.2037033,39.3395058 45.2716057,36.4444444 43.308642,35.308642 C42.5370374,34.8641975 42.2716049,33.907407 42.7160494,33.1358025 C43.1604938,32.3703704 44.1604946,32.1172843 44.9382716,32.5432099 C53.1790127,37.0925922 55.8765432,46.6419753 51.4567901,56.8888889 C51.8888897,57.1049387 52.3024687,57.3395058 52.7407407,57.5802469 C61.907407,50.6851856 64.3827168,41.5925934 64.4444444,34.0246914 C66.1975309,34.7654321 68.1111119,35.216049 70.2222222,35.3580247 C73.2283955,35.567902 76.9753094,34.5370374 78.0740741,32.4444444 C79.8765432,29.0000008 78.8456786,22.3148152 77.5802469,20 C74.8580251,15.0123457 70.4259255,12.5617288 64.0987654,12.5432099 C59.3950625,4.81481481 47.7037037,0.543209877 41.0864198,0.543209877 Z M71.9012346,22.7160494 C73.2098765,22.7160494 74.2716049,23.7777778 74.2716049,25.0864198 C74.2716049,26.3950617 73.2098765,27.4567901 71.9012346,27.4567901 C70.5925926,27.4567901 69.5308642,26.3950617 69.5308642,25.0864198 C69.5308642,23.7777778 70.5925926,22.7160494 71.9012346,22.7160494 Z"/>
    <path fill="#2697D8" d="M6.7654321 11.654321C5.89506212 11.654321 5.18518519 12.3641979 5.18518519 13.2345679 5.18518519 14.1049379 5.89506212 14.8148148 6.7654321 14.8148148L22.9135802 14.8148148C23.7839502 14.8148148 24.4938272 14.1049379 24.4938272 13.2345679 24.4938272 12.3641979 23.7839502 11.654321 22.9135802 11.654321L6.7654321 11.654321zM4.14814815 17.9753086C3.27777817 17.9753086 2.56790123 18.6851856 2.56790123 19.5555556 2.56790123 20.4259255 3.27777817 21.1358025 4.14814815 21.1358025L15.308642 21.1358025C16.179012 21.1358025 16.8888889 20.4259255 16.8888889 19.5555556 16.8888889 18.6851856 16.179012 17.9753086 15.308642 17.9753086L4.14814815 17.9753086zM1.58024691 24.2962963C.709876938 24.2962963 0 25.0061732 0 25.8765432 0 26.7469132.709876938 27.4567901 1.58024691 27.4567901L11.7037037 27.4567901C12.5740737 27.4567901 13.2839506 26.7469132 13.2839506 25.8765432 13.2839506 25.0061732 12.5740737 24.2962963 11.7037037 24.2962963L1.58024691 24.2962963z"/>
  </g>
</svg>
