<?xml version="1.0" encoding="UTF-8"?>
<svg width="333px" height="155px" viewBox="0 0 333 155" version="1.1" xmlns="http://www.w3.org/2000/svg" xmlns:xlink="http://www.w3.org/1999/xlink">
    <!-- Generator: Sketch 49 (51002) - http://www.bohemiancoding.com/sketch -->
    <title>Group 4</title>
    <desc>Created with Sketch.</desc>
    <defs>
        <linearGradient x1="28929%" y1="38070%" x2="40796%" y2="38070%" id="linearGradient-1">
            <stop stop-color="#002B6D" offset="0%"></stop>
            <stop stop-color="#0A449E" offset="100%"></stop>
        </linearGradient>
        <linearGradient x1="13887%" y1="56413%" x2="19930%" y2="56413%" id="linearGradient-2">
            <stop stop-color="#FFAB00" offset="0%"></stop>
            <stop stop-color="#FFC400" offset="100%"></stop>
        </linearGradient>
        <linearGradient x1="35874%" y1="56413%" x2="41917%" y2="56413%" id="linearGradient-3">
            <stop stop-color="#FFAB00" offset="0%"></stop>
            <stop stop-color="#FFC400" offset="100%"></stop>
        </linearGradient>
        <linearGradient x1="25596%" y1="22560%" x2="40796%" y2="22560%" id="linearGradient-4">
            <stop stop-color="#0042AC" offset="0%"></stop>
            <stop stop-color="#2A6DD9" offset="100%"></stop>
        </linearGradient>
        <linearGradient x1="22337%" y1="19813%" x2="25189%" y2="19813%" id="linearGradient-5">
            <stop stop-color="#FFAB00" offset="0%"></stop>
            <stop stop-color="#FFC400" offset="100%"></stop>
        </linearGradient>
        <linearGradient x1="26087%" y1="19833%" x2="31428%" y2="19833%" id="linearGradient-6">
            <stop stop-color="#FFAB00" offset="0%"></stop>
            <stop stop-color="#FFC400" offset="100%"></stop>
        </linearGradient>
    </defs>
    <g id="Page-1" stroke="none" stroke-width="1" fill="none" fill-rule="evenodd">
        <g id="Cricket-API" transform="translate(-804.000000, -556.000000)">
            <g id="Group-4" transform="translate(720.000000, 556.000000)">
                <g id="Group" transform="translate(84.799054, 0.000000)">
                    <g id="goal">
                        <rect id="Rectangle-path" stroke="#BDBDBD" stroke-width="0.5" transform="translate(17.657199, 15.205660) rotate(-44.990000) translate(-17.657199, -15.205660) " x="12.396234" y="9.93088341" width="10.5219293" height="10.5495531"></rect>
                        <rect id="Rectangle-path" stroke="#BDBDBD" stroke-width="0.5" transform="translate(32.615980, 15.212335) rotate(-45.010000) translate(-32.615980, -15.212335) " x="27.3550156" y="9.93755804" width="10.5219293" height="10.5495531"></rect>
                        <rect id="Rectangle-path" stroke="#BDBDBD" stroke-width="0.5" transform="translate(46.652830, 15.236003) rotate(-45.000000) translate(-46.652830, -15.236003) " x="41.3918655" y="9.96122637" width="10.5219293" height="10.5495531"></rect>
                        <rect id="Rectangle-path" stroke="#BDBDBD" stroke-width="0.5" transform="translate(61.619805, 15.248293) rotate(-44.990000) translate(-61.619805, -15.248293) " x="56.3588404" y="9.97351648" width="10.5219293" height="10.5495531"></rect>
                        <rect id="Rectangle-path" stroke="#BDBDBD" stroke-width="0.5" transform="translate(75.658536, 15.266349) rotate(-45.000000) translate(-75.658536, -15.266349) " x="70.3975718" y="9.99157231" width="10.5219293" height="10.5495531"></rect>
                        <rect id="Rectangle-path" stroke="#BDBDBD" stroke-width="0.5" transform="translate(90.633593, 15.282970) rotate(-45.000000) translate(-90.633593, -15.282970) " x="85.3726287" y="10.008193" width="10.5219293" height="10.5495531"></rect>
                        <rect id="Rectangle-path" stroke="#BDBDBD" stroke-width="0.5" transform="translate(104.665510, 15.301728) rotate(-44.990000) translate(-104.665510, -15.301728) " x="99.4045457" y="10.0269518" width="10.5219293" height="10.5495531"></rect>
                        <rect id="Rectangle-path" stroke="#BDBDBD" stroke-width="0.5" transform="translate(119.642413, 15.320199) rotate(-44.990000) translate(-119.642413, -15.320199) " x="114.381448" y="10.0454222" width="10.5219293" height="10.5495531"></rect>
                        <rect id="Rectangle-path" stroke="#BDBDBD" stroke-width="0.5" transform="translate(133.664228, 15.321320) rotate(-45.000000) translate(-133.664228, -15.321320) " x="128.403263" y="10.0465431" width="10.5219293" height="10.5495531"></rect>
                        <rect id="Rectangle-path" stroke="#BDBDBD" stroke-width="0.5" transform="translate(148.635239, 15.347707) rotate(-45.000000) translate(-148.635239, -15.347707) " x="143.374275" y="10.0729303" width="10.5219293" height="10.5495531"></rect>
                        <rect id="Rectangle-path" stroke="#BDBDBD" stroke-width="0.5" transform="translate(162.669934, 15.365478) rotate(-45.000000) translate(-162.669934, -15.365478) " x="157.40897" y="10.090701" width="10.5219293" height="10.5495531"></rect>
                        <rect id="Rectangle-path" stroke="#BDBDBD" stroke-width="0.5" transform="translate(177.644991, 15.368286) rotate(-45.000000) translate(-177.644991, -15.368286) " x="172.384026" y="10.0935097" width="10.5219293" height="10.5495531"></rect>
                        <rect id="Rectangle-path" stroke="#BDBDBD" stroke-width="0.5" transform="translate(191.687634, 15.411609) rotate(-44.990000) translate(-191.687634, -15.411609) " x="186.426669" y="10.1368322" width="10.5219293" height="10.5495531"></rect>
                        <rect id="Rectangle-path" stroke="#BDBDBD" stroke-width="0.5" transform="translate(206.664537, 15.430079) rotate(-44.990000) translate(-206.664537, -15.430079) " x="201.403572" y="10.1553025" width="10.5219293" height="10.5495531"></rect>
                        <rect id="Rectangle-path" stroke="#BDBDBD" stroke-width="0.5" transform="translate(220.687677, 15.428706) rotate(-45.010000) translate(-220.687677, -15.428706) " x="215.426712" y="10.1539297" width="10.5219293" height="10.5495531"></rect>
                        <rect id="Rectangle-path" stroke="#BDBDBD" stroke-width="0.5" transform="translate(235.647075, 15.429666) rotate(-45.010000) translate(-235.647075, -15.429666) " x="230.386111" y="10.1548891" width="10.5219293" height="10.5495531"></rect>
                        <rect id="Rectangle-path" stroke="#BDBDBD" stroke-width="0.5" transform="translate(249.681332, 15.450794) rotate(-45.000000) translate(-249.681332, -15.450794) " x="244.420367" y="10.1760177" width="10.5219293" height="10.5495531"></rect>
                        <rect id="Rectangle-path" stroke="#BDBDBD" stroke-width="0.5" transform="translate(264.653251, 15.474286) rotate(-45.010000) translate(-264.653251, -15.474286) " x="259.392286" y="10.1995097" width="10.5219293" height="10.5495531"></rect>
                        <rect id="Rectangle-path" stroke="#BDBDBD" stroke-width="0.5" transform="translate(278.672403, 15.476512) rotate(-45.010000) translate(-278.672403, -15.476512) " x="273.411439" y="10.2017351" width="10.5219293" height="10.5495531"></rect>
                        <rect id="Rectangle-path" stroke="#BDBDBD" stroke-width="0.5" transform="translate(293.659426, 15.491283) rotate(-45.010000) translate(-293.659426, -15.491283) " x="288.398461" y="10.2165064" width="10.5219293" height="10.5495531"></rect>
                        <rect id="Rectangle-path" stroke="#BDBDBD" stroke-width="0.5" transform="translate(307.688347, 15.517085) rotate(-45.010000) translate(-307.688347, -15.517085) " x="302.427382" y="10.2423085" width="10.5219293" height="10.5495531"></rect>
                        <rect id="Rectangle-path" stroke="#BDBDBD" stroke-width="0.5" transform="translate(322.647745, 15.518045) rotate(-45.010000) translate(-322.647745, -15.518045) " x="317.386781" y="10.243268" width="10.5219293" height="10.5495531"></rect>
                        <rect id="Rectangle-path" stroke="#BDBDBD" stroke-width="0.5" transform="translate(10.292329, 26.239551) rotate(-45.000000) translate(-10.292329, -26.239551) " x="5.03136424" y="20.964774" width="10.5219293" height="10.5495531"></rect>
                        <rect id="Rectangle-path" stroke="#BDBDBD" stroke-width="0.5" transform="translate(25.257735, 26.259587) rotate(-45.010000) translate(-25.257735, -26.259587) " x="19.9967699" y="20.98481" width="10.5219293" height="10.5495531"></rect>
                        <rect id="Rectangle-path" stroke="#BDBDBD" stroke-width="0.5" transform="translate(39.302081, 26.279663) rotate(-45.000000) translate(-39.302081, -26.279663) " x="34.0411159" y="21.0048865" width="10.5219293" height="10.5495531"></rect>
                        <rect id="Rectangle-path" stroke="#BDBDBD" stroke-width="0.5" transform="translate(54.277137, 26.296284) rotate(-45.000000) translate(-54.277137, -26.296284) " x="49.0161728" y="21.0215072" width="10.5219293" height="10.5495531"></rect>
                        <rect id="Rectangle-path" stroke="#BDBDBD" stroke-width="0.5" transform="translate(68.298020, 26.314054) rotate(-45.000000) translate(-68.298020, -26.314054) " x="63.0370557" y="21.0392779" width="10.5219293" height="10.5495531"></rect>
                        <rect id="Rectangle-path" stroke="#BDBDBD" stroke-width="0.5" transform="translate(83.280111, 26.330383) rotate(-44.990000) translate(-83.280111, -26.330383) " x="78.0191462" y="21.0556062" width="10.5219293" height="10.5495531"></rect>
                        <rect id="Rectangle-path" stroke="#BDBDBD" stroke-width="0.5" transform="translate(97.307772, 26.334634) rotate(-45.000000) translate(-97.307772, -26.334634) " x="92.0468074" y="21.0598573" width="10.5219293" height="10.5495531"></rect>
                        <rect id="Rectangle-path" stroke="#BDBDBD" stroke-width="0.5" transform="translate(112.289391, 26.378126) rotate(-44.990000) translate(-112.289391, -26.378126) " x="107.028427" y="21.1033492" width="10.5219293" height="10.5495531"></rect>
                        <rect id="Rectangle-path" stroke="#BDBDBD" stroke-width="0.5" transform="translate(126.313478, 26.378792) rotate(-45.000000) translate(-126.313478, -26.378792) " x="121.052514" y="21.1040152" width="10.5219293" height="10.5495531"></rect>
                        <rect id="Rectangle-path" stroke="#BDBDBD" stroke-width="0.5" transform="translate(141.288535, 26.395412) rotate(-45.000000) translate(-141.288535, -26.395412) " x="136.027571" y="21.1206358" width="10.5219293" height="10.5495531"></rect>
                        <rect id="Rectangle-path" stroke="#BDBDBD" stroke-width="0.5" transform="translate(155.309418, 26.399371) rotate(-45.000000) translate(-155.309418, -26.399371) " x="150.048453" y="21.1245946" width="10.5219293" height="10.5495531"></rect>
                        <rect id="Rectangle-path" stroke="#BDBDBD" stroke-width="0.5" transform="translate(170.284475, 26.415992) rotate(-45.000000) translate(-170.284475, -26.415992) " x="165.02351" y="21.1412153" width="10.5219293" height="10.5495531"></rect>
                        <rect id="Rectangle-path" stroke="#BDBDBD" stroke-width="0.5" transform="translate(184.309444, 26.431338) rotate(-45.010000) translate(-184.309444, -26.431338) " x="179.048479" y="21.156561" width="10.5219293" height="10.5495531"></rect>
                        <rect id="Rectangle-path" stroke="#BDBDBD" stroke-width="0.5" transform="translate(199.296466, 26.473733) rotate(-45.010000) translate(-199.296466, -26.473733) " x="194.035502" y="21.1989563" width="10.5219293" height="10.5495531"></rect>
                        <rect id="Rectangle-path" stroke="#BDBDBD" stroke-width="0.5" transform="translate(213.338688, 26.491732) rotate(-45.000000) translate(-213.338688, -26.491732) " x="208.077723" y="21.2169558" width="10.5219293" height="10.5495531"></rect>
                        <rect id="Rectangle-path" stroke="#BDBDBD" stroke-width="0.5" transform="translate(228.311031, 26.512169) rotate(-44.990000) translate(-228.311031, -26.512169) " x="223.050066" y="21.2373923" width="10.5219293" height="10.5495531"></rect>
                        <rect id="Rectangle-path" stroke="#BDBDBD" stroke-width="0.5" transform="translate(242.321794, 26.492955) rotate(-45.010000) translate(-242.321794, -26.492955) " x="237.06083" y="21.2181783" width="10.5219293" height="10.5495531"></rect>
                        <rect id="Rectangle-path" stroke="#BDBDBD" stroke-width="0.5" transform="translate(257.290089, 26.510100) rotate(-45.020000) translate(-257.290089, -26.510100) " x="252.029124" y="21.2353236" width="10.5219293" height="10.5495531"></rect>
                        <rect id="Rectangle-path" stroke="#BDBDBD" stroke-width="0.5" transform="translate(271.356432, 26.556268) rotate(-45.010000) translate(-271.356432, -26.556268) " x="266.088561" y="21.2814916" width="10.5357412" height="10.5495531"></rect>
                        <rect id="Rectangle-path" stroke="#BDBDBD" stroke-width="0.5" transform="translate(286.297136, 26.534488) rotate(-45.010000) translate(-286.297136, -26.534488) " x="281.036172" y="21.2597112" width="10.5219293" height="10.5495531"></rect>
                        <rect id="Rectangle-path" stroke="#BDBDBD" stroke-width="0.5" transform="translate(300.356252, 26.589767) rotate(-44.990000) translate(-300.356252, -26.589767) " x="295.095287" y="21.3149904" width="10.5219293" height="10.5495531"></rect>
                        <rect id="Rectangle-path" stroke="#BDBDBD" stroke-width="0.5" transform="translate(315.295285, 26.564553) rotate(-45.020000) translate(-315.295285, -26.564553) " x="310.03432" y="21.2897767" width="10.5219293" height="10.5495531"></rect>
                        <rect id="Rectangle-path" stroke="#BDBDBD" stroke-width="0.5" transform="translate(17.674565, 36.846427) rotate(-44.990000) translate(-17.674565, -36.846427) " x="12.4136008" y="31.5716505" width="10.5219293" height="10.5495531"></rect>
                        <rect id="Rectangle-path" stroke="#BDBDBD" stroke-width="0.5" transform="translate(32.652494, 36.847753) rotate(-45.010000) translate(-32.652494, -36.847753) " x="27.3915297" y="31.5729762" width="10.5219293" height="10.5495531"></rect>
                        <rect id="Rectangle-path" stroke="#BDBDBD" stroke-width="0.5" transform="translate(46.687893, 36.870590) rotate(-44.990000) translate(-46.687893, -36.870590) " x="41.4269284" y="31.5958133" width="10.5219293" height="10.5495531"></rect>
                        <rect id="Rectangle-path" stroke="#BDBDBD" stroke-width="0.5" transform="translate(61.647922, 36.890716) rotate(-45.000000) translate(-61.647922, -36.890716) " x="56.3869572" y="31.6159399" width="10.5219293" height="10.5495531"></rect>
                        <rect id="Rectangle-path" stroke="#BDBDBD" stroke-width="0.5" transform="translate(75.687409, 36.908565) rotate(-44.990000) translate(-75.687409, -36.908565) " x="70.4264441" y="31.633788" width="10.5219293" height="10.5495531"></rect>
                        <rect id="Rectangle-path" stroke="#BDBDBD" stroke-width="0.5" transform="translate(90.651033, 36.909370) rotate(-45.010000) translate(-90.651033, -36.909370) " x="85.3900682" y="31.6345935" width="10.5219293" height="10.5495531"></rect>
                        <rect id="Rectangle-path" stroke="#BDBDBD" stroke-width="0.5" transform="translate(104.696689, 36.942496) rotate(-44.990000) translate(-104.696689, -36.942496) " x="99.4357245" y="31.667719" width="10.5219293" height="10.5495531"></rect>
                        <rect id="Rectangle-path" stroke="#BDBDBD" stroke-width="0.5" transform="translate(119.653613, 36.951408) rotate(-45.000000) translate(-119.653613, -36.951408) " x="114.392649" y="31.6766318" width="10.5219293" height="10.5495531"></rect>
                        <rect id="Rectangle-path" stroke="#BDBDBD" stroke-width="0.5" transform="translate(133.696205, 36.980470) rotate(-44.990000) translate(-133.696205, -36.980470) " x="128.43524" y="31.7056937" width="10.5219293" height="10.5495531"></rect>
                        <rect id="Rectangle-path" stroke="#BDBDBD" stroke-width="0.5" transform="translate(148.663339, 36.994893) rotate(-44.990000) translate(-148.663339, -36.994893) " x="143.402375" y="31.7201168" width="10.5219293" height="10.5495531"></rect>
                        <rect id="Rectangle-path" stroke="#BDBDBD" stroke-width="0.5" transform="translate(162.694014, 36.993804) rotate(-45.000000) translate(-162.694014, -36.993804) " x="157.43305" y="31.7190273" width="10.5219293" height="10.5495531"></rect>
                        <rect id="Rectangle-path" stroke="#BDBDBD" stroke-width="0.5" transform="translate(177.669071, 37.029958) rotate(-45.000000) translate(-177.669071, -37.029958) " x="172.408107" y="31.755181" width="10.5219293" height="10.5495531"></rect>
                        <rect id="Rectangle-path" stroke="#BDBDBD" stroke-width="0.5" transform="translate(191.694435, 37.023551) rotate(-45.010000) translate(-191.694435, -37.023551) " x="186.433471" y="31.7487744" width="10.5219293" height="10.5495531"></rect>
                        <rect id="Rectangle-path" stroke="#BDBDBD" stroke-width="0.5" transform="translate(206.657881, 37.048091) rotate(-45.010000) translate(-206.657881, -37.048091) " x="201.396917" y="31.773314" width="10.5219293" height="10.5495531"></rect>
                        <rect id="Rectangle-path" stroke="#BDBDBD" stroke-width="0.5" transform="translate(220.709472, 37.058541) rotate(-45.000000) translate(-220.709472, -37.058541) " x="215.448508" y="31.7837646" width="10.5219293" height="10.5495531"></rect>
                        <rect id="Rectangle-path" stroke="#BDBDBD" stroke-width="0.5" transform="translate(235.685463, 37.104774) rotate(-44.990000) translate(-235.685463, -37.104774) " x="230.424498" y="31.8299972" width="10.5219293" height="10.5495531"></rect>
                        <rect id="Rectangle-path" stroke="#BDBDBD" stroke-width="0.5" transform="translate(249.716554, 37.094933) rotate(-45.010000) translate(-249.716554, -37.094933) " x="244.455589" y="31.8201565" width="10.5219293" height="10.5495531"></rect>
                        <rect id="Rectangle-path" stroke="#BDBDBD" stroke-width="0.5" transform="translate(264.694281, 37.142898) rotate(-45.000000) translate(-264.694281, -37.142898) " x="259.433316" y="31.8681216" width="10.5219293" height="10.5495531"></rect>
                        <rect id="Rectangle-path" stroke="#BDBDBD" stroke-width="0.5" transform="translate(278.722729, 37.125742) rotate(-45.010000) translate(-278.722729, -37.125742) " x="273.461765" y="31.8509651" width="10.5219293" height="10.5495531"></rect>
                        <rect id="Rectangle-path" stroke="#BDBDBD" stroke-width="0.5" transform="translate(293.672363, 37.136469) rotate(-45.010000) translate(-293.672363, -37.136469) " x="288.411398" y="31.8616928" width="10.5219293" height="10.5495531"></rect>
                        <rect id="Rectangle-path" stroke="#BDBDBD" stroke-width="0.5" transform="translate(307.720870, 37.157670) rotate(-45.000000) translate(-307.720870, -37.157670) " x="302.459905" y="31.8828933" width="10.5219293" height="10.5495531"></rect>
                        <rect id="Rectangle-path" stroke="#BDBDBD" stroke-width="0.5" transform="translate(322.664726, 37.167278) rotate(-45.010000) translate(-322.664726, -37.167278) " x="317.403762" y="31.8925014" width="10.5219293" height="10.5495531"></rect>
                        <rect id="Rectangle-path" stroke="#BDBDBD" stroke-width="0.5" transform="translate(10.311779, 47.894586) rotate(-44.990000) translate(-10.311779, -47.894586) " x="5.05081417" y="42.6198093" width="10.5219293" height="10.5495531"></rect>
                        <rect id="Rectangle-path" stroke="#BDBDBD" stroke-width="0.5" transform="translate(25.294249, 47.895005) rotate(-45.010000) translate(-25.294249, -47.895005) " x="20.0332841" y="42.6202281" width="10.5219293" height="10.5495531"></rect>
                        <rect id="Rectangle-path" stroke="#BDBDBD" stroke-width="0.5" transform="translate(39.325106, 47.918749) rotate(-44.990000) translate(-39.325106, -47.918749) " x="34.0641418" y="42.643972" width="10.5219293" height="10.5495531"></rect>
                        <rect id="Rectangle-path" stroke="#BDBDBD" stroke-width="0.5" transform="translate(54.297172, 47.948189) rotate(-45.000000) translate(-54.297172, -47.948189) " x="49.0362076" y="42.673412" width="10.5219293" height="10.5495531"></rect>
                        <rect id="Rectangle-path" stroke="#BDBDBD" stroke-width="0.5" transform="translate(68.331867, 47.952147) rotate(-45.000000) translate(-68.331867, -47.952147) " x="63.0709024" y="42.6773707" width="10.5219293" height="10.5495531"></rect>
                        <rect id="Rectangle-path" stroke="#BDBDBD" stroke-width="0.5" transform="translate(83.293112, 47.954956) rotate(-45.000000) translate(-83.293112, -47.954956) " x="78.0321473" y="42.6801795" width="10.5219293" height="10.5495531"></rect>
                        <rect id="Rectangle-path" stroke="#BDBDBD" stroke-width="0.5" transform="translate(97.333903, 47.990654) rotate(-44.990000) translate(-97.333903, -47.990654) " x="92.0729379" y="42.7158777" width="10.5219293" height="10.5495531"></rect>
                        <rect id="Rectangle-path" stroke="#BDBDBD" stroke-width="0.5" transform="translate(112.302864, 48.003159) rotate(-45.000000) translate(-112.302864, -48.003159) " x="107.041899" y="42.7283828" width="10.5219293" height="10.5495531"></rect>
                        <rect id="Rectangle-path" stroke="#BDBDBD" stroke-width="0.5" transform="translate(126.342442, 48.002235) rotate(-45.000000) translate(-126.342442, -48.002235) " x="121.074571" y="42.7274582" width="10.5357412" height="10.5495531"></rect>
                        <rect id="Rectangle-path" stroke="#BDBDBD" stroke-width="0.5" transform="translate(141.310862, 48.023957) rotate(-45.010000) translate(-141.310862, -48.023957) " x="136.049897" y="42.7491804" width="10.5219293" height="10.5495531"></rect>
                        <rect id="Rectangle-path" stroke="#BDBDBD" stroke-width="0.5" transform="translate(155.343265, 48.051276) rotate(-45.000000) translate(-155.343265, -48.051276) " x="150.0823" y="42.7764994" width="10.5219293" height="10.5495531"></rect>
                        <rect id="Rectangle-path" stroke="#BDBDBD" stroke-width="0.5" transform="translate(170.321920, 48.049882) rotate(-45.010000) translate(-170.321920, -48.049882) " x="165.054049" y="42.7751049" width="10.5357412" height="10.5495531"></rect>
                        <rect id="Rectangle-path" stroke="#BDBDBD" stroke-width="0.5" transform="translate(184.339205, 48.071855) rotate(-45.000000) translate(-184.339205, -48.071855) " x="179.07824" y="42.7970788" width="10.5219293" height="10.5495531"></rect>
                        <rect id="Rectangle-path" stroke="#BDBDBD" stroke-width="0.5" transform="translate(199.319117, 48.105193) rotate(-44.990000) translate(-199.319117, -48.105193) " x="194.058152" y="42.8304165" width="10.5219293" height="10.5495531"></rect>
                        <rect id="Rectangle-path" stroke="#BDBDBD" stroke-width="0.5" transform="translate(213.365307, 48.134466) rotate(-44.990000) translate(-213.365307, -48.134466) " x="208.104342" y="42.8596891" width="10.5219293" height="10.5495531"></rect>
                        <rect id="Rectangle-path" stroke="#BDBDBD" stroke-width="0.5" transform="translate(228.316414, 48.107452) rotate(-45.010000) translate(-228.316414, -48.107452) " x="223.048544" y="42.8326751" width="10.5357412" height="10.5495531"></rect>
                        <rect id="Rectangle-path" stroke="#BDBDBD" stroke-width="0.5" transform="translate(242.344496, 48.128373) rotate(-45.010000) translate(-242.344496, -48.128373) " x="237.083532" y="42.8535965" width="10.5219293" height="10.5495531"></rect>
                        <rect id="Rectangle-path" stroke="#BDBDBD" stroke-width="0.5" transform="translate(257.317707, 48.143144) rotate(-45.010000) translate(-257.317707, -48.143144) " x="252.056742" y="42.8683679" width="10.5219293" height="10.5495531"></rect>
                        <rect id="Rectangle-path" stroke="#BDBDBD" stroke-width="0.5" transform="translate(271.378226, 48.198608) rotate(-45.000000) translate(-271.378226, -48.198608) " x="266.117262" y="42.9238313" width="10.5219293" height="10.5495531"></rect>
                        <rect id="Rectangle-path" stroke="#BDBDBD" stroke-width="0.5" transform="translate(286.319839, 48.183718) rotate(-45.010000) translate(-286.319839, -48.183718) " x="281.058874" y="42.9089413" width="10.5219293" height="10.5495531"></rect>
                        <rect id="Rectangle-path" stroke="#BDBDBD" stroke-width="0.5" transform="translate(300.383932, 48.242766) rotate(-45.000000) translate(-300.383932, -48.242766) " x="295.122968" y="42.9679892" width="10.5219293" height="10.5495531"></rect>
                        <rect id="Rectangle-path" stroke="#BDBDBD" stroke-width="0.5" transform="translate(315.326014, 48.200715) rotate(-45.010000) translate(-315.326014, -48.200715) " x="310.065049" y="42.925938" width="10.5219293" height="10.5495531"></rect>
                        <rect id="Rectangle-path" stroke="#BDBDBD" stroke-width="0.5" transform="translate(17.686211, 58.487191) rotate(-44.990000) translate(-17.686211, -58.487191) " x="12.4252466" y="53.2124142" width="10.5219293" height="10.5495531"></rect>
                        <rect id="Rectangle-path" stroke="#BDBDBD" stroke-width="0.5" transform="translate(32.663114, 58.505661) rotate(-44.990000) translate(-32.663114, -58.505661) " x="27.4021494" y="53.2308845" width="10.5219293" height="10.5495531"></rect>
                        <rect id="Rectangle-path" stroke="#BDBDBD" stroke-width="0.5" transform="translate(46.709304, 58.521122) rotate(-44.990000) translate(-46.709304, -58.521122) " x="41.448339" y="53.2463452" width="10.5219293" height="10.5495531"></rect>
                        <rect id="Rectangle-path" stroke="#BDBDBD" stroke-width="0.5" transform="translate(61.671607, 58.537560) rotate(-45.010000) translate(-61.671607, -58.537560) " x="56.4106423" y="53.2627831" width="10.5219293" height="10.5495531"></rect>
                        <rect id="Rectangle-path" stroke="#BDBDBD" stroke-width="0.5" transform="translate(75.711580, 58.551463) rotate(-45.000000) translate(-75.711580, -58.551463) " x="70.4437095" y="53.2766867" width="10.5357412" height="10.5495531"></rect>
                        <rect id="Rectangle-path" stroke="#BDBDBD" stroke-width="0.5" transform="translate(90.677782, 58.554556) rotate(-45.010000) translate(-90.677782, -58.554556) " x="85.4168175" y="53.2797798" width="10.5219293" height="10.5495531"></rect>
                        <rect id="Rectangle-path" stroke="#BDBDBD" stroke-width="0.5" transform="translate(104.702637, 58.563114) rotate(-45.000000) translate(-104.702637, -58.563114) " x="99.441672" y="53.2883374" width="10.5219293" height="10.5495531"></rect>
                        <rect id="Rectangle-path" stroke="#BDBDBD" stroke-width="0.5" transform="translate(119.670145, 58.585365) rotate(-45.010000) translate(-119.670145, -58.585365) " x="114.409181" y="53.3105885" width="10.5219293" height="10.5495531"></rect>
                        <rect id="Rectangle-path" stroke="#BDBDBD" stroke-width="0.5" transform="translate(133.727038, 58.602389) rotate(-45.000000) translate(-133.727038, -58.602389) " x="128.459167" y="53.3276121" width="10.5357412" height="10.5495531"></rect>
                        <rect id="Rectangle-path" stroke="#BDBDBD" stroke-width="0.5" transform="translate(148.686089, 58.612127) rotate(-45.010000) translate(-148.686089, -58.612127) " x="143.425124" y="53.33735" width="10.5219293" height="10.5495531"></rect>
                        <rect id="Rectangle-path" stroke="#BDBDBD" stroke-width="0.5" transform="translate(162.718095, 58.641663) rotate(-45.000000) translate(-162.718095, -58.641663) " x="157.45713" y="53.3668867" width="10.5219293" height="10.5495531"></rect>
                        <rect id="Rectangle-path" stroke="#BDBDBD" stroke-width="0.5" transform="translate(177.683334, 58.651863) rotate(-45.010000) translate(-177.683334, -58.651863) " x="172.415464" y="53.3770865" width="10.5357412" height="10.5495531"></rect>
                        <rect id="Rectangle-path" stroke="#BDBDBD" stroke-width="0.5" transform="translate(191.730459, 58.693140) rotate(-44.990000) translate(-191.730459, -58.693140) " x="186.469494" y="53.418363" width="10.5219293" height="10.5495531"></rect>
                        <rect id="Rectangle-path" stroke="#BDBDBD" stroke-width="0.5" transform="translate(206.698858, 58.688630) rotate(-45.000000) translate(-206.698858, -58.688630) " x="201.437893" y="53.4138533" width="10.5219293" height="10.5495531"></rect>
                        <rect id="Rectangle-path" stroke="#BDBDBD" stroke-width="0.5" transform="translate(220.739739, 58.727071) rotate(-44.990000) translate(-220.739739, -58.727071) " x="215.478775" y="53.452294" width="10.5219293" height="10.5495531"></rect>
                        <rect id="Rectangle-path" stroke="#BDBDBD" stroke-width="0.5" transform="translate(235.686759, 58.714317) rotate(-45.010000) translate(-235.686759, -58.714317) " x="230.425794" y="53.4395408" width="10.5219293" height="10.5495531"></rect>
                        <rect id="Rectangle-path" stroke="#BDBDBD" stroke-width="0.5" transform="translate(249.715680, 58.726980) rotate(-45.000000) translate(-249.715680, -58.726980) " x="244.454716" y="53.4522034" width="10.5219293" height="10.5495531"></rect>
                        <rect id="Rectangle-path" stroke="#BDBDBD" stroke-width="0.5" transform="translate(264.692934, 58.745126) rotate(-45.010000) translate(-264.692934, -58.745126) " x="259.431969" y="53.4703494" width="10.5219293" height="10.5495531"></rect>
                        <rect id="Rectangle-path" stroke="#BDBDBD" stroke-width="0.5" transform="translate(278.735199, 58.757326) rotate(-45.000000) translate(-278.735199, -58.757326) " x="273.474234" y="53.4825493" width="10.5219293" height="10.5495531"></rect>
                        <rect id="Rectangle-path" stroke="#BDBDBD" stroke-width="0.5" transform="translate(293.696444, 58.773947) rotate(-45.000000) translate(-293.696444, -58.773947) " x="288.435479" y="53.49917" width="10.5219293" height="10.5495531"></rect>
                        <rect id="Rectangle-path" stroke="#BDBDBD" stroke-width="0.5" transform="translate(307.741842, 58.801737) rotate(-45.010000) translate(-307.741842, -58.801737) " x="302.480877" y="53.5269602" width="10.5219293" height="10.5495531"></rect>
                        <rect id="Rectangle-path" stroke="#BDBDBD" stroke-width="0.5" transform="translate(322.701240, 58.816508) rotate(-45.010000) translate(-322.701240, -58.816508) " x="317.440276" y="53.5417315" width="10.5219293" height="10.5495531"></rect>
                        <rect id="Rectangle-path" stroke="#BDBDBD" stroke-width="0.5" transform="translate(10.357552, 69.515651) rotate(-45.010000) translate(-10.357552, -69.515651) " x="5.09658758" y="64.2408749" width="10.5219293" height="10.5495531"></rect>
                        <rect id="Rectangle-path" stroke="#BDBDBD" stroke-width="0.5" transform="translate(25.316951, 69.530423) rotate(-45.010000) translate(-25.316951, -69.530423) " x="20.0559863" y="64.2556462" width="10.5219293" height="10.5495531"></rect>
                        <rect id="Rectangle-path" stroke="#BDBDBD" stroke-width="0.5" transform="translate(39.351079, 69.541199) rotate(-45.000000) translate(-39.351079, -69.541199) " x="34.0832082" y="64.2664224" width="10.5357412" height="10.5495531"></rect>
                        <rect id="Rectangle-path" stroke="#BDBDBD" stroke-width="0.5" transform="translate(54.319376, 69.564174) rotate(-44.990000) translate(-54.319376, -69.564174) " x="49.0584114" y="64.2893975" width="10.5219293" height="10.5495531"></rect>
                        <rect id="Rectangle-path" stroke="#BDBDBD" stroke-width="0.5" transform="translate(68.355947, 69.580474) rotate(-45.000000) translate(-68.355947, -69.580474) " x="63.0949826" y="64.3056971" width="10.5219293" height="10.5495531"></rect>
                        <rect id="Rectangle-path" stroke="#BDBDBD" stroke-width="0.5" transform="translate(83.325258, 69.601805) rotate(-45.010000) translate(-83.325258, -69.601805) " x="78.0642929" y="64.3270284" width="10.5219293" height="10.5495531"></rect>
                        <rect id="Rectangle-path" stroke="#BDBDBD" stroke-width="0.5" transform="translate(97.366537, 69.605936) rotate(-45.000000) translate(-97.366537, -69.605936) " x="92.0986662" y="64.3311597" width="10.5357412" height="10.5495531"></rect>
                        <rect id="Rectangle-path" stroke="#BDBDBD" stroke-width="0.5" transform="translate(112.331433, 69.632614) rotate(-45.010000) translate(-112.331433, -69.632614) " x="107.070468" y="64.357837" width="10.5219293" height="10.5495531"></rect>
                        <rect id="Rectangle-path" stroke="#BDBDBD" stroke-width="0.5" transform="translate(126.364597, 69.655584) rotate(-44.990000) translate(-126.364597, -69.655584) " x="121.103632" y="64.3808076" width="10.5219293" height="10.5495531"></rect>
                        <rect id="Rectangle-path" stroke="#BDBDBD" stroke-width="0.5" transform="translate(141.346384, 69.669172) rotate(-44.990000) translate(-141.346384, -69.669172) " x="136.078513" y="64.3943955" width="10.5357412" height="10.5495531"></rect>
                        <rect id="Rectangle-path" stroke="#BDBDBD" stroke-width="0.5" transform="translate(155.367345, 69.665790) rotate(-45.000000) translate(-155.367345, -69.665790) " x="150.10638" y="64.3910138" width="10.5219293" height="10.5495531"></rect>
                        <rect id="Rectangle-path" stroke="#BDBDBD" stroke-width="0.5" transform="translate(170.339739, 69.690184) rotate(-45.010000) translate(-170.339739, -69.690184) " x="165.078775" y="64.4154072" width="10.5219293" height="10.5495531"></rect>
                        <rect id="Rectangle-path" stroke="#BDBDBD" stroke-width="0.5" transform="translate(184.387205, 69.727490) rotate(-44.990000) translate(-184.387205, -69.727490) " x="179.12624" y="64.4527133" width="10.5219293" height="10.5495531"></rect>
                        <rect id="Rectangle-path" stroke="#BDBDBD" stroke-width="0.5" transform="translate(199.352991, 69.735498) rotate(-45.000000) translate(-199.352991, -69.735498) " x="194.085121" y="64.460721" width="10.5357412" height="10.5495531"></rect>
                        <rect id="Rectangle-path" stroke="#BDBDBD" stroke-width="0.5" transform="translate(213.386721, 69.765465) rotate(-44.990000) translate(-213.386721, -69.765465) " x="208.125756" y="64.490688" width="10.5219293" height="10.5495531"></rect>
                        <rect id="Rectangle-path" stroke="#BDBDBD" stroke-width="0.5" transform="translate(228.365007, 69.779196) rotate(-45.020000) translate(-228.365007, -69.779196) " x="223.097136" y="64.5044195" width="10.5357412" height="10.5495531"></rect>
                        <rect id="Rectangle-path" stroke="#BDBDBD" stroke-width="0.5" transform="translate(242.388509, 69.774686) rotate(-45.000000) translate(-242.388509, -69.774686) " x="237.127545" y="64.499909" width="10.5219293" height="10.5495531"></rect>
                        <rect id="Rectangle-path" stroke="#BDBDBD" stroke-width="0.5" transform="translate(257.372904, 69.817866) rotate(-44.990000) translate(-257.372904, -69.817866) " x="252.111939" y="64.5430893" width="10.5219293" height="10.5495531"></rect>
                        <rect id="Rectangle-path" stroke="#BDBDBD" stroke-width="0.5" transform="translate(271.409329, 69.837370) rotate(-44.990000) translate(-271.409329, -69.837370) " x="266.148364" y="64.5625936" width="10.5219293" height="10.5495531"></rect>
                        <rect id="Rectangle-path" stroke="#BDBDBD" stroke-width="0.5" transform="translate(286.365279, 69.832111) rotate(-45.010000) translate(-286.365279, -69.832111) " x="281.097408" y="64.5573344" width="10.5357412" height="10.5495531"></rect>
                        <rect id="Rectangle-path" stroke="#BDBDBD" stroke-width="0.5" transform="translate(300.394201, 69.857280) rotate(-45.000000) translate(-300.394201, -69.857280) " x="295.133236" y="64.5825036" width="10.5219293" height="10.5495531"></rect>
                        <rect id="Rectangle-path" stroke="#BDBDBD" stroke-width="0.5" transform="translate(315.379024, 69.883667) rotate(-45.000000) translate(-315.379024, -69.883667) " x="310.118059" y="64.6088908" width="10.5219293" height="10.5495531"></rect>
                        <rect id="Rectangle-path" stroke="#BDBDBD" stroke-width="0.5" transform="translate(17.732779, 80.117633) rotate(-45.010000) translate(-17.732779, -80.117633) " x="12.4718144" y="74.8428564" width="10.5219293" height="10.5495531"></rect>
                        <rect id="Rectangle-path" stroke="#BDBDBD" stroke-width="0.5" transform="translate(32.692178, 80.132404) rotate(-45.010000) translate(-32.692178, -80.132404) " x="27.4312131" y="74.8576278" width="10.5219293" height="10.5495531"></rect>
                        <rect id="Rectangle-path" stroke="#BDBDBD" stroke-width="0.5" transform="translate(46.725142, 80.148442) rotate(-45.010000) translate(-46.725142, -80.148442) " x="41.4641776" y="74.8736651" width="10.5219293" height="10.5495531"></rect>
                        <rect id="Rectangle-path" stroke="#BDBDBD" stroke-width="0.5" transform="translate(61.693808, 80.170591) rotate(-44.990000) translate(-61.693808, -80.170591) " x="56.4328438" y="74.8958144" width="10.5219293" height="10.5495531"></rect>
                        <rect id="Rectangle-path" stroke="#BDBDBD" stroke-width="0.5" transform="translate(75.740544, 80.180627) rotate(-45.000000) translate(-75.740544, -80.180627) " x="70.4795789" y="74.9058509" width="10.5219293" height="10.5495531"></rect>
                        <rect id="Rectangle-path" stroke="#BDBDBD" stroke-width="0.5" transform="translate(90.700484, 80.203786) rotate(-45.010000) translate(-90.700484, -80.203786) " x="85.4395197" y="74.9290099" width="10.5219293" height="10.5495531"></rect>
                        <rect id="Rectangle-path" stroke="#BDBDBD" stroke-width="0.5" transform="translate(104.733449, 80.206012) rotate(-45.010000) translate(-104.733449, -80.206012) " x="99.4724842" y="74.9312352" width="10.5219293" height="10.5495531"></rect>
                        <rect id="Rectangle-path" stroke="#BDBDBD" stroke-width="0.5" transform="translate(119.706660, 80.220783) rotate(-45.010000) translate(-119.706660, -80.220783) " x="114.445695" y="74.9460066" width="10.5219293" height="10.5495531"></rect>
                        <rect id="Rectangle-path" stroke="#BDBDBD" stroke-width="0.5" transform="translate(133.732423, 80.235598) rotate(-45.000000) translate(-133.732423, -80.235598) " x="128.471458" y="74.9608217" width="10.5219293" height="10.5495531"></rect>
                        <rect id="Rectangle-path" stroke="#BDBDBD" stroke-width="0.5" transform="translate(148.730581, 80.285357) rotate(-44.990000) translate(-148.730581, -80.285357) " x="143.46271" y="75.0105806" width="10.5357412" height="10.5495531"></rect>
                        <rect id="Rectangle-path" stroke="#BDBDBD" stroke-width="0.5" transform="translate(162.748310, 80.295932) rotate(-44.990000) translate(-162.748310, -80.295932) " x="157.487345" y="75.0211554" width="10.5219293" height="10.5495531"></rect>
                        <rect id="Rectangle-path" stroke="#BDBDBD" stroke-width="0.5" transform="translate(177.714966, 80.278353) rotate(-45.010000) translate(-177.714966, -80.278353) " x="172.454002" y="75.0035768" width="10.5219293" height="10.5495531"></rect>
                        <rect id="Rectangle-path" stroke="#BDBDBD" stroke-width="0.5" transform="translate(191.747881, 80.300336) rotate(-45.000000) translate(-191.747881, -80.300336) " x="186.486916" y="75.025559" width="10.5219293" height="10.5495531"></rect>
                        <rect id="Rectangle-path" stroke="#BDBDBD" stroke-width="0.5" transform="translate(206.709126, 80.316956) rotate(-45.000000) translate(-206.709126, -80.316956) " x="201.448161" y="75.0421796" width="10.5219293" height="10.5495531"></rect>
                        <rect id="Rectangle-path" stroke="#BDBDBD" stroke-width="0.5" transform="translate(220.757633, 80.348539) rotate(-45.000000) translate(-220.757633, -80.348539) " x="215.496668" y="75.0737623" width="10.5219293" height="10.5495531"></rect>
                        <rect id="Rectangle-path" stroke="#BDBDBD" stroke-width="0.5" transform="translate(235.731707, 80.352172) rotate(-45.020000) translate(-235.731707, -80.352172) " x="230.470742" y="75.0773956" width="10.5219293" height="10.5495531"></rect>
                        <rect id="Rectangle-path" stroke="#BDBDBD" stroke-width="0.5" transform="translate(249.763339, 80.378885) rotate(-45.000000) translate(-249.763339, -80.378885) " x="244.502374" y="75.1041082" width="10.5219293" height="10.5495531"></rect>
                        <rect id="Rectangle-path" stroke="#BDBDBD" stroke-width="0.5" transform="translate(264.738396, 80.395505) rotate(-45.000000) translate(-264.738396, -80.395505) " x="259.477431" y="75.1207289" width="10.5219293" height="10.5495531"></rect>
                        <rect id="Rectangle-path" stroke="#BDBDBD" stroke-width="0.5" transform="translate(278.759279, 80.399464) rotate(-45.000000) translate(-278.759279, -80.399464) " x="273.498314" y="75.1246876" width="10.5219293" height="10.5495531"></rect>
                        <rect id="Rectangle-path" stroke="#BDBDBD" stroke-width="0.5" transform="translate(293.721811, 80.397541) rotate(-45.010000) translate(-293.721811, -80.397541) " x="288.460847" y="75.1227643" width="10.5219293" height="10.5495531"></rect>
                        <rect id="Rectangle-path" stroke="#BDBDBD" stroke-width="0.5" transform="translate(307.793042, 80.477718) rotate(-44.990000) translate(-307.793042, -80.477718) " x="302.532077" y="75.2029415" width="10.5219293" height="10.5495531"></rect>
                        <rect id="Rectangle-path" stroke="#BDBDBD" stroke-width="0.5" transform="translate(322.726230, 80.446431) rotate(-45.000000) translate(-322.726230, -80.446431) " x="317.465265" y="75.1716542" width="10.5219293" height="10.5495531"></rect>
                        <rect id="Rectangle-path" stroke="#BDBDBD" stroke-width="0.5" transform="translate(10.364372, 91.166352) rotate(-44.990000) translate(-10.364372, -91.166352) " x="5.10340698" y="85.8915753" width="10.5219293" height="10.5495531"></rect>
                        <rect id="Rectangle-path" stroke="#BDBDBD" stroke-width="0.5" transform="translate(25.341274, 91.171010) rotate(-44.990000) translate(-25.341274, -91.171010) " x="20.0803097" y="85.8962336" width="10.5219293" height="10.5495531"></rect>
                        <rect id="Rectangle-path" stroke="#BDBDBD" stroke-width="0.5" transform="translate(39.384925, 91.193104) rotate(-45.000000) translate(-39.384925, -91.193104) " x="34.1170549" y="85.9183272" width="10.5357412" height="10.5495531"></rect>
                        <rect id="Rectangle-path" stroke="#BDBDBD" stroke-width="0.5" transform="translate(54.355099, 91.200796) rotate(-45.000000) translate(-54.355099, -91.200796) " x="49.0941345" y="85.9260192" width="10.5219293" height="10.5495531"></rect>
                        <rect id="Rectangle-path" stroke="#BDBDBD" stroke-width="0.5" transform="translate(68.378793, 91.212687) rotate(-45.010000) translate(-68.378793, -91.212687) " x="63.1178282" y="85.9379103" width="10.5219293" height="10.5495531"></rect>
                        <rect id="Rectangle-path" stroke="#BDBDBD" stroke-width="0.5" transform="translate(83.352003, 91.241270) rotate(-45.010000) translate(-83.352003, -91.241270) " x="78.0910388" y="85.9664936" width="10.5219293" height="10.5495531"></rect>
                        <rect id="Rectangle-path" stroke="#BDBDBD" stroke-width="0.5" transform="translate(97.390617, 91.234263) rotate(-45.000000) translate(-97.390617, -91.234263) " x="92.1227464" y="85.9594861" width="10.5357412" height="10.5495531"></rect>
                        <rect id="Rectangle-path" stroke="#BDBDBD" stroke-width="0.5" transform="translate(112.359351, 91.290659) rotate(-44.990000) translate(-112.359351, -91.290659) " x="107.098386" y="86.0158822" width="10.5219293" height="10.5495531"></rect>
                        <rect id="Rectangle-path" stroke="#BDBDBD" stroke-width="0.5" transform="translate(126.387099, 91.284069) rotate(-45.010000) translate(-126.387099, -91.284069) " x="121.126135" y="86.0092924" width="10.5219293" height="10.5495531"></rect>
                        <rect id="Rectangle-path" stroke="#BDBDBD" stroke-width="0.5" transform="translate(141.360310, 91.298840) rotate(-45.010000) translate(-141.360310, -91.298840) " x="136.099345" y="86.0240638" width="10.5219293" height="10.5495531"></rect>
                        <rect id="Rectangle-path" stroke="#BDBDBD" stroke-width="0.5" transform="translate(155.387380, 91.303883) rotate(-45.000000) translate(-155.387380, -91.303883) " x="150.126415" y="86.0291066" width="10.5219293" height="10.5495531"></rect>
                        <rect id="Rectangle-path" stroke="#BDBDBD" stroke-width="0.5" transform="translate(170.372194, 91.352796) rotate(-44.990000) translate(-170.372194, -91.352796) " x="165.11123" y="86.0780197" width="10.5219293" height="10.5495531"></rect>
                        <rect id="Rectangle-path" stroke="#BDBDBD" stroke-width="0.5" transform="translate(184.418384, 91.382069) rotate(-44.990000) translate(-184.418384, -91.382069) " x="179.157419" y="86.1072923" width="10.5219293" height="10.5495531"></rect>
                        <rect id="Rectangle-path" stroke="#BDBDBD" stroke-width="0.5" transform="translate(199.368617, 91.356411) rotate(-45.010000) translate(-199.368617, -91.356411) " x="194.107652" y="86.081634" width="10.5219293" height="10.5495531"></rect>
                        <rect id="Rectangle-path" stroke="#BDBDBD" stroke-width="0.5" transform="translate(213.402838, 91.382432) rotate(-45.000000) translate(-213.402838, -91.382432) " x="208.141873" y="86.1076559" width="10.5219293" height="10.5495531"></rect>
                        <rect id="Rectangle-path" stroke="#BDBDBD" stroke-width="0.5" transform="translate(228.380990, 91.424702) rotate(-44.990000) translate(-228.380990, -91.424702) " x="223.120026" y="86.1499254" width="10.5219293" height="10.5495531"></rect>
                        <rect id="Rectangle-path" stroke="#BDBDBD" stroke-width="0.5" transform="translate(242.398777, 91.403012) rotate(-45.000000) translate(-242.398777, -91.403012) " x="237.137813" y="86.1282353" width="10.5219293" height="10.5495531"></rect>
                        <rect id="Rectangle-path" stroke="#BDBDBD" stroke-width="0.5" transform="translate(257.376923, 91.427793) rotate(-45.010000) translate(-257.376923, -91.427793) " x="252.115959" y="86.1530161" width="10.5219293" height="10.5495531"></rect>
                        <rect id="Rectangle-path" stroke="#BDBDBD" stroke-width="0.5" transform="translate(271.404484, 91.433358) rotate(-45.000000) translate(-271.404484, -91.433358) " x="266.143519" y="86.1585812" width="10.5219293" height="10.5495531"></rect>
                        <rect id="Rectangle-path" stroke="#BDBDBD" stroke-width="0.5" transform="translate(286.386648, 91.453416) rotate(-45.020000) translate(-286.386648, -91.453416) " x="281.125684" y="86.1786398" width="10.5219293" height="10.5495531"></rect>
                        <rect id="Rectangle-path" stroke="#BDBDBD" stroke-width="0.5" transform="translate(300.440023, 91.502300) rotate(-44.990000) translate(-300.440023, -91.502300) " x="295.179059" y="86.2275235" width="10.5219293" height="10.5495531"></rect>
                        <rect id="Rectangle-path" stroke="#BDBDBD" stroke-width="0.5" transform="translate(315.393338, 91.535572) rotate(-45.000000) translate(-315.393338, -91.535572) " x="310.132373" y="86.2607956" width="10.5219293" height="10.5495531"></rect>
                        <rect id="Rectangle-path" stroke="#BDBDBD" stroke-width="0.5" transform="translate(17.738804, 101.758957) rotate(-44.990000) translate(-17.738804, -101.758957) " x="12.4778394" y="96.4841802" width="10.5219293" height="10.5495531"></rect>
                        <rect id="Rectangle-path" stroke="#BDBDBD" stroke-width="0.5" transform="translate(32.720177, 101.784416) rotate(-45.000000) translate(-32.720177, -101.784416) " x="27.4592126" y="96.5096391" width="10.5219293" height="10.5495531"></rect>
                        <rect id="Rectangle-path" stroke="#BDBDBD" stroke-width="0.5" transform="translate(46.748085, 101.792888) rotate(-44.990000) translate(-46.748085, -101.792888) " x="41.4871199" y="96.5181112" width="10.5219293" height="10.5495531"></rect>
                        <rect id="Rectangle-path" stroke="#BDBDBD" stroke-width="0.5" transform="translate(61.721055, 101.798631) rotate(-45.010000) translate(-61.721055, -101.798631) " x="56.4600904" y="96.5238546" width="10.5219293" height="10.5495531"></rect>
                        <rect id="Rectangle-path" stroke="#BDBDBD" stroke-width="0.5" transform="translate(75.754020, 101.814668) rotate(-45.010000) translate(-75.754020, -101.814668) " x="70.493055" y="96.5398919" width="10.5219293" height="10.5495531"></rect>
                        <rect id="Rectangle-path" stroke="#BDBDBD" stroke-width="0.5" transform="translate(90.727230, 101.843252) rotate(-45.010000) translate(-90.727230, -101.843252) " x="85.4662656" y="96.5684752" width="10.5219293" height="10.5495531"></rect>
                        <rect id="Rectangle-path" stroke="#BDBDBD" stroke-width="0.5" transform="translate(104.774845, 101.836546) rotate(-45.010000) translate(-104.774845, -101.836546) " x="99.5069748" y="96.5617693" width="10.5357412" height="10.5495531"></rect>
                        <rect id="Rectangle-path" stroke="#BDBDBD" stroke-width="0.5" transform="translate(119.733783, 101.883264) rotate(-44.990000) translate(-119.733783, -101.883264) " x="114.472819" y="96.6084872" width="10.5219293" height="10.5495531"></rect>
                        <rect id="Rectangle-path" stroke="#BDBDBD" stroke-width="0.5" transform="translate(133.762326, 101.872239) rotate(-45.010000) translate(-133.762326, -101.872239) " x="128.501362" y="96.597462" width="10.5219293" height="10.5495531"></rect>
                        <rect id="Rectangle-path" stroke="#BDBDBD" stroke-width="0.5" transform="translate(148.729742, 101.883709) rotate(-45.020000) translate(-148.729742, -101.883709) " x="143.468777" y="96.6089326" width="10.5219293" height="10.5495531"></rect>
                        <rect id="Rectangle-path" stroke="#BDBDBD" stroke-width="0.5" transform="translate(162.776021, 101.921894) rotate(-45.000000) translate(-162.776021, -101.921894) " x="157.515057" y="96.6471178" width="10.5219293" height="10.5495531"></rect>
                        <rect id="Rectangle-path" stroke="#BDBDBD" stroke-width="0.5" transform="translate(177.747033, 101.934470) rotate(-45.000000) translate(-177.747033, -101.934470) " x="172.486068" y="96.6596931" width="10.5219293" height="10.5495531"></rect>
                        <rect id="Rectangle-path" stroke="#BDBDBD" stroke-width="0.5" transform="translate(191.781728, 101.938428) rotate(-45.000000) translate(-191.781728, -101.938428) " x="186.520763" y="96.6636518" width="10.5219293" height="10.5495531"></rect>
                        <rect id="Rectangle-path" stroke="#BDBDBD" stroke-width="0.5" transform="translate(206.743844, 101.944580) rotate(-45.010000) translate(-206.743844, -101.944580) " x="201.482879" y="96.6698036" width="10.5219293" height="10.5495531"></rect>
                        <rect id="Rectangle-path" stroke="#BDBDBD" stroke-width="0.5" transform="translate(220.782551, 101.981748) rotate(-45.000000) translate(-220.782551, -101.981748) " x="215.51468" y="96.7069719" width="10.5357412" height="10.5495531"></rect>
                        <rect id="Rectangle-path" stroke="#BDBDBD" stroke-width="0.5" transform="translate(235.750019, 101.989201) rotate(-45.010000) translate(-235.750019, -101.989201) " x="230.489054" y="96.7144242" width="10.5219293" height="10.5495531"></rect>
                        <rect id="Rectangle-path" stroke="#BDBDBD" stroke-width="0.5" transform="translate(249.801612, 102.046579) rotate(-44.990000) translate(-249.801612, -102.046579) " x="244.540648" y="96.7718029" width="10.5219293" height="10.5495531"></rect>
                        <rect id="Rectangle-path" stroke="#BDBDBD" stroke-width="0.5" transform="translate(264.765962, 102.043586) rotate(-45.010000) translate(-264.765962, -102.043586) " x="259.504997" y="96.7688096" width="10.5219293" height="10.5495531"></rect>
                        <rect id="Rectangle-path" stroke="#BDBDBD" stroke-width="0.5" transform="translate(278.798009, 102.032674) rotate(-45.000000) translate(-278.798009, -102.032674) " x="273.530138" y="96.7578972" width="10.5357412" height="10.5495531"></rect>
                        <rect id="Rectangle-path" stroke="#BDBDBD" stroke-width="0.5" transform="translate(293.758325, 102.046771) rotate(-45.010000) translate(-293.758325, -102.046771) " x="288.497361" y="96.7719943" width="10.5219293" height="10.5495531"></rect>
                        <rect id="Rectangle-path" stroke="#BDBDBD" stroke-width="0.5" transform="translate(307.789065, 102.058136) rotate(-45.000000) translate(-307.789065, -102.058136) " x="302.528101" y="96.7833599" width="10.5219293" height="10.5495531"></rect>
                        <rect id="Rectangle-path" stroke="#BDBDBD" stroke-width="0.5" transform="translate(322.774269, 102.087344) rotate(-45.010000) translate(-322.774269, -102.087344) " x="317.513304" y="96.8125678" width="10.5219293" height="10.5495531"></rect>
                        <rect id="Rectangle-path" stroke="#BDBDBD" stroke-width="0.5" transform="translate(10.408183, 112.791922) rotate(-45.000000) translate(-10.408183, -112.791922) " x="5.14721804" y="107.517145" width="10.5219293" height="10.5495531"></rect>
                        <rect id="Rectangle-path" stroke="#BDBDBD" stroke-width="0.5" transform="translate(25.359661, 112.818309) rotate(-45.000000) translate(-25.359661, -112.818309) " x="20.0986964" y="107.543533" width="10.5219293" height="10.5495531"></rect>
                        <rect id="Rectangle-path" stroke="#BDBDBD" stroke-width="0.5" transform="translate(39.404122, 112.812501) rotate(-45.000000) translate(-39.404122, -112.812501) " x="34.1431578" y="107.537725" width="10.5219293" height="10.5495531"></rect>
                        <rect id="Rectangle-path" stroke="#BDBDBD" stroke-width="0.5" transform="translate(54.362809, 112.845883) rotate(-45.010000) translate(-54.362809, -112.845883) " x="49.1018448" y="107.571107" width="10.5219293" height="10.5495531"></rect>
                        <rect id="Rectangle-path" stroke="#BDBDBD" stroke-width="0.5" transform="translate(68.394578, 112.888789) rotate(-44.990000) translate(-68.394578, -112.888789) " x="63.1336137" y="107.614013" width="10.5219293" height="10.5495531"></rect>
                        <rect id="Rectangle-path" stroke="#BDBDBD" stroke-width="0.5" transform="translate(83.375119, 112.896858) rotate(-45.000000) translate(-83.375119, -112.896858) " x="78.1141544" y="107.622082" width="10.5219293" height="10.5495531"></rect>
                        <rect id="Rectangle-path" stroke="#BDBDBD" stroke-width="0.5" transform="translate(97.421482, 112.878914) rotate(-45.010000) translate(-97.421482, -112.878914) " x="92.1605175" y="107.604137" width="10.5219293" height="10.5495531"></rect>
                        <rect id="Rectangle-path" stroke="#BDBDBD" stroke-width="0.5" transform="translate(112.371059, 112.931250) rotate(-45.000000) translate(-112.371059, -112.931250) " x="107.110094" y="107.656473" width="10.5219293" height="10.5495531"></rect>
                        <rect id="Rectangle-path" stroke="#BDBDBD" stroke-width="0.5" transform="translate(126.412306, 112.946044) rotate(-44.990000) translate(-126.412306, -112.946044) " x="121.144435" y="107.671268" width="10.5357412" height="10.5495531"></rect>
                        <rect id="Rectangle-path" stroke="#BDBDBD" stroke-width="0.5" transform="translate(141.376765, 112.933972) rotate(-45.000000) translate(-141.376765, -112.933972) " x="136.1158" y="107.659195" width="10.5219293" height="10.5495531"></rect>
                        <rect id="Rectangle-path" stroke="#BDBDBD" stroke-width="0.5" transform="translate(155.421226, 112.955788) rotate(-45.000000) translate(-155.421226, -112.955788) " x="150.160262" y="107.681011" width="10.5219293" height="10.5495531"></rect>
                        <rect id="Rectangle-path" stroke="#BDBDBD" stroke-width="0.5" transform="translate(170.379423, 112.974835) rotate(-45.010000) translate(-170.379423, -112.974835) " x="165.118458" y="107.700059" width="10.5219293" height="10.5495531"></rect>
                        <rect id="Rectangle-path" stroke="#BDBDBD" stroke-width="0.5" transform="translate(184.421102, 113.017950) rotate(-44.990000) translate(-184.421102, -113.017950) " x="179.153231" y="107.743174" width="10.5357412" height="10.5495531"></rect>
                        <rect id="Rectangle-path" stroke="#BDBDBD" stroke-width="0.5" transform="translate(199.382457, 113.002755) rotate(-45.000000) translate(-199.382457, -113.002755) " x="194.121492" y="107.727978" width="10.5219293" height="10.5495531"></rect>
                        <rect id="Rectangle-path" stroke="#BDBDBD" stroke-width="0.5" transform="translate(213.449078, 113.046999) rotate(-44.990000) translate(-213.449078, -113.046999) " x="208.188114" y="107.772222" width="10.5219293" height="10.5495531"></rect>
                        <rect id="Rectangle-path" stroke="#BDBDBD" stroke-width="0.5" transform="translate(228.407285, 113.070351) rotate(-44.990000) translate(-228.407285, -113.070351) " x="223.139414" y="107.795575" width="10.5357412" height="10.5495531"></rect>
                        <rect id="Rectangle-path" stroke="#BDBDBD" stroke-width="0.5" transform="translate(242.443710, 113.089856) rotate(-44.990000) translate(-242.443710, -113.089856) " x="237.175839" y="107.815079" width="10.5357412" height="10.5495531"></rect>
                        <rect id="Rectangle-path" stroke="#BDBDBD" stroke-width="0.5" transform="translate(257.393905, 113.063214) rotate(-45.010000) translate(-257.393905, -113.063214) " x="252.13294" y="107.788438" width="10.5219293" height="10.5495531"></rect>
                        <rect id="Rectangle-path" stroke="#BDBDBD" stroke-width="0.5" transform="translate(271.448110, 113.109136) rotate(-44.990000) translate(-271.448110, -113.109136) " x="266.187145" y="107.83436" width="10.5219293" height="10.5495531"></rect>
                        <rect id="Rectangle-path" stroke="#BDBDBD" stroke-width="0.5" transform="translate(286.429893, 113.142257) rotate(-44.990000) translate(-286.429893, -113.142257) " x="281.162022" y="107.867481" width="10.5357412" height="10.5495531"></rect>
                        <rect id="Rectangle-path" stroke="#BDBDBD" stroke-width="0.5" transform="translate(300.447622, 113.152832) rotate(-44.990000) translate(-300.447622, -113.152832) " x="295.186657" y="107.878055" width="10.5219293" height="10.5495531"></rect>
                        <rect id="Rectangle-path" stroke="#BDBDBD" stroke-width="0.5" transform="translate(315.416023, 113.162220) rotate(-45.010000) translate(-315.416023, -113.162220) " x="310.155058" y="107.887444" width="10.5219293" height="10.5495531"></rect>
                        <path d="M331.9562,8.2540162 C331.887761,6.00319036 330.925489,3.87235438 329.282184,2.33272794 C327.638879,0.7931015 325.449938,-0.0284611217 323.199429,0.0497229891 L8.71533504,0.0497229891 C4.04375457,-0.0896948575 0.142780681,3.5825373 0,8.2540162 L0,120.213613 L0.124307473,120.213613 C0.848837873,120.516508 1.63329175,120.648825 2.41708975,120.600348 C4.44177817,120.757725 6.47855208,120.62752 8.46672009,120.213613 L8.46672009,15.1047391 C8.46672009,8.37832367 9.99984559,7.88109378 16.7538849,7.88109378 L315.229939,7.88109378 C324.166265,7.88109378 323.517104,9.13798045 323.517104,15.1047391 L323.517104,120.075494 C325.421225,120.577872 327.399638,120.736893 329.359555,120.5451 C330.183866,120.628783 331.015887,120.500414 331.776645,120.172178 L331.997636,120.172178 L331.9562,8.2540162 Z" id="Shape" fill="#CFCED0" fill-rule="nonzero"></path>
                    </g>
                    <g id="goal_v2" transform="translate(122.265365, 44.059591)" fill-rule="nonzero">
                        <rect id="Rectangle-path" fill="#E89680" x="40.2828211" y="5.1070557" width="7.30022969" height="21.8173419" rx="3.65011485"></rect>
                        <path d="M39.0031972,15.2525283 C39.0031972,15.2525283 42.6083699,12.9384192 48.8610404,15.2525283 L51.4970982,20.2321118 L47.5748795,25.6790932 L40.6930198,25.6790932 L36.3671393,21.8663697 L39.0031972,15.2525283 Z" id="Shape" fill="#E89680"></path>
                        <path d="M37.239833,69.6961934 C37.239833,69.6961934 32.9907627,70.8401738 24.6021173,68.1714308 C24.600483,68.1697966 33.6232204,66.0812151 37.239833,69.6961934 Z" id="Shape" fill="#000000"></path>
                        <rect id="Rectangle-path" fill="#EFAA8E" transform="translate(22.694521, 38.171500) rotate(30.000000) translate(-22.694521, -38.171500) " x="19.4815704" y="30.3703705" width="6.42590176" height="15.6022594" rx="3.21295088"></rect>
                        <rect id="Rectangle-path" fill="#EFAA8E" transform="translate(15.137158, 38.798557) rotate(123.480000) translate(-15.137158, -38.798557) " x="11.9242068" y="29.4530538" width="6.42590176" height="18.6910067" rx="3.21295088"></rect>
                        <path d="M24.9060892,66.9865939 C24.9060892,66.9865939 23.5120673,77.9769777 23.7294236,82.0070575 C23.7294236,82.0070575 28.6321971,84.9487216 30.8106627,80.590156 C30.8106627,80.590156 30.3694131,75.4422439 35.9079129,68.8610876 L36.3671393,65.6628451 L30.0360245,66.752895 L24.9060892,66.9865939 Z" id="Shape" fill="#EFAA8E"></path>
                        <path d="M30.7028017,47.9049996 C30.7028017,47.9049996 25.4731767,64.4649341 24.6021173,68.1697966 C24.6021173,68.1697966 32.1197032,65.8818356 37.239833,69.6945591 C37.239833,69.6945591 40.1814971,62.0674778 43.9942206,61.8501216 L43.9942206,49.9331135 L30.7028017,47.9049996 Z" id="Shape" fill="url(#linearGradient-1)"></path>
                        <path d="M23.706544,79.8285919 C23.706544,79.8285919 22.4220173,80.2453276 22.7488689,82.9778067 C23.0757205,85.7102858 23.402572,94.427417 25.9078893,95.7348232 C25.9078893,95.7348232 27.4326518,100.310745 27.2152955,101.400795 C27.0559279,102.1224 26.7991763,102.818983 26.4520971,103.4714 L31.5722269,104.888301 C31.5722269,104.888301 31.7895832,103.144548 31.5722269,102.60034 C31.3548706,102.056133 31.2453753,95.9538138 31.5722269,94.7559028 C31.8990784,93.5579918 33.6428315,86.4751184 31.5722269,82.3355434 L30.8090285,80.5917903 L23.706544,79.8285919 Z" id="Shape" fill="url(#linearGradient-2)"></path>
                        <path d="M1.30740626,31.8157313 C0.931286804,31.562521 0.421497475,31.6586527 0.163425782,32.0314533 C-0.103184116,32.4009546 -0.0214147921,32.9163933 0.346462658,33.1852393 L4.50728307,36.1040238 C4.88581434,36.340435 5.38313276,36.2395719 5.63964743,35.8743646 C5.89616209,35.5091572 5.82231201,35.0071163 5.47149519,34.7312472 L1.30740626,31.8157313 Z" id="Shape" fill="#EFAA8E"></path>
                        <path d="M2.87629377,34.9731174 C4.25233885,35.940598 5.36036566,36.713602 5.36036566,36.713602 C6.53934342,37.5161058 8.14497643,37.2168742 8.95573287,36.0435563 L10.0621254,34.469766 C10.5524028,33.7637666 11.0786338,32.5380732 10.8089812,31.2845975 L10.4592501,29.0571041 C10.3800735,28.5486642 9.92693184,28.1840268 9.41332506,28.2154613 C8.80047837,28.2612205 8.49814068,28.7514979 8.59619615,29.2940715 L8.82499224,30.9479404 L7.19073442,29.8039599 L3.29956654,27.0665781 C3.07077045,26.9031523 2.47263209,26.7903885 2.15558607,27.2479807 C1.90225283,27.6322155 1.98139198,28.1459134 2.33862294,28.4360861 L5.54503679,30.6880934 L3.61170979,33.4385493 L2.87629377,34.9731174 Z" id="Shape" fill="#EFAA8E"></path>
                        <path d="M1.86305392,28.1092345 C1.48452265,27.8728234 0.987204233,27.9736865 0.730689566,28.3388938 C0.474174899,28.7041011 0.548024984,29.2061421 0.898841802,29.4820111 L5.51398589,32.7178416 C5.89251716,32.9542528 6.38983558,32.8533897 6.64635024,32.4881824 C6.90286491,32.122975 6.82901483,31.6209341 6.47819801,31.345065 L1.86305392,28.1092345 Z" id="Shape" fill="#EFAA8E"></path>
                        <path d="M1.35316548,29.7990571 C0.976202251,29.5465042 0.466223585,29.6441286 0.209185001,30.0180477 C-0.0574248968,30.3875489 0.024344427,30.9029877 0.392221877,31.1718337 L5.00900023,34.4158355 C5.38753149,34.6522467 5.88484991,34.5513836 6.14136458,34.1861762 C6.39787924,33.8209689 6.32402916,33.3189279 5.97321234,33.0430589 L1.35316548,29.7990571 Z" id="Shape" fill="#EFAA8E"></path>
                        <path d="M5.21981949,31.1522226 C5.34618008,31.2424802 5.5217838,31.2132129 5.61204136,31.0868523 C5.70229893,30.9604917 5.67303164,30.784888 5.54667105,30.6946304 L2.34515998,28.4458917 L5.21981949,31.1522226 Z" id="Shape" fill="#E5977C"></path>
                        <path d="M4.48440347,32.6851565 C4.61076406,32.775414 4.78636778,32.7461467 4.87662534,32.6197861 C4.96688291,32.4934255 4.93761562,32.3178218 4.81125503,32.2275643 L1.32538309,29.7761775 C1.29680214,29.758374 1.26734871,29.742011 1.23713317,29.7271498 L4.48440347,32.6851565 Z" id="Shape" fill="#E5977C"></path>
                        <path d="M3.88299659,34.311243 C3.96473756,34.3696294 4.07141811,34.3799724 4.16285271,34.3383758 C4.25428731,34.2967793 4.31658486,34.2095627 4.32627849,34.1095797 C4.33597212,34.0095968 4.29158912,33.9120372 4.20984815,33.8536508 L1.32374884,31.8288054 C1.2943322,31.8108285 1.26654981,31.7944859 1.23549891,31.7797776 L3.88299659,34.311243 Z" id="Shape" fill="#E5977C"></path>
                        <path d="M29.5882379,108.22709 C28.6639889,108.789968 27.6766247,109.241961 26.6465738,109.573718 C25.8480236,109.861881 25.0129066,110.036277 24.1657704,110.091778 C22.8077022,110.157149 20.8024678,109.885862 20.6798985,109.197839 C20.6030884,108.768029 21.3090877,108.509817 22.8044337,107.269415 C23.7611585,106.472407 24.6197231,105.564468 25.3620471,104.564718 C26.0856387,103.546969 26.6320884,102.414288 26.9783281,101.21449 L27.2365409,100.361407 L31.6343287,100.88437 C32.2342248,102.881074 32.3590254,104.990373 31.9987682,107.043887 L30.4642001,107.772766" id="Shape" fill="#172B4D"></path>
                        <path d="M50.6260388,69.6961934 C50.6260388,69.6961934 54.8751092,70.8401738 63.2637546,68.1714308 C63.2653888,68.1697966 54.2426514,66.0812151 50.6260388,69.6961934 Z" id="Shape" fill="#000000"></path>
                        <rect id="Rectangle-path" fill="#EFAA8E" transform="translate(65.170752, 38.173671) rotate(150.000000) translate(-65.170752, -38.173671) " x="61.9578011" y="30.3725414" width="6.42590176" height="15.6022594" rx="3.21295088"></rect>
                        <rect id="Rectangle-path" fill="#EFAA8E" transform="translate(72.732065, 38.799644) rotate(56.520000) translate(-72.732065, -38.799644) " x="69.5191136" y="29.4541404" width="6.42590176" height="18.6910067" rx="3.21295088"></rect>
                        <path d="M62.9597826,66.9865939 C62.9597826,66.9865939 64.3538045,77.9769777 64.1364482,82.0070575 C64.1364482,82.0070575 59.2336748,84.9487216 57.0552091,80.590156 C57.0552091,80.590156 57.4964587,75.4422439 51.957959,68.8610876 L51.4987325,65.6628451 L57.8298473,66.752895 L62.9597826,66.9865939 Z" id="Shape" fill="#EFAA8E"></path>
                        <path d="M57.1630701,47.9049996 C57.1630701,47.9049996 62.3926951,64.4649341 63.2637546,68.1697966 C63.2637546,68.1697966 55.7461686,65.8818356 50.6260388,69.6945591 C50.6260388,69.6945591 47.6843747,62.0674778 43.8716512,61.8501216 L43.8716512,49.9331135 L57.1630701,47.9049996 Z" id="Shape" fill="url(#linearGradient-1)"></path>
                        <path d="M64.1593279,79.8285919 C64.1593279,79.8285919 65.4438545,80.2453276 65.1170029,82.9778067 C64.7901514,85.7102858 64.4632998,94.427417 61.9579826,95.7348232 C61.9579826,95.7348232 60.43322,100.310745 60.6505763,101.400795 C60.809944,102.1224 61.0666955,102.818983 61.4137747,103.4714 L56.293645,104.888301 C56.293645,104.888301 56.0762887,103.144548 56.293645,102.60034 C56.5110012,102.056133 56.6204965,95.9538138 56.293645,94.7559028 C55.9667934,93.5579918 54.2230403,86.4751184 56.293645,82.3355434 L57.0568434,80.5917903 L64.1593279,79.8285919 Z" id="Shape" fill="url(#linearGradient-3)"></path>
                        <path d="M86.5617341,31.8157313 C86.9402654,31.5793201 87.4375838,31.6801832 87.6940984,32.0453905 C87.9506131,32.4105979 87.876763,32.9126388 87.5259462,33.1885079 L83.3651258,36.1072923 C82.9865945,36.3437035 82.4892761,36.2428404 82.2327614,35.8776331 C81.9762468,35.5124258 82.0500969,35.0103848 82.4009137,34.7345158 L86.5617341,31.8157313 Z" id="Shape" fill="#EFAA8E"></path>
                        <path d="M84.9895781,34.9731174 C83.613533,35.940598 82.5055062,36.713602 82.5055062,36.713602 C81.3265284,37.5161058 79.7208954,37.2168742 78.910139,36.0435563 L77.8037464,34.469766 C77.3134691,33.7637666 76.787238,32.5380732 77.0568906,31.2845975 L77.4066218,29.0603726 C77.4857983,28.5519327 77.93894,28.1872953 78.4525468,28.2187298 C79.0653935,28.264489 79.3677312,28.7547664 79.2696757,29.29734 L79.0441481,30.9512089 L80.6784059,29.8072284 L84.5712081,27.0714808 C84.8000042,26.908055 85.3981425,26.7952913 85.7151885,27.2528834 C85.9677765,27.6379188 85.8872034,28.1517493 85.5288831,28.4409889 L82.3224693,30.6929962 L84.254162,33.4418178 L84.9895781,34.9731174 Z" id="Shape" fill="#EFAA8E"></path>
                        <path d="M86.0028179,28.1092345 C86.3813492,27.8728234 86.8786676,27.9736865 87.1351823,28.3388938 C87.3916969,28.7041011 87.3178468,29.2061421 86.96703,29.4820111 L82.3518859,32.7178416 C81.9733547,32.9542528 81.4760363,32.8533897 81.2195216,32.4881824 C80.9630069,32.122975 81.036857,31.6209341 81.3876738,31.345065 L86.0028179,28.1092345 Z" id="Shape" fill="#EFAA8E"></path>
                        <path d="M86.5127064,29.7990571 C86.8912376,29.562646 87.388556,29.6635091 87.6450707,30.0287164 C87.9015854,30.3939237 87.8277353,30.8959647 87.4769185,31.1718337 L82.8568716,34.4158355 C82.4783403,34.6522467 81.9810219,34.5513836 81.7245073,34.1861762 C81.4679926,33.8209689 81.5418427,33.3189279 81.8926595,33.0430589 L86.5127064,29.7990571 Z" id="Shape" fill="#EFAA8E"></path>
                        <path d="M82.6460523,31.1522226 C82.5643114,31.210609 82.4576308,31.220952 82.3661962,31.1793555 C82.2747616,31.1377589 82.212464,31.0505423 82.2027704,30.9505594 C82.1930768,30.8505764 82.2374598,30.7530168 82.3192008,30.6946304 L85.5158091,28.4458917 L82.6460523,31.1522226 Z" id="Shape" fill="#E5977C"></path>
                        <path d="M83.3814684,32.6851565 C83.2997274,32.7435429 83.1930468,32.7538858 83.1016122,32.7122893 C83.0101776,32.6706927 82.9478801,32.5834762 82.9381864,32.4834932 C82.9284928,32.3835102 82.9728758,32.2859507 83.0546168,32.2275643 L86.5404887,29.7761775 C86.5690697,29.758374 86.5985231,29.742011 86.6287387,29.7271498 L83.3814684,32.6851565 Z" id="Shape" fill="#E5977C"></path>
                        <path d="M83.9845095,34.311243 C83.8581489,34.4015005 83.6825452,34.3722332 83.5922876,34.2458727 C83.5020301,34.1195121 83.5312974,33.9439084 83.6576579,33.8536508 L86.5388545,31.8288054 C86.5682711,31.8108285 86.5960535,31.7944859 86.6271044,31.7797776 L83.9845095,34.311243 Z" id="Shape" fill="#E5977C"></path>
                        <path d="M58.277634,108.22709 C59.2018829,108.789968 60.1892471,109.241961 61.219298,109.573718 C62.0178482,109.861881 62.8529652,110.036277 63.7001014,110.091778 C65.0581697,110.157149 67.063404,109.885862 67.1859733,109.197839 C67.2627835,108.768029 66.5567841,108.509817 65.0614382,107.269415 C64.1047133,106.472407 63.2461488,105.564468 62.5038247,104.564718 C61.7802331,103.546969 61.2337834,102.414288 60.8875437,101.21449 L60.6309652,100.361407 L56.2331774,100.88437 C55.6330243,102.881589 55.5082219,104.991478 55.8687379,107.045522 L57.403306,107.774401" id="Shape" fill="#172B4D"></path>
                        <path d="M40.2926266,52.3877688 C40.2926266,52.3877688 43.6297811,53.2980504 47.8102126,52.338741 C51.9906441,51.3794317 40.2926266,52.3877688 40.2926266,52.3877688 Z" id="Shape" fill="#000000"></path>
                        <path d="M38.8250631,10.2418938 C38.7139336,9.51138053 38.1239665,8.99658931 37.5176568,9.0979133 C36.9113472,9.19923728 36.4946114,9.85947744 36.605741,10.5883564 L36.7446529,11.5035408 C36.8557824,12.2324198 37.4457495,12.7488453 38.0520591,12.6475213 C38.6583688,12.5461973 39.0767388,11.8859571 38.963975,11.1554439 L38.8250631,10.2418938 Z" id="Shape" fill="#E89680"></path>
                        <path d="M50.3563863,9.00312634 C49.7419053,8.90997365 49.1519383,9.42476486 49.04898,10.1471068 L48.9100681,11.0622912 C48.7989386,11.7928044 49.207503,12.4595816 49.821984,12.5527343 C50.4364649,12.645887 51.026432,12.1310958 51.1293902,11.4087539 L51.2683022,10.4935695 C51.3794317,9.76469049 50.9725015,9.0979133 50.3563863,9.00312634 Z" id="Shape" fill="#E89680"></path>
                        <path d="M43.9043364,4.95343546 L37.543805,6.77236442 C37.543805,6.77236442 36.4799031,18.2121692 43.9043364,18.2955163 L43.9043364,4.95343546 Z" id="Shape" fill="#B87351"></path>
                        <path d="M43.9043364,18.2938821 L43.9043364,18.2955163 C36.4799031,18.2170719 37.543805,6.77236442 37.543805,6.77236442 L43.9043364,4.95343546 L43.9043364,4.43210721 L50.2893817,6.43570731 C50.2893817,6.43570731 51.3532836,18.2138034 43.9043364,18.2938821 Z" id="Combined-Shape" fill="#EFAA8E"></path>
                        <path d="M37.7954807,12.0935079 C37.7954807,12.0935079 37.766064,11.9807441 38.0013971,8.80374689 C38.3462255,4.15428338 41.6948198,7.33291485 44.136401,7.36396575 C46.5175147,7.39338239 49.5964564,4.07420475 49.8873543,8.86421443 C50.0752939,11.9300821 50.1717152,11.6784064 50.1717152,11.6784064 C50.1717152,11.6784064 54.7361973,0.403661682 43.9811465,0.163425782 C32.5511473,-0.0849814068 37.7954807,12.0935079 37.7954807,12.0935079 Z" id="Shape" fill="#201F25"></path>
                        <path d="M43.9329367,23.3783891 C44.8650109,23.0572927 49.630178,21.1182884 48.8643089,15.2525283 C48.8643089,15.2525283 60.1129055,18.1402618 64.1593279,27.6189572 L67.2644177,34.216456 L61.2274693,38.2007766 L57.8298473,32.276592 C57.8298473,32.276592 56.2413487,38.9852204 56.2413487,40.7747327 C56.2413487,40.7747327 57.3640838,46.3050611 57.1647044,47.901731 C57.1647044,47.901731 49.079441,53.6235851 43.9292514,52.4778352 C38.7787223,53.6164956 30.7011675,47.9000968 30.7011675,47.9000968 C30.501788,46.3034269 31.6245231,40.7730984 31.6245231,40.7730984 C31.6245231,38.9835861 30.0360245,32.2749577 30.0360245,32.2749577 L26.6384025,38.1991423 L20.6014541,34.216456 L23.706544,27.6189572 C27.7529663,18.1402618 39.0031972,15.2525283 39.0031972,15.2525283 C38.2358525,21.1182884 43.0008764,23.0572927 43.9329367,23.3783891 Z" id="Combined-Shape" fill="url(#linearGradient-4)"></path>
                        <polygon id="Shape" fill="url(#linearGradient-5)" points="38.5929985 30.2190614 37.0044999 30.596575 36.5142225 28.5766323 39.2761182 27.795457 41.1751258 27.795457 41.1751258 37.290495 38.5929985 37.290495"></polygon>
                        <path d="M42.6328838,32.6034436 L42.6328838,32.5772954 C42.6328838,29.9101867 44.3292434,27.674522 47.0110605,27.674522 C49.6928776,27.674522 51.3614548,29.8840385 51.3614548,32.5511473 L51.3614548,32.5772954 C51.3614548,35.2444042 49.6781693,37.4800689 46.9832781,37.4800689 C44.288387,37.4800689 42.6328838,35.2705523 42.6328838,32.6034436 Z M48.7335683,32.6034436 L48.7335683,32.5772954 C48.7335683,31.0688755 48.0324717,29.9771912 46.9832781,29.9771912 C45.9340846,29.9771912 45.2591361,31.0410931 45.2591361,32.5495131 L45.2591361,32.5756612 C45.2591361,34.0840811 45.9602327,35.1610571 47.0094263,35.1610571 C48.0586198,35.1610571 48.7352025,34.0987895 48.7352025,32.6034436 L48.7335683,32.6034436 Z" id="Shape" fill="url(#linearGradient-6)"></path>
                    </g>
                </g>
            </g>
        </g>
    </g>
</svg>