<?xml version="1.0" encoding="UTF-8"?>
<svg width="225px" height="150px" viewBox="0 0 225 150" version="1.1" xmlns="http://www.w3.org/2000/svg" xmlns:xlink="http://www.w3.org/1999/xlink">
    <!-- Generator: Sketch 49 (51002) - http://www.bohemiancoding.com/sketch -->
    <title>Kabaddi</title>
    <desc>Created with Sketch.</desc>
    <defs></defs>
    <g id="Page-1" stroke="none" stroke-width="1" fill="none" fill-rule="evenodd">
        <g id="Cricket-API" transform="translate(-507.000000, -567.000000)" fill-rule="nonzero">
            <g id="Kabaddi" transform="translate(507.000000, 567.000000)">
                <path d="M145.852326,59.661258 C145.852326,59.661258 139.409339,66.7082758 138.201279,68.2223782 C136.993219,69.73648 135.68046,76.7110143 135.68046,76.7110143 L138.603965,80.4398933 C138.603965,80.4398933 142.936874,78.933845 143.436206,78.1284714 C143.935538,77.3230984 151.087254,70.582122 151.393296,69.2693637 C151.550791,67.6974514 151.550791,66.1137333 151.393296,64.541821 L145.852326,59.661258 Z" id="Shape" fill="#D86C30"></path>
                <path d="M122.995828,81.6076851 C122.995828,81.6076851 134.4724,97.7151544 135.881803,98.9232145 C137.291206,100.131275 142.324791,105.567546 142.324791,105.567546 C142.324791,105.567546 152.391959,121.675015 154.002706,123.889792 C155.613453,126.104569 157.82823,132.7489 163.465844,133.35293 C169.103459,133.95696 163.868531,120.265611 163.465844,119.460238 C163.063158,118.654865 159.237634,112.211877 159.237634,112.211877 L144.531514,90.4667933 L139.006652,77.1781306 L136.308651,72.9499204 L122.995828,81.6076851 Z" id="Shape" fill="#DD7947"></path>
                <path d="M145.038899,80.0613677 C149.597314,89.9594081 148.622811,91.5621012 147.036226,102.346052 C147.194497,102.602104 147.233932,102.914215 147.144321,103.201586 C147.054711,103.488958 146.844865,103.723336 146.569109,103.844047 C145.642929,104.36754 144.91004,107.234669 143.967752,107.701785 C143.63755,107.86286 142.550295,105.913856 142.357006,105.559492 C144.161043,98.8024089 145.973133,91.4010266 144.233526,85.8922718 C143.742248,81.1566756 144.636213,84.9177702 145.038899,80.0613677 Z M135.68046,72.4505885 C135.68046,72.4505885 140.70599,78.1929012 141.060365,83.2264857 C141.068408,83.2184317 136.389188,75.4707393 135.68046,72.4505885 Z" id="Shape" fill="#974C02"></path>
                <path d="M134.697904,76.4774558 C133.183802,82.0103716 128.069681,83.097626 123.656234,83.1137335 C127.27236,81.5029863 131.041508,77.9512893 134.697904,76.4774558 Z" id="Shape" fill="#984B01"></path>
                <path d="M45.9538016,40.6947128 C45.9538016,40.6947128 42.4584807,53.0169269 41.2745817,53.8223003 C40.0906827,54.6276738 20.1093669,77.3794742 18.9013067,78.1848478 C17.6932465,78.9902214 0.377716923,91.4735099 0.377716923,91.4735099 C0.377716923,91.4735099 -0.427656547,93.0842571 1.38443376,92.480227 C3.19652407,91.876197 10.847572,86.641269 14.4717526,89.4600762 L13.6663792,95.5003772 C13.6663792,95.5003772 13.8677225,97.1111244 16.0824996,93.0842571 C18.2972766,89.0573897 22.3241439,80.8023115 27.1563847,79.1915643 C31.9886256,77.5808177 39.6638347,70.4532623 42.6598241,69.0841276 C45.6558134,67.7149929 47.6934082,67.5136494 48.2974383,65.7015593 C48.9014684,63.8894685 59.1699801,51.0034932 59.1699801,49.9967764 C59.1699801,48.9900595 51.3900725,45.301449 45.9538016,40.6947128 Z" id="Shape" fill="#E5844E"></path>
                <path d="M72.684147,65.2988722 C72.684147,65.2988722 57.7847378,77.5808177 56.778021,82.8157452 C56.5507824,87.868448 57.5164407,92.9036667 59.5968281,97.5138109 C59.5968281,97.5138109 68.2545931,117.245461 67.6505625,124.091136 C67.6505625,124.091136 69.8653397,126.209268 54.3619005,135.769051 C53.620957,136.22006 54.1605572,138.990545 56.3753343,138.587858 C56.3753343,138.587858 65.6371288,133.755617 67.851906,134.359647 C70.1057329,134.804504 72.400679,135.006999 74.6975806,134.963678 C75.5029542,134.963678 81.3419117,133.35293 78.5231044,129.326063 C78.5231044,129.326063 75.5029542,119.862925 75.7042978,116.440088 C75.9056407,113.01725 78.5231044,106.775606 75.1002671,95.822527 C75.1002671,95.822527 75.3016107,88.2520161 76.3083278,87.8493296 C77.3150444,87.4466425 88.1875863,83.8224623 88.1875863,83.8224623 L72.684147,65.2988722 Z" id="Shape" fill="#DD7947"></path>
                <path d="M45.6799746,41.3390116 C45.6799746,41.3390116 53.6853869,25.3442944 62.5444948,27.5832327 C71.403603,29.8221709 73.0143502,23.0489801 73.0143502,23.0489801 C73.0143502,23.0489801 89.5969899,16.9764641 97.6507246,23.2181085 C97.6507246,23.2181085 111.543417,31.8758733 114.563568,38.5202044 C114.563568,38.5202044 129.66432,52.01021 131.275067,54.2249871 C132.885814,56.4397641 141.140892,66.9096194 138.523428,72.5472333 L133.087157,78.1848478 C133.087157,78.1848478 129.140827,87.9862427 126.724707,87.3499978 C124.308586,86.7137528 115.15149,83.0251421 113.540743,81.8170821 C111.929996,80.609022 102.869545,74.1660339 102.869545,74.1660339 C102.869545,74.1660339 92.3996897,85.2399194 87.5674488,84.2332022 L71.653269,65.5002157 C71.653269,65.5002157 77.69357,57.4464809 80.9150637,56.6411075 C80.9150637,56.6411075 69.2371488,44.9631922 67.8277452,44.1578187 C66.4183415,43.3524452 63.1968478,43.755132 62.5928171,44.7618488 C61.9887871,45.7685656 59.3713235,50.8021498 59.3713235,50.8021498 L45.6799746,41.3390116 Z" id="Shape" fill="#0F6698"></path>
                <path d="M174.273956,70.5337996 L160.316834,76.9767877 C160.316834,76.9767877 146.472464,76.7110143 144.531514,87.7124159 C144.531514,87.7124159 143.935538,123.688449 141.253644,126.909943 C141.253644,126.909943 138.837524,135.22945 132.934136,137.379798 C132.934136,137.379798 118.679026,141.406665 118.155533,143.017412 C117.63204,144.628159 118.703187,146.778506 120.853534,147.58388 C123.003881,148.389253 131.86299,146.238906 133.739509,146.238906 C135.61603,146.238906 142.71137,149.726173 144.531514,149.726173 C146.351658,149.726173 154.13962,148.9208 150.112752,142.477812 C150.112752,142.477812 148.767778,134.68985 149.307379,132.27373 C149.846979,129.857609 159.237634,114.28974 159.511461,110.12596 L160.582608,95.814473 C160.582608,95.814473 164.875248,95.8627954 168.370569,95.814473 C171.86589,95.7661506 182.593464,91.2077365 182.593464,91.2077365 L174.273956,70.5337996 Z M183.535751,89.8627633 L185.814958,108.925953 L185.814958,118.856208 C185.814958,118.856208 170.947764,118.977014 172.735693,120.917964 C173.984022,122.279045 179.822979,123.938115 179.822979,123.938115 C182.027889,124.47712 184.157052,125.288745 186.161269,126.354235 C188.980076,127.964982 194.118359,130.07506 195.712998,128.230755 C196.929112,126.829405 194.384132,120.917964 194.384132,120.917964 L199.723758,84.6761577 L183.535751,89.8627633 Z" id="Shape" fill="#DF7936"></path>
                <path d="M183.57602,90.1929659 C185.99214,90.1124286 187.602887,90.1929659 190.92908,90.1929659 C188.053896,91.9728417 185.951872,93.076203 183.841793,92.4319046 C183.825686,91.3849192 183.600181,91.2077365 183.57602,90.1929659 Z" id="Shape" fill="#9B4F09"></path>
                <path d="M127.828068,45.7685656 C127.828068,45.7685656 129.672374,54.804856 137.49255,56.6411075 C137.49255,56.6411075 142.751639,59.0572279 147.157032,57.8491677 C147.157032,57.8491677 154.405393,47.9269665 152.190616,45.7685656 C149.975839,43.6101647 144.531514,38.3993984 144.531514,38.3993984 C144.531514,38.3993984 141.873781,33.4866203 137.468389,35.9027407 C133.062996,38.3188611 127.828068,45.7685656 127.828068,45.7685656 Z" id="Shape" fill="#E5844E"></path>
                <path d="M163.264501,63.2854385 L163.264501,67.3123058 C163.264501,67.3123058 152.593303,65.7015593 150.982556,65.2988722 C149.371808,64.8961857 144.789233,60.1605895 144.789233,60.1605895 C149.295805,54.0330859 151.255556,46.3990055 150.257719,38.8584613 C150.257719,38.8584613 167.001434,35.3711941 200.553293,47.7175694 C200.553293,47.7175694 221.561476,58.2921231 224.130617,70.5337996 C225.105119,75.1485895 224.404444,84.764749 214.739962,86.9070423 L182.593464,91.2077365 L174.273956,70.5337996 L175.949133,67.1109623 L163.264501,63.2854385 Z" id="Shape" fill="#C1272D"></path>
                <path d="M134.271056,40.3322947 C134.271056,40.3322947 131.049563,46.3725957 130.445532,47.3793126 C130.091168,47.975289 129.752911,49.0625431 129.06029,49.2477791 C128.577066,49.3766388 127.803907,48.8048236 127.224038,48.3860294 C125.814634,47.3793126 122.391798,43.9564753 127.224038,37.714831 C127.224038,37.714831 131.250905,29.8624396 143.130165,33.0839335 C143.130165,33.0839335 147.358375,34.4933371 148.365092,36.3054274 C149.083119,37.6758299 149.699545,39.0971089 150.209397,40.5577993 L149.830871,44.7699025 C148.494999,44.839876 147.181522,44.4058825 146.150315,43.5537886 C144.539568,42.144385 143.130165,39.7282646 141.922104,39.5269213 C140.714044,39.3255779 135.29388,38.4235596 134.271056,40.3322947 Z" id="Shape" fill="#000700"></path>
                <path d="M150.982556,65.2988722 L150.306042,75.7687276 C150.306042,75.7687276 139.030813,82.0748014 139.030813,82.0748014 C139.030813,82.0748014 127.046856,86.2385825 126.378396,86.2385825 C125.709936,86.2385825 121.288436,85.4332089 120.603869,84.6278353 C120.201181,84.1848798 118.888423,84.3620625 118.888423,84.3620625 C118.888423,84.3620625 118.08305,93.4466752 124.099189,93.8493617 C124.099189,93.8493617 135.712675,92.7459998 142.357006,90.5312232 L157.393328,87.8171147 L161.283282,84.5956204 L163.264501,66.2411595 L150.982556,65.2988722 Z" id="Shape" fill="#D86C30"></path>
                <ellipse id="Oval" fill="#E5844E" cx="148.566532" cy="42.1040323" rx="2.21491935" ry="3.3828629"></ellipse>
                <ellipse id="Oval" fill="#DD7947" transform="translate(66.530444, 22.449798) rotate(-34.490000) translate(-66.530444, -22.449798) " cx="66.5304435" cy="22.4497984" rx="6.37862903" ry="7.98931452"></ellipse>
                <ellipse id="Oval" fill="#E5844E" cx="65.4114919" cy="14.9951613" rx="9.69677419" ry="12.9181452"></ellipse>
                <path d="M68.9311065,85.4573704 C64.6465198,87.0681169 60.8129419,86.0855613 57.29346,83.4197752 C61.1350911,84.3217935 65.1136361,84.4103849 68.9311065,85.4573704 Z" id="Shape" fill="#984B01"></path>
                <path d="M160.880595,96.0399774 C156.853728,97.1997151 153.455052,95.8547419 150.410741,93.2292242 C154.026867,93.5594274 157.248361,95.605076 160.880595,96.0399774 Z" id="Shape" fill="#9D5005"></path>
                <path d="M74.6331508,35.2262269 C82.6868855,37.956443 90.9500171,39.534975 99.4950296,39.0517509 C90.4829008,42.692039 82.1714462,41.596731 74.6331508,35.2262269 Z M78.9982748,51.4464486 L79.1996183,50.6410751 C84.0318593,49.0947581 89.1218196,48.1283099 93.6399647,45.5511148 C89.9433006,50.6249676 84.8775012,52.0826936 78.9982748,51.4464486 Z" id="Shape" fill="#06557C"></path>
                <path d="M206.569432,55.7713041 C199.015029,51.8330278 191.114315,48.9981132 182.593464,48.1605249 C192.056603,45.969909 200.102283,48.3296532 206.569432,55.7713041 Z M176.448465,67.6988855 L176.649808,66.8935119 C181.482049,65.3471946 186.572009,64.3807464 191.090154,61.8035516 C187.39349,66.8774044 182.327691,68.3431839 176.448465,67.6988855 Z" id="Shape" fill="#B21924"></path>
                <path d="M77.5808177,12.3455667 C74.5767744,-0.60483871 63.6156417,1.6018846 63.6156417,1.6018846 C63.6156417,1.6018846 62.4961724,1.22335906 64.3243706,0.345501986 C60.998178,-0.500140159 58.9283681,2.52806408 58.9283681,2.52806408 C58.9283681,2.52806408 58.1874246,2.55222529 58.1874246,1.27168147 C57.3820511,1.38443376 58.1874246,3.61531827 58.1874246,3.61531827 C58.1874246,3.61531827 55.8437877,3.67169441 55.2961338,3.29316888 C54.9659306,4.16297223 57.1565465,3.9938438 57.776684,4.2274021 C46.8074974,4.9925069 56.1659371,19.9885609 56.1659371,18.7966081 C54.5551902,11.757644 58.4531978,9.19655643 58.4531978,9.19655643 C58.4531978,9.19655643 61.811605,12.5388563 64.4854452,12.2811368 C61.6505304,11.1858289 62.1981847,10.6703898 62.1981847,10.6703898 C65.2697014,10.8188707 68.3328302,10.2393598 71.1378296,8.97910554 C72.9982427,9.0596429 74.5203986,13.0623491 74.9553,18.0395571 C77.017056,16.5496162 76.4855099,12.4019428 76.4855099,12.4019428 C76.4855099,12.4019428 77.9593433,13.6019493 77.5727637,12.4019428 L77.5808177,12.3455667 Z" id="Shape" fill="#161719"></path>
                <path d="M96.1527296,51.9699414 C96.1527296,51.9699414 104.472238,63.8733611 114.67632,69.0841276 C114.67632,69.0841276 126.491148,83.9593754 127.562295,86.3754962 C128.633442,88.7916163 131.049563,93.4547286 131.854935,95.822527 C132.660309,98.1903248 133.465683,94.2923171 133.465683,94.2923171 C133.465683,94.2923171 136.95295,100.83195 137.758323,102.861491 C138.563697,104.891032 141.865728,98.1822708 139.006652,89.8627633 L133.087157,78.1848478 C133.087157,78.1848478 129.197203,69.776749 127.85223,69.0841276 C126.507256,68.3915063 123.285762,56.3109044 121.409242,54.9659306 C119.532722,53.620957 109.32864,42.3457284 109.32864,42.3457284 L96.1527296,51.9699414 Z" id="Shape" fill="#E5844E"></path>
            </g>
        </g>
    </g>
</svg>