<svg xmlns="http://www.w3.org/2000/svg" width="27" height="30" viewBox="0 0 27 30">
  <g fill="#CDCDCD">
    <path d="M26.25,30 L9.75,30 C7.82,30 6.25,28.4295 6.25,26.5 L6.25,3.5 C6.25,2.1215 5.1285,1 3.75,1 C3.474,1 3.25,0.7765 3.25,0.5 C3.25,0.2235 3.474,0 3.75,0 L23.25,0 C25.1795,0 26.75,1.5705 26.75,3.5 L26.75,29.5 C26.75,29.7765 26.526,30 26.25,30 Z M6.1975,1 C6.8465,1.6355 7.25,2.5215 7.25,3.5 L7.25,26.5 C7.25,27.8785 8.3715,29 9.75,29 L25.75,29 L25.75,3.5 C25.75,2.1215 24.6285,1 23.25,1 L6.1975,1 Z"/>
    <path d="M6.75 27L3.75 27C1.82 27 .25 25.4295.25 23.5L.25 3.5C.25 1.5705 1.82 0 3.75 0L10.25 0C10.526 0 10.75.2235 10.75.5 10.75.7765 10.526 1 10.25 1L3.75 1C2.3715 1 1.25 2.1215 1.25 3.5L1.25 23.5C1.25 24.8785 2.3715 26 3.75 26L6.75 26C7.026 26 7.25 26.2235 7.25 26.5 7.25 26.7765 7.026 27 6.75 27zM23.25 23L9.75 23C9.474 23 9.25 22.7765 9.25 22.5 9.25 22.2235 9.474 22 9.75 22L23.25 22C23.526 22 23.75 22.2235 23.75 22.5 23.75 22.7765 23.526 23 23.25 23zM23.25 20L9.75 20C9.474 20 9.25 19.7765 9.25 19.5 9.25 19.2235 9.474 19 9.75 19L23.25 19C23.526 19 23.75 19.2235 23.75 19.5 23.75 19.7765 23.526 20 23.25 20zM23.25 15L9.75 15C9.474 15 9.25 14.7765 9.25 14.5 9.25 14.2235 9.474 14 9.75 14L23.25 14C23.526 14 23.75 14.2235 23.75 14.5 23.75 14.7765 23.526 15 23.25 15zM23.25 13L9.75 13C9.474 13 9.25 12.7765 9.25 12.5 9.25 12.2235 9.474 12 9.75 12L23.25 12C23.526 12 23.75 12.2235 23.75 12.5 23.75 12.7765 23.526 13 23.25 13z"/>
    <path d="M23.25 11L9.75 11C9.474 11 9.25 10.7765 9.25 10.5 9.25 10.2235 9.474 10 9.75 10L23.25 10C23.526 10 23.75 10.2235 23.75 10.5 23.75 10.7765 23.526 11 23.25 11zM23.25 9L16.75 9C16.474 9 16.25 8.7765 16.25 8.5 16.25 8.2235 16.474 8 16.75 8L23.25 8C23.526 8 23.75 8.2235 23.75 8.5 23.75 8.7765 23.526 9 23.25 9zM23.25 7L16.75 7C16.474 7 16.25 6.7765 16.25 6.5 16.25 6.2235 16.474 6 16.75 6L23.25 6C23.526 6 23.75 6.2235 23.75 6.5 23.75 6.7765 23.526 7 23.25 7zM23.25 4L16.75 4C16.474 4 16.25 3.7765 16.25 3.5 16.25 3.2235 16.474 3 16.75 3L23.25 3C23.526 3 23.75 3.2235 23.75 3.5 23.75 3.7765 23.526 4 23.25 4zM23.25 25L9.75 25C9.474 25 9.25 24.7765 9.25 24.5 9.25 24.2235 9.474 24 9.75 24L23.25 24C23.526 24 23.75 24.2235 23.75 24.5 23.75 24.7765 23.526 25 23.25 25zM14.75 9L9.75 9C9.474 9 9.25 8.7765 9.25 8.5L9.25 3.5C9.25 3.2235 9.474 3 9.75 3L14.75 3C15.026 3 15.25 3.2235 15.25 3.5L15.25 8.5C15.25 8.7765 15.026 9 14.75 9zM10.25 8L14.25 8 14.25 4 10.25 4 10.25 8z"/>
  </g>
</svg>
