<?xml version="1.0" encoding="UTF-8"?>
<svg width="249px" height="350px" viewBox="0 0 249 350" version="1.1" xmlns="http://www.w3.org/2000/svg" xmlns:xlink="http://www.w3.org/1999/xlink">
    <!-- Generator: Sketch 49 (51002) - http://www.bohemiancoding.com/sketch -->
    <title>Group</title>
    <desc>Created with Sketch.</desc>
    <defs></defs>
    <g id="Page-1" stroke="none" stroke-width="1" fill="none" fill-rule="evenodd">
        <g id="Featured-page" transform="translate(-891.000000, -181.000000)">
            <g id="Group" transform="translate(891.000000, 181.000000)">
                <g id="Keeper" transform="translate(127.500000, 172.000000) scale(-1, 1) translate(-127.500000, -172.000000) translate(6.000000, 0.000000)">
                    <polygon id="Fill-3" fill="#031B42" points="129.537367 87.7298417 205.960892 23.6654804 216.725979 37.2176496 136.068258 104.626335"></polygon>
                    <polygon id="Fill-5" fill="#031B42" points="18.683274 323.60952 47.1065657 273.049652 91.4529297 194.30605 108.362989 203.987004 36.4976669 328.388111 27.4762133 330.071174 21.917724 324.639744"></polygon>
                    <path d="M24.3856939,324.356071 C24.0059839,322.509967 25.3986509,317.235557 18.913822,319.355248 C18.913822,319.355248 12.0528539,321.982163 11.4731712,331.666642 L4.06227824,331.666642 C4.06227824,331.666642 -2.19162981,335.128844 0.819863788,341.253067 L4.17773866,343.772242 L34.6342947,343.772242 L36.1209964,341.168328 L36.1209964,334.308084 L36.1209964,326.535079 L26.579442,326.423707 C26.579442,326.423707 24.6785111,325.779689 24.3856939,324.356071" id="Fill-7" fill="#FDAD7C"></path>
                    <polygon id="Fill-9" fill="#203759" points="1.2455516 341.281139 36.1209964 341.281139 35.0466062 343.772242 4.48656933 343.772242"></polygon>
                    <polygon id="Fill-11" fill="#F05C58" points="14.9466192 327.392936 21.1743772 327.392936 21.1743772 326.33452 14.9466192 326.33452"></polygon>
                    <polygon id="Fill-13" fill="#F05C58" points="14.9466192 328.638488 21.1743772 328.638488 21.1743772 327.580071 14.9466192 327.580071"></polygon>
                    <polygon id="Fill-14" fill="#031B42" points="212.989324 323.60952 184.566032 273.049652 140.219668 194.30605 123.309609 203.987004 195.174931 328.388111 204.196385 330.071174 209.754874 324.639744"></polygon>
                    <path d="M206.923933,324.356071 C207.309295,322.509967 205.895899,317.235557 212.477252,319.355248 C212.477252,319.355248 219.440342,321.982163 220.028653,331.666642 L227.549854,331.666642 C227.549854,331.666642 233.896849,335.128844 230.840531,341.253067 L227.432675,343.772242 L196.522787,343.772242 L195.036909,341.159854 L194.30605,334.308084 L194.30605,326.535079 L204.343579,326.423707 C204.343579,326.423707 206.626758,325.779689 206.923933,324.356071" id="Fill-15" fill="#FDAD7C"></path>
                    <polygon id="Fill-16" fill="#203759" points="230.427046 341.281139 194.30605 341.281139 195.579307 343.772242 227.085667 343.772242"></polygon>
                    <polygon id="Fill-17" fill="#F05C58" points="209.252669 327.392936 215.480427 327.392936 215.480427 326.33452 209.252669 326.33452"></polygon>
                    <polygon id="Fill-18" fill="#F05C58" points="209.252669 328.638488 215.480427 328.638488 215.480427 327.580071 209.252669 327.580071"></polygon>
                    <path d="M151.16203,138.256228 L159.381975,140.614146 C159.381975,140.614146 162.977394,143.335012 158.182719,146.418826 C158.182719,146.418826 159.553297,153.130876 154.073334,151.497611 C154.073334,151.497611 152.396489,158.754083 146.749898,154.182431 L144.483986,143.335012 L146.749898,139.88825 L151.16203,138.256228 Z" id="Fill-19" fill="#D4D4D6"></path>
                    <path d="M229.845686,8.71886121 C229.845686,8.71886121 233.613403,9.90004598 234.163701,13.0776695 L227.640716,17.4377224 L222.953737,16.0748169 L223.413368,13.0776695 L229.845686,8.71886121 Z" id="Fill-20" fill="#152C49"></path>
                    <path d="M230.427046,9.00071435 L236.956531,4.98662094 C236.956531,4.98662094 242.771053,4.64238738 240.58624,10.033415 C240.58624,10.033415 246.103798,13.4733929 240.033486,16.570316 C240.033486,16.570316 240.975539,21.158525 236.373831,22.4199288 L230.427046,20.0114728 L230.427046,9.00071435 Z" id="Fill-21" fill="#D4D6D3"></path>
                    <path d="M141.971876,187.015892 C142.485751,198.412064 133.508186,208.15409 122.021052,208.663897 L109.242516,209.231828 C97.7541623,209.741635 87.9355986,200.835159 87.4205024,189.438986 L83.473059,101.95208 C82.9579628,90.5559073 91.9367488,80.8138812 103.423882,80.3040747 L116.202418,79.736143 C127.689552,79.2263366 137.509336,88.1328129 138.023212,99.5289854 L141.971876,187.015892 Z" id="Fill-22" fill="#2697D8"></path>
                    <path d="M204.270463,25.1085089 L205.044371,22.4429925 C205.160516,22.0425565 205.388067,21.6859372 205.700948,21.4169513 L230.012093,0.513947685 C230.012093,0.513947685 233.010542,-1.02572272 234.163701,1.22475205 L215.562647,17.2896609 L226.322696,31.3012701 L218.312214,38.1208538 C217.83578,38.5273754 217.207647,38.6929052 216.599661,38.5748435 L215.346949,38.3302002 L204.270463,25.1085089 Z" id="Fill-23" fill="#D4D4D6"></path>
                    <path d="M235.130188,1.2455516 C235.130188,1.2455516 235.719916,3.14904238 235.130188,4.9067595 L224.859693,13.7122115 L236.428561,17.528831 C236.428561,17.528831 239.044722,28.4004137 226.484479,31.13879 L214.234875,16.1915684 L231.824797,1.2455516 L235.130188,1.2455516 Z" id="Fill-24" fill="#A5A5A5"></path>
                    <path d="M122.612266,149.466192 L82.9484953,149.466192 C79.115497,149.466192 75.9786477,146.338024 75.9786477,142.515633 L75.9786477,140.22458 C75.9786477,136.40219 79.115497,133.274021 82.9484953,133.274021 L122.612266,133.274021 C122.996759,133.274021 123.309609,133.584814 123.309609,133.969434 L123.309609,148.770779 C123.309609,149.1554 122.996759,149.466192 122.612266,149.466192" id="Fill-25" fill="#031B42"></path>
                    <path d="M75.9802801,137.723115 L78.6387145,97.5256226 C78.8947644,93.6405119 82.1974532,90.6772508 85.9768432,90.9416761 L88.2411733,91.0993609 C92.0205633,91.3637861 94.9031889,94.758861 94.6459591,98.6439717 L91.9887046,138.841464 C91.9627456,139.232037 91.6335387,139.526786 91.2547737,139.500101 L76.6209946,138.477576 C76.2410497,138.450891 75.9543211,138.113688 75.9802801,137.723115" id="Fill-26" fill="#031B42"></path>
                    <path d="M118.305438,78.4697509 C118.644405,82.8560514 115.019793,86.7434118 110.210635,87.1536229 C105.401477,87.562548 101.228646,84.3400123 100.88968,79.9537118 L118.305438,78.4697509 Z" id="Fill-27" fill="#DCAA89"></path>
                    <polygon id="Fill-28" fill="#DCAA89" points="104.626335 80.9608541 113.345196 80.9608541 113.345196 73.4875445 104.626335 73.4875445"></polygon>
                    <path d="M127.046263,59.8989676 C127.046263,68.0581575 120.233583,74.7330961 111.906023,74.7330961 L111.047713,74.7330961 C102.721376,74.7330961 95.9074733,68.0581575 95.9074733,59.8989676 L95.9074733,50.9551249 C95.9074733,42.795935 102.721376,36.1209964 111.047713,36.1209964 L111.906023,36.1209964 C120.233583,36.1209964 127.046263,42.795935 127.046263,50.9551249 L127.046263,59.8989676 Z" id="Fill-29" fill="#DAAC8A"></path>
                    <path d="M93.4163701,44.8824025 L93.9819745,59.5221601 C93.9819745,59.5221601 96.3607715,62.9193639 98.3985765,59.5221601 L97.6060321,43.594306 L93.4163701,44.8824025 Z" id="Fill-30" fill="#222323"></path>
                    <path d="M135.765125,41.9387722 C135.765125,42.8495286 135.134542,43.594306 134.363429,43.594306 L109.764685,43.594306 C108.993572,43.594306 108.362989,42.8495286 108.362989,41.9387722 L108.362989,41.5146037 C108.362989,40.6024287 108.993572,39.8576512 109.764685,39.8576512 L134.363429,39.8576512 C135.134542,39.8576512 135.765125,40.6024287 135.765125,41.5146037 L135.765125,41.9387722 Z" id="Fill-31" fill="#696969"></path>
                    <path d="M92.1708185,42.6972735 C92.1708185,34.9304061 95.7413051,28.1242616 101.095209,24.3391116 C103.935286,22.3316675 107.276911,21.1743772 110.853484,21.1743772 C121.172957,21.1743772 129.537367,30.809863 129.537367,42.6972735 L92.1708185,44.8398577 L92.1708185,42.6972735 Z" id="Fill-32" fill="#696969"></path>
                    <path d="M109.562268,43.6307572 C109.562268,43.6307572 114.765984,32.8830593 104.285331,22.4199288 C104.285331,22.4199288 91.1475937,27.6726192 92.2347521,44.8398577 L109.562268,43.6307572 Z" id="Fill-33" fill="#363636"></path>
                    <path d="M97.1530249,46.0854093 L105.871886,46.0854093" id="Stroke-34" stroke="#D4D4D4" stroke-width="1.167"></path>
                    <path d="M99.6441281,51.0676157 L108.362989,51.0676157" id="Stroke-35" stroke="#D4D4D4" stroke-width="1.167"></path>
                    <path d="M100.88968,56.0498221 L108.362989,56.0498221" id="Stroke-36" stroke="#D4D4D4" stroke-width="1.167"></path>
                    <path d="M123.309609,66.3087199 C123.309609,66.8315812 122.989574,67.2597865 122.598795,67.2597865 L117.792664,67.2597865 C117.401885,67.2597865 117.081851,66.8315812 117.081851,66.3087199 L117.081851,65.7197498 C117.081851,65.1968886 117.401885,64.7686833 117.792664,64.7686833 L122.598795,64.7686833 C122.989574,64.7686833 123.309609,65.1968886 123.309609,65.7197498 L123.309609,66.3087199 Z" id="Fill-37" fill="#E48C74"></path>
                    <path d="M105.871886,67.2597865 L127.046263,67.2597865" id="Stroke-38" stroke="#D4D4D4" stroke-width="1.167"></path>
                    <path d="M119.572954,58.5409253 L119.572954,79.7153025" id="Stroke-39" stroke="#D4D4D4" stroke-width="1.167"></path>
                    <path d="M124.55516,53.6317651 C124.55516,55.646185 123.434248,57.2953737 122.06462,57.2953737 C120.693866,57.2953737 119.572954,55.646185 119.572954,53.6317651 L119.572954,48.5034662 C119.572954,46.4890463 120.693866,44.8398577 122.06462,44.8398577 C123.434248,44.8398577 124.55516,46.4890463 124.55516,48.5034662 L124.55516,53.6317651 Z" id="Fill-40" fill="#E59175"></path>
                    <path d="M107.118244,44.0190391 C107.118244,44.4188612 107.083823,44.8398577 107.464828,44.8398577 L110.929486,44.8398577 C111.310492,44.8398577 111.522953,45.0565836 111.403073,45.4364769 L109.762731,50.4884342 C109.641664,50.8683274 109.855312,51.0676157 110.236317,51.0676157 L116.472464,51.0676157 C116.85347,51.0676157 117.349608,50.8683274 117.576312,50.5469751 L120.333558,46.6483986 C120.559075,46.3270463 121.0564,46.0854093 121.437406,46.0854093 L122.014255,46.0854093 C122.396448,46.0854093 122.853417,46.3855872 123.031457,46.7393238 L124.578031,50.1197509 C124.756071,50.4734875 125.21304,51.0676157 125.594046,51.0676157 L130.328722,51.0676157 C130.709728,51.0676157 130.886581,50.4734875 130.72041,50.1135231 L127.975034,44.2008897 C127.808863,43.8409253 127.361389,43.594306 126.980384,43.594306 L107.464828,43.594306 C107.083823,43.594306 107.118244,43.7699288 107.118244,44.1697509 L107.118244,44.0190391 Z" id="Fill-41" fill="#232523"></path>
                    <path d="M239.031028,15.386714 C239.473043,16.8984354 238.600033,18.4985042 237.090326,18.9414681 L225.624881,22.3048029 C224.115174,22.7477667 222.519758,21.8728825 222.077743,20.359934 L221.823064,19.4887309 C221.38105,17.9770094 222.254059,16.3769406 223.763766,15.9339768 L235.229212,12.570642 C236.738919,12.1276781 238.334335,13.0025624 238.776349,14.5155109 L239.031028,15.386714 Z" id="Fill-42" fill="#A5A5A5"></path>
                    <path d="M124.112995,153.460042 L135.013029,154.448399 L135.754651,136.158878 C135.754651,133.821082 137.434455,134.540783 137.434455,134.540783 L161.734331,136.158878 C162.43857,134.540783 160.997533,132.741531 160.062968,132.741531 C151.395036,132.741531 124.527821,130.788233 124.527821,130.788233 C122.51278,130.677321 120.818505,132.316365 120.818505,134.379343 L120.818505,149.870165 C120.818505,151.768006 122.260749,153.338038 124.112995,153.460042" id="Fill-48" fill="#D4D4D6"></path>
                    <path d="M120.818505,137.010676 L127.046263,137.010676" id="Stroke-49" stroke="#283F5F" stroke-width="1.167"></path>
                    <path d="M206.761566,27.4021352 L210.498221,23.6654804" id="Stroke-50" stroke="#283F5F" stroke-width="1.167"></path>
                    <path d="M134.519573,154.572719 C157.576545,160.711277 152.418203,139.643231 152.418203,139.643231 C152.418203,139.643231 157.97657,139.900551 159.805077,139.643231 C162.404002,139.278283 161.878044,136.212715 161.878044,136.212715 L136.556735,134.522818 C135.740636,134.468385 135.041827,135.105499 135.019604,135.925705 L134.519573,154.572719 Z" id="Fill-51" fill="#A5A5A5"></path>
                    <path d="M95.9074733,41.3932732 L109.080084,78.4697509 L119.966288,78.4697509 C123.876831,78.4697509 127.046263,75.349406 127.046263,71.500901 L127.046263,57.5655887 L110.054081,57.5655887 L105.215633,41.1032028 L95.9074733,41.3932732 Z" id="Stroke-52" stroke="#D4D4D4" stroke-width="1.167"></path>
                    <path d="M96.6321304,41.4650779 C96.6321304,41.665515 96.4697854,41.826953 96.2702553,41.826953 C96.0698183,41.826953 95.9074733,41.665515 95.9074733,41.4650779 C95.9074733,41.2646408 96.0698183,41.1032028 96.2702553,41.1032028 C96.4697854,41.1032028 96.6321304,41.2646408 96.6321304,41.4650779" id="Fill-53" fill="#333333"></path>
                    <path d="M105.350992,41.4650779 C105.350992,41.665515 105.188647,41.826953 104.989117,41.826953 C104.788679,41.826953 104.626335,41.665515 104.626335,41.4650779 C104.626335,41.2646408 104.788679,41.1032028 104.989117,41.1032028 C105.188647,41.1032028 105.350992,41.2646408 105.350992,41.4650779" id="Fill-54" fill="#333333"></path>
                </g>
                <g id="stump" transform="translate(0.000000, 210.000000)" fill-rule="nonzero">
                    <path d="M64.1960784,136.294118 C64.1960784,137.941176 74.7647059,139.176471 87.9411765,139.176471 C101.117647,139.176471 111.686275,137.941176 111.686275,136.294118 C111.686275,134.647059 101.117647,133.411765 87.9411765,133.411765 C74.7647059,133.411765 64.1960784,134.647059 64.1960784,136.294118 Z" id="Fill-1" fill="#D5D5D5"></path>
                    <path d="M105.921569,136.156863 L105.921569,8.78431373 C105.921569,5.62745098 104.411765,3.15686275 102.490196,3.15686275 C100.568627,3.15686275 99.0588235,5.76470588 99.0588235,8.78431373 L99.0588235,136.156863" id="Fill-55" fill="#898F97"></path>
                    <path d="M87.3921569,136.156863 L87.3921569,8.78431373 C87.3921569,5.62745098 85.8823529,3.15686275 83.9607843,3.15686275 C82.0392157,3.15686275 80.5294118,5.76470588 80.5294118,8.78431373 L80.5294118,136.156863" id="Fill-56" fill="#898F97"></path>
                    <polygon id="Fill-57" fill="#F06A08" points="104.411765 3.98039216 99.4705882 3.98039216 99.4705882 2.60784314 104.411765 2.60784314"></polygon>
                    <path d="M93.9803922,5.35294118 C93.9803922,5.76470588 94.3921569,6.17647059 94.8039216,6.17647059 L97.6862745,6.17647059 C98.0980392,6.17647059 98.5098039,5.76470588 98.5098039,5.35294118 L98.5098039,1.92156863 C98.5098039,1.50980392 98.0980392,1.09803922 97.6862745,1.09803922 L94.8039216,1.09803922 C94.3921569,1.09803922 93.9803922,1.50980392 93.9803922,1.92156863 L93.9803922,5.35294118 Z" id="Fill-58" fill="#F06A08"></path>
                    <path d="M98.372549,5.76470588 C98.372549,6.17647059 98.6470588,6.58823529 99.0588235,6.58823529 C99.4705882,6.58823529 99.745098,6.17647059 99.745098,5.76470588 L99.745098,1.37254902 C99.745098,0.960784314 99.4705882,0.549019608 99.0588235,0.549019608 C98.6470588,0.549019608 98.372549,0.960784314 98.372549,1.37254902 L98.372549,5.76470588 Z" id="Fill-59" fill="#E0610A"></path>
                    <polygon id="Fill-60" fill="#F06A08" points="87.3921569 3.98039216 82.4509804 3.98039216 82.4509804 2.60784314 87.3921569 2.60784314"></polygon>
                    <path d="M92.745098,5.35294118 C92.745098,5.76470588 92.3333333,6.17647059 91.9215686,6.17647059 L89.0392157,6.17647059 C88.627451,6.17647059 88.2156863,5.76470588 88.2156863,5.35294118 L88.2156863,1.92156863 C88.2156863,1.50980392 88.627451,1.09803922 89.0392157,1.09803922 L91.9215686,1.09803922 C92.3333333,1.09803922 92.745098,1.50980392 92.745098,1.92156863 L92.745098,5.35294118 Z" id="Fill-61" fill="#F06A08"></path>
                    <path d="M88.4901961,5.76470588 C88.4901961,6.17647059 88.2156863,6.58823529 87.8039216,6.58823529 C87.3921569,6.58823529 87.1176471,6.17647059 87.1176471,5.76470588 L87.1176471,1.37254902 C87.1176471,0.960784314 87.3921569,0.549019608 87.8039216,0.549019608 C88.2156863,0.549019608 88.4901961,0.960784314 88.4901961,1.37254902 L88.4901961,5.76470588 Z" id="Fill-62" fill="#E0610A"></path>
                    <path d="M93.9803922,5.76470588 C93.9803922,6.17647059 93.7058824,6.58823529 93.2941176,6.58823529 C92.8823529,6.58823529 92.6078431,6.17647059 92.6078431,5.76470588 L92.6078431,1.37254902 C92.6078431,0.960784314 92.8823529,0.549019608 93.2941176,0.549019608 C93.7058824,0.549019608 93.9803922,0.960784314 93.9803922,1.37254902 L93.9803922,5.76470588 Z" id="Fill-63" fill="#E0610A"></path>
                    <polygon id="Fill-64" fill="#F06A08" points="79.8431373 9.33333333 84.5098039 8.09803922 84.0980392 6.7254902 79.4313725 8.09803922"></polygon>
                    <path d="M74.9019608,12.2156863 C75.0392157,12.627451 75.4509804,12.9019608 75.8627451,12.7647059 L78.6078431,11.9411765 C79.0196078,11.8039216 79.2941176,11.3921569 79.1568627,10.9803922 L78.1960784,7.68627451 C78.0588235,7.2745098 77.6470588,7 77.2352941,7.1372549 L74.4901961,7.96078431 C74.0784314,8.09803922 73.8039216,8.50980392 73.9411765,8.92156863 L74.9019608,12.2156863 Z" id="Fill-65" fill="#F06A08"></path>
                    <path d="M79.2941176,11.5294118 C79.4313725,11.9411765 79.8431373,12.2156863 80.1176471,12.0784314 C80.5294118,11.9411765 80.6666667,11.5294118 80.5294118,11.1176471 L79.2941176,6.8627451 C79.1568627,6.45098039 78.745098,6.17647059 78.4705882,6.31372549 C78.0588235,6.45098039 77.9215686,6.8627451 78.0588235,7.2745098 L79.2941176,11.5294118 Z" id="Fill-66" fill="#E0610A"></path>
                    <polygon id="Fill-67" fill="#F06A08" points="68.1764706 12.7647059 63.5098039 14.1372549 63.0980392 12.7647059 67.7647059 11.3921569"></polygon>
                    <path d="M73.8039216,12.4901961 C73.9411765,12.9019608 73.6666667,13.3137255 73.254902,13.4509804 L70.5098039,14.2745098 C70.0980392,14.4117647 69.6862745,14.1372549 69.5490196,13.7254902 L68.5882353,10.4313725 C68.4509804,10.0196078 68.7254902,9.60784314 69.1372549,9.47058824 L71.8823529,8.64705882 C72.2941176,8.50980392 72.7058824,8.78431373 72.8431373,9.19607843 L73.8039216,12.4901961 Z" id="Fill-68" fill="#F06A08"></path>
                    <path d="M69.8235294,14.2745098 C69.9607843,14.6862745 69.6862745,15.0980392 69.4117647,15.2352941 C69,15.372549 68.5882353,15.0980392 68.5882353,14.6862745 L67.3529412,10.4313725 C67.2156863,10.0196078 67.4901961,9.60784314 67.7647059,9.47058824 C68.1764706,9.33333333 68.5882353,9.60784314 68.5882353,10.0196078 L69.8235294,14.2745098 Z" id="Fill-69" fill="#E0610A"></path>
                    <path d="M75.0392157,12.7647059 C75.1764706,13.1764706 74.9019608,13.5882353 74.627451,13.7254902 C74.2156863,13.8627451 73.8039216,13.5882353 73.8039216,13.1764706 L72.5686275,8.92156863 C72.4313725,8.50980392 72.7058824,8.09803922 72.9803922,7.96078431 C73.3921569,7.82352941 73.8039216,8.09803922 73.8039216,8.50980392 L75.0392157,12.7647059 Z" id="Fill-70" fill="#E0610A"></path>
                    <path d="M76.4117647,135.333333 L61.8627451,8.78431373 C61.4509804,5.62745098 59.6666667,3.29411765 57.745098,3.56862745 C55.8235294,3.84313725 54.5882353,6.45098039 55,9.60784314 L69.5490196,136.156863" id="Fill-73" fill="#898F97"></path>
                    <path d="M53.7647059,39.5294118 C53.7647059,45.0196078 58.1568627,49.4117647 63.6470588,49.4117647 C69.1372549,49.4117647 73.5294118,45.0196078 73.5294118,39.5294118 C73.5294118,34.0392157 69.1372549,29.6470588 63.6470588,29.6470588 C58.1568627,29.6470588 53.7647059,34.0392157 53.7647059,39.5294118" id="Fill-75" fill="#FF931E"></path>
                    <path d="M70.6470588,32.6666667 C70.6470588,32.6666667 70.7843137,32.8039216 70.7843137,32.8039216 C69.4117647,35.4117647 65.1568627,42.1372549 56.7843137,46.6666667 C56.7843137,46.6666667 56.6470588,46.5294118 56.6470588,46.5294118 C65.1568627,42 69.2745098,35.2745098 70.6470588,32.6666667" id="Fill-76" fill="#231F20"></path>
                    <path d="M58.0196078,46.6666667 C58.2941176,46.5294118 58.4313725,46.3921569 58.7058824,46.254902 C58.8431373,46.254902 58.8431373,46.254902 58.9803922,46.254902 C58.9803922,46.3921569 58.9803922,46.3921569 58.9803922,46.5294118 C58.7058824,46.6666667 58.5686275,46.8039216 58.2941176,46.9411765 C58.2941176,46.9411765 58.2941176,46.9411765 58.1568627,46.9411765 C58.1568627,46.9411765 58.0196078,46.9411765 58.0196078,46.8039216 C57.8823529,46.8039216 57.8823529,46.8039216 58.0196078,46.6666667 M63.6470588,42.6862745 C63.7843137,42.6862745 63.7843137,42.6862745 63.9215686,42.6862745 C63.9215686,42.8235294 63.9215686,42.8235294 63.9215686,42.9607843 C63.7843137,43.0980392 63.5098039,43.2352941 63.372549,43.5098039 C63.372549,43.5098039 63.372549,43.5098039 63.2352941,43.5098039 C63.2352941,43.5098039 63.0980392,43.5098039 63.0980392,43.5098039 C63.0980392,43.372549 63.0980392,43.372549 63.0980392,43.2352941 C63.2352941,43.0980392 63.372549,42.9607843 63.6470588,42.6862745 M59.254902,45.9803922 C59.5294118,45.8431373 59.6666667,45.7058824 59.9411765,45.5686275 C60.0784314,45.5686275 60.0784314,45.5686275 60.2156863,45.5686275 C60.2156863,45.7058824 60.2156863,45.7058824 60.2156863,45.8431373 C59.9411765,45.9803922 59.8039216,46.1176471 59.5294118,46.254902 C59.5294118,46.254902 59.5294118,46.254902 59.3921569,46.254902 C59.3921569,46.254902 59.254902,46.254902 59.254902,46.1176471 C59.254902,46.1176471 59.254902,45.9803922 59.254902,45.9803922 M57.3333333,47.0784314 C57.4705882,47.0784314 57.4705882,47.0784314 57.6078431,47.0784314 C57.6078431,47.0784314 57.6078431,47.2156863 57.6078431,47.2156863 C57.4705882,47.2156863 57.3333333,47.2156863 57.3333333,47.0784314 C57.3333333,47.0784314 57.3333333,47.0784314 57.3333333,47.0784314 M69.6862745,35.9607843 C69.6862745,35.8235294 69.8235294,35.8235294 69.9607843,35.9607843 C70.0980392,35.9607843 70.0980392,36.0980392 69.9607843,36.2352941 C69.8235294,36.5098039 69.6862745,36.6470588 69.5490196,36.9215686 C69.5490196,36.9215686 69.4117647,37.0588235 69.4117647,37.0588235 C69.4117647,37.0588235 69.4117647,37.0588235 69.2745098,37.0588235 C69.1372549,37.0588235 69.1372549,36.9215686 69.2745098,36.7843137 C69.4117647,36.372549 69.5490196,36.0980392 69.6862745,35.9607843 M61.1764706,44.6078431 C61.3137255,44.6078431 61.3137255,44.6078431 61.4509804,44.6078431 C61.4509804,44.745098 61.4509804,44.745098 61.4509804,44.8823529 C61.3137255,45.0196078 61.0392157,45.1568627 60.7647059,45.2941176 C60.7647059,45.2941176 60.7647059,45.2941176 60.627451,45.2941176 C60.627451,45.2941176 60.4901961,45.2941176 60.4901961,45.1568627 C60.4901961,45.0196078 60.4901961,45.0196078 60.4901961,44.8823529 C60.7647059,44.8823529 61.0392157,44.745098 61.1764706,44.6078431 M62.4117647,43.7843137 C62.5490196,43.7843137 62.5490196,43.7843137 62.6862745,43.7843137 C62.8235294,43.7843137 62.6862745,43.9215686 62.6862745,44.0588235 C62.5490196,44.1960784 62.2745098,44.3333333 62.1372549,44.4705882 C62.1372549,44.4705882 62.1372549,44.4705882 62,44.4705882 C62,44.4705882 61.8627451,44.4705882 61.8627451,44.4705882 C61.8627451,44.3333333 61.8627451,44.3333333 61.8627451,44.1960784 C62,44.0588235 62.2745098,43.9215686 62.4117647,43.7843137 M64.745098,41.7254902 C64.745098,41.7254902 64.8823529,41.7254902 65.0196078,41.7254902 C65.0196078,41.7254902 65.0196078,41.8627451 65.0196078,42 C64.8823529,42.1372549 64.6078431,42.4117647 64.4705882,42.5490196 C64.4705882,42.5490196 64.3333333,42.5490196 64.3333333,42.5490196 C64.3333333,42.5490196 64.1960784,42.5490196 64.1960784,42.5490196 C64.1960784,42.5490196 64.1960784,42.4117647 64.1960784,42.2745098 C64.3333333,42.1372549 64.6078431,41.8627451 64.745098,41.7254902 M70.5098039,34.5882353 C70.5098039,34.4509804 70.6470588,34.4509804 70.7843137,34.5882353 C70.9215686,34.5882353 70.9215686,34.7254902 70.7843137,34.8627451 C70.6470588,35.1372549 70.5098039,35.2745098 70.372549,35.5490196 C70.372549,35.5490196 70.2352941,35.6862745 70.2352941,35.6862745 C70.2352941,35.6862745 70.2352941,35.6862745 70.0980392,35.6862745 C69.9607843,35.6862745 69.9607843,35.5490196 70.0980392,35.4117647 C70.2352941,35 70.372549,34.8627451 70.5098039,34.5882353 M71.1960784,33.3529412 C71.3333333,33.4901961 71.3333333,33.4901961 71.4705882,33.627451 C71.3333333,33.7647059 71.3333333,33.9019608 71.1960784,34.1764706 C71.1960784,34.1764706 71.0588235,34.3137255 71.0588235,34.3137255 C71.0588235,34.3137255 71.0588235,34.3137255 70.9215686,34.3137255 C70.7843137,34.3137255 70.7843137,34.1764706 70.9215686,34.0392157 C71.0588235,33.7647059 71.1960784,33.4901961 71.1960784,33.3529412 M65.8431373,40.627451 C65.8431373,40.627451 65.9803922,40.627451 66.1176471,40.627451 C66.1176471,40.627451 66.1176471,40.7647059 66.1176471,40.9019608 C65.9803922,41.0392157 65.7058824,41.3137255 65.5686275,41.4509804 C65.5686275,41.4509804 65.4313725,41.4509804 65.4313725,41.4509804 C65.4313725,41.4509804 65.2941176,41.4509804 65.2941176,41.4509804 C65.2941176,41.4509804 65.2941176,41.3137255 65.2941176,41.1764706 C65.4313725,41.0392157 65.7058824,40.9019608 65.8431373,40.627451 M66.9411765,39.5294118 C66.9411765,39.5294118 67.0784314,39.3921569 67.2156863,39.5294118 C67.2156863,39.5294118 67.3529412,39.6666667 67.2156863,39.8039216 C67.0784314,39.9411765 66.9411765,40.2156863 66.6666667,40.3529412 C66.6666667,40.3529412 66.5294118,40.3529412 66.5294118,40.3529412 C66.5294118,40.3529412 66.3921569,40.3529412 66.3921569,40.3529412 C66.3921569,40.3529412 66.254902,40.2156863 66.3921569,40.0784314 C66.5294118,39.9411765 66.6666667,39.6666667 66.9411765,39.5294118 M68.8627451,37.1960784 C68.8627451,37.0588235 69,37.0588235 69.1372549,37.1960784 C69.2745098,37.1960784 69.2745098,37.3333333 69.1372549,37.4705882 C69,37.6078431 68.8627451,37.8823529 68.7254902,38.0196078 C68.7254902,38.0196078 68.5882353,38.0196078 68.5882353,38.0196078 C68.5882353,38.0196078 68.4509804,38.0196078 68.4509804,38.0196078 C68.3137255,38.0196078 68.3137255,37.8823529 68.4509804,37.745098 C68.4509804,37.6078431 68.5882353,37.3333333 68.8627451,37.1960784 M67.9019608,38.4313725 C67.9019608,38.2941176 68.0392157,38.2941176 68.1764706,38.4313725 C68.3137255,38.4313725 68.3137255,38.5686275 68.1764706,38.7058824 C68.0392157,38.8431373 67.9019608,39.1176471 67.627451,39.254902 C67.627451,39.254902 67.4901961,39.254902 67.4901961,39.254902 C67.4901961,39.254902 67.3529412,39.254902 67.3529412,39.254902 C67.2156863,39.254902 67.2156863,39.1176471 67.3529412,38.9803922 C67.4901961,38.7058824 67.7647059,38.5686275 67.9019608,38.4313725" id="Fill-77" fill="#FFFFFF"></path>
                    <path d="M63.5098039,40.4901961 C63.5098039,40.4901961 63.6470588,40.4901961 63.7843137,40.4901961 C63.7843137,40.4901961 63.7843137,40.627451 63.7843137,40.7647059 C63.6470588,40.9019608 63.372549,41.1764706 63.2352941,41.3137255 C63.2352941,41.3137255 63.0980392,41.3137255 63.0980392,41.3137255 C63.0980392,41.3137255 62.9607843,41.3137255 62.9607843,41.3137255 C62.9607843,41.3137255 62.9607843,41.1764706 62.9607843,41.0392157 C63.0980392,40.7647059 63.2352941,40.627451 63.5098039,40.4901961 M56.6470588,45.4313725 C56.9215686,45.2941176 57.0588235,45.1568627 57.3333333,45.0196078 C57.4705882,45.0196078 57.4705882,45.0196078 57.6078431,45.0196078 C57.6078431,45.1568627 57.6078431,45.1568627 57.6078431,45.2941176 C57.3333333,45.4313725 57.1960784,45.5686275 56.9215686,45.7058824 C56.9215686,45.7058824 56.9215686,45.7058824 56.7843137,45.7058824 C56.7843137,45.7058824 56.6470588,45.7058824 56.6470588,45.5686275 C56.6470588,45.5686275 56.6470588,45.4313725 56.6470588,45.4313725 M69.9607843,31.9803922 C70.0980392,32.1176471 70.0980392,32.1176471 70.2352941,32.254902 C70.0980392,32.3921569 70.0980392,32.6666667 69.9607843,32.8039216 C69.9607843,32.8039216 69.8235294,32.9411765 69.8235294,32.9411765 C69.8235294,32.9411765 69.8235294,32.9411765 69.6862745,32.9411765 C69.5490196,32.9411765 69.5490196,32.8039216 69.6862745,32.6666667 C69.6862745,32.3921569 69.8235294,32.254902 69.9607843,31.9803922 M62.2745098,41.4509804 C62.4117647,41.4509804 62.4117647,41.4509804 62.5490196,41.4509804 C62.5490196,41.4509804 62.5490196,41.5882353 62.5490196,41.7254902 C62.4117647,41.8627451 62.1372549,42 62,42.2745098 C62,42.2745098 62,42.2745098 61.8627451,42.2745098 C61.8627451,42.2745098 61.7254902,42.2745098 61.7254902,42.2745098 C61.7254902,42.1372549 61.7254902,42.1372549 61.7254902,42 C62,41.8627451 62.1372549,41.5882353 62.2745098,41.4509804 M58.0196078,44.6078431 C58.2941176,44.4705882 58.4313725,44.3333333 58.7058824,44.1960784 C58.8431373,44.1960784 58.8431373,44.1960784 58.9803922,44.1960784 C58.9803922,44.3333333 58.9803922,44.3333333 58.9803922,44.4705882 C58.7058824,44.6078431 58.5686275,44.745098 58.2941176,44.8823529 C58.2941176,44.8823529 58.2941176,44.8823529 58.1568627,44.8823529 C58.1568627,44.8823529 58.0196078,44.8823529 58.0196078,44.745098 C57.8823529,44.745098 57.8823529,44.745098 58.0196078,44.6078431 M61.1764706,42.4117647 C61.3137255,42.4117647 61.3137255,42.4117647 61.4509804,42.4117647 C61.4509804,42.5490196 61.4509804,42.5490196 61.4509804,42.6862745 C61.3137255,42.8235294 61.0392157,42.9607843 60.9019608,43.0980392 C60.9019608,43.0980392 60.9019608,43.0980392 60.7647059,43.0980392 C60.7647059,43.0980392 60.627451,43.0980392 60.627451,43.0980392 C60.627451,42.9607843 60.627451,42.9607843 60.627451,42.8235294 C60.7647059,42.8235294 60.9019608,42.5490196 61.1764706,42.4117647 M59.9411765,43.372549 C60.0784314,43.372549 60.0784314,43.372549 60.2156863,43.372549 C60.2156863,43.5098039 60.2156863,43.5098039 60.2156863,43.6470588 C59.9411765,43.7843137 59.8039216,43.9215686 59.5294118,44.0588235 C59.5294118,44.0588235 59.5294118,44.0588235 59.3921569,44.0588235 C59.3921569,44.0588235 59.254902,44.0588235 59.254902,43.9215686 C59.254902,43.7843137 59.254902,43.7843137 59.254902,43.6470588 C59.5294118,43.6470588 59.6666667,43.5098039 59.9411765,43.372549 M65.5686275,38.2941176 C65.5686275,38.2941176 65.7058824,38.1568627 65.8431373,38.2941176 C65.8431373,38.2941176 65.9803922,38.4313725 65.8431373,38.5686275 C65.7058824,38.7058824 65.5686275,38.9803922 65.2941176,39.1176471 C65.2941176,39.1176471 65.1568627,39.1176471 65.1568627,39.1176471 C65.1568627,39.1176471 65.0196078,39.1176471 65.0196078,39.1176471 C65.0196078,39.1176471 64.8823529,38.9803922 65.0196078,38.8431373 C65.2941176,38.5686275 65.4313725,38.4313725 65.5686275,38.2941176 M64.6078431,39.3921569 C64.6078431,39.3921569 64.745098,39.3921569 64.8823529,39.3921569 C64.8823529,39.3921569 64.8823529,39.5294118 64.8823529,39.6666667 C64.745098,39.8039216 64.4705882,40.0784314 64.3333333,40.2156863 C64.3333333,40.2156863 64.1960784,40.2156863 64.1960784,40.2156863 C64.1960784,40.2156863 64.0588235,40.2156863 64.0588235,40.2156863 C64.0588235,40.2156863 64.0588235,40.0784314 64.0588235,39.9411765 C64.1960784,39.8039216 64.3333333,39.5294118 64.6078431,39.3921569 M56.0980392,45.8431373 C56.2352941,45.8431373 56.2352941,45.8431373 56.372549,45.8431373 C56.372549,45.9803922 56.372549,45.9803922 56.372549,46.1176471 C56.0980392,45.9803922 56.0980392,45.8431373 56.0980392,45.8431373 C55.9607843,45.8431373 55.9607843,45.8431373 56.0980392,45.8431373 M69.2745098,33.3529412 C69.2745098,33.2156863 69.4117647,33.2156863 69.5490196,33.3529412 C69.6862745,33.3529412 69.6862745,33.4901961 69.5490196,33.627451 C69.4117647,33.9019608 69.2745098,34.0392157 69.1372549,34.3137255 C69.1372549,34.3137255 69,34.4509804 69,34.4509804 C69,34.4509804 69,34.4509804 68.8627451,34.4509804 C68.7254902,34.4509804 68.7254902,34.3137255 68.8627451,34.1764706 C69,33.7647059 69.1372549,33.4901961 69.2745098,33.3529412 M68.4509804,34.5882353 C68.4509804,34.4509804 68.5882353,34.4509804 68.7254902,34.5882353 C68.8627451,34.5882353 68.8627451,34.7254902 68.7254902,34.8627451 C68.5882353,35 68.4509804,35.2745098 68.3137255,35.5490196 C68.3137255,35.5490196 68.1764706,35.6862745 68.1764706,35.6862745 C68.1764706,35.6862745 68.1764706,35.6862745 68.0392157,35.6862745 C67.9019608,35.6862745 67.9019608,35.5490196 68.0392157,35.4117647 C68.1764706,35 68.3137255,34.8627451 68.4509804,34.5882353 M66.5294118,37.0588235 C66.5294118,36.9215686 66.6666667,36.9215686 66.8039216,37.0588235 C66.9411765,37.0588235 66.9411765,37.1960784 66.8039216,37.3333333 C66.6666667,37.4705882 66.5294118,37.745098 66.254902,37.8823529 C66.254902,37.8823529 66.1176471,37.8823529 66.1176471,37.8823529 C66.1176471,37.8823529 65.9803922,37.8823529 65.9803922,37.8823529 C65.8431373,37.8823529 65.8431373,37.745098 65.9803922,37.6078431 C66.254902,37.4705882 66.3921569,37.3333333 66.5294118,37.0588235 M67.4901961,35.8235294 C67.4901961,35.6862745 67.627451,35.6862745 67.7647059,35.8235294 C67.9019608,35.8235294 67.9019608,35.9607843 67.7647059,36.0980392 C67.627451,36.2352941 67.4901961,36.5098039 67.3529412,36.6470588 C67.3529412,36.6470588 67.2156863,36.6470588 67.2156863,36.6470588 C67.2156863,36.6470588 67.0784314,36.6470588 67.0784314,36.6470588 C66.9411765,36.6470588 66.9411765,36.5098039 67.0784314,36.372549 C67.2156863,36.2352941 67.3529412,36.0980392 67.4901961,35.8235294" id="Fill-78" fill="#FFFFFF"></path>
                    <path d="M55.5490196,45.1568627 C55.5490196,45.1568627 55.5490196,45.1568627 55.5490196,45.1568627 C55.5490196,45.0196078 55.5490196,45.0196078 55.5490196,44.8823529 C55.6862745,44.745098 56.2352941,44.6078431 56.372549,44.6078431 C56.372549,44.6078431 56.372549,44.6078431 56.372549,44.6078431 C56.372549,44.6078431 56.372549,44.4705882 56.372549,44.3333333 C56.372549,44.0588235 57.0588235,44.0588235 57.1960784,44.0588235 C57.1960784,44.0588235 57.1960784,44.0588235 57.1960784,44.0588235 C57.1960784,44.0588235 57.1960784,43.9215686 57.1960784,43.7843137 C57.1960784,43.6470588 57.3333333,43.6470588 57.6078431,43.6470588 C57.745098,43.6470588 58.0196078,43.6470588 58.0196078,43.5098039 C58.0196078,43.5098039 58.0196078,43.5098039 58.0196078,43.5098039 C58.0196078,43.5098039 58.0196078,43.372549 58.0196078,43.2352941 C58.0196078,42.9607843 58.7058824,42.9607843 58.8431373,42.9607843 C58.8431373,42.9607843 58.8431373,42.9607843 58.8431373,42.9607843 C58.8431373,42.9607843 58.8431373,42.8235294 58.8431373,42.6862745 C58.8431373,42.4117647 59.5294118,42.4117647 59.6666667,42.4117647 C59.6666667,42.4117647 59.6666667,42.4117647 59.6666667,42.4117647 C59.6666667,42.4117647 59.6666667,42.2745098 59.6666667,42.1372549 C59.6666667,41.8627451 60.3529412,41.8627451 60.4901961,41.7254902 C60.4901961,41.7254902 60.4901961,41.7254902 60.4901961,41.7254902 C60.4901961,41.7254902 60.4901961,41.5882353 60.4901961,41.4509804 C60.4901961,41.1764706 61.1764706,41.1764706 61.3137255,41.0392157 C61.3137255,41.0392157 61.3137255,41.0392157 61.3137255,41.0392157 C61.3137255,41.0392157 61.3137255,40.9019608 61.3137255,40.7647059 C61.3137255,40.4901961 61.8627451,40.3529412 62.1372549,40.3529412 C62.1372549,40.3529412 62.1372549,40.3529412 62.1372549,40.3529412 C62.1372549,40.3529412 62.1372549,40.2156863 62.1372549,40.0784314 C62.1372549,39.8039216 62.6862745,39.6666667 62.9607843,39.6666667 C62.9607843,39.6666667 62.9607843,39.6666667 62.9607843,39.6666667 C62.9607843,39.6666667 62.9607843,39.5294118 62.9607843,39.3921569 C62.9607843,39.1176471 63.5098039,38.9803922 63.7843137,38.9803922 C63.7843137,38.9803922 63.7843137,38.9803922 63.7843137,38.9803922 C63.7843137,38.9803922 63.7843137,38.8431373 63.7843137,38.7058824 C63.7843137,38.4313725 64.3333333,38.2941176 64.4705882,38.1568627 C64.4705882,38.1568627 64.4705882,38.1568627 64.4705882,38.1568627 C64.4705882,38.1568627 64.4705882,38.0196078 64.4705882,37.8823529 C64.4705882,37.6078431 65.0196078,37.4705882 65.1568627,37.3333333 C65.1568627,37.3333333 65.1568627,37.3333333 65.1568627,37.3333333 C65.1568627,37.3333333 65.1568627,37.1960784 65.0196078,37.0588235 C65.0196078,36.7843137 65.5686275,36.6470588 65.7058824,36.5098039 C65.7058824,36.5098039 65.7058824,36.5098039 65.7058824,36.5098039 C65.7058824,36.5098039 65.7058824,36.372549 65.5686275,36.2352941 C65.5686275,35.9607843 66.1176471,35.8235294 66.254902,35.6862745 C66.254902,35.6862745 66.254902,35.6862745 66.254902,35.6862745 C66.254902,35.6862745 66.1176471,35.5490196 66.1176471,35.4117647 C66.1176471,35.1372549 66.6666667,35 66.8039216,34.8627451 C66.8039216,34.8627451 66.8039216,34.8627451 66.8039216,34.8627451 C66.8039216,34.8627451 66.6666667,34.7254902 66.6666667,34.5882353 C66.6666667,34.3137255 67.2156863,34.0392157 67.3529412,34.0392157 C67.3529412,34.0392157 67.3529412,34.0392157 67.3529412,34.0392157 C67.3529412,34.0392157 67.2156863,33.9019608 67.2156863,33.7647059 C67.2156863,33.4901961 67.7647059,33.2156863 67.9019608,33.2156863 C67.9019608,33.2156863 67.9019608,33.2156863 67.9019608,33.2156863 C67.9019608,33.2156863 67.7647059,33.0784314 67.7647059,32.9411765 C67.7647059,32.6666667 68.3137255,32.3921569 68.4509804,32.254902 C68.4509804,32.254902 68.4509804,32.254902 68.4509804,32.254902 C68.4509804,32.254902 68.3137255,32.1176471 68.3137255,31.9803922 C68.3137255,31.7058824 68.7254902,31.4313725 68.8627451,31.2941176 C69,31.2941176 69,31.4313725 69.1372549,31.4313725 C69,31.5686275 68.7254902,31.8431373 68.5882353,31.9803922 C68.5882353,31.9803922 68.5882353,31.9803922 68.5882353,31.9803922 C68.5882353,31.9803922 68.7254902,32.1176471 68.7254902,32.254902 C68.7254902,32.5294118 68.3137255,32.8039216 68.0392157,32.9411765 C68.0392157,32.9411765 68.0392157,32.9411765 68.0392157,32.9411765 C68.0392157,32.9411765 68.1764706,33.0784314 68.1764706,33.2156863 C68.1764706,33.4901961 67.627451,33.7647059 67.4901961,33.7647059 C67.4901961,33.7647059 67.4901961,33.7647059 67.4901961,33.7647059 C67.4901961,33.7647059 67.627451,33.9019608 67.627451,34.0392157 C67.627451,34.3137255 67.0784314,34.5882353 66.9411765,34.5882353 C66.9411765,34.5882353 66.9411765,34.5882353 66.9411765,34.5882353 C66.9411765,34.5882353 67.0784314,34.7254902 67.0784314,34.8627451 C67.0784314,35.1372549 66.5294118,35.2745098 66.3921569,35.4117647 C66.3921569,35.4117647 66.3921569,35.4117647 66.3921569,35.4117647 C66.3921569,35.4117647 66.5294118,35.5490196 66.5294118,35.6862745 C66.5294118,35.9607843 65.9803922,36.0980392 65.8431373,36.2352941 C65.8431373,36.2352941 65.8431373,36.2352941 65.8431373,36.2352941 C65.8431373,36.2352941 65.8431373,36.372549 65.9803922,36.5098039 C65.9803922,36.7843137 65.4313725,36.9215686 65.2941176,37.0588235 C65.2941176,37.0588235 65.2941176,37.0588235 65.2941176,37.0588235 C65.2941176,37.0588235 65.2941176,37.1960784 65.2941176,37.3333333 C65.2941176,37.6078431 64.745098,37.745098 64.6078431,37.8823529 C64.6078431,37.8823529 64.6078431,37.8823529 64.6078431,37.8823529 C64.6078431,37.8823529 64.6078431,38.0196078 64.6078431,38.1568627 C64.6078431,38.4313725 64.0588235,38.5686275 63.9215686,38.7058824 C63.9215686,38.7058824 63.9215686,38.7058824 63.9215686,38.7058824 C63.9215686,38.7058824 63.9215686,38.8431373 63.9215686,38.9803922 C63.9215686,39.254902 63.372549,39.3921569 63.0980392,39.3921569 C63.0980392,39.3921569 63.0980392,39.3921569 63.0980392,39.3921569 C63.0980392,39.3921569 63.0980392,39.5294118 63.0980392,39.6666667 C63.0980392,39.9411765 62.5490196,40.0784314 62.2745098,40.0784314 C62.2745098,40.0784314 62.2745098,40.0784314 62.2745098,40.0784314 C62.2745098,40.0784314 62.2745098,40.2156863 62.2745098,40.3529412 C62.2745098,40.627451 61.5882353,40.7647059 61.4509804,40.7647059 C61.4509804,40.7647059 61.4509804,40.7647059 61.4509804,40.7647059 C61.4509804,40.7647059 61.4509804,40.9019608 61.4509804,41.0392157 C61.4509804,41.1764706 61.3137255,41.1764706 61.1764706,41.3137255 C61.0392157,41.3137255 60.7647059,41.4509804 60.7647059,41.4509804 C60.7647059,41.4509804 60.7647059,41.4509804 60.7647059,41.4509804 C60.7647059,41.4509804 60.7647059,41.5882353 60.7647059,41.7254902 C60.7647059,42 60.0784314,42 59.9411765,42.1372549 C59.9411765,42.1372549 59.9411765,42.1372549 59.9411765,42.1372549 C59.9411765,42.1372549 59.9411765,42.2745098 59.9411765,42.4117647 C59.9411765,42.5490196 59.8039216,42.5490196 59.5294118,42.6862745 C59.3921569,42.6862745 59.1176471,42.8235294 59.1176471,42.8235294 C59.1176471,42.8235294 59.1176471,42.8235294 59.1176471,42.8235294 C59.1176471,42.8235294 59.1176471,42.9607843 59.1176471,43.0980392 C59.1176471,43.372549 58.4313725,43.372549 58.2941176,43.372549 C58.2941176,43.372549 58.2941176,43.372549 58.2941176,43.372549 C58.2941176,43.372549 58.2941176,43.5098039 58.2941176,43.6470588 C58.2941176,43.9215686 57.6078431,43.9215686 57.4705882,43.9215686 C57.4705882,43.9215686 57.4705882,43.9215686 57.4705882,43.9215686 C57.4705882,43.9215686 57.4705882,44.0588235 57.4705882,44.1960784 C57.4705882,44.4705882 56.7843137,44.4705882 56.6470588,44.4705882 C56.6470588,44.4705882 56.6470588,44.4705882 56.6470588,44.4705882 C56.6470588,44.4705882 56.6470588,44.6078431 56.6470588,44.745098 C56.6470588,45.0196078 55.9607843,45.0196078 55.8235294,45.0196078 C55.8235294,45.0196078 55.8235294,45.0196078 55.8235294,45.0196078 C55.8235294,45.0196078 55.8235294,45.1568627 55.8235294,45.2941176 C55.8235294,45.2941176 55.8235294,45.2941176 55.6862745,45.4313725 C55.5490196,45.2941176 55.5490196,45.1568627 55.5490196,45.1568627 C55.4117647,45.1568627 55.5490196,45.1568627 55.5490196,45.1568627" id="Fill-79" fill="#FFFFFF"></path>
                    <path d="M58.7058824,47.7647059 C58.7058824,47.7647059 58.7058824,47.7647059 58.7058824,47.7647059 C58.7058824,47.627451 58.7058824,47.627451 58.7058824,47.4901961 C58.8431373,47.3529412 59.3921569,47.2156863 59.5294118,47.2156863 C59.5294118,47.2156863 59.5294118,47.2156863 59.5294118,47.2156863 C59.5294118,47.2156863 59.5294118,47.0784314 59.5294118,46.9411765 C59.5294118,46.6666667 60.2156863,46.6666667 60.3529412,46.6666667 C60.3529412,46.6666667 60.3529412,46.6666667 60.3529412,46.6666667 C60.3529412,46.6666667 60.3529412,46.5294118 60.3529412,46.3921569 C60.3529412,46.254902 60.4901961,46.254902 60.7647059,46.254902 C60.9019608,46.254902 61.1764706,46.1176471 61.1764706,46.1176471 C61.1764706,46.1176471 61.1764706,46.1176471 61.1764706,46.1176471 C61.1764706,46.1176471 61.1764706,45.9803922 61.1764706,45.8431373 C61.1764706,45.5686275 61.8627451,45.5686275 62,45.5686275 C62,45.5686275 62,45.5686275 62,45.5686275 C62,45.5686275 62,45.4313725 62,45.2941176 C62,45.0196078 62.6862745,45.0196078 62.8235294,45.0196078 C62.8235294,45.0196078 62.8235294,45.0196078 62.8235294,45.0196078 C62.8235294,45.0196078 62.8235294,44.8823529 62.8235294,44.745098 C62.8235294,44.4705882 63.5098039,44.4705882 63.6470588,44.3333333 C63.6470588,44.3333333 63.6470588,44.3333333 63.6470588,44.3333333 C63.6470588,44.3333333 63.6470588,44.1960784 63.6470588,44.0588235 C63.6470588,43.7843137 64.3333333,43.7843137 64.4705882,43.6470588 C64.4705882,43.6470588 64.4705882,43.6470588 64.4705882,43.6470588 C64.4705882,43.6470588 64.4705882,43.5098039 64.4705882,43.372549 C64.4705882,43.0980392 65.0196078,42.9607843 65.2941176,42.9607843 C65.2941176,42.9607843 65.2941176,42.9607843 65.2941176,42.9607843 C65.2941176,42.9607843 65.2941176,42.8235294 65.2941176,42.6862745 C65.2941176,42.4117647 65.8431373,42.2745098 66.1176471,42.2745098 C66.1176471,42.2745098 66.1176471,42.2745098 66.1176471,42.2745098 C66.1176471,42.2745098 66.1176471,42.1372549 66.1176471,42 C66.1176471,41.7254902 66.6666667,41.5882353 66.9411765,41.5882353 C66.9411765,41.5882353 66.9411765,41.5882353 66.9411765,41.5882353 C66.9411765,41.5882353 66.9411765,41.4509804 66.9411765,41.3137255 C66.9411765,41.0392157 67.4901961,40.9019608 67.627451,40.7647059 C67.627451,40.7647059 67.627451,40.7647059 67.627451,40.7647059 C67.627451,40.7647059 67.627451,40.627451 67.627451,40.4901961 C67.627451,40.2156863 68.1764706,40.0784314 68.3137255,39.9411765 C68.3137255,39.9411765 68.3137255,39.9411765 68.3137255,39.9411765 C68.3137255,39.9411765 68.3137255,39.8039216 68.1764706,39.6666667 C68.1764706,39.3921569 68.7254902,39.254902 68.8627451,39.1176471 C68.8627451,39.1176471 68.8627451,39.1176471 68.8627451,39.1176471 C68.8627451,39.1176471 68.8627451,38.9803922 68.7254902,38.8431373 C68.7254902,38.5686275 69.2745098,38.4313725 69.4117647,38.2941176 C69.4117647,38.2941176 69.4117647,38.2941176 69.4117647,38.2941176 C69.4117647,38.2941176 69.2745098,38.1568627 69.2745098,38.0196078 C69.2745098,37.745098 69.8235294,37.6078431 69.9607843,37.4705882 C69.9607843,37.4705882 69.9607843,37.4705882 69.9607843,37.4705882 C69.9607843,37.4705882 69.8235294,37.3333333 69.8235294,37.1960784 C69.8235294,36.9215686 70.372549,36.6470588 70.5098039,36.6470588 C70.5098039,36.6470588 70.5098039,36.6470588 70.5098039,36.6470588 C70.5098039,36.6470588 70.372549,36.5098039 70.372549,36.372549 C70.372549,36.0980392 70.9215686,35.8235294 71.0588235,35.8235294 C71.0588235,35.8235294 71.0588235,35.8235294 71.0588235,35.8235294 C71.0588235,35.8235294 70.9215686,35.6862745 70.9215686,35.5490196 C70.9215686,35.2745098 71.4705882,35 71.6078431,34.8627451 C71.6078431,34.8627451 71.6078431,34.8627451 71.6078431,34.8627451 C71.6078431,34.8627451 71.4705882,34.7254902 71.4705882,34.5882353 C71.4705882,34.4509804 71.4705882,34.4509804 71.6078431,34.3137255 C71.6078431,34.4509804 71.745098,34.4509804 71.745098,34.5882353 C71.745098,34.5882353 71.745098,34.5882353 71.745098,34.5882353 C71.745098,34.5882353 71.745098,34.5882353 71.745098,34.5882353 C71.745098,34.5882353 71.8823529,34.7254902 71.8823529,34.8627451 C71.8823529,35.1372549 71.4705882,35.4117647 71.1960784,35.5490196 C71.1960784,35.5490196 71.1960784,35.5490196 71.1960784,35.5490196 C71.1960784,35.5490196 71.3333333,35.6862745 71.3333333,35.8235294 C71.3333333,36.0980392 70.7843137,36.372549 70.6470588,36.372549 C70.6470588,36.372549 70.6470588,36.372549 70.6470588,36.372549 C70.6470588,36.372549 70.7843137,36.5098039 70.7843137,36.6470588 C70.7843137,36.9215686 70.2352941,37.1960784 70.0980392,37.1960784 C70.0980392,37.1960784 70.0980392,37.1960784 70.0980392,37.1960784 C70.0980392,37.1960784 70.2352941,37.3333333 70.2352941,37.4705882 C70.2352941,37.745098 69.6862745,37.8823529 69.5490196,38.0196078 C69.5490196,38.0196078 69.5490196,38.0196078 69.5490196,38.0196078 C69.5490196,38.0196078 69.6862745,38.1568627 69.6862745,38.2941176 C69.6862745,38.5686275 69.1372549,38.7058824 69,38.8431373 C69,38.8431373 69,38.8431373 69,38.8431373 C69,38.8431373 69,38.9803922 69.1372549,39.1176471 C69.1372549,39.3921569 68.5882353,39.5294118 68.4509804,39.6666667 C68.4509804,39.6666667 68.4509804,39.6666667 68.4509804,39.6666667 C68.4509804,39.6666667 68.4509804,39.8039216 68.4509804,39.9411765 C68.4509804,40.2156863 67.9019608,40.3529412 67.7647059,40.4901961 C67.7647059,40.4901961 67.7647059,40.4901961 67.7647059,40.4901961 C67.7647059,40.4901961 67.7647059,40.627451 67.7647059,40.7647059 C67.7647059,41.0392157 67.2156863,41.1764706 67.0784314,41.3137255 C67.0784314,41.3137255 67.0784314,41.3137255 67.0784314,41.3137255 C67.0784314,41.3137255 67.0784314,41.4509804 67.0784314,41.5882353 C67.0784314,41.8627451 66.5294118,42 66.254902,42 C66.254902,42 66.254902,42 66.254902,42 C66.254902,42 66.254902,42.1372549 66.254902,42.2745098 C66.254902,42.5490196 65.7058824,42.6862745 65.4313725,42.6862745 C65.4313725,42.6862745 65.4313725,42.6862745 65.4313725,42.6862745 C65.4313725,42.6862745 65.4313725,42.8235294 65.4313725,42.9607843 C65.4313725,43.2352941 64.745098,43.372549 64.6078431,43.372549 C64.6078431,43.372549 64.6078431,43.372549 64.6078431,43.372549 C64.6078431,43.372549 64.6078431,43.5098039 64.6078431,43.6470588 C64.6078431,43.7843137 64.4705882,43.7843137 64.3333333,43.9215686 C64.1960784,43.9215686 63.9215686,44.0588235 63.9215686,44.0588235 C63.9215686,44.0588235 63.9215686,44.0588235 63.9215686,44.0588235 C63.9215686,44.0588235 63.9215686,44.1960784 63.9215686,44.3333333 C63.9215686,44.6078431 63.2352941,44.6078431 63.0980392,44.745098 C63.0980392,44.745098 63.0980392,44.745098 63.0980392,44.745098 C63.0980392,44.745098 63.0980392,44.8823529 63.0980392,45.0196078 C63.0980392,45.1568627 62.9607843,45.1568627 62.6862745,45.2941176 C62.5490196,45.2941176 62.2745098,45.4313725 62.2745098,45.4313725 C62.2745098,45.4313725 62.2745098,45.4313725 62.2745098,45.4313725 C62.2745098,45.4313725 62.2745098,45.5686275 62.2745098,45.7058824 C62.2745098,45.9803922 61.5882353,45.9803922 61.4509804,45.9803922 C61.4509804,45.9803922 61.4509804,45.9803922 61.4509804,45.9803922 C61.4509804,45.9803922 61.4509804,46.1176471 61.4509804,46.254902 C61.4509804,46.5294118 60.7647059,46.5294118 60.627451,46.5294118 C60.627451,46.5294118 60.627451,46.5294118 60.627451,46.5294118 C60.627451,46.5294118 60.627451,46.6666667 60.627451,46.8039216 C60.627451,47.0784314 59.9411765,47.0784314 59.8039216,47.0784314 C59.8039216,47.0784314 59.8039216,47.0784314 59.8039216,47.0784314 C59.8039216,47.0784314 59.8039216,47.2156863 59.8039216,47.3529412 C59.8039216,47.627451 59.1176471,47.627451 58.9803922,47.627451 C58.9803922,47.627451 58.9803922,47.627451 58.9803922,47.627451 C58.9803922,47.627451 58.9803922,47.7647059 58.9803922,47.9019608 C58.9803922,48.0392157 58.8431373,48.0392157 58.7058824,48.0392157 C58.5686275,47.9019608 58.4313725,47.9019608 58.2941176,47.7647059 C58.2941176,47.7647059 58.5686275,47.7647059 58.7058824,47.7647059" id="Fill-80" fill="#FFFFFF"></path>
                    <g id="Group-84" transform="translate(0.246373, 28.462508)" fill="#AAAAAA">
                        <path d="M16.0588235,2.33333333 C16.1960784,2.19607843 16.3333333,1.92156863 16.3333333,1.78431373 C16.4705882,1.23529412 16.0588235,0.68627451 15.5098039,0.68627451 L13.4509804,0.411764706 C12.9019608,0.274509804 12.3529412,0.68627451 12.3529412,1.23529412 C12.2156863,1.78431373 12.627451,2.33333333 13.1764706,2.33333333 L15.2352941,2.60784314 C15.6470588,2.60784314 15.9215686,2.47058824 16.0588235,2.33333333 M22.0980392,3.01960784 C22.2352941,2.88235294 22.372549,2.60784314 22.372549,2.47058824 C22.5098039,1.92156863 22.0980392,1.37254902 21.5490196,1.37254902 L19.4901961,1.09803922 C18.9411765,1.09803922 18.3921569,1.37254902 18.3921569,1.92156863 C18.254902,2.47058824 18.6666667,3.01960784 19.2156863,3.01960784 L21.2745098,3.29411765 C21.5490196,3.43137255 21.9607843,3.29411765 22.0980392,3.01960784 M28.1372549,3.84313725 C28.2745098,3.70588235 28.4117647,3.43137255 28.4117647,3.29411765 C28.5490196,2.74509804 28.1372549,2.19607843 27.5882353,2.19607843 L25.5294118,1.92156863 C24.9803922,1.92156863 24.4313725,2.19607843 24.4313725,2.74509804 C24.2941176,3.29411765 24.7058824,3.84313725 25.254902,3.84313725 L27.3137255,4.11764706 C27.5882353,4.11764706 28,3.98039216 28.1372549,3.84313725 M34.1764706,4.52941176 C34.3137255,4.39215686 34.4509804,4.11764706 34.4509804,3.98039216 C34.5882353,3.43137255 34.1764706,2.88235294 33.627451,2.88235294 L31.5686275,2.60784314 C31.0196078,2.60784314 30.4705882,2.88235294 30.4705882,3.43137255 C30.3333333,3.98039216 30.745098,4.52941176 31.2941176,4.52941176 L33.3529412,4.80392157 C33.627451,4.94117647 33.9019608,4.80392157 34.1764706,4.52941176 M40.2156863,5.35294118 C40.3529412,5.21568627 40.4901961,4.94117647 40.4901961,4.80392157 C40.627451,4.25490196 40.2156863,3.70588235 39.6666667,3.70588235 L37.6078431,3.43137255 C37.0588235,3.43137255 36.5098039,3.70588235 36.5098039,4.25490196 C36.372549,4.80392157 36.7843137,5.35294118 37.3333333,5.35294118 L39.3921569,5.62745098 C39.6666667,5.62745098 39.9411765,5.49019608 40.2156863,5.35294118 M46.254902,6.03921569 C46.3921569,5.90196078 46.5294118,5.62745098 46.5294118,5.49019608 C46.6666667,4.94117647 46.254902,4.39215686 45.7058824,4.39215686 L43.6470588,4.11764706 C43.0980392,3.98039216 42.5490196,4.39215686 42.5490196,4.94117647 C42.4117647,5.49019608 42.8235294,6.03921569 43.372549,6.03921569 L45.4313725,6.31372549 C45.7058824,6.45098039 45.9803922,6.31372549 46.254902,6.03921569" id="Fill-81"></path>
                        <path d="M9.19607843,24.4313725 C9.33333333,24.2941176 9.47058824,23.8823529 9.47058824,23.6078431 C9.47058824,23.0588235 8.92156863,22.6470588 8.37254902,22.6470588 L6.31372549,22.7843137 C5.76470588,22.7843137 5.35294118,23.3333333 5.35294118,23.8823529 C5.35294118,24.4313725 5.90196078,24.8431373 6.45098039,24.8431373 L8.50980392,24.7058824 C8.78431373,24.7058824 9.05882353,24.5686275 9.19607843,24.4313725 M15.2352941,23.8823529 C15.372549,23.745098 15.5098039,23.3333333 15.5098039,23.0588235 C15.5098039,22.5098039 14.9607843,22.0980392 14.4117647,22.0980392 L12.3529412,22.2352941 C11.8039216,22.2352941 11.3921569,22.7843137 11.3921569,23.3333333 C11.3921569,23.8823529 11.9411765,24.2941176 12.4901961,24.2941176 L14.5490196,24.1568627 C14.8235294,24.1568627 15.0980392,24.0196078 15.2352941,23.8823529 M21.2745098,23.3333333 C21.4117647,23.1960784 21.5490196,22.7843137 21.5490196,22.5098039 C21.5490196,21.9607843 21,21.5490196 20.4509804,21.5490196 L18.3921569,21.6862745 C17.8431373,21.6862745 17.4313725,22.2352941 17.4313725,22.7843137 C17.4313725,23.3333333 17.9803922,23.745098 18.5294118,23.745098 L20.5882353,23.6078431 C20.8627451,23.6078431 21.1372549,23.4705882 21.2745098,23.3333333 M27.3137255,22.7843137 C27.4509804,22.6470588 27.5882353,22.2352941 27.5882353,21.9607843 C27.5882353,21.4117647 27.0392157,21 26.4901961,21 L24.4313725,21.1372549 C23.8823529,21.1372549 23.4705882,21.6862745 23.4705882,22.2352941 C23.4705882,22.7843137 24.0196078,23.1960784 24.5686275,23.1960784 L26.627451,23.0588235 C26.9019608,23.0588235 27.1764706,22.9215686 27.3137255,22.7843137 M33.3529412,22.2352941 C33.4901961,22.0980392 33.627451,21.6862745 33.627451,21.4117647 C33.627451,20.8627451 33.0784314,20.4509804 32.5294118,20.4509804 L30.4705882,20.5882353 C29.9215686,20.5882353 29.5098039,21.1372549 29.5098039,21.6862745 C29.5098039,22.2352941 30.0588235,22.6470588 30.6078431,22.6470588 L32.6666667,22.5098039 C33.0784314,22.5098039 33.2156863,22.372549 33.3529412,22.2352941 M39.3921569,21.6862745 C39.5294118,21.5490196 39.6666667,21.1372549 39.6666667,20.8627451 C39.6666667,20.3137255 39.1176471,19.9019608 38.5686275,19.9019608 L36.5098039,20.0392157 C35.9607843,20.0392157 35.5490196,20.5882353 35.5490196,21.1372549 C35.5490196,21.6862745 36.0980392,22.0980392 36.6470588,22.0980392 L38.7058824,21.9607843 C39.1176471,21.9607843 39.254902,21.8235294 39.3921569,21.6862745 M45.4313725,21.1372549 C45.5686275,21 45.7058824,20.5882353 45.7058824,20.3137255 C45.7058824,19.7647059 45.1568627,19.3529412 44.6078431,19.3529412 L42.5490196,19.4901961 C42,19.4901961 41.5882353,20.0392157 41.5882353,20.5882353 C41.5882353,21.1372549 42.1372549,21.5490196 42.6862745,21.5490196 L44.745098,21.4117647 C45.1568627,21.4117647 45.2941176,21.2745098 45.4313725,21.1372549" id="Fill-82"></path>
                        <path d="M4.52941176,11.9411765 C4.66666667,11.8039216 4.80392157,11.5294118 4.80392157,11.254902 C4.80392157,10.7058824 4.39215686,10.1568627 3.84313725,10.1568627 L1.78431373,10.0196078 C1.23529412,10.0196078 0.68627451,10.4313725 0.68627451,10.9803922 C0.68627451,11.5294118 1.09803922,12.0784314 1.64705882,12.0784314 L3.70588235,12.2156863 C3.98039216,12.2156863 4.25490196,12.0784314 4.52941176,11.9411765 M10.5686275,12.2156863 C10.7058824,12.0784314 10.8431373,11.8039216 10.8431373,11.5294118 C10.8431373,10.9803922 10.4313725,10.4313725 9.88235294,10.4313725 L7.82352941,10.2941176 C7.2745098,10.2941176 6.7254902,10.7058824 6.7254902,11.254902 C6.7254902,11.8039216 7.1372549,12.3529412 7.68627451,12.3529412 L9.74509804,12.4901961 C10.0196078,12.4901961 10.2941176,12.3529412 10.5686275,12.2156863 M16.6078431,12.4901961 C16.745098,12.3529412 16.8823529,12.0784314 16.8823529,11.8039216 C16.8823529,11.254902 16.4705882,10.7058824 15.9215686,10.7058824 L13.8627451,10.5686275 C13.3137255,10.5686275 12.7647059,10.9803922 12.7647059,11.5294118 C12.7647059,12.0784314 13.1764706,12.627451 13.7254902,12.627451 L15.7843137,12.7647059 C16.1960784,12.7647059 16.4705882,12.627451 16.6078431,12.4901961 M22.6470588,12.7647059 C22.7843137,12.627451 22.9215686,12.3529412 22.9215686,12.0784314 C22.9215686,11.5294118 22.5098039,10.9803922 21.9607843,10.9803922 L19.9019608,10.8431373 C19.3529412,10.8431373 18.8039216,11.254902 18.8039216,11.8039216 C18.8039216,12.3529412 19.2156863,12.9019608 19.7647059,12.9019608 L21.8235294,13.0392157 C22.2352941,13.0392157 22.5098039,12.9019608 22.6470588,12.7647059 M28.6862745,13.0392157 C28.8235294,12.9019608 28.9607843,12.627451 28.9607843,12.3529412 C28.9607843,11.8039216 28.5490196,11.254902 28,11.254902 L25.9411765,11.1176471 C25.3921569,11.1176471 24.8431373,11.5294118 24.8431373,12.0784314 C24.8431373,12.627451 25.254902,13.1764706 25.8039216,13.1764706 L27.8627451,13.3137255 C28.2745098,13.3137255 28.5490196,13.3137255 28.6862745,13.0392157 M34.8627451,13.3137255 C35,13.1764706 35.1372549,12.9019608 35.1372549,12.627451 C35.1372549,12.0784314 34.7254902,11.5294118 34.1764706,11.5294118 L32.1176471,11.3921569 C31.5686275,11.3921569 31.0196078,11.8039216 31.0196078,12.3529412 C31.0196078,12.9019608 31.4313725,13.4509804 31.9803922,13.4509804 L34.0392157,13.5882353 C34.3137255,13.7254902 34.5882353,13.5882353 34.8627451,13.3137255 M40.9019608,13.7254902 C41.0392157,13.5882353 41.1764706,13.3137255 41.1764706,13.0392157 C41.1764706,12.4901961 40.7647059,11.9411765 40.2156863,11.9411765 L38.1568627,11.8039216 C37.6078431,11.8039216 37.0588235,12.2156863 37.0588235,12.7647059 C37.0588235,13.3137255 37.4705882,13.8627451 38.0196078,13.8627451 L40.0784314,14 C40.3529412,14 40.627451,13.8627451 40.9019608,13.7254902 M46.9411765,14 C47.0784314,13.8627451 47.2156863,13.5882353 47.2156863,13.3137255 C47.2156863,12.7647059 46.8039216,12.2156863 46.254902,12.2156863 L44.1960784,12.0784314 C43.6470588,12.0784314 43.0980392,12.4901961 43.0980392,13.0392157 C43.0980392,13.5882353 43.5098039,14.1372549 44.0588235,14.1372549 L46.1176471,14.2745098 C46.5294118,14.2745098 46.8039216,14.1372549 46.9411765,14" id="Fill-83"></path>
                    </g>
                </g>
            </g>
        </g>
    </g>
</svg>