<svg xmlns="http://www.w3.org/2000/svg" width="78" height="78" viewBox="0 0 78 78">
  <g fill="none">
    <polygon fill="#2697D8" points="18.555 41.073 11.139 52.44 25.56 66.861 36.927 59.445"/>
    <polygon fill="#2697D8" points="61.409 40.252 37.747 16.591 16.826 19.859 3.816 32.869 20.758 33.581 44.419 57.242 45.131 74.184 58.141 61.174"/>
    <path fill="#333" d="M76.9069336,1.09321875 C62.9226914,-2.78758594 49.8933398,4.44539063 43.7784141,10.5603164 C41.9513555,12.3872227 14.6335312,39.7050469 14.6335312,39.7050469 L38.2949531,63.3664688 C38.2949531,63.3664688 63.0258281,38.6355938 67.4396836,34.2217383 C73.554457,28.1068125 80.7875859,15.0773086 76.9069336,1.09321875 Z"/>
    <path fill="#FFF" d="M23.1972305,54.8027695 C22.4921836,54.0977227 22.4921836,52.9543828 23.1972305,52.2493359 L48.3015,27.1450664 C49.0065469,26.4400195 50.1498867,26.4400195 50.8549336,27.1450664 C51.5599805,27.8501133 51.5599805,28.9934531 50.8549336,29.6985 L25.7506641,54.8027695 C25.0454648,55.5078164 23.9022773,55.5079688 23.1972305,54.8027695 Z"/>
    <circle cx="61.411" cy="16.589" r="6.672" fill="#FFF"/>
    <g fill="#2697D8" transform="translate(0 55.758)">
      <path d="M.528785156 10.067332C-.176261719 9.36228516-.176261719 8.21894531.528785156 7.51389844L7.41990234.62278125C8.12494922-.082265625 9.26828906-.082265625 9.97333594.62278125 10.6783828 1.32782812 10.6783828 2.47116797 9.97333594 3.17621484L3.08221875 10.067332C2.37717188 10.7723789 1.23383203 10.7725313.528785156 10.067332zM12.1748555 21.71325C11.4698086 21.0082031 11.4698086 19.8648633 12.1748555 19.1598164L19.0659727 12.2686992C19.7710195 11.5636523 20.9143594 11.5636523 21.6194062 12.2686992 22.3244531 12.9737461 22.3244531 14.1170859 21.6194062 14.8221328L14.7282891 21.71325C14.0230898 22.4184492 12.8799023 22.4184492 12.1748555 21.71325zM3.44784375 18.5370352C2.74279687 17.8319883 2.74279687 16.6886484 3.44784375 15.9836016L13.1140547 6.31739062C13.8191016 5.61234375 14.9624414 5.61234375 15.6674883 6.31739062 16.3725352 7.0224375 16.3725352 8.16577734 15.6674883 8.87082422L6.00127734 18.5370352C5.29623047 19.242082 4.15304297 19.242082 3.44784375 18.5370352z"/>
    </g>
  </g>
</svg>
