<svg xmlns="http://www.w3.org/2000/svg" width="69" height="80" viewBox="0 0 69 80">
  <g fill="none">
    <path fill="#333" d="M34.8338129,4 C32.3108297,5.8065806 19.8799694,14.2731574 4.05964684,17.6965993 C2.56171402,53.5818594 29.7312138,72.61042 34.4883539,75.6572549 C39.0557748,72.8256239 66.4857846,54.1963233 64.9368824,17.4615739 C49.7196973,14.1655554 38.0080713,6.29078951 34.8338129,4 Z"/>
    <path fill="#2697D8" d="M68.2269896,15.7647059 C68.1894018,15.112249 67.71619,14.5673729 67.0754325,14.4387543 C49.2207612,10.8761246 35.5487889,0.406920415 35.4131488,0.301730104 C34.9225837,-0.0780453835 34.2434245,-0.099269109 33.7301038,0.249134948 L33.3785467,0.484429066 C33.3546406,0.499841936 33.3315421,0.516472853 33.3093426,0.534256055 C32.7391003,0.966089965 19.0366782,11.1252595 1.2733564,14.6823529 C0.637335993,14.8148767 0.168918089,15.3570165 0.130103806,16.0055363 C-1.15709343,38.3197232 7.97231834,54.4470588 15.8477509,64.0470588 C24.3792388,74.433218 33.0961938,79.4878893 33.4615917,79.6955017 C33.6725388,79.8184307 33.9122496,79.8833723 34.1564014,79.883737 C34.4152358,79.8815122 34.6690211,79.8118643 34.8927336,79.6816609 C34.9397924,79.6567474 34.984083,79.6235294 35.0283737,79.5958478 C37.8657439,77.9598616 70.6491349,58.0899654 68.2269896,15.7647059 Z M34.3114187,74.967474 C29.6636678,71.9889273 3.10311419,53.384083 4.55916955,18.3058824 C20.016609,14.9591696 32.1716263,6.67958478 34.6380623,4.91626298 C37.7467128,7.15570934 49.1958478,14.8539792 64.0747405,18.0733564 C65.5972318,53.9875433 38.7792388,72.1937716 34.3114187,74.967474 Z"/>
    <g fill="#FFF" transform="translate(20 33)">
      <path d="M8.65966061,1.89726299 C9.10488108,1.47149037 9.11448417,0.771742061 8.68110974,0.334331274 C8.24773523,-0.103079514 7.53549337,-0.112514161 7.0902729,0.313258386 L0.340310509,6.76837227 C-0.143650544,7.23119321 -0.106370877,8.00570551 0.419885141,8.42159246 L7.16984753,13.755919 C7.65397726,14.1385147 8.36213456,14.0630893 8.75156112,13.5874518 C9.14098775,13.1118142 9.0642157,12.4160788 8.58008597,12.0334832 L2.82023312,7.48161544 L8.65966061,1.89726299 Z"/>
      <path d="M28.6596606,1.89726299 C29.1048811,1.47149037 29.1144842,0.771742061 28.6811097,0.334331274 C28.2477352,-0.103079514 27.5354934,-0.112514161 27.0902729,0.313258386 L20.3403105,6.76837227 C19.8563495,7.23119321 19.8936291,8.00570551 20.4198851,8.42159246 L27.1698475,13.755919 C27.6539773,14.1385147 28.3621346,14.0630893 28.7515611,13.5874518 C29.1409877,13.1118142 29.0642157,12.4160788 28.580086,12.0334832 L22.8202331,7.48161544 L28.6596606,1.89726299 Z" transform="matrix(-1 0 0 1 49 0)"/>
      <path d="M15.8546853,0.790516665 L12.0472223,13.5655081 C11.8719886,14.1534608 12.1996077,14.7742495 12.7789799,14.9520784 C13.3583521,15.1299072 13.970081,14.7974361 14.1453147,14.2094833 L17.9527777,1.43449194 C18.1280114,0.846539189 17.8003923,0.225750541 17.2210201,0.0479216411 C16.6416479,-0.129907184 16.029919,0.202563916 15.8546853,0.790516665 Z"/>
    </g>
  </g>
</svg>
