<svg id="Layer_1" data-name="Layer 1" xmlns="http://www.w3.org/2000/svg" viewBox="0 0 25.35 25.35"><defs><style>.cls-1{fill:#8769bb;}.cls-2{fill:#43297c;}.cls-3{fill:#fff;}</style></defs><title>ball_lav</title><circle class="cls-1" cx="12.67" cy="12.67" r="12.67" transform="translate(-0.05 0.05) rotate(-0.21)"/><path class="cls-2" d="M3.51,3.92l-0.2.21a44.59,44.59,0,0,0,18,17.78l0.21-.2A44.29,44.29,0,0,1,3.51,3.92Z"/><path class="cls-3" d="M7.13,11.22a0.21,0.21,0,0,0-.33.27l0.63,0.76A0.21,0.21,0,1,0,7.75,12ZM5.92,9.66a0.21,0.21,0,0,0-.34.25l0.6,0.79a0.21,0.21,0,1,0,.33-0.26ZM8.4,12.72a0.21,0.21,0,0,0-.32.28l0.67,0.74a0.21,0.21,0,0,0,.15.07,0.21,0.21,0,0,0,.15-0.35Zm1.34,1.44a0.21,0.21,0,0,0-.3.29l0.7,0.7a0.21,0.21,0,1,0,.3-0.3ZM2.8,4.74L2.51,5.1,2.87,5.75a0.21,0.21,0,0,0,.18.11l0.1,0a0.21,0.21,0,0,0,.08-0.29ZM3.73,6.39a0.21,0.21,0,1,0-.36.22L3.89,7.45a0.21,0.21,0,1,0,.36-0.23Zm7.41,9.15a0.21,0.21,0,1,0-.29.31l0.73,0.67a0.21,0.21,0,1,0,.28-0.31Zm3,2.57a0.21,0.21,0,1,0-.26.33L14.64,19a0.21,0.21,0,0,0,.13,0,0.21,0.21,0,0,0,.13-0.38Zm1.57,1.18a0.21,0.21,0,0,0-.25.34l0.81,0.57a0.21,0.21,0,0,0,.12,0,0.21,0.21,0,0,0,.12-0.38ZM4.79,8.05a0.21,0.21,0,0,0-.35.24L5,9.11a0.21,0.21,0,0,0,.17.09,0.21,0.21,0,0,0,.12,0,0.21,0.21,0,0,0,.05-0.29ZM20.7,22.41a0.21,0.21,0,0,0-.28.29l0.33-.26Zm-2.56-1.47-0.83-.53a0.21,0.21,0,0,0-.23.35l0.84,0.53A0.21,0.21,0,1,0,18.14,20.93ZM12.6,16.86a0.21,0.21,0,1,0-.28.32l0.76,0.64a0.21,0.21,0,1,0,.27-0.33Zm7.23,5.08L19,21.44a0.21,0.21,0,0,0-.22.36l0.86,0.5,0.1,0A0.21,0.21,0,0,0,19.83,21.94Z"/><path class="cls-3" d="M7.56,8a0.21,0.21,0,1,0-.34.25l0.6,0.79A0.21,0.21,0,1,0,8.16,8.8ZM8.77,9.57a0.21,0.21,0,1,0-.33.27L9.08,10.6a0.21,0.21,0,0,0,.16.07,0.21,0.21,0,0,0,.16-0.35ZM6.43,6.41a0.21,0.21,0,0,0-.35.24L6.64,7.46A0.21,0.21,0,0,0,7,7.22ZM5.37,4.75A0.21,0.21,0,0,0,5,5L5.53,5.81a0.21,0.21,0,1,0,.36-0.23Zm17,16a0.21,0.21,0,0,0-.22.36l0.28-.32Zm-11-8.25a0.21,0.21,0,1,0-.3.29l0.7,0.71a0.21,0.21,0,1,0,.3-0.3ZM10,11.07a0.21,0.21,0,0,0-.32.28l0.67,0.74a0.21,0.21,0,1,0,.31-0.29Zm7.29,6.58a0.21,0.21,0,1,0-.25.34l0.81,0.57a0.21,0.21,0,0,0,.12,0,0.21,0.21,0,0,0,.12-0.39Zm-1.57-1.18a0.21,0.21,0,1,0-.26.33l0.79,0.61a0.21,0.21,0,0,0,.13,0,0.21,0.21,0,0,0,.13-0.38Zm4,2.83L19,18.76a0.21,0.21,0,0,0-.23.35l0.84,0.53A0.21,0.21,0,0,0,19.78,19.29Zm-5.54-4.08a0.21,0.21,0,0,0-.28.32l0.76,0.64A0.21,0.21,0,0,0,15,15.85ZM4.42,3.06L4.1,3.35,4.51,4.11a0.21,0.21,0,0,0,.18.11l0.1,0A0.21,0.21,0,0,0,4.88,3.9C4.7,3.59,4.55,3.31,4.42,3.06ZM21.48,20.29l-0.85-.49a0.21,0.21,0,1,0-.22.36l0.86,0.5,0.1,0A0.21,0.21,0,0,0,21.48,20.29Zm-8.69-6.4a0.21,0.21,0,0,0-.29.31l0.73,0.67a0.21,0.21,0,0,0,.28-0.31Z"/><path class="cls-3" d="M23,19.89h0a0.68,0.68,0,0,0,0-.33,1.75,1.75,0,0,0-1.09-.32h0a0.72,0.72,0,0,0,0-.33,1.63,1.63,0,0,0-1.09-.34l0,0a0.68,0.68,0,0,0,0-.33,0.61,0.61,0,0,0-.49-0.26c-0.23-.06-0.48-0.09-0.59-0.11h0a0.72,0.72,0,0,0,0-.33,1.62,1.62,0,0,0-1.07-.41l0,0a0.69,0.69,0,0,0,0-.34,1.81,1.81,0,0,0-1.06-.43h0a0.72,0.72,0,0,0,0-.33,1.62,1.62,0,0,0-1-.47l0,0a0.69,0.69,0,0,0,0-.33,1.79,1.79,0,0,0-1-.49h0a0.72,0.72,0,0,0,0-.33,1.62,1.62,0,0,0-1-.53l0,0a0.69,0.69,0,0,0,0-.32,1.81,1.81,0,0,0-1-.56h0a0.72,0.72,0,0,0,.06-0.32,1.62,1.62,0,0,0-1-.59,0.15,0.15,0,0,1,0,0,0.68,0.68,0,0,0,.06-0.32,1.75,1.75,0,0,0-1-.62h0a0.72,0.72,0,0,0,.08-0.32,1.63,1.63,0,0,0-1-.64l0,0a0.71,0.71,0,0,0,.09-0.32A1.61,1.61,0,0,0,9.77,9h0a0.7,0.7,0,0,0,.1-0.32,1.76,1.76,0,0,0-.9-0.7l0,0A0.71,0.71,0,0,0,9,7.59a1.63,1.63,0,0,0-.89-0.72h0a0.72,0.72,0,0,0,.11-0.31,1.62,1.62,0,0,0-.85-0.76l0,0a0.69,0.69,0,0,0,.13-0.31,1.7,1.7,0,0,0-.83-0.78h0a0.7,0.7,0,0,0,.13-0.3A1.73,1.73,0,0,0,6,3.55l0,0a0.7,0.7,0,0,0,.15-0.3A1.71,1.71,0,0,0,5.3,2.37h0L5,2.58a2.88,2.88,0,0,0,.72.64l0,0a0.67,0.67,0,0,0-.15.3,1.56,1.56,0,0,0,.81.82h0a0.68,0.68,0,0,0-.13.3,1.59,1.59,0,0,0,.83.79l0,0A0.67,0.67,0,0,0,7,5.83a1.63,1.63,0,0,0,.86.76h0a0.71,0.71,0,0,0-.12.31,1.62,1.62,0,0,0,.89.73l0,0A0.68,0.68,0,0,0,8.6,8a1.51,1.51,0,0,0,.9.71h0a0.68,0.68,0,0,0-.1.32,1.63,1.63,0,0,0,.92.69,0.17,0.17,0,0,1,0,0,0.71,0.71,0,0,0-.09.32,1.64,1.64,0,0,0,1,.64h0a0.69,0.69,0,0,0-.08.32,1.55,1.55,0,0,0,1,.63,0.16,0.16,0,0,1,0,0,0.67,0.67,0,0,0-.06.32,1.64,1.64,0,0,0,1,.59h0a0.7,0.7,0,0,0-.06.33,1.5,1.5,0,0,0,1,.57l0,0a0.67,0.67,0,0,0,0,.33,1.63,1.63,0,0,0,1,.54h0a0.7,0.7,0,0,0,0,.33,0.62,0.62,0,0,0,.44.35c0.23,0.08.48,0.13,0.59,0.16l0,0a0.67,0.67,0,0,0,0,.33,1.63,1.63,0,0,0,1,.48h0a0.71,0.71,0,0,0,0,.33,0.62,0.62,0,0,0,.46.32c0.23,0.07.49,0.1,0.6,0.12l0,0a0.68,0.68,0,0,0,0,.34,1.64,1.64,0,0,0,1.07.41h0a0.71,0.71,0,0,0,0,.33,1.48,1.48,0,0,0,1.08.38l0,0a0.66,0.66,0,0,0,0,.33,1.64,1.64,0,0,0,1.1.34h0a0.7,0.7,0,0,0,0,.33,1.58,1.58,0,0,0,1.09.33h0a0.66,0.66,0,0,0,0,.33,0.24,0.24,0,0,0,.12.12l0.22-.31h0Z"/><path class="cls-3" d="M23.56,18.66h0a0.67,0.67,0,0,0,0-.33A1.75,1.75,0,0,0,22.38,18h0a0.71,0.71,0,0,0,0-.33,1.62,1.62,0,0,0-1.09-.34l0,0a0.68,0.68,0,0,0,0-.33,0.61,0.61,0,0,0-.49-0.26c-0.23-.06-0.48-0.09-0.59-0.11h0a0.73,0.73,0,0,0,0-.33,1.62,1.62,0,0,0-1.07-.4l0,0a0.68,0.68,0,0,0,0-.34,1.81,1.81,0,0,0-1.06-.43h0a0.72,0.72,0,0,0,0-.33,1.62,1.62,0,0,0-1-.47l0,0a0.69,0.69,0,0,0,0-.33,1.79,1.79,0,0,0-1-.49h0a0.72,0.72,0,0,0,0-.33,1.62,1.62,0,0,0-1-.53l0,0a0.69,0.69,0,0,0,0-.32,1.81,1.81,0,0,0-1-.56h0a0.71,0.71,0,0,0,.06-0.32,1.62,1.62,0,0,0-1-.59,0.17,0.17,0,0,1,0,0A0.69,0.69,0,0,0,13,10.36a1.75,1.75,0,0,0-1-.62h0a0.71,0.71,0,0,0,.08-0.32,1.63,1.63,0,0,0-1-.64l0,0a0.71,0.71,0,0,0,.09-0.32,1.61,1.61,0,0,0-.91-0.68h0a0.7,0.7,0,0,0,.09-0.32,1.75,1.75,0,0,0-.9-0.7l0,0a0.71,0.71,0,0,0,.11-0.32,1.63,1.63,0,0,0-.89-0.72h0a0.71,0.71,0,0,0,.11-0.31,1.62,1.62,0,0,0-.85-0.76l0,0A0.69,0.69,0,0,0,8,4.22a1.7,1.7,0,0,0-.83-0.78h0a0.7,0.7,0,0,0,.13-0.3,1.73,1.73,0,0,0-.81-0.81l0,0A0.7,0.7,0,0,0,6.59,2a0.43,0.43,0,0,0-.16-0.33l-0.37.22L6.24,2l0,0a0.67,0.67,0,0,0-.15.3,1.56,1.56,0,0,0,.81.82h0a0.69,0.69,0,0,0-.13.3,1.59,1.59,0,0,0,.83.79l0,0a0.68,0.68,0,0,0-.13.31,1.63,1.63,0,0,0,.86.76h0a0.71,0.71,0,0,0-.12.31,1.63,1.63,0,0,0,.89.73l0,0a0.69,0.69,0,0,0-.11.32,1.51,1.51,0,0,0,.9.71h0a0.68,0.68,0,0,0-.09.32,1.63,1.63,0,0,0,.92.69,0.17,0.17,0,0,1,0,0,0.71,0.71,0,0,0-.09.32,1.64,1.64,0,0,0,1,.64h0a0.69,0.69,0,0,0-.08.32,1.55,1.55,0,0,0,1,.63,0.16,0.16,0,0,1,0,0,0.68,0.68,0,0,0-.06.32,1.64,1.64,0,0,0,1,.59h0a0.7,0.7,0,0,0-.06.33,1.49,1.49,0,0,0,1,.57l0,0a0.67,0.67,0,0,0,0,.33,1.63,1.63,0,0,0,1,.54h0a0.7,0.7,0,0,0,0,.33,0.62,0.62,0,0,0,.44.35C16.21,14,16.47,14,16.58,14l0,0a0.67,0.67,0,0,0,0,.34,1.63,1.63,0,0,0,1,.48h0a0.71,0.71,0,0,0,0,.33,0.62,0.62,0,0,0,.46.32c0.23,0.06.49,0.1,0.6,0.12l0,0a0.67,0.67,0,0,0,0,.34,1.64,1.64,0,0,0,1.07.41h0a0.71,0.71,0,0,0,0,.33,1.48,1.48,0,0,0,1.08.38l0,0a0.67,0.67,0,0,0,0,.33,1.64,1.64,0,0,0,1.1.34h0a0.69,0.69,0,0,0,0,.33,1.57,1.57,0,0,0,1.09.33h0a0.66,0.66,0,0,0,0,.33,0.45,0.45,0,0,0,.35.2l0.22-.38H23.56Z"/><path class="cls-3" d="M17.3,23.8h0a0.72,0.72,0,0,0,0-.33,1.63,1.63,0,0,0-1.09-.33l0,0a0.68,0.68,0,0,0,0-.33,0.61,0.61,0,0,0-.49-0.26c-0.23-.06-0.48-0.09-0.59-0.11h0a0.72,0.72,0,0,0,0-.33A1.62,1.62,0,0,0,14,21.66l0,0a0.69,0.69,0,0,0,0-.34,1.8,1.8,0,0,0-1.06-.43h0a0.72,0.72,0,0,0,0-.33,1.62,1.62,0,0,0-1-.47l0,0a0.69,0.69,0,0,0,0-.33,1.79,1.79,0,0,0-1-.49h0a0.72,0.72,0,0,0,0-.33,1.62,1.62,0,0,0-1-.53l0,0a0.69,0.69,0,0,0,0-.32,1.81,1.81,0,0,0-1-.56h0a0.72,0.72,0,0,0,.06-0.32,1.62,1.62,0,0,0-1-.59,0.16,0.16,0,0,1,0,0,0.68,0.68,0,0,0,.06-0.32,1.75,1.75,0,0,0-1-.62h0A0.71,0.71,0,0,0,7,15.21a1.63,1.63,0,0,0-1-.64l0,0a0.71,0.71,0,0,0,.09-0.32,1.61,1.61,0,0,0-.91-0.68h0a0.7,0.7,0,0,0,.1-0.32,1.76,1.76,0,0,0-.9-0.7l0,0a0.71,0.71,0,0,0,.11-0.32,1.63,1.63,0,0,0-.89-0.72h0a0.72,0.72,0,0,0,.11-0.31,1.61,1.61,0,0,0-.85-0.76l0,0A0.69,0.69,0,0,0,2.89,10a1.7,1.7,0,0,0-.83-0.78h0a0.7,0.7,0,0,0,.13-0.3,1.73,1.73,0,0,0-.81-0.81l0,0a0.7,0.7,0,0,0,.15-0.3,0.64,0.64,0,0,0-.31-0.47L1,7.7,1.15,7.8l0,0a0.68,0.68,0,0,0-.15.3A1.56,1.56,0,0,0,1.84,9h0a0.69,0.69,0,0,0-.13.3,1.59,1.59,0,0,0,.83.79l0,0a0.67,0.67,0,0,0-.13.31,1.63,1.63,0,0,0,.86.76h0a0.71,0.71,0,0,0-.12.31,1.63,1.63,0,0,0,.89.73l0,0a0.68,0.68,0,0,0-.11.32,1.51,1.51,0,0,0,.9.71h0a0.69,0.69,0,0,0-.09.32,1.62,1.62,0,0,0,.92.69,0.17,0.17,0,0,1,0,0,0.71,0.71,0,0,0-.09.32,1.64,1.64,0,0,0,1,.64h0a0.69,0.69,0,0,0-.08.32,1.55,1.55,0,0,0,1,.63,0.16,0.16,0,0,1,0,0,0.67,0.67,0,0,0-.06.32,1.64,1.64,0,0,0,1,.59h0a0.69,0.69,0,0,0-.06.33,1.49,1.49,0,0,0,1,.57l0,0a0.67,0.67,0,0,0,0,.33,1.64,1.64,0,0,0,1,.54h0a0.7,0.7,0,0,0,0,.33,0.62,0.62,0,0,0,.44.35c0.23,0.08.48,0.13,0.59,0.16l0,0a0.68,0.68,0,0,0,0,.34,1.64,1.64,0,0,0,1,.47h0a0.71,0.71,0,0,0,0,.33,0.62,0.62,0,0,0,.46.32c0.23,0.07.49,0.1,0.6,0.12l0,0a0.67,0.67,0,0,0,0,.34,1.64,1.64,0,0,0,1.07.41h0a0.7,0.7,0,0,0,0,.33,1.48,1.48,0,0,0,1.08.38l0,0a0.66,0.66,0,0,0,0,.33,1.64,1.64,0,0,0,1.1.34h0A0.7,0.7,0,0,0,17,24a1,1,0,0,0,.75.3L18.31,24A2.66,2.66,0,0,0,17.3,23.8Z"/><path class="cls-3" d="M19,23.24h0a0.67,0.67,0,0,0,0-.33,1.75,1.75,0,0,0-1.09-.32h0a0.71,0.71,0,0,0,0-.33,1.62,1.62,0,0,0-1.09-.34l0,0a0.69,0.69,0,0,0,0-.34,0.61,0.61,0,0,0-.49-0.26c-0.23-.06-0.48-0.09-0.59-0.11h0a0.72,0.72,0,0,0,0-.33,1.62,1.62,0,0,0-1.07-.41l0,0a0.69,0.69,0,0,0,0-.34,1.8,1.8,0,0,0-1.06-.43h0a0.73,0.73,0,0,0,0-.33,1.62,1.62,0,0,0-1-.47l0,0a0.69,0.69,0,0,0,0-.33,1.79,1.79,0,0,0-1-.49h0a0.72,0.72,0,0,0,0-.33,1.62,1.62,0,0,0-1-.53l0,0a0.69,0.69,0,0,0,0-.32,1.81,1.81,0,0,0-1-.56h0a0.72,0.72,0,0,0,.06-0.32,1.62,1.62,0,0,0-1-.59,0.16,0.16,0,0,1,0,0,0.68,0.68,0,0,0,.06-0.32,1.75,1.75,0,0,0-1-.62h0A0.71,0.71,0,0,0,7.52,14a1.63,1.63,0,0,0-1-.64l0,0A0.71,0.71,0,0,0,6.62,13a1.61,1.61,0,0,0-.91-0.68h0A0.7,0.7,0,0,0,5.78,12a1.75,1.75,0,0,0-.9-0.7l0,0A0.71,0.71,0,0,0,5,10.94a1.63,1.63,0,0,0-.89-0.72h0A0.72,0.72,0,0,0,4.17,9.9a1.62,1.62,0,0,0-.85-0.76l0,0A0.69,0.69,0,0,0,3.41,8.8,1.7,1.7,0,0,0,2.58,8h0A0.7,0.7,0,0,0,2.7,7.7,1.73,1.73,0,0,0,1.89,6.9l0,0A0.7,0.7,0,0,0,2,6.56a0.51,0.51,0,0,0-.21-0.39l-0.2.35,0.07,0,0,0a0.68,0.68,0,0,0-.15.3,1.56,1.56,0,0,0,.81.82h0a0.69,0.69,0,0,0-.13.3,1.59,1.59,0,0,0,.83.79l0,0A0.68,0.68,0,0,0,3,9.18a1.63,1.63,0,0,0,.86.76h0a0.7,0.7,0,0,0-.12.31,1.62,1.62,0,0,0,.89.73l0,0a0.69,0.69,0,0,0-.11.32,1.51,1.51,0,0,0,.9.71h0a0.68,0.68,0,0,0-.09.32,1.63,1.63,0,0,0,.92.69,0.16,0.16,0,0,1,0,0,0.71,0.71,0,0,0-.09.32,1.64,1.64,0,0,0,1,.64h0a0.69,0.69,0,0,0-.08.32,1.55,1.55,0,0,0,1,.63,0.17,0.17,0,0,1,0,0,0.67,0.67,0,0,0-.06.32A1.64,1.64,0,0,0,9,16H9a0.7,0.7,0,0,0-.06.33,1.49,1.49,0,0,0,1,.57l0,0a0.67,0.67,0,0,0,0,.33,1.63,1.63,0,0,0,1,.54h0a0.7,0.7,0,0,0,0,.33,0.62,0.62,0,0,0,.44.35c0.23,0.08.48,0.13,0.59,0.16l0,0A0.68,0.68,0,0,0,12,19a1.64,1.64,0,0,0,1,.47h0a0.71,0.71,0,0,0,0,.33,0.62,0.62,0,0,0,.46.32c0.23,0.06.49,0.1,0.6,0.12l0,0a0.68,0.68,0,0,0,0,.34,1.64,1.64,0,0,0,1.07.41h0a0.71,0.71,0,0,0,0,.33,1.48,1.48,0,0,0,1.08.38l0,0a0.66,0.66,0,0,0,0,.33,1.64,1.64,0,0,0,1.1.34h0a0.7,0.7,0,0,0,0,.33,1.58,1.58,0,0,0,1.09.33h0a0.66,0.66,0,0,0,0,.33,0.44,0.44,0,0,0,.34.2l0.57-.35C19.37,23.25,19.1,23.25,19,23.24Z"/></svg>