<svg id="Layer_1" data-name="Layer 1" xmlns="http://www.w3.org/2000/svg" viewBox="0 0 170 170"><defs><style>.cls-1,.cls-3{fill:#eee6da;}.cls-2{fill:#e5d8c7;}.cls-3{stroke:#e1cfc0;}.cls-14,.cls-23,.cls-3,.cls-4,.cls-5{stroke-miterlimit:10;}.cls-14,.cls-3{stroke-width:0.5px;}.cls-14,.cls-21,.cls-4{fill:#fff;}.cls-4,.cls-5{stroke:#231f20;}.cls-23,.cls-4,.cls-5{stroke-width:0.25px;}.cls-18,.cls-5{fill:#4580bd;}.cls-6{fill:#58b6e1;}.cls-7{fill:#837765;}.cls-8{fill:#afc5e3;}.cls-9{fill:#5dc0de;}.cls-10{fill:#867764;}.cls-11{fill:#d28a58;}.cls-12{fill:#468847;}.cls-13{fill:#989898;}.cls-14{stroke:#58b6e1;}.cls-15{fill:#654e9b;}.cls-16{fill:#95c149;}.cls-17{fill:#386798;}.cls-19{fill:#a4cf62;}.cls-20{fill:#0c0c0c;}.cls-22{fill:#80a83f;}.cls-23{fill:#fedd56;stroke:#010101;}.cls-24{fill:#fec553;}.cls-25{fill:#edaa33;}</style></defs><title>plan_box</title><polygon class="cls-1" points="117.06 89.66 117.06 137.28 75.81 162.41 75.81 114.78 117.06 89.66"/><polygon class="cls-2" points="36.06 89.66 36.06 138.03 75.81 162.41 75.81 114.78 36.06 89.66"/><polygon class="cls-2" points="75.81 64.16 75.81 114.78 117.06 89.66 75.81 64.16"/><polygon class="cls-1" points="75.81 64.16 36.06 89.66 75.81 114.78 75.81 64.16"/><polygon class="cls-3" points="75.81 64.16 49.19 42.78 9.06 68.66 36.06 89.66 75.81 64.16"/><polygon class="cls-3" points="117.06 89.66 142.56 68.28 101.31 42.78 75.81 64.16 117.06 89.66"/><polygon class="cls-3" points="75.81 114.78 101.69 136.16 142.56 110.28 117.06 89.66 75.81 114.78"/><polygon class="cls-3" points="35.48 89.66 8.48 110.66 49.73 136.16 75.23 114.78 35.48 89.66"/><rect class="cls-4" x="110.46" y="14.69" width="46.14" height="42.4" transform="translate(23.14 -47.37) rotate(21.98)"/><rect class="cls-5" x="117.42" y="16.04" width="46.14" height="5.18" transform="matrix(0.93, 0.37, -0.37, 0.93, 17.18, -51.23)"/><circle class="cls-6" cx="121.86" cy="11.11" r="1.17" transform="translate(65.95 119.95) rotate(-68.02)"/><circle class="cls-6" cx="124.81" cy="12.3" r="1.17" transform="translate(66.69 123.44) rotate(-68.02)"/><circle class="cls-6" cx="127.77" cy="13.5" r="1.17" transform="matrix(0.37, -0.93, 0.93, 0.37, 67.43, 126.93)"/><rect class="cls-7" x="135.92" y="39.59" width="11.65" height="0.69" transform="translate(25.25 -50.15) rotate(21.98)"/><rect class="cls-7" x="135.48" y="49.14" width="5.24" height="0.69" transform="translate(28.56 -48.09) rotate(21.98)"/><rect class="cls-8" x="135.01" y="41.73" width="11.65" height="0.92" transform="translate(26.03 -49.64) rotate(21.98)"/><rect class="cls-9" x="132.14" y="42.75" width="4.01" height="1.62" transform="translate(26.05 -47.04) rotate(21.98)"/><rect class="cls-9" x="135.01" y="45.84" width="4.01" height="1.62" transform="translate(27.42 -47.89) rotate(21.98)"/><rect class="cls-10" x="133.47" y="50.65" width="7.4" height="2.11" transform="translate(29.32 -47.58) rotate(21.98)"/><rect class="cls-7" x="133.93" y="31.55" width="10.22" height="0.69" transform="translate(22.04 -49.72) rotate(21.98)"/><rect class="cls-7" x="145.22" y="36.11" width="10.22" height="0.69" transform="translate(24.57 -53.61) rotate(21.98)"/><rect class="cls-11" x="146.47" y="37.64" width="5.76" height="0.46" transform="translate(25.03 -53.15) rotate(21.98)"/><rect class="cls-11" x="135.34" y="33.15" width="5.76" height="0.46" transform="translate(22.54 -49.3) rotate(21.98)"/><ellipse class="cls-12" cx="137.25" cy="44.67" rx="0.75" ry="0.87" transform="translate(44.46 155.22) rotate(-68.02)"/><ellipse class="cls-13" cx="146.65" cy="48.46" rx="0.75" ry="0.87" transform="translate(46.82 166.32) rotate(-68.02)"/><ellipse class="cls-13" cx="144.77" cy="47.7" rx="0.75" ry="0.87" transform="translate(46.35 164.1) rotate(-68.02)"/><ellipse class="cls-13" cx="142.89" cy="46.95" rx="0.75" ry="0.87" transform="translate(45.88 161.88) rotate(-68.02)"/><ellipse class="cls-13" cx="141.01" cy="46.19" rx="0.75" ry="0.87" transform="translate(45.4 159.66) rotate(-68.02)"/><ellipse class="cls-13" cx="139.13" cy="45.43" rx="0.75" ry="0.87" transform="translate(44.93 157.44) rotate(-68.02)"/><ellipse class="cls-12" cx="140.05" cy="47.81" rx="0.75" ry="0.87" transform="translate(43.3 159.79) rotate(-68.02)"/><ellipse class="cls-13" cx="141.93" cy="48.57" rx="0.75" ry="0.87" transform="translate(43.77 162) rotate(-68.02)"/><line class="cls-14" x1="136.36" y1="21.2" x2="123.72" y2="52.54"/><rect class="cls-15" x="118.15" y="17.72" width="12.53" height="1.36" transform="translate(15.93 -45.23) rotate(21.98)"/><rect class="cls-15" x="116.95" y="20.68" width="12.53" height="1.36" transform="translate(16.95 -44.56) rotate(21.98)"/><rect class="cls-15" x="115.76" y="23.63" width="12.53" height="1.36" transform="translate(17.97 -43.9) rotate(21.98)"/><rect class="cls-15" x="107.41" y="44.76" width="17.01" height="1.36" transform="translate(25.43 -40.08) rotate(21.98)"/><rect class="cls-16" x="112.54" y="27.07" width="17.01" height="11.32" transform="translate(21.05 -42.92) rotate(21.98)"/><rect class="cls-17" x="109.01" y="39.13" width="17.01" height="4.65" transform="translate(24.06 -40.97) rotate(21.98)"/><path class="cls-18" d="M139.36,24.93l0.11-.1c0.05,0,.1-0.05.13,0a2.48,2.48,0,0,0,1.27,1.22c0.44,0.27.93,0.46,1.37,0.75a3,3,0,0,1,1,.94,0.31,0.31,0,0,1,0,.33,10.54,10.54,0,0,0-.46,1.33,3.39,3.39,0,0,1-.34.73c0,0.07-.09.12-0.18,0a3.3,3.3,0,0,0-1.32-.55c-0.64-.14-1.28-0.24-1.91-0.38a4.73,4.73,0,0,1-1.5-.52c-0.23-.14-0.24-0.17-0.05-0.36a3.75,3.75,0,0,0,.79-1.35c0.19-.48.36-1,0.6-1.44A2.33,2.33,0,0,1,139.36,24.93Z"/><path class="cls-18" d="M150.71,29.5l0.11-.1c0.05,0,.1-0.05.13,0a2.48,2.48,0,0,0,1.27,1.22c0.44,0.27.93,0.46,1.37,0.75a3,3,0,0,1,1,.94,0.31,0.31,0,0,1,0,.33,10.54,10.54,0,0,0-.46,1.33,3.39,3.39,0,0,1-.34.73c0,0.07-.09.12-0.18,0a3.3,3.3,0,0,0-1.32-.55c-0.64-.14-1.28-0.24-1.91-0.38a4.73,4.73,0,0,1-1.5-.52c-0.23-.14-0.24-0.17-0.05-0.36a3.75,3.75,0,0,0,.79-1.35c0.19-.48.36-1,0.6-1.44A2.33,2.33,0,0,1,150.71,29.5Z"/><path class="cls-19" d="M78.46,72.87a2.11,2.11,0,0,1-1.58,2.52L51.46,81.47a2.11,2.11,0,0,1-2.55-1.53L40.2,43.57a2.11,2.11,0,0,1,1.58-2.52L67.21,35a2.11,2.11,0,0,1,2.55,1.53Z"/><path class="cls-20" d="M76.9,75.48L51.48,81.56A2.2,2.2,0,0,1,48.82,80L40.11,43.59A2.2,2.2,0,0,1,41.76,41l25.42-6.08a2.2,2.2,0,0,1,2.66,1.6l8.71,36.37A2.2,2.2,0,0,1,76.9,75.48ZM41.8,41.14a2,2,0,0,0-1.51,2.41L49,79.92a2,2,0,0,0,2.43,1.46L76.86,75.3a2,2,0,0,0,1.51-2.41L69.66,36.52a2,2,0,0,0-2.43-1.46Z"/><rect class="cls-7" x="50.79" y="55.62" width="13.67" height="0.81" transform="translate(-11.46 14.95) rotate(-13.46)"/><rect class="cls-7" x="57.56" y="67.23" width="6.15" height="0.81" transform="translate(-14.08 15.97) rotate(-13.46)"/><rect class="cls-21" x="51.45" y="58.26" width="13.67" height="1.08" transform="translate(-12.09 15.18) rotate(-13.46)"/><rect class="cls-9" x="50.48" y="63.72" width="4.71" height="1.9" transform="translate(-13.6 14.07) rotate(-13.46)"/><rect class="cls-9" x="55.32" y="64.72" width="4.71" height="1.9" transform="translate(-13.7 15.23) rotate(-13.46)"/><rect class="cls-10" x="56.91" y="69.06" width="9.49" height="2.47" transform="translate(-14.67 16.28) rotate(-13.46)"/><rect class="cls-7" x="43.57" y="49.79" width="11.99" height="0.81" transform="translate(-10.32 12.92) rotate(-13.46)"/><rect class="cls-7" x="57.47" y="46.46" width="11.99" height="0.81" transform="translate(-9.17 16.06) rotate(-13.46)"/><rect class="cls-11" x="60.11" y="48.61" width="6.76" height="0.54" transform="translate(-9.63 16.12) rotate(-13.46)"/><rect class="cls-11" x="46.41" y="51.89" width="6.76" height="0.54" transform="translate(-10.77 13.02) rotate(-13.46)"/><ellipse class="cls-12" cx="56.54" cy="63.62" rx="1.02" ry="0.88" transform="translate(-13.25 14.91) rotate(-13.46)"/><ellipse class="cls-13" cx="68.11" cy="60.85" rx="1.02" ry="0.88" transform="translate(-12.29 17.53) rotate(-13.46)"/><ellipse class="cls-13" cx="65.8" cy="61.4" rx="1.02" ry="0.88" transform="translate(-12.48 17) rotate(-13.46)"/><ellipse class="cls-13" cx="63.48" cy="61.95" rx="1.02" ry="0.88" transform="translate(-12.68 16.48) rotate(-13.46)"/><ellipse class="cls-13" cx="61.17" cy="62.51" rx="1.02" ry="0.88" transform="translate(-12.87 15.96) rotate(-13.46)"/><ellipse class="cls-13" cx="58.86" cy="63.06" rx="1.02" ry="0.88" transform="translate(-13.06 15.43) rotate(-13.46)"/><ellipse class="cls-12" cx="61.36" cy="64.71" rx="1.02" ry="0.88" transform="translate(-13.38 16.06) rotate(-13.46)"/><ellipse class="cls-13" cx="63.67" cy="64.16" rx="1.02" ry="0.88" transform="translate(-13.19 16.58) rotate(-13.46)"/><line class="cls-19" x1="48.37" y1="77.68" x2="77.92" y2="70.61"/><rect class="cls-20" x="47.95" y="74.05" width="30.38" height="0.19" transform="translate(-15.53 16.73) rotate(-13.46)"/><circle class="cls-19" cx="63.65" cy="76.26" r="1.12" transform="translate(-16 16.91) rotate(-13.46)"/><path class="cls-20" d="M63.93,77.44a1.21,1.21,0,1,1,.9-1.46A1.21,1.21,0,0,1,63.93,77.44Zm-0.52-2.18a1,1,0,1,0,1.24.76A1,1,0,0,0,63.41,75.26Z"/><path class="cls-22" d="M45.64,42.78l0-.18c0-.08.07-0.13,0.15-0.07a3.09,3.09,0,0,0,2.16.35c0.65,0,1.28-.19,1.93-0.2a3.69,3.69,0,0,1,1.67.27,0.39,0.39,0,0,1,.26.32A13.14,13.14,0,0,0,52.33,45a4.23,4.23,0,0,1,.17,1c0,0.11,0,.18-0.15.18a4.12,4.12,0,0,0-1.75.38c-0.75.31-1.48,0.66-2.23,1a5.9,5.9,0,0,1-1.9.54c-0.33,0-.36,0-0.3-0.33A4.68,4.68,0,0,0,46,45.74c-0.14-.63-0.32-1.25-0.41-1.9A2.9,2.9,0,0,1,45.64,42.78Z"/><path class="cls-22" d="M58.25,40.06l0-.18c0-.08.07-0.13,0.15-0.07a3.09,3.09,0,0,0,2.16.35c0.65,0,1.28-.19,1.93-0.2a3.69,3.69,0,0,1,1.67.27,0.39,0.39,0,0,1,.26.32,13.14,13.14,0,0,0,.47,1.69,4.23,4.23,0,0,1,.17,1c0,0.11,0,.18-0.15.18a4.12,4.12,0,0,0-1.75.38c-0.75.31-1.48,0.66-2.23,1a5.9,5.9,0,0,1-1.9.54c-0.33,0-.36,0-0.3-0.33A4.68,4.68,0,0,0,58.63,43c-0.14-.63-0.32-1.25-0.41-1.9A2.9,2.9,0,0,1,58.25,40.06Z"/><polygon class="cls-23" points="88.12 105.9 54.09 86.77 82.04 37.05 111.56 53.65 112.29 58.13 112.9 61.81 88.12 105.9"/><rect class="cls-7" x="76.95" y="65.98" width="18.77" height="1.11" transform="translate(45.64 -34.58) rotate(30.46)"/><rect class="cls-7" x="74.04" y="80.33" width="8.44" height="1.11" transform="translate(51.8 -28.51) rotate(30.46)"/><rect class="cls-8" x="74.97" y="69.18" width="18.77" height="1.48" transform="translate(47.08 -33.11) rotate(30.46)"/><rect class="cls-9" x="69.48" y="69.1" width="6.47" height="2.61" transform="translate(44.44 -26.78) rotate(29.7)"/><rect class="cls-9" x="73.97" y="74.82" width="6.47" height="2.61" transform="matrix(0.86, 0.51, -0.51, 0.86, 49.24, -28.63)"/><rect class="cls-10" x="70.3" y="82.51" width="11.92" height="3.4" transform="translate(53.2 -27.03) rotate(30.46)"/><rect class="cls-7" x="74.56" y="54.94" width="16.46" height="1.11" transform="matrix(0.86, 0.51, -0.51, 0.86, 39.55, -34.31)"/><rect class="cls-7" x="91.48" y="64.89" width="16.46" height="1.11" transform="translate(46.93 -41.51) rotate(30.46)"/><rect class="cls-11" x="93.17" y="67.09" width="9.28" height="0.74" transform="translate(47.69 -40.27) rotate(30.46)"/><rect class="cls-11" x="76.5" y="57.29" width="9.28" height="0.74" transform="matrix(0.86, 0.51, -0.51, 0.86, 40.42, -33.17)"/><ellipse class="cls-12" cx="78.04" cy="73.02" rx="1.21" ry="1.4" transform="translate(-24.46 103.28) rotate(-59.54)"/><ellipse class="cls-13" cx="92.12" cy="81.3" rx="1.21" ry="1.4" transform="translate(-24.65 119.5) rotate(-59.54)"/><ellipse class="cls-13" cx="89.31" cy="79.64" rx="1.21" ry="1.4" transform="translate(-24.61 116.26) rotate(-59.54)"/><ellipse class="cls-13" cx="86.49" cy="77.98" rx="1.21" ry="1.4" transform="matrix(0.51, -0.86, 0.86, 0.51, -24.57, 113.01)"/><ellipse class="cls-13" cx="83.67" cy="76.33" rx="1.21" ry="1.4" transform="translate(-24.54 109.77) rotate(-59.54)"/><ellipse class="cls-13" cx="80.86" cy="74.67" rx="1.21" ry="1.4" transform="translate(-24.5 106.52) rotate(-59.54)"/><ellipse class="cls-12" cx="81.76" cy="78.69" rx="1.21" ry="1.4" transform="translate(-27.51 109.28) rotate(-59.54)"/><ellipse class="cls-13" cx="84.57" cy="80.34" rx="1.21" ry="1.4" transform="translate(-27.55 112.52) rotate(-59.54)"/><polyline class="cls-24" points="111.37 53.98 108.47 59.14 112.54 61.6"/><path class="cls-25" d="M85.7,44.56l0.21-.13c0.1-.06.18-0.06,0.21,0.07a4,4,0,0,0,1.73,2.28c0.65,0.54,1.38,1,2,1.54a4.82,4.82,0,0,1,1.33,1.76,0.51,0.51,0,0,1,0,.54,17.17,17.17,0,0,0-1.08,2,5.53,5.53,0,0,1-.73,1.09c-0.09.11-.18,0.16-0.3,0a5.38,5.38,0,0,0-2-1.21c-1-.38-2-0.71-3-1.09a7.7,7.7,0,0,1-2.28-1.21c-0.34-.28-0.33-0.34,0-0.58a6.11,6.11,0,0,0,1.61-2c0.43-.73.83-1.48,1.32-2.17A3.79,3.79,0,0,1,85.7,44.56Z"/><path class="cls-25" d="M101.32,54.24l0.21-.13c0.1-.06.18-0.06,0.21,0.07a4,4,0,0,0,1.73,2.28c0.65,0.54,1.38,1,2,1.54a4.82,4.82,0,0,1,1.33,1.76,0.51,0.51,0,0,1,0,.54,17.17,17.17,0,0,0-1.08,2,5.53,5.53,0,0,1-.73,1.09c-0.09.11-.18,0.16-0.3,0a5.38,5.38,0,0,0-2-1.21c-1-.38-2-0.71-3-1.09a7.7,7.7,0,0,1-2.28-1.21c-0.34-.28-0.33-0.34,0-0.58a6.11,6.11,0,0,0,1.61-2c0.43-.73.83-1.48,1.32-2.17A3.79,3.79,0,0,1,101.32,54.24Z"/><polygon class="cls-25" points="62.32 81.3 60.22 84.94 85.13 99.27 87.29 95.17 62.32 81.3"/></svg>