<svg id="Layer_1" data-name="Layer 1" xmlns="http://www.w3.org/2000/svg" xmlns:xlink="http://www.w3.org/1999/xlink" viewBox="0 0 32.95 33.86"><defs><style>.cls-1{fill:none;stroke-miterlimit:10;stroke:url(#linear-gradient);}.cls-2{fill:url(#linear-gradient-2);}</style><linearGradient id="linear-gradient" x1="8.53" y1="25" x2="41.47" y2="25" gradientUnits="userSpaceOnUse"><stop offset="0" stop-color="#fbcc4e"/><stop offset="1" stop-color="#fbdf33"/></linearGradient><linearGradient id="linear-gradient-2" x1="15.26" x2="34.74" xlink:href="#linear-gradient"/></defs><title>icon</title><path class="cls-1" d="M40.22,28.48l-1.13-.65a14.17,14.17,0,0,0,0-5.65l1.13-.65a1.51,1.51,0,0,0,.55-2.06l-3.09-5.35a1.51,1.51,0,0,0-2.06-.55l-1.13.65a14.46,14.46,0,0,0-4.89-2.83v-1.3a1.51,1.51,0,0,0-1.51-1.51H21.91a1.51,1.51,0,0,0-1.51,1.51v1.3a14.46,14.46,0,0,0-4.89,2.83l-1.14-.66a1.51,1.51,0,0,0-2.06.55L9.23,19.46a1.51,1.51,0,0,0,.55,2.06l1.13,0.65a14.17,14.17,0,0,0,0,5.65l-1.13.65a1.51,1.51,0,0,0-.55,2.06l3.09,5.35a1.51,1.51,0,0,0,2.06.55l1.13-.65a14.47,14.47,0,0,0,4.89,2.83v1.3a1.51,1.51,0,0,0,1.51,1.51h6.17a1.51,1.51,0,0,0,1.51-1.51v-1.3a14.46,14.46,0,0,0,4.89-2.83l1.14,0.66a1.51,1.51,0,0,0,2.06-.55l3.09-5.35a1.51,1.51,0,0,0-.55-2.06h0Zm-0.28,1.58L36.85,35.4a0.55,0.55,0,0,1-.75.2l-1.44-.83a0.48,0.48,0,0,0-.57.06,13.48,13.48,0,0,1-5.12,3,0.48,0.48,0,0,0-.34.46v1.65a0.55,0.55,0,0,1-.55.55H21.91a0.55,0.55,0,0,1-.55-0.55V38.27A0.48,0.48,0,0,0,21,37.81a13.47,13.47,0,0,1-5.13-3,0.48,0.48,0,0,0-.57-0.06l-1.43.83a0.55,0.55,0,0,1-.75-0.2l-3.09-5.35a0.55,0.55,0,0,1,.2-0.75l1.43-.83A0.48,0.48,0,0,0,11.93,28a13.25,13.25,0,0,1,0-5.92,0.48,0.48,0,0,0-.23-0.52l-1.44-.83a0.55,0.55,0,0,1-.2-0.75l3.09-5.35a0.55,0.55,0,0,1,.75-0.2l1.44,0.83a0.48,0.48,0,0,0,.57-0.06,13.46,13.46,0,0,1,5.12-3,0.48,0.48,0,0,0,.34-0.46V10.08a0.55,0.55,0,0,1,.55-0.55h6.17a0.55,0.55,0,0,1,.55.55v1.65a0.48,0.48,0,0,0,.34.46,13.48,13.48,0,0,1,5.13,3,0.48,0.48,0,0,0,.57.06l1.43-.83a0.55,0.55,0,0,1,.75.2l3.09,5.35a0.55,0.55,0,0,1-.2.75l-1.43.83a0.48,0.48,0,0,0-.23.52,13.26,13.26,0,0,1,0,5.92,0.48,0.48,0,0,0,.23.52l1.44,0.83a0.55,0.55,0,0,1,.2.75h0Zm0,0" transform="translate(-8.53 -8.07)"/><path class="cls-2" d="M25,15.26A9.74,9.74,0,1,0,34.74,25,9.75,9.75,0,0,0,25,15.26h0Zm0,18.52A8.78,8.78,0,1,1,33.78,25,8.79,8.79,0,0,1,25,33.78h0Zm0,0" transform="translate(-8.53 -8.07)"/></svg>