<svg xmlns="http://www.w3.org/2000/svg" xmlns:xlink="http://www.w3.org/1999/xlink" viewBox="0 0 134.95 135"><defs><style>.cls-1,.cls-2{fill:#62cbfc;}.cls-2{stroke:#5bb5dd;stroke-width:0.5px;}.cls-2,.cls-3{stroke-miterlimit:10;}.cls-3{fill:#fff;stroke:#141413;stroke-width:0.25px;}.cls-4{fill:#50667e;}.cls-5{fill:#b8d1e6;}.cls-6{fill:#cee2f2;}.cls-7{fill:#21d8de;}.cls-8{fill:#2a445e;}.cls-9{fill:#ff6d3b;}.cls-10{fill:#837764;}.cls-11{fill:#afc5e4;}.cls-12{fill:#5bc0de;}.cls-13{fill:#857763;}.cls-14{fill:#d38a58;}.cls-15{fill:#468847;}.cls-16{fill:#999;}.cls-17{fill:#ffc451;}.cls-18{fill:#95c149;}.cls-19{fill:#4bc1ef;}.cls-20{fill:#fbb800;}.cls-21{fill:url(#linear-gradient);}.cls-22{fill:url(#linear-gradient-2);}.cls-23{fill:url(#linear-gradient-3);}.cls-24{fill:url(#linear-gradient-4);}.cls-25{fill:url(#linear-gradient-5);}.cls-26{fill:#fec330;}</style><linearGradient id="linear-gradient" x1="-5152.08" y1="2606.13" x2="-5152.08" y2="2605.71" gradientTransform="matrix(16.26, 0, 0, -61.87, 83880.8, 161274.61)" gradientUnits="userSpaceOnUse"><stop offset="0" stop-color="#ffe35e"/><stop offset="1" stop-color="#fec330"/></linearGradient><linearGradient id="linear-gradient-2" x1="-5427.2" y1="2624.91" x2="-5427.2" y2="2624.49" gradientTransform="matrix(90.18, 0, 0, -116.34, 489473.46, 305404.04)" xlink:href="#linear-gradient"/><linearGradient id="linear-gradient-3" x1="-5148.19" y1="2606.18" x2="-5148.19" y2="2605.75" gradientTransform="matrix(16.27, 0, 0, -61.94, 83805.36, 161456.82)" xlink:href="#linear-gradient"/><linearGradient id="linear-gradient-4" x1="-5393.67" y1="2602.78" x2="-5393.67" y2="2602.36" gradientTransform="matrix(58.18, 0, 0, -58.18, 313874.48, 151437.55)" xlink:href="#linear-gradient"/><linearGradient id="linear-gradient-5" x1="-5358.57" y1="2544.78" x2="-5358.57" y2="2544.36" gradientTransform="matrix(42.42, 0, 0, -24.96, 227386.41, 63543.37)" gradientUnits="userSpaceOnUse"><stop offset="0" stop-color="#fff7e0"/><stop offset="1" stop-color="#ffebbe"/></linearGradient></defs><title>Asset 1</title><g id="Layer_2" data-name="Layer 2"><g id="Layer_1-2" data-name="Layer 1"><polygon class="cls-1" points="67.77 36.75 28.02 62.25 67.77 87.38 67.77 36.75"/><polygon class="cls-2" points="67.77 36.75 41.14 15.38 1.02 41.25 28.02 62.25 67.77 36.75"/><path class="cls-3" d="M75.28,45.7,44.08,2.12A4.77,4.77,0,0,0,37.42,1L8.57,21.67l34,47.46Z"/><rect class="cls-4" x="34.06" y="44.3" width="10.01" height="7.9" transform="translate(-20.79 31.76) rotate(-35.6)"/><rect class="cls-5" x="40.97" y="35.14" width="19.52" height="0.91" transform="translate(-11.24 36.19) rotate(-35.6)"/><rect class="cls-5" x="42.29" y="36.98" width="19.52" height="0.91" transform="translate(-12.06 37.3) rotate(-35.6)"/><rect class="cls-5" x="44.53" y="41.67" width="9.76" height="0.91" transform="translate(-15.28 36.63) rotate(-35.6)"/><rect class="cls-4" x="36.32" y="47.48" width="31.62" height="0.91" transform="translate(-18.16 39.31) rotate(-35.6)"/><rect class="cls-5" x="37.64" y="49.32" width="31.62" height="0.91" transform="translate(-18.99 40.42) rotate(-35.6)"/><rect class="cls-5" x="40.44" y="55.77" width="15.81" height="0.91" transform="translate(-23.69 38.65) rotate(-35.6)"/><rect class="cls-5" x="30.03" y="38.56" width="5.03" height="4.84" transform="translate(-17.78 26.61) rotate(-35.6)"/><rect class="cls-5" x="35.18" y="34.7" width="5.03" height="3.33" transform="translate(-14.13 28.74) rotate(-35.6)"/><rect class="cls-5" x="40.6" y="30.75" width="5.03" height="2.77" transform="translate(-10.65 31.11) rotate(-35.6)"/><rect class="cls-5" x="46.68" y="26.6" width="5.03" height="4.45" transform="translate(-7.58 34.03) rotate(-35.6)"/><rect class="cls-6" x="25.05" y="28.06" width="0.92" height="13.27" transform="translate(-15.43 21.33) rotate(-35.6)"/><rect class="cls-7" x="24.68" y="22.62" width="0.92" height="18.39" transform="translate(-13.82 20.58) rotate(-35.6)"/><rect class="cls-8" x="27.79" y="28.04" width="0.92" height="11.53" transform="matrix(0.81, -0.58, 0.58, 0.81, -14.4, 22.76)"/><rect class="cls-9" x="27.8" y="23.8" width="0.92" height="15.32" transform="translate(-13.03 22.33) rotate(-35.6)"/><rect class="cls-6" x="33.4" y="32.67" width="0.92" height="3.77" transform="translate(-13.79 26.17) rotate(-35.6)"/><rect class="cls-7" x="33.12" y="27.51" width="0.92" height="8.58" transform="translate(-12.24 25.49) rotate(-35.6)"/><rect class="cls-8" x="34.7" y="28.15" width="0.92" height="6.99" transform="translate(-11.85 26.38) rotate(-35.6)"/><rect class="cls-9" x="34.16" y="22.22" width="0.92" height="12.66" transform="translate(-10.15 25.49) rotate(-35.6)"/><rect class="cls-6" x="38.77" y="27.99" width="0.92" height="4.52" transform="translate(-10.28 28.49) rotate(-35.6)"/><rect class="cls-7" x="40.13" y="27.93" width="0.92" height="3.71" transform="translate(-9.75 29.19) rotate(-35.6)"/><rect class="cls-8" x="39.25" y="20.94" width="0.92" height="10.53" transform="translate(-7.83 28.02) rotate(-35.6)"/><rect class="cls-9" x="41.3" y="23.05" width="0.92" height="7.32" transform="translate(-7.74 29.31) rotate(-35.6)"/><rect class="cls-6" x="40.76" y="12.76" width="0.92" height="16.9" transform="translate(-4.64 27.96) rotate(-35.6)"/><rect class="cls-7" x="43.42" y="16.78" width="0.92" height="11.59" transform="translate(-4.94 29.76) rotate(-35.6)"/><rect class="cls-8" x="46.02" y="20.62" width="0.92" height="6.47" transform="translate(-5.2 31.52) rotate(-35.6)"/><rect class="cls-9" x="44.87" y="12.74" width="0.92" height="14.28" transform="translate(-3.1 30.1) rotate(-35.6)"/><circle class="cls-8" cx="45.12" cy="12.28" r="0.75" transform="translate(1.29 28.56) rotate(-35.6)"/><circle class="cls-7" cx="47.6" cy="15.74" r="0.75" transform="translate(-0.26 30.65) rotate(-35.6)"/><circle class="cls-6" cx="50.08" cy="19.2" r="0.75" transform="translate(-1.82 32.74) rotate(-35.6)"/><circle class="cls-9" cx="52.55" cy="22.65" r="0.75" transform="translate(-3.37 34.83) rotate(-35.6)"/><polygon class="cls-4" points="28.28 40.87 17.07 25.21 16.64 25.52 16.73 25.65 17.03 25.43 18.54 27.54 18.24 27.75 18.33 27.89 18.64 27.67 20.14 29.77 19.84 29.99 19.93 30.12 20.24 29.9 21.75 32.01 21.44 32.23 21.53 32.36 21.84 32.14 23.35 34.25 23.04 34.47 23.14 34.6 23.44 34.38 24.95 36.48 24.64 36.7 24.74 36.83 25.04 36.62 26.55 38.72 26.25 38.94 26.34 39.07 26.64 38.85 28.24 41.09 51.15 24.68 51.06 24.56 28.28 40.87"/><polygon class="cls-3" points="86.43 65.22 48.88 75.88 33.3 21.01 65.88 11.76 69.57 14.4 72.61 16.56 86.43 65.22"/><rect class="cls-10" x="47.86" y="38.19" width="18.77" height="1.11" transform="translate(-7.97 15.83) rotate(-14.73)"/><rect class="cls-10" x="57.51" y="54.03" width="8.44" height="1.11" transform="translate(-11.85 17.49) rotate(-14.73)"/><rect class="cls-11" x="48.86" y="41.79" width="18.77" height="1.48" transform="translate(-8.9 16.21) rotate(-14.73)"/><rect class="cls-12" x="47.15" y="49.83" width="6.47" height="2.61" transform="translate(-11.82 15.31) rotate(-15.48)"/><rect class="cls-12" x="54.37" y="50.67" width="6.47" height="2.61" transform="translate(-11.32 16.36) rotate(-14.73)"/><rect class="cls-13" x="56.72" y="56.65" width="11.92" height="3.4" transform="translate(-12.78 17.86) rotate(-14.73)"/><rect class="cls-10" x="38.68" y="32.92" width="16.46" height="1.11" transform="translate(-6.97 13.03) rotate(-14.73)"/><rect class="cls-10" x="57.66" y="27.93" width="16.46" height="1.11" transform="translate(-5.08 17.69) rotate(-14.73)"/><rect class="cls-14" x="61.35" y="30.88" width="9.28" height="0.74" transform="translate(-5.78 17.81) rotate(-14.73)"/><rect class="cls-14" x="42.64" y="35.8" width="9.28" height="0.74" transform="matrix(0.97, -0.25, 0.25, 0.97, -7.64, 13.21)"/><ellipse class="cls-15" cx="56" cy="49.19" rx="1.4" ry="1.21" transform="translate(-10.67 15.86) rotate(-14.73)"/><ellipse class="cls-16" cx="71.79" cy="45.04" rx="1.4" ry="1.21" transform="translate(-9.09 19.74) rotate(-14.73)"/><ellipse class="cls-16" cx="68.63" cy="45.87" rx="1.4" ry="1.21" transform="translate(-9.41 18.96) rotate(-14.73)"/><ellipse class="cls-16" cx="65.47" cy="46.7" rx="1.4" ry="1.21" transform="translate(-9.72 18.19) rotate(-14.73)"/><ellipse class="cls-16" cx="62.31" cy="47.53" rx="1.4" ry="1.21" transform="translate(-10.04 17.41) rotate(-14.73)"/><ellipse class="cls-16" cx="59.16" cy="48.36" rx="1.4" ry="1.21" transform="translate(-10.35 16.63) rotate(-14.73)"/><ellipse class="cls-15" cx="62.64" cy="50.55" rx="1.4" ry="1.21" transform="translate(-10.8 17.59) rotate(-14.73)"/><ellipse class="cls-16" cx="65.8" cy="49.72" rx="1.4" ry="1.21" transform="translate(-10.48 18.37) rotate(-14.73)"/><polyline class="cls-17" points="65.98 12.13 67.6 17.82 72.21 16.67"/><path class="cls-18" d="M41.2,23.7c0-.08,0-.16.05-.24s.09-.17.2-.09a4,4,0,0,0,2.84.38c.84-.08,1.67-.29,2.51-.34a4.82,4.82,0,0,1,2.19.3.51.51,0,0,1,.35.41A17.17,17.17,0,0,0,50,26.31a5.53,5.53,0,0,1,.26,1.29c0,.14,0,.24-.19.24a5.38,5.38,0,0,0-2.27.56c-1,.43-1.91.92-2.87,1.35a7.7,7.7,0,0,1-2.47.77c-.44,0-.48,0-.41-.42a6.11,6.11,0,0,0-.27-2.53c-.21-.82-.46-1.63-.61-2.46A3.79,3.79,0,0,1,41.2,23.7Z"/><path class="cls-18" d="M59.08,19.45c0-.08,0-.16.05-.24s.09-.17.2-.09a4,4,0,0,0,2.84.38c.84-.08,1.67-.29,2.51-.34a4.82,4.82,0,0,1,2.19.3.51.51,0,0,1,.35.41,17.17,17.17,0,0,0,.67,2.19,5.53,5.53,0,0,1,.26,1.29c0,.14,0,.24-.19.24a5.38,5.38,0,0,0-2.27.56c-1,.43-1.91.92-2.87,1.35a7.7,7.7,0,0,1-2.47.77c-.44,0-.48,0-.41-.42a6.11,6.11,0,0,0-.27-2.53c-.21-.82-.46-1.63-.61-2.46A3.79,3.79,0,0,1,59.08,19.45Z"/><polygon class="cls-2" points="109.02 62.25 134.52 40.88 93.27 15.38 67.77 36.75 109.02 62.25"/><polygon class="cls-19" points="67.77 36.75 67.77 87.38 109.02 62.25 67.77 36.75"/><g id="Roanuz-Landing-Page"><g id="Group-8"><g id="Robo-2.0"><path id="Shape" class="cls-20" d="M66.48,29.77l2.3,4.41c3.24,4.53,8.54,4.53,11.77,0l2.27-4.35a12.22,12.22,0,0,1-16.33-.05Z"/><path id="Shape-2" data-name="Shape" class="cls-20" d="M93.93,45.15c-1.34-1-2.43-.4-2.43,1.24v4.5c0,1.64,1.09,2.19,2.43,1.24l3.36-1.75a2,2,0,0,0,0-3.47Z"/><path id="Shape-3" data-name="Shape" class="cls-21" d="M94.9,43.06a5.32,5.32,0,0,1,4.94,5.32V62.7a3.35,3.35,0,1,1-2.89,0V53.13a5.2,5.2,0,0,1-2.05.56m0,4.14,0,.95"/><path id="Shape-4" data-name="Shape" class="cls-20" d="M55,45.15c1.34-1,2.43-.4,2.43,1.24v4.5c0,1.64-1.09,2.19-2.43,1.24l-3.36-1.74a2,2,0,0,1,0-3.47Z"/><path id="Shape-5" data-name="Shape" class="cls-20" d="M63,68.32c-3.24-4.53-1.35-8.23,4.2-8.23H82.48c5.55,0,7.43,3.7,4.2,8.23L80.74,79.7c-3.24,4.53-8.54,4.53-11.77,0Z"/><path id="Shape-6" data-name="Shape" class="cls-22" d="M86.58,30.1a15.9,15.9,0,0,1-24.14,0c-4.17,2.34-6.89,6.09-6.89,10.31V66.23c0,7,7.57,12.8,16.82,12.8h4.27c9.25,0,16.82-5.76,16.82-12.8V40.41C93.47,36.2,90.75,32.44,86.58,30.1Z"/><path id="Shape-7" data-name="Shape" class="cls-23" d="M54.08,53.69A5.2,5.2,0,0,1,52,53.13v9.58a3.33,3.33,0,1,1-2.89,0V48.38a5.32,5.32,0,0,1,4.94-5.32m0,14.77,0,.95"/><circle id="Oval" class="cls-20" cx="70.25" cy="42.26" r="1.28"/><circle id="Oval-2" data-name="Oval" class="cls-20" cx="74.74" cy="42.26" r="1.28"/><circle id="Oval-3" data-name="Oval" class="cls-20" cx="79.23" cy="42.26" r="1.28"/><path id="Shape-8" data-name="Shape" class="cls-24" d="M86.78,23.79a12.26,12.26,0,0,0-23-7.32h0a12.33,12.33,0,0,0-1.34,5.64,12.55,12.55,0,0,0,.13,1.71v0a12.22,12.22,0,0,0,20.24,7.41l.07-.13-.07.13a12.19,12.19,0,0,0,4-7.48Z"/><path id="Shape-9" data-name="Shape" class="cls-20" d="M78.54,28c0,1.3-1.73,2.35-3.86,2.35S70.81,29.26,70.81,28Z"/><path id="Shape-10" data-name="Shape" class="cls-25" d="M81.45,24.73a8.92,8.92,0,0,1-3.12,0c-.67-.11-3.15-.33-3.54-.37h-.12c-.39,0-2.87.25-3.54.37a8.94,8.94,0,0,1-3.12,0s-2.2-.18-2.2-3A7.34,7.34,0,0,1,68,16.65a11.28,11.28,0,0,1,6.6-2.28h.23a11.28,11.28,0,0,1,6.6,2.28,7.34,7.34,0,0,1,2.2,5.06C83.66,24.54,81.45,24.73,81.45,24.73Z"/><path id="Shape-11" data-name="Shape" class="cls-26" d="M74.85,85.33a7.57,7.57,0,0,0,7.11-5H67.74a7.56,7.56,0,0,0,7.11,5Z"/></g></g></g><polygon class="cls-1" points="109.02 62.25 109.02 109.88 67.77 135 67.77 87.38 109.02 62.25"/><polygon class="cls-19" points="28.02 62.25 28.02 110.63 67.77 135 67.77 87.38 28.02 62.25"/><polygon class="cls-2" points="27.44 62.25 0.44 83.25 41.69 108.75 67.19 87.38 27.44 62.25"/><polygon class="cls-2" points="67.77 87.38 93.64 108.75 134.52 82.88 109.02 62.25 67.77 87.38"/></g></g></svg>