<svg id="Layer_1" data-name="Layer 1" xmlns="http://www.w3.org/2000/svg" viewBox="0 0 170 170"><defs><style>.cls-1{fill:#5baadd;}.cls-2{fill:#d4eef3;stroke:#91d6e3;}.cls-2,.cls-25,.cls-26,.cls-28,.cls-8{stroke-miterlimit:10;}.cls-2,.cls-28{stroke-width:0.5px;}.cls-25,.cls-28,.cls-3,.cls-8{fill:#fff;}.cls-4{fill:#faac7b;}.cls-5{fill:#30adc1;}.cls-6{fill:#99d3de;}.cls-7{fill:#a4cf62;}.cls-8{stroke:#161615;}.cls-25,.cls-26,.cls-8{stroke-width:0.25px;}.cls-9{fill:#51677f;}.cls-10{fill:#b8d1e5;}.cls-11{fill:#cee2f1;}.cls-12{fill:#50c4d0;}.cls-13{fill:#2b455f;}.cls-14{fill:#f36e41;}.cls-15{fill:#3797d3;}.cls-16{fill:#837765;}.cls-17{fill:#afc5e3;}.cls-18{fill:#5dc0de;}.cls-19{fill:#867764;}.cls-20{fill:#d28a58;}.cls-21{fill:#468847;}.cls-22{fill:#989898;}.cls-23{fill:#fec553;}.cls-24{fill:#95c149;}.cls-25,.cls-26{stroke:#231f20;}.cls-26,.cls-31{fill:#4580bd;}.cls-27{fill:#58b6e1;}.cls-28{stroke:#58b6e1;}.cls-29{fill:#654e9b;}.cls-30{fill:#386798;}.cls-32{fill:#a9dff0;}.cls-33{fill:#9bd5ee;}.cls-34{fill:#f05f49;}.cls-35{fill:#fedd56;}.cls-36{fill:#f58663;}.cls-37{fill:#f9aa78;}.cls-38{fill:#fdc015;}.cls-39{fill:#f99b1f;}</style></defs><title>plan_box</title><polygon class="cls-1" points="86.89 63.18 47.14 88.68 86.89 113.8 86.89 63.18"/><polygon class="cls-2" points="86.89 63.18 60.26 41.8 20.14 67.68 47.14 88.68 86.89 63.18"/><ellipse class="cls-3" cx="78.14" cy="26.87" rx="18.62" ry="18.29"/><path class="cls-4" d="M85.74,29.62a8.28,8.28,0,0,1-1.77,3l6,8.44a18.51,18.51,0,0,0,6.08-10.33Z"/><path class="cls-5" d="M79.58,18.93a8.28,8.28,0,0,1,6.53,7.34l10.33,1.14c0-.12,0-0.23,0-0.35A18.56,18.56,0,0,0,79.58,8.57V18.93Z"/><path class="cls-6" d="M71.77,21.49a8.27,8.27,0,0,1,4.43-2.56V8.57a18.52,18.52,0,0,0-13.37,7.65Z"/><path class="cls-7" d="M81.24,34.63A8.23,8.23,0,0,1,70.06,24.4l-8.94-5.27A18.53,18.53,0,0,0,87.26,43.06Z"/><path class="cls-8" d="M84.4,68.12L53.2,24.54a4.77,4.77,0,0,0-6.66-1.1L17.69,44.1l34,47.46Z"/><rect class="cls-9" x="43.18" y="66.72" width="10.01" height="7.9" transform="translate(-32.14 41.26) rotate(-35.6)"/><rect class="cls-10" x="50.09" y="57.56" width="19.52" height="0.91" transform="translate(-22.59 45.69) rotate(-35.6)"/><rect class="cls-10" x="51.41" y="59.41" width="19.52" height="0.91" transform="translate(-23.41 46.8) rotate(-35.6)"/><rect class="cls-10" x="53.65" y="64.09" width="9.76" height="0.91" transform="translate(-26.63 46.14) rotate(-35.6)"/><rect class="cls-9" x="45.44" y="69.91" width="31.62" height="0.91" transform="translate(-29.51 48.81) rotate(-35.6)"/><rect class="cls-10" x="46.76" y="71.75" width="31.62" height="0.91" transform="translate(-30.34 49.92) rotate(-35.6)"/><rect class="cls-10" x="49.56" y="78.2" width="15.81" height="0.91" transform="translate(-35.05 48.15) rotate(-35.6)"/><rect class="cls-10" x="39.15" y="60.99" width="5.03" height="4.84" transform="translate(-29.13 36.11) rotate(-35.6)"/><rect class="cls-10" x="44.3" y="57.13" width="5.03" height="3.33" transform="translate(-25.48 38.24) rotate(-35.6)"/><rect class="cls-10" x="49.72" y="53.18" width="5.03" height="2.77" transform="translate(-22 40.61) rotate(-35.6)"/><rect class="cls-10" x="55.8" y="49.02" width="5.03" height="4.45" transform="translate(-18.93 43.53) rotate(-35.6)"/><rect class="cls-11" x="34.17" y="50.48" width="0.92" height="13.27" transform="translate(-26.78 30.84) rotate(-35.6)"/><rect class="cls-12" x="33.8" y="45.05" width="0.92" height="18.39" transform="translate(-25.17 30.08) rotate(-35.6)"/><rect class="cls-13" x="36.91" y="50.47" width="0.92" height="11.53" transform="matrix(0.81, -0.58, 0.58, 0.81, -25.75, 32.26)"/><rect class="cls-14" x="36.92" y="46.23" width="0.92" height="15.32" transform="translate(-24.38 31.83) rotate(-35.6)"/><rect class="cls-11" x="42.52" y="55.09" width="0.92" height="3.77" transform="translate(-25.14 35.67) rotate(-35.6)"/><rect class="cls-12" x="42.24" y="49.93" width="0.92" height="8.58" transform="translate(-23.59 34.99) rotate(-35.6)"/><rect class="cls-13" x="43.82" y="50.58" width="0.92" height="6.99" transform="translate(-23.2 35.88) rotate(-35.6)"/><rect class="cls-14" x="43.28" y="44.64" width="0.92" height="12.66" transform="translate(-21.5 34.99) rotate(-35.6)"/><rect class="cls-11" x="47.9" y="50.42" width="0.92" height="4.52" transform="translate(-21.63 38) rotate(-35.6)"/><rect class="cls-12" x="49.25" y="50.35" width="0.92" height="3.71" transform="translate(-21.1 38.69) rotate(-35.6)"/><rect class="cls-13" x="48.37" y="43.36" width="0.92" height="10.53" transform="translate(-19.18 37.52) rotate(-35.6)"/><rect class="cls-14" x="50.42" y="45.48" width="0.92" height="7.32" transform="translate(-19.1 38.81) rotate(-35.6)"/><rect class="cls-11" x="49.88" y="35.19" width="0.92" height="16.9" transform="translate(-15.99 37.46) rotate(-35.6)"/><rect class="cls-12" x="52.54" y="39.2" width="0.92" height="11.59" transform="translate(-16.29 39.26) rotate(-35.6)"/><rect class="cls-13" x="55.15" y="43.05" width="0.92" height="6.47" transform="translate(-16.55 41.02) rotate(-35.6)"/><rect class="cls-14" x="53.99" y="35.17" width="0.92" height="14.28" transform="translate(-14.45 39.6) rotate(-35.6)"/><circle class="cls-13" cx="54.24" cy="34.7" r="0.75" transform="translate(-10.06 38.06) rotate(-35.6)"/><circle class="cls-12" cx="56.72" cy="38.16" r="0.75" transform="translate(-11.61 40.15) rotate(-35.6)"/><circle class="cls-11" cx="59.2" cy="41.62" r="0.75" transform="translate(-13.17 42.24) rotate(-35.6)"/><circle class="cls-14" cx="61.67" cy="45.08" r="0.75" transform="translate(-14.72 44.33) rotate(-35.6)"/><polygon class="cls-9" points="37.4 63.29 26.19 47.63 25.76 47.95 25.85 48.07 26.15 47.85 27.66 49.96 27.36 50.18 27.45 50.31 27.76 50.09 29.27 52.2 28.96 52.42 29.05 52.55 29.36 52.33 30.87 54.44 30.56 54.66 30.66 54.79 30.96 54.57 32.47 56.67 32.16 56.89 32.26 57.02 32.56 56.8 34.07 58.91 33.76 59.13 33.86 59.26 34.16 59.04 35.67 61.15 35.37 61.37 35.46 61.5 35.76 61.28 37.36 63.51 60.27 47.11 60.18 46.98 37.4 63.29"/><polygon class="cls-15" points="86.89 63.18 86.89 113.8 128.14 88.68 86.89 63.18"/><polygon class="cls-8" points="95.55 87.64 58 98.3 42.42 43.43 75 34.19 78.69 36.83 81.73 38.98 95.55 87.64"/><rect class="cls-16" x="56.98" y="60.61" width="18.77" height="1.11" transform="translate(-13.37 18.89) rotate(-14.73)"/><rect class="cls-16" x="66.63" y="76.45" width="8.44" height="1.11" transform="translate(-17.26 20.55) rotate(-14.73)"/><rect class="cls-17" x="57.98" y="64.22" width="18.77" height="1.48" transform="translate(-14.3 19.27) rotate(-14.73)"/><rect class="cls-18" x="56.27" y="72.25" width="6.47" height="2.61" transform="translate(-17.48 18.56) rotate(-15.48)"/><rect class="cls-18" x="63.5" y="73.1" width="6.47" height="2.61" transform="translate(-16.73 19.42) rotate(-14.73)"/><rect class="cls-19" x="65.84" y="79.07" width="11.92" height="3.4" transform="translate(-18.18 20.91) rotate(-14.73)"/><rect class="cls-16" x="47.8" y="55.34" width="16.46" height="1.11" transform="translate(-12.37 16.09) rotate(-14.73)"/><rect class="cls-16" x="66.78" y="50.35" width="16.46" height="1.11" transform="translate(-10.48 20.75) rotate(-14.73)"/><rect class="cls-20" x="70.47" y="53.3" width="9.28" height="0.74" transform="translate(-11.18 20.87) rotate(-14.73)"/><rect class="cls-20" x="51.77" y="58.22" width="9.28" height="0.74" transform="matrix(0.97, -0.25, 0.25, 0.97, -13.05, 16.27)"/><ellipse class="cls-21" cx="65.12" cy="71.62" rx="1.4" ry="1.21" transform="translate(-16.07 18.91) rotate(-14.73)"/><ellipse class="cls-22" cx="80.91" cy="67.46" rx="1.4" ry="1.21" transform="translate(-14.5 22.8) rotate(-14.73)"/><ellipse class="cls-22" cx="77.75" cy="68.29" rx="1.4" ry="1.21" transform="translate(-14.81 22.02) rotate(-14.73)"/><ellipse class="cls-22" cx="74.59" cy="69.12" rx="1.4" ry="1.21" transform="translate(-15.13 21.24) rotate(-14.73)"/><ellipse class="cls-22" cx="71.43" cy="69.96" rx="1.4" ry="1.21" transform="translate(-15.44 20.47) rotate(-14.73)"/><ellipse class="cls-22" cx="68.28" cy="70.79" rx="1.4" ry="1.21" transform="translate(-15.76 19.69) rotate(-14.73)"/><ellipse class="cls-21" cx="71.76" cy="72.98" rx="1.4" ry="1.21" transform="translate(-16.2 20.65) rotate(-14.73)"/><ellipse class="cls-22" cx="74.92" cy="72.15" rx="1.4" ry="1.21" transform="translate(-15.88 21.42) rotate(-14.73)"/><polyline class="cls-23" points="75.1 34.56 76.72 40.25 81.33 39.1"/><path class="cls-24" d="M50.32,46.13c0-.08,0-0.16.05-0.24s0.09-.17.2-0.09a4,4,0,0,0,2.84.38c0.84-.08,1.67-0.29,2.51-0.34a4.82,4.82,0,0,1,2.19.3,0.51,0.51,0,0,1,.35.41,17.17,17.17,0,0,0,.67,2.19A5.53,5.53,0,0,1,59.4,50c0,0.14,0,.24-0.19.24a5.38,5.38,0,0,0-2.27.56c-1,.43-1.91.92-2.87,1.35a7.7,7.7,0,0,1-2.47.77c-0.44,0-.48,0-0.41-0.42A6.11,6.11,0,0,0,50.93,50c-0.21-.82-0.46-1.63-0.61-2.46A3.79,3.79,0,0,1,50.32,46.13Z"/><path class="cls-24" d="M68.2,41.87c0-.08,0-0.16.05-0.24s0.09-.17.2-0.09a4,4,0,0,0,2.84.38c0.84-.08,1.67-0.29,2.51-0.34a4.82,4.82,0,0,1,2.19.3,0.51,0.51,0,0,1,.35.41A17.17,17.17,0,0,0,77,44.48a5.53,5.53,0,0,1,.26,1.29c0,0.14,0,.24-0.19.24a5.38,5.38,0,0,0-2.27.56c-1,.43-1.91.92-2.87,1.35a7.7,7.7,0,0,1-2.47.77c-0.44,0-.48,0-0.41-0.42a6.11,6.11,0,0,0-.27-2.53c-0.21-.82-0.46-1.63-0.61-2.46A3.79,3.79,0,0,1,68.2,41.87Z"/><polygon class="cls-2" points="128.14 88.68 153.64 67.3 112.39 41.8 86.89 63.18 128.14 88.68"/><rect class="cls-25" x="72.75" y="69.61" width="46.14" height="42.4" transform="translate(40.95 -29.26) rotate(21.98)"/><rect class="cls-26" x="79.72" y="70.96" width="46.14" height="5.18" transform="matrix(0.93, 0.37, -0.37, 0.93, 35, -33.12)"/><circle class="cls-27" cx="84.15" cy="66.03" r="1.17" transform="translate(-8.58 119.35) rotate(-68.02)"/><circle class="cls-27" cx="87.11" cy="67.23" r="1.17" transform="translate(-7.83 122.84) rotate(-68.02)"/><circle class="cls-27" cx="90.06" cy="68.42" r="1.17" transform="matrix(0.37, -0.93, 0.93, 0.37, -7.09, 126.33)"/><rect class="cls-16" x="98.22" y="94.51" width="11.65" height="0.69" transform="translate(43.06 -32.05) rotate(21.98)"/><rect class="cls-16" x="97.78" y="104.06" width="5.24" height="0.69" transform="translate(46.37 -29.99) rotate(21.98)"/><rect class="cls-17" x="97.31" y="96.65" width="11.65" height="0.92" transform="translate(43.84 -31.54) rotate(21.98)"/><rect class="cls-18" x="94.44" y="97.68" width="4.01" height="1.62" transform="translate(43.87 -28.94) rotate(21.98)"/><rect class="cls-18" x="97.3" y="100.76" width="4.01" height="1.62" transform="translate(45.23 -29.79) rotate(21.98)"/><rect class="cls-19" x="95.77" y="105.57" width="7.4" height="2.11" transform="translate(47.14 -29.48) rotate(21.98)"/><rect class="cls-16" x="96.22" y="86.48" width="10.22" height="0.69" transform="translate(39.86 -31.61) rotate(21.98)"/><rect class="cls-16" x="107.52" y="91.04" width="10.22" height="0.69" transform="translate(42.39 -35.51) rotate(21.98)"/><rect class="cls-20" x="108.77" y="92.56" width="5.76" height="0.46" transform="translate(42.84 -35.04) rotate(21.98)"/><rect class="cls-20" x="97.63" y="88.07" width="5.76" height="0.46" transform="translate(40.35 -31.2) rotate(21.98)"/><ellipse class="cls-21" cx="99.54" cy="99.59" rx="0.75" ry="0.87" transform="translate(-30.07 154.63) rotate(-68.02)"/><ellipse class="cls-22" cx="108.94" cy="103.39" rx="0.75" ry="0.87" transform="translate(-27.7 165.72) rotate(-68.02)"/><ellipse class="cls-22" cx="107.06" cy="102.63" rx="0.75" ry="0.87" transform="translate(-28.17 163.5) rotate(-68.02)"/><ellipse class="cls-22" cx="105.18" cy="101.87" rx="0.75" ry="0.87" transform="translate(-28.65 161.28) rotate(-68.02)"/><ellipse class="cls-22" cx="103.3" cy="101.11" rx="0.75" ry="0.87" transform="translate(-29.12 159.06) rotate(-68.02)"/><ellipse class="cls-22" cx="101.42" cy="100.35" rx="0.75" ry="0.87" transform="translate(-29.59 156.84) rotate(-68.02)"/><ellipse class="cls-21" cx="102.34" cy="102.73" rx="0.75" ry="0.87" transform="translate(-31.23 159.19) rotate(-68.02)"/><ellipse class="cls-22" cx="104.22" cy="103.49" rx="0.75" ry="0.87" transform="translate(-30.76 161.41) rotate(-68.02)"/><line class="cls-28" x1="98.66" y1="76.13" x2="86.01" y2="107.46"/><rect class="cls-29" x="80.44" y="72.64" width="12.53" height="1.36" transform="translate(33.74 -27.12) rotate(21.98)"/><rect class="cls-29" x="79.25" y="75.6" width="12.53" height="1.36" transform="translate(34.76 -26.46) rotate(21.98)"/><rect class="cls-29" x="78.05" y="78.56" width="12.53" height="1.36" transform="translate(35.78 -25.8) rotate(21.98)"/><rect class="cls-29" x="69.7" y="99.68" width="17.01" height="1.36" transform="translate(43.25 -21.98) rotate(21.98)"/><rect class="cls-24" x="74.83" y="81.99" width="17.01" height="11.32" transform="translate(38.86 -24.82) rotate(21.98)"/><rect class="cls-30" x="71.31" y="94.06" width="17.01" height="4.65" transform="translate(41.87 -22.87) rotate(21.98)"/><path class="cls-31" d="M102,79.77l0.12-.09c0.06,0,.11,0,0.13,0a2.5,2.5,0,0,0,1.21,1.3c0.43,0.29.91,0.51,1.34,0.82a3,3,0,0,1,.93,1,0.32,0.32,0,0,1,0,.33,10.62,10.62,0,0,0-.54,1.31,3.42,3.42,0,0,1-.38.72c0,0.07-.1.11-0.18,0a3.33,3.33,0,0,0-1.3-.62c-0.63-.17-1.27-0.31-1.91-0.48a4.77,4.77,0,0,1-1.48-.6c-0.22-.15-0.23-0.19,0-0.36a3.78,3.78,0,0,0,.87-1.32c0.22-.47.42-1,0.67-1.42A2.35,2.35,0,0,1,102,79.77Z"/><path class="cls-31" d="M113.17,84.32l0.12-.09c0.06,0,.11,0,0.13,0a2.5,2.5,0,0,0,1.21,1.3c0.43,0.29.91,0.51,1.34,0.82a3,3,0,0,1,.93,1,0.32,0.32,0,0,1,0,.33,10.62,10.62,0,0,0-.54,1.31,3.42,3.42,0,0,1-.38.72c0,0.07-.1.11-0.18,0a3.33,3.33,0,0,0-1.3-.62c-0.63-.17-1.27-0.31-1.91-0.48a4.77,4.77,0,0,1-1.48-.6c-0.22-.15-0.23-0.19,0-0.36a3.78,3.78,0,0,0,.87-1.32c0.22-.47.42-1,0.67-1.42A2.35,2.35,0,0,1,113.17,84.32Z"/><polygon class="cls-32" points="128.14 88.68 128.14 136.3 86.89 161.43 86.89 113.8 128.14 88.68"/><polygon class="cls-33" points="47.14 88.68 47.14 137.05 86.89 161.43 86.89 113.8 47.14 88.68"/><polygon class="cls-2" points="86.89 113.8 112.76 135.18 153.64 109.3 128.14 88.68 86.89 113.8"/><polygon class="cls-2" points="46.56 88.68 19.56 109.68 60.81 135.18 86.31 113.8 46.56 88.68"/><path class="cls-34" d="M116.23,29.8a1,1,0,0,1-1,.84,22,22,0,0,0-17.71,3.59,1,1,0,0,1-1.23-.4l-0.08-.1a0.93,0.93,0,0,1,0-1.32,24.29,24.29,0,0,1,19.51-4,0.93,0.93,0,0,1,.52,1.21Z"/><path class="cls-34" d="M115.74,28.46a24.29,24.29,0,0,0-19.51,4,0.93,0.93,0,0,0,0,1.32,23.23,23.23,0,0,1,20-4.06A0.93,0.93,0,0,0,115.74,28.46Z"/><rect class="cls-35" x="97.47" y="32.9" width="1.51" height="7.31" rx="0.7" ry="0.7" transform="translate(-5.3 20.23) rotate(-11.45)"/><circle class="cls-35" cx="98.29" cy="36.89" r="1.68" transform="translate(-5.37 20.25) rotate(-11.45)"/><path class="cls-35" d="M115.47,29.39h0.12a0.69,0.69,0,0,1,.69.69V36a0.69,0.69,0,0,1-.69.69h-0.12a0.7,0.7,0,0,1-.7-0.7V30.09A0.7,0.7,0,0,1,115.47,29.39Z" transform="translate(-4.26 23.59) rotate(-11.45)"/><circle class="cls-35" cx="115.59" cy="33.38" r="1.68" transform="translate(-4.33 23.61) rotate(-11.45)"/><rect class="cls-36" x="79.39" y="34.66" width="63.55" height="42.68" rx="2.09" ry="2.09" transform="translate(-8.9 23.18) rotate(-11.45)"/><path class="cls-34" d="M141.3,44.69a2.82,2.82,0,0,1-1.5,3,127.77,127.77,0,0,1-58.26,11.8A2.82,2.82,0,0,1,79,57.3L76.2,43.44A2.09,2.09,0,0,1,77.83,41L136,29.19a2.1,2.1,0,0,1,2.46,1.63Z"/><path class="cls-36" d="M111.09,55.61a126.58,126.58,0,0,1-29.5,2.44,1.44,1.44,0,0,1-1.22-1L77.56,43.16a0.7,0.7,0,0,1,.55-0.82L136.3,30.55a0.7,0.7,0,0,1,.82.54L139.93,45a1.44,1.44,0,0,1-.73,1.42,126.56,126.56,0,0,1-28.12,9.23h0Z"/><path class="cls-37" d="M110.67,53.57a130.76,130.76,0,0,1-28.19,2.55,1.43,1.43,0,0,1-1.22-.89L77.92,43a0.61,0.61,0,0,1,.52-0.74L136,30.62a0.61,0.61,0,0,1,.75.48l1.67,12.56a1.43,1.43,0,0,1-.79,1.29,130.73,130.73,0,0,1-26.95,8.62h0Z"/><path class="cls-34" d="M102.93,35.77l3.67,18.14c0.18,0.9.64,1.58,1,1.5l6.6-1.34c0.37-.08.53-0.87,0.35-1.78l-3.67-18.14Z"/><path class="cls-36" d="M103.89,35.58l3.67,18.14a9.15,9.15,0,0,0,.41,1.62l0.75-.15a9,9,0,0,0-.25-1.65L104.8,35.39Z"/><path class="cls-36" d="M109,34.54l3.67,18.14a9.12,9.12,0,0,0,.41,1.62l0.75-.15a8.89,8.89,0,0,0-.25-1.65l-3.67-18.14Z"/><path class="cls-38" d="M115.75,60.51a0.93,0.93,0,0,1-.42.92,10.17,10.17,0,0,1-5.87,1.19,0.92,0.92,0,0,1-.75-0.69l-1.43-7A0.93,0.93,0,0,1,107.7,54a10.18,10.18,0,0,1,5.87-1.19,0.93,0.93,0,0,1,.75.69Z"/><path class="cls-35" d="M113.62,53a10.77,10.77,0,0,0-5.87,1.19,0.88,0.88,0,0,0-.43.88l0.62,3.07H108l7-1.41-0.62-3.08A0.88,0.88,0,0,0,113.62,53Z"/><path class="cls-39" d="M108.07,58.82l0.63,3.12a0.92,0.92,0,0,0,.75.69,10.17,10.17,0,0,0,5.87-1.19,0.93,0.93,0,0,0,.42-0.92l-0.63-3.12Z"/><path class="cls-35" d="M112.35,61.87a9.6,9.6,0,0,1-2.84.14,0.33,0.33,0,0,1-.21-0.19l-0.51-2.52,5.84-1.18,0.51,2.52a0.33,0.33,0,0,1-.12.26,9.56,9.56,0,0,1-2.67,1h0Z"/></svg>