<svg xmlns="http://www.w3.org/2000/svg" xmlns:xlink="http://www.w3.org/1999/xlink" viewBox="0 0 370 300"><defs><style>.cls-1{isolation:isolate;}.cls-2,.cls-3,.cls-46,.cls-47{stroke:#f2d127;}.cls-2,.cls-24,.cls-3,.cls-34,.cls-35,.cls-37,.cls-41,.cls-46,.cls-47,.cls-54{stroke-miterlimit:10;}.cls-2{fill:url(#linear-gradient);}.cls-3{fill:url(#linear-gradient-2);}.cls-24,.cls-34,.cls-37,.cls-4,.cls-43{fill:#fff;}.cls-5{fill:#faac7b;}.cls-6{fill:#30adc1;}.cls-7{fill:#99d3de;}.cls-8{fill:#a4cf62;}.cls-9{fill:#0c0c0c;}.cls-10{fill:#837765;}.cls-11{fill:#5dc0de;}.cls-12{fill:#867764;}.cls-13{fill:#d28a58;}.cls-14{fill:#468847;}.cls-15{fill:#989898;}.cls-16{fill:#80a83f;}.cls-17{fill:url(#linear-gradient-3);}.cls-18{fill:url(#linear-gradient-4);}.cls-19{fill:url(#linear-gradient-5);}.cls-20{fill:#f6ec74;}.cls-21{fill:#f4b22d;}.cls-22{fill:#ef6c23;}.cls-23{fill:#df6326;}.cls-24{stroke:#161615;}.cls-24,.cls-34,.cls-35,.cls-41,.cls-54{stroke-width:0.25px;}.cls-25{fill:#51677f;}.cls-26{fill:#b8d1e5;}.cls-27{fill:#cee2f1;}.cls-28{fill:#50c4d0;}.cls-29{fill:#2b455f;}.cls-30{fill:#f36e41;}.cls-31{fill:#afc5e3;}.cls-32{fill:#fec553;}.cls-33{fill:#95c149;}.cls-34,.cls-35{stroke:#231f20;}.cls-35,.cls-40{fill:#4580bd;}.cls-36{fill:#58b6e1;}.cls-37{stroke:#58b6e1;stroke-width:0.5px;}.cls-38{fill:#654e9b;}.cls-39{fill:#386798;}.cls-41,.cls-42{fill:#f3869e;}.cls-41{stroke:#090909;}.cls-41,.cls-42,.cls-43{fill-rule:evenodd;}.cls-44{fill:#876aae;}.cls-45{fill:#231f20;opacity:0.7;mix-blend-mode:multiply;}.cls-46{fill:url(#linear-gradient-6);}.cls-47{fill:url(#linear-gradient-7);}.cls-48{fill:#f05f49;}.cls-49,.cls-54{fill:#fedd56;}.cls-50{fill:#f58663;}.cls-51{fill:#f9aa78;}.cls-52{fill:#fdc015;}.cls-53{fill:#f99b1f;}.cls-54{stroke:#010101;}.cls-55{fill:#edaa33;}.cls-56{fill:#866aae;}</style><linearGradient id="linear-gradient" x1="79.48" y1="97.06" x2="212.98" y2="97.06" gradientUnits="userSpaceOnUse"><stop offset="0" stop-color="#fee94b"/><stop offset="1" stop-color="#fee442"/></linearGradient><linearGradient id="linear-gradient-2" x1="212.98" y1="97.06" x2="346.48" y2="97.06" xlink:href="#linear-gradient"/><linearGradient id="linear-gradient-3" x1="212.98" y1="216.69" x2="295.48" y2="216.69" xlink:href="#linear-gradient"/><linearGradient id="linear-gradient-4" x1="133.48" y1="216.69" x2="212.98" y2="216.69" gradientUnits="userSpaceOnUse"><stop offset="0" stop-color="#fbcd4f"/><stop offset="1" stop-color="#fbdf33"/></linearGradient><linearGradient id="linear-gradient-5" x1="212.98" y1="143.56" x2="295.48" y2="143.56" gradientUnits="userSpaceOnUse"><stop offset="0" stop-color="#fadf1a"/><stop offset="1" stop-color="#fbdf33"/></linearGradient><linearGradient id="linear-gradient-6" x1="78.32" y1="190.44" x2="211.82" y2="190.44" xlink:href="#linear-gradient"/><linearGradient id="linear-gradient-7" x1="212.98" y1="190.44" x2="346.48" y2="190.44" xlink:href="#linear-gradient"/></defs><title>plan_box</title><g class="cls-1"><g id="Layer_1" data-name="Layer 1"><polygon class="cls-2" points="212.98 92.94 159.73 50.19 79.48 101.94 133.48 143.94 212.98 92.94"/><polygon class="cls-3" points="295.48 143.94 346.48 101.19 263.98 50.19 212.98 92.94 295.48 143.94"/><ellipse class="cls-4" cx="214.18" cy="78" rx="18.62" ry="18.29"/><path class="cls-5" d="M221.78,80.76a8.28,8.28,0,0,1-1.77,3l6,8.44a18.51,18.51,0,0,0,6.08-10.33Z"/><path class="cls-6" d="M215.61,70.06a8.28,8.28,0,0,1,6.53,7.34l10.33,1.14c0-.12,0-0.23,0-0.35a18.56,18.56,0,0,0-16.88-18.48V70.06Z"/><path class="cls-7" d="M207.81,72.62a8.27,8.27,0,0,1,4.43-2.56V59.71a18.52,18.52,0,0,0-13.37,7.65Z"/><path class="cls-8" d="M217.28,85.77A8.23,8.23,0,0,1,206.1,75.53l-8.94-5.27A18.53,18.53,0,0,0,223.3,94.19Z"/><path class="cls-8" d="M180.88,47a2.11,2.11,0,0,1-1.25,2.7l-24.45,9.24a2.11,2.11,0,0,1-2.72-1.2l-13.22-35a2.11,2.11,0,0,1,1.25-2.7l24.45-9.24a2.11,2.11,0,0,1,2.72,1.2Z"/><path class="cls-9" d="M179.66,49.76L155.21,59a2.2,2.2,0,0,1-2.84-1.25l-13.22-35a2.2,2.2,0,0,1,1.3-2.82l24.45-9.24A2.2,2.2,0,0,1,167.74,12l13.22,35A2.2,2.2,0,0,1,179.66,49.76ZM140.52,20.12a2,2,0,0,0-1.19,2.58l13.22,35a2,2,0,0,0,2.6,1.14l24.45-9.24A2,2,0,0,0,180.79,47L167.57,12a2,2,0,0,0-2.6-1.14Z"/><rect class="cls-10" x="151.25" y="32.49" width="13.67" height="0.81" transform="translate(-1.42 58) rotate(-20.7)"/><rect class="cls-10" x="159.46" y="43.63" width="6.15" height="0.81" transform="translate(-5.07 60.29) rotate(-20.7)"/><rect class="cls-4" x="152.26" y="35.03" width="13.67" height="1.08" transform="translate(-2.3 58.53) rotate(-20.7)"/><rect class="cls-11" x="152.06" y="41.12" width="4.71" height="1.9" transform="matrix(0.94, -0.35, 0.35, 0.94, -4.9, 57.3)"/><rect class="cls-11" x="156.99" y="41.5" width="4.71" height="1.9" transform="translate(-4.72 59.06) rotate(-20.7)"/><rect class="cls-12" x="159.13" y="45.31" width="9.49" height="2.47" transform="matrix(0.94, -0.35, 0.35, 0.94, -5.87, 60.93)"/><rect class="cls-10" x="143.36" y="27.72" width="11.99" height="0.81" transform="translate(-0.3 54.6) rotate(-20.7)"/><rect class="cls-10" x="156.73" y="22.66" width="11.99" height="0.81" transform="translate(2.35 59) rotate(-20.7)"/><rect class="cls-13" x="159.62" y="24.8" width="6.76" height="0.54" transform="translate(1.66 59.23) rotate(-20.7)"/><rect class="cls-13" x="146.45" y="29.78" width="6.76" height="0.54" transform="translate(-0.95 54.9) rotate(-20.7)"/><ellipse class="cls-14" cx="157.97" cy="40.56" rx="1.02" ry="0.88" transform="translate(-4.14 58.45) rotate(-20.7)"/><ellipse class="cls-15" cx="169.1" cy="36.35" rx="1.02" ry="0.88" transform="translate(-1.93 62.11) rotate(-20.7)"/><ellipse class="cls-15" cx="166.87" cy="37.2" rx="1.02" ry="0.88" transform="translate(-2.38 61.38) rotate(-20.7)"/><ellipse class="cls-15" cx="164.65" cy="38.04" rx="1.02" ry="0.88" transform="translate(-2.82 60.65) rotate(-20.7)"/><ellipse class="cls-15" cx="162.42" cy="38.88" rx="1.02" ry="0.88" transform="translate(-3.26 59.92) rotate(-20.7)"/><ellipse class="cls-15" cx="160.19" cy="39.72" rx="1.02" ry="0.88" transform="translate(-3.7 59.18) rotate(-20.7)"/><ellipse class="cls-14" cx="162.88" cy="41.04" rx="1.02" ry="0.88" transform="translate(-3.99 60.22) rotate(-20.7)"/><ellipse class="cls-15" cx="165.11" cy="40.2" rx="1.02" ry="0.88" transform="translate(-3.55 60.95) rotate(-20.7)"/><line class="cls-8" x1="151.63" y1="55.55" x2="180.06" y2="44.81"/><rect class="cls-9" x="150.65" y="50.08" width="30.38" height="0.19" transform="translate(-7.03 61.86) rotate(-20.7)"/><circle class="cls-8" cx="166.61" cy="52.2" r="1.12" transform="translate(-7.7 62.26) rotate(-20.7)"/><path class="cls-9" d="M167,53.34a1.21,1.21,0,1,1,.71-1.56A1.21,1.21,0,0,1,167,53.34Zm-0.79-2.09a1,1,0,1,0,1.32.6A1,1,0,0,0,166.25,51.25Z"/><path class="cls-16" d="M144.52,21.26c0-.06,0-0.12,0-0.19s0.05-.14.14-0.09a3.09,3.09,0,0,0,2.19.08c0.64-.12,1.25-0.35,1.89-0.45a3.69,3.69,0,0,1,1.69.06,0.39,0.39,0,0,1,.3.29,13.14,13.14,0,0,0,.68,1.62,4.23,4.23,0,0,1,.29,1c0,0.11,0,.18-0.13.2a4.12,4.12,0,0,0-1.68.6c-0.7.4-1.39,0.84-2.09,1.25a5.9,5.9,0,0,1-1.82.77c-0.33.06-.36,0-0.34-0.29a4.68,4.68,0,0,0-.39-1.91c-0.22-.61-0.48-1.2-0.65-1.83A2.9,2.9,0,0,1,144.52,21.26Z"/><path class="cls-16" d="M156.7,17c0-.06,0-0.12,0-0.19s0.05-.14.14-0.09a3.09,3.09,0,0,0,2.19.08c0.64-.12,1.25-0.35,1.89-0.45a3.69,3.69,0,0,1,1.69.06,0.39,0.39,0,0,1,.3.29,13.14,13.14,0,0,0,.68,1.62,4.23,4.23,0,0,1,.29,1c0,0.11,0,.18-0.13.2a4.12,4.12,0,0,0-1.68.6c-0.7.4-1.39,0.84-2.09,1.25a5.9,5.9,0,0,1-1.82.77c-0.33.06-.36,0-0.34-0.29a4.68,4.68,0,0,0-.39-1.91c-0.22-.61-0.48-1.2-0.65-1.83A2.9,2.9,0,0,1,156.7,17Z"/><polygon class="cls-17" points="295.48 143.94 295.48 239.19 212.98 289.44 212.98 194.19 295.48 143.94"/><polygon class="cls-18" points="133.48 143.94 133.48 240.69 212.98 289.44 212.98 194.19 133.48 143.94"/><polygon class="cls-19" points="212.98 92.94 212.98 194.19 295.48 143.94 212.98 92.94"/><polygon class="cls-20" points="212.98 92.94 133.48 143.94 212.98 194.19 212.98 92.94"/><path class="cls-21" d="M156.71,189.49L141.2,127.21c-0.81-3.24,0-6.27,1.9-6.73s4,1.81,4.83,5l15.51,62.28"/><path class="cls-21" d="M170.18,186.14l-15.51-62.28c-0.81-3.24,0-6.27,1.9-6.73s4,1.81,4.83,5l15.51,62.28"/><path class="cls-21" d="M183.65,182.78L168.15,120.5c-0.81-3.24,0-6.27,1.9-6.73s4,1.81,4.83,5l15.51,62.28"/><rect class="cls-22" x="141.05" y="120.24" width="3.89" height="1.11" transform="translate(-24.95 38.13) rotate(-13.98)"/><rect class="cls-22" x="145.7" y="118.03" width="3.52" height="3.89" rx="0.61" ry="0.61" transform="translate(-24.62 39.18) rotate(-13.98)"/><path class="cls-23" d="M146.27,122.07a0.56,0.56,0,1,1-1.08.27l-0.85-3.4a0.56,0.56,0,1,1,1.08-.27Z"/><rect class="cls-22" x="154.21" y="116.97" width="3.89" height="1.11" transform="translate(336.07 193.83) rotate(166.02)"/><rect class="cls-22" x="150.06" y="116.94" width="3.52" height="3.89" rx="0.61" ry="0.61" transform="translate(-24.23 40.21) rotate(-13.98)"/><path class="cls-23" d="M153.86,120.19a0.56,0.56,0,1,0,1.08-.27l-0.85-3.4a0.56,0.56,0,1,0-1.08.27Z"/><path class="cls-23" d="M149.59,121.25a0.56,0.56,0,1,0,1.08-.27l-0.85-3.4a0.56,0.56,0,1,0-1.08.27Z"/><rect class="cls-22" x="156.09" y="116.5" width="3.89" height="1.11" transform="translate(-23.6 41.65) rotate(-13.98)"/><rect class="cls-22" x="160.74" y="114.28" width="3.52" height="3.89" rx="0.61" ry="0.61" transform="translate(-23.27 42.71) rotate(-13.98)"/><path class="cls-23" d="M161.31,118.33a0.56,0.56,0,1,1-1.08.27l-0.85-3.4a0.56,0.56,0,1,1,1.08-.27Z"/><rect class="cls-22" x="169.25" y="113.22" width="3.89" height="1.11" transform="translate(364.8 182.81) rotate(166.02)"/><rect class="cls-22" x="165.1" y="113.2" width="3.52" height="3.89" rx="0.61" ry="0.61" transform="translate(-22.88 43.73) rotate(-13.98)"/><path class="cls-23" d="M168.9,116.44a0.56,0.56,0,1,0,1.08-.27l-0.85-3.4a0.56,0.56,0,1,0-1.08.27Z"/><path class="cls-23" d="M164.63,117.5a0.56,0.56,0,1,0,1.08-.27l-0.85-3.4a0.56,0.56,0,1,0-1.08.27Z"/><path class="cls-24" d="M226.26,123l-31.2-43.58a4.77,4.77,0,0,0-6.66-1.1L159.54,99l34,47.46Z"/><rect class="cls-25" x="185.03" y="121.63" width="10.01" height="7.9" transform="translate(-37.59 134.11) rotate(-35.6)"/><rect class="cls-26" x="191.95" y="112.47" width="19.52" height="0.91" transform="translate(-28.04 138.53) rotate(-35.6)"/><rect class="cls-26" x="193.27" y="114.32" width="19.52" height="0.91" transform="translate(-28.87 139.65) rotate(-35.6)"/><rect class="cls-26" x="195.5" y="119" width="9.76" height="0.91" transform="translate(-32.09 138.98) rotate(-35.6)"/><rect class="cls-25" x="187.29" y="124.82" width="31.62" height="0.91" transform="translate(-34.96 141.65) rotate(-35.6)"/><rect class="cls-26" x="188.61" y="126.66" width="31.62" height="0.91" transform="translate(-35.79 142.77) rotate(-35.6)"/><rect class="cls-26" x="191.41" y="133.11" width="15.81" height="0.91" transform="translate(-40.5 141) rotate(-35.6)"/><rect class="cls-26" x="181" y="115.9" width="5.03" height="4.84" transform="translate(-34.58 128.95) rotate(-35.6)"/><rect class="cls-26" x="186.15" y="112.04" width="5.03" height="3.33" transform="translate(-30.93 131.09) rotate(-35.6)"/><rect class="cls-26" x="191.57" y="108.09" width="5.03" height="2.77" transform="translate(-27.45 133.46) rotate(-35.6)"/><rect class="cls-26" x="197.65" y="103.93" width="5.03" height="4.45" transform="translate(-24.38 136.37) rotate(-35.6)"/><rect class="cls-27" x="176.02" y="105.39" width="0.92" height="13.27" transform="translate(-32.23 123.68) rotate(-35.6)"/><rect class="cls-28" x="175.65" y="99.96" width="0.92" height="18.39" transform="translate(-30.62 122.93) rotate(-35.6)"/><rect class="cls-29" x="178.76" y="105.38" width="0.92" height="11.53" transform="matrix(0.81, -0.58, 0.58, 0.81, -31.2, 125.11)"/><rect class="cls-30" x="178.77" y="101.14" width="0.92" height="15.32" transform="translate(-29.84 124.68) rotate(-35.6)"/><rect class="cls-27" x="184.38" y="110" width="0.92" height="3.77" transform="translate(-30.59 128.52) rotate(-35.6)"/><rect class="cls-28" x="184.09" y="104.85" width="0.92" height="8.58" transform="translate(-29.04 127.84) rotate(-35.6)"/><rect class="cls-29" x="185.67" y="105.49" width="0.92" height="6.99" transform="translate(-28.65 128.73) rotate(-35.6)"/><rect class="cls-30" x="185.13" y="99.55" width="0.92" height="12.66" transform="translate(-26.95 127.84) rotate(-35.6)"/><rect class="cls-27" x="189.75" y="105.33" width="0.92" height="4.52" transform="translate(-27.08 130.84) rotate(-35.6)"/><rect class="cls-28" x="191.1" y="105.26" width="0.92" height="3.71" transform="translate(-26.55 131.54) rotate(-35.6)"/><rect class="cls-29" x="190.23" y="98.28" width="0.92" height="10.53" transform="translate(-24.64 130.36) rotate(-35.6)"/><rect class="cls-30" x="192.28" y="100.39" width="0.92" height="7.32" transform="translate(-24.55 131.65) rotate(-35.6)"/><rect class="cls-27" x="191.73" y="90.1" width="0.92" height="16.9" transform="translate(-21.45 130.31) rotate(-35.6)"/><rect class="cls-28" x="194.39" y="94.11" width="0.92" height="11.59" transform="translate(-21.74 132.11) rotate(-35.6)"/><rect class="cls-29" x="197" y="97.96" width="0.92" height="6.47" transform="translate(-22 133.87) rotate(-35.6)"/><rect class="cls-30" x="195.84" y="90.08" width="0.92" height="14.28" transform="translate(-19.9 132.45) rotate(-35.6)"/><circle class="cls-29" cx="196.1" cy="89.62" r="0.75" transform="translate(-15.52 130.91) rotate(-35.6)"/><circle class="cls-28" cx="198.57" cy="93.08" r="0.75" transform="translate(-17.07 133) rotate(-35.6)"/><circle class="cls-27" cx="201.05" cy="96.53" r="0.75" transform="translate(-18.62 135.09) rotate(-35.6)"/><circle class="cls-30" cx="203.52" cy="99.99" r="0.75" transform="translate(-20.17 137.17) rotate(-35.6)"/><polygon class="cls-25" points="179.25 118.2 168.04 102.55 167.61 102.86 167.7 102.99 168.01 102.77 169.51 104.88 169.21 105.09 169.3 105.22 169.61 105.01 171.12 107.11 170.81 107.33 170.91 107.46 171.21 107.24 172.72 109.35 172.41 109.57 172.51 109.7 172.81 109.48 174.32 111.59 174.02 111.81 174.11 111.93 174.41 111.72 175.92 113.82 175.62 114.04 175.71 114.17 176.01 113.95 177.53 116.06 177.22 116.28 177.31 116.41 177.62 116.19 179.22 118.42 202.13 102.02 202.04 101.89 179.25 118.2"/><polygon class="cls-24" points="243.9 142.02 206.35 152.68 190.77 97.81 223.35 88.57 227.04 91.21 230.09 93.37 243.9 142.02"/><rect class="cls-10" x="205.33" y="114.99" width="18.77" height="1.11" transform="translate(-22.33 58.4) rotate(-14.73)"/><rect class="cls-10" x="214.99" y="130.84" width="8.44" height="1.11" transform="translate(-26.21 60.07) rotate(-14.73)"/><rect class="cls-31" x="206.33" y="118.6" width="18.77" height="1.48" transform="translate(-23.26 58.78) rotate(-14.73)"/><rect class="cls-11" x="204.62" y="126.64" width="6.47" height="2.61" transform="translate(-26.61 60.14) rotate(-15.48)"/><rect class="cls-11" x="211.85" y="127.48" width="6.47" height="2.61" transform="translate(-25.68 58.93) rotate(-14.73)"/><rect class="cls-12" x="214.19" y="133.45" width="11.92" height="3.4" transform="translate(-27.13 60.43) rotate(-14.73)"/><rect class="cls-10" x="196.16" y="109.72" width="16.46" height="1.11" transform="translate(-21.33 55.6) rotate(-14.73)"/><rect class="cls-10" x="215.13" y="104.73" width="16.46" height="1.11" transform="translate(-19.43 60.27) rotate(-14.73)"/><rect class="cls-13" x="218.82" y="107.69" width="9.28" height="0.74" transform="translate(-20.13 60.38) rotate(-14.73)"/><rect class="cls-13" x="200.12" y="112.6" width="9.28" height="0.74" transform="matrix(0.97, -0.25, 0.25, 0.97, -22, 55.79)"/><ellipse class="cls-14" cx="213.47" cy="126" rx="1.4" ry="1.21" transform="translate(-25.02 58.43) rotate(-14.73)"/><ellipse class="cls-15" cx="229.26" cy="121.85" rx="1.4" ry="1.21" transform="translate(-23.45 62.31) rotate(-14.73)"/><ellipse class="cls-15" cx="226.1" cy="122.68" rx="1.4" ry="1.21" transform="translate(-23.76 61.53) rotate(-14.73)"/><ellipse class="cls-15" cx="222.95" cy="123.51" rx="1.4" ry="1.21" transform="translate(-24.08 60.76) rotate(-14.73)"/><ellipse class="cls-15" cx="219.79" cy="124.34" rx="1.4" ry="1.21" transform="translate(-24.39 59.98) rotate(-14.73)"/><ellipse class="cls-15" cx="216.63" cy="125.17" rx="1.4" ry="1.21" transform="translate(-24.71 59.21) rotate(-14.73)"/><ellipse class="cls-14" cx="220.11" cy="127.36" rx="1.4" ry="1.21" transform="translate(-25.15 60.16) rotate(-14.73)"/><ellipse class="cls-15" cx="223.27" cy="126.53" rx="1.4" ry="1.21" transform="translate(-24.84 60.94) rotate(-14.73)"/><polyline class="cls-32" points="223.45 88.94 225.07 94.63 229.68 93.48"/><path class="cls-33" d="M198.68,100.51c0-.08,0-0.16.05-0.24s0.09-.17.2-0.09a4,4,0,0,0,2.84.38c0.84-.08,1.67-0.29,2.51-0.34a4.82,4.82,0,0,1,2.19.3,0.51,0.51,0,0,1,.35.41,17.17,17.17,0,0,0,.67,2.19,5.53,5.53,0,0,1,.26,1.29c0,0.14,0,.24-0.19.24a5.38,5.38,0,0,0-2.27.56c-1,.43-1.91.92-2.87,1.35a7.7,7.7,0,0,1-2.47.77c-0.44,0-.48,0-0.41-0.42a6.11,6.11,0,0,0-.27-2.53c-0.21-.82-0.46-1.63-0.61-2.46A3.79,3.79,0,0,1,198.68,100.51Z"/><path class="cls-33" d="M216.55,96.26c0-.08,0-0.16.05-0.24s0.09-.17.2-0.09a4,4,0,0,0,2.84.38c0.84-.08,1.67-0.29,2.51-0.34a4.82,4.82,0,0,1,2.19.3,0.51,0.51,0,0,1,.35.41,17.17,17.17,0,0,0,.67,2.19,5.53,5.53,0,0,1,.26,1.29c0,0.14,0,.24-0.19.24a5.38,5.38,0,0,0-2.27.56c-1,.43-1.91.92-2.87,1.35a7.7,7.7,0,0,1-2.47.77c-0.44,0-.48,0-0.41-0.42a6.11,6.11,0,0,0-.27-2.53c-0.21-.82-0.46-1.63-0.61-2.46A3.79,3.79,0,0,1,216.55,96.26Z"/><rect class="cls-34" x="196.94" y="150.46" width="46.14" height="42.4" transform="translate(80.23 -69.87) rotate(21.98)"/><rect class="cls-35" x="203.91" y="151.81" width="46.14" height="5.18" transform="translate(74.28 -73.73) rotate(21.98)"/><circle class="cls-36" cx="208.34" cy="146.88" r="1.17" transform="translate(-5.83 285.11) rotate(-68.02)"/><circle class="cls-36" cx="211.3" cy="148.07" r="1.17" transform="translate(-5.09 288.6) rotate(-68.02)"/><circle class="cls-36" cx="214.26" cy="149.26" r="1.17" transform="matrix(0.37, -0.93, 0.93, 0.37, -4.35, 292.09)"/><rect class="cls-10" x="222.41" y="175.35" width="11.65" height="0.69" transform="translate(82.35 -72.65) rotate(21.98)"/><rect class="cls-10" x="221.97" y="184.9" width="5.24" height="0.69" transform="translate(85.65 -70.59) rotate(21.98)"/><rect class="cls-31" x="221.5" y="177.5" width="11.65" height="0.92" transform="translate(83.12 -72.15) rotate(21.98)"/><rect class="cls-11" x="218.63" y="178.52" width="4.01" height="1.62" transform="translate(83.15 -69.54) rotate(21.98)"/><rect class="cls-11" x="221.5" y="181.61" width="4.01" height="1.62" transform="translate(84.52 -70.39) rotate(21.98)"/><rect class="cls-12" x="219.96" y="186.42" width="7.4" height="2.11" transform="translate(86.42 -70.08) rotate(21.98)"/><rect class="cls-10" x="220.41" y="167.32" width="10.22" height="0.69" transform="translate(79.14 -72.22) rotate(21.98)"/><rect class="cls-10" x="231.71" y="171.88" width="10.22" height="0.69" transform="translate(81.67 -76.12) rotate(21.98)"/><rect class="cls-13" x="232.96" y="173.41" width="5.76" height="0.46" transform="translate(82.13 -75.65) rotate(21.98)"/><rect class="cls-13" x="221.83" y="168.91" width="5.76" height="0.46" transform="translate(79.64 -71.81) rotate(21.98)"/><ellipse class="cls-14" cx="223.73" cy="180.44" rx="0.75" ry="0.87" transform="translate(-27.32 320.38) rotate(-68.02)"/><ellipse class="cls-15" cx="233.14" cy="184.23" rx="0.75" ry="0.87" transform="translate(-24.96 331.47) rotate(-68.02)"/><ellipse class="cls-15" cx="231.26" cy="183.47" rx="0.75" ry="0.87" transform="translate(-25.43 329.25) rotate(-68.02)"/><ellipse class="cls-15" cx="229.38" cy="182.71" rx="0.75" ry="0.87" transform="translate(-25.9 327.04) rotate(-68.02)"/><ellipse class="cls-15" cx="227.5" cy="181.95" rx="0.75" ry="0.87" transform="translate(-26.38 324.82) rotate(-68.02)"/><ellipse class="cls-15" cx="225.62" cy="181.2" rx="0.75" ry="0.87" transform="translate(-26.85 322.6) rotate(-68.02)"/><ellipse class="cls-14" cx="226.53" cy="183.58" rx="0.75" ry="0.87" transform="translate(-28.49 324.94) rotate(-68.02)"/><ellipse class="cls-15" cx="228.42" cy="184.34" rx="0.75" ry="0.87" transform="translate(-28.01 327.16) rotate(-68.02)"/><line class="cls-37" x1="222.85" y1="156.97" x2="210.2" y2="188.31"/><rect class="cls-38" x="204.63" y="153.49" width="12.53" height="1.36" transform="translate(73.03 -67.73) rotate(21.98)"/><rect class="cls-38" x="203.44" y="156.44" width="12.53" height="1.36" transform="translate(74.05 -67.07) rotate(21.98)"/><rect class="cls-38" x="202.25" y="159.4" width="12.53" height="1.36" transform="translate(75.07 -66.4) rotate(21.98)"/><rect class="cls-38" x="193.9" y="180.53" width="17.01" height="1.36" transform="translate(82.53 -62.58) rotate(21.98)"/><rect class="cls-33" x="199.03" y="162.83" width="17.01" height="11.32" transform="translate(78.14 -65.42) rotate(21.98)"/><rect class="cls-39" x="195.5" y="174.9" width="17.01" height="4.65" transform="translate(81.16 -63.47) rotate(21.98)"/><path class="cls-40" d="M226.22,160.61l0.12-.09c0.06,0,.11,0,0.13,0a2.5,2.5,0,0,0,1.21,1.3c0.43,0.29.91,0.51,1.34,0.82a3,3,0,0,1,.93,1,0.32,0.32,0,0,1,0,.33,10.62,10.62,0,0,0-.54,1.31,3.42,3.42,0,0,1-.38.72c0,0.07-.1.11-0.18,0a3.33,3.33,0,0,0-1.3-.62c-0.63-.17-1.27-0.31-1.91-0.48a4.77,4.77,0,0,1-1.48-.6c-0.22-.15-0.23-0.19,0-0.36a3.78,3.78,0,0,0,.87-1.32c0.22-.47.42-1,0.67-1.42A2.35,2.35,0,0,1,226.22,160.61Z"/><path class="cls-40" d="M237.36,165.17l0.12-.09c0.06,0,.11,0,0.13,0a2.5,2.5,0,0,0,1.21,1.3c0.43,0.29.91,0.51,1.34,0.82a3,3,0,0,1,.93,1,0.32,0.32,0,0,1,0,.33,10.62,10.62,0,0,0-.54,1.31,3.42,3.42,0,0,1-.38.72c0,0.07-.1.11-0.18,0a3.33,3.33,0,0,0-1.3-.62c-0.63-.17-1.27-0.31-1.91-0.48a4.77,4.77,0,0,1-1.48-.6c-0.22-.15-0.23-0.19,0-0.36a3.78,3.78,0,0,0,.87-1.32c0.22-.47.42-1,0.67-1.42A2.35,2.35,0,0,1,237.36,165.17Z"/><path class="cls-41" d="M284.94,117.57c-2.38-8.81-9-14.7-14.77-13.17-2.2.59-5.74,2.06-8.24,2.23v-2.46h0c0-.14,0-0.26,0-0.41a4.54,4.54,0,0,0-4.52-4.56h-6.58a2.9,2.9,0,0,1,0-5.81h9.46a1.65,1.65,0,0,0,1.65-1.66V88.41a0.82,0.82,0,1,0-1.65,0v1.66c0,1.64-.07,1.66-1.65,1.66h-7.82a4.56,4.56,0,0,0,0,9.12h6.58a2.89,2.89,0,0,1,2.88,2.9c0,0.15,0,.27,0,0.41h0v2.48c-2.46-.18-6-1.65-8.12-2.24-5.71-1.54-12.24,4.38-14.59,13.23s0.37,17.27,6.07,18.81c4.26,1.15,9-1.87,12.07-7.14a26,26,0,0,0,5.4.57,26.53,26.53,0,0,0,5.46-.69c3.14,5.25,7.91,8.25,12.22,7.11,5.78-1.53,8.53-9.92,6.15-18.72h0Z"/><path class="cls-42" d="M276.74,123.24a0.83,0.83,0,1,0,.82.83,0.83,0.83,0,0,0-.82-0.83h0Z"/><path class="cls-43" d="M276.74,115.78a0.83,0.83,0,1,0,.82.83,0.83,0.83,0,0,0-.82-0.83h0Z"/><path class="cls-42" d="M269.34,121.58a0.83,0.83,0,1,0,.82.83,0.83,0.83,0,0,0-.82-0.83h0Z"/><path class="cls-43" d="M269.34,114.12a0.83,0.83,0,1,0,.82.83,0.82,0.82,0,0,0-.82-0.83h0Z"/><path class="cls-43" d="M252.88,119.09h-3.29v3.32a0.82,0.82,0,1,1-1.65,0v-3.32h-3.29a0.83,0.83,0,0,1,0-1.66h3.29v-3.32a0.82,0.82,0,1,1,1.65,0v3.32h3.29a0.83,0.83,0,0,1,0,1.66h0Z"/><path class="cls-43" d="M269.34,124.9a2.49,2.49,0,1,1,2.47-2.49,2.48,2.48,0,0,1-2.47,2.49h0Z"/><path class="cls-43" d="M269.34,117.43a2.49,2.49,0,1,1,2.47-2.48,2.48,2.48,0,0,1-2.47,2.48h0Z"/><path class="cls-43" d="M276.74,126.56a2.49,2.49,0,1,1,2.47-2.49,2.48,2.48,0,0,1-2.47,2.49h0Z"/><path class="cls-43" d="M276.74,119.09a2.49,2.49,0,1,1,2.47-2.49,2.48,2.48,0,0,1-2.47,2.49h0Z"/><circle class="cls-44" cx="268.01" cy="149.13" r="12.67" transform="translate(-0.55 0.99) rotate(-0.21)"/><path class="cls-45" d="M258.85,140.37l-0.2.21a44.59,44.59,0,0,0,18,17.78l0.21-.2A44.29,44.29,0,0,1,258.85,140.37Z"/><path class="cls-4" d="M262.47,147.67a0.21,0.21,0,0,0-.33.27l0.63,0.76a0.21,0.21,0,1,0,.32-0.27Zm-1.21-1.55a0.21,0.21,0,0,0-.34.25l0.6,0.79a0.21,0.21,0,1,0,.33-0.26Zm2.48,3.06a0.21,0.21,0,0,0-.32.28l0.67,0.74a0.21,0.21,0,0,0,.15.07,0.21,0.21,0,0,0,.15-0.35Zm1.34,1.44a0.21,0.21,0,0,0-.3.29l0.7,0.7a0.21,0.21,0,1,0,.3-0.3Zm-6.94-9.42-0.28.36,0.36,0.65a0.21,0.21,0,0,0,.18.11l0.1,0a0.21,0.21,0,0,0,.08-0.29Zm0.93,1.66a0.21,0.21,0,1,0-.36.22l0.52,0.85a0.21,0.21,0,1,0,.36-0.23Zm7.41,9.15a0.21,0.21,0,1,0-.29.31l0.73,0.67a0.21,0.21,0,1,0,.28-0.31Zm3,2.57a0.21,0.21,0,1,0-.26.33L270,155.5a0.21,0.21,0,0,0,.13,0,0.21,0.21,0,0,0,.13-0.38Zm1.57,1.18a0.21,0.21,0,0,0-.25.34l0.81,0.57a0.21,0.21,0,0,0,.12,0,0.21,0.21,0,0,0,.12-0.38Zm-10.9-11.24a0.21,0.21,0,0,0-.35.24l0.56,0.82a0.21,0.21,0,0,0,.17.09,0.21,0.21,0,0,0,.12,0,0.21,0.21,0,0,0,.05-0.29ZM276,158.86a0.21,0.21,0,0,0-.28.29l0.33-.26Zm-2.56-1.47-0.83-.53a0.21,0.21,0,0,0-.23.35l0.84,0.53A0.21,0.21,0,1,0,273.48,157.39Zm-5.54-4.08a0.21,0.21,0,1,0-.28.32l0.76,0.64a0.21,0.21,0,1,0,.27-0.33Zm7.23,5.08-0.85-.49a0.21,0.21,0,0,0-.22.36l0.86,0.5,0.1,0A0.21,0.21,0,0,0,275.17,158.39Z"/><path class="cls-4" d="M262.9,144.47a0.21,0.21,0,1,0-.34.25l0.6,0.79a0.21,0.21,0,1,0,.33-0.26Zm1.21,1.56a0.21,0.21,0,1,0-.33.27l0.63,0.76a0.21,0.21,0,0,0,.16.07,0.21,0.21,0,0,0,.16-0.35Zm-2.34-3.16a0.21,0.21,0,0,0-.35.24l0.56,0.82a0.21,0.21,0,1,0,.35-0.24Zm-1.06-1.66a0.21,0.21,0,0,0-.36.22l0.52,0.85a0.21,0.21,0,1,0,.36-0.23Zm17,16a0.21,0.21,0,0,0-.22.36l0.28-.32Zm-11-8.25a0.21,0.21,0,1,0-.3.29l0.7,0.71a0.21,0.21,0,1,0,.3-0.3Zm-1.34-1.44a0.21,0.21,0,0,0-.32.28l0.67,0.74a0.21,0.21,0,1,0,.31-0.29Zm7.29,6.58a0.21,0.21,0,1,0-.25.34l0.81,0.57a0.21,0.21,0,0,0,.12,0,0.21,0.21,0,0,0,.12-0.39Zm-1.57-1.18a0.21,0.21,0,1,0-.26.33l0.79,0.61a0.21,0.21,0,0,0,.13,0,0.21,0.21,0,0,0,.13-0.38Zm4,2.83-0.83-.53a0.21,0.21,0,0,0-.23.35l0.84,0.53A0.21,0.21,0,0,0,275.12,155.75Zm-5.54-4.08a0.21,0.21,0,0,0-.28.32l0.76,0.64a0.21,0.21,0,0,0,.27-0.33Zm-9.82-12.16-0.33.29,0.42,0.76a0.21,0.21,0,0,0,.18.11l0.1,0a0.21,0.21,0,0,0,.08-0.29C260,140,259.89,139.76,259.76,139.51Zm17.06,17.24-0.85-.49a0.21,0.21,0,1,0-.22.36l0.86,0.5,0.1,0A0.21,0.21,0,0,0,276.82,156.75Zm-8.69-6.4a0.21,0.21,0,0,0-.29.31l0.73,0.67a0.21,0.21,0,0,0,.28-0.31Z"/><path class="cls-4" d="M278.38,156.34h0a0.68,0.68,0,0,0,0-.33,1.75,1.75,0,0,0-1.09-.32h0a0.72,0.72,0,0,0,0-.33,1.63,1.63,0,0,0-1.09-.34l0,0a0.68,0.68,0,0,0,0-.33,0.61,0.61,0,0,0-.49-0.26c-0.23-.06-0.48-0.09-0.59-0.11h0a0.72,0.72,0,0,0,0-.33,1.62,1.62,0,0,0-1.07-.41l0,0a0.69,0.69,0,0,0,0-.34,1.81,1.81,0,0,0-1.06-.43h0a0.72,0.72,0,0,0,0-.33,1.62,1.62,0,0,0-1-.47l0,0a0.69,0.69,0,0,0,0-.33,1.79,1.79,0,0,0-1-.49h0a0.72,0.72,0,0,0,0-.33,1.62,1.62,0,0,0-1-.53l0,0a0.69,0.69,0,0,0,0-.32,1.81,1.81,0,0,0-1-.56h0a0.72,0.72,0,0,0,.06-0.32,1.62,1.62,0,0,0-1-.59,0.15,0.15,0,0,1,0,0,0.68,0.68,0,0,0,.06-0.32,1.75,1.75,0,0,0-1-.62h0a0.72,0.72,0,0,0,.08-0.32,1.63,1.63,0,0,0-1-.64l0,0a0.71,0.71,0,0,0,.09-0.32,1.61,1.61,0,0,0-.91-0.68h0a0.7,0.7,0,0,0,.1-0.32,1.76,1.76,0,0,0-.9-0.7l0,0a0.71,0.71,0,0,0,.11-0.32,1.63,1.63,0,0,0-.89-0.72h0a0.72,0.72,0,0,0,.11-0.31,1.62,1.62,0,0,0-.85-0.76l0,0a0.69,0.69,0,0,0,.13-0.31,1.7,1.7,0,0,0-.83-0.78h0a0.7,0.7,0,0,0,.13-0.3,1.73,1.73,0,0,0-.81-0.81l0,0a0.7,0.7,0,0,0,.15-0.3,1.71,1.71,0,0,0-.78-0.84h0l-0.29.21a2.88,2.88,0,0,0,.72.64l0,0a0.67,0.67,0,0,0-.15.3,1.56,1.56,0,0,0,.81.82h0a0.68,0.68,0,0,0-.13.3,1.59,1.59,0,0,0,.83.79l0,0a0.67,0.67,0,0,0-.13.31,1.63,1.63,0,0,0,.86.76h0a0.71,0.71,0,0,0-.12.31,1.62,1.62,0,0,0,.89.73l0,0a0.68,0.68,0,0,0-.11.32,1.51,1.51,0,0,0,.9.71h0a0.68,0.68,0,0,0-.1.32,1.63,1.63,0,0,0,.92.69,0.17,0.17,0,0,1,0,0,0.71,0.71,0,0,0-.09.32,1.64,1.64,0,0,0,1,.64h0a0.69,0.69,0,0,0-.08.32,1.55,1.55,0,0,0,1,.63,0.16,0.16,0,0,1,0,0,0.67,0.67,0,0,0-.06.32,1.64,1.64,0,0,0,1,.59h0a0.7,0.7,0,0,0-.06.33,1.5,1.5,0,0,0,1,.57l0,0a0.67,0.67,0,0,0,0,.33,1.63,1.63,0,0,0,1,.54h0a0.7,0.7,0,0,0,0,.33,0.62,0.62,0,0,0,.44.35c0.23,0.08.48,0.13,0.59,0.16l0,0a0.67,0.67,0,0,0,0,.33,1.63,1.63,0,0,0,1,.48h0a0.71,0.71,0,0,0,0,.33,0.62,0.62,0,0,0,.46.32c0.23,0.07.49,0.1,0.6,0.12l0,0a0.68,0.68,0,0,0,0,.34,1.64,1.64,0,0,0,1.07.41h0a0.71,0.71,0,0,0,0,.33,1.48,1.48,0,0,0,1.08.38l0,0a0.66,0.66,0,0,0,0,.33,1.64,1.64,0,0,0,1.1.34h0a0.7,0.7,0,0,0,0,.33,1.58,1.58,0,0,0,1.09.33h0a0.66,0.66,0,0,0,0,.33,0.24,0.24,0,0,0,.12.12l0.22-.31h0Z"/><path class="cls-4" d="M278.9,155.11h0a0.67,0.67,0,0,0,0-.33,1.75,1.75,0,0,0-1.09-.32h0a0.71,0.71,0,0,0,0-.33,1.62,1.62,0,0,0-1.09-.34l0,0a0.68,0.68,0,0,0,0-.33,0.61,0.61,0,0,0-.49-0.26c-0.23-.06-0.48-0.09-0.59-0.11h0a0.73,0.73,0,0,0,0-.33,1.62,1.62,0,0,0-1.07-.4l0,0a0.68,0.68,0,0,0,0-.34,1.81,1.81,0,0,0-1.06-.43h0a0.72,0.72,0,0,0,0-.33,1.62,1.62,0,0,0-1-.47l0,0a0.69,0.69,0,0,0,0-.33,1.79,1.79,0,0,0-1-.49h0a0.72,0.72,0,0,0,0-.33,1.62,1.62,0,0,0-1-.53l0,0a0.69,0.69,0,0,0,0-.32,1.81,1.81,0,0,0-1-.56h0a0.71,0.71,0,0,0,.06-0.32,1.62,1.62,0,0,0-1-.59,0.17,0.17,0,0,1,0,0,0.69,0.69,0,0,0,.06-0.32,1.75,1.75,0,0,0-1-.62h0a0.71,0.71,0,0,0,.08-0.32,1.63,1.63,0,0,0-1-.64l0,0a0.71,0.71,0,0,0,.09-0.32,1.61,1.61,0,0,0-.91-0.68h0a0.7,0.7,0,0,0,.09-0.32,1.75,1.75,0,0,0-.9-0.7l0,0a0.71,0.71,0,0,0,.11-0.32,1.63,1.63,0,0,0-.89-0.72h0a0.71,0.71,0,0,0,.11-0.31,1.62,1.62,0,0,0-.85-0.76l0,0a0.69,0.69,0,0,0,.13-0.31,1.7,1.7,0,0,0-.83-0.78h0a0.7,0.7,0,0,0,.13-0.3,1.73,1.73,0,0,0-.81-0.81l0,0a0.7,0.7,0,0,0,.15-0.3,0.43,0.43,0,0,0-.16-0.33l-0.37.22,0.18,0.13,0,0a0.67,0.67,0,0,0-.15.3,1.56,1.56,0,0,0,.81.82h0a0.69,0.69,0,0,0-.13.3,1.59,1.59,0,0,0,.83.79l0,0a0.68,0.68,0,0,0-.13.31,1.63,1.63,0,0,0,.86.76h0a0.71,0.71,0,0,0-.12.31,1.63,1.63,0,0,0,.89.73l0,0a0.69,0.69,0,0,0-.11.32,1.51,1.51,0,0,0,.9.71h0a0.68,0.68,0,0,0-.09.32,1.63,1.63,0,0,0,.92.69,0.17,0.17,0,0,1,0,0,0.71,0.71,0,0,0-.09.32,1.64,1.64,0,0,0,1,.64h0a0.69,0.69,0,0,0-.08.32,1.55,1.55,0,0,0,1,.63,0.16,0.16,0,0,1,0,0,0.68,0.68,0,0,0-.06.32,1.64,1.64,0,0,0,1,.59h0a0.7,0.7,0,0,0-.06.33,1.49,1.49,0,0,0,1,.57l0,0a0.67,0.67,0,0,0,0,.33,1.63,1.63,0,0,0,1,.54h0a0.7,0.7,0,0,0,0,.33,0.62,0.62,0,0,0,.44.35c0.23,0.08.48,0.13,0.59,0.16l0,0a0.67,0.67,0,0,0,0,.34,1.63,1.63,0,0,0,1,.48h0a0.71,0.71,0,0,0,0,.33,0.62,0.62,0,0,0,.46.32c0.23,0.06.49,0.1,0.6,0.12l0,0a0.67,0.67,0,0,0,0,.34,1.64,1.64,0,0,0,1.07.41h0a0.71,0.71,0,0,0,0,.33,1.48,1.48,0,0,0,1.08.38l0,0a0.67,0.67,0,0,0,0,.33,1.64,1.64,0,0,0,1.1.34h0a0.69,0.69,0,0,0,0,.33,1.57,1.57,0,0,0,1.09.33h0a0.66,0.66,0,0,0,0,.33,0.45,0.45,0,0,0,.35.2l0.22-.38H278.9Z"/><path class="cls-4" d="M272.64,160.26h0a0.72,0.72,0,0,0,0-.33,1.63,1.63,0,0,0-1.09-.33l0,0a0.68,0.68,0,0,0,0-.33A0.61,0.61,0,0,0,271,159c-0.23-.06-0.48-0.09-0.59-0.11h0a0.72,0.72,0,0,0,0-.33,1.62,1.62,0,0,0-1.07-.41l0,0a0.69,0.69,0,0,0,0-.34,1.8,1.8,0,0,0-1.06-.43h0a0.72,0.72,0,0,0,0-.33,1.62,1.62,0,0,0-1-.47l0,0a0.69,0.69,0,0,0,0-.33,1.79,1.79,0,0,0-1-.49h0a0.72,0.72,0,0,0,0-.33,1.62,1.62,0,0,0-1-.53l0,0a0.69,0.69,0,0,0,0-.32,1.81,1.81,0,0,0-1-.56h0a0.72,0.72,0,0,0,.06-0.32,1.62,1.62,0,0,0-1-.59,0.16,0.16,0,0,1,0,0,0.68,0.68,0,0,0,.06-0.32,1.75,1.75,0,0,0-1-.62h0a0.71,0.71,0,0,0,.08-0.32,1.63,1.63,0,0,0-1-.64l0,0a0.71,0.71,0,0,0,.09-0.32,1.61,1.61,0,0,0-.91-0.68h0a0.7,0.7,0,0,0,.1-0.32,1.76,1.76,0,0,0-.9-0.7l0,0a0.71,0.71,0,0,0,.11-0.32,1.63,1.63,0,0,0-.89-0.72h0a0.72,0.72,0,0,0,.11-0.31,1.61,1.61,0,0,0-.85-0.76l0,0a0.69,0.69,0,0,0,.13-0.31,1.7,1.7,0,0,0-.83-0.78h0a0.7,0.7,0,0,0,.13-0.3,1.73,1.73,0,0,0-.81-0.81l0,0a0.7,0.7,0,0,0,.15-0.3,0.64,0.64,0,0,0-.31-0.47l-0.18.39,0.14,0.09,0,0a0.68,0.68,0,0,0-.15.3,1.56,1.56,0,0,0,.81.82h0a0.69,0.69,0,0,0-.13.3,1.59,1.59,0,0,0,.83.79l0,0a0.67,0.67,0,0,0-.13.31,1.63,1.63,0,0,0,.86.76h0a0.71,0.71,0,0,0-.12.31,1.63,1.63,0,0,0,.89.73l0,0a0.68,0.68,0,0,0-.11.32,1.51,1.51,0,0,0,.9.71h0a0.69,0.69,0,0,0-.09.32,1.62,1.62,0,0,0,.92.69,0.17,0.17,0,0,1,0,0,0.71,0.71,0,0,0-.09.32,1.64,1.64,0,0,0,1,.64h0a0.69,0.69,0,0,0-.08.32,1.55,1.55,0,0,0,1,.63,0.16,0.16,0,0,1,0,0,0.67,0.67,0,0,0-.06.32,1.64,1.64,0,0,0,1,.59h0a0.69,0.69,0,0,0-.06.33,1.49,1.49,0,0,0,1,.57l0,0a0.67,0.67,0,0,0,0,.33,1.64,1.64,0,0,0,1,.54h0a0.7,0.7,0,0,0,0,.33,0.62,0.62,0,0,0,.44.35c0.23,0.08.48,0.13,0.59,0.16l0,0a0.68,0.68,0,0,0,0,.34,1.64,1.64,0,0,0,1,.47h0a0.71,0.71,0,0,0,0,.33,0.62,0.62,0,0,0,.46.32c0.23,0.07.49,0.1,0.6,0.12l0,0a0.67,0.67,0,0,0,0,.34,1.64,1.64,0,0,0,1.07.41h0a0.7,0.7,0,0,0,0,.33,1.48,1.48,0,0,0,1.08.38l0,0a0.66,0.66,0,0,0,0,.33,1.64,1.64,0,0,0,1.1.34h0a0.7,0.7,0,0,0,0,.33,1,1,0,0,0,.75.3l0.55-.26A2.66,2.66,0,0,0,272.64,160.26Z"/><path class="cls-4" d="M274.32,159.69h0a0.67,0.67,0,0,0,0-.33,1.75,1.75,0,0,0-1.09-.32h0a0.71,0.71,0,0,0,0-.33,1.62,1.62,0,0,0-1.09-.34l0,0a0.69,0.69,0,0,0,0-.34,0.61,0.61,0,0,0-.49-0.26c-0.23-.06-0.48-0.09-0.59-0.11h0a0.72,0.72,0,0,0,0-.33,1.62,1.62,0,0,0-1.07-.41l0,0a0.69,0.69,0,0,0,0-.34,1.8,1.8,0,0,0-1.06-.43h0a0.73,0.73,0,0,0,0-.33,1.62,1.62,0,0,0-1-.47l0,0a0.69,0.69,0,0,0,0-.33,1.79,1.79,0,0,0-1-.49h0a0.72,0.72,0,0,0,0-.33,1.62,1.62,0,0,0-1-.53l0,0a0.69,0.69,0,0,0,0-.32,1.81,1.81,0,0,0-1-.56h0a0.72,0.72,0,0,0,.06-0.32,1.62,1.62,0,0,0-1-.59,0.16,0.16,0,0,1,0,0,0.68,0.68,0,0,0,.06-0.32,1.75,1.75,0,0,0-1-.62h0a0.71,0.71,0,0,0,.08-0.32,1.63,1.63,0,0,0-1-.64l0,0a0.71,0.71,0,0,0,.09-0.32,1.61,1.61,0,0,0-.91-0.68h0a0.7,0.7,0,0,0,.1-0.32,1.75,1.75,0,0,0-.9-0.7l0,0a0.71,0.71,0,0,0,.11-0.32,1.63,1.63,0,0,0-.89-0.72h0a0.72,0.72,0,0,0,.11-0.31,1.62,1.62,0,0,0-.85-0.76l0,0a0.69,0.69,0,0,0,.13-0.31,1.7,1.7,0,0,0-.83-0.78h0a0.7,0.7,0,0,0,.13-0.3,1.73,1.73,0,0,0-.81-0.81l0,0a0.7,0.7,0,0,0,.15-0.3,0.51,0.51,0,0,0-.21-0.39l-0.2.35,0.07,0,0,0a0.68,0.68,0,0,0-.15.3,1.56,1.56,0,0,0,.81.82h0a0.69,0.69,0,0,0-.13.3,1.59,1.59,0,0,0,.83.79l0,0a0.68,0.68,0,0,0-.13.31,1.63,1.63,0,0,0,.86.76h0a0.7,0.7,0,0,0-.12.31,1.62,1.62,0,0,0,.89.73l0,0a0.69,0.69,0,0,0-.11.32,1.51,1.51,0,0,0,.9.71h0a0.68,0.68,0,0,0-.09.32,1.63,1.63,0,0,0,.92.69,0.16,0.16,0,0,1,0,0,0.71,0.71,0,0,0-.09.32,1.64,1.64,0,0,0,1,.64h0a0.69,0.69,0,0,0-.08.32,1.55,1.55,0,0,0,1,.63,0.17,0.17,0,0,1,0,0,0.67,0.67,0,0,0-.06.32,1.64,1.64,0,0,0,1,.59h0a0.7,0.7,0,0,0-.06.33,1.49,1.49,0,0,0,1,.57l0,0a0.67,0.67,0,0,0,0,.33,1.63,1.63,0,0,0,1,.54h0a0.7,0.7,0,0,0,0,.33,0.62,0.62,0,0,0,.44.35c0.23,0.08.48,0.13,0.59,0.16l0,0a0.68,0.68,0,0,0,0,.34,1.64,1.64,0,0,0,1,.47h0a0.71,0.71,0,0,0,0,.33,0.62,0.62,0,0,0,.46.32c0.23,0.06.49,0.1,0.6,0.12l0,0a0.68,0.68,0,0,0,0,.34,1.64,1.64,0,0,0,1.07.41h0a0.71,0.71,0,0,0,0,.33,1.48,1.48,0,0,0,1.08.38l0,0a0.66,0.66,0,0,0,0,.33,1.64,1.64,0,0,0,1.1.34h0a0.7,0.7,0,0,0,0,.33,1.58,1.58,0,0,0,1.09.33h0a0.66,0.66,0,0,0,0,.33,0.44,0.44,0,0,0,.34.2l0.57-.35C274.71,159.7,274.44,159.7,274.32,159.69Z"/><polygon class="cls-46" points="132.32 143.94 78.32 185.94 160.82 236.94 211.82 194.19 132.32 143.94"/><polygon class="cls-47" points="212.98 194.19 264.73 236.94 346.48 185.19 295.48 143.94 212.98 194.19"/><path class="cls-48" d="M273.69,33.32a1,1,0,0,1-1,.84A22,22,0,0,0,255,37.75a1,1,0,0,1-1.23-.4l-0.08-.1a0.93,0.93,0,0,1,0-1.32,24.29,24.29,0,0,1,19.51-4,0.93,0.93,0,0,1,.52,1.21Z"/><path class="cls-48" d="M273.2,32a24.29,24.29,0,0,0-19.51,4,0.93,0.93,0,0,0,0,1.32,23.23,23.23,0,0,1,20-4.06A0.93,0.93,0,0,0,273.2,32Z"/><rect class="cls-49" x="254.93" y="36.42" width="1.51" height="7.31" rx="0.7" ry="0.7" transform="translate(-2.87 51.55) rotate(-11.45)"/><circle class="cls-49" cx="255.75" cy="40.41" r="1.68" transform="translate(-2.93 51.57) rotate(-11.45)"/><path class="cls-49" d="M272.93,32.91H273a0.69,0.69,0,0,1,.69.69v5.92a0.7,0.7,0,0,1-.7.7h-0.11a0.7,0.7,0,0,1-.7-0.7V33.61a0.7,0.7,0,0,1,.7-0.7Z" transform="translate(-1.83 54.92) rotate(-11.45)"/><circle class="cls-49" cx="273.05" cy="36.91" r="1.68" transform="translate(-1.89 54.94) rotate(-11.45)"/><rect class="cls-50" x="236.85" y="38.18" width="63.55" height="42.68" rx="2.09" ry="2.09" transform="translate(-6.47 54.51) rotate(-11.45)"/><path class="cls-48" d="M298.76,48.21a2.82,2.82,0,0,1-1.5,3A127.77,127.77,0,0,1,239,63a2.82,2.82,0,0,1-2.53-2.14L233.66,47a2.09,2.09,0,0,1,1.63-2.46l58.2-11.79a2.1,2.1,0,0,1,2.46,1.63Z"/><path class="cls-50" d="M268.55,59.13A126.58,126.58,0,0,1,239,61.57a1.44,1.44,0,0,1-1.22-1L235,46.68a0.7,0.7,0,0,1,.55-0.82l58.19-11.79a0.7,0.7,0,0,1,.82.54l2.81,13.87a1.44,1.44,0,0,1-.73,1.42,126.56,126.56,0,0,1-28.12,9.23h0Z"/><path class="cls-51" d="M268.13,57.09a130.76,130.76,0,0,1-28.19,2.55,1.43,1.43,0,0,1-1.22-.89l-3.34-12.22a0.61,0.61,0,0,1,.52-0.74l57.54-11.65a0.61,0.61,0,0,1,.75.48l1.67,12.56a1.43,1.43,0,0,1-.79,1.29,130.73,130.73,0,0,1-26.95,8.62h0Z"/><path class="cls-48" d="M260.39,39.3l3.67,18.14c0.18,0.9.64,1.58,1,1.5l6.6-1.34c0.37-.08.53-0.87,0.35-1.78l-3.67-18.14Z"/><path class="cls-50" d="M261.36,39.1L265,57.24a9.15,9.15,0,0,0,.41,1.62l0.75-.15a9,9,0,0,0-.25-1.65l-3.67-18.14Z"/><path class="cls-50" d="M266.47,38.06l3.67,18.14a9.12,9.12,0,0,0,.41,1.62l0.75-.15a8.89,8.89,0,0,0-.25-1.65l-3.67-18.14Z"/><path class="cls-52" d="M273.21,64a0.93,0.93,0,0,1-.42.92,10.17,10.17,0,0,1-5.87,1.19,0.92,0.92,0,0,1-.75-0.69l-1.43-7a0.93,0.93,0,0,1,.42-0.92A10.18,10.18,0,0,1,271,56.3a0.93,0.93,0,0,1,.75.69Z"/><path class="cls-49" d="M271.08,56.54a10.77,10.77,0,0,0-5.87,1.19,0.88,0.88,0,0,0-.43.88l0.62,3.07h0.07l7-1.41-0.62-3.08A0.88,0.88,0,0,0,271.08,56.54Z"/><path class="cls-53" d="M265.53,62.34l0.63,3.12a0.92,0.92,0,0,0,.75.69A10.17,10.17,0,0,0,272.78,65a0.93,0.93,0,0,0,.42-0.92l-0.63-3.12Z"/><path class="cls-49" d="M269.82,65.39a9.6,9.6,0,0,1-2.84.14,0.33,0.33,0,0,1-.21-0.19l-0.51-2.52,5.84-1.18,0.51,2.52a0.33,0.33,0,0,1-.12.26,9.56,9.56,0,0,1-2.67,1h0Z"/><polygon class="cls-54" points="191.88 82.02 157.86 62.9 185.81 13.18 215.32 29.77 216.05 34.25 216.67 37.93 191.88 82.02"/><rect class="cls-10" x="180.72" y="42.11" width="18.77" height="1.11" transform="translate(47.85 -90.47) rotate(30.46)"/><rect class="cls-10" x="177.8" y="56.45" width="8.44" height="1.11" transform="translate(54.01 -84.4) rotate(30.46)"/><rect class="cls-31" x="178.73" y="45.3" width="18.77" height="1.48" transform="translate(49.29 -89) rotate(30.46)"/><rect class="cls-11" x="173.24" y="45.22" width="6.47" height="2.61" transform="translate(46.25 -81.33) rotate(29.7)"/><rect class="cls-11" x="177.73" y="50.94" width="6.47" height="2.61" transform="matrix(0.86, 0.51, -0.51, 0.86, 51.45, -84.52)"/><rect class="cls-12" x="174.06" y="58.63" width="11.92" height="3.4" transform="translate(55.42 -82.92) rotate(30.46)"/><rect class="cls-10" x="178.33" y="31.06" width="16.46" height="1.11" transform="matrix(0.86, 0.51, -0.51, 0.86, 41.77, -90.2)"/><rect class="cls-10" x="195.24" y="41.01" width="16.46" height="1.11" transform="translate(49.14 -97.4) rotate(30.46)"/><rect class="cls-13" x="196.94" y="43.21" width="9.28" height="0.74" transform="translate(49.9 -96.16) rotate(30.46)"/><rect class="cls-13" x="180.27" y="33.41" width="9.28" height="0.74" transform="matrix(0.86, 0.51, -0.51, 0.86, 42.64, -89.06)"/><ellipse class="cls-14" cx="181.81" cy="49.14" rx="1.21" ry="1.4" transform="translate(47.29 180.95) rotate(-59.54)"/><ellipse class="cls-15" cx="195.88" cy="57.42" rx="1.21" ry="1.4" transform="translate(47.1 197.17) rotate(-59.54)"/><ellipse class="cls-15" cx="193.07" cy="55.76" rx="1.21" ry="1.4" transform="translate(47.14 193.93) rotate(-59.54)"/><ellipse class="cls-15" cx="190.25" cy="54.11" rx="1.21" ry="1.4" transform="matrix(0.51, -0.86, 0.86, 0.51, 47.18, 190.68)"/><ellipse class="cls-15" cx="187.44" cy="52.45" rx="1.21" ry="1.4" transform="translate(47.22 187.44) rotate(-59.54)"/><ellipse class="cls-15" cx="184.62" cy="50.8" rx="1.21" ry="1.4" transform="translate(47.25 184.2) rotate(-59.54)"/><ellipse class="cls-14" cx="185.52" cy="54.81" rx="1.21" ry="1.4" transform="translate(44.24 186.95) rotate(-59.54)"/><ellipse class="cls-15" cx="188.34" cy="56.47" rx="1.21" ry="1.4" transform="translate(44.2 190.19) rotate(-59.54)"/><polyline class="cls-32" points="215.13 30.1 212.24 35.26 216.3 37.72"/><path class="cls-55" d="M189.46,20.68l0.21-.13c0.1-.06.18-0.06,0.21,0.07a4,4,0,0,0,1.73,2.28c0.65,0.54,1.38,1,2,1.54A4.82,4.82,0,0,1,195,26.21a0.51,0.51,0,0,1,0,.54,17.17,17.17,0,0,0-1.08,2,5.53,5.53,0,0,1-.73,1.09c-0.09.11-.18,0.16-0.3,0a5.38,5.38,0,0,0-2-1.21c-1-.38-2-0.71-3-1.09a7.7,7.7,0,0,1-2.28-1.21c-0.34-.28-0.33-0.34,0-0.58a6.11,6.11,0,0,0,1.61-2c0.43-.73.83-1.48,1.32-2.17A3.79,3.79,0,0,1,189.46,20.68Z"/><path class="cls-55" d="M205.08,30.36l0.21-.13c0.1-.06.18-0.06,0.21,0.07a4,4,0,0,0,1.73,2.28c0.65,0.54,1.38,1,2,1.54a4.82,4.82,0,0,1,1.33,1.76,0.51,0.51,0,0,1,0,.54,17.17,17.17,0,0,0-1.08,2,5.53,5.53,0,0,1-.73,1.09c-0.09.11-.18,0.16-0.3,0a5.38,5.38,0,0,0-2-1.21c-1-.38-2-0.71-3-1.09a7.7,7.7,0,0,1-2.28-1.21c-0.34-.28-0.33-0.34,0-0.58a6.11,6.11,0,0,0,1.61-2c0.43-.73.83-1.48,1.32-2.17A3.79,3.79,0,0,1,205.08,30.36Z"/><polygon class="cls-55" points="166.08 57.42 163.98 61.06 188.9 75.39 191.05 71.29 166.08 57.42"/><path class="cls-56" d="M85.93,148.75v-0.19H63.79c2.19-1.78,3.66-3.56,3-6.3l12.41-.91a5.8,5.8,0,0,0-2.06-.36c-3.38,0-6.76.09-10.13,0.08a1.78,1.78,0,0,1-1.13-.6,4.89,4.89,0,0,0-4.47-1.7c-1.64.2-2.67,1.22-3.78,2.3-4.67,4.54-9.41,9-14.11,13.53A4.89,4.89,0,0,0,45.67,163q9.7,2.56,19.4,5.11a4.76,4.76,0,0,0,6.09-3.53,4.85,4.85,0,0,0-3.59-5.87c-1.34-.37-2.68-0.71-4-1.07l0-.28,26.67-.94a9.48,9.48,0,0,0-2.25-.18q-14.45,0-28.91,0a21.39,21.39,0,0,1-2.81-.4c2.13-2,4-3.85,5.9-5.61a1.78,1.78,0,0,1,1.06-.39c5.55-.27,11.09-0.51,16.64-0.76C81.89,149,83.91,148.86,85.93,148.75Z"/><path class="cls-56" d="M68.88,137.71v-0.19H49.3v-2.91l10.57-1.19v-0.18H49.29V130.5l5.14-.93,0-.23h-5.2c0-1.19,0-2.22,0-3.25a4.9,4.9,0,1,0-9.79,0c0,2.64,0,5.28,0,7.91,0,0.5,0,1,0,1.61H37.71c-2.75,0-5.5,0-8.25,0a4.8,4.8,0,0,0-4.65,4.83,4.87,4.87,0,0,0,4.82,4.81q7.38,0,14.75,0A4.59,4.59,0,0,0,48.9,142a22.85,22.85,0,0,0,.53-3.07Z"/><path class="cls-56" d="M50.08,127.55l4.66-4.86a9.33,9.33,0,0,0,.78,1.08c1.88,1.9,3.75,3.82,5.68,5.68,2.9,2.79,7.45,1.84,8.65-1.87a17.61,17.61,0,0,0,.31-4l21.5-1.4a3,3,0,0,0-1.08-.14q-10.37,0-20.74,0a2.4,2.4,0,0,1-1.45-.3c-1.31-1.15-2.53-2.41-4-3.88l14.43-1.25c-4.44-.15-8.87-0.23-13.3-0.1a4.66,4.66,0,0,1-4.14-1.73c-0.94-1.14-2.07-2.12-3.24-3.31l11.41-1.09a4.71,4.71,0,0,0-1.43-.15c-4.36,0-8.71,0-13.07,0A5.7,5.7,0,0,0,50.72,112q-3.85,3.87-7.72,7.71c-0.21.21-.38,0.45-0.63,0.74C47.13,119.5,49.42,121.57,50.08,127.55Z"/><path class="cls-56" d="M39.31,108.94l0-.16c-2.55,0-5.1,0-7.65,0a8.22,8.22,0,1,0,7.61,11.73,8.56,8.56,0,0,0,.59-5.54l6.37-1a36.32,36.32,0,0,0-5.4-.14,1.67,1.67,0,0,1-2-1.53l5.17-1a30.34,30.34,0,0,0-5.39-.23c-1.19,0-1.8-.69-2.64-1.45Z"/><path class="cls-56" d="M70.93,157.46c5.43,4.37,10.54,8.53,15.7,12.63A5.23,5.23,0,1,0,93.2,162c-1-.86-2.07-1.7-3.34-2.74l17.65-1.33c-5.76-.14-11.52-0.13-17.27-0.14-1.14,0-2.31.2-3.25-.77a1.58,1.58,0,0,0-1-.15q-6.29.21-12.58,0.45C72.67,157.32,72,157.39,70.93,157.46Z"/><path class="cls-56" d="M97.48,151.19l0-.14c-5.55,0-11.11,0-16.66,0a5.54,5.54,0,0,1-1.92-.68,5.57,5.57,0,0,0-1.85-.86c-4.31.12-8.62,0.36-12.93,0.6a6.17,6.17,0,0,0-1.56.59c2.07,1.67,3.84,3.16,5.68,4.56a3.08,3.08,0,0,0,1.7.63c4.84,0.05,9.67,0,14.51,0,0.3,0,.6,0,1.13-0.09l-4.14-3.39Z"/><path class="cls-56" d="M67.64,142.13a6.56,6.56,0,0,1-2.28,6.1h10.8L73,145.64l12.18-1.19c-3.92-.14-7.83-0.22-11.74-0.11A5.24,5.24,0,0,1,69.59,143,7.68,7.68,0,0,0,67.64,142.13Z"/><path class="cls-56" d="M63.57,157.38l0,0.28c1.34,0.36,2.69.7,4,1.07a4.85,4.85,0,0,1,3.59,5.87,4.76,4.76,0,0,1-6.09,3.53q-9.7-2.53-19.4-5.11a4.89,4.89,0,0,1-2.14-8.44c4.7-4.51,9.43-9,14.11-13.53,1.1-1.07,2.14-2.1,3.78-2.3a4.89,4.89,0,0,1,4.47,1.7,1.78,1.78,0,0,0,1.13.6c3.38,0,6.76-.06,10.13-0.08a5.8,5.8,0,0,1,2.06.36l-12.41.91c0.66,2.75-.82,4.52-3,6.3H85.93v0.19c-2,.11-4,0.22-6.06.32-5.55.25-11.09,0.49-16.64,0.76a1.78,1.78,0,0,0-1.06.39c-1.9,1.77-3.77,3.57-5.9,5.61a21.39,21.39,0,0,0,2.81.4q14.45,0,28.91,0"/><path class="cls-56" d="M68.88,137.71l-19.45,1.23A22.85,22.85,0,0,1,48.9,142a4.59,4.59,0,0,1-4.52,3.26q-7.38,0-14.75,0a4.87,4.87,0,0,1-4.82-4.81,4.8,4.8,0,0,1,4.65-4.83c2.75-.08,5.5,0,8.25,0h1.71c0-.61,0-1.11,0-1.61,0-2.64,0-5.28,0-7.91a4.9,4.9,0,1,1,9.79,0c0,1,0,2.06,0,3.25h5.2l0,0.23-5.14.93v2.74H59.86v0.18L49.3,134.61v2.91H68.88v0.19Z"/><path class="cls-56" d="M50.08,127.55c-0.66-6-3-8.06-7.71-7.1,0.25-.3.42-0.53,0.63-0.74q3.86-3.86,7.72-7.71A5.7,5.7,0,0,1,55,110.22c4.36,0,8.71,0,13.07,0a4.71,4.71,0,0,1,1.43.15l-11.41,1.09c1.18,1.19,2.31,2.17,3.24,3.31a4.66,4.66,0,0,0,4.14,1.73c4.43-.13,8.86,0,13.3.1l-14.43,1.25c1.51,1.47,2.73,2.73,4,3.88a2.4,2.4,0,0,0,1.45.3q10.37,0,20.74,0a3,3,0,0,1,1.08.14l-21.5,1.4a17.61,17.61,0,0,1-.31,4c-1.2,3.71-5.75,4.65-8.65,1.87-1.93-1.86-3.8-3.77-5.68-5.68a9.33,9.33,0,0,1-.78-1.08Z"/><path class="cls-56" d="M39.31,108.94l-3.39.71c0.84,0.76,1.45,1.49,2.64,1.45a30.34,30.34,0,0,1,5.39.23l-5.17,1a1.67,1.67,0,0,0,2,1.53,36.32,36.32,0,0,1,5.4.14l-6.37,1a8.56,8.56,0,0,1-.59,5.54,8.25,8.25,0,1,1-7.61-11.73c2.55,0,5.1,0,7.65,0Z"/><path class="cls-56" d="M70.93,157.46c1-.07,1.73-0.15,2.45-0.17q6.29-.24,12.58-0.45a1.58,1.58,0,0,1,1,.15c0.94,1,2.11.76,3.25,0.77,5.76,0,11.51,0,17.27.14l-17.65,1.33c1.27,1,2.32,1.88,3.34,2.74a5.23,5.23,0,1,1-6.57,8.14C81.48,166,76.36,161.84,70.93,157.46Z"/><path class="cls-56" d="M97.48,151.19l-16,1.22,4.14,3.39c-0.54,0-.83.09-1.13,0.09-4.84,0-9.67,0-14.51,0a3.08,3.08,0,0,1-1.7-.63c-1.84-1.4-3.61-2.89-5.68-4.56a6.17,6.17,0,0,1,1.56-.59c4.31-.24,8.61-0.47,12.93-0.6a5.57,5.57,0,0,1,1.85.86,5.54,5.54,0,0,0,1.92.68c5.55,0.05,11.11,0,16.66,0Z"/><path class="cls-56" d="M67.64,142.13a7.68,7.68,0,0,1,2,.83,5.24,5.24,0,0,0,3.88,1.39c3.91-.12,7.82,0,11.74.11L73,145.64l3.13,2.59H65.36A6.56,6.56,0,0,0,67.64,142.13Z"/></g></g></svg>