<?xml version="1.0" encoding="UTF-8"?>
<svg width="126px" height="180px" viewBox="0 0 126 180" version="1.1" xmlns="http://www.w3.org/2000/svg" xmlns:xlink="http://www.w3.org/1999/xlink">
    <!-- Generator: Sketch 49.1 (51147) - http://www.bohemiancoding.com/sketch -->
    <title>Group 5</title>
    <desc>Created with Sketch.</desc>
    <defs></defs>
    <g id="Page-1" stroke="none" stroke-width="1" fill="none" fill-rule="evenodd">
        <g id="Cricket-API" transform="translate(-554.000000, -2708.000000)" fill-rule="nonzero">
            <g id="Group-5" transform="translate(554.000000, 2708.000000)">
                <g id="dice" transform="translate(20.331325, 50.400000)">
                    <path d="M62.123494,10.8098419 L33.8855422,21.9211803 L5.64759036,10.8098419 C5.64759036,10.8098419 0,12.6556024 0,18.8105949 L29.296875,66.8960015 C34.591491,68.9329593 38.2830158,66.7783434 38.2830158,66.7783434 L67.7710843,18.8105949 C67.7710843,12.6556024 62.123494,10.8098419 62.123494,10.8098419 Z" id="Shape" fill="#FFE9E6"></path>
                    <path d="M28.2158904,26.1715813 L3.71358434,16.6412726 C3.71358434,16.6412726 0,14.7660956 0,18.8767771 C0,28.2232455 0,46.0631589 0,48.9531363 C0,52.9093919 3.75770708,54.3801186 3.75770708,54.3801186 L28.1938309,66.4989063 C28.1938309,66.4989063 32.003012,68.5579236 32.003012,63.3736126 C32.003012,59.5203087 32.003012,37.4226393 32.003012,32.0397797 C32.003012,27.2966867 28.2158904,26.1715813 28.2158904,26.1715813 Z" id="Shape" fill="#D34D35"></path>
                    <path d="M39.5551939,26.0318618 L64.0575,16.5015531 C64.0575,16.5015531 67.7710843,14.6263761 67.7710843,18.7370576 C67.7710843,28.083526 67.7710843,45.9160862 67.7710843,48.8134187 C67.7710843,52.7623193 64.0207323,54.2403991 64.0207323,54.2403991 L39.5772553,66.3591867 C39.5772553,66.3591867 35.7754255,68.4182041 35.7754255,63.2338931 C35.7754255,59.3805892 35.7754255,37.2829217 35.7754255,31.8927071 C35.7680723,27.1569672 39.5551939,26.0318618 39.5551939,26.0318618 Z" id="Shape" fill="#D34D35"></path>
                    <path d="M62.0646649,10.7877805 C54.18157,7.38304782 40.4523362,1.75016566 37.628541,0.661827937 C36.2754725,0.147072666 35.0032944,-0.00735316265 33.8855422,-4.0901527e-16 C32.7677899,-0.00735316265 31.4956118,0.147072666 30.1425433,0.661827937 C27.3187481,1.74281062 13.5895143,7.38304782 5.70641943,10.7877805 C2.15461408,12.3173362 5.76524849,13.3983208 5.76524849,13.3983208 L30.0910674,22.8624454 C30.0910674,22.8624454 31.5838554,23.6051638 33.8855422,23.5904556 C36.1872289,23.6125169 37.6800169,22.8624454 37.6800169,22.8624454 L62.0058358,13.4056739 C62.0058358,13.3983208 65.6164703,12.3173362 62.0646649,10.7877805 Z" id="Shape" fill="#E26752"></path>
                    <path d="M39.5331325,11.2951807 C39.5331325,9.73621047 37.0034827,8.47138554 33.8855422,8.47138554 C30.7676017,8.47138554 28.2379518,9.73621047 28.2379518,11.2951807 C28.2379518,12.854151 30.7676017,14.1189759 33.8855422,14.1189759 C37.0034827,14.1189759 39.5331325,12.854151 39.5331325,11.2951807 Z" id="Shape" fill="#FFFFFF"></path>
                    <path d="M4.7063253,43.9306062 C5.85349209,41.989247 8.19194842,41.820113 9.92005083,43.5482172 C11.6555083,45.2763197 12.1334959,48.2545425 10.9863291,50.1959017 C9.83916227,52.1372609 7.50070595,52.3063931 5.76524849,50.5782907 C4.02979104,48.8428332 3.55915851,45.8719654 4.7063253,43.9306062 Z" id="Shape" fill="#FFFFFF"></path>
                    <path d="M12.8688592,36.8711182 C14.0086709,34.9371122 16.3471273,34.7679782 18.0825847,36.4960825 C19.8180422,38.2241867 20.2886747,41.1950546 19.1415079,43.1364138 C17.9943411,45.077773 15.6558848,45.2469051 13.9277824,43.5188027 C12.1923249,41.7833453 11.7143373,38.8124774 12.8688592,36.8711182 Z" id="Shape" fill="#FFFFFF"></path>
                    <path d="M21.3328897,29.8116303 C22.4800565,27.8702711 24.8185128,27.701137 26.5466171,29.4292413 C28.2820745,31.1573438 28.7600602,34.1355666 27.6128934,36.0769258 C26.4657267,38.018285 24.1272703,38.1874172 22.3918129,36.4593148 C20.6563554,34.7238573 20.1857229,31.7529895 21.3328897,29.8116303 Z" id="Shape" fill="#FFFFFF"></path>
                    <path d="M62.2043844,41.1876995 C61.0572176,39.2463404 58.7187613,39.0772082 56.9906589,40.8053106 C55.2552014,42.5334149 54.7772139,45.5116359 55.9317357,47.4529951 C57.0715474,49.3870011 59.4100038,49.5561352 61.1454612,47.8280309 C62.8809187,46.0999266 63.3515512,43.1290587 62.2043844,41.1876995 Z" id="Shape" fill="#FFFFFF"></path>
                </g>
                <g id="Bowler" transform="translate(47.700000, 0.000000)">
                    <path d="M57.5616373,92.2494353 L61.8480721,168.419382 L51.3605949,169.083779 L44.3737062,113.410135 C44.2522572,112.610001 40.9517024,112.27423 40.1587119,112.424255 L37.9654861,113.095797 C37.4039252,113.19835 36.957297,113.625315 36.8295809,114.181693 L25.2133425,171.155556 L14.8473143,170.44115 L24.2774709,90.3848361 L57.5616373,92.2494353 Z" id="Shape" fill="#031B42"></path>
                    <rect id="Rectangle-path" fill="#E2987B" transform="translate(39.534176, 26.192861) rotate(-179.700000) translate(-39.534176, -26.192861) " x="33.7653489" y="14.8516689" width="11.5376537" height="22.6823842"></rect>
                    <rect id="Rectangle-path" fill="#EFAA8E" transform="translate(39.156258, 15.827875) rotate(-89.427061) translate(-39.156258, -15.827875) " x="26.6035202" y="7.17598805" width="25.1054751" height="17.3037737" rx="8.65188683"></rect>
                    <path d="M22.2126909,92.3744882 L22.2126909,59.7047109 C22.2126909,59.2689234 22.0126572,59.2046268 21.7769033,59.5761179 L19.0192969,63.7982561 C18.7626566,64.167813 18.2780277,64.3002582 17.8691036,64.1125947 L9.11048843,59.7547193 C8.71703428,59.5567274 8.55491129,59.0798951 8.74614147,58.6831106 L17.1404097,41.373058 C17.3866734,40.92816 17.7630847,40.5691983 18.2191624,40.3443136 L29.492486,35.4792101 L30.9212976,34.8362449 L31.5356866,34.5576266 C32.0140674,34.3680989 32.5323926,34.3017729 33.0430828,34.3647371 C35.3861259,34.7758795 37.7493878,35.0620464 40.1228443,35.222024 C42.4629744,35.0601559 44.792844,34.7739897 47.102589,34.3647371 C47.6156224,34.3014801 48.1363287,34.3677965 48.6171293,34.5576266 L49.2529505,34.843389 L50.6817621,35.4863542 L62.0193822,40.4371864 C62.4751777,40.66583 62.8512086,41.0269192 63.0981349,41.4730748 L71.5495556,58.733119 C71.7377928,59.1282737 71.5800352,59.6015463 71.1923527,59.8047277 L62.7480761,64.0911625 C62.3569849,64.2985879 61.8721695,64.1711685 61.633603,63.7982561 L59.2331995,59.6332703 C59.0117337,59.2546352 58.8331323,59.3046436 58.8331323,59.7404312 L58.8331323,92.3744882 L22.2126909,92.3744882 Z" id="Shape" fill="#9D0000"></path>
                    <path d="M49.5745804,35.1112592 L45.9168227,33.0323383 C45.9168227,33.0323383 41.2874731,35.3970215 33.8219324,33.1537873 L30.321344,35.0683948 C30.321344,35.0683948 37.465402,35.6899279 40.1372797,35.6899279 C42.8091574,35.6899279 49.5745804,35.1112592 49.5745804,35.1112592 Z" id="Shape" fill="#FCC155"></path>
                    <path d="M21.3217682,59.6457405 C21.3217682,59.6457405 35.817062,79.8920009 50.5266774,81.6923035 L50.5266774,90.6652404 C50.5266774,90.6652404 28.9659103,81.2993803 21.3217682,59.6457405 Z" id="Shape" fill="#FCC155" transform="translate(35.924223, 75.155490) scale(-1, 1) translate(-35.924223, -75.155490) "></path>
                    <ellipse id="Oval" fill="#031B42" cx="21.0054924" cy="169.362398" rx="4.20785018" ry="2.61472524"></ellipse>
                    <ellipse id="Oval" fill="#031B42" cx="56.9043839" cy="168.905178" rx="4.20785018" ry="2.61472524"></ellipse>
                    <path d="M0.987841766,178.356767 L25.9920449,177.206573 C27.0636536,175.720609 26.5707136,172.37719 25.9563246,169.805329 C24.7666889,170.828422 23.2836945,171.448629 21.7198982,171.577056 C21.3523583,171.620065 20.9826169,171.641534 20.6125692,171.641352 C18.3587223,171.709001 16.2092185,170.691374 14.8330262,168.905178 C6.37446152,174.470399 4.99565832,174.141772 2.62383105,174.941907 C1.91035867,175.114606 1.31234432,175.598945 0.995182134,176.260969 C0.678019948,176.922993 0.67532468,177.692537 0.987841766,178.356767 L0.987841766,178.356767 Z" id="Shape" fill="#FA8D43"></path>
                    <path d="M21.7270422,171.577056 C23.2908385,171.448629 24.773833,170.828422 25.9634686,169.805329 C25.892028,169.505279 25.8205875,169.219516 25.7491469,168.948042 C24.6495243,170.02475 23.2102195,170.686325 21.6770338,170.819785 L21.6770338,170.819785 C17.5263361,171.312725 15.6474488,168.712288 15.4116949,168.362229 C15.2374869,168.509777 15.0815875,168.677668 14.9473311,168.862314 L14.8687465,168.912322 C16.2449388,170.698518 18.3944426,171.716145 20.6482895,171.648496 C21.0089405,171.645238 21.3691111,171.621385 21.7270422,171.577056 L21.7270422,171.577056 Z" id="Shape" fill="#32373B"></path>
                    <path d="M25.0347411,179.778434 L1.96657772,179.778434 C1.42635962,179.490817 1.06087466,178.957262 0.987841766,178.349623 L25.9920449,177.199429 C26.006333,179.778434 25.0347411,179.778434 25.0347411,179.778434 Z" id="Shape" fill="#E74F06"></path>
                    <path d="M14.5829842,171.184132 L13.3041978,169.905346 L12.6683766,170.305413 L13.9185868,171.555623 C13.9185868,171.555623 14.31151,171.991411 14.5829842,171.769945 C14.8544584,171.548479 14.5829842,171.184132 14.5829842,171.184132 Z" id="Shape" fill="#E6C596"></path>
                    <path d="M12.4254787,172.284317 L11.2967175,171.155556 L10.6466082,171.541335 L11.7610813,172.655808 C11.7610813,172.655808 12.1540045,173.091596 12.4254787,172.87013 C12.6969529,172.648664 12.4254787,172.284317 12.4254787,172.284317 Z" id="Shape" fill="#32373B"></path>
                    <path d="M9.86790589,173.384502 L8.96775458,172.484351 L8.28906907,172.841554 L9.19636444,173.748849 C9.19636444,173.748849 9.58928763,174.184637 9.86076183,173.963171 C10.132236,173.741705 9.86790589,173.384502 9.86790589,173.384502 Z" id="Shape" fill="#32373B"></path>
                    <path d="M7.50322268,174.420391 L6.69594413,173.613112 L5.98153833,173.913163 L6.8531134,174.784738 C6.8531134,174.784738 7.2460366,175.220525 7.5175108,174.999059 C7.78898501,174.777594 7.50322268,174.420391 7.50322268,174.420391 Z" id="Shape" fill="#32373B"></path>
                    <path d="M74.6788003,174.227501 C72.306973,173.427367 70.9281698,173.755993 62.4696051,168.190772 C61.0934129,169.976968 58.943909,170.994595 56.6900622,170.926946 C56.3200145,170.927128 55.9502731,170.905659 55.5827332,170.86265 C54.0189369,170.734223 52.5359424,170.114016 51.3463068,169.090923 C50.7319178,171.662784 50.2318337,175.013347 51.3105865,176.492167 L76.3147896,177.642361 C76.6273067,176.978131 76.6246114,176.208587 76.3074492,175.546563 C75.990287,174.884539 75.3922727,174.4002 74.6788003,174.227501 L74.6788003,174.227501 Z" id="Shape" fill="#FA8D43"></path>
                    <path d="M56.6900622,170.926946 C58.943909,170.994595 61.0934129,169.976968 62.4696051,168.190772 L62.3910205,168.140764 C62.2567641,167.956118 62.1008648,167.788227 61.9266567,167.64068 C61.6909028,167.997883 59.7834393,170.59832 55.6613178,170.098236 L55.6613178,170.098236 C54.1281322,169.964775 52.6888274,169.3032 51.5892048,168.226492 C51.5177642,168.497967 51.4463236,168.783729 51.374883,169.083779 C52.5645187,170.106872 54.0475131,170.727079 55.6113094,170.855506 C55.9692405,170.899835 56.3294112,170.923688 56.6900622,170.926946 L56.6900622,170.926946 Z" id="Shape" fill="#32373B"></path>
                    <path d="M51.3105865,176.492167 L76.3147896,177.642361 C76.2417567,178.25 75.8762717,178.783555 75.3360536,179.071172 L52.2821784,179.071172 C52.2821784,179.071172 51.3105865,179.064028 51.3105865,176.492167 Z" id="Shape" fill="#E74F06"></path>
                    <path d="M62.7267912,171.055539 C62.9982654,171.277005 63.3911886,170.841218 63.3911886,170.841218 L64.6413988,169.576719 L64.0055776,169.176652 L62.7267912,170.455438 C62.7267912,170.455438 62.4053086,170.791209 62.7267912,171.055539 Z" id="Shape" fill="#32373B"></path>
                    <path d="M64.8842967,172.14858 C65.1557709,172.370046 65.5486941,171.934258 65.5486941,171.934258 L66.6631672,170.819785 L66.0130579,170.434006 L64.8842967,171.562767 C64.8842967,171.562767 64.5628141,171.891394 64.8842967,172.14858 Z" id="Shape" fill="#32373B"></path>
                    <path d="M67.4418695,173.255909 C67.7133437,173.477375 68.1062669,173.041587 68.1062669,173.041587 L69.0135623,172.134292 L68.3348768,171.777089 L67.4347255,172.677241 C67.4347255,172.677241 67.1203869,172.991579 67.4418695,173.255909 Z" id="Shape" fill="#32373B"></path>
                    <path d="M69.8065527,174.284654 C70.0780269,174.506119 70.4709501,174.070332 70.4709501,174.070332 L71.3425252,173.198757 L70.6281194,172.898706 L69.8208408,173.705985 C69.8208408,173.705985 69.4850701,174.027467 69.8065527,174.284654 Z" id="Shape" fill="#32373B"></path>
                    <path d="M15.7046013,52.2855747 C15.4371776,52.0886698 15.0994442,52.0129171 14.77354,52.07674 C14.4476358,52.1405629 14.1634242,52.3381132 13.9900274,52.6213454 L0.416317124,74.360714 C0.0396166882,75.0460408 0.00525232343,75.8681422 0.323444369,76.582516 L11.975403,99.1934597 C12.0726918,99.3838698 12.2501548,99.5206909 12.4590494,99.5663433 C12.6679441,99.6119958 12.8863047,99.5616792 13.0541558,99.4292136 L17.8906831,95.6428628 C18.4537533,95.1707284 18.6269934,94.3779349 18.3121825,93.7139672 L9.97506676,77.5541079 C9.65912133,76.8403744 9.69884854,76.0193452 10.0822276,75.3394499 L21.2555344,57.8436518 C21.6294168,57.237601 21.4773503,56.4462341 20.9054755,56.021917 L15.7046013,52.2855747 Z" id="Shape" fill="#EFAA8E"></path>
                    <polygon id="Shape" fill="#9D0000" points="9.21779661 59.9511489 17.7335138 64.1589991 23.8273953 54.5859614 18.0407083 52.4213118 14.0471798 50.4281196"></polygon>
                    <circle id="Oval" fill="#D0011B" transform="translate(23.102800, 102.780425) rotate(-0.210000) translate(-23.102800, -102.780425) " cx="23.1028001" cy="102.780425" r="5.22945047"></circle>
                    <path d="M19.3266387,99.1720275 L19.24091,99.2577562 C20.9584506,102.370959 23.5417029,104.91947 26.6778744,106.594704 L26.7636031,106.508975 C23.6232368,104.839445 21.0385329,102.289502 19.3266387,99.1720275 L19.3266387,99.1720275 Z" id="Shape" fill="#231F20" opacity="0.7" style="mix-blend-mode: multiply;"></path>
                    <path d="M20.7983147,102.179676 C20.768723,102.142193 20.7143484,102.135796 20.6768657,102.165388 C20.6393829,102.194979 20.6329859,102.249354 20.6625776,102.286837 L20.9269077,102.601175 C20.9584721,102.638658 21.014446,102.643456 21.0519287,102.611891 C21.0894115,102.580327 21.0942093,102.524353 21.0626448,102.48687 L20.7983147,102.179676 Z M20.2982306,101.536711 C20.2686389,101.497255 20.2126651,101.489259 20.1732096,101.518851 C20.1337541,101.548442 20.1257578,101.604416 20.1553494,101.643872 L20.4053915,101.972498 C20.4280706,101.982893 20.4541529,101.982893 20.4768321,101.972498 L20.5268405,101.972498 C20.5429821,101.956413 20.5520552,101.934562 20.5520552,101.911774 C20.5520552,101.888985 20.5429821,101.867135 20.5268405,101.851049 L20.2982306,101.536711 Z M21.3198309,102.794065 C21.2882665,102.758555 21.2338919,102.755356 21.1983819,102.786921 C21.1628719,102.818485 21.1596734,102.87286 21.1912379,102.90837 L21.4698561,103.20842 C21.4904767,103.216762 21.5135321,103.216762 21.5341526,103.20842 C21.568032,103.208578 21.5988264,103.188768 21.6127294,103.157873 C21.6266325,103.126977 21.621036,103.090791 21.5984492,103.065539 L21.3198309,102.794065 Z M21.8699234,103.387022 C21.8363862,103.351512 21.7804124,103.349913 21.7449024,103.38345 C21.7093924,103.416987 21.7077931,103.472961 21.7413303,103.508471 L22.0270926,103.801377 C22.0606299,103.834914 22.1150044,103.834914 22.1485416,103.801377 C22.1820788,103.76784 22.1820788,103.713465 22.1485416,103.679928 L21.8699234,103.387022 Z M19.0123002,99.5006542 L18.8979952,99.6506794 L19.0480205,99.9150095 C19.0640839,99.9429249 19.0944381,99.9594817 19.1266051,99.9578739 L19.1694694,99.9578739 C19.1856111,99.9417881 19.1946841,99.9199376 19.1946841,99.8971494 C19.1946841,99.8743611 19.1856111,99.8525106 19.1694694,99.8364249 L19.0123002,99.5006542 Z M19.3980793,100.21506 C19.3724332,100.173632 19.3180586,100.160838 19.2766303,100.186484 C19.235202,100.21213 19.222408,100.266504 19.2480541,100.307933 L19.4623758,100.657992 C19.4771788,100.683668 19.5041943,100.699878 19.5338164,100.700856 L19.5838248,100.700856 C19.5999665,100.68477 19.6090395,100.66292 19.6090395,100.640131 C19.6090395,100.617343 19.5999665,100.595493 19.5838248,100.579407 L19.3980793,100.21506 Z M22.4557361,103.987123 C22.4327652,103.965428 22.3999652,103.957636 22.3696915,103.966682 C22.3394178,103.975728 22.3162697,104.000238 22.308967,104.030978 C22.3016642,104.061719 22.3113162,104.094021 22.3342871,104.115716 L22.6343376,104.394334 C22.6573085,104.414753 22.6894277,104.421365 22.7185962,104.411681 C22.7477648,104.401997 22.7695512,104.377487 22.7757487,104.347385 C22.7819463,104.317282 22.7716135,104.286159 22.7486425,104.265741 L22.4557361,103.987123 Z M23.6845141,105.044443 C23.6470313,105.014852 23.5926568,105.021249 23.5630651,105.058731 C23.5334735,105.096214 23.5398705,105.150589 23.5773532,105.18018 L23.8988359,105.430222 L23.9488443,105.430222 C23.987151,105.431422 24.0216004,105.40705 24.0332208,105.370529 C24.0448413,105.334007 24.0308094,105.29421 23.9988527,105.273053 L23.6845141,105.044443 Z M24.3346234,105.530239 C24.2951678,105.50262 24.2407933,105.512216 24.2131744,105.551671 C24.1855556,105.591127 24.1951511,105.645501 24.2346066,105.67312 L24.5703773,105.908874 L24.6203857,105.908874 C24.6586925,105.910074 24.6931418,105.885702 24.7047623,105.849181 C24.7163827,105.812659 24.7023509,105.772862 24.6703941,105.751705 L24.3346234,105.530239 Z M19.8410109,100.893745 C19.813392,100.85429 19.7590175,100.844694 19.7195619,100.872313 C19.6801064,100.899932 19.6705109,100.954307 19.6981297,100.993762 L19.9338836,101.329533 C19.950357,101.352484 19.9770798,101.365845 20.0053242,101.365253 L20.0553326,101.365253 C20.0714743,101.349168 20.0805473,101.327317 20.0805473,101.304529 C20.0805473,101.281741 20.0714743,101.25989 20.0553326,101.243804 L19.8410109,100.893745 Z M26.3992562,106.81617 C26.3648358,106.796417 26.3213576,106.80287 26.2941587,106.831769 C26.2669597,106.860668 26.2631506,106.904457 26.2849512,106.937619 L26.4206883,106.830458 L26.3992562,106.81617 Z M25.3419356,106.208925 L25.0133089,105.994603 C24.9742763,105.974976 24.9267279,105.987842 24.9029177,106.024473 C24.8791076,106.061104 24.8866532,106.109781 24.9204361,106.137484 L25.2633509,106.35895 L25.3062153,106.35895 C25.3486943,106.363923 25.3883407,106.336827 25.3991366,106.295443 C25.4099324,106.254058 25.3885748,106.211048 25.3490796,106.194637 L25.3419356,106.208925 Z M23.055837,104.530071 C23.0328661,104.509652 23.0007468,104.50304 22.9715783,104.512724 C22.9424098,104.522408 22.9206234,104.546918 22.9144259,104.57702 C22.9082283,104.607123 22.9185611,104.638245 22.9415321,104.658664 L23.2558706,104.922994 C23.2801177,104.943413 23.3134162,104.949345 23.3432228,104.938555 C23.3730293,104.927766 23.3948157,104.901895 23.4003752,104.870687 C23.4059347,104.839479 23.3944227,104.807676 23.3701756,104.787257 L23.055837,104.530071 Z M26.0420533,106.62328 L25.6919944,106.423246 C25.6505661,106.399573 25.5977908,106.413966 25.5741175,106.455395 C25.5504441,106.496823 25.5648374,106.549598 25.6062657,106.573272 L25.9634686,106.780449 L26.006333,106.780449 C26.0488119,106.785423 26.0884584,106.758326 26.0992543,106.716942 C26.1100501,106.675558 26.0886925,106.632547 26.0491973,106.616136 L26.0420533,106.62328 Z" id="Shape" fill="#FFFFFF"></path>
                    <path d="M20.9983483,100.858025 C20.9792058,100.832502 20.947901,100.81913 20.916226,100.822946 C20.884551,100.826762 20.857318,100.847187 20.8447854,100.876526 C20.8322528,100.905866 20.8363247,100.939663 20.8554671,100.965186 L21.1055092,101.293813 C21.1281883,101.304208 21.1542706,101.304208 21.1769497,101.293813 L21.2269582,101.293813 C21.2430998,101.277727 21.2521728,101.255876 21.2521728,101.233088 C21.2521728,101.2103 21.2430998,101.188449 21.2269582,101.172364 L20.9983483,100.858025 Z M21.4984324,101.50099 C21.4792899,101.476743 21.4486659,101.46455 21.4180961,101.469005 C21.3875262,101.473459 21.3616549,101.493884 21.3502275,101.522585 C21.3388001,101.551287 21.3435528,101.583904 21.3626953,101.608151 L21.6270254,101.92249 C21.647646,101.930831 21.6707014,101.930831 21.6913219,101.92249 C21.7252013,101.922647 21.7559957,101.902838 21.7698987,101.871942 C21.7838018,101.841046 21.7782053,101.804861 21.7556184,101.779609 L21.4984324,101.50099 Z M20.5339845,100.193628 C20.5161182,100.168105 20.4859926,100.154052 20.4549557,100.156763 C20.4239187,100.159474 20.3966858,100.178537 20.3835151,100.206771 C20.3703445,100.235005 20.3732371,100.268121 20.3911034,100.293645 L20.6197132,100.629415 C20.6361866,100.652366 20.6629093,100.665727 20.6911538,100.665136 L20.7411622,100.665136 C20.7573039,100.64905 20.7663769,100.627199 20.7663769,100.604411 C20.7663769,100.581623 20.7573039,100.559772 20.7411622,100.543687 L20.5339845,100.193628 Z M20.098197,99.479222 C20.0725509,99.4377937 20.0181763,99.4249997 19.976748,99.4506458 C19.9353197,99.4762919 19.9225257,99.5306664 19.9481718,99.5720947 L20.1624935,99.9221536 C20.1772965,99.9478303 20.204312,99.9640397 20.2339341,99.9650179 L20.2839425,99.9650179 C20.3000842,99.9489322 20.3091572,99.9270817 20.3091572,99.9042934 C20.3091572,99.8815052 20.3000842,99.8596547 20.2839425,99.8435689 L20.098197,99.479222 Z M27.0922298,106.087476 C27.0508015,106.06183 26.9964269,106.074624 26.9707808,106.116052 C26.9451347,106.15748 26.9579287,106.211855 26.999357,106.237501 L27.113662,106.101764 L27.0922298,106.087476 Z M22.5700411,102.686904 C22.5483463,102.665209 22.5167255,102.656736 22.4870899,102.664677 C22.4574542,102.672618 22.4343062,102.695766 22.4263654,102.725402 C22.4184245,102.755037 22.4268973,102.786658 22.4485921,102.808353 L22.7343544,103.101259 C22.7560492,103.122954 22.78767,103.131427 22.8173056,103.123486 C22.8469412,103.115545 22.8700893,103.092397 22.8780301,103.062762 C22.8859709,103.033126 22.8774982,103.001505 22.8558034,102.97981 L22.5700411,102.686904 Z M22.0199486,102.093947 C21.9883842,102.058437 21.9340096,102.055239 21.8984996,102.086803 C21.8629896,102.118368 21.8597911,102.172742 21.8913555,102.208252 L22.1699738,102.508303 C22.1916686,102.531274 22.2239702,102.540926 22.254711,102.533623 C22.2854518,102.52632 22.3099615,102.503172 22.3190075,102.472898 C22.3280536,102.442625 22.3202616,102.409825 22.2985669,102.386854 L22.0199486,102.093947 Z M25.027597,104.808689 C24.9881415,104.78107 24.9337669,104.790666 24.906148,104.830121 C24.8785292,104.869577 24.8881247,104.923952 24.9275802,104.95157 L25.2633509,105.187324 L25.3133593,105.187324 C25.3516661,105.188524 25.3861155,105.164152 25.3977359,105.127631 C25.4093564,105.091109 25.3953245,105.051312 25.3633677,105.030155 L25.027597,104.808689 Z M24.3774877,104.322893 C24.340005,104.293302 24.2856304,104.299699 24.2560388,104.337181 C24.2264471,104.374664 24.2328441,104.429039 24.2703269,104.45863 L24.5918095,104.708672 L24.6418179,104.708672 C24.6801247,104.709872 24.714574,104.6855 24.7261945,104.648979 C24.7378149,104.612458 24.723783,104.57266 24.6918263,104.551503 L24.3774877,104.322893 Z M26.0349092,105.487375 L25.6919944,105.265909 C25.6529618,105.246282 25.6054134,105.259148 25.5816032,105.295779 C25.5577931,105.33241 25.5653387,105.381087 25.5991217,105.40879 L25.9420364,105.630256 L25.9849008,105.630256 C26.0273798,105.635229 26.0670262,105.608133 26.0778221,105.566749 C26.088618,105.525364 26.0672603,105.482354 26.0277651,105.465943 L26.0349092,105.487375 Z M23.7488106,103.851385 C23.7258397,103.830967 23.6937205,103.824354 23.664552,103.834038 C23.6353835,103.843722 23.6135971,103.868232 23.6073995,103.898335 C23.6012019,103.928438 23.6115348,103.95956 23.6345057,103.979979 L23.9488443,104.244309 C23.986327,104.275873 24.0423008,104.271075 24.0738653,104.233593 C24.1054297,104.19611 24.1006319,104.140136 24.0631492,104.108572 L23.7488106,103.851385 Z M19.6981297,98.8505449 L19.5623926,98.9719939 L19.73385,99.2863324 C19.7499135,99.3142478 19.7802676,99.3308046 19.8124347,99.3291968 L19.855299,99.3291968 C19.8714407,99.313111 19.8805137,99.2912605 19.8805137,99.2684723 C19.8805137,99.245684 19.8714407,99.2238335 19.855299,99.2077478 L19.6981297,98.8505449 Z M26.7350269,105.958883 L26.384968,105.758849 C26.3581686,105.743535 26.325235,105.743682 26.298573,105.759234 C26.2719111,105.774786 26.2555713,105.80338 26.2557087,105.834246 C26.2558461,105.865112 26.2724399,105.89356 26.2992393,105.908874 L26.6564422,106.116052 L26.6993066,106.116052 C26.7417856,106.121025 26.781432,106.093929 26.7922279,106.052545 C26.8030238,106.01116 26.7816661,105.96815 26.7421709,105.951739 L26.7350269,105.958883 Z M23.1629979,103.322725 C23.1274879,103.289188 23.0715141,103.290787 23.0379769,103.326297 C23.0044396,103.361807 23.0060389,103.417781 23.0415489,103.451318 L23.3415993,103.729937 C23.3771093,103.761501 23.4314839,103.758302 23.4630483,103.722792 C23.4946127,103.687282 23.4914142,103.632908 23.4559043,103.601343 L23.1629979,103.322725 Z" id="Shape" fill="#FFFFFF"></path>
                    <path d="M27.3779921,105.758849 L27.3779921,105.758849 C27.389182,105.714295 27.389182,105.667666 27.3779921,105.623112 C27.3351278,105.523095 27.0207892,105.501663 26.9279165,105.494519 L26.9279165,105.494519 C26.9385448,105.449897 26.9385448,105.403403 26.9279165,105.358782 C26.9279165,105.244477 26.5707136,105.237333 26.4778408,105.223045 L26.4778408,105.223045 C26.4890307,105.178491 26.4890307,105.131861 26.4778408,105.087308 C26.4778408,105.030155 26.3706799,105.001579 26.2778072,104.980147 L26.0349092,104.937282 L26.0349092,104.937282 C26.0452777,104.892631 26.0452777,104.846197 26.0349092,104.801545 C26.0349092,104.68724 25.6919944,104.65152 25.5919776,104.637232 L25.5919776,104.637232 C25.6028794,104.592643 25.6028794,104.546084 25.5919776,104.501495 C25.5919776,104.38719 25.2419188,104.35147 25.1561901,104.322893 L25.1561901,104.322893 C25.1668184,104.278272 25.1668184,104.231778 25.1561901,104.187156 C25.1561901,104.072851 24.8204193,104.022843 24.7275466,103.994267 L24.7275466,103.994267 C24.7384484,103.949678 24.7384484,103.903119 24.7275466,103.85853 C24.7275466,103.744225 24.3917759,103.687072 24.2989031,103.658496 L24.2989031,103.658496 C24.3092716,103.613844 24.3092716,103.567411 24.2989031,103.522759 C24.2989031,103.40131 23.9774205,103.337013 23.8845477,103.301293 L23.8845477,103.301293 C23.8954496,103.256704 23.8954496,103.210145 23.8845477,103.165556 C23.8845477,103.051251 23.5630651,102.972666 23.4701924,102.936946 L23.4701924,102.936946 C23.4808208,102.892325 23.4808208,102.845831 23.4701924,102.801209 C23.4701924,102.67976 23.1558538,102.594031 23.0629811,102.558311 L23.0629811,102.558311 C23.0730082,102.516033 23.0730082,102.471996 23.0629811,102.429718 C23.0629811,102.315413 22.7557866,102.215396 22.6700579,102.172532 L22.6700579,102.172532 C22.6795833,102.130197 22.6795833,102.086274 22.6700579,102.043939 C22.6700579,101.929634 22.3700074,101.822473 22.2771347,101.779609 L22.2771347,101.779609 C22.2998664,101.737927 22.3121251,101.691344 22.312855,101.643872 C22.312855,101.522423 22.0199486,101.408118 21.9342199,101.365253 L21.9342199,101.365253 C21.9558636,101.325709 21.9680877,101.281702 21.9699402,101.23666 C21.9699402,101.122355 21.6770338,101.000906 21.5984492,100.950898 L21.5984492,100.950898 C21.6225954,100.911975 21.6372766,100.867931 21.6413135,100.822305 C21.6413135,100.708 21.3626953,100.572263 21.2769666,100.522254 L21.2769666,100.522254 C21.3036379,100.483984 21.3207831,100.439896 21.326975,100.393661 C21.326975,100.279356 21.0555008,100.136475 20.9769161,100.079323 L20.9769161,100.079323 C21.0038388,100.041187 21.0210087,99.9970354 21.0269245,99.9507298 C21.0269245,99.8364249 20.7625944,99.6863997 20.6840097,99.6292472 L20.6840097,99.6292472 C20.7122045,99.5937338 20.7317689,99.5521593 20.7411622,99.5077982 C20.7411622,99.3934933 20.4839761,99.236324 20.4053915,99.1720275 L20.4053915,99.1720275 C20.4363833,99.1373771 20.4584536,99.0956888 20.469688,99.0505785 C20.469688,98.9362736 20.22679,98.7648162 20.1482054,98.7076637 L20.1482054,98.7076637 L20.0267564,98.7933924 C20.1110903,98.8978511 20.2125491,98.9872315 20.3268068,99.0577226 L20.3268068,99.0577226 C20.2955708,99.0922024 20.2734663,99.1339553 20.2625103,99.1791715 C20.2625103,99.2934765 20.5125523,99.4649339 20.598281,99.5149423 L20.598281,99.5149423 C20.5696178,99.5501629 20.5499977,99.5918557 20.5411286,99.6363913 C20.5411286,99.7506962 20.8054587,99.9150095 20.8840434,99.9650179 L20.8840434,99.9650179 C20.8568562,100.003012 20.8396595,100.047232 20.834035,100.093611 C20.834035,100.207916 21.1055092,100.357941 21.1912379,100.40795 L21.1912379,100.40795 C21.1645665,100.44622 21.1474214,100.490308 21.1412295,100.536543 C21.1412295,100.657992 21.4269918,100.793729 21.5055764,100.836593 L21.5055764,100.836593 C21.4797765,100.877364 21.4650063,100.924136 21.4627121,100.97233 C21.4627121,101.093779 21.7484744,101.222372 21.8342031,101.265236 L21.8342031,101.265236 C21.8120542,101.304574 21.7997958,101.348704 21.7984828,101.39383 C21.7984828,101.515279 22.0913892,101.636728 22.1771179,101.679592 L22.1771179,101.679592 C22.1554741,101.719136 22.1432501,101.763143 22.1413976,101.808185 C22.1413976,101.92249 22.4485921,102.036795 22.5343208,102.072515 L22.5343208,102.072515 C22.524551,102.114823 22.524551,102.1588 22.5343208,102.201108 C22.5343208,102.322557 22.8343712,102.429718 22.927244,102.458294 L22.927244,102.458294 C22.9172169,102.500572 22.9172169,102.544609 22.927244,102.586887 C22.927244,102.708336 23.2487266,102.794065 23.3344553,102.829785 L23.3344553,102.829785 C23.3235535,102.874374 23.3235535,102.920933 23.3344553,102.965522 C23.3344553,103.086971 23.6487938,103.1727 23.7488106,103.201276 L23.7488106,103.201276 C23.7376207,103.24583 23.7376207,103.292459 23.7488106,103.337013 C23.7488106,103.458462 24.0774373,103.529903 24.1703101,103.558479 L24.1703101,103.558479 C24.1596817,103.603101 24.1596817,103.649595 24.1703101,103.694216 C24.1703101,103.751369 24.2560388,103.801377 24.3489115,103.837097 L24.5918095,103.901394 L24.5918095,103.901394 C24.5806196,103.945948 24.5806196,103.992577 24.5918095,104.037131 C24.5918095,104.151436 24.9347243,104.208588 25.020453,104.230021 L25.020453,104.230021 C25.0098246,104.274642 25.0098246,104.321136 25.020453,104.365758 C25.020453,104.42291 25.1133257,104.465774 25.2061985,104.501495 C25.2990712,104.537215 25.4062321,104.544359 25.4562405,104.551503 L25.4562405,104.551503 C25.4450506,104.596057 25.4450506,104.642686 25.4562405,104.68724 C25.4562405,104.801545 25.8062993,104.837266 25.8991721,104.858698 L25.8991721,104.858698 C25.8885437,104.903319 25.8885437,104.949813 25.8991721,104.994435 C25.8991721,105.10874 26.2492309,105.14446 26.3421037,105.151604 L26.3421037,105.151604 C26.3306098,105.19612 26.3306098,105.242825 26.3421037,105.287341 C26.3421037,105.401646 26.6993066,105.415934 26.7921794,105.430222 L26.7921794,105.430222 C26.781551,105.474844 26.781551,105.521338 26.7921794,105.565959 C26.7921794,105.680264 27.1493823,105.694552 27.242255,105.701697 L27.242255,105.701697 C27.2307611,105.746212 27.2307611,105.792918 27.242255,105.837434 C27.252278,105.859637 27.27006,105.877419 27.2922634,105.887442 L27.3851362,105.758849 L27.3779921,105.758849 Z" id="Shape" fill="#FFFFFF"></path>
                    <path d="M25.7062825,107.137652 L25.7062825,107.137652 C25.7174725,107.093098 25.7174725,107.046469 25.7062825,107.001915 C25.6634182,106.901898 25.3490796,106.880466 25.2562069,106.873322 L25.2562069,106.873322 C25.2668353,106.828701 25.2668353,106.782206 25.2562069,106.737585 C25.2562069,106.62328 24.899004,106.616136 24.8061312,106.601848 L24.8061312,106.601848 C24.817033,106.557259 24.817033,106.5107 24.8061312,106.466111 C24.8061312,106.408958 24.6989704,106.380382 24.6060976,106.35895 L24.3631996,106.316086 L24.3631996,106.316086 C24.3735681,106.271434 24.3735681,106.225 24.3631996,106.180348 C24.3631996,106.066043 24.0202848,106.030323 23.920268,106.016035 L23.920268,106.016035 C23.9311698,105.971446 23.9311698,105.924887 23.920268,105.880298 C23.920268,105.765993 23.5702092,105.730273 23.4844805,105.701697 L23.4844805,105.701697 C23.494849,105.657045 23.494849,105.610611 23.4844805,105.565959 C23.4844805,105.451654 23.1487098,105.394502 23.055837,105.37307 L23.055837,105.37307 C23.0667388,105.328481 23.0667388,105.281922 23.055837,105.237333 C23.055837,105.123028 22.7200663,105.065875 22.6271935,105.037299 L22.6271935,105.037299 C22.637562,104.992647 22.637562,104.946214 22.6271935,104.901562 C22.6271935,104.780113 22.3057109,104.715817 22.2128382,104.680096 L22.2128382,104.680096 C22.22374,104.635507 22.22374,104.588948 22.2128382,104.544359 C22.2128382,104.430054 21.8913555,104.35147 21.7984828,104.315749 L21.7984828,104.315749 C21.8091112,104.271128 21.8091112,104.224634 21.7984828,104.180012 C21.7984828,104.058563 21.4841442,103.972834 21.3912715,103.937114 L21.3912715,103.937114 C21.4012986,103.894836 21.4012986,103.850799 21.3912715,103.808521 C21.3912715,103.694216 21.084077,103.594199 20.9983483,103.551335 L20.9983483,103.551335 C21.0078737,103.509 21.0078737,103.465077 20.9983483,103.422742 C20.9983483,103.308437 20.6982979,103.201276 20.6054251,103.158412 L20.6054251,103.158412 C20.6281568,103.11673 20.6404155,103.070147 20.6411454,103.022675 C20.6411454,102.901226 20.348239,102.786921 20.2625103,102.744057 L20.2625103,102.744057 C20.2844001,102.704612 20.2966407,102.660546 20.2982306,102.615463 C20.2982306,102.501159 20.0053242,102.37971 19.9267396,102.329701 L19.9267396,102.329701 C19.9508858,102.290778 19.965567,102.246734 19.9696039,102.201108 C19.9696039,102.086803 19.6909857,101.951066 19.605257,101.901058 L19.605257,101.901058 C19.6316893,101.86266 19.6488114,101.818632 19.6552654,101.772465 C19.6552654,101.65816 19.3837912,101.515279 19.3052065,101.458126 L19.3052065,101.458126 C19.3321292,101.41999 19.3492991,101.375839 19.3552149,101.329533 C19.3552149,101.215228 19.0908848,101.065203 19.0123002,101.00805 L19.0123002,101.00805 C19.0407232,100.972679 19.0603144,100.931048 19.0694526,100.886601 C19.0694526,100.772296 18.8122665,100.615127 18.7336819,100.550831 L18.7336819,100.550831 C18.7646737,100.51618 18.786744,100.474492 18.7979784,100.429382 C18.7979784,100.379373 18.7979784,100.322221 18.7122497,100.272212 L18.626521,100.415094 L18.626521,100.415094 L18.626521,100.415094 C18.595285,100.449573 18.5731805,100.491326 18.5622245,100.536543 C18.5622245,100.650847 18.8122665,100.822305 18.8979952,100.872313 L18.8979952,100.872313 C18.8695722,100.907685 18.849981,100.949316 18.8408428,100.993762 C18.8408428,101.108067 19.1051729,101.272381 19.1837576,101.322389 L19.1837576,101.322389 C19.1565704,101.360383 19.1393737,101.404603 19.1337491,101.450982 C19.1337491,101.565287 19.4052234,101.715312 19.4909521,101.765321 L19.4909521,101.765321 C19.4642807,101.803591 19.4471356,101.847679 19.4409436,101.893914 C19.4409436,102.015363 19.726706,102.1511 19.8052906,102.193964 L19.8052906,102.193964 C19.7797819,102.23487 19.7650363,102.281564 19.7624263,102.329701 C19.7624263,102.45115 20.0481886,102.579743 20.1339173,102.622608 L20.1339173,102.622608 C20.1117684,102.661945 20.09951,102.706075 20.098197,102.751201 C20.098197,102.87265 20.3911034,102.994099 20.4768321,103.036963 L20.4768321,103.036963 C20.4551883,103.076507 20.4429643,103.120514 20.4411118,103.165556 C20.4411118,103.279861 20.7483063,103.394166 20.834035,103.429886 L20.834035,103.429886 C20.8242652,103.472194 20.8242652,103.516171 20.834035,103.558479 C20.834035,103.679928 21.1340854,103.787089 21.2269582,103.815665 L21.2269582,103.815665 C21.2169311,103.857943 21.2169311,103.90198 21.2269582,103.944258 C21.2269582,104.065707 21.5484408,104.151436 21.6341695,104.187156 L21.6341695,104.187156 C21.6235411,104.231778 21.6235411,104.278272 21.6341695,104.322893 C21.6341695,104.444342 21.948508,104.530071 22.0485248,104.558647 L22.0485248,104.558647 C22.0373349,104.603201 22.0373349,104.64983 22.0485248,104.694384 C22.0485248,104.815833 22.3771515,104.887274 22.4700242,104.91585 L22.4700242,104.91585 C22.4591224,104.960439 22.4591224,105.006998 22.4700242,105.051587 C22.4700242,105.10874 22.5557529,105.158748 22.6486257,105.194468 L22.8915237,105.258765 L22.8915237,105.258765 C22.8803338,105.303319 22.8803338,105.349948 22.8915237,105.394502 C22.8915237,105.508807 23.2344385,105.565959 23.3201672,105.587392 L23.3201672,105.587392 C23.3095388,105.632013 23.3095388,105.678507 23.3201672,105.723129 C23.3201672,105.780281 23.4130399,105.823146 23.5059127,105.858866 C23.5987854,105.894586 23.7059463,105.90173 23.7559547,105.908874 L23.7559547,105.908874 C23.7447648,105.953428 23.7447648,106.000057 23.7559547,106.044611 C23.7559547,106.158916 24.1060135,106.194637 24.1988863,106.216069 L24.1988863,106.216069 C24.1882579,106.26069 24.1882579,106.307184 24.1988863,106.351806 C24.1988863,106.466111 24.5489451,106.501831 24.6418179,106.508975 L24.6418179,106.508975 C24.630324,106.553491 24.630324,106.600196 24.6418179,106.644712 C24.6418179,106.759017 24.9990208,106.773305 25.0918935,106.787593 L25.0918935,106.787593 C25.0812652,106.832215 25.0812652,106.878709 25.0918935,106.92333 C25.0918935,107.037635 25.4490964,107.051923 25.5419692,107.059068 L25.5419692,107.059068 C25.5304753,107.103583 25.5304753,107.150289 25.5419692,107.194805 C25.5419692,107.237669 25.6134098,107.259101 25.6848504,107.273389 L25.9206043,107.130508 L25.7062825,107.137652 Z" id="Shape" fill="#FFFFFF"></path>
                    <path d="M20.1839257,97.6574872 L27.6423223,105.515951 C27.9098876,105.387656 28.1106897,105.152155 28.1950809,104.867675 C28.2794721,104.583195 28.239575,104.276291 28.0852539,104.022843 C26.6564422,102.694048 23.3630315,99.236324 21.0126364,96.7573359" id="Shape" fill="#EFAA8E"></path>
                    <path d="M20.6357873,97.6574872 L14.9205409,103.372734 C20.0642627,111.581256 24.3649856,103.915682 24.3649856,103.915682 C25.0486609,104.647043 25.7712588,105.341023 26.5296352,105.994603 C27.4012103,106.608992 28.0941839,105.551671 28.0941839,105.551671" id="Shape" fill="#EFAA8E"></path>
                    <path d="M23.1701419,98.3290286 C22.6690565,98.8281413 21.8582358,98.826542 21.3591232,98.3254566 C20.8600106,97.8243712 20.8616099,97.0135505 21.3626953,96.5144379 L22.7915069,95.0856263 C23.2925923,94.5865137 24.1034129,94.5881129 24.6025256,95.0891983 C25.1016382,95.5902837 25.1000389,96.4011044 24.5989535,96.900217 L23.1701419,98.3290286 Z" id="Shape" fill="#EFAA8E"></path>
                    <path d="M18.9408596,94.5641101 C18.9408596,94.5641101 23.5916414,93.9782973 24.5703773,94.9570333 L21.5127205,98.3218846 L18.9408596,94.5641101 Z" id="Shape" fill="#EFAA8E"></path>
                    <polygon id="Shape" fill="#EFAA8E" points="11.9539708 99.2006037 14.8687465 104.022843 21.4127037 97.5503263 18.1693013 93.4853573"></polygon>
                    <path d="M55.1683778,94.4212289 L55.9685123,106.387526" id="Shape" fill="#2E3389"></path>
                    <rect id="Rectangle-path" fill="#204B91" transform="translate(55.563358, 100.403460) rotate(-3.840000) translate(-55.563358, -100.403460) " x="55.2061555" y="94.4095949" width="1" height="11.9877294"></rect>
                    <path d="M66.9417855,54.1573179 C67.249835,54.0281025 67.597507,54.0314766 67.9029907,54.1666464 C68.2084744,54.3018162 68.4447946,54.5568456 68.5563426,54.8717237 L77.3863983,79.161521 C77.6000199,79.897952 77.4544476,80.6919829 76.9934751,81.3047384 L57.1115616,104.737249 C56.6543419,105.273053 56.2471306,105.137316 56.1971222,104.437198 L55.6541738,96.3572686 C55.6498681,95.5352202 55.8993553,94.7318714 56.3685796,94.0568819 L66.884633,80.1188247 C67.323193,79.463213 67.4487651,78.6469946 67.2275478,77.8898786 L60.3049555,58.3151596 C60.0753888,57.6376409 60.4050505,56.8974571 61.0622257,56.6148738 L66.9417855,54.1573179 Z" id="Shape" fill="#EFAA8E"></path>
                    <polygon id="Shape" fill="#9D0000" points="70.9138817 59.8939965 62.2981477 64.2161516 56.3257152 54.5859614 62.1124022 52.4213118 66.3059643 49.6637054"></polygon>
                    <path d="M35.6865316,119.689762 L38.3369771,115.360463 C38.728484,114.73317 39.4156978,114.351999 40.1551399,114.351999 C40.8945819,114.351999 41.5817958,114.73317 41.9733027,115.360463 L45.2381372,120.525617 L47.9457352,117.282215 L46.1597207,111.452663 L34.1934235,109.688081 L35.6865316,119.689762 Z" id="Shape" fill="#031B42"></path>
                    <path d="M35.0292783,22.6377339 C35.0774641,22.9870406 35.3927095,23.2360845 35.7436841,23.2021145 L38.079791,23.2021145 C38.311673,23.2546212 38.5520747,23.1599526 38.6858929,22.9634358 C38.8197111,22.7669189 38.8197111,22.5085488 38.6858929,22.3120319 C38.5520747,22.1155151 38.311673,22.0208466 38.079791,22.0733533 L35.7436841,22.0733533 C35.3927095,22.0393832 35.0774641,22.2884271 35.0292783,22.6377339 L35.0292783,22.6377339 Z" id="Shape" fill="#E38661"></path>
                    <path d="M49.3745468,8.28532129 C48.9730322,7.59619154 48.6197461,6.88007103 48.3172262,6.14210389 C47.1670328,3.28448068 45.6382044,2.57007487 44.7809175,2.40576154 C44.447943,2.33963795 44.1023563,2.39008855 43.8021815,2.5486427 C42.6761557,3.24390002 41.2023103,2.92897579 40.4587624,1.8342369 C39.2657047,0.0339342756 36.2580562,0.262544132 36.2580562,0.262544132 C36.2580562,0.262544132 37.7797406,1.60562704 35.8008365,2.87012531 C35.3040569,3.17350181 34.7574041,3.38635777 34.1862794,3.49880242 C33.3718568,3.67025981 31.8358843,4.12747952 31.2715037,5.16336794 C30.9593277,5.732349 30.5590724,6.24834075 30.0855901,6.69219635 C29.085422,7.62806796 28.0138133,9.54981956 30.5428098,12.7932219 L30.5428098,11.7644776 C30.5414802,11.3451409 30.6240672,10.9297768 30.7857078,10.5428436 C31.4400557,9.14714942 33.0679782,8.50224169 34.500618,9.07116768 C36.0965072,9.54389605 37.7601528,9.74672077 39.4228739,9.67126855 C41.08559,9.74658662 42.7492134,9.54376461 44.3451299,9.07116768 C45.7777697,8.50224169 47.4056921,9.14714942 48.0600401,10.5428436 C48.2218663,10.9297202 48.3044609,11.3451222 48.3029381,11.7644776 L48.3029381,13.3361703 C50.5390282,11.1000802 49.9746476,9.24262507 49.3816908,8.28532129" id="Shape" fill="#0D0D0D"></path>
                    <path d="M48.7387256,18.1226892 C48.7387256,18.1226892 48.0243198,19.8729834 46.8669824,17.9440877 L46.8669824,8.90685434 L49.0744963,9.45694681" id="Shape" fill="#0D0D0D"></path>
                </g>
                <g id="dice" transform="translate(0.000000, 95.128916)">
                    <path d="M60.4444806,10.517684 L32.9697167,21.328716 L5.49495278,10.517684 C5.49495278,10.517684 0,12.3135591 0,18.3022004 L28.5050676,65.0880015 C33.6565858,67.0699064 37.2483397,64.9735233 37.2483397,64.9735233 L65.9394334,18.3022004 C65.9394334,12.3135591 60.4444806,10.517684 60.4444806,10.517684 Z" id="Shape" fill="#FFE9E6"></path>
                    <path d="M27.4532988,25.4642413 L3.61321719,16.1915085 C3.61321719,16.1915085 0,14.367012 0,18.3665939 C0,27.4604551 0,44.8182086 0,47.6300786 C0,51.4794084 3.65614743,52.9103857 3.65614743,52.9103857 L27.4318355,64.7016385 C27.4318355,64.7016385 31.1380658,66.7050067 31.1380658,61.6608122 C31.1380658,57.9116517 31.1380658,36.4112166 31.1380658,31.1738398 C31.1380658,26.5589385 27.4532988,25.4642413 27.4532988,25.4642413 Z" id="Shape" fill="#D34D35"></path>
                    <path d="M38.4861346,25.328298 L62.3262162,16.0555652 C62.3262162,16.0555652 65.9394334,14.2310687 65.9394334,18.2306506 C65.9394334,27.3245118 65.9394334,44.6751109 65.9394334,47.4941371 C65.9394334,51.3363106 62.2904422,52.7744424 62.2904422,52.7744424 L38.5075997,64.5656952 C38.5075997,64.5656952 34.8085221,66.5690634 34.8085221,61.5248689 C34.8085221,57.7757084 34.8085221,36.2752752 34.8085221,31.030742 C34.8013676,26.4229952 38.4861346,25.328298 38.4861346,25.328298 Z" id="Shape" fill="#D34D35"></path>
                    <path d="M60.3872415,10.4962189 C52.7172033,7.18350598 39.3590298,1.70286389 36.6115534,0.643940695 C35.2950543,0.143097729 34.0572594,-0.00715442852 32.9697167,-3.97739567e-16 C31.882174,-0.00715442852 30.6443791,0.143097729 29.32788,0.643940695 C26.5804036,1.69570763 13.2222301,7.18350598 5.55219188,10.4962189 C2.09638127,11.9844352 5.60943097,13.036204 5.60943097,13.036204 L29.2777953,22.2445415 C29.2777953,22.2445415 30.7302377,22.9671864 32.9697167,22.9528757 C35.2091957,22.9743408 36.6616381,22.2445415 36.6616381,22.2445415 L60.3300024,13.0433584 C60.3300024,13.036204 63.8430521,11.9844352 60.3872415,10.4962189 Z" id="Shape" fill="#E26752"></path>
                    <path d="M38.4646695,10.9899056 C38.4646695,9.47306964 36.0033886,8.24242918 32.9697167,8.24242918 C29.9360449,8.24242918 27.4747639,9.47306964 27.4747639,10.9899056 C27.4747639,12.5067415 29.9360449,13.737382 32.9697167,13.737382 C36.0033886,13.737382 38.4646695,12.5067415 38.4646695,10.9899056 Z" id="Shape" fill="#FFFFFF"></path>
                    <path d="M4.57912732,42.7432925 C5.6952896,40.8544025 7.97054441,40.6898396 9.65194135,42.3712384 C11.3404945,44.0526353 11.8055635,46.9503657 10.6894013,48.8392557 C9.57323897,50.7281458 7.29798417,50.8927068 5.60943097,49.2113098 C3.92087777,47.5227566 3.46296504,44.6321825 4.57912732,42.7432925 Z" id="Shape" fill="#FFFFFF"></path>
                    <path d="M12.5210522,35.8746015 C13.6300582,33.9928659 15.905313,33.8283031 17.5938662,35.5097018 C19.2824194,37.1911006 19.7403321,40.0816747 18.6241699,41.9705648 C17.5080076,43.8594548 15.2327528,44.0240158 13.5513558,42.3426189 C11.8628026,40.6540657 11.3977336,37.7634915 12.5210522,35.8746015 Z" id="Shape" fill="#FFFFFF"></path>
                    <path d="M20.7563251,29.0059105 C21.8724874,27.1170205 24.1477422,26.9524577 25.829141,28.6338564 C27.5176942,30.3152534 27.9827613,33.2129838 26.866599,35.1018738 C25.7504367,36.9907638 23.4751819,37.1553248 21.7866287,35.4739279 C20.0980755,33.7853747 19.6401628,30.8948006 20.7563251,29.0059105 Z" id="Shape" fill="#FFFFFF"></path>
                    <path d="M60.5231848,40.0745185 C59.4070225,38.1856285 57.1317677,38.0210674 55.4503708,39.7024644 C53.7618176,41.3838632 53.2967486,44.2815917 54.4200672,46.1704817 C55.5290732,48.0522173 57.804328,48.2167802 59.4928812,46.5353814 C61.1814344,44.8539826 61.6393471,41.9634085 60.5231848,40.0745185 Z" id="Shape" fill="#FFFFFF"></path>
                    <path d="M50.5993569,31.2239244 C49.490349,29.3350344 47.2079416,29.1704715 45.5265429,30.8518703 C43.8379897,32.5332691 43.3729225,35.4309976 44.4962392,37.3198877 C45.6124015,39.2016232 47.8876545,39.3661861 49.5690532,37.6847873 C51.2576064,36.0033886 51.7155192,33.1128144 50.5993569,31.2239244 Z" id="Shape" fill="#FFFFFF"></path>
                </g>
            </g>
        </g>
    </g>
</svg>