<svg xmlns="http://www.w3.org/2000/svg" viewBox="0 0 134.95 135"><defs><style>.cls-1{fill:#fab13f;}.cls-2{fill:#ffc578;stroke:#fab13f;}.cls-2,.cls-20,.cls-27,.cls-29,.cls-4{stroke-miterlimit:10;}.cls-2,.cls-27{stroke-width:0.5px;}.cls-3{fill:#f9a435;}.cls-23,.cls-4{fill:#fff;}.cls-4{stroke:#141413;}.cls-20,.cls-4{stroke-width:0.25px;}.cls-5{fill:#50667e;}.cls-6{fill:#b8d1e6;}.cls-7{fill:#cee2f2;}.cls-8{fill:#21d8de;}.cls-9{fill:#2a445e;}.cls-10{fill:#ff6d3b;}.cls-11{fill:#837764;}.cls-12{fill:#afc5e4;}.cls-13{fill:#5bc0de;}.cls-14{fill:#857763;}.cls-15{fill:#d38a58;}.cls-16{fill:#468847;}.cls-17{fill:#999;}.cls-18{fill:#333;}.cls-19{fill:#95c149;}.cls-20,.cls-24{fill:#a3d062;}.cls-20{stroke:#070707;}.cls-21{fill:#654c99;}.cls-22{fill:#ffdd54;}.cls-25{fill:#0a0a0a;}.cls-26{fill:#80a835;}.cls-27{fill:#4480bd;stroke:#231f20;}.cls-28{fill:#376697;}.cls-29{fill:none;stroke:#654c99;}.cls-30{fill:#ffe9f6;}.cls-31{fill:#c74d97;}.cls-32{fill:#dc6cb0;}</style></defs><title>Asset 7</title><g id="Layer_2" data-name="Layer 2"><g id="Layer_1-2" data-name="Layer 1"><polygon class="cls-1" points="67.77 36.75 28.02 62.25 67.77 87.38 67.77 36.75"/><polygon class="cls-2" points="67.77 36.75 41.14 15.38 1.02 41.25 28.02 62.25 67.77 36.75"/><polygon class="cls-2" points="109.02 62.25 134.52 40.88 93.27 15.38 67.77 36.75 109.02 62.25"/><polygon class="cls-3" points="67.77 36.75 67.77 87.38 109.02 62.25 67.77 36.75"/><path class="cls-4" d="M75.28,45.7,44.08,2.12A4.77,4.77,0,0,0,37.42,1L8.57,21.67l34,47.46Z"/><rect class="cls-5" x="34.06" y="44.3" width="10.01" height="7.9" transform="translate(-20.79 31.76) rotate(-35.6)"/><rect class="cls-6" x="40.97" y="35.14" width="19.52" height="0.91" transform="translate(-11.24 36.19) rotate(-35.6)"/><rect class="cls-6" x="42.29" y="36.98" width="19.52" height="0.91" transform="translate(-12.06 37.3) rotate(-35.6)"/><rect class="cls-6" x="44.53" y="41.67" width="9.76" height="0.91" transform="translate(-15.28 36.63) rotate(-35.6)"/><rect class="cls-5" x="36.32" y="47.48" width="31.62" height="0.91" transform="translate(-18.16 39.31) rotate(-35.6)"/><rect class="cls-6" x="37.64" y="49.32" width="31.62" height="0.91" transform="translate(-18.99 40.42) rotate(-35.6)"/><rect class="cls-6" x="40.44" y="55.77" width="15.81" height="0.91" transform="translate(-23.69 38.65) rotate(-35.6)"/><rect class="cls-6" x="30.03" y="38.56" width="5.03" height="4.84" transform="translate(-17.78 26.61) rotate(-35.6)"/><rect class="cls-6" x="35.18" y="34.7" width="5.03" height="3.33" transform="translate(-14.13 28.74) rotate(-35.6)"/><rect class="cls-6" x="40.6" y="30.75" width="5.03" height="2.77" transform="translate(-10.65 31.11) rotate(-35.6)"/><rect class="cls-6" x="46.68" y="26.6" width="5.03" height="4.45" transform="translate(-7.58 34.03) rotate(-35.6)"/><rect class="cls-7" x="25.05" y="28.06" width="0.92" height="13.27" transform="translate(-15.43 21.33) rotate(-35.6)"/><rect class="cls-8" x="24.68" y="22.62" width="0.92" height="18.39" transform="translate(-13.82 20.58) rotate(-35.6)"/><rect class="cls-9" x="27.79" y="28.04" width="0.92" height="11.53" transform="matrix(0.81, -0.58, 0.58, 0.81, -14.4, 22.76)"/><rect class="cls-10" x="27.8" y="23.8" width="0.92" height="15.32" transform="translate(-13.03 22.33) rotate(-35.6)"/><rect class="cls-7" x="33.4" y="32.67" width="0.92" height="3.77" transform="translate(-13.79 26.17) rotate(-35.6)"/><rect class="cls-8" x="33.12" y="27.51" width="0.92" height="8.58" transform="translate(-12.24 25.49) rotate(-35.6)"/><rect class="cls-9" x="34.7" y="28.15" width="0.92" height="6.99" transform="translate(-11.85 26.38) rotate(-35.6)"/><rect class="cls-10" x="34.16" y="22.22" width="0.92" height="12.66" transform="translate(-10.15 25.49) rotate(-35.6)"/><rect class="cls-7" x="38.77" y="27.99" width="0.92" height="4.52" transform="translate(-10.28 28.49) rotate(-35.6)"/><rect class="cls-8" x="40.13" y="27.93" width="0.92" height="3.71" transform="translate(-9.75 29.19) rotate(-35.6)"/><rect class="cls-9" x="39.25" y="20.94" width="0.92" height="10.53" transform="translate(-7.83 28.02) rotate(-35.6)"/><rect class="cls-10" x="41.3" y="23.05" width="0.92" height="7.32" transform="translate(-7.74 29.31) rotate(-35.6)"/><rect class="cls-7" x="40.76" y="12.76" width="0.92" height="16.9" transform="translate(-4.64 27.96) rotate(-35.6)"/><rect class="cls-8" x="43.42" y="16.78" width="0.92" height="11.59" transform="translate(-4.94 29.76) rotate(-35.6)"/><rect class="cls-9" x="46.02" y="20.62" width="0.92" height="6.47" transform="translate(-5.2 31.52) rotate(-35.6)"/><rect class="cls-10" x="44.87" y="12.74" width="0.92" height="14.28" transform="translate(-3.1 30.1) rotate(-35.6)"/><circle class="cls-9" cx="45.12" cy="12.28" r="0.75" transform="translate(1.29 28.56) rotate(-35.6)"/><circle class="cls-8" cx="47.6" cy="15.74" r="0.75" transform="translate(-0.26 30.65) rotate(-35.6)"/><circle class="cls-7" cx="50.08" cy="19.2" r="0.75" transform="translate(-1.82 32.74) rotate(-35.6)"/><circle class="cls-10" cx="52.55" cy="22.65" r="0.75" transform="translate(-3.37 34.83) rotate(-35.6)"/><polygon class="cls-5" points="28.28 40.87 17.07 25.21 16.64 25.52 16.73 25.65 17.03 25.43 18.54 27.54 18.24 27.75 18.33 27.89 18.64 27.67 20.14 29.77 19.84 29.99 19.93 30.12 20.24 29.9 21.75 32.01 21.44 32.23 21.53 32.36 21.84 32.14 23.35 34.25 23.04 34.47 23.14 34.6 23.44 34.38 24.95 36.48 24.64 36.7 24.74 36.83 25.04 36.62 26.55 38.72 26.25 38.94 26.34 39.07 26.64 38.85 28.24 41.09 51.15 24.68 51.06 24.56 28.28 40.87"/><polygon class="cls-4" points="86.43 65.22 48.88 75.88 33.3 21.01 65.88 11.76 69.57 14.4 72.61 16.56 86.43 65.22"/><rect class="cls-11" x="47.86" y="38.19" width="18.77" height="1.11" transform="translate(-7.97 15.83) rotate(-14.73)"/><rect class="cls-11" x="57.51" y="54.03" width="8.44" height="1.11" transform="translate(-11.85 17.49) rotate(-14.73)"/><rect class="cls-12" x="48.86" y="41.79" width="18.77" height="1.48" transform="translate(-8.9 16.21) rotate(-14.73)"/><rect class="cls-13" x="47.15" y="49.83" width="6.47" height="2.61" transform="translate(-11.82 15.31) rotate(-15.48)"/><rect class="cls-13" x="54.37" y="50.67" width="6.47" height="2.61" transform="translate(-11.32 16.36) rotate(-14.73)"/><rect class="cls-14" x="56.72" y="56.65" width="11.92" height="3.4" transform="translate(-12.78 17.86) rotate(-14.73)"/><rect class="cls-11" x="38.68" y="32.92" width="16.46" height="1.11" transform="translate(-6.97 13.03) rotate(-14.73)"/><rect class="cls-11" x="57.66" y="27.93" width="16.46" height="1.11" transform="translate(-5.08 17.69) rotate(-14.73)"/><rect class="cls-15" x="61.35" y="30.88" width="9.28" height="0.74" transform="translate(-5.78 17.81) rotate(-14.73)"/><rect class="cls-15" x="42.64" y="35.8" width="9.28" height="0.74" transform="matrix(0.97, -0.25, 0.25, 0.97, -7.64, 13.21)"/><ellipse class="cls-16" cx="56" cy="49.19" rx="1.4" ry="1.21" transform="translate(-10.67 15.86) rotate(-14.73)"/><ellipse class="cls-17" cx="71.79" cy="45.04" rx="1.4" ry="1.21" transform="translate(-9.09 19.74) rotate(-14.73)"/><ellipse class="cls-17" cx="68.63" cy="45.87" rx="1.4" ry="1.21" transform="translate(-9.41 18.96) rotate(-14.73)"/><ellipse class="cls-17" cx="65.47" cy="46.7" rx="1.4" ry="1.21" transform="translate(-9.72 18.19) rotate(-14.73)"/><ellipse class="cls-17" cx="62.31" cy="47.53" rx="1.4" ry="1.21" transform="translate(-10.04 17.41) rotate(-14.73)"/><ellipse class="cls-17" cx="59.16" cy="48.36" rx="1.4" ry="1.21" transform="translate(-10.35 16.63) rotate(-14.73)"/><ellipse class="cls-16" cx="62.64" cy="50.55" rx="1.4" ry="1.21" transform="translate(-10.8 17.59) rotate(-14.73)"/><ellipse class="cls-17" cx="65.8" cy="49.72" rx="1.4" ry="1.21" transform="translate(-10.48 18.37) rotate(-14.73)"/><polyline class="cls-18" points="65.98 12.13 67.6 17.82 72.21 16.67"/><path class="cls-19" d="M41.2,23.7c0-.08,0-.16.05-.24s.09-.17.2-.09a4,4,0,0,0,2.84.38c.84-.08,1.67-.29,2.51-.34a4.82,4.82,0,0,1,2.19.3.51.51,0,0,1,.35.41A17.17,17.17,0,0,0,50,26.31a5.53,5.53,0,0,1,.26,1.29c0,.14,0,.24-.19.24a5.38,5.38,0,0,0-2.27.56c-1,.43-1.91.92-2.87,1.35a7.7,7.7,0,0,1-2.47.77c-.44,0-.48,0-.41-.42a6.11,6.11,0,0,0-.27-2.53c-.21-.82-.46-1.63-.61-2.46A3.79,3.79,0,0,1,41.2,23.7Z"/><path class="cls-19" d="M59.08,19.45c0-.08,0-.16.05-.24s.09-.17.2-.09a4,4,0,0,0,2.84.38c.84-.08,1.67-.29,2.51-.34a4.82,4.82,0,0,1,2.19.3.51.51,0,0,1,.35.41,17.17,17.17,0,0,0,.67,2.19,5.53,5.53,0,0,1,.26,1.29c0,.14,0,.24-.19.24a5.38,5.38,0,0,0-2.27.56c-1,.43-1.91.92-2.87,1.35a7.7,7.7,0,0,1-2.47.77c-.44,0-.48,0-.41-.42a6.11,6.11,0,0,0-.27-2.53c-.21-.82-.46-1.63-.61-2.46A3.79,3.79,0,0,1,59.08,19.45Z"/><path class="cls-20" d="M74,84.59a2.75,2.75,0,0,1-2.06,3.29L38.71,95.83a2.75,2.75,0,0,1-3.33-2L24,46.34A2.75,2.75,0,0,1,26.07,43L59.27,35.1a2.75,2.75,0,0,1,3.33,2Z"/><rect class="cls-21" x="37.83" y="62.07" width="17.85" height="1.06" transform="translate(-13.29 12.6) rotate(-13.46)"/><rect class="cls-22" x="46.67" y="77.23" width="8.03" height="1.06" transform="translate(-16.71 13.93) rotate(-13.46)"/><rect class="cls-23" x="38.7" y="65.52" width="17.85" height="1.41" transform="translate(-14.11 12.9) rotate(-13.46)"/><rect class="cls-13" x="37.42" y="72.64" width="6.15" height="2.48" transform="translate(-16.09 11.46) rotate(-13.46)"/><rect class="cls-13" x="43.74" y="73.95" width="6.15" height="2.48" transform="translate(-16.22 12.96) rotate(-13.46)"/><rect class="cls-19" x="45.82" y="79.62" width="12.4" height="3.23" transform="translate(-17.48 14.34) rotate(-13.46)"/><rect class="cls-22" x="28.4" y="54.45" width="15.66" height="1.06" transform="translate(-11.8 9.94) rotate(-13.46)"/><rect class="cls-22" x="46.55" y="50.11" width="15.66" height="1.06" transform="translate(-10.29 14.05) rotate(-13.46)"/><rect class="cls-15" x="50" y="52.92" width="8.82" height="0.7" transform="translate(-10.91 14.13) rotate(-13.46)"/><rect class="cls-15" x="32.11" y="57.2" width="8.82" height="0.7" transform="translate(-12.39 10.08) rotate(-13.46)"/><ellipse class="cls-16" cx="45.35" cy="72.51" rx="1.34" ry="1.15" transform="translate(-15.63 12.55) rotate(-13.46)"/><ellipse class="cls-17" cx="60.45" cy="68.9" rx="1.34" ry="1.15" transform="translate(-14.38 15.96) rotate(-13.46)"/><ellipse class="cls-17" cx="57.43" cy="69.62" rx="1.34" ry="1.15" transform="translate(-14.63 15.28) rotate(-13.46)"/><ellipse class="cls-17" cx="54.41" cy="70.34" rx="1.34" ry="1.15" transform="translate(-14.88 14.6) rotate(-13.46)"/><ellipse class="cls-17" cx="51.39" cy="71.07" rx="1.34" ry="1.15" transform="translate(-15.13 13.91) rotate(-13.46)"/><ellipse class="cls-17" cx="48.37" cy="71.79" rx="1.34" ry="1.15" transform="translate(-15.38 13.23) rotate(-13.46)"/><ellipse class="cls-16" cx="51.63" cy="73.95" rx="1.34" ry="1.15" transform="translate(-15.79 14.05) rotate(-13.46)"/><ellipse class="cls-17" cx="54.65" cy="73.22" rx="1.34" ry="1.15" transform="translate(-15.54 14.73) rotate(-13.46)"/><line class="cls-24" x1="34.68" y1="90.88" x2="73.26" y2="81.65"/><rect class="cls-25" x="34.13" y="86.14" width="39.67" height="0.24" transform="translate(-18.6 14.93) rotate(-13.46)"/><circle class="cls-23" cx="54.62" cy="89.02" r="1.46" transform="translate(-19.22 15.16) rotate(-13.46)"/><path class="cls-25" d="M55,90.56a1.58,1.58,0,1,1,1.17-1.91A1.58,1.58,0,0,1,55,90.56Zm-.68-2.84a1.34,1.34,0,1,0,1.61,1A1.34,1.34,0,0,0,54.31,87.72Z"/><path class="cls-26" d="M30.88,46.63l.05-.2c0-.09.08-.14.17-.08a3.45,3.45,0,0,0,2.42.39c.72,0,1.43-.21,2.15-.23a4.12,4.12,0,0,1,1.86.31.44.44,0,0,1,.29.36,14.66,14.66,0,0,0,.52,1.88,4.72,4.72,0,0,1,.19,1.1c0,.12,0,.2-.17.2a4.6,4.6,0,0,0-1.95.42c-.84.35-1.65.74-2.49,1.09a6.58,6.58,0,0,1-2.13.6c-.37,0-.41,0-.34-.37a5.22,5.22,0,0,0-.17-2.17c-.16-.7-.36-1.4-.46-2.12A3.24,3.24,0,0,1,30.88,46.63Z"/><path class="cls-26" d="M49.29,42.44l.05-.2c0-.09.08-.14.17-.08a3.45,3.45,0,0,0,2.42.39c.72,0,1.43-.21,2.15-.23a4.12,4.12,0,0,1,1.86.31.44.44,0,0,1,.29.36,14.66,14.66,0,0,0,.52,1.88,4.72,4.72,0,0,1,.19,1.1c0,.12,0,.2-.17.2a4.6,4.6,0,0,0-1.95.42c-.84.35-1.65.74-2.49,1.09a6.58,6.58,0,0,1-2.13.6c-.37,0-.41,0-.34-.37a5.22,5.22,0,0,0-.17-2.17c-.16-.7-.36-1.4-.46-2.12A3.24,3.24,0,0,1,49.29,42.44Z"/><path class="cls-27" d="M33.62,54.74S49.09,83.69,51,90.2c1,3.39,27-10.65,27-10.65S69.35,55,65.3,51.13L51,46.51Z"/><polygon class="cls-28" points="51.75 47.17 53.45 58.25 65.3 51.13 51.75 47.17"/><line class="cls-29" x1="40.46" y1="59.12" x2="49.16" y2="55.44"/><line class="cls-29" x1="41.86" y1="63.25" x2="50.57" y2="59.57"/><line class="cls-29" x1="43.58" y1="67.35" x2="52.28" y2="63.67"/><polygon class="cls-28" points="46.99 71.72 67.84 62.53 72.22 70.89 50.38 80.22 46.99 71.72"/><polygon class="cls-28" points="52.21 83.12 73.06 73.94 74.81 77.29 53.55 86.47 52.21 83.12"/><g id="Page-1"><g id="Cricket-API"><g id="Group-11"><g id="Group-5"><g id="dice"><path id="Shape" class="cls-30" d="M109.09,35.43,94.78,41.06,80.47,35.43a4.33,4.33,0,0,0-2.86,4.06L92.45,63.86A5.52,5.52,0,0,0,97,63.8L112,39.48A4.33,4.33,0,0,0,109.09,35.43Z"/><path id="Shape-2" data-name="Shape" class="cls-31" d="M91.9,43.21,79.49,38.38s-1.88-1-1.88,1.13V54.76a3.1,3.1,0,0,0,1.9,2.75l12.39,6.14s1.93,1,1.93-1.58V46.19A3,3,0,0,0,91.9,43.21Z"/><path id="Shape-3" data-name="Shape" class="cls-31" d="M97.65,43.14l12.42-4.83s1.88-1,1.88,1.13V54.69a3.1,3.1,0,0,1-1.9,2.75L97.66,63.58s-1.93,1-1.93-1.58V46.11A3,3,0,0,1,97.65,43.14Z"/><path id="Shape-4" data-name="Shape" class="cls-32" d="M109.06,35.42c-4-1.73-11-4.58-12.39-5.13a5.53,5.53,0,0,0-3.79,0c-1.43.55-8.39,3.41-12.39,5.13-1.8.78,0,1.32,0,1.32l12.33,4.8a4.61,4.61,0,0,0,1.92.37,4.54,4.54,0,0,0,1.92-.37L109,36.74S110.86,36.19,109.06,35.42Z"/><path id="Shape-5" data-name="Shape" class="cls-23" d="M97.64,35.67c0-.79-1.28-1.43-2.86-1.43s-2.86.64-2.86,1.43,1.28,1.43,2.86,1.43S97.64,36.46,97.64,35.67Z"/><path id="Shape-6" data-name="Shape" class="cls-23" d="M80,52.22A1.6,1.6,0,0,1,82.63,52a2.93,2.93,0,0,1,.54,3.37,1.6,1.6,0,0,1-2.65.19A2.93,2.93,0,0,1,80,52.22Z"/><path id="Shape-7" data-name="Shape" class="cls-23" d="M84.13,48.64a1.6,1.6,0,0,1,2.64-.19,2.92,2.92,0,0,1,.54,3.37,1.6,1.6,0,0,1-2.64.19A2.92,2.92,0,0,1,84.13,48.64Z"/><path id="Shape-8" data-name="Shape" class="cls-23" d="M88.42,45.06a1.6,1.6,0,0,1,2.64-.19,2.93,2.93,0,0,1,.54,3.37,1.6,1.6,0,0,1-2.65.19A2.93,2.93,0,0,1,88.42,45.06Z"/><path id="Shape-9" data-name="Shape" class="cls-23" d="M109.13,50.83a1.6,1.6,0,0,0-2.64-.19A2.92,2.92,0,0,0,106,54a1.6,1.6,0,0,0,2.64.19A2.92,2.92,0,0,0,109.13,50.83Z"/><path id="Shape-10" data-name="Shape" class="cls-23" d="M104,46.21a1.6,1.6,0,0,0-2.64-.19,2.92,2.92,0,0,0-.54,3.37,1.6,1.6,0,0,0,2.64.19A2.92,2.92,0,0,0,104,46.21Z"/></g><g id="dice-2" data-name="dice"><path id="Shape-11" data-name="Shape" class="cls-30" d="M97.93,58,84,63.43,70.08,58A4.22,4.22,0,0,0,67.3,61.9L81.75,85.61a5.37,5.37,0,0,0,4.43-.06L100.72,61.9A4.22,4.22,0,0,0,97.93,58Z"/><path id="Shape-12" data-name="Shape" class="cls-31" d="M81.21,65.53l-12.08-4.7s-1.83-.92-1.83,1.1V76.76a3,3,0,0,0,1.85,2.68l12.05,6s1.88,1,1.88-1.54V68.42A2.88,2.88,0,0,0,81.21,65.53Z"/><path id="Shape-13" data-name="Shape" class="cls-31" d="M86.81,65.46l12.08-4.7s1.83-.92,1.83,1.1V76.69a3,3,0,0,1-1.85,2.68l-12.05,6s-1.87,1-1.87-1.54V68.35A2.87,2.87,0,0,1,86.81,65.46Z"/><path id="Shape-14" data-name="Shape" class="cls-32" d="M97.91,57.94c-3.89-1.68-10.66-4.46-12.05-5a5.38,5.38,0,0,0-3.69,0c-1.39.53-8.16,3.31-12.05,5-1.75.75,0,1.29,0,1.29l12,4.67a4.49,4.49,0,0,0,1.87.36,4.42,4.42,0,0,0,1.87-.36l12-4.66S99.66,58.69,97.91,57.94Z"/><path id="Shape-15" data-name="Shape" class="cls-23" d="M86.79,58.19c0-.77-1.25-1.39-2.79-1.39s-2.79.62-2.79,1.39,1.25,1.39,2.79,1.39S86.79,59,86.79,58.19Z"/><path id="Shape-16" data-name="Shape" class="cls-23" d="M69.62,74.28a1.55,1.55,0,0,1,2.57-.19,2.85,2.85,0,0,1,.53,3.28,1.56,1.56,0,0,1-2.57.19A2.85,2.85,0,0,1,69.62,74.28Z"/><path id="Shape-17" data-name="Shape" class="cls-23" d="M73.64,70.8a1.56,1.56,0,0,1,2.57-.18,2.85,2.85,0,0,1,.52,3.27,1.55,1.55,0,0,1-2.57.19A2.85,2.85,0,0,1,73.64,70.8Z"/><path id="Shape-18" data-name="Shape" class="cls-23" d="M77.82,67.32a1.55,1.55,0,0,1,2.57-.19,2.85,2.85,0,0,1,.53,3.28,1.56,1.56,0,0,1-2.57.19A2.85,2.85,0,0,1,77.82,67.32Z"/><path id="Shape-19" data-name="Shape" class="cls-23" d="M98,72.93a1.55,1.55,0,0,0-2.57-.19A2.85,2.85,0,0,0,94.88,76a1.56,1.56,0,0,0,2.57.18A2.85,2.85,0,0,0,98,72.93Z"/><path id="Shape-20" data-name="Shape" class="cls-23" d="M92.94,68.45a1.55,1.55,0,0,0-2.57-.19,2.85,2.85,0,0,0-.52,3.28,1.56,1.56,0,0,0,2.57.18A2.85,2.85,0,0,0,92.94,68.45Z"/></g></g></g></g></g><polygon class="cls-1" points="109.02 62.25 109.02 109.88 67.77 135 67.77 87.38 109.02 62.25"/><polygon class="cls-3" points="28.02 62.25 28.02 110.63 67.77 135 67.77 87.38 28.02 62.25"/><polygon class="cls-2" points="27.44 62.25 0.44 83.25 41.69 108.75 67.19 87.38 27.44 62.25"/><polygon class="cls-2" points="67.77 87.38 93.64 108.75 134.52 82.88 109.02 62.25 67.77 87.38"/></g></g></svg>