<?xml version="1.0" encoding="UTF-8"?>
<svg width="270px" height="109px" viewBox="0 0 270 109" version="1.1" xmlns="http://www.w3.org/2000/svg" xmlns:xlink="http://www.w3.org/1999/xlink">
    <!-- Generator: Sketch 49 (51002) - http://www.bohemiancoding.com/sketch -->
    <title>Group 4</title>
    <desc>Created with Sketch.</desc>
    <defs>
        <linearGradient x1="9.59155961e-15%" y1="49.9859905%" x2="100.080994%" y2="49.9859905%" id="linearGradient-1">
            <stop stop-color="#FF7452" offset="0%"></stop>
            <stop stop-color="#FF5630" offset="100%"></stop>
        </linearGradient>
        <linearGradient x1="88.0442767%" y1="49.8791399%" x2="41.0206289%" y2="49.8791399%" id="linearGradient-2">
            <stop stop-color="#FFAB00" offset="0%"></stop>
            <stop stop-color="#FFB000" offset="32.7885842%"></stop>
            <stop stop-color="#FFBE00" offset="81%"></stop>
            <stop stop-color="#FFC400" offset="100%"></stop>
        </linearGradient>
        <linearGradient x1="28929%" y1="38070%" x2="40796%" y2="38070%" id="linearGradient-3">
            <stop stop-color="#002B6D" offset="0%"></stop>
            <stop stop-color="#0A449E" offset="100%"></stop>
        </linearGradient>
        <linearGradient x1="13887%" y1="56413%" x2="19930%" y2="56413%" id="linearGradient-4">
            <stop stop-color="#FFAB00" offset="0%"></stop>
            <stop stop-color="#FFC400" offset="100%"></stop>
        </linearGradient>
        <linearGradient x1="35874%" y1="56413%" x2="41917%" y2="56413%" id="linearGradient-5">
            <stop stop-color="#FFAB00" offset="0%"></stop>
            <stop stop-color="#FFC400" offset="100%"></stop>
        </linearGradient>
        <linearGradient x1="25596%" y1="22560%" x2="40796%" y2="22560%" id="linearGradient-6">
            <stop stop-color="#0042AC" offset="0%"></stop>
            <stop stop-color="#2A6DD9" offset="100%"></stop>
        </linearGradient>
        <linearGradient x1="22337%" y1="19813%" x2="25189%" y2="19813%" id="linearGradient-7">
            <stop stop-color="#FFAB00" offset="0%"></stop>
            <stop stop-color="#FFC400" offset="100%"></stop>
        </linearGradient>
        <linearGradient x1="26087%" y1="19833%" x2="31428%" y2="19833%" id="linearGradient-8">
            <stop stop-color="#FFAB00" offset="0%"></stop>
            <stop stop-color="#FFC400" offset="100%"></stop>
        </linearGradient>
    </defs>
    <g id="Page-1" stroke="none" stroke-width="1" fill="none" fill-rule="evenodd">
        <g id="Cricket-API" transform="translate(-994.000000, -2361.000000)">
            <g id="Group-9" transform="translate(860.000000, 2212.000000)">
                <g id="Group-4" transform="translate(134.000000, 149.000000)">
                    <g id="Group-2" transform="translate(0.000000, 38.723404)">
                        <path d="M8.88550676,37.3184735 C8.82513864,37.4831138 8.77574654,37.6148261 8.78123455,37.6148261 L8.91294681,37.6148261 L8.88550676,37.3184735 Z" id="Shape"></path>
                        <path d="M8.84667342,38.4160757 C8.84667342,38.3495543 8.84667342,37.83734 8.84667342,37.3184735 L8.78081729,37.3184735 C8.81374536,37.7508622 8.84118541,38.1433381 8.85216143,38.3229458 C8.85645077,38.3493003 8.85645077,38.3764168 8.85216143,38.4027714 L8.84667342,38.4160757 Z" id="Shape"></path>
                        <path d="M7.94032014,40.6307929 C7.88544003,40.6307929 7.7207997,40.5868888 7.68787164,40.6307929 C7.68166296,40.6615817 7.68166296,40.6933002 7.68787164,40.7240891 C7.71531169,40.8283613 7.85251196,40.7570171 7.94032014,40.6307929 Z" id="Shape"></path>
                        <path d="M8.78350309,36.2208713 C8.77992202,36.253702 8.77992202,36.2868248 8.78350309,36.3196555 C8.79631873,36.2879744 8.79631873,36.2525524 8.78350309,36.2208713 Z" id="Shape" fill="#B5917C" fill-rule="nonzero"></path>
                        <path d="M8.7158482,36.2208713 C8.69874381,36.261372 8.66600961,36.2947678 8.62380865,36.3147712 C8.51070531,36.3900248 8.36243552,36.405063 8.23399409,36.3543081 C8.19609546,36.3543081 8.7158482,37.3427283 8.67794956,37.3180178 C8.64005092,37.2933073 8.72126229,37.1994073 8.78081729,37.0511443 C8.7754032,36.7002551 8.72667638,36.3543081 8.7158482,36.2208713 Z" id="Shape" fill="#B5917C" fill-rule="nonzero"></path>
                        <path d="M6.67890915,40.7868963 C6.7004766,40.7495404 6.7004766,40.703516 6.67890915,40.6661601 L6.64598109,40.61128 L6.58561297,40.7375042 C6.62951706,40.7649443 6.67342114,40.8033604 6.67890915,40.7868963 Z" id="Shape" fill="#B5917C" fill-rule="nonzero"></path>
                        <path d="M7.13441405,40.6628223 C7.1978638,40.674979 7.26304467,40.674979 7.32649443,40.6628223 C7.30514187,40.6306321 7.26908247,40.61128 7.23045424,40.61128 C7.191826,40.61128 7.15576661,40.6306321 7.13441405,40.6628223 Z" id="Shape" fill="#B5917C" fill-rule="nonzero"></path>
                        <path d="M6.58943816,41.2903916 C6.58943816,41.4221039 6.64431827,41.3397837 6.7101744,41.1970955 C6.64431827,41.1531914 6.56748612,41.1147753 6.58943816,41.2903916 Z" id="Shape" fill="#B5917C" fill-rule="nonzero"></path>
                        <path d="M8.78803161,36.7696724 C8.77841252,36.8993772 8.77841252,37.0296163 8.78803161,37.1593212 C8.8319357,36.9782168 8.85937575,36.8080885 8.78803161,36.7696724 Z" id="Shape" fill="#B5917C" fill-rule="nonzero"></path>
                        <path d="M6.65799352,40.6355905 C6.60675317,40.6764208 6.57985898,40.7405531 6.58664938,40.8057188 C6.59147515,40.8292315 6.60079211,40.8515922 6.61408944,40.871575 L6.66348153,40.9538951 C6.71426173,40.833333 6.78473786,40.7220549 6.87202595,40.6246145 L6.81165783,40.6246145 C6.7616194,40.6035438 6.70452913,40.6076216 6.65799352,40.6355905 Z" id="Shape" fill="#B5917C" fill-rule="nonzero"></path>
                        <polygon id="Shape" fill="#B5917C" fill-rule="nonzero" points="8.78081729 38.4215637 8.78081729 38.4160757 8.78081729 38.4215637"></polygon>
                        <path d="M8.78081729,38.4160757 C8.78081729,38.4544917 8.78081729,38.4764438 8.78081729,38.4874198 C8.78585976,38.4639057 8.78585976,38.4395897 8.78081729,38.4160757 Z" id="Shape" fill="#B5917C" fill-rule="nonzero"></path>
                        <path d="M44.4471138,5.26347246 C44.3759157,4.94972672 44.0199251,5.06611627 43.8114163,5.15214332 C43.6029076,5.23817038 43.4554257,5.15214332 43.4249123,5.19262664 C43.3943988,5.23310997 43.8368442,4.68658514 43.597822,4.47910812 C43.3587997,4.27163111 43.2011467,4.47910812 43.0231515,4.58537684 C41.7975267,5.20780789 41.3398245,5.16226415 41.3398245,5.16226415 C40.6786991,5.19262664 40.2667672,5.66830566 39.8141506,6.04783679 C38.0647255,7.43997751 36.0616484,8.48295281 33.9148779,9.11950872 C32.6739964,9.48891902 31.153408,9.97471886 29.8006438,10.5263041 C29.7997957,10.5094466 29.7997957,10.4925574 29.8006438,10.4757 C29.7141889,10.2176188 29.1598607,10.3188271 28.5445056,10.6528145 C28.2802019,13.7977961 25.6388899,16.2170984 22.4672376,16.219271 L20.4330057,16.219271 C19.1195671,16.2196381 17.8415991,15.7951647 16.7917305,15.0098318 C15.647516,15.8705942 14.8315239,17.0929871 14.4777916,18.4762161 L13.7403826,19.8425282 C13.0894283,20.8090675 10.9738271,23.3240938 10.8772011,23.5720541 C10.6229221,23.7643499 11.35016,24.0780956 11.2331917,24.3665393 C9.74311677,25.4191056 7.9428215,28.374388 6.74771023,30.4693998 C5.64412518,32.409225 4.17463956,34.1188644 2.41988176,35.5045128 C1.96217957,35.8638022 1.40276579,36.1573063 1.20951375,36.7898582 C1.20951375,36.7898582 1.15357237,37.2452956 0.268681475,38.3079827 C0.141541978,38.4597952 -0.0873091161,38.6267889 0.0347448008,38.8443867 C0.156798718,39.0619846 0.736554823,38.8443867 0.772153882,38.8443867 C0.731469243,38.8443867 0.817924101,38.9607763 0.645014385,39.213797 C0.47210467,39.4668178 0.319537274,39.7198385 0.609415326,39.8564697 C1.11797331,40.0943092 1.75875638,38.2067744 3.05049366,37.4274705 C3.31328115,37.2382166 3.61900675,37.1165315 3.94047014,37.0732414 C3.98624036,37.4021684 3.72687579,37.6197663 3.63024977,37.8980891 C3.53362375,38.1764119 3.47259679,38.4041306 3.73704695,38.5407618 C4.0014971,38.677393 4.2049203,38.5103993 4.33205979,38.3079827 C4.59142437,37.9082099 4.84061778,37.4831351 5.05421213,37.0732414 L5.22712185,36.9062477 C5.91367513,36.3243 5.91367513,35.519694 5.96453093,34.7252089 L6.1984676,34.2849528 L10.6076654,30.2011978 C14.9100659,27.5444799 14.9761785,25.5557368 14.9761785,25.5557368 C14.9761785,25.5557368 16.2119744,25.5557368 16.2780869,24.9636682 L16.8629286,23.6631416 C17.1528066,23.7947124 17.1578922,24.1691831 17.3714866,24.3361768 C17.813932,24.9080037 17.6461079,25.545616 17.5850809,26.1731074 C17.3527568,26.9132068 17.0098828,27.6143261 16.567965,28.252938 C16.0899205,28.9613961 16.2323167,29.7710625 16.4509966,30.5706081 C16.4509966,31.2082204 15.6983308,31.5270266 15.7797001,32.1950013 L15.586448,32.7364657 C15.393196,33.3841989 13.6081575,36.3141792 13.2725092,37.007456 C12.9012619,37.275658 14.0200894,37.6298871 13.8776932,38.0499015 C13.4301622,39.3656095 12.8097214,41.1721776 12.3164202,42.310771 L12.1333393,42.7206646 L11.762092,42.5131876 C10.806003,41.7541254 10.6890346,40.615532 10.4601835,39.5477844 C10.4601835,39.2897032 9.99739577,38.6369097 9.6871754,38.0296599 C9.4636526,37.7524729 9.11039937,37.612255 8.75651428,37.6602496 C8.75651428,38.054962 8.75651428,38.4395535 8.75651428,38.4952181 C8.75651428,38.5508826 8.75651428,38.4952181 8.75651428,38.4952181 C8.75651428,38.4952181 8.75651428,38.4952181 8.75651428,38.4952181 C8.75651428,38.4952181 8.75651428,38.4952181 8.75651428,38.4952181 C8.75651428,38.4952181 8.75651428,38.4952181 8.75651428,38.4952181 C8.675145,38.4041306 7.85128106,36.6937103 7.83093874,36.7190124 C7.79671912,36.7538298 7.78670995,36.80562 7.80551084,36.8505832 C7.83093874,36.921429 7.86145222,36.9922748 7.88179454,37.068181 C7.89900537,37.1389609 7.86813756,37.2126771 7.80551084,37.250356 C7.68597485,37.3744407 7.49275268,37.3917231 7.35289424,37.2908393 C7.30082092,37.2552033 7.23205784,37.2552033 7.17998452,37.2908393 C7.14412022,37.3158479 7.11453529,37.3487498 7.09352966,37.3869872 C7.06971424,37.4258281 7.06971424,37.4746566 7.09352966,37.5134976 C7.09352966,37.5742225 7.29186728,37.8272433 7.22066916,37.9790557 C7.22066916,38.0195391 7.19015568,38.0397807 6.9816469,38.1966536 C6.10692717,38.9152325 7.73431273,39.8412885 7.04775944,40.6914382 C7.50037605,41.2329026 6.20863876,41.9919649 6.96130459,41.4859234 C7.76991178,40.433357 7.80042526,40.6307132 7.7902541,40.7319215 C7.82076758,40.7319215 7.97842056,40.7673444 8.02419078,40.7319215 C7.9428215,40.8634923 7.815682,40.9292777 7.7902541,40.823009 C7.75465504,41.1620568 7.35289424,42.2601669 7.42409235,42.164019 C7.61734439,41.9059378 7.76991178,42.0931732 7.72922715,41.8097899 C7.89426907,42.3036258 8.01176576,42.8119532 8.08013216,43.3279144 C8.58869014,46.0149948 11.0297685,50.503583 12.1485961,51.0804703 C13.0640004,51.5460285 13.9031211,50.7768454 14.7168139,49.5623458 C15.5551545,48.2908756 16.2541733,46.9336857 16.8019016,45.5140137 L17.9461571,42.8319938 C17.9461571,42.8319938 18.7293364,43.7782914 18.927674,43.9958892 C19.2582367,44.2134871 19.3497772,44.1628829 19.6243985,43.6619018 C20.1583844,42.6751209 21.0839599,42.0881128 21.9942787,41.506165 C22.426553,42.0881128 24.3234743,48.5907461 24.3234743,48.5907461 L25.5338423,48.1859129 C25.5338423,48.1859129 27.2578539,51.0349266 27.2120836,53.1198176 C25.0863112,58.5496429 27.4460203,62.2285646 26.7035256,66.707032 C26.6424987,66.9904152 26.5967285,67.3142818 26.5967285,67.3142818 C26.5967285,67.3142818 26.250909,69.2119374 26.7899805,69.6977373 L29.8159005,67.1675297 C30.2837739,67.0815027 29.6684187,65.9429093 29.9938958,64.5209327 C30.6957058,61.1203337 31.977272,57.977816 31.7738488,52.5125678 C32.3790328,48.5553232 31.2652908,46.1212635 31.2652908,46.1212635 L32.1247538,45.7670345 C32.8214782,45.260993 28.6055325,34.5025506 29.2870002,34.2141069 C29.7548736,34.0167508 30.1210353,33.3993801 31.0822099,32.9490032 C30.9703272,32.3923575 30.8838723,31.8306515 30.7516472,31.2841266 C29.4816517,26.0179183 29.0254952,20.5898969 29.398883,15.1869464 C30.0091526,14.6809049 30.3041162,14.852959 30.5177105,14.4987299 C30.5431384,14.4531862 30.3905711,14.4987299 30.3651432,14.2204071 C31.1781765,13.8027129 31.9630159,13.3327871 32.7146811,12.8136117 L37.7036349,9.45349611 L38.2121929,9.32192532 C39.0004578,9.45349611 39.7938082,9.63061064 40.5159606,9.09420665 L40.7142982,8.96263586 C41.1720004,8.82094423 41.6398737,8.69949427 42.0874048,8.53756099 C42.3111703,8.45659435 42.5501925,8.31490273 42.4484809,8.03151949 C42.3467693,7.74813624 42.0924903,7.75825707 41.8432969,7.78355915 C41.5941035,7.80886122 41.2787976,8.01633824 40.9634916,7.8999487 C41.0773822,7.5979905 41.264274,7.32859907 41.5076486,7.11558436 C42.5705348,6.00735347 44.5742533,5.79481604 44.4471138,5.26347246 Z" id="Shape" fill="#B5917C" fill-rule="nonzero"></path>
                        <path d="M8.78685744,37.3293768 C8.74295335,37.3293768 8.95149776,37.7218968 8.98991384,37.8672746 C8.98991384,37.772779 8.95149776,37.5547124 8.9185697,37.3184735 L8.78685744,37.3293768 Z" id="Shape" fill="#B5917C" fill-rule="nonzero"></path>
                        <path d="M8.85764944,37.3184735 C8.85764944,37.1318811 8.85764944,36.9507768 8.85764944,36.7696724 C8.85764944,36.8574806 8.80825735,36.9398007 8.78081729,37.0221209 L8.78081729,37.3020095 L8.85764944,37.3184735 Z" id="Shape" fill="#B5917C" fill-rule="nonzero"></path>
                        <path d="M18.3908471,59.6154369 C16.751939,60.2269237 15.5022624,61.5820247 15.0255922,63.2645894 C14.5489221,64.947154 14.902234,66.7560678 15.9770262,68.1358144 C17.7091196,70.3534807 20.838461,70.9022382 23.2222137,69.4063216 C25.6059663,67.910405 26.4716868,64.8545586 25.2265675,62.3312933 C23.9814481,59.8080279 21.0289637,58.6349952 18.3908471,59.6154369 Z M24.7484482,65.2991332 L24.9190179,65.2009603 C24.812313,66.285739 24.3253058,67.2978516 23.5441221,68.0583095 L23.5441221,67.8309616 C23.5300584,67.7059346 23.4354307,67.6050332 23.3115269,67.5829458 L21.4249218,67.252258 C21.3258785,67.2361839 21.2256942,67.2734946 21.1613139,67.3504309 L19.8949625,68.8385259 C19.8209707,68.929719 19.8107016,69.0570122 19.8691186,69.1588797 L19.9983381,69.3862276 C18.8614126,69.3121829 17.7919302,68.8208693 16.9952761,68.0066395 L17.1710147,68.0066395 L17.2227025,68.0066395 C17.3164735,67.9733146 17.3854007,67.8925992 17.4036099,67.7947926 L17.7344119,65.9088388 C17.7527357,65.8096219 17.7150012,65.7083695 17.636205,65.645322 L16.1682711,64.4104098 C16.0781146,64.3387376 15.9536038,64.3285353 15.8529755,64.3845748 L15.6565618,64.4982488 C15.7396262,63.3119281 16.274186,62.2024986 17.1503396,61.3980508 L17.1503396,61.5788956 C17.1644033,61.7039226 17.259031,61.804824 17.3829347,61.8269115 L19.2747087,62.1627663 C19.3205315,62.1741446 19.368443,62.1741446 19.4142658,62.1627663 C19.460479,62.1461446 19.5014867,62.1176274 19.5331478,62.0800943 L20.7684865,60.6126673 C20.8401835,60.5225418 20.8503893,60.3980741 20.7943304,60.2974805 L20.758149,60.2354765 C21.8887686,60.3587619 22.9350376,60.8918256 23.6991855,61.7339055 L23.404565,61.7649075 C23.2787256,61.7772856 23.1769303,61.8726857 23.1564635,61.9974224 L22.8256615,63.8833762 C22.8104361,63.9807896 22.8477703,64.0790035 22.9238683,64.141726 L24.3918022,65.3714712 C24.4652563,65.4364206 24.568266,65.4562234 24.6605789,65.4231412 L24.7484482,65.2991332 Z" id="Shape" fill="#333333"></path>
                        <path d="M20.9056713,63.2303367 C20.8495219,63.1465816 20.7557785,63.1020993 20.6605851,63.1140405 L19.0087046,63.2990572 C18.9141758,63.3104633 18.8322159,63.3747458 18.7930288,63.4682153 L18.1214928,65.0963624 C18.1067499,65.1480288 18.1067499,65.2032817 18.1214928,65.2549481 C18.1270104,65.3028158 18.1438944,65.3483364 18.17051,65.3871029 L19.1508546,66.8355194 C19.207004,66.9192745 19.3007473,66.9637569 19.3959407,66.9518156 L21.0429195,66.7667989 C21.1349152,66.7556812 21.2148408,66.6935409 21.2536936,66.602927 L21.9301313,64.9642076 C21.9676342,64.8701115 21.9564621,64.7616762 21.9007209,64.6787532 L20.9056713,63.2303367 Z" id="Shape" fill="#333333"></path>
                        <path d="M16.3197203,30.7328605 C16.3197203,30.7328605 13.7558828,36.5430171 12.6224249,37.1874624 L18.7528767,44.784567 L21.7754312,41.7391746 L24.0826479,48.8432962 L32.8326678,46.1469893 L29.0345997,34.4270037 L30.8128693,33.1584106 L16.3197203,30.7328605 Z" id="Shape" fill="url(#linearGradient-1)" fill-rule="nonzero"></path>
                        <path d="M26.8258935,66.6303287 C26.4108241,67.7896146 26.2602895,69.0240315 26.3849044,70.2465383 L33.4750297,70.2465383 L33.4750297,69.766298 C33.4930604,69.5621646 33.3769618,69.3693019 33.1859368,69.2860577 C32.603396,69.0890632 32.0657615,68.7823619 31.6032758,68.3832059 C30.3195074,67.3074675 30.8437945,65.6314288 30.2705086,65.8811538 C29.971616,66.0108187 29.7805207,66.6639455 29.687423,66.6255263 L26.8258935,66.6303287 Z" id="_Path_" fill="#8B572A" fill-rule="nonzero"></path>
                        <path d="M10.9760216,39.4224672 C10.7543098,38.0284704 9.99120887,36.8477899 9.18170311,35.6720702 L2.19520432,39.7945304 L2.49425741,40.2608496 C2.6046646,40.4675328 2.83709744,40.5862751 3.07689531,40.5585001 C3.77314525,40.4090609 4.49306755,40.3922079 5.19604734,40.5088917 C7.12442413,40.8015814 7.6400329,42.7263883 8.05251991,42.1509306 C8.2639195,41.85328 8.05251991,41.099232 8.16595384,41.0893103 L10.9760216,39.4224672 Z" id="_Path_2" fill="#8B572A" fill-rule="nonzero"></path>
                        <path d="M25.7936508,7.4337482 C25.0561017,9.87330948 24.2884485,12.4418116 24.8303214,14.9381069 C23.7816971,14.5873877 22.5976047,15.7478556 21.6192232,15.2320921 C20.8967261,14.8504271 20.8264833,13.8395307 20.8616047,13.0039938 C20.9318475,11.3363586 21.0539361,9.67388094 21.2278706,8.01656093 C22.6327261,7.23775807 24.3386219,6.80967438 25.7936508,7.4337482 Z" id="Shape" fill="#B5917C" fill-rule="nonzero"></path>
                        <path d="M25.1958276,4.820738 C25.8997039,3.73949026 25.9880044,2.37185772 25.4289614,1.20987324 C24.8410587,0.0953465436 23.4726647,-0.0559466727 22.2056332,0.0146568282 C19.8084095,0.211338009 18.9873731,0.695476302 17.8267722,1.52758899 C16.6661713,2.35970168 16.3063344,3.80707345 16.5242638,5.22922968 C16.7573976,6.79259292 17.6240472,7.90207651 18.8809424,8.87035309 C20.1390356,9.73127828 20.9426269,11.1084091 21.0703729,12.6224249 C22.0941344,9.87393143 23.6500491,7.32716228 25.1958276,4.820738 Z" id="Shape" fill="#172B4D" fill-rule="nonzero"></path>
                        <path d="M19.0696106,8.12753714 C20.27408,9.33355575 21.8209985,10.1255964 23.4924138,10.3920649 C24.5158314,10.5525754 25.5471897,10.1563797 26.2094479,9.3483177 C26.8717061,8.54025575 27.0677742,7.43879316 26.7259743,6.44659911 C26.1164167,4.65704888 25.1361368,3.02085033 23.8511522,1.64819442 C22.738155,1.6229096 21.6350909,1.8656346 20.6323344,2.35648284 C19.4890935,2.87843235 18.6113713,3.85967568 18.2096211,5.06493788 C17.9276858,6.16856371 18.2568014,7.34061212 19.0696106,8.12753714 Z" id="Shape" fill="#B5917C" fill-rule="nonzero"></path>
                        <path d="M24.6960486,2.45225154 C24.3603437,3.25001957 23.8376574,3.95045395 23.1744094,4.49134944 C22.8263219,4.7717254 22.4384531,5.00112391 22.1102564,5.31718409 C21.7612475,5.60747909 21.5249242,6.01607877 21.4439176,6.4692744 C21.3689386,6.93518044 21.6158463,7.39290138 22.0406389,7.57548501 C21.7953279,7.24379024 21.33821,7.17004655 21.0053827,7.40847423 C20.6725554,7.64690191 20.5829469,8.11230427 20.8024423,8.4624926 C21.0311854,8.82953022 21.5035898,8.93148511 21.901404,9.09971069 C22.6792554,9.4368511 23.2637175,10.1205343 23.487688,10.9552898 C22.5454551,11.0360007 21.5982226,10.8802817 20.7278521,10.5015905 C19.0659789,9.72110751 17.894249,8.14118521 17.6050107,6.29085333 C17.3553052,4.4230711 18.1982722,2.5789797 19.75818,1.58053719 C21.4073037,0.694655658 23.4309667,1.05190617 24.6960486,2.45225154 Z" id="Shape" fill="#172B4D" fill-rule="nonzero"></path>
                        <path d="M20.2323284,12.8984568 C20.2323284,12.8984568 15.4049499,14.7757773 14.6131576,18.3722744 L10.9760216,23.5093987 L15.3232165,26.4937261 C16.070646,25.6382735 16.6402097,24.6428876 16.9987511,23.5655143 C16.9987511,23.5655143 18.2502936,24.5092759 17.2184096,26.6263629 C17.2184096,26.6263629 15.3232165,29.5907755 16.5798674,30.5493506 C16.5798674,30.5493506 25.3049072,36.3241517 31.2816616,32.9878267 C31.2816616,32.9878267 29.0850766,23.1880096 29.590802,15.0818621 L31.0824365,14.6839518 L29.8666522,9.87841945 L25.8208492,11.694523 L20.2323284,12.8984568 Z" id="Shape" fill="url(#linearGradient-2)" fill-rule="nonzero"></path>
                    </g>
                    <g id="Group" transform="translate(54.869976, 0.000000)">
                        <g id="goal">
                            <rect id="Rectangle-path" stroke="#BDBDBD" stroke-width="0.5" transform="translate(11.425246, 9.838956) rotate(-44.990000) translate(-11.425246, -9.838956) " x="8.10932786" y="6.51410103" width="6.63183658" height="6.64971086"></rect>
                            <rect id="Rectangle-path" stroke="#BDBDBD" stroke-width="0.5" transform="translate(21.104458, 9.843275) rotate(-45.010000) translate(-21.104458, -9.843275) " x="17.7885395" y="6.51841991" width="6.63183658" height="6.64971086"></rect>
                            <rect id="Rectangle-path" stroke="#BDBDBD" stroke-width="0.5" transform="translate(30.187125, 9.858590) rotate(-45.000000) translate(-30.187125, -9.858590) " x="26.8712071" y="6.53373471" width="6.63183658" height="6.64971086"></rect>
                            <rect id="Rectangle-path" stroke="#BDBDBD" stroke-width="0.5" transform="translate(39.871639, 9.866543) rotate(-44.990000) translate(-39.871639, -9.866543) " x="36.5557203" y="6.54168713" width="6.63183658" height="6.64971086"></rect>
                            <rect id="Rectangle-path" stroke="#BDBDBD" stroke-width="0.5" transform="translate(48.955524, 9.878226) rotate(-45.000000) translate(-48.955524, -9.878226) " x="45.6396053" y="6.55337032" width="6.63183658" height="6.64971086"></rect>
                            <rect id="Rectangle-path" stroke="#BDBDBD" stroke-width="0.5" transform="translate(58.645266, 9.888980) rotate(-45.000000) translate(-58.645266, -9.888980) " x="55.329348" y="6.56412488" width="6.63183658" height="6.64971086"></rect>
                            <rect id="Rectangle-path" stroke="#BDBDBD" stroke-width="0.5" transform="translate(67.724742, 9.901118) rotate(-44.990000) translate(-67.724742, -9.901118) " x="64.4088237" y="6.57626296" width="6.63183658" height="6.64971086"></rect>
                            <rect id="Rectangle-path" stroke="#BDBDBD" stroke-width="0.5" transform="translate(77.415679, 9.913070) rotate(-44.990000) translate(-77.415679, -9.913070) " x="74.0997608" y="6.58821434" width="6.63183658" height="6.64971086"></rect>
                            <rect id="Rectangle-path" stroke="#BDBDBD" stroke-width="0.5" transform="translate(86.488618, 9.913795) rotate(-45.000000) translate(-86.488618, -9.913795) " x="83.1726998" y="6.58893965" width="6.63183658" height="6.64971086"></rect>
                            <rect id="Rectangle-path" stroke="#BDBDBD" stroke-width="0.5" transform="translate(96.175743, 9.930869) rotate(-45.000000) translate(-96.175743, -9.930869) " x="92.8598248" y="6.60601372" width="6.63183658" height="6.64971086"></rect>
                            <rect id="Rectangle-path" stroke="#BDBDBD" stroke-width="0.5" transform="translate(105.257016, 9.942368) rotate(-45.000000) translate(-105.257016, -9.942368) " x="101.941098" y="6.61751239" width="6.63183658" height="6.64971086"></rect>
                            <rect id="Rectangle-path" stroke="#BDBDBD" stroke-width="0.5" transform="translate(114.946759, 9.944185) rotate(-45.000000) translate(-114.946759, -9.944185) " x="111.630841" y="6.61932981" width="6.63183658" height="6.64971086"></rect>
                            <rect id="Rectangle-path" stroke="#BDBDBD" stroke-width="0.5" transform="translate(124.033175, 9.972217) rotate(-44.990000) translate(-124.033175, -9.972217) " x="120.717257" y="6.64736203" width="6.63183658" height="6.64971086"></rect>
                            <rect id="Rectangle-path" stroke="#BDBDBD" stroke-width="0.5" transform="translate(133.724112, 9.984169) rotate(-44.990000) translate(-133.724112, -9.984169) " x="130.408194" y="6.6593134" width="6.63183658" height="6.64971086"></rect>
                            <rect id="Rectangle-path" stroke="#BDBDBD" stroke-width="0.5" transform="translate(142.797908, 9.983281) rotate(-45.010000) translate(-142.797908, -9.983281) " x="139.48199" y="6.6584251" width="6.63183658" height="6.64971086"></rect>
                            <rect id="Rectangle-path" stroke="#BDBDBD" stroke-width="0.5" transform="translate(152.477519, 9.983901) rotate(-45.010000) translate(-152.477519, -9.983901) " x="149.161601" y="6.65904591" width="6.63183658" height="6.64971086"></rect>
                            <rect id="Rectangle-path" stroke="#BDBDBD" stroke-width="0.5" transform="translate(161.558509, 9.997573) rotate(-45.000000) translate(-161.558509, -9.997573) " x="158.242591" y="6.67271733" width="6.63183658" height="6.64971086"></rect>
                            <rect id="Rectangle-path" stroke="#BDBDBD" stroke-width="0.5" transform="translate(171.246221, 10.012773) rotate(-45.010000) translate(-171.246221, -10.012773) " x="167.930303" y="6.68791806" width="6.63183658" height="6.64971086"></rect>
                            <rect id="Rectangle-path" stroke="#BDBDBD" stroke-width="0.5" transform="translate(180.317437, 10.014213) rotate(-45.010000) translate(-180.317437, -10.014213) " x="177.001519" y="6.68935798" width="6.63183658" height="6.64971086"></rect>
                            <rect id="Rectangle-path" stroke="#BDBDBD" stroke-width="0.5" transform="translate(190.014923, 10.023771) rotate(-45.010000) translate(-190.014923, -10.023771) " x="186.699004" y="6.69891593" width="6.63183658" height="6.64971086"></rect>
                            <rect id="Rectangle-path" stroke="#BDBDBD" stroke-width="0.5" transform="translate(199.092460, 10.040467) rotate(-45.010000) translate(-199.092460, -10.040467) " x="195.776541" y="6.7156114" width="6.63183658" height="6.64971086"></rect>
                            <rect id="Rectangle-path" stroke="#BDBDBD" stroke-width="0.5" transform="translate(208.772070, 10.041088) rotate(-45.010000) translate(-208.772070, -10.041088) " x="205.456152" y="6.71623221" width="6.63183658" height="6.64971086"></rect>
                            <rect id="Rectangle-path" stroke="#BDBDBD" stroke-width="0.5" transform="translate(6.659742, 16.978533) rotate(-45.000000) translate(-6.659742, -16.978533) " x="3.34382392" y="13.6536773" width="6.63183658" height="6.64971086"></rect>
                            <rect id="Rectangle-path" stroke="#BDBDBD" stroke-width="0.5" transform="translate(16.343240, 16.991497) rotate(-45.010000) translate(-16.343240, -16.991497) " x="13.0273217" y="13.6666417" width="6.63183658" height="6.64971086"></rect>
                            <rect id="Rectangle-path" stroke="#BDBDBD" stroke-width="0.5" transform="translate(25.430758, 17.004488) rotate(-45.000000) translate(-25.430758, -17.004488) " x="22.1148397" y="13.6796324" width="6.63183658" height="6.64971086"></rect>
                            <rect id="Rectangle-path" stroke="#BDBDBD" stroke-width="0.5" transform="translate(35.120501, 17.015242) rotate(-45.000000) translate(-35.120501, -17.015242) " x="31.8045824" y="13.690387" width="6.63183658" height="6.64971086"></rect>
                            <rect id="Rectangle-path" stroke="#BDBDBD" stroke-width="0.5" transform="translate(44.192837, 17.026741) rotate(-45.000000) translate(-44.192837, -17.026741) " x="40.8769184" y="13.7018857" width="6.63183658" height="6.64971086"></rect>
                            <rect id="Rectangle-path" stroke="#BDBDBD" stroke-width="0.5" transform="translate(53.887131, 17.037307) rotate(-44.990000) translate(-53.887131, -17.037307) " x="50.5712122" y="13.7124511" width="6.63183658" height="6.64971086"></rect>
                            <rect id="Rectangle-path" stroke="#BDBDBD" stroke-width="0.5" transform="translate(62.963852, 17.040057) rotate(-45.000000) translate(-62.963852, -17.040057) " x="59.6479342" y="13.7152018" width="6.63183658" height="6.64971086"></rect>
                            <rect id="Rectangle-path" stroke="#BDBDBD" stroke-width="0.5" transform="translate(72.657841, 17.068199) rotate(-44.990000) translate(-72.657841, -17.068199) " x="69.3419231" y="13.7433436" width="6.63183658" height="6.64971086"></rect>
                            <rect id="Rectangle-path" stroke="#BDBDBD" stroke-width="0.5" transform="translate(81.732251, 17.068630) rotate(-45.000000) translate(-81.732251, -17.068630) " x="78.4163324" y="13.7437745" width="6.63183658" height="6.64971086"></rect>
                            <rect id="Rectangle-path" stroke="#BDBDBD" stroke-width="0.5" transform="translate(91.421993, 17.079385) rotate(-45.000000) translate(-91.421993, -17.079385) " x="88.1060751" y="13.7545291" width="6.63183658" height="6.64971086"></rect>
                            <rect id="Rectangle-path" stroke="#BDBDBD" stroke-width="0.5" transform="translate(100.494329, 17.081946) rotate(-45.000000) translate(-100.494329, -17.081946) " x="97.178411" y="13.7570906" width="6.63183658" height="6.64971086"></rect>
                            <rect id="Rectangle-path" stroke="#BDBDBD" stroke-width="0.5" transform="translate(110.184072, 17.092701) rotate(-45.000000) translate(-110.184072, -17.092701) " x="106.868154" y="13.7678452" width="6.63183658" height="6.64971086"></rect>
                            <rect id="Rectangle-path" stroke="#BDBDBD" stroke-width="0.5" transform="translate(119.259052, 17.102630) rotate(-45.010000) translate(-119.259052, -17.102630) " x="115.943134" y="13.7777748" width="6.63183658" height="6.64971086"></rect>
                            <rect id="Rectangle-path" stroke="#BDBDBD" stroke-width="0.5" transform="translate(128.956537, 17.130062) rotate(-45.010000) translate(-128.956537, -17.130062) " x="125.640619" y="13.805207" width="6.63183658" height="6.64971086"></rect>
                            <rect id="Rectangle-path" stroke="#BDBDBD" stroke-width="0.5" transform="translate(138.042680, 17.141709) rotate(-45.000000) translate(-138.042680, -17.141709) " x="134.726762" y="13.8168537" width="6.63183658" height="6.64971086"></rect>
                            <rect id="Rectangle-path" stroke="#BDBDBD" stroke-width="0.5" transform="translate(147.730667, 17.154933) rotate(-44.990000) translate(-147.730667, -17.154933) " x="144.414749" y="13.8300774" width="6.63183658" height="6.64971086"></rect>
                            <rect id="Rectangle-path" stroke="#BDBDBD" stroke-width="0.5" transform="translate(156.796455, 17.142500) rotate(-45.010000) translate(-156.796455, -17.142500) " x="153.480537" y="13.8176448" width="6.63183658" height="6.64971086"></rect>
                            <rect id="Rectangle-path" stroke="#BDBDBD" stroke-width="0.5" transform="translate(166.481822, 17.153594) rotate(-45.020000) translate(-166.481822, -17.153594) " x="163.165904" y="13.8287388" width="6.63183658" height="6.64971086"></rect>
                            <rect id="Rectangle-path" stroke="#BDBDBD" stroke-width="0.5" transform="translate(175.583574, 17.183468) rotate(-45.010000) translate(-175.583574, -17.183468) " x="172.263187" y="13.8586122" width="6.64077372" height="6.64971086"></rect>
                            <rect id="Rectangle-path" stroke="#BDBDBD" stroke-width="0.5" transform="translate(185.251088, 17.169374) rotate(-45.010000) translate(-185.251088, -17.169374) " x="181.93517" y="13.844519" width="6.63183658" height="6.64971086"></rect>
                            <rect id="Rectangle-path" stroke="#BDBDBD" stroke-width="0.5" transform="translate(194.348163, 17.205143) rotate(-44.990000) translate(-194.348163, -17.205143) " x="191.032245" y="13.8802879" width="6.63183658" height="6.64971086"></rect>
                            <rect id="Rectangle-path" stroke="#BDBDBD" stroke-width="0.5" transform="translate(204.014596, 17.188829) rotate(-45.020000) translate(-204.014596, -17.188829) " x="200.698678" y="13.8639732" width="6.63183658" height="6.64971086"></rect>
                            <rect id="Rectangle-path" stroke="#BDBDBD" stroke-width="0.5" transform="translate(11.436484, 23.841806) rotate(-44.990000) translate(-11.436484, -23.841806) " x="8.12056524" y="20.5169503" width="6.63183658" height="6.64971086"></rect>
                            <rect id="Rectangle-path" stroke="#BDBDBD" stroke-width="0.5" transform="translate(21.128085, 23.842664) rotate(-45.010000) translate(-21.128085, -23.842664) " x="17.8121663" y="20.5178081" width="6.63183658" height="6.64971086"></rect>
                            <rect id="Rectangle-path" stroke="#BDBDBD" stroke-width="0.5" transform="translate(30.209813, 23.857440) rotate(-44.990000) translate(-30.209813, -23.857440) " x="26.8938949" y="20.5325851" width="6.63183658" height="6.64971086"></rect>
                            <rect id="Rectangle-path" stroke="#BDBDBD" stroke-width="0.5" transform="translate(39.889832, 23.870464) rotate(-45.000000) translate(-39.889832, -23.870464) " x="36.5739135" y="20.5456082" width="6.63183658" height="6.64971086"></rect>
                            <rect id="Rectangle-path" stroke="#BDBDBD" stroke-width="0.5" transform="translate(48.974206, 23.882012) rotate(-44.990000) translate(-48.974206, -23.882012) " x="45.6582873" y="20.5571569" width="6.63183658" height="6.64971086"></rect>
                            <rect id="Rectangle-path" stroke="#BDBDBD" stroke-width="0.5" transform="translate(58.656551, 23.882534) rotate(-45.010000) translate(-58.656551, -23.882534) " x="55.3406323" y="20.5576781" width="6.63183658" height="6.64971086"></rect>
                            <rect id="Rectangle-path" stroke="#BDBDBD" stroke-width="0.5" transform="translate(67.744917, 23.903968) rotate(-44.990000) translate(-67.744917, -23.903968) " x="64.4289982" y="20.5791123" width="6.63183658" height="6.64971086"></rect>
                            <rect id="Rectangle-path" stroke="#BDBDBD" stroke-width="0.5" transform="translate(77.422926, 23.909735) rotate(-45.000000) translate(-77.422926, -23.909735) " x="74.1070079" y="20.5848794" width="6.63183658" height="6.64971086"></rect>
                            <rect id="Rectangle-path" stroke="#BDBDBD" stroke-width="0.5" transform="translate(86.509309, 23.928540) rotate(-44.990000) translate(-86.509309, -23.928540) " x="83.1933907" y="20.6036841" width="6.63183658" height="6.64971086"></rect>
                            <rect id="Rectangle-path" stroke="#BDBDBD" stroke-width="0.5" transform="translate(96.193925, 23.937872) rotate(-44.990000) translate(-96.193925, -23.937872) " x="92.8780072" y="20.6130168" width="6.63183658" height="6.64971086"></rect>
                            <rect id="Rectangle-path" stroke="#BDBDBD" stroke-width="0.5" transform="translate(105.272598, 23.937167) rotate(-45.000000) translate(-105.272598, -23.937167) " x="101.956679" y="20.6123118" width="6.63183658" height="6.64971086"></rect>
                            <rect id="Rectangle-path" stroke="#BDBDBD" stroke-width="0.5" transform="translate(114.962340, 23.960561) rotate(-45.000000) translate(-114.962340, -23.960561) " x="111.646422" y="20.6357054" width="6.63183658" height="6.64971086"></rect>
                            <rect id="Rectangle-path" stroke="#BDBDBD" stroke-width="0.5" transform="translate(124.037576, 23.956415) rotate(-45.010000) translate(-124.037576, -23.956415) " x="120.721658" y="20.6315599" width="6.63183658" height="6.64971086"></rect>
                            <rect id="Rectangle-path" stroke="#BDBDBD" stroke-width="0.5" transform="translate(133.719806, 23.972294) rotate(-45.010000) translate(-133.719806, -23.972294) " x="130.403887" y="20.6474385" width="6.63183658" height="6.64971086"></rect>
                            <rect id="Rectangle-path" stroke="#BDBDBD" stroke-width="0.5" transform="translate(142.812012, 23.979056) rotate(-45.000000) translate(-142.812012, -23.979056) " x="139.496093" y="20.6542006" width="6.63183658" height="6.64971086"></rect>
                            <rect id="Rectangle-path" stroke="#BDBDBD" stroke-width="0.5" transform="translate(152.502358, 24.008971) rotate(-44.990000) translate(-152.502358, -24.008971) " x="149.18644" y="20.6841158" width="6.63183658" height="6.64971086"></rect>
                            <rect id="Rectangle-path" stroke="#BDBDBD" stroke-width="0.5" transform="translate(161.581300, 24.002604) rotate(-45.010000) translate(-161.581300, -24.002604) " x="158.265381" y="20.6777483" width="6.63183658" height="6.64971086"></rect>
                            <rect id="Rectangle-path" stroke="#BDBDBD" stroke-width="0.5" transform="translate(171.272770, 24.033640) rotate(-45.000000) translate(-171.272770, -24.033640) " x="167.956852" y="20.7087846" width="6.63183658" height="6.64971086"></rect>
                            <rect id="Rectangle-path" stroke="#BDBDBD" stroke-width="0.5" transform="translate(180.350001, 24.022539) rotate(-45.010000) translate(-180.350001, -24.022539) " x="177.034083" y="20.6976833" width="6.63183658" height="6.64971086"></rect>
                            <rect id="Rectangle-path" stroke="#BDBDBD" stroke-width="0.5" transform="translate(190.023294, 24.029480) rotate(-45.010000) translate(-190.023294, -24.029480) " x="186.707375" y="20.7046248" width="6.63183658" height="6.64971086"></rect>
                            <rect id="Rectangle-path" stroke="#BDBDBD" stroke-width="0.5" transform="translate(199.113504, 24.043198) rotate(-45.000000) translate(-199.113504, -24.043198) " x="195.797586" y="20.7183427" width="6.63183658" height="6.64971086"></rect>
                            <rect id="Rectangle-path" stroke="#BDBDBD" stroke-width="0.5" transform="translate(208.783058, 24.049415) rotate(-45.010000) translate(-208.783058, -24.049415) " x="205.46714" y="20.7245598" width="6.63183658" height="6.64971086"></rect>
                            <rect id="Rectangle-path" stroke="#BDBDBD" stroke-width="0.5" transform="translate(6.672327, 30.990614) rotate(-44.990000) translate(-6.672327, -30.990614) " x="3.35640917" y="27.665759" width="6.63183658" height="6.64971086"></rect>
                            <rect id="Rectangle-path" stroke="#BDBDBD" stroke-width="0.5" transform="translate(16.366867, 30.990885) rotate(-45.010000) translate(-16.366867, -30.990885) " x="13.0509485" y="27.66603" width="6.63183658" height="6.64971086"></rect>
                            <rect id="Rectangle-path" stroke="#BDBDBD" stroke-width="0.5" transform="translate(25.445657, 31.006249) rotate(-44.990000) translate(-25.445657, -31.006249) " x="22.1297388" y="27.6813937" width="6.63183658" height="6.64971086"></rect>
                            <rect id="Rectangle-path" stroke="#BDBDBD" stroke-width="0.5" transform="translate(35.133464, 31.025298) rotate(-45.000000) translate(-35.133464, -31.025298) " x="31.8175461" y="27.700443" width="6.63183658" height="6.64971086"></rect>
                            <rect id="Rectangle-path" stroke="#BDBDBD" stroke-width="0.5" transform="translate(44.214737, 31.027860) rotate(-45.000000) translate(-44.214737, -31.027860) " x="40.8988192" y="27.7030046" width="6.63183658" height="6.64971086"></rect>
                            <rect id="Rectangle-path" stroke="#BDBDBD" stroke-width="0.5" transform="translate(53.895543, 31.029677) rotate(-45.000000) translate(-53.895543, -31.029677) " x="50.5796247" y="27.704822" width="6.63183658" height="6.64971086"></rect>
                            <rect id="Rectangle-path" stroke="#BDBDBD" stroke-width="0.5" transform="translate(62.980760, 31.052776) rotate(-44.990000) translate(-62.980760, -31.052776) " x="59.6648422" y="27.7279209" width="6.63183658" height="6.64971086"></rect>
                            <rect id="Rectangle-path" stroke="#BDBDBD" stroke-width="0.5" transform="translate(72.666559, 31.060868) rotate(-45.000000) translate(-72.666559, -31.060868) " x="69.3506405" y="27.7360124" width="6.63183658" height="6.64971086"></rect>
                            <rect id="Rectangle-path" stroke="#BDBDBD" stroke-width="0.5" transform="translate(81.750992, 31.060270) rotate(-45.000000) translate(-81.750992, -31.060270) " x="78.4306049" y="27.7354142" width="6.64077372" height="6.64971086"></rect>
                            <rect id="Rectangle-path" stroke="#BDBDBD" stroke-width="0.5" transform="translate(91.436440, 31.074325) rotate(-45.010000) translate(-91.436440, -31.074325) " x="88.1205218" y="27.7494697" width="6.63183658" height="6.64971086"></rect>
                            <rect id="Rectangle-path" stroke="#BDBDBD" stroke-width="0.5" transform="translate(100.516230, 31.092002) rotate(-45.000000) translate(-100.516230, -31.092002) " x="97.2003119" y="27.7671467" width="6.63183658" height="6.64971086"></rect>
                            <rect id="Rectangle-path" stroke="#BDBDBD" stroke-width="0.5" transform="translate(110.208301, 31.091100) rotate(-45.010000) translate(-110.208301, -31.091100) " x="106.887914" y="27.7662444" width="6.64077372" height="6.64971086"></rect>
                            <rect id="Rectangle-path" stroke="#BDBDBD" stroke-width="0.5" transform="translate(119.278309, 31.105318) rotate(-45.000000) translate(-119.278309, -31.105318) " x="115.962391" y="27.7804628" width="6.63183658" height="6.64971086"></rect>
                            <rect id="Rectangle-path" stroke="#BDBDBD" stroke-width="0.5" transform="translate(128.971193, 31.126890) rotate(-44.990000) translate(-128.971193, -31.126890) " x="125.655275" y="27.8020342" width="6.63183658" height="6.64971086"></rect>
                            <rect id="Rectangle-path" stroke="#BDBDBD" stroke-width="0.5" transform="translate(138.059904, 31.145831) rotate(-44.990000) translate(-138.059904, -31.145831) " x="134.743986" y="27.8209753" width="6.63183658" height="6.64971086"></rect>
                            <rect id="Rectangle-path" stroke="#BDBDBD" stroke-width="0.5" transform="translate(147.734150, 31.128351) rotate(-45.010000) translate(-147.734150, -31.128351) " x="144.413764" y="27.8034957" width="6.64077372" height="6.64971086"></rect>
                            <rect id="Rectangle-path" stroke="#BDBDBD" stroke-width="0.5" transform="translate(156.811145, 31.141888) rotate(-45.010000) translate(-156.811145, -31.141888) " x="153.495226" y="27.817033" width="6.63183658" height="6.64971086"></rect>
                            <rect id="Rectangle-path" stroke="#BDBDBD" stroke-width="0.5" transform="translate(166.499693, 31.151446) rotate(-45.010000) translate(-166.499693, -31.151446) " x="163.183775" y="27.826591" width="6.63183658" height="6.64971086"></rect>
                            <rect id="Rectangle-path" stroke="#BDBDBD" stroke-width="0.5" transform="translate(175.597676, 31.187335) rotate(-45.000000) translate(-175.597676, -31.187335) " x="172.281757" y="27.8624791" width="6.63183658" height="6.64971086"></rect>
                            <rect id="Rectangle-path" stroke="#BDBDBD" stroke-width="0.5" transform="translate(185.265778, 31.177700) rotate(-45.010000) translate(-185.265778, -31.177700) " x="181.94986" y="27.8528444" width="6.63183658" height="6.64971086"></rect>
                            <rect id="Rectangle-path" stroke="#BDBDBD" stroke-width="0.5" transform="translate(194.366074, 31.215907) rotate(-45.000000) translate(-194.366074, -31.215907) " x="191.050156" y="27.8910519" width="6.63183658" height="6.64971086"></rect>
                            <rect id="Rectangle-path" stroke="#BDBDBD" stroke-width="0.5" transform="translate(204.034479, 31.188698) rotate(-45.010000) translate(-204.034479, -31.188698) " x="200.718561" y="27.8638423" width="6.63183658" height="6.64971086"></rect>
                            <rect id="Rectangle-path" stroke="#BDBDBD" stroke-width="0.5" transform="translate(11.444019, 37.844653) rotate(-44.990000) translate(-11.444019, -37.844653) " x="8.12810075" y="34.5197974" width="6.63183658" height="6.64971086"></rect>
                            <rect id="Rectangle-path" stroke="#BDBDBD" stroke-width="0.5" transform="translate(21.134956, 37.856604) rotate(-44.990000) translate(-21.134956, -37.856604) " x="17.8190378" y="34.5317488" width="6.63183658" height="6.64971086"></rect>
                            <rect id="Rectangle-path" stroke="#BDBDBD" stroke-width="0.5" transform="translate(30.223667, 37.866608) rotate(-44.990000) translate(-30.223667, -37.866608) " x="26.9077488" y="34.5417528" width="6.63183658" height="6.64971086"></rect>
                            <rect id="Rectangle-path" stroke="#BDBDBD" stroke-width="0.5" transform="translate(39.905157, 37.877245) rotate(-45.010000) translate(-39.905157, -37.877245) " x="36.5892391" y="34.5523891" width="6.63183658" height="6.64971086"></rect>
                            <rect id="Rectangle-path" stroke="#BDBDBD" stroke-width="0.5" transform="translate(48.989846, 37.886241) rotate(-45.000000) translate(-48.989846, -37.886241) " x="45.6694591" y="34.5613855" width="6.64077372" height="6.64971086"></rect>
                            <rect id="Rectangle-path" stroke="#BDBDBD" stroke-width="0.5" transform="translate(58.673859, 37.888242) rotate(-45.010000) translate(-58.673859, -37.888242) " x="55.3579407" y="34.563387" width="6.63183658" height="6.64971086"></rect>
                            <rect id="Rectangle-path" stroke="#BDBDBD" stroke-width="0.5" transform="translate(67.748765, 37.893780) rotate(-45.000000) translate(-67.748765, -37.893780) " x="64.4328466" y="34.5689242" width="6.63183658" height="6.64971086"></rect>
                            <rect id="Rectangle-path" stroke="#BDBDBD" stroke-width="0.5" transform="translate(77.433623, 37.908177) rotate(-45.010000) translate(-77.433623, -37.908177) " x="74.1177052" y="34.583322" width="6.63183658" height="6.64971086"></rect>
                            <rect id="Rectangle-path" stroke="#BDBDBD" stroke-width="0.5" transform="translate(86.529260, 37.919193) rotate(-45.000000) translate(-86.529260, -37.919193) " x="83.2088731" y="34.5943372" width="6.64077372" height="6.64971086"></rect>
                            <rect id="Rectangle-path" stroke="#BDBDBD" stroke-width="0.5" transform="translate(96.208646, 37.925494) rotate(-45.010000) translate(-96.208646, -37.925494) " x="92.8927274" y="34.6006382" width="6.63183658" height="6.64971086"></rect>
                            <rect id="Rectangle-path" stroke="#BDBDBD" stroke-width="0.5" transform="translate(105.288179, 37.944606) rotate(-45.000000) translate(-105.288179, -37.944606) " x="101.972261" y="34.6197502" width="6.63183658" height="6.64971086"></rect>
                            <rect id="Rectangle-path" stroke="#BDBDBD" stroke-width="0.5" transform="translate(114.971569, 37.951206) rotate(-45.010000) translate(-114.971569, -37.951206) " x="111.651182" y="34.6263501" width="6.64077372" height="6.64971086"></rect>
                            <rect id="Rectangle-path" stroke="#BDBDBD" stroke-width="0.5" transform="translate(124.060885, 37.977914) rotate(-44.990000) translate(-124.060885, -37.977914) " x="120.744967" y="34.6530584" width="6.63183658" height="6.64971086"></rect>
                            <rect id="Rectangle-path" stroke="#BDBDBD" stroke-width="0.5" transform="translate(133.746320, 37.974996) rotate(-45.000000) translate(-133.746320, -37.974996) " x="130.430401" y="34.6501404" width="6.63183658" height="6.64971086"></rect>
                            <rect id="Rectangle-path" stroke="#BDBDBD" stroke-width="0.5" transform="translate(142.831596, 37.999869) rotate(-44.990000) translate(-142.831596, -37.999869) " x="139.515678" y="34.6750138" width="6.63183658" height="6.64971086"></rect>
                            <rect id="Rectangle-path" stroke="#BDBDBD" stroke-width="0.5" transform="translate(152.503197, 37.991617) rotate(-45.010000) translate(-152.503197, -37.991617) " x="149.187278" y="34.6667617" width="6.63183658" height="6.64971086"></rect>
                            <rect id="Rectangle-path" stroke="#BDBDBD" stroke-width="0.5" transform="translate(161.580734, 37.999811) rotate(-45.000000) translate(-161.580734, -37.999811) " x="158.264816" y="34.6749551" width="6.63183658" height="6.64971086"></rect>
                            <rect id="Rectangle-path" stroke="#BDBDBD" stroke-width="0.5" transform="translate(171.271898, 38.011552) rotate(-45.010000) translate(-171.271898, -38.011552) " x="167.95598" y="34.6866967" width="6.63183658" height="6.64971086"></rect>
                            <rect id="Rectangle-path" stroke="#BDBDBD" stroke-width="0.5" transform="translate(180.358070, 38.019446) rotate(-45.000000) translate(-180.358070, -38.019446) " x="177.042151" y="34.6945907" width="6.63183658" height="6.64971086"></rect>
                            <rect id="Rectangle-path" stroke="#BDBDBD" stroke-width="0.5" transform="translate(190.038875, 38.030201) rotate(-45.000000) translate(-190.038875, -38.030201) " x="186.722957" y="34.7053453" width="6.63183658" height="6.64971086"></rect>
                            <rect id="Rectangle-path" stroke="#BDBDBD" stroke-width="0.5" transform="translate(199.127074, 38.048183) rotate(-45.010000) translate(-199.127074, -38.048183) " x="195.811156" y="34.7233272" width="6.63183658" height="6.64971086"></rect>
                            <rect id="Rectangle-path" stroke="#BDBDBD" stroke-width="0.5" transform="translate(208.806685, 38.057741) rotate(-45.010000) translate(-208.806685, -38.057741) " x="205.490767" y="34.7328851" width="6.63183658" height="6.64971086"></rect>
                            <rect id="Rectangle-path" stroke="#BDBDBD" stroke-width="0.5" transform="translate(6.701946, 44.980716) rotate(-45.010000) translate(-6.701946, -44.980716) " x="3.38602726" y="41.6558602" width="6.63183658" height="6.64971086"></rect>
                            <rect id="Rectangle-path" stroke="#BDBDBD" stroke-width="0.5" transform="translate(16.381556, 44.990274) rotate(-45.010000) translate(-16.381556, -44.990274) " x="13.0656382" y="41.6654182" width="6.63183658" height="6.64971086"></rect>
                            <rect id="Rectangle-path" stroke="#BDBDBD" stroke-width="0.5" transform="translate(25.462463, 44.997246) rotate(-45.000000) translate(-25.462463, -44.997246) " x="22.1420759" y="41.672391" width="6.64077372" height="6.64971086"></rect>
                            <rect id="Rectangle-path" stroke="#BDBDBD" stroke-width="0.5" transform="translate(35.147832, 45.012113) rotate(-44.990000) translate(-35.147832, -45.012113) " x="31.8319133" y="41.6872572" width="6.63183658" height="6.64971086"></rect>
                            <rect id="Rectangle-path" stroke="#BDBDBD" stroke-width="0.5" transform="translate(44.230319, 45.022659) rotate(-45.000000) translate(-44.230319, -45.022659) " x="40.9144005" y="41.697804" width="6.63183658" height="6.64971086"></rect>
                            <rect id="Rectangle-path" stroke="#BDBDBD" stroke-width="0.5" transform="translate(53.916343, 45.036462) rotate(-45.010000) translate(-53.916343, -45.036462) " x="50.6004248" y="41.7116066" width="6.63183658" height="6.64971086"></rect>
                            <rect id="Rectangle-path" stroke="#BDBDBD" stroke-width="0.5" transform="translate(63.001877, 45.039135) rotate(-45.000000) translate(-63.001877, -45.039135) " x="59.6814899" y="41.7142798" width="6.64077372" height="6.64971086"></rect>
                            <rect id="Rectangle-path" stroke="#BDBDBD" stroke-width="0.5" transform="translate(72.685045, 45.056397) rotate(-45.010000) translate(-72.685045, -45.056397) " x="69.3691264" y="41.7315416" width="6.63183658" height="6.64971086"></rect>
                            <rect id="Rectangle-path" stroke="#BDBDBD" stroke-width="0.5" transform="translate(81.765327, 45.071260) rotate(-44.990000) translate(-81.765327, -45.071260) " x="78.4494092" y="41.7464049" width="6.63183658" height="6.64971086"></rect>
                            <rect id="Rectangle-path" stroke="#BDBDBD" stroke-width="0.5" transform="translate(91.459425, 45.080053) rotate(-44.990000) translate(-91.459425, -45.080053) " x="88.139038" y="41.7551971" width="6.64077372" height="6.64971086"></rect>
                            <rect id="Rectangle-path" stroke="#BDBDBD" stroke-width="0.5" transform="translate(100.531811, 45.077864) rotate(-45.000000) translate(-100.531811, -45.077864) " x="97.2158932" y="41.7530089" width="6.63183658" height="6.64971086"></rect>
                            <rect id="Rectangle-path" stroke="#BDBDBD" stroke-width="0.5" transform="translate(110.219831, 45.093648) rotate(-45.010000) translate(-110.219831, -45.093648) " x="106.903913" y="41.7687929" width="6.63183658" height="6.64971086"></rect>
                            <rect id="Rectangle-path" stroke="#BDBDBD" stroke-width="0.5" transform="translate(119.309368, 45.117788) rotate(-44.990000) translate(-119.309368, -45.117788) " x="115.99345" y="41.7929321" width="6.63183658" height="6.64971086"></rect>
                            <rect id="Rectangle-path" stroke="#BDBDBD" stroke-width="0.5" transform="translate(128.993112, 45.122969) rotate(-45.000000) translate(-128.993112, -45.122969) " x="125.672725" y="41.7981136" width="6.64077372" height="6.64971086"></rect>
                            <rect id="Rectangle-path" stroke="#BDBDBD" stroke-width="0.5" transform="translate(138.073760, 45.142359) rotate(-44.990000) translate(-138.073760, -45.142359) " x="134.757842" y="41.817504" width="6.63183658" height="6.64971086"></rect>
                            <rect id="Rectangle-path" stroke="#BDBDBD" stroke-width="0.5" transform="translate(147.765593, 45.151245) rotate(-45.020000) translate(-147.765593, -45.151245) " x="144.445206" y="41.8263891" width="6.64077372" height="6.64971086"></rect>
                            <rect id="Rectangle-path" stroke="#BDBDBD" stroke-width="0.5" transform="translate(156.839624, 45.148326) rotate(-45.000000) translate(-156.839624, -45.148326) " x="153.523705" y="41.8234705" width="6.63183658" height="6.64971086"></rect>
                            <rect id="Rectangle-path" stroke="#BDBDBD" stroke-width="0.5" transform="translate(166.535408, 45.176266) rotate(-44.990000) translate(-166.535408, -45.176266) " x="163.21949" y="41.8514107" width="6.63183658" height="6.64971086"></rect>
                            <rect id="Rectangle-path" stroke="#BDBDBD" stroke-width="0.5" transform="translate(175.617801, 45.188887) rotate(-44.990000) translate(-175.617801, -45.188887) " x="172.301883" y="41.8640312" width="6.63183658" height="6.64971086"></rect>
                            <rect id="Rectangle-path" stroke="#BDBDBD" stroke-width="0.5" transform="translate(185.295180, 45.185484) rotate(-45.010000) translate(-185.295180, -45.185484) " x="181.974794" y="41.8606282" width="6.64077372" height="6.64971086"></rect>
                            <rect id="Rectangle-path" stroke="#BDBDBD" stroke-width="0.5" transform="translate(194.372718, 45.201770) rotate(-45.000000) translate(-194.372718, -45.201770) " x="191.0568" y="41.8769141" width="6.63183658" height="6.64971086"></rect>
                            <rect id="Rectangle-path" stroke="#BDBDBD" stroke-width="0.5" transform="translate(204.068780, 45.218844) rotate(-45.000000) translate(-204.068780, -45.218844) " x="200.752862" y="41.8939882" width="6.63183658" height="6.64971086"></rect>
                            <rect id="Rectangle-path" stroke="#BDBDBD" stroke-width="0.5" transform="translate(11.474151, 51.840821) rotate(-45.010000) translate(-11.474151, -51.840821) " x="8.15823282" y="48.5159659" width="6.63183658" height="6.64971086"></rect>
                            <rect id="Rectangle-path" stroke="#BDBDBD" stroke-width="0.5" transform="translate(21.153762, 51.850379) rotate(-45.010000) translate(-21.153762, -51.850379) " x="17.8378437" y="48.5255239" width="6.63183658" height="6.64971086"></rect>
                            <rect id="Rectangle-path" stroke="#BDBDBD" stroke-width="0.5" transform="translate(30.233916, 51.860756) rotate(-45.010000) translate(-30.233916, -51.860756) " x="26.9179973" y="48.5359009" width="6.63183658" height="6.64971086"></rect>
                            <rect id="Rectangle-path" stroke="#BDBDBD" stroke-width="0.5" transform="translate(39.919523, 51.875088) rotate(-44.990000) translate(-39.919523, -51.875088) " x="36.6036048" y="48.5502328" width="6.63183658" height="6.64971086"></rect>
                            <rect id="Rectangle-path" stroke="#BDBDBD" stroke-width="0.5" transform="translate(49.008587, 51.881582) rotate(-45.000000) translate(-49.008587, -51.881582) " x="45.6926687" y="48.556727" width="6.63183658" height="6.64971086"></rect>
                            <rect id="Rectangle-path" stroke="#BDBDBD" stroke-width="0.5" transform="translate(58.688549, 51.896568) rotate(-45.010000) translate(-58.688549, -51.896568) " x="55.3726304" y="48.5717123" width="6.63183658" height="6.64971086"></rect>
                            <rect id="Rectangle-path" stroke="#BDBDBD" stroke-width="0.5" transform="translate(67.768702, 51.898008) rotate(-45.010000) translate(-67.768702, -51.898008) " x="64.4527839" y="48.5731522" width="6.63183658" height="6.64971086"></rect>
                            <rect id="Rectangle-path" stroke="#BDBDBD" stroke-width="0.5" transform="translate(77.457250, 51.907566) rotate(-45.010000) translate(-77.457250, -51.907566) " x="74.141332" y="48.5827102" width="6.63183658" height="6.64971086"></rect>
                            <rect id="Rectangle-path" stroke="#BDBDBD" stroke-width="0.5" transform="translate(86.532744, 51.917152) rotate(-45.000000) translate(-86.532744, -51.917152) " x="83.2168261" y="48.5922964" width="6.63183658" height="6.64971086"></rect>
                            <rect id="Rectangle-path" stroke="#BDBDBD" stroke-width="0.5" transform="translate(96.237435, 51.949349) rotate(-44.990000) translate(-96.237435, -51.949349) " x="92.917048" y="48.6244933" width="6.64077372" height="6.64971086"></rect>
                            <rect id="Rectangle-path" stroke="#BDBDBD" stroke-width="0.5" transform="translate(105.307730, 51.956191) rotate(-44.990000) translate(-105.307730, -51.956191) " x="101.991812" y="48.6313359" width="6.63183658" height="6.64971086"></rect>
                            <rect id="Rectangle-path" stroke="#BDBDBD" stroke-width="0.5" transform="translate(114.992037, 51.944817) rotate(-45.010000) translate(-114.992037, -51.944817) " x="111.676119" y="48.6199615" width="6.63183658" height="6.64971086"></rect>
                            <rect id="Rectangle-path" stroke="#BDBDBD" stroke-width="0.5" transform="translate(124.072158, 51.959041) rotate(-45.000000) translate(-124.072158, -51.959041) " x="120.75624" y="48.6341852" width="6.63183658" height="6.64971086"></rect>
                            <rect id="Rectangle-path" stroke="#BDBDBD" stroke-width="0.5" transform="translate(133.752964, 51.969795) rotate(-45.000000) translate(-133.752964, -51.969795) " x="130.437046" y="48.6449398" width="6.63183658" height="6.64971086"></rect>
                            <rect id="Rectangle-path" stroke="#BDBDBD" stroke-width="0.5" transform="translate(142.843174, 51.990231) rotate(-45.000000) translate(-142.843174, -51.990231) " x="139.527256" y="48.6653756" width="6.63183658" height="6.64971086"></rect>
                            <rect id="Rectangle-path" stroke="#BDBDBD" stroke-width="0.5" transform="translate(152.532281, 51.992582) rotate(-45.020000) translate(-152.532281, -51.992582) " x="149.216362" y="48.6677265" width="6.63183658" height="6.64971086"></rect>
                            <rect id="Rectangle-path" stroke="#BDBDBD" stroke-width="0.5" transform="translate(161.611572, 52.009867) rotate(-45.000000) translate(-161.611572, -52.009867) " x="158.295654" y="48.6850112" width="6.63183658" height="6.64971086"></rect>
                            <rect id="Rectangle-path" stroke="#BDBDBD" stroke-width="0.5" transform="translate(171.301315, 52.020621) rotate(-45.000000) translate(-171.301315, -52.020621) " x="167.985397" y="48.6957657" width="6.63183658" height="6.64971086"></rect>
                            <rect id="Rectangle-path" stroke="#BDBDBD" stroke-width="0.5" transform="translate(180.373651, 52.023183) rotate(-45.000000) translate(-180.373651, -52.023183) " x="177.057733" y="48.6983273" width="6.63183658" height="6.64971086"></rect>
                            <rect id="Rectangle-path" stroke="#BDBDBD" stroke-width="0.5" transform="translate(190.055290, 52.021938) rotate(-45.010000) translate(-190.055290, -52.021938) " x="186.739371" y="48.6970828" width="6.63183658" height="6.64971086"></rect>
                            <rect id="Rectangle-path" stroke="#BDBDBD" stroke-width="0.5" transform="translate(199.160203, 52.073818) rotate(-44.990000) translate(-199.160203, -52.073818) " x="195.844285" y="48.7489621" width="6.63183658" height="6.64971086"></rect>
                            <rect id="Rectangle-path" stroke="#BDBDBD" stroke-width="0.5" transform="translate(208.822855, 52.053573) rotate(-45.000000) translate(-208.822855, -52.053573) " x="205.506936" y="48.7287174" width="6.63183658" height="6.64971086"></rect>
                            <rect id="Rectangle-path" stroke="#BDBDBD" stroke-width="0.5" transform="translate(6.706358, 58.989992) rotate(-44.990000) translate(-6.706358, -58.989992) " x="3.39043981" y="55.6651369" width="6.63183658" height="6.64971086"></rect>
                            <rect id="Rectangle-path" stroke="#BDBDBD" stroke-width="0.5" transform="translate(16.397295, 58.993007) rotate(-44.990000) translate(-16.397295, -58.993007) " x="13.0813769" y="55.6681512" width="6.63183658" height="6.64971086"></rect>
                            <rect id="Rectangle-path" stroke="#BDBDBD" stroke-width="0.5" transform="translate(25.484364, 59.007302) rotate(-45.000000) translate(-25.484364, -59.007302) " x="22.1639767" y="55.682447" width="6.64077372" height="6.64971086"></rect>
                            <rect id="Rectangle-path" stroke="#BDBDBD" stroke-width="0.5" transform="translate(35.170946, 59.012280) rotate(-45.000000) translate(-35.170946, -59.012280) " x="31.8550282" y="55.6874242" width="6.63183658" height="6.64971086"></rect>
                            <rect id="Rectangle-path" stroke="#BDBDBD" stroke-width="0.5" transform="translate(44.245101, 59.019974) rotate(-45.010000) translate(-44.245101, -59.019974) " x="40.929183" y="55.6951184" width="6.63183658" height="6.64971086"></rect>
                            <rect id="Rectangle-path" stroke="#BDBDBD" stroke-width="0.5" transform="translate(53.933649, 59.038469) rotate(-45.010000) translate(-53.933649, -59.038469) " x="50.617731" y="55.7136135" width="6.63183658" height="6.64971086"></rect>
                            <rect id="Rectangle-path" stroke="#BDBDBD" stroke-width="0.5" transform="translate(63.017458, 59.033935) rotate(-45.000000) translate(-63.017458, -59.033935) " x="59.6970712" y="55.7090792" width="6.64077372" height="6.64971086"></rect>
                            <rect id="Rectangle-path" stroke="#BDBDBD" stroke-width="0.5" transform="translate(72.703109, 59.070426) rotate(-44.990000) translate(-72.703109, -59.070426) " x="69.3871911" y="55.7455709" width="6.63183658" height="6.64971086"></rect>
                            <rect id="Rectangle-path" stroke="#BDBDBD" stroke-width="0.5" transform="translate(81.779888, 59.066162) rotate(-45.010000) translate(-81.779888, -59.066162) " x="78.4639696" y="55.7413069" width="6.63183658" height="6.64971086"></rect>
                            <rect id="Rectangle-path" stroke="#BDBDBD" stroke-width="0.5" transform="translate(91.468436, 59.075720) rotate(-45.010000) translate(-91.468436, -59.075720) " x="88.1525177" y="55.7508648" width="6.63183658" height="6.64971086"></rect>
                            <rect id="Rectangle-path" stroke="#BDBDBD" stroke-width="0.5" transform="translate(100.544775, 59.078983) rotate(-45.000000) translate(-100.544775, -59.078983) " x="97.2288568" y="55.7541278" width="6.63183658" height="6.64971086"></rect>
                            <rect id="Rectangle-path" stroke="#BDBDBD" stroke-width="0.5" transform="translate(110.240832, 59.110633) rotate(-44.990000) translate(-110.240832, -59.110633) " x="106.924913" y="55.7857775" width="6.63183658" height="6.64971086"></rect>
                            <rect id="Rectangle-path" stroke="#BDBDBD" stroke-width="0.5" transform="translate(119.329542, 59.129574) rotate(-44.990000) translate(-119.329542, -59.129574) " x="116.013624" y="55.8047186" width="6.63183658" height="6.64971086"></rect>
                            <rect id="Rectangle-path" stroke="#BDBDBD" stroke-width="0.5" transform="translate(129.003223, 59.112972) rotate(-45.010000) translate(-129.003223, -59.112972) " x="125.687304" y="55.7881161" width="6.63183658" height="6.64971086"></rect>
                            <rect id="Rectangle-path" stroke="#BDBDBD" stroke-width="0.5" transform="translate(138.084189, 59.129809) rotate(-45.000000) translate(-138.084189, -59.129809) " x="134.768271" y="55.8049538" width="6.63183658" height="6.64971086"></rect>
                            <rect id="Rectangle-path" stroke="#BDBDBD" stroke-width="0.5" transform="translate(147.775935, 59.157160) rotate(-44.990000) translate(-147.775935, -59.157160) " x="144.460017" y="55.8323047" width="6.63183658" height="6.64971086"></rect>
                            <rect id="Rectangle-path" stroke="#BDBDBD" stroke-width="0.5" transform="translate(156.846268, 59.143125) rotate(-45.000000) translate(-156.846268, -59.143125) " x="153.530349" y="55.8182699" width="6.63183658" height="6.64971086"></rect>
                            <rect id="Rectangle-path" stroke="#BDBDBD" stroke-width="0.5" transform="translate(166.538009, 59.159160) rotate(-45.010000) translate(-166.538009, -59.159160) " x="163.222091" y="55.8343045" width="6.63183658" height="6.64971086"></rect>
                            <rect id="Rectangle-path" stroke="#BDBDBD" stroke-width="0.5" transform="translate(175.614666, 59.162761) rotate(-45.000000) translate(-175.614666, -59.162761) " x="172.298748" y="55.8379055" width="6.63183658" height="6.64971086"></rect>
                            <rect id="Rectangle-path" stroke="#BDBDBD" stroke-width="0.5" transform="translate(185.309008, 59.175740) rotate(-45.020000) translate(-185.309008, -59.175740) " x="181.99309" y="55.8508846" width="6.63183658" height="6.64971086"></rect>
                            <rect id="Rectangle-path" stroke="#BDBDBD" stroke-width="0.5" transform="translate(194.402368, 59.207371) rotate(-44.990000) translate(-194.402368, -59.207371) " x="191.08645" y="55.8825152" width="6.63183658" height="6.64971086"></rect>
                            <rect id="Rectangle-path" stroke="#BDBDBD" stroke-width="0.5" transform="translate(204.078042, 59.228900) rotate(-45.000000) translate(-204.078042, -59.228900) " x="200.762124" y="55.9040442" width="6.63183658" height="6.64971086"></rect>
                            <rect id="Rectangle-path" stroke="#BDBDBD" stroke-width="0.5" transform="translate(11.478050, 65.844031) rotate(-44.990000) translate(-11.478050, -65.844031) " x="8.16213139" y="62.5191754" width="6.63183658" height="6.64971086"></rect>
                            <rect id="Rectangle-path" stroke="#BDBDBD" stroke-width="0.5" transform="translate(21.171879, 65.860504) rotate(-45.000000) translate(-21.171879, -65.860504) " x="17.8559611" y="62.5356488" width="6.63183658" height="6.64971086"></rect>
                            <rect id="Rectangle-path" stroke="#BDBDBD" stroke-width="0.5" transform="translate(30.248761, 65.865986) rotate(-44.990000) translate(-30.248761, -65.865986) " x="26.9328423" y="62.5411308" width="6.63183658" height="6.64971086"></rect>
                            <rect id="Rectangle-path" stroke="#BDBDBD" stroke-width="0.5" transform="translate(39.937153, 65.869703) rotate(-45.010000) translate(-39.937153, -65.869703) " x="36.621235" y="62.5448471" width="6.63183658" height="6.64971086"></rect>
                            <rect id="Rectangle-path" stroke="#BDBDBD" stroke-width="0.5" transform="translate(49.017307, 65.880080) rotate(-45.010000) translate(-49.017307, -65.880080) " x="45.7013885" y="62.5552241" width="6.63183658" height="6.64971086"></rect>
                            <rect id="Rectangle-path" stroke="#BDBDBD" stroke-width="0.5" transform="translate(58.705855, 65.898575) rotate(-45.010000) translate(-58.705855, -65.898575) " x="55.3899366" y="62.5737192" width="6.63183658" height="6.64971086"></rect>
                            <rect id="Rectangle-path" stroke="#BDBDBD" stroke-width="0.5" transform="translate(67.795488, 65.894236) rotate(-45.010000) translate(-67.795488, -65.894236) " x="64.4751014" y="62.5693801" width="6.64077372" height="6.64971086"></rect>
                            <rect id="Rectangle-path" stroke="#BDBDBD" stroke-width="0.5" transform="translate(77.474801, 65.924465) rotate(-44.990000) translate(-77.474801, -65.924465) " x="74.1588827" y="62.5996093" width="6.63183658" height="6.64971086"></rect>
                            <rect id="Rectangle-path" stroke="#BDBDBD" stroke-width="0.5" transform="translate(86.552093, 65.917331) rotate(-45.010000) translate(-86.552093, -65.917331) " x="83.2361752" y="62.5924754" width="6.63183658" height="6.64971086"></rect>
                            <rect id="Rectangle-path" stroke="#BDBDBD" stroke-width="0.5" transform="translate(96.236892, 65.924753) rotate(-45.020000) translate(-96.236892, -65.924753) " x="92.9209734" y="62.5998976" width="6.63183658" height="6.64971086"></rect>
                            <rect id="Rectangle-path" stroke="#BDBDBD" stroke-width="0.5" transform="translate(105.325661, 65.949461) rotate(-45.000000) translate(-105.325661, -65.949461) " x="102.009743" y="62.6246056" width="6.63183658" height="6.64971086"></rect>
                            <rect id="Rectangle-path" stroke="#BDBDBD" stroke-width="0.5" transform="translate(115.012786, 65.957598) rotate(-45.000000) translate(-115.012786, -65.957598) " x="111.696868" y="62.6327426" width="6.63183658" height="6.64971086"></rect>
                            <rect id="Rectangle-path" stroke="#BDBDBD" stroke-width="0.5" transform="translate(124.094059, 65.960160) rotate(-45.000000) translate(-124.094059, -65.960160) " x="120.778141" y="62.6353041" width="6.63183658" height="6.64971086"></rect>
                            <rect id="Rectangle-path" stroke="#BDBDBD" stroke-width="0.5" transform="translate(133.775428, 65.964140) rotate(-45.010000) translate(-133.775428, -65.964140) " x="130.45951" y="62.6392847" width="6.63183658" height="6.64971086"></rect>
                            <rect id="Rectangle-path" stroke="#BDBDBD" stroke-width="0.5" transform="translate(142.859298, 65.988190) rotate(-45.000000) translate(-142.859298, -65.988190) " x="139.538911" y="62.6633347" width="6.64077372" height="6.64971086"></rect>
                            <rect id="Rectangle-path" stroke="#BDBDBD" stroke-width="0.5" transform="translate(152.544130, 65.993012) rotate(-45.010000) translate(-152.544130, -65.993012) " x="149.228211" y="62.6681568" width="6.63183658" height="6.64971086"></rect>
                            <rect id="Rectangle-path" stroke="#BDBDBD" stroke-width="0.5" transform="translate(161.636337, 66.030140) rotate(-44.990000) translate(-161.636337, -66.030140) " x="158.320419" y="62.7052842" width="6.63183658" height="6.64971086"></rect>
                            <rect id="Rectangle-path" stroke="#BDBDBD" stroke-width="0.5" transform="translate(171.319152, 66.028203) rotate(-45.010000) translate(-171.319152, -66.028203) " x="168.003234" y="62.7033474" width="6.63183658" height="6.64971086"></rect>
                            <rect id="Rectangle-path" stroke="#BDBDBD" stroke-width="0.5" transform="translate(180.398712, 66.021142) rotate(-45.000000) translate(-180.398712, -66.021142) " x="177.078325" y="62.6962864" width="6.64077372" height="6.64971086"></rect>
                            <rect id="Rectangle-path" stroke="#BDBDBD" stroke-width="0.5" transform="translate(190.078916, 66.030264) rotate(-45.010000) translate(-190.078916, -66.030264) " x="186.762998" y="62.7054081" width="6.63183658" height="6.64971086"></rect>
                            <rect id="Rectangle-path" stroke="#BDBDBD" stroke-width="0.5" transform="translate(199.157630, 66.037618) rotate(-45.000000) translate(-199.157630, -66.037618) " x="195.841712" y="62.7127623" width="6.63183658" height="6.64971086"></rect>
                            <rect id="Rectangle-path" stroke="#BDBDBD" stroke-width="0.5" transform="translate(208.853939, 66.056517) rotate(-45.010000) translate(-208.853939, -66.056517) " x="205.53802" y="62.7316615" width="6.63183658" height="6.64971086"></rect>
                            <rect id="Rectangle-path" stroke="#BDBDBD" stroke-width="0.5" transform="translate(6.734706, 72.983008) rotate(-45.000000) translate(-6.734706, -72.983008) " x="3.41878815" y="69.6581529" width="6.63183658" height="6.64971086"></rect>
                            <rect id="Rectangle-path" stroke="#BDBDBD" stroke-width="0.5" transform="translate(16.409192, 73.000082) rotate(-45.000000) translate(-16.409192, -73.000082) " x="13.0932742" y="69.675227" width="6.63183658" height="6.64971086"></rect>
                            <rect id="Rectangle-path" stroke="#BDBDBD" stroke-width="0.5" transform="translate(25.496785, 72.996324) rotate(-45.000000) translate(-25.496785, -72.996324) " x="22.1808668" y="69.671469" width="6.63183658" height="6.64971086"></rect>
                            <rect id="Rectangle-path" stroke="#BDBDBD" stroke-width="0.5" transform="translate(35.175935, 73.017924) rotate(-45.010000) translate(-35.175935, -73.017924) " x="31.8600172" y="69.6930689" width="6.63183658" height="6.64971086"></rect>
                            <rect id="Rectangle-path" stroke="#BDBDBD" stroke-width="0.5" transform="translate(44.255315, 73.045687) rotate(-44.990000) translate(-44.255315, -73.045687) " x="40.9393971" y="69.7208319" width="6.63183658" height="6.64971086"></rect>
                            <rect id="Rectangle-path" stroke="#BDBDBD" stroke-width="0.5" transform="translate(53.948606, 73.050908) rotate(-45.000000) translate(-53.948606, -73.050908) " x="50.6326882" y="69.726053" width="6.63183658" height="6.64971086"></rect>
                            <rect id="Rectangle-path" stroke="#BDBDBD" stroke-width="0.5" transform="translate(63.037430, 73.039297) rotate(-45.010000) translate(-63.037430, -73.039297) " x="59.7215113" y="69.7144417" width="6.63183658" height="6.64971086"></rect>
                            <rect id="Rectangle-path" stroke="#BDBDBD" stroke-width="0.5" transform="translate(72.710685, 73.073162) rotate(-45.000000) translate(-72.710685, -73.073162) " x="69.3947668" y="69.7483062" width="6.63183658" height="6.64971086"></rect>
                            <rect id="Rectangle-path" stroke="#BDBDBD" stroke-width="0.5" transform="translate(81.796198, 73.082735) rotate(-44.990000) translate(-81.796198, -73.082735) " x="78.4758109" y="69.7578792" width="6.64077372" height="6.64971086"></rect>
                            <rect id="Rectangle-path" stroke="#BDBDBD" stroke-width="0.5" transform="translate(91.479083, 73.074923) rotate(-45.000000) translate(-91.479083, -73.074923) " x="88.163165" y="69.7500676" width="6.63183658" height="6.64971086"></rect>
                            <rect id="Rectangle-path" stroke="#BDBDBD" stroke-width="0.5" transform="translate(100.566676, 73.089039) rotate(-45.000000) translate(-100.566676, -73.089039) " x="97.2507576" y="69.7641839" width="6.63183658" height="6.64971086"></rect>
                            <rect id="Rectangle-path" stroke="#BDBDBD" stroke-width="0.5" transform="translate(110.245509, 73.101364) rotate(-45.010000) translate(-110.245509, -73.101364) " x="106.929591" y="69.7765086" width="6.63183658" height="6.64971086"></rect>
                            <rect id="Rectangle-path" stroke="#BDBDBD" stroke-width="0.5" transform="translate(119.331301, 73.129262) rotate(-44.990000) translate(-119.331301, -73.129262) " x="116.010914" y="69.8044065" width="6.64077372" height="6.64971086"></rect>
                            <rect id="Rectangle-path" stroke="#BDBDBD" stroke-width="0.5" transform="translate(129.012178, 73.119429) rotate(-45.000000) translate(-129.012178, -73.119429) " x="125.696259" y="69.794574" width="6.63183658" height="6.64971086"></rect>
                            <rect id="Rectangle-path" stroke="#BDBDBD" stroke-width="0.5" transform="translate(138.114109, 73.148058) rotate(-44.990000) translate(-138.114109, -73.148058) " x="134.798191" y="69.8232026" width="6.63183658" height="6.64971086"></rect>
                            <rect id="Rectangle-path" stroke="#BDBDBD" stroke-width="0.5" transform="translate(147.792949, 73.163169) rotate(-44.990000) translate(-147.792949, -73.163169) " x="144.472562" y="69.8383132" width="6.64077372" height="6.64971086"></rect>
                            <rect id="Rectangle-path" stroke="#BDBDBD" stroke-width="0.5" transform="translate(156.875342, 73.175789) rotate(-44.990000) translate(-156.875342, -73.175789) " x="153.554955" y="69.8509337" width="6.64077372" height="6.64971086"></rect>
                            <rect id="Rectangle-path" stroke="#BDBDBD" stroke-width="0.5" transform="translate(166.548997, 73.158550) rotate(-45.010000) translate(-166.548997, -73.158550) " x="163.233079" y="69.8336949" width="6.63183658" height="6.64971086"></rect>
                            <rect id="Rectangle-path" stroke="#BDBDBD" stroke-width="0.5" transform="translate(175.642894, 73.188265) rotate(-44.990000) translate(-175.642894, -73.188265) " x="172.326976" y="69.8634092" width="6.63183658" height="6.64971086"></rect>
                            <rect id="Rectangle-path" stroke="#BDBDBD" stroke-width="0.5" transform="translate(185.336990, 73.209696) rotate(-44.990000) translate(-185.336990, -73.209696) " x="182.016603" y="69.8848404" width="6.64077372" height="6.64971086"></rect>
                            <rect id="Rectangle-path" stroke="#BDBDBD" stroke-width="0.5" transform="translate(194.407285, 73.216538) rotate(-44.990000) translate(-194.407285, -73.216538) " x="191.091366" y="69.8916829" width="6.63183658" height="6.64971086"></rect>
                            <rect id="Rectangle-path" stroke="#BDBDBD" stroke-width="0.5" transform="translate(204.092721, 73.222613) rotate(-45.010000) translate(-204.092721, -73.222613) " x="200.776803" y="69.8977576" width="6.63183658" height="6.64971086"></rect>
                            <path d="M214.795188,5.34083401 C214.750904,3.88441729 214.128258,2.50564107 213.064943,1.5094122 C212.001628,0.513183323 210.585254,-0.0184160199 209.129043,0.0321736989 L5.63933444,0.0321736989 C2.61654707,-0.058037849 0.0923874996,2.31811237 0,5.34083401 L0,77.7852793 L0.0804342471,77.7852793 C0.549248036,77.9812698 1.05683584,78.0668871 1.56399925,78.0355191 C2.87409176,78.1373513 4.19200429,78.0531012 5.47846594,77.7852793 L5.47846594,9.77365474 C5.47846594,5.42126826 6.47048832,5.09953127 10.8407491,5.09953127 L203.972314,5.09953127 C209.754642,5.09953127 209.334597,5.91281088 209.334597,9.77365474 L209.334597,77.6959079 C210.566675,78.0209758 211.846825,78.123872 213.115006,77.9997706 C213.648384,78.0539186 214.186751,77.9708563 214.679006,77.7584678 L214.822,77.7584678 L214.795188,5.34083401 Z" id="Shape" fill="#CFCED0" fill-rule="nonzero"></path>
                        </g>
                        <g id="goal_v2" transform="translate(79.112883, 28.509147)" fill-rule="nonzero">
                            <rect id="Rectangle-path" fill="#E89680" x="26.0653548" y="3.30456545" width="4.72367804" height="14.1171036" rx="2.36183902"></rect>
                            <path d="M25.2373629,9.86928299 C25.2373629,9.86928299 27.5701217,8.37191829 31.6159673,9.86928299 L33.3216518,13.0913665 L30.7837455,16.6158838 L26.3307775,16.6158838 L23.5316784,14.1488274 L25.2373629,9.86928299 Z" id="Shape" fill="#E89680"></path>
                            <path d="M24.0963625,45.0975369 C24.0963625,45.0975369 21.3469641,45.8377595 15.9190171,44.1109258 C15.9179596,44.1098684 21.7562015,42.7584333 24.0963625,45.0975369 Z" id="Shape" fill="#000000"></path>
                            <rect id="Rectangle-path" fill="#EFAA8E" transform="translate(14.684690, 24.699206) rotate(30.000000) translate(-14.684690, -24.699206) " x="12.605722" y="19.6514162" width="4.15793643" height="10.0955796" rx="2.07896822"></rect>
                            <rect id="Rectangle-path" fill="#EFAA8E" transform="translate(9.794631, 25.104949) rotate(123.480000) translate(-9.794631, -25.104949) " x="7.71566325" y="19.0578583" width="4.15793643" height="12.0941808" rx="2.07896822"></rect>
                            <path d="M16.1157048,43.3442666 C16.1157048,43.3442666 15.2136906,50.4556915 15.3543329,53.0633902 C15.3543329,53.0633902 18.5267157,54.9668199 19.9363112,52.1465715 C19.9363112,52.1465715 19.6507967,48.8155696 23.2345319,44.5571743 L23.5316784,42.4877233 L19.4350747,43.1930497 L16.1157048,43.3442666 Z" id="Shape" fill="#EFAA8E"></path>
                            <path d="M19.8665188,30.9973527 C19.8665188,30.9973527 16.4826437,41.7126044 15.9190171,44.1098684 C15.9190171,44.1098684 20.7833374,42.629423 24.0963625,45.0964794 C24.0963625,45.0964794 25.9997922,40.1613092 28.4668486,40.0206669 L28.4668486,32.3096617 L19.8665188,30.9973527 Z" id="Shape" fill="url(#linearGradient-3)"></path>
                            <path d="M15.3395285,51.6537947 C15.3395285,51.6537947 14.5083642,51.9234473 14.7198563,53.691522 C14.9313485,55.4595967 15.1428407,61.1000933 16.7639283,61.9460621 C16.7639283,61.9460621 17.7505394,64.9069527 17.6098971,65.6122792 C17.5067768,66.0792 17.3406435,66.5299301 17.1160628,66.9520822 L20.429088,67.8689008 C20.429088,67.8689008 20.5697303,66.74059 20.429088,66.3884555 C20.2884457,66.036321 20.2175958,62.0877619 20.429088,61.312643 C20.6405802,60.5375241 21.768891,55.9544884 20.429088,53.2759398 L19.9352537,52.147629 L15.3395285,51.6537947 Z" id="Shape" fill="url(#linearGradient-4)"></path>
                            <path d="M0.845968755,20.5866497 C0.602597344,20.4228077 0.27273366,20.4850106 0.105746094,20.7262345 C-0.0667661926,20.9653235 -0.0138566302,21.2988427 0.22418172,21.4728019 L2.91647728,23.3614272 C3.16140928,23.5143991 3.48320355,23.4491348 3.64918363,23.2128241 C3.81516371,22.9765135 3.76737836,22.6516635 3.54037924,22.47316 L0.845968755,20.5866497 Z" id="Shape" fill="#EFAA8E"></path>
                            <path d="M1.86113126,22.6296642 C2.75151338,23.2556811 3.4684719,23.7558601 3.4684719,23.7558601 C4.23133986,24.2751273 5.27027886,24.0815068 5.79488597,23.3223011 L6.51078703,22.3039662 C6.82802532,21.8471431 7.16852774,21.0540474 6.99404668,20.2429749 L6.76775004,18.8016556 C6.71651815,18.4726651 6.42330884,18.2367232 6.09097504,18.2570632 C5.69442718,18.2866721 5.49879691,18.6039104 5.56224457,18.9549874 L5.7102891,20.0251379 L4.65282815,19.2849152 L2.13501365,17.5136682 C1.98696911,17.4079221 1.59993841,17.3349573 1.39479099,17.6310463 C1.23086948,17.8796689 1.28207716,18.2120616 1.51322661,18.3998204 L3.58796498,19.8570016 L2.33698869,21.6367084 L1.86113126,22.6296642 Z" id="Shape" fill="#EFAA8E"></path>
                            <path d="M1.20550548,18.1883282 C0.960573479,18.0353563 0.63877921,18.1006207 0.472799131,18.3369313 C0.306819052,18.5732419 0.354604402,18.8980919 0.581603519,19.0765954 L3.56787323,21.1703681 C3.81280522,21.32334 4.13459949,21.2580757 4.30057957,21.0217651 C4.46655965,20.7854544 4.4187743,20.4606044 4.19177518,20.2821009 L1.20550548,18.1883282 Z" id="Shape" fill="#EFAA8E"></path>
                            <path d="M0.875577662,19.2817429 C0.63166028,19.1183262 0.301674084,19.181495 0.135355001,19.4234426 C-0.0371572862,19.6625317 0.0157522763,19.9960509 0.253790627,20.17001 L3.24111779,22.26907 C3.48604979,22.422042 3.80784406,22.3567776 3.97382414,22.120467 C4.13980422,21.8841564 4.09201887,21.5593063 3.86501975,21.3808028 L0.875577662,19.2817429 Z" id="Shape" fill="#EFAA8E"></path>
                            <path d="M3.37753026,20.1573205 C3.45929299,20.2157225 3.57291893,20.1967848 3.63132088,20.1150221 C3.68972284,20.0332593 3.67078518,19.9196334 3.58902244,19.8612315 L1.51745645,18.4061652 L3.37753026,20.1573205 Z" id="Shape" fill="#E5977C"></path>
                            <path d="M2.90167283,21.1492189 C2.98343557,21.2076208 3.0970615,21.1886832 3.15546346,21.1069204 C3.21386541,21.0251577 3.19492776,20.9115318 3.11316502,20.8531298 L0.857600826,19.2669384 C0.839107266,19.2554185 0.820049167,19.2448307 0.800497935,19.2352146 L2.90167283,21.1492189 Z" id="Shape" fill="#E5977C"></path>
                            <path d="M2.5125272,22.2013925 C2.56541842,22.239172 2.63444701,22.2458645 2.69361058,22.2189491 C2.75277414,22.1920336 2.79308432,22.1355994 2.79935667,22.0709045 C2.80562902,22.0062097 2.77691061,21.9430829 2.72401939,21.9053035 L0.856543365,20.5951093 C0.837509068,20.5834773 0.819532232,20.5729027 0.799440474,20.5633855 L2.5125272,22.2013925 Z" id="Shape" fill="#E5977C"></path>
                            <path d="M19.1453304,70.0292936 C18.5472869,70.3935087 17.9084042,70.685975 17.2419007,70.9006414 C16.7251917,71.0870996 16.1848219,71.1999436 15.636675,71.2358565 C14.7579249,71.2781549 13.4604204,71.1026164 13.3811108,70.6574254 C13.3314101,70.3793131 13.7882332,70.2122343 14.75581,69.4096214 C15.3748673,68.8939103 15.930409,68.3064204 16.4107364,67.6595236 C16.8789427,67.0009802 17.2325278,66.2680686 17.4565653,65.4917286 L17.6236441,64.939734 L20.4692715,65.2781215 C20.8574396,66.570107 20.9381929,67.9349474 20.7050853,69.2636918 L19.7121295,69.7353194" id="Shape" fill="#172B4D"></path>
                            <path d="M32.7580251,45.0975369 C32.7580251,45.0975369 35.5074236,45.8377595 40.9353706,44.1109258 C40.9364281,44.1098684 35.0981862,42.7584333 32.7580251,45.0975369 Z" id="Shape" fill="#000000"></path>
                            <rect id="Rectangle-path" fill="#EFAA8E" transform="translate(42.169310, 24.700611) rotate(150.000000) translate(-42.169310, -24.700611) " x="40.0903419" y="19.6528209" width="4.15793643" height="10.0955796" rx="2.07896822"></rect>
                            <rect id="Rectangle-path" fill="#EFAA8E" transform="translate(47.061924, 25.105652) rotate(56.520000) translate(-47.061924, -25.105652) " x="44.9829559" y="19.0585614" width="4.15793643" height="12.0941808" rx="2.07896822"></rect>
                            <path d="M40.7386829,43.3442666 C40.7386829,43.3442666 41.6406971,50.4556915 41.5000547,53.0633902 C41.5000547,53.0633902 38.3276719,54.9668199 36.9180765,52.1465715 C36.9180765,52.1465715 37.2035909,48.8155696 33.6198558,44.5571743 L33.3227093,42.4877233 L37.419313,43.1930497 L40.7386829,43.3442666 Z" id="Shape" fill="#EFAA8E"></path>
                            <path d="M36.9878689,30.9973527 C36.9878689,30.9973527 40.3717439,41.7126044 40.9353706,44.1098684 C40.9353706,44.1098684 36.0710503,42.629423 32.7580251,45.0964794 C32.7580251,45.0964794 30.8545954,40.1613092 28.387539,40.0206669 L28.387539,32.3096617 L36.9878689,30.9973527 Z" id="Shape" fill="url(#linearGradient-3)"></path>
                            <path d="M41.5148592,51.6537947 C41.5148592,51.6537947 42.3460235,51.9234473 42.1345313,53.691522 C41.9230391,55.4595967 41.7115469,61.1000933 40.0904593,61.9460621 C40.0904593,61.9460621 39.1038482,64.9069527 39.2444906,65.6122792 C39.3476108,66.0792 39.5137442,66.5299301 39.7383248,66.9520822 L36.4252997,67.8689008 C36.4252997,67.8689008 36.2846574,66.74059 36.4252997,66.3884555 C36.565942,66.036321 36.6367919,62.0877619 36.4252997,61.312643 C36.2138075,60.5375241 35.0854967,55.9544884 36.4252997,53.2759398 L36.9191339,52.147629 L41.5148592,51.6537947 Z" id="Shape" fill="url(#linearGradient-5)"></path>
                            <path d="M56.0105338,20.5866497 C56.2554658,20.4336777 56.5772601,20.4989421 56.7432402,20.7352527 C56.9092202,20.9715633 56.8614349,21.2964134 56.6344358,21.4749169 L53.9421402,23.3635421 C53.6972082,23.516514 53.3754139,23.4512497 53.2094339,23.2149391 C53.0434538,22.9786284 53.0912391,22.6537784 53.3182383,22.4752749 L56.0105338,20.5866497 Z" id="Shape" fill="#EFAA8E"></path>
                            <path d="M54.9932564,22.6296642 C54.1028743,23.2556811 53.3859158,23.7558601 53.3859158,23.7558601 C52.6230478,24.2751273 51.5841088,24.0815068 51.0595017,23.3223011 L50.3436006,22.3039662 C50.0263623,21.8471431 49.6858599,21.0540474 49.860341,20.2429749 L50.0866376,18.8037705 C50.1378695,18.47478 50.4310788,18.2388381 50.7634126,18.2591781 C51.1599605,18.288787 51.3555907,18.6060253 51.2921431,18.9571023 L51.1462135,20.0272528 L52.2036744,19.2870302 L54.7225464,17.5168405 C54.8705909,17.4110944 55.2576216,17.3381296 55.4627691,17.6342187 C55.6262083,17.8833592 55.5740728,18.2158378 55.3422185,18.4029928 L53.2674801,19.860174 L54.517399,21.6388233 L54.9932564,22.6296642 Z" id="Shape" fill="#EFAA8E"></path>
                            <path d="M55.6488822,18.1883282 C55.8938142,18.0353563 56.2156084,18.1006207 56.3815885,18.3369313 C56.5475686,18.5732419 56.4997833,18.8980919 56.2727841,19.0765954 L53.2865144,21.1703681 C53.0415824,21.32334 52.7197882,21.2580757 52.5538081,21.0217651 C52.387828,20.7854544 52.4356134,20.4606044 52.6626125,20.2821009 L55.6488822,18.1883282 Z" id="Shape" fill="#EFAA8E"></path>
                            <path d="M55.97881,19.2817429 C56.223742,19.1287709 56.5455363,19.1940353 56.7115163,19.4303459 C56.8774964,19.6666565 56.8297111,19.9915066 56.6027119,20.17001 L53.6132699,22.26907 C53.3683379,22.422042 53.0465436,22.3567776 52.8805635,22.120467 C52.7145834,21.8841564 52.7623688,21.5593063 52.9893679,21.3808028 L55.97881,19.2817429 Z" id="Shape" fill="#EFAA8E"></path>
                            <path d="M53.4768574,20.1573205 C53.4239662,20.1951 53.3549376,20.2017925 53.295774,20.1748771 C53.2366105,20.1479616 53.1963003,20.0915274 53.1900279,20.0268325 C53.1837556,19.9621377 53.212474,19.8990109 53.2653652,19.8612315 L55.3337588,18.4061652 L53.4768574,20.1573205 Z" id="Shape" fill="#E5977C"></path>
                            <path d="M53.9527148,21.1492189 C53.8998236,21.1869983 53.830795,21.1936908 53.7716314,21.1667754 C53.7124679,21.13986 53.6721577,21.0834257 53.6658853,21.0187309 C53.659613,20.954036 53.6883314,20.8909093 53.7412226,20.8531298 L55.9967868,19.2669384 C56.0152804,19.2554185 56.0343385,19.2448307 56.0538897,19.2352146 L53.9527148,21.1492189 Z" id="Shape" fill="#E5977C"></path>
                            <path d="M54.3429179,22.2013925 C54.2611552,22.2597945 54.1475292,22.2408568 54.0891273,22.1590941 C54.0307253,22.0773313 54.049663,21.9637054 54.1314257,21.9053035 L55.9957294,20.5951093 C56.0147637,20.5834773 56.0327405,20.5729027 56.0528323,20.5633855 L54.3429179,22.2013925 Z" id="Shape" fill="#E5977C"></path>
                            <path d="M37.7090573,70.0292936 C38.3071007,70.3935087 38.9459834,70.685975 39.612487,70.9006414 C40.1291959,71.0870996 40.6695657,71.1999436 41.2177127,71.2358565 C42.0964627,71.2781549 43.3939673,71.1026164 43.4732769,70.6574254 C43.5229775,70.3793131 43.0661544,70.2122343 42.0985776,69.4096214 C41.4795204,68.8939103 40.9239786,68.3064204 40.4436513,67.6595236 C39.975445,67.0009802 39.6218599,66.2680686 39.3978224,65.4917286 L39.231801,64.939734 L36.3861736,65.2781215 C35.9978393,66.5704398 35.9170847,67.9356621 36.1503598,69.2647493 L37.1433157,69.7363769" id="Shape" fill="#172B4D"></path>
                            <path d="M26.0716996,33.897968 C26.0716996,33.897968 28.2310348,34.4869738 30.9360199,33.8662442 C33.641005,33.2455146 26.0716996,33.897968 26.0716996,33.897968 Z" id="Shape" fill="#000000"></path>
                            <path d="M25.1220996,6.62710774 C25.0501923,6.15442269 24.6684489,5.8213225 24.2761309,5.88688508 C23.8838129,5.95244765 23.6141603,6.37966188 23.6860677,6.85128946 L23.7759519,7.44346758 C23.8478592,7.91509517 24.2296026,8.24925282 24.6219206,8.18369025 C25.0142386,8.11812767 25.2849486,7.69091345 25.2119838,7.2182284 L25.1220996,6.62710774 Z" id="Shape" fill="#E89680"></path>
                            <path d="M32.5835441,5.82555234 C32.1859388,5.76527707 31.8041954,6.09837726 31.7375753,6.565775 L31.6476911,7.15795313 C31.5757838,7.63063817 31.840149,8.06208224 32.2377543,8.12235751 C32.6353597,8.18263278 33.0171031,7.84953259 33.0837231,7.38213485 L33.1736073,6.78995672 C33.2455146,6.31832914 32.9822068,5.88688508 32.5835441,5.82555234 Z" id="Shape" fill="#E89680"></path>
                            <path d="M28.4086883,3.20516412 L24.2930503,4.38211815 C24.2930503,4.38211815 23.6046432,11.7843448 28.4086883,11.8382753 L28.4086883,3.20516412 Z" id="Shape" fill="#B87351"></path>
                            <path d="M28.4086883,11.8372178 L28.4086883,11.8382753 C23.6046432,11.7875171 24.2930503,4.38211815 24.2930503,4.38211815 L28.4086883,3.20516412 L28.4086883,2.86783408 L32.5401882,4.1642812 C32.5401882,4.1642812 33.2285952,11.7854022 28.4086883,11.8372178 Z" id="Combined-Shape" fill="#EFAA8E"></path>
                            <path d="M24.4558993,7.82521099 C24.4558993,7.82521099 24.436865,7.75224618 24.5891393,5.69654211 C24.8122636,2.68806572 26.9790011,4.74482726 28.5588477,4.76491901 C30.0995683,4.78395331 32.0918247,2.63625013 32.2800528,5.73566816 C32.4016608,7.71946489 32.464051,7.55661591 32.464051,7.55661591 C32.464051,7.55661591 35.4175394,0.261192853 28.4583889,0.105746094 C21.0625071,-0.0549879691 24.4558993,7.82521099 24.4558993,7.82521099 Z" id="Shape" fill="#201F25"></path>
                            <path d="M28.4271943,15.127193 C29.0303011,14.9194247 32.1136446,13.6647749 31.6180822,9.86928299 C31.6180822,9.86928299 38.8965859,11.7378165 41.5148592,17.87109 L43.524035,22.1400598 L39.6177743,24.7181496 L37.419313,20.8848536 C37.419313,20.8848536 36.3914609,25.2257308 36.3914609,26.3836506 C36.3914609,26.3836506 37.1179366,29.9620984 36.9889264,30.9952377 C36.9889264,30.9952377 31.7572853,34.6976139 28.4248097,33.9562463 C25.0921144,34.6930266 19.8654613,30.9941803 19.8654613,30.9941803 C19.7364511,29.9610409 20.4629267,26.3825931 20.4629267,26.3825931 C20.4629267,25.2246734 19.4350747,20.8837962 19.4350747,20.8837962 L17.2366134,24.7170921 L13.3303527,22.1400598 L15.3395285,17.87109 C17.9578018,11.7378165 25.2373629,9.86928299 25.2373629,9.86928299 C24.7408457,13.6647749 27.8240965,14.9194247 28.4271943,15.127193 Z" id="Combined-Shape" fill="url(#linearGradient-6)"></path>
                            <polygon id="Shape" fill="url(#linearGradient-7)" points="24.9719402 19.5535103 23.9440882 19.7977838 23.6268499 18.4907621 25.4139589 17.9852957 26.6427285 17.9852957 26.6427285 24.1291438 24.9719402 24.1291438"></polygon>
                            <path d="M27.5859836,21.0963458 L27.5859836,21.0794265 C27.5859836,19.3536502 28.6836281,17.9070436 30.4189215,17.9070436 C32.1542149,17.9070436 33.2338825,19.3367308 33.2338825,21.0625071 L33.2338825,21.0794265 C33.2338825,22.8052027 32.1446978,24.2518093 30.4009447,24.2518093 C28.6571916,24.2518093 27.5859836,22.8221221 27.5859836,21.0963458 Z M31.5334854,21.0963458 L31.5334854,21.0794265 C31.5334854,20.10339 31.0798346,19.3970061 30.4009447,19.3970061 C29.7220548,19.3970061 29.2853234,20.0854132 29.2853234,21.0614496 L29.2853234,21.078369 C29.2853234,22.0544054 29.7389741,22.7512722 30.4178641,22.7512722 C31.096754,22.7512722 31.5345428,22.0639226 31.5345428,21.0963458 L31.5334854,21.0963458 Z" id="Shape" fill="url(#linearGradient-8)"></path>
                        </g>
                    </g>
                </g>
            </g>
        </g>
    </g>
</svg>