<svg xmlns="http://www.w3.org/2000/svg" width="377" height="248" viewBox="0 0 377 248">
  <g fill="none" transform="translate(-1 -1)">
    <path fill="#D86C30" d="M242.142513,99.6399465 C242.142513,99.6399465 231.490107,111.291016 229.492781,113.794332 C227.495455,116.297647 225.325027,127.828877 225.325027,127.828877 L230.158556,133.993957 C230.158556,133.993957 237.322299,131.503957 238.147861,130.172406 C238.973422,128.840856 250.797594,117.695775 251.303583,115.525348 C251.563975,112.926453 251.563975,110.308039 251.303583,107.709144 L242.142513,99.6399465 Z"/>
    <path fill="#DD7947" d="M204.353102,135.924706 C204.353102,135.924706 223.327701,162.555722 225.657914,164.553048 C227.988128,166.550374 236.310321,175.538342 236.310321,175.538342 C236.310321,175.538342 252.954706,202.169358 255.617807,205.831123 C258.280909,209.492888 261.942674,220.478182 271.263529,221.476845 C280.584385,222.475508 271.929305,199.839144 271.263529,198.507594 C270.597754,197.176043 264.272888,186.523636 264.272888,186.523636 L239.95877,150.571765 L230.824332,128.601176 L226.363636,121.610535 L204.353102,135.924706 Z"/>
    <path fill="#974C02" d="M240.797647 133.368128C248.334225 149.732888 246.723048 152.382674 244.099893 170.212139 244.361568 170.635478 244.426767 171.151502 244.278611 171.626623 244.130455 172.101744 243.78351 172.489249 243.327594 172.688824 241.79631 173.554332 240.584599 178.294652 239.026684 179.066952 238.480749 179.333262 236.683155 176.110909 236.363583 175.525027 239.346257 164.353316 242.342246 152.116364 239.466096 143.008556 238.65385 135.179037 240.131872 141.39738 240.797647 133.368128zM225.325027 120.784973C225.325027 120.784973 233.633904 130.27893 234.219786 138.601123 234.233102 138.587807 226.496791 125.778289 225.325027 120.784973z"/>
    <path fill="#984B01" d="M223.700535,127.442727 C221.197219,136.590481 212.741872,138.388075 205.444973,138.414706 C211.423636,135.751604 217.655294,129.879465 223.700535,127.442727 Z"/>
    <path fill="#E5844E" d="M76.9769519,68.2819251 C76.9769519,68.2819251 71.1980214,88.6546524 69.2406417,89.9862032 C67.283262,91.317754 34.2474866,128.934064 32.2501604,130.265615 C30.2528342,131.597166 1.62449198,152.236203 1.62449198,152.236203 C1.62449198,152.236203 0.292941176,154.899305 3.28893048,153.900642 C6.28491979,152.901979 18.9346524,144.246898 24.926631,148.907326 L23.5950802,158.893957 C23.5950802,158.893957 23.9279679,161.557059 27.5897326,154.899305 C31.2514973,148.241551 37.9092513,134.593155 45.8985561,131.930053 C53.887861,129.266952 66.5775401,117.482727 71.5309091,115.219091 C76.4842781,112.955455 79.8531016,112.622567 80.8517647,109.626578 C81.8504278,106.630588 98.8277005,85.3257754 98.8277005,83.6613369 C98.8277005,81.9968984 85.9649198,75.8983957 76.9769519,68.2819251 Z"/>
    <path fill="#DD7947" d="M121.171123,108.960802 C121.171123,108.960802 96.5374332,129.266952 94.8729947,137.922032 C94.4972936,146.275834 96.0938487,154.600729 99.5334225,162.222834 C99.5334225,162.222834 113.847594,194.845829 112.84893,206.164011 C112.84893,206.164011 116.510695,209.665989 90.8783422,225.471497 C89.6533155,226.217166 90.5454545,230.797701 94.2072193,230.131925 C94.2072193,230.131925 109.520053,222.14262 113.181818,223.141283 C116.908145,223.87678 120.702456,224.211572 124.5,224.139947 C125.831551,224.139947 135.485294,221.476845 130.824866,214.819091 C130.824866,214.819091 125.831551,199.173369 126.164439,193.514278 C126.497326,187.855187 130.824866,177.535668 125.165775,159.426578 C125.165775,159.426578 125.498663,146.91 127.163102,146.244225 C128.82754,145.578449 146.803476,139.586471 146.803476,139.586471 L121.171123,108.960802 Z"/>
    <path fill="#0F6698" d="M76.5242246,69.3471658 C76.5242246,69.3471658 89.7598396,42.9025668 104.406898,46.6042781 C119.053957,50.3059893 121.717059,39.1076471 121.717059,39.1076471 C121.717059,39.1076471 149.13369,29.067754 162.449198,39.3872727 C162.449198,39.3872727 185.418449,53.7014439 190.411765,64.686738 C190.411765,64.686738 215.378342,86.9902139 218.041444,90.6519786 C220.704545,94.3137433 234.352941,111.623904 230.025401,120.944759 L221.037433,130.265615 C221.037433,130.265615 214.512834,146.470588 210.518182,145.418663 C206.523529,144.366738 191.383797,138.268235 188.720695,136.270909 C186.057594,134.273583 171.077647,123.621176 171.077647,123.621176 C171.077647,123.621176 153.767487,141.93 145.778182,140.265561 L119.466738,109.29369 C119.466738,109.29369 129.453369,95.9781818 134.779572,94.646631 C134.779572,94.646631 115.472086,75.3391444 113.141872,74.0075936 C110.811658,72.6760428 105.485455,73.3418182 104.486791,75.0062567 C103.488128,76.6706952 99.1605882,84.9928877 99.1605882,84.9928877 L76.5242246,69.3471658 Z"/>
    <path fill="#DF7936" d="M289.132941 117.615882L266.057166 128.268289C266.057166 128.268289 243.167807 127.828877 239.95877 146.017861 239.95877 146.017861 238.973422 205.498235 234.539358 210.824439 234.539358 210.824439 230.544706 224.579358 220.784439 228.134599 220.784439 228.134599 197.215989 234.792353 196.350481 237.455455 195.484973 240.118556 197.255936 243.673797 200.811176 245.005348 204.366417 246.336898 219.013476 242.781658 222.115989 242.781658 225.218503 242.781658 236.949465 248.547273 239.95877 248.547273 242.968075 248.547273 255.844171 247.215722 249.186417 236.563316 249.186417 236.563316 246.962727 223.687219 247.854866 219.692567 248.747005 215.697914 264.272888 189.959037 264.725615 183.07492L266.496578 159.413262C266.496578 159.413262 273.593743 159.493155 279.372674 159.413262 285.151604 159.333369 302.887861 151.796791 302.887861 151.796791L289.132941 117.615882zM304.445775 149.573102L308.214064 181.090909 308.214064 197.50893C308.214064 197.50893 283.633636 197.708663 286.589679 200.917701 288.653583 203.168021 298.307326 205.911016 298.307326 205.911016 301.952777 206.802172 305.472992 208.144059 308.786631 209.905668 313.447059 212.56877 321.942353 216.057433 324.578824 213.008182 326.589465 210.691283 322.381765 200.917701 322.381765 200.917701L331.209947 140.997914 304.445775 149.573102z"/>
    <path fill="#9B4F09" d="M304.512353,150.119037 C308.507005,149.985882 311.170107,150.119037 316.669412,150.119037 C311.915775,153.061765 308.440428,154.885989 304.951765,153.820749 C304.925134,152.089733 304.552299,151.796791 304.512353,150.119037 Z"/>
    <path fill="#E5844E" d="M212.342406,76.6706952 C212.342406,76.6706952 215.391658,91.6106952 228.321016,94.646631 C228.321016,94.646631 237.016043,98.6412834 244.299626,96.6439572 C244.299626,96.6439572 256.283583,80.2392513 252.621818,76.6706952 C248.960053,73.102139 239.95877,64.4870053 239.95877,64.4870053 C239.95877,64.4870053 235.564652,56.3645455 228.28107,60.3591979 C220.997487,64.3538503 212.342406,76.6706952 212.342406,76.6706952 Z"/>
    <path fill="#C1272D" d="M270.930642,105.631925 L270.930642,112.289679 C270.930642,112.289679 253.287594,109.626578 250.624492,108.960802 C247.96139,108.295027 240.384866,100.465508 240.384866,100.465508 C247.835731,90.3347021 251.075852,77.7130225 249.426096,65.2459893 C249.426096,65.2459893 277.109037,59.4803743 332.581444,79.8930481 C332.581444,79.8930481 372.274973,97.3763102 376.52262,117.615882 C378.133797,125.245668 376.975348,141.144385 360.996738,144.68631 L302.887861,151.796791 L289.132941,117.615882 L291.902567,111.956791 L270.930642,105.631925 Z"/>
    <path fill="#000700" d="M222.994813,67.6827273 C222.994813,67.6827273 217.66861,77.6693583 216.669947,79.3337968 C216.084064,80.3191444 215.524813,82.116738 214.379679,82.4229947 C213.580749,82.6360428 212.30246,81.6906417 211.343743,80.9982353 C209.013529,79.3337968 203.354439,73.6747059 211.343743,63.3551872 C211.343743,63.3551872 218.001497,50.3725668 237.641872,55.6987701 C237.641872,55.6987701 244.632513,58.028984 246.296952,61.0249733 C247.48409,63.2907055 248.503247,65.6405534 249.346203,68.0555615 L248.720374,75.0195722 C246.511732,75.1352617 244.340116,74.4177257 242.635187,73.0089305 C239.972086,70.6787166 237.641872,66.6840642 235.644545,66.3511765 C233.647219,66.0182888 224.685882,64.5269519 222.994813,67.6827273 Z"/>
    <path fill="#D86C30" d="M250.624492,108.960802 L249.505989,126.270963 C249.505989,126.270963 230.864278,136.697005 230.864278,136.697005 C230.864278,136.697005 211.050802,143.581123 209.945615,143.581123 C208.840428,143.581123 201.530214,142.249572 200.398396,140.918021 C199.73262,140.185668 197.562193,140.47861 197.562193,140.47861 C197.562193,140.47861 196.230642,155.498503 206.177326,156.164278 C206.177326,156.164278 225.378289,154.340053 236.363583,150.678289 L261.223636,146.190963 L267.655027,140.864759 L270.930642,110.518717 L250.624492,108.960802 Z"/>
    <ellipse cx="246.63" cy="70.612" fill="#E5844E" rx="3.662" ry="5.593"/>
    <ellipse cx="110.997" cy="38.117" fill="#DD7947" transform="rotate(-34.49 110.997 38.117)" rx="10.546" ry="13.209"/>
    <ellipse cx="109.147" cy="25.792" fill="#E5844E" rx="16.032" ry="21.358"/>
    <path fill="#984B01" d="M114.966096,142.289519 C107.882246,144.95262 101.544064,143.328128 95.7251872,138.920695 C102.076684,140.412032 108.654545,140.558503 114.966096,142.289519 Z"/>
    <path fill="#9D5005" d="M266.989251,159.786096 C260.331497,161.703529 254.712353,159.47984 249.679091,155.138984 C255.657754,155.68492 260.983957,159.067059 266.989251,159.786096 Z"/>
    <path fill="#06557C" d="M124.393476 59.2406952C137.708984 63.7546524 151.370695 66.364492 165.498449 65.5655615 150.598396 71.5841711 136.856791 69.773262 124.393476 59.2406952zM131.610481 86.0581283L131.943369 84.7265775C139.932674 82.17 148.348075 80.572139 155.818075 76.3111765 149.706257 84.6999465 141.330802 87.1100535 131.610481 86.0581283z"/>
    <path fill="#B21924" d="M342.528128 93.2085561C330.038182 86.6972727 316.975668 82.0102139 302.887861 80.6254011 318.533583 77.0035829 331.835775 80.9050267 342.528128 93.2085561zM292.728128 112.928824L293.061016 111.597273C301.050321 109.040695 309.465722 107.442834 316.935722 103.181872 310.823904 111.570642 302.448449 113.994064 292.728128 112.928824z"/>
    <path fill="#161719" d="M129.266952,21.4113369 C124.300267,2.22044605e-16 106.177861,3.6484492 106.177861,3.6484492 C106.177861,3.6484492 104.327005,3.02262032 107.349626,1.57122995 C101.850321,0.173101604 98.4282353,5.17973262 98.4282353,5.17973262 C98.4282353,5.17973262 97.2032086,5.21967914 97.2032086,3.10251337 C95.8716578,3.28893048 97.2032086,6.9773262 97.2032086,6.9773262 C97.2032086,6.9773262 93.3283957,7.07053476 92.4229412,6.44470588 C91.8770053,7.88278075 95.4988235,7.60315508 96.5241176,7.98930481 C78.3883957,9.25427807 93.861016,34.047754 93.861016,32.0770588 C91.1979144,20.4393048 97.6426203,16.2049733 97.6426203,16.2049733 C97.6426203,16.2049733 103.195187,21.7309091 107.615936,21.3048128 C102.928877,19.4939037 103.834332,18.6417112 103.834332,18.6417112 C108.912573,18.8871996 113.976946,17.9290749 118.614545,15.8454545 C121.690428,15.9786096 124.207059,22.5964171 124.926096,30.8254011 C128.334866,28.3620321 127.456043,21.5045455 127.456043,21.5045455 C127.456043,21.5045455 129.892781,23.4885561 129.253636,21.5045455 L129.266952,21.4113369 Z"/>
    <path fill="#E5844E" d="M159.972513,86.9236364 C159.972513,86.9236364 173.727433,106.603957 190.598182,115.219091 C190.598182,115.219091 210.132032,139.812834 211.902995,143.807487 C213.673957,147.802139 217.66861,155.511818 219.00016,159.426578 C220.331711,163.341337 221.663262,156.896631 221.663262,156.896631 C221.663262,156.896631 227.428877,167.708824 228.760428,171.064332 C230.091979,174.41984 235.551337,163.328021 230.824332,149.573102 L221.037433,130.265615 C221.037433,130.265615 214.606043,116.364225 212.382353,115.219091 C210.158663,114.073957 204.83246,94.1006952 201.729947,91.8770053 C198.627433,89.6533155 181.756684,71.0116043 181.756684,71.0116043 L159.972513,86.9236364 Z"/>
  </g>
</svg>
