<?xml version="1.0" encoding="UTF-8" standalone="no"?>
<svg width="280px" height="249px" viewBox="0 0 280 249" version="1.1" xmlns="http://www.w3.org/2000/svg" xmlns:xlink="http://www.w3.org/1999/xlink">
    <!-- Generator: Sketch 45.2 (43514) - http://www.bohemiancoding.com/sketch -->
    <title>Group 2</title>
    <desc>Created with Sketch.</desc>
    <defs></defs>
    <g id="Page-1" stroke="none" stroke-width="1" fill="none" fill-rule="evenodd">
        <g id="Kabaddi" transform="translate(-300.000000, -1091.000000)" fill-rule="nonzero">
            <g id="Group-2" transform="translate(300.000000, 1091.000000)">
                <polygon id="Shape" stroke="#FFDB53" fill="#FFE997" points="140.401274 45.4299363 85.0350318 0.987261146 1.5955414 54.7929936 57.7420382 98.455414"></polygon>
                <polygon id="Shape" stroke="#FFDB53" fill="#FFE997" points="225.181529 98.455414 278.207006 54.0127389 192.426752 0.987261146 139.401274 45.4299363"></polygon>
                <polygon id="Shape" fill="#FFDB52" points="140.799363 150.923567 225.783439 99.156051 225.783439 197.261146 140.799363 249.028662"></polygon>
                <polygon id="Shape" fill="#EDC220" points="139.401274 45.4299363 139.401274 150.700637 225.181529 98.455414"></polygon>
                <polygon id="Shape" fill="#FFDB52" points="140.401274 45.4299363 57.7420382 98.455414 140.401274 150.700637"></polygon>
                <g id="Browser" transform="translate(65.000000, 85.000000)">
                    <path d="M0,1 L68.1818182,1 L68.1818182,59.3640275 C68.1818182,60.26755 67.4508327,61 66.546972,61 L1.63484645,61 C0.731945684,61 0,60.2630249 0,59.3640275 L0,1 Z" id="Shape" fill="#F8F4EE"></path>
                    <path d="M0,1.63637408 C0,0.732629629 0.730985695,0 1.63484645,0 L66.546972,0 C67.4498727,0 68.1818182,0.734901038 68.1818182,1.63637408 L68.1818182,16.3636364 L0,16.3636364 L0,1.63637408 Z" id="Shape" fill="#EE7777"></path>
                    <rect id="Rectangle-path" fill="#D8D8D8" x="6" y="25.5454545" width="10.9090909" height="2.72727273" rx="1"></rect>
                    <rect id="Rectangle-path" fill="#D8D8D8" x="6" y="33.7272727" width="27.2727273" height="2.72727273" rx="1"></rect>
                    <rect id="Rectangle-path" fill="#D8D8D8" x="6" y="39.1818182" width="38.1818182" height="2.72727273" rx="1"></rect>
                    <rect id="Rectangle-path" fill="#D8D8D8" x="19.6363636" y="25.5454545" width="10.9090909" height="2.72727273" rx="1"></rect>
                    <rect id="Rectangle-path" fill="#D8D8D8" x="33.2727273" y="25.5454545" width="10.9090909" height="2.72727273" rx="1"></rect>
                    <g id="Group" transform="translate(5.454545, 5.454545)" fill="#E55858">
                        <circle id="Oval" cx="2.72727273" cy="2.72727273" r="2.72727273"></circle>
                        <circle id="Oval" cx="10.9090909" cy="2.72727273" r="2.72727273"></circle>
                        <circle id="Oval" cx="19.0909091" cy="2.72727273" r="2.72727273"></circle>
                    </g>
                </g>
                <polygon id="Shape" fill="#FAD239" points="59.1401274 99.1719745 141.003185 150.923567 141.003185 249.028662 59.1401274 198.821656"></polygon>
                <g id="whistle" transform="translate(126.637103, 52.279960) rotate(-45.000000) translate(-126.637103, -52.279960) translate(95.779960, 31.279960)">
                    <path d="M43.3948562,0.0478372691 L7.4814122,0.0478372691 C7.08468553,0.0478372691 6.70437222,0.205658172 6.42380173,0.486228665 L0.438812252,6.47009586 C-0.0663549217,6.97428104 -0.144213234,7.76563011 0.251391162,8.35959785 L6.23638064,17.3375731 C6.51470657,17.75408 6.98157587,18.003928 7.4814122,18.003928 L25.4375029,18.003928 C25.4375029,27.9048398 33.4926818,35.960159 43.3947159,35.960159 C53.2954875,35.960159 61.3506664,27.9048398 61.3506664,18.003928 C61.3508066,8.10315642 53.2956278,0.0478372691 43.3948562,0.0478372691 Z" id="Shape" fill="#51A8DD"></path>
                    <path d="M43.3948562,0.0478372691 L33.7963993,0.0478372691 L27.3730185,6.47009586 C26.7888707,7.05536591 26.7888707,8.00229133 27.3730185,8.58756137 C27.6645312,8.87907412 28.0480711,9.02595277 28.4306289,9.02595277 C28.7790975,9.02595277 35.0787468,8.90320318 36.4343231,8.66205284 C36.7137713,8.90320318 37.0612579,9.02595277 37.4086042,9.02595277 C37.792144,9.02595277 38.1735796,8.87907412 38.4673369,8.58756137 L46.7002572,0.352536825 C45.6283376,0.153051204 44.5237316,0.0478372691 43.3948562,0.0478372691 Z" id="Shape" fill="#434A54"></path>
                    <path d="M37.4086042,6.03170447 L1.49642273,6.03170447 C0.670002338,6.03170447 0.00042085574,6.70240823 0.00042085574,7.52882862 L0.00042085574,22.4929156 C0.00042085574,23.3191957 0.670002338,23.9877952 1.49642273,23.9877952 L19.4525134,23.9877952 C19.4525134,33.888707 27.5076923,41.9438859 37.4086042,41.9438859 C47.309516,41.9438859 55.3648352,33.888707 55.3648352,23.9877952 C55.3648352,14.0871639 47.309516,6.03170447 37.4086042,6.03170447 Z" id="Shape" fill="#3A93C4"></path>
                    <path d="M37.4086042,16.5069441 C33.2835165,16.5069441 29.9266308,19.8627075 29.9266308,23.9879355 C29.9266308,28.1131634 33.2835165,31.4711714 37.4086042,31.4711714 C41.5338321,31.4711714 44.8897358,28.1131634 44.8897358,23.9879355 C44.8897358,19.8627075 41.5338321,16.5069441 37.4086042,16.5069441 Z" id="Shape" fill="#434A54"></path>
                </g>
                <g id="timer" transform="translate(143.000000, 67.000000)">
                    <g id="Group" transform="translate(64.375000, 19.875000)" fill="#FFB383">
                        <path d="M6.48328125,2.79171875 L2.48328125,6.79171875 C1.95,5.99171875 1.28328125,5.19171875 0.6165625,4.525 L4.34984375,0.79171875" id="Shape"></path>
                    </g>
                    <path d="M66.8582812,45.3332812 C66.8582812,26.9332813 51.925,12 33.525,12 C22.1917187,12 4.19171875,26.9332813 4.19171875,45.3332812 C4.19171875,63.7332812 22.1917187,78.6665625 33.525,78.6665625 C51.925,78.6667188 66.8582812,63.7332812 66.8582812,45.3332812" id="Shape" fill="#F4A674"></path>
                    <g id="Group" transform="translate(9.375000, 1.250000)" fill="#FFB383">
                        <path d="M28.15,72.0832813 C12.6832813,72.0832813 0.15,59.55 0.15,44.0832813 C0.15,28.6165625 12.6832813,16.0832813 28.15,16.0832813 C43.6167188,16.0832813 56.15,28.6165625 56.15,44.0832813 C56.15,59.55 43.6167188,72.0832813 28.15,72.0832813" id="Shape"></path>
                        <path d="M32.0167188,5.41671875 L20.15,5.41671875 C19.4832813,5.41671875 18.8167188,4.75 18.8167188,3.95 L18.8167188,1.55 C18.8167188,0.75 19.4834375,0.08328125 20.15,0.08328125 L32.0167188,0.08328125 C32.8167188,0.08328125 33.4834375,0.75 33.4834375,1.55 L33.4834375,4.08328125 C33.4832813,4.75 32.8167188,5.41671875 32.0167188,5.41671875" id="Shape"></path>
                    </g>
                    <path d="M45.3917188,1.33328125 L41.3917188,1.33328125 C42.1917188,1.33328125 42.8584375,2 42.8584375,2.8 L42.8584375,5.33328125 C42.8584375,6 42.1917188,6.6665625 41.3917188,6.6665625 L45.3917188,6.6665625 C46.1917188,6.6665625 46.8584375,5.99984375 46.8584375,5.19984375 L46.8584375,2.8 C46.8582813,2 46.1917188,1.33328125 45.3917188,1.33328125" id="Shape" fill="#FFB383"></path>
                    <path d="M37.525,12 C38.8582813,12 37.525,12.1332812 38.8582813,12.2667187 L38.8582813,6.66671875 L33.525,6.66671875 L33.525,12.2667187 C34.8582813,12.1332813 36.1917188,12 37.525,12" id="Shape" fill="#FFB383"></path>
                    <path d="M38.8582812,6.66671875 L38.8582812,12 C39.7915625,12 40.5915625,12.1332812 41.525,12.2667187 L41.525,6.66671875 L38.8582812,6.66671875 L38.8582812,6.66671875 Z" id="Shape" fill="#FFB383"></path>
                    <path d="M8.725,19.4667187 L12.1917188,16 C13.2584375,14.9332813 13.2584375,13.0667187 12.1917188,12 C11.125,10.9332813 9.2584375,10.9332813 8.19171875,12 L4.725,15.4667187 C3.65828125,16.5334375 3.65828125,18.4 4.725,19.4667187 C5.79171875,20.5334375 7.525,20.5332813 8.725,19.4667187" id="Shape" fill="#FFB383"></path>
                    <path d="M4.85828125,19.3332812 C3.7915625,18.2665625 3.7915625,16.4 4.85828125,15.3332813 L2.325,17.8667187 C1.25828125,18.9334375 1.25828125,20.8 2.325,21.8667188 C3.39171875,22.9334375 5.25828125,22.9334375 6.325,21.8667188 L8.85828125,19.3334375 C7.79171875,20.4 5.925,20.4 4.85828125,19.3332812" id="Shape" fill="#FFB383"></path>
                    <path d="M15.925,20 L12.1917188,16.1332812 L8.99171875,19.3332813 L12.9917188,23.3332813 C14.325,21.6 14.325,21.4667188 15.925,20" id="Shape" fill="#FFB383"></path>
                    <path d="M6.85828125,21.3332812 L10.8582813,25.3332812 C11.3915625,24.5332812 12.0582813,23.7332812 12.725,23.0665625 L8.99171875,19.3332812" id="Shape" fill="#FFB383"></path>
                    <path d="M66.325,19.4667187 L62.8582813,16 C61.7915625,14.9332813 61.7915625,13.0667187 62.8582813,12 C63.925,10.9332813 65.7915625,10.9332813 66.8582813,12 L70.325,15.4667188 C71.3917188,16.5334375 71.3917188,18.4 70.325,19.4667188 C69.2582812,20.5332813 67.3917188,20.5332813 66.325,19.4667187" id="Shape" fill="#FFB383"></path>
                    <path d="M70.1917187,19.3332812 C71.2584375,18.2665625 71.2584375,16.4 70.1917187,15.3332813 L72.725,17.8665625 C73.7917188,18.9332813 73.7917188,20.7998438 72.725,21.8665625 C71.6582813,22.9332813 69.7917188,22.9332813 68.725,21.8665625 L66.1917187,19.3332812 C67.2582812,20.4 69.125,20.4 70.1917187,19.3332812" id="Shape" fill="#FFB383"></path>
                    <path d="M58.9917188,20 L62.8584375,16.1332812 L66.0584375,19.3332813 L62.0584375,23.3332813 C60.5917188,21.6 60.725,21.4667188 58.9917188,20" id="Shape" fill="#FFB383"></path>
                    <g id="Group" transform="translate(35.468750, 11.875000)" fill="#FFB383">
                        <path d="M32.7229688,9.45828125 L28.7229688,13.4582812 C28.1896875,12.6582812 27.5229688,11.8582812 26.85625,11.1915625 L30.5895313,7.45828125" id="Shape"></path>
                        <path d="M0.05625,0.125 C17.5229688,1.19171875 31.3895312,15.725 31.3895312,33.4582812 C31.3895312,51.1915625 17.5229688,65.725 0.05625,66.7917187 C0.72296875,66.7917187 1.38953125,66.7917187 2.05625,66.7917187 C20.45625,66.7917187 35.3895313,51.8584375 35.3895313,33.4584375 C35.3895313,15.0584375 20.45625,0.125 2.05625,0.125 C1.38953125,0.125 0.72296875,0.125 0.05625,0.125 Z" id="Shape"></path>
                        <path d="M2.05625,5.45828125 C1.38953125,5.45828125 0.72296875,5.45828125 0.05625,5.5915625 C14.5895312,6.65828125 26.05625,18.6582813 26.05625,33.4582813 C26.05625,48.2582813 14.5895312,60.2582813 0.05625,61.325 C0.72296875,61.325 1.38953125,61.4582813 2.05625,61.4582813 C17.5229687,61.4582813 30.05625,48.925 30.05625,33.4582813 C30.05625,17.9915625 17.5229687,5.45828125 2.05625,5.45828125" id="Shape"></path>
                    </g>
                    <path d="M41.525,45.3332812 C41.525,43.0665625 39.7917188,41.3332812 37.525,41.3332812 C35.2582813,41.3332812 33.525,43.0665625 33.525,45.3332812 C33.525,47.4665625 35.2582813,49.3332812 37.525,49.3332812 C39.7917188,49.3332812 41.525,47.4667187 41.525,45.3332812" id="Shape" fill="#FFB383"></path>
                    <path d="M37.525,80 C28.725,80 20.325,76.6667188 13.925,70.8 C13.3917188,70.2667188 13.3917188,69.4667187 13.7917188,68.9332813 C14.325,68.4 15.125,68.4 15.6584375,68.8 C21.6584375,74.2667188 29.3917188,77.3332812 37.5251562,77.3332812 C55.1251563,77.3332812 69.5251563,62.9332813 69.5251563,45.3332812 C69.5251563,27.7332812 55.1251563,13.3332812 37.5251562,13.3332812 C19.9251562,13.3332812 5.52515625,27.7332812 5.52515625,45.3332812 C5.52515625,51.2 7.12515625,56.9332812 10.191875,62 C10.591875,62.6667187 10.3251562,63.4667187 9.791875,63.8667187 C9.12515625,64.2667187 8.32515625,64 7.92515625,63.4667187 C4.59171875,58 2.85828125,51.7332812 2.85828125,45.3332812 C2.85828125,26.2665625 18.4582813,10.6665625 37.525,10.6665625 C56.5917187,10.6665625 72.1917188,26.2665625 72.1917188,45.3332812 C72.1917188,64.4 56.5917187,80 37.525,80 Z" id="Shape" fill="#000000"></path>
                    <path d="M12.9917187,66.2667188 C12.9917187,65.4667188 12.4584375,64.9334375 11.6584375,64.9334375 C10.8584375,64.9334375 10.3251562,65.4667188 10.3251562,66.2667188 C10.3251562,67.0667188 10.8584375,67.6 11.6584375,67.6 C12.4584375,67.6 12.9917187,66.9332813 12.9917187,66.2667188" id="Shape" fill="#000000"></path>
                    <path d="M37.525,74.6667187 C21.3917187,74.6667187 8.19171875,61.4667187 8.19171875,45.3334375 C8.19171875,29.2001563 21.3917188,16 37.525,16 C53.6582812,16 66.8582812,29.2 66.8582812,45.3332813 C66.8582812,61.4665625 53.6582812,74.6667187 37.525,74.6667187 Z M37.525,18.6667188 C22.8582813,18.6667188 10.8582812,30.6667188 10.8582812,45.3334375 C10.8582812,60.0001563 22.8582813,72 37.525,72 C52.1917188,72 64.1917187,60 64.1917187,45.3332813 C64.1917187,30.6665625 52.1917188,18.6667188 37.525,18.6667188 Z" id="Shape" fill="#000000"></path>
                    <path d="M45.3917187,8 L29.525,8 C28.0582813,8 26.8582813,6.8 26.8582813,5.2 L26.8582813,2.8 C26.8582813,1.2 28.0582813,0 29.525,0 L45.3917187,0 C46.9917188,0 48.1917187,1.2 48.1917187,2.8 L48.1917187,5.33328125 C48.1917187,6.8 46.9917188,8 45.3917187,8 Z M29.525,2.66671875 L29.525,5.2 L45.3917187,5.33328125 C45.525,5.33328125 45.525,5.33328125 45.525,5.2 L45.525,2.8 L29.525,2.66671875 Z" id="Shape" fill="#000000"></path>
                    <path d="M70.8582813,24.1332813 C69.7915625,24.1332813 68.725,23.7332813 67.925,22.9332813 L62.5917188,17.6 C60.9917188,16 60.9917188,13.3332813 62.5917188,11.7332813 C64.1917188,10.1332813 66.8584375,10.1332813 68.4584375,11.7332813 L73.7917188,17.0665625 C75.3917188,18.6665625 75.3917188,21.3332813 73.7917188,22.9332813 C72.9917188,23.7332813 71.925,24.1332813 70.8582813,24.1332813 Z M65.525,13.2 C65.125,13.2 64.725,13.3332813 64.4582813,13.6 C63.925,14.1332813 63.925,15.0667188 64.4582813,15.7332813 L69.7915625,21.0665625 C70.3248438,21.5998438 71.2582813,21.5998438 71.9248438,21.0665625 C72.5914063,20.5332813 72.458125,19.5998438 71.9248438,18.9332813 L66.5917188,13.6 C66.325,13.3332813 65.925,13.2 65.525,13.2 Z" id="Shape" fill="#000000"></path>
                    <path d="M4.19171875,24.1332813 C3.125,24.1332813 2.0584375,23.7332813 1.2584375,22.9332813 C-0.3415625,21.3332813 -0.3415625,18.6665625 1.2584375,17.0665625 L6.59171875,11.7332813 C8.19171875,10.1332813 10.8584375,10.1332813 12.4584375,11.7332813 C14.0584375,13.3332813 14.0584375,16 12.4584375,17.6 L7.125,22.9332813 C6.325,23.7332813 5.25828125,24.1332813 4.19171875,24.1332813 Z M9.525,13.2 C9.125,13.2 8.725,13.3332813 8.45828125,13.6 L3.125,18.9332813 C2.59171875,19.4665625 2.59171875,20.4 3.125,21.0665625 C3.65828125,21.5998438 4.725,21.5998438 5.25828125,21.0665625 L5.25828125,21.0665625 L10.5915625,15.7332813 C11.1248438,15.2 11.1248438,14.2665625 10.5915625,13.6 C10.325,13.3332813 9.925,13.2 9.525,13.2 Z" id="Shape" fill="#000000"></path>
                    <path d="M10.8582813,26.6667187 C10.4582813,26.6667187 10.1915625,26.5334375 9.925,26.2667187 L5.925,22.2667187 C5.39171875,21.7334375 5.39171875,20.9334375 5.925,20.4 L10.5917188,15.7332812 C11.125,15.2 11.925,15.2 12.4584375,15.7332812 L16.3251563,19.6 C16.591875,19.8667187 16.7251563,20.2667187 16.7251563,20.5332812 C16.7251563,20.7998438 16.591875,21.2 16.3251563,21.4665625 C14.7251563,22.9332813 13.2584375,24.3998437 12.0584375,26.1332812 C11.6582813,26.4 11.2582813,26.6667187 10.8582813,26.6667187 L10.8582813,26.6667187 Z M8.725,21.3332812 L10.725,23.3332812 C11.525,22.2665625 12.4582813,21.3332812 13.3917187,20.4 L11.525,18.5332812 L8.725,21.3332812 Z" id="Shape" fill="#000000"></path>
                    <path d="M41.525,13.6 L41.3917187,13.6 C38.725,13.3332813 36.325,13.3332813 33.6584375,13.6 C33.2584375,13.6 32.8584375,13.4667188 32.5917187,13.3332813 C32.325,12.9332813 32.1917187,12.6665625 32.1917187,12.2665625 L32.1917187,6.6665625 C32.1917187,5.8665625 32.725,5.33328125 33.525,5.33328125 L41.525,5.33328125 C42.325,5.33328125 42.8582812,5.8665625 42.8582812,6.6665625 L42.8582812,12.2665625 C42.8582812,12.6665625 42.725,13.0665625 42.4582812,13.1998438 C42.1917187,13.4667188 41.7917187,13.6 41.525,13.6 Z M34.8582812,8 L34.8582812,10.8 C36.725,10.6667188 38.325,10.6667188 40.1915625,10.8 L40.1915625,8 L34.8582812,8 Z" id="Shape" fill="#000000"></path>
                    <path d="M64.1917188,26.6667187 C64.1917188,26.6667187 64.0582813,26.6667187 64.1917188,26.6667187 C63.6584375,26.6667187 63.3917188,26.4 63.125,26.1334375 C61.925,24.4001562 60.4582813,22.9334375 58.8582813,21.4667187 C58.5915625,21.2 58.4582813,20.9334375 58.4582813,20.5334375 C58.4582813,20.1334375 58.5915625,19.8667187 58.8582813,19.6001562 L62.725,15.7334375 C63.2582813,15.2001562 64.0582813,15.2001562 64.5917188,15.7334375 L69.2584375,20.4001562 C69.7917188,20.9334375 69.7917188,21.7334375 69.2584375,22.266875 L65.2584375,26.266875 C64.8582813,26.5332812 64.5917188,26.6667187 64.1917188,26.6667187 Z M61.6582813,20.4 C62.5915625,21.3332813 63.525,22.2667188 64.325,23.3332812 L66.325,21.3332812 L63.525,18.5332812 L61.6582813,20.4 Z" id="Shape" fill="#000000"></path>
                    <path d="M37.525,50.6667187 C34.5917187,50.6667187 32.1917187,48.2667187 32.1917187,45.3334375 C32.1917187,42.4001563 34.5917187,40.0001563 37.525,40.0001563 C40.4582812,40.0001563 42.8582812,42.4001563 42.8582812,45.3334375 C42.8582812,48.2667187 40.4582812,50.6667187 37.525,50.6667187 Z M37.525,42.6667188 C36.0582813,42.6667188 34.8582812,43.8667188 34.8582812,45.3334375 C34.8582812,46.8001563 36.0582813,48.0001563 37.525,48.0001563 C38.9917188,48.0001563 40.1917187,46.8001563 40.1917187,45.3334375 C40.1917187,43.8667188 38.9917188,42.6667188 37.525,42.6667188 Z" id="Shape" fill="#000000"></path>
                    <path d="M14.8582813,46.6667188 L9.525,46.6667188 C8.725,46.6667188 8.19171875,46.1334375 8.19171875,45.3334375 C8.19171875,44.5334375 8.725,44.0001563 9.525,44.0001563 L14.8582813,44.0001563 C15.6582813,44.0001563 16.1915625,44.5334375 16.1915625,45.3334375 C16.1917188,46.1332813 15.525,46.6667188 14.8582813,46.6667188 Z" id="Shape" fill="#000000"></path>
                    <path d="M65.525,46.6667188 L60.1917188,46.6667188 C59.3917188,46.6667188 58.8584375,46.1334375 58.8584375,45.3334375 C58.8584375,44.5334375 59.3917188,44.0001563 60.1917188,44.0001563 L65.525,44.0001563 C66.325,44.0001563 66.8582813,44.5334375 66.8582813,45.3334375 C66.8582813,46.1332813 66.1917188,46.6667188 65.525,46.6667188 Z" id="Shape" fill="#000000"></path>
                    <path d="M37.525,24 C36.725,24 36.1917188,23.4667187 36.1917188,22.6667187 L36.1917188,17.3334375 C36.1917188,16.5334375 36.725,16.0001562 37.525,16.0001562 C38.325,16.0001562 38.8582813,16.5334375 38.8582813,17.3334375 L38.8582813,22.6667187 C38.8582813,23.4667187 38.1917188,24 37.525,24 Z" id="Shape" fill="#000000"></path>
                    <path d="M37.525,74.6667188 C36.725,74.6667188 36.1917188,74.1334375 36.1917188,73.3334375 L36.1917188,68 C36.1917188,67.2 36.725,66.6667188 37.525,66.6667188 C38.325,66.6667188 38.8582813,67.2 38.8582813,68 L38.8582813,73.3332812 C38.8582813,74.1332813 38.1917188,74.6667188 37.525,74.6667188 Z" id="Shape" fill="#000000"></path>
                    <path d="M21.525,30.6667188 C21.125,30.6667188 20.8582813,30.5334375 20.5917187,30.2667188 L16.8584375,26.5334375 C16.3251562,26.0001563 16.3251562,25.2001563 16.8584375,24.6667188 C17.3917187,24.1332813 18.1917187,24.1334375 18.7251562,24.6667188 L22.4584375,28.4 C22.9917187,28.9332813 22.9917187,29.7332813 22.4584375,30.2667188 C22.1917187,30.5332813 21.7917188,30.6667188 21.525,30.6667188 Z" id="Shape" fill="#000000"></path>
                    <path d="M57.2582813,66.4 C56.8582813,66.4 56.5915625,66.2667187 56.325,66 L52.5917188,62.2667187 C52.0584375,61.7334375 52.0584375,60.9334375 52.5917188,60.4 C53.125,59.8667187 53.925,59.8667187 54.4584375,60.4 L58.1917188,64.1332812 C58.725,64.6665625 58.725,65.4665625 58.1917188,66 C58.0582813,66.4 57.6582813,66.4 57.2582813,66.4 Z" id="Shape" fill="#000000"></path>
                    <path d="M53.525,30.6667187 C53.125,30.6667187 52.8582813,30.5334375 52.5917188,30.2667187 C52.0584375,29.7334375 52.0584375,28.9334375 52.5917188,28.4 L56.325,24.6667188 C56.8582813,24.1334375 57.6582813,24.1334375 58.1917188,24.6667188 C58.725,25.2 58.725,26 58.1917188,26.5334375 L54.4584375,30.2667187 C54.1917188,30.5332812 53.925,30.6667187 53.525,30.6667187 Z" id="Shape" fill="#000000"></path>
                    <path d="M17.6582813,66.4 C17.2582813,66.4 16.9915625,66.2667187 16.725,66 C16.1917188,65.4667187 16.1917188,64.6667188 16.725,64.1332812 L20.4582812,60.4 C20.9915625,59.8667187 21.7915625,59.8667187 22.325,60.4 C22.8582812,60.9332812 22.8582812,61.7332812 22.325,62.2667187 L18.5917188,66 C18.4582813,66.4 18.0582813,66.4 17.6582813,66.4 Z" id="Shape" fill="#000000"></path>
                    <path d="M37.525,42.6667188 C36.725,42.6667188 36.1917188,42.1334375 36.1917188,41.3334375 L36.1917188,28 C36.1917188,27.2 36.725,26.6667188 37.525,26.6667188 C38.325,26.6667188 38.8582813,27.2 38.8582813,28 L38.8582813,41.3332812 C38.8582813,42.1332812 38.1917188,42.6667188 37.525,42.6667188 Z" id="Shape" fill="#000000"></path>
                </g>
                <polygon id="Shape" stroke="#FFDB53" fill="#FFE997" points="56.5318471 98.455414 0.401273885 142.117834 86.1656051 195.159236 139.207006 150.700637"></polygon>
                <polygon id="Shape" stroke="#FFDB53" fill="#FFE997" points="140.401274 150.700637 194.207006 195.159236 279.207006 141.353503 226.181529 98.455414"></polygon>
            </g>
        </g>
    </g>
</svg>