<?xml version="1.0" encoding="UTF-8"?>
<svg width="450px" height="170px" viewBox="0 0 450 170" version="1.1" xmlns="http://www.w3.org/2000/svg" xmlns:xlink="http://www.w3.org/1999/xlink">
    <!-- Generator: Sketch 49.1 (51147) - http://www.bohemiancoding.com/sketch -->
    <title>Group 8</title>
    <desc>Created with Sketch.</desc>
    <defs>
        <polygon id="path-1" points="0 199.740488 68.7038797 199.740488 68.7038797 0 0 0"></polygon>
    </defs>
    <g id="Page-1" stroke="none" stroke-width="1" fill="none" fill-rule="evenodd">
        <g id="Cricket-API" transform="translate(-970.000000, -3124.000000)">
            <g id="Other-sports" transform="translate(970.000000, 2938.000000)">
                <g id="Group-8" transform="translate(-36.000000, 162.000000)">
                    <g id="f1" transform="translate(0.000000, 124.000000)">
                        <path d="M100.449958,0.000127272727 L108.541109,0.000127272727 C109.107473,0.000127272727 109.566503,0.459581818 109.566503,1.02594545 C109.566503,1.56600606 109.147352,2.00424848 108.617473,2.04370303 L109.566503,5.1814 L102.045533,5.1814 L102.045533,2.05133939 L100.449958,2.05133939 L100.449958,0.000127272727 Z" id="Fill-1" fill="#231F20"></path>
                        <polygon id="Fill-3" fill="#231F20" points="9.96248485 65.4835152 38.1898788 65.4835152 38.1898788 54.3293333 9.96248485 54.3293333"></polygon>
                        <path d="M17.8676909,47.8291333 C17.8676909,59.6786485 27.4733879,69.2839212 39.3224788,69.2839212 C51.1715697,69.2839212 60.7772667,59.6786485 60.7772667,47.8291333 C60.7772667,35.9800424 51.1715697,26.3747697 39.3224788,26.3747697 C27.4733879,26.3747697 17.8676909,35.9800424 17.8676909,47.8291333" id="Fill-5" fill="#231F20"></path>
                        <path d="M183.530836,47.8291333 C183.530836,59.6786485 193.136533,69.2839212 204.985624,69.2839212 C216.834715,69.2839212 226.440412,59.6786485 226.440412,47.8291333 C226.440412,35.9800424 216.834715,26.3747697 204.985624,26.3747697 C193.136533,26.3747697 183.530836,35.9800424 183.530836,47.8291333" id="Fill-6" fill="#231F20"></path>
                        <path d="M42.2355394,33.7340606 C42.2355394,33.7340606 67.9157818,23.3027879 81.8029333,13.2643636 C95.6896606,3.22551515 109.752024,4.79266667 109.752024,4.79266667 C110.483842,4.87412121 111.082448,5.54315152 111.082448,6.27963636 L111.082448,14.9621818 C111.082448,15.6986667 110.480024,16.2913333 109.743964,16.2794545 L107.7216,16.2705455 C107.7216,17.9475758 108.876812,18.9186667 110.527539,18.9186667 L113.398812,18.9186667 C114.134873,18.9186667 114.736873,19.5210909 114.736873,20.2571515 L114.736873,27.7098182 C114.736873,28.4458788 114.152691,29.1933939 113.437842,29.3707273 L49.2822061,45.2810909 C48.5677818,45.4584242 47.6675394,45.0906061 47.2823273,44.4631515 L41.6963273,35.378 C41.3106909,34.7505455 41.5533576,34.0110909 42.2355394,33.7340606" id="Fill-7" fill="#A60904"></path>
                        <polygon id="Fill-19" fill="#BC1813" points="243.773685 57.4800121 258.236533 57.4800121 255.559564 45.6033455 235.408048 45.6033455"></polygon>
                        <path d="M47.8828424,43.0462667 C64.2598727,35.6470545 81.2172667,30.6104485 104.534479,28.2766909 C127.716782,25.9556606 127.505509,33.5466303 168.439812,31.1288727 C208.631267,28.7548121 230.272721,34.5830545 244.95363,37.7962667 C259.634539,41.0094788 268.616176,45.2913576 268.616176,46.5517818 C268.616176,47.8113576 267.061752,47.4295394 264.64357,47.4295394 L225.436782,47.4295394 C211.506782,47.4295394 193.54563,50.3076 174.312176,54.1202667 C154.708782,58.0063273 153.413994,65.2689333 130.614782,65.2689333 L40.8018121,65.2689333 L47.8828424,43.0462667 Z" id="Fill-23" fill="#BC1813"></path>
                        <path d="M55.7578424,48.4984182 C55.7578424,47.7793273 55.7200848,47.0687212 55.6556,46.3661758 C89.3735394,39.5142364 122.254873,34.2375091 171.548873,34.2375091 C202.849479,34.2375091 215.246691,35.4470242 238.045479,38.9911455 C254.237964,41.5081758 262.063539,44.7332667 265.798145,47.4526606 C265.439661,47.4403576 265.054873,47.4293273 264.643358,47.4293273 L225.436994,47.4293273 C216.250024,47.4293273 205.309236,48.6816909 193.406691,50.6281152 C187.585236,50.1181758 180.900024,51.0375091 173.449055,51.3938727 C140.430267,52.972903 153.769721,61.1073273 119.2156,61.7895091 C90.2394182,62.3613879 65.7750545,57.5390242 55.065903,54.1090242 C55.5156,52.3119333 55.7578424,50.4329636 55.7578424,48.4984182" id="Fill-27" fill="#F7CB1B"></path>
                        <path d="M137.92643,62.4449636 C144.477158,62.4449636 150.500127,55.0516909 157.895521,55.0516909 L164.024127,55.0516909 L164.024127,66.4875697 L137.92643,66.4875697 L137.92643,62.4449636 Z" id="Fill-34" fill="#BD4440"></path>
                        <polygon id="Fill-38" fill="#4C4C4E" points="40.0858182 66.487697 177.865758 66.487697 177.865758 65.2692727 40.0858182 65.2692727"></polygon>
                        <path d="M11.175097,48.4984182 C11.175097,60.3479333 20.7807939,69.9532061 32.6298848,69.9532061 C44.4789758,69.9532061 54.0846727,60.3479333 54.0846727,48.4984182 C54.0846727,36.6493273 44.4789758,27.0440545 32.6298848,27.0440545 C20.7807939,27.0440545 11.175097,36.6493273 11.175097,48.4984182" id="Fill-39" fill="#404042"></path>
                        <path d="M12.4076485,48.4984182 C12.4076485,59.6670242 21.4614061,68.7207818 32.6300121,68.7207818 C43.7981939,68.7207818 52.8519515,59.6670242 52.8519515,48.4984182 C52.8519515,37.3298121 43.7981939,28.2764788 32.6300121,28.2764788 C21.4614061,28.2764788 12.4076485,37.3298121 12.4076485,48.4984182" id="Fill-40" fill="#3B3A3B"></path>
                        <path d="M19.3390485,48.4984182 C19.3390485,55.8390848 25.2894727,61.7895091 32.6301394,61.7895091 C39.9703818,61.7895091 45.9208061,55.8390848 45.9208061,48.4984182 C45.9208061,41.1581758 39.9703818,35.2077515 32.6301394,35.2077515 C25.2894727,35.2077515 19.3390485,41.1581758 19.3390485,48.4984182" id="Fill-41" fill="#FEFEFE"></path>
                        <path d="M21.0314788,48.4984182 C21.0314788,54.9044788 26.2242061,60.0967818 32.6298424,60.0967818 C39.0354788,60.0967818 44.2282061,54.9044788 44.2282061,48.4984182 C44.2282061,42.0927818 39.0354788,36.9000545 32.6298424,36.9000545 C26.2242061,36.9000545 21.0314788,42.0927818 21.0314788,48.4984182" id="Fill-42" fill="#808184"></path>
                        <path d="M23.1224424,48.4982061 C23.1224424,53.7494788 27.3788667,58.0063273 32.6301394,58.0063273 C37.8809879,58.0063273 42.1374121,53.7494788 42.1374121,48.4982061 C42.1374121,43.2477818 37.8809879,38.9909333 32.6301394,38.9909333 C27.3788667,38.9909333 23.1224424,43.2477818 23.1224424,48.4982061" id="Fill-43" fill="#231F20"></path>
                        <path d="M187.363315,48.4984182 C187.363315,60.3479333 196.969436,69.9532061 208.818103,69.9532061 C220.667194,69.9532061 230.272891,60.3479333 230.272891,48.4984182 C230.272891,36.6493273 220.667194,27.0440545 208.818103,27.0440545 C196.969436,27.0440545 187.363315,36.6493273 187.363315,48.4984182" id="Fill-49" fill="#404042"></path>
                        <path d="M188.596036,48.4984182 C188.596036,59.6670242 197.649794,68.7207818 208.8184,68.7207818 C219.986582,68.7207818 229.040339,59.6670242 229.040339,48.4984182 C229.040339,37.3298121 219.986582,28.2764788 208.8184,28.2764788 C197.649794,28.2764788 188.596036,37.3298121 188.596036,48.4984182" id="Fill-50" fill="#3B3A3B"></path>
                        <path d="M195.527479,48.4984182 C195.527479,55.8390848 201.477903,61.7895091 208.818145,61.7895091 C216.158388,61.7895091 222.109236,55.8390848 222.109236,48.4984182 C222.109236,41.1581758 216.158388,35.2077515 208.818145,35.2077515 C201.477903,35.2077515 195.527479,41.1581758 195.527479,48.4984182" id="Fill-51" fill="#FEFEFE"></path>
                        <path d="M197.219909,48.4984182 C197.219909,54.9044788 202.412636,60.0967818 208.818273,60.0967818 C215.223909,60.0967818 220.416636,54.9044788 220.416636,48.4984182 C220.416636,42.0927818 215.223909,36.9000545 208.818273,36.9000545 C202.412636,36.9000545 197.219909,42.0927818 197.219909,48.4984182" id="Fill-52" fill="#808184"></path>
                        <path d="M199.310661,48.4982061 C199.310661,53.7494788 203.567085,58.0063273 208.818358,58.0063273 C214.069206,58.0063273 218.326055,53.7494788 218.326055,48.4982061 C218.326055,43.2477818 214.069206,38.9909333 208.818358,38.9909333 C203.567085,38.9909333 199.310661,43.2477818 199.310661,48.4982061" id="Fill-53" fill="#231F20"></path>
                        <polygon id="Fill-57" fill="#E7C352" points="209.942176 50.4456485 211.066418 48.4983758 209.942176 46.5515273 207.694115 46.5515273 206.569448 48.4983758 207.694115 50.4456485"></polygon>
                        <path d="M233.371642,66.4875273 L233.371642,54.4717091 C241.302006,54.4717091 247.391158,57.0918303 255.958733,57.0918303 L266.084552,57.0918303 L267.358976,66.4875273 L233.371642,66.4875273 Z" id="Fill-59" fill="#BC1813"></path>
                        <path d="M237.387267,66.4875273 L237.387267,54.0296485 C245.609509,54.0296485 251.923085,56.7460727 260.805448,56.7460727 L271.303752,56.7460727 L272.625691,66.4875273 L237.387267,66.4875273 Z" id="Fill-60" fill="#BC1813"></path>
                    </g>
                    <g id="shuttle" transform="translate(476.500000, 104.000000) rotate(30.000000) translate(-476.500000, -104.000000) translate(442.000000, 4.000000)">
                        <path d="M8.37720211,64.5059024 L8.37720211,64.9590732 C8.63390455,65.4390732 8.89935821,65.9088293 9.17356309,66.3659024 L9.17356309,64.5059024 L8.37720211,64.5059024 Z" id="Fill-1" fill="#AAAAAA"></path>
                        <mask id="mask-2" fill="white">
                            <use xlink:href="#path-1"></use>
                        </mask>
                        <g id="Clip-6"></g>
                        <polygon id="Fill-7" fill="#AAAAAA" mask="url(#mask-2)" points="8.37686179 57.3834146 9.17322276 57.3834146 9.17322276 51.8580488 8.37686179 51.8580488"></polygon>
                        <polygon id="Fill-8" fill="#AAAAAA" mask="url(#mask-2)" points="8.37686179 63.7068293 9.17322276 63.7068293 9.17322276 58.182439 8.37686179 58.182439"></polygon>
                        <polygon id="Fill-9" fill="#AAAAAA" mask="url(#mask-2)" points="8.37686179 38.4112195 9.17322276 38.4112195 9.17322276 32.8858537 8.37686179 32.8858537"></polygon>
                        <polygon id="Fill-10" fill="#AAAAAA" mask="url(#mask-2)" points="8.37686179 51.0595122 9.17322276 51.0595122 9.17322276 45.5341463 8.37686179 45.5341463"></polygon>
                        <polygon id="Fill-11" fill="#AAAAAA" mask="url(#mask-2)" points="8.37686179 44.735122 9.17322276 44.735122 9.17322276 39.2107317 8.37686179 39.2107317"></polygon>
                        <polygon id="Fill-13" fill="#AAAAAA" mask="url(#mask-2)" points="14.6801707 63.7068293 15.4765317 63.7068293 15.4765317 58.182439 14.6801707 58.182439"></polygon>
                        <path d="M14.6799763,70.8301951 L14.6799763,73.1887317 C14.942999,73.435561 15.2079665,73.675561 15.4763372,73.9097073 L15.4763372,70.8301951 L14.6799763,70.8301951 Z" id="Fill-14" fill="#AAAAAA" mask="url(#mask-2)"></path>
                        <polygon id="Fill-16" fill="#AAAAAA" mask="url(#mask-2)" points="14.6796846 70.0312195 15.4760455 70.0312195 15.4760455 64.5058537 14.6796846 64.5058537"></polygon>
                        <polygon id="Fill-18" fill="#AAAAAA" mask="url(#mask-2)" points="14.6796846 57.3834146 15.4760455 57.3834146 15.4760455 51.8580488 14.6796846 51.8580488"></polygon>
                        <polygon id="Fill-21" fill="#AAAAAA" mask="url(#mask-2)" points="14.6796846 51.0595122 15.4760455 51.0595122 15.4760455 45.5341463 14.6796846 45.5341463"></polygon>
                        <polygon id="Fill-24" fill="#AAAAAA" mask="url(#mask-2)" points="20.9829935 63.7068293 21.7793545 63.7068293 21.7793545 58.182439 20.9829935 58.182439"></polygon>
                        <polygon id="Fill-26" fill="#AAAAAA" mask="url(#mask-2)" points="20.9829935 70.0312195 21.7793545 70.0312195 21.7793545 64.5058537 20.9829935 64.5058537"></polygon>
                        <path d="M20.9832366,70.8301951 L20.9832366,77.7838537 C21.2482041,77.9311707 21.5136577,78.0745854 21.7795976,78.2121463 L21.7795976,70.8301951 L20.9832366,70.8301951 Z" id="Fill-30" fill="#AAAAAA" mask="url(#mask-2)"></path>
                        <polygon id="Fill-34" fill="#AAAAAA" mask="url(#mask-2)" points="27.2858163 70.0312195 28.0821772 70.0312195 28.0821772 64.5058537 27.2858163 64.5058537"></polygon>
                        <path d="M27.2859621,70.8301951 L27.2859621,80.4253171 C27.5523881,80.5033659 27.818328,80.5794634 28.0823231,80.6487317 L28.0823231,70.8301951 L27.2859621,70.8301951 Z" id="Fill-39" fill="#AAAAAA" mask="url(#mask-2)"></path>
                        <path d="M33.5889793,70.8301951 L33.5889793,81.4921463 C33.8340135,81.5014146 34.08002,81.5106829 34.3182476,81.5106829 C34.3401257,81.5106829 34.3634623,81.5092195 34.3848541,81.5092195 L34.3848541,70.8301951 L33.5889793,70.8301951 Z" id="Fill-49" fill="#AAAAAA" mask="url(#mask-2)"></path>
                        <path d="M8.37720211,32.087122 L5.45332244,32.087122 C5.38817447,32.3524878 5.32156797,32.6163902 5.25982325,32.8861463 L8.37720211,32.8861463 L8.37720211,32.087122 Z" id="Fill-126" fill="#AAAAAA" mask="url(#mask-2)"></path>
                        <path d="M8.37720211,38.4114634 L4.29670293,38.4114634 C4.2651013,38.674878 4.24225089,38.9441463 4.21405252,39.2104878 L8.37720211,39.2104878 L8.37720211,38.4114634 Z" id="Fill-143" fill="#AAAAAA" mask="url(#mask-2)"></path>
                        <polygon id="Fill-144" fill="#AAAAAA" mask="url(#mask-2)" points="9.17370894 39.2102439 14.6801707 39.2102439 14.6801707 38.4112195 9.17370894 38.4112195"></polygon>
                        <polygon id="Fill-153" fill="#AAAAAA" mask="url(#mask-2)" points="8.37686179 39.2102439 9.17322276 39.2102439 9.17322276 38.4112195 8.37686179 38.4112195"></polygon>
                        <polygon id="Fill-163" fill="#AAAAAA" mask="url(#mask-2)" points="9.17370894 45.5341463 14.6801707 45.5341463 14.6801707 44.735122 9.17370894 44.735122"></polygon>
                        <path d="M8.37720211,44.7350244 L3.91748341,44.7350244 C3.91651106,44.9994146 3.92040049,45.2667317 3.92283138,45.5340488 L8.37720211,45.5340488 L8.37720211,44.7350244 Z" id="Fill-165" fill="#AAAAAA" mask="url(#mask-2)"></path>
                        <polygon id="Fill-172" fill="#AAAAAA" mask="url(#mask-2)" points="8.37686179 45.5341463 9.17322276 45.5341463 9.17322276 44.735122 8.37686179 44.735122"></polygon>
                        <polygon id="Fill-183" fill="#AAAAAA" mask="url(#mask-2)" points="9.17370894 51.8585366 14.6801707 51.8585366 14.6801707 51.0595122 9.17370894 51.0595122"></polygon>
                        <polygon id="Fill-184" fill="#AAAAAA" mask="url(#mask-2)" points="15.4760455 51.8585366 20.9829935 51.8585366 20.9829935 51.0595122 15.4760455 51.0595122"></polygon>
                        <path d="M8.37720211,51.0593659 L4.24808504,51.0593659 C4.27725577,51.3281463 4.31080211,51.5935122 4.34434846,51.8583902 L8.37720211,51.8583902 L8.37720211,51.0593659 Z" id="Fill-187" fill="#AAAAAA" mask="url(#mask-2)"></path>
                        <polygon id="Fill-191" fill="#AAAAAA" mask="url(#mask-2)" points="8.37686179 51.8585366 9.17322276 51.8585366 9.17322276 51.0595122 8.37686179 51.0595122"></polygon>
                        <polygon id="Fill-192" fill="#AAAAAA" mask="url(#mask-2)" points="14.6796846 51.8585366 15.4760455 51.8585366 15.4760455 51.0595122 14.6796846 51.0595122"></polygon>
                        <path d="M8.37720211,57.3836585 L5.41928992,57.3836585 C5.49075821,57.65 5.55833707,57.9207317 5.63466715,58.1826829 L8.37720211,58.1826829 L8.37720211,57.3836585 Z" id="Fill-200" fill="#AAAAAA" mask="url(#mask-2)"></path>
                        <polygon id="Fill-206" fill="#AAAAAA" mask="url(#mask-2)" points="15.4760455 58.182439 20.9829935 58.182439 20.9829935 57.3834146 15.4760455 57.3834146"></polygon>
                        <polygon id="Fill-208" fill="#AAAAAA" mask="url(#mask-2)" points="9.17370894 58.1829268 14.6801707 58.1829268 14.6801707 57.3839024 9.17370894 57.3839024"></polygon>
                        <polygon id="Fill-210" fill="#AAAAAA" mask="url(#mask-2)" points="8.37686179 58.1829268 9.17322276 58.1829268 9.17322276 57.3839024 8.37686179 57.3839024"></polygon>
                        <polygon id="Fill-211" fill="#AAAAAA" mask="url(#mask-2)" points="14.6801707 58.182439 15.4765317 58.182439 15.4765317 57.3834146 14.6801707 57.3834146"></polygon>
                        <polygon id="Fill-212" fill="#AAAAAA" mask="url(#mask-2)" points="20.9829935 58.1829268 21.7793545 58.1829268 21.7793545 57.3839024 20.9829935 57.3839024"></polygon>
                        <polygon id="Fill-221" fill="#AAAAAA" mask="url(#mask-2)" points="21.7793545 64.5058537 27.2858163 64.5058537 27.2858163 63.7068293 21.7793545 63.7068293"></polygon>
                        <polygon id="Fill-223" fill="#AAAAAA" mask="url(#mask-2)" points="9.17322276 64.5058537 14.6796846 64.5058537 14.6796846 63.7068293 9.17322276 63.7068293"></polygon>
                        <polygon id="Fill-226" fill="#AAAAAA" mask="url(#mask-2)" points="15.4760455 64.5058537 20.9829935 64.5058537 20.9829935 63.7068293 15.4760455 63.7068293"></polygon>
                        <path d="M8.37720211,63.7070244 L7.74760049,63.7070244 C7.87789642,63.9772683 8.01159561,64.243122 8.14723951,64.5060488 L8.37720211,64.5060488 L8.37720211,63.7070244 Z" id="Fill-228" fill="#AAAAAA" mask="url(#mask-2)"></path>
                        <polygon id="Fill-229" fill="#AAAAAA" mask="url(#mask-2)" points="8.37734797 64.5058537 9.17370894 64.5058537 9.17370894 63.7068293 8.37734797 63.7068293"></polygon>
                        <polygon id="Fill-230" fill="#AAAAAA" mask="url(#mask-2)" points="14.6796846 64.5058537 15.4760455 64.5058537 15.4760455 63.7068293 14.6796846 63.7068293"></polygon>
                        <polygon id="Fill-231" fill="#AAAAAA" mask="url(#mask-2)" points="20.9829935 64.5058537 21.7793545 64.5058537 21.7793545 63.7068293 20.9829935 63.7068293"></polygon>
                        <polygon id="Fill-241" fill="#AAAAAA" mask="url(#mask-2)" points="28.0821772 70.8302439 33.5891252 70.8302439 33.5891252 70.0312195 28.0821772 70.0312195"></polygon>
                        <polygon id="Fill-242" fill="#AAAAAA" mask="url(#mask-2)" points="21.7793545 70.8302439 27.2858163 70.8302439 27.2858163 70.0312195 21.7793545 70.0312195"></polygon>
                        <path d="M14.6799763,70.0313659 L11.7424836,70.0313659 C11.9632088,70.3045366 12.1887958,70.568439 12.4158413,70.8303902 L14.6799763,70.8303902 L14.6799763,70.0313659 Z" id="Fill-244" fill="#AAAAAA" mask="url(#mask-2)"></path>
                        <polygon id="Fill-245" fill="#AAAAAA" mask="url(#mask-2)" points="15.4760455 70.8302439 20.9829935 70.8302439 20.9829935 70.0312195 15.4760455 70.0312195"></polygon>
                        <polygon id="Fill-246" fill="#AAAAAA" mask="url(#mask-2)" points="14.6801707 70.8302439 15.4765317 70.8302439 15.4765317 70.0312195 14.6801707 70.0312195"></polygon>
                        <polygon id="Fill-247" fill="#AAAAAA" mask="url(#mask-2)" points="20.9829935 70.8302439 21.7793545 70.8302439 21.7793545 70.0312195 20.9829935 70.0312195"></polygon>
                        <polygon id="Fill-248" fill="#AAAAAA" mask="url(#mask-2)" points="27.2858163 70.8302439 28.0821772 70.8302439 28.0821772 70.0312195 27.2858163 70.0312195"></polygon>
                        <path d="M39.8138676,185.563463 L39.8138676,115.874683 L28.8237945,115.874683 L28.8237945,185.563463 L27.1314059,197.789805 C26.9884693,198.821024 27.786775,199.740049 28.8237945,199.740049 L34.318588,199.740049 L39.8138676,199.740049 C40.8508872,199.740049 41.6487067,198.821024 41.5062563,197.789805 L39.8138676,185.563463 Z" id="Fill-253" fill="#1D1D1D" mask="url(#mask-2)"></path>
                        <path d="M34.3849514,115.874537 L34.3849514,102.666732 L32.5826863,102.666732 C31.2826441,94.4018537 28.3038262,88.1857561 25.5457335,83.9579512 C28.6738083,84.9491707 31.690062,85.4120976 34.3183449,85.4120976 C34.3402229,85.4120976 34.3630733,85.411122 34.3849514,85.4106341 L34.3849514,81.4247805 C34.3635595,81.4247805 34.3402229,81.4267317 34.3183449,81.4267317 C23.8586928,81.4267317 6.44668309,73.0423415 4.25304407,50.5442927 C2.00787008,27.518439 14.0296148,12.7520976 18.8505644,9.0062439 C19.2939595,8.66185366 19.8321595,8.29307317 20.4520376,7.91063415 C24.6078945,5.34282927 29.4030766,3.98526829 34.3183449,3.98526829 C34.3407091,3.98526829 34.3630733,3.9862439 34.3849514,3.9862439 L34.3849514,-9.75609756e-05 C34.3630733,0.00087804878 34.3407091,-9.75609756e-05 34.3183449,-9.75609756e-05 C28.6670018,-9.75609756e-05 23.1517888,1.56234146 18.3687611,4.51697561 C17.6297693,4.97404878 16.9744002,5.42282927 16.4191839,5.85404878 C9.82319528,10.9794146 -2.03422098,26.9969756 0.29992374,50.9320976 C1.84888959,66.820878 10.3079156,76.3989268 19.3148652,81.2964878 C22.6388701,84.9833171 29.9427351,94.9540488 29.9427351,111.386732 L29.9485693,111.386732 L28.8240376,115.874537 L34.3849514,115.874537 Z" id="Fill-254" fill="#0F6698" mask="url(#mask-2)"></path>
                        <path d="M34.3187338,115.874537 L34.3187338,102.666732 L36.1209989,102.666732 C37.4215273,94.4018537 40.4003452,88.1857561 43.1584379,83.9579512 C40.0303631,84.9491707 37.0141094,85.4120976 34.3853403,85.4120976 C34.3634623,85.4120976 34.3406119,85.411122 34.3187338,85.4106341 L34.3187338,81.4247805 C34.3406119,81.4247805 34.3634623,81.4267317 34.3853403,81.4267317 C44.8449924,81.4267317 62.2574883,73.0423415 64.4506411,50.5442927 C66.6958151,27.518439 54.6740704,12.7520976 49.8531208,9.0062439 C49.4097257,8.66185366 48.8715257,8.29307317 48.2516476,7.91063415 C44.0957907,5.34282927 39.3010948,3.98526829 34.3853403,3.98526829 C34.3629761,3.98526829 34.341098,3.9862439 34.3187338,3.9862439 L34.3187338,-9.75609756e-05 C34.341098,0.00087804878 34.3629761,-9.75609756e-05 34.3853403,-9.75609756e-05 C40.0366834,-9.75609756e-05 45.5523826,1.56234146 50.3349241,4.51697561 C51.0739159,4.97404878 51.7297712,5.42282927 52.2845013,5.85404878 C58.8804899,10.9794146 70.7379062,26.9969756 68.4042476,50.9320976 C66.8547956,66.820878 58.3957696,76.3989268 49.3893062,81.2964878 C46.0653013,84.9833171 38.7609501,94.9540488 38.7609501,111.386732 L38.7551159,111.386732 L39.8801338,115.874537 L34.3187338,115.874537 Z" id="Fill-255" fill="#0F6698" mask="url(#mask-2)"></path>
                    </g>
                    <g id="basketball" transform="translate(36.000000, 33.000000)">
                        <path d="M2,0 L5.27272727,0 C6.37729677,-2.02906125e-16 7.27272727,0.8954305 7.27272727,2 L7.27272727,58 C7.27272727,59.1045695 6.37729677,60 5.27272727,60 L2,60 C0.8954305,60 1.3527075e-16,59.1045695 0,58 L0,2 C-1.3527075e-16,0.8954305 0.8954305,2.02906125e-16 2,0 Z" id="Rectangle-5" fill="#CFCED0"></path>
                        <g transform="translate(16.000000, 48.000000)" stroke="#D8D8D8" stroke-linecap="round" stroke-linejoin="round">
                            <path d="M4,0 L22,30" id="Stroke-5"></path>
                            <path d="M8,0 L26,30" id="Stroke-7"></path>
                            <path d="M16,0 L30,24" id="Stroke-9"></path>
                            <path d="M20,0 L31,18" id="Stroke-11"></path>
                            <path d="M24,0 L32,13" id="Stroke-13"></path>
                            <path d="M28,0 L33,9" id="Stroke-15"></path>
                            <path d="M32,0 L34,4" id="Stroke-17"></path>
                            <path d="M5,22 L10,30" id="Stroke-19"></path>
                            <path d="M3,12 L14,29" id="Stroke-21"></path>
                            <path d="M0,0 L18,30" id="Stroke-23"></path>
                            <path d="M31,0 L13,30" id="Stroke-25"></path>
                            <path d="M27,0 L9,30" id="Stroke-27"></path>
                            <path d="M19,0 L5,24" id="Stroke-29"></path>
                            <path d="M15,0 L4,18" id="Stroke-31"></path>
                            <path d="M11,0 L3,13" id="Stroke-33"></path>
                            <path d="M7,0 L2,9" id="Stroke-35"></path>
                            <path d="M3,0 L1,4" id="Stroke-37"></path>
                            <path d="M31,22 L26,30" id="Stroke-39"></path>
                            <path d="M32,12 L21,29" id="Stroke-41"></path>
                            <path d="M17.9174387,30 L36,0 C36,0 30.0816911,17.6089041 30.0816911,30 L12,0" id="Stroke-43"></path>
                            <path d="M18.0825613,30 L0,0 C0,0 5.91830889,17.6089041 5.91830889,30 L24,0" id="Stroke-45"></path>
                        </g>
                        <path d="M7.27272727,45.9393939 L53.0909091,45.9393939 C54.5636684,45.9393939 55.7575758,47.1333013 55.7575758,48.6060606 L55.7575758,48.6060606 C55.7575758,50.0788199 54.5636684,51.2727273 53.0909091,51.2727273 L7.27272727,51.2727273 L7.27272727,45.9393939 Z" id="Rectangle-14" fill="#BC1813"></path>
                        <rect id="Rectangle-14" fill="#333333" x="7.27272727" y="45.9393939" width="7.27272727" height="5.33333333"></rect>
                    </g>
                    <g id="basketball" transform="translate(293.000000, 138.000000)" fill-rule="nonzero">
                        <circle id="Oval" fill="#E57E25" cx="28" cy="28" r="28"></circle>
                        <path d="M0.729,30.188 C4.35,26.73 10.303,25.632 14.582,27.63 C10.784,33.047 7.986,39.211 6.427,45.849 C6.898,46.418 7.395,46.963 7.909,47.492 C8.05,47.359 8.161,47.192 8.205,46.989 C9.676,40.305 12.464,34.112 16.28,28.693 C18.835,30.676 20.089,33.94 19.805,38.128 L19.801,38.182 L19.803,38.237 C20.054,44.3 23.549,49.848 29.151,53.076 C30.913,54.092 32.759,54.799 34.617,55.205 C36.275,54.803 37.873,54.253 39.401,53.571 C36.352,53.807 33.124,53.057 30.149,51.343 C25.16,48.468 22.044,43.561 21.803,38.207 C22.198,32.143 19.795,28.833 17.479,27.062 C18.966,25.117 20.591,23.284 22.337,21.574 C29.491,28.227 36.218,35.353 42.413,42.887 L46.726,48.134 L48.271,46.863 L43.958,41.616 C37.735,34.048 30.981,26.888 23.798,20.2 C25.188,18.941 26.648,17.758 28.171,16.657 C30.561,19.678 34.404,21.158 39.207,20.842 C43.726,21.047 47.967,23.507 50.85,27.596 C53.092,30.776 54.233,34.558 54.119,38.086 C54.742,36.475 55.218,34.792 55.536,33.053 C54.944,30.742 53.919,28.478 52.485,26.444 C49.23,21.827 44.401,19.056 39.237,18.842 L39.182,18.84 L39.128,18.844 C35.058,19.118 31.834,17.933 29.833,15.504 C34.975,12.087 40.768,9.574 46.988,8.204 C47.191,8.159 47.353,8.043 47.486,7.902 C46.958,7.39 46.414,6.894 45.847,6.425 C39.657,7.879 33.882,10.415 28.738,13.832 C26.792,9.924 27.473,4.432 30.405,0.663 L30.812,0.14 C29.888,0.048 28.95,0 28,0 L28,0.614 C25.226,5.005 24.813,10.723 27.074,14.985 C25.415,16.18 23.829,17.468 22.321,18.842 C19.052,15.853 15.706,12.951 12.268,10.168 L8.953,7.484 C8.461,7.941 7.987,8.415 7.529,8.906 L11.01,11.724 C14.379,14.451 17.659,17.293 20.865,20.221 C19.036,22.019 17.334,23.947 15.78,25.993 C15.666,25.935 15.55,25.875 15.441,25.824 C10.698,23.603 4.46,24.534 0.19,28 L0,28 C0,28.93 0.048,29.848 0.136,30.754 L0.729,30.188 Z" id="Shape" fill="#474849"></path>
                    </g>
                    <g id="Page-1" transform="translate(417.500000, 137.866025) scale(-1, -1) rotate(30.000000) translate(-417.500000, -137.866025) translate(407.500000, 77.866025)">
                        <path d="M13.0138851,10.5370345 C13.0138851,10.5370345 12.8233103,10.0742759 12.4656092,9.20645977 C12.3761839,8.98967816 12.2764138,8.74737931 12.1662989,8.48071264 L12.1246897,8.37956322 L12.1194023,8.36668966 C12.2168736,8.57657471 12.1430805,8.41772414 12.1635402,8.46117241 L12.1518161,8.43588506 L12.1283678,8.38462069 C12.0973333,8.31611494 12.0653793,8.246 12.0325057,8.17450575 L11.9833103,8.06577011 C11.9727356,8.04186207 11.9706667,8.04048276 11.967908,8.03703448 L11.9594023,8.02462069 C11.9483678,8.00783908 11.9387126,7.98967816 11.9304368,7.97013793 C11.9256092,7.9597931 11.9249195,7.9522069 11.9171034,7.93772414 L11.8814713,7.88301149 C11.8587126,7.84508046 11.8354943,7.80668966 11.8118161,7.76737931 C11.7598621,7.69243678 11.7051494,7.6151954 11.646069,7.53657471 C11.5207816,7.38577011 11.3784828,7.23082759 11.2081379,7.08714943 C11.0348046,6.94806897 10.8437701,6.80714943 10.6230805,6.69266667 C10.401931,6.58048276 10.1587126,6.48416092 9.89457471,6.41634483 C9.62583908,6.34806897 9.35549425,6.30852874 9.03273563,6.32324138 L8.81802299,6.32944828 L8.71158621,6.33266667 L8.68147126,6.34186207 C8.64124138,6.35266667 8.60078161,6.35841379 8.5577931,6.35864368 C8.54262069,6.35450575 8.50354023,6.36485057 8.46445977,6.37496552 L8.34997701,6.40071264 C8.27296552,6.41588506 8.1931954,6.42737931 8.1194023,6.45910345 C7.80721839,6.53726437 7.50951724,6.69818391 7.21687356,6.88347126 C6.92285057,7.06967816 6.6531954,7.31933333 6.42606897,7.61289655 C6.19618391,7.9043908 6.00445977,8.23933333 5.87273563,8.60852874 C5.84905747,8.70370115 5.82193103,8.79818391 5.79089655,8.89312644 C5.76331034,8.98875862 5.75733333,9.08990805 5.73342529,9.18829885 C5.70445977,9.28622989 5.71273563,9.39128736 5.69986207,9.49381609 L5.684,9.65588506 L5.67917241,9.93657471 C5.62675862,12.9391034 5.5702069,16.1917471 5.50997701,19.631977 C5.45457471,23.0722069 5.37641379,26.7002529 5.33342529,30.4531264 C5.23250575,37.9593333 5.12537931,45.9657701 5.0177931,53.9722069 C4.94055172,61.9786437 4.86331034,69.9850805 4.79066667,77.4910575 C4.77388506,79.3678391 4.75710345,81.2128966 4.74101149,83.0188736 C4.73181609,84.8253103 4.72285057,86.5922069 4.71411494,88.3124368 C4.69687356,91.7526667 4.68055172,95.0053103 4.66537931,98.0078391 C4.64629885,101.010138 4.64009195,103.762322 4.64055172,106.201862 C4.63825287,108.641172 4.63618391,110.767839 4.63457471,112.519563 C4.64009195,116.022322 4.64354023,118.023931 4.64354023,118.023931 C4.64514943,119.018874 3.83986207,119.82669 2.84514943,119.828299 C1.84997701,119.829678 1.04216092,119.024621 1.04055172,118.029678 L1.04055172,118.023931 C1.04055172,118.023931 1.044,116.022322 1.04951724,112.519563 C1.04790805,110.767839 1.0456092,108.641172 1.04354023,106.201862 C1.044,103.762322 1.0377931,101.010138 1.01871264,98.0078391 C1.00354023,95.0053103 0.987218391,91.7526667 0.969747126,88.3124368 C0.961241379,86.5922069 0.952275862,84.8253103 0.94308046,83.0188736 C0.926988506,81.2128966 0.910206897,79.3678391 0.893195402,77.4910575 C0.820781609,69.9850805 0.74354023,61.9786437 0.666298851,53.9722069 C0.558712644,45.9657701 0.451586207,37.9593333 0.350666667,30.4531264 C0.307678161,26.7002529 0.229517241,23.0722069 0.173885057,19.631977 C0.114114943,16.1917471 0.0573333333,12.9391034 0.00491954023,9.93657471 L9.1954023e-05,9.65588506 L0.0108965517,9.26002299 C0.024,8.99243678 0.0228505747,8.72577011 0.0667586207,8.46232184 C0.105149425,8.19910345 0.132735632,7.93473563 0.189287356,7.67726437 C0.248827586,7.42002299 0.311586207,7.16485057 0.377333333,6.91197701 C0.680321839,5.91036782 1.14124138,4.9843908 1.71595402,4.17105747 C2.2885977,3.35565517 2.97871264,2.65289655 3.74285057,2.09174713 C4.50514943,1.53128736 5.32308046,1.07427586 6.17572414,0.783701149 C6.38445977,0.699103448 6.5994023,0.640022989 6.8131954,0.582091954 C6.92032184,0.553126437 7.02675862,0.52462069 7.13296552,0.496114943 C7.2377931,0.468068966 7.34170115,0.440252874 7.47342529,0.419563218 C7.72216092,0.375195402 7.97089655,0.336804598 8.21733333,0.303701149 L8.40193103,0.280252874 L8.51112644,0.272206897 L8.72537931,0.256804598 C9.53917241,0.190827586 10.3750345,0.248988506 11.138023,0.399103448 C11.9069885,0.548298851 12.6256092,0.786 13.2814713,1.08186207 C13.9373333,1.3797931 14.5226207,1.74531034 15.0476782,2.13335632 C15.569977,2.52622989 16.0207816,2.95427586 16.4131954,3.38668966 C16.6067586,3.60485057 16.786069,3.82462069 16.9522759,4.04209195 C17.0318161,4.15381609 17.1095172,4.26347126 17.186069,4.37151724 C17.224,4.42577011 17.2614713,4.47956322 17.2984828,4.53312644 C17.338023,4.5968046 17.3768736,4.66002299 17.4154943,4.72255172 C17.4911264,4.85105747 17.5651494,4.97726437 17.6377931,5.10117241 C17.669977,5.15864368 17.7017011,5.21542529 17.7329655,5.27174713 L17.787908,5.37772414 C17.824,5.44737931 17.8591724,5.51588506 17.8938851,5.58278161 L17.9196322,5.63289655 L17.9325057,5.65749425 L17.9943448,5.78967816 L18.0407816,5.88852874 C18.1637701,6.14944828 18.2754943,6.38645977 18.3752644,6.59887356 C18.7752644,7.44783908 18.9885977,7.90071264 18.9885977,7.90071264 C19.7571034,9.53266667 19.0573333,11.4786437 17.4253793,12.2471494 C15.7936552,13.0158851 13.8474483,12.3161149 13.0787126,10.6841609 C13.0575632,10.6388736 13.0329655,10.5827816 13.0138851,10.5370345" id="Fill-1" fill="#A94D41"></path>
                        <path d="M2.84528736,111.413356 L0.0731034483,118.810828 C-0.109425287,119.297494 0.223448276,119.828069 0.710804598,119.828069 L2.84528736,119.828069 L4.98,119.828069 C5.46735632,119.828069 5.80022989,119.297494 5.61770115,118.810828 L2.84528736,111.413356 Z" id="Fill-4" fill="#1D1D1D"></path>
                        <path d="M2.84528736,71.6371724 L0.836781609,71.6371724 C0.855862069,73.6153333 0.874712644,75.570046 0.893333333,77.4911954 C0.910114943,79.3675172 0.926896552,81.2128046 0.943218391,83.0190115 C0.952413793,84.8252184 0.96137931,86.5923448 0.969885057,88.3123448 C0.987126437,91.7528046 1.00344828,95.0052184 1.01885057,98.0077471 C1.03793103,101.010046 1.04390805,103.76223 1.04344828,106.20154 C1.04574713,108.64131 1.04804598,110.767977 1.04942529,112.519471 C1.04643678,114.48177 1.04390805,115.972115 1.04229885,116.904299 L2.84528736,117.68269 L4.64827586,116.904299 C4.64689655,115.972115 4.64436782,114.48177 4.64114943,112.519471 C4.64275862,110.767977 4.64482759,108.64131 4.64735632,106.20154 C4.64689655,103.76223 4.65287356,101.010046 4.67195402,98.0077471 C4.68712644,95.0052184 4.70344828,91.7528046 4.72091954,88.3123448 C4.72942529,86.5923448 4.7383908,84.8252184 4.74735632,83.0190115 C4.76390805,81.2128046 4.78045977,79.3675172 4.79747126,77.4911954 C4.81586207,75.570046 4.83471264,73.6153333 4.8537931,71.6371724 L2.84528736,71.6371724 Z" id="Fill-6" fill="#161616"></path>
                        <path d="M0.231678161,22.951954 C0.275356322,25.3811494 0.321333333,27.8868966 0.350758621,30.4531034 C0.436965517,36.8678161 0.527770115,43.6485057 0.619494253,50.4818391 L5.08156322,49.2190805 C5.16754023,42.8144828 5.2525977,36.4724138 5.33328736,30.4531034 C5.36891954,27.3604598 5.428,24.3549425 5.4788046,21.4671264 L0.231678161,22.951954 Z" id="Fill-8" fill="#161616"></path>
                    </g>
                    <g id="Page-1" transform="translate(393.500000, 134.500000) rotate(30.000000) translate(-393.500000, -134.500000) translate(387.000000, 69.000000)">
                        <g id="Group-3" transform="translate(0.000000, 0.080903)" fill="#D4A281">
                            <path d="M7.00024703,0.253021378 C7.00024703,0.253021378 1.12910725,-0.335220903 0.000247030879,4.17525416 L0.000247030879,28.2981283 C0.000247030879,28.2981283 0.639519684,45.8651116 3.2837192,74.0377482 C3.84726044,80.0449216 4.13987523,86.0690784 4.13987523,92.096323 L4.11569807,124.761525 C4.13098657,125.577344 3.92476958,126.404589 3.39393862,127.077439 C2.51431651,128.193093 3.43695975,129.691026 4.97576511,129.691026 L7.00024703,129.691026 L7.00024703,0.253021378 Z" id="Fill-1"></path>
                        </g>
                        <g id="Group-6" transform="translate(5.866983, 0.080903)" fill="#CD9B7B">
                            <path d="M0.212693587,0.253021378 C0.212693587,0.253021378 5.3120285,-0.335220903 6.29212352,4.17525416 L6.29212352,28.2981283 C6.29212352,28.2981283 5.73692162,45.8651116 3.44046081,74.0377482 C2.95103088,80.0449216 2.69689786,86.0690784 2.69689786,92.096323 L2.71820428,124.761525 C2.70461758,125.577344 2.88371496,126.404589 3.34473634,127.077439 C4.10867933,128.193093 3.30737292,129.691026 1.97093587,129.691026 L0.212693587,129.691026 L0.212693587,0.253021378 Z" id="Fill-4"></path>
                        </g>
                        <path d="M3.57438242,124.84252 C3.58766033,125.65834 3.40856295,126.485276 2.94785036,127.158435 C2.18359857,128.273779 2.98490499,129.772021 4.32134204,129.772021 L6.07958432,129.772021 L6.171164,93.8049511 L3.59445368,93.5569857 L3.57438242,124.84252 Z" id="Fill-7" fill="#1D1D1D"></path>
                        <path d="M8.58524941,124.84252 C8.57166271,125.65834 8.7507601,126.485276 9.21147268,127.158435 C9.97572447,128.273779 9.17441805,129.772021 7.837981,129.772021 L6.07973872,129.772021 L6.14622236,93.6645829 L8.5448378,93.8054348 L8.58524941,124.84252 Z" id="Fill-9" fill="#171717"></path>
                        <path d="M4.55141294,94.2355716 L1.77922903,101.633043 C1.5967003,102.11971 1.92957386,102.650284 2.41693018,102.650284 L4.55141294,102.650284 L6.68612559,102.650284 C7.17348191,102.650284 7.50635547,102.11971 7.32382673,101.633043 L4.55141294,94.2355716 Z" id="Fill-4" fill="#1D1D1D" transform="translate(4.551528, 98.442928) scale(-1, -1) rotate(30.000000) translate(-4.551528, -98.442928) "></path>
                    </g>
                </g>
            </g>
        </g>
    </g>
</svg>