<svg xmlns="http://www.w3.org/2000/svg" viewBox="0 0 134.95 136.61"><defs><style>.cls-1{fill:#2f7abe;}.cls-2{fill:#569dd5;stroke:#2f7abe;}.cls-11,.cls-2,.cls-21,.cls-23,.cls-3{stroke-miterlimit:10;}.cls-2,.cls-21{stroke-width:0.5px;}.cls-25,.cls-3{fill:#fff;}.cls-3{stroke:#141413;}.cls-11,.cls-3{stroke-width:0.25px;}.cls-4{fill:#50667e;}.cls-5{fill:#b8d1e6;}.cls-6{fill:#cee2f2;}.cls-7{fill:#21d8de;}.cls-8{fill:#2a445e;}.cls-9{fill:#ff6d3b;}.cls-10{fill:#3c8bc6;}.cls-11{fill:#ffdd54;stroke:#000;}.cls-12{fill:#837764;}.cls-13{fill:#afc5e4;}.cls-14{fill:#5bc0de;}.cls-15{fill:#857763;}.cls-16{fill:#d38a58;}.cls-17{fill:#468847;}.cls-18{fill:#999;}.cls-19{fill:#ffc451;}.cls-20{fill:#eda932;}.cls-21{fill:#4480bd;stroke:#231f20;}.cls-22{fill:#376697;}.cls-23{fill:none;stroke:#654c99;}.cls-24{fill:#95c149;}.cls-26{fill:#f0785a;}.cls-27{fill:#f0c419;}.cls-28{fill:#556080;}.cls-29{fill:#71c285;}.cls-30{fill:#250900;}.cls-31{fill:#30adc1;}</style></defs><title>Asset 8</title><g id="Layer_2" data-name="Layer 2"><g id="Layer_1-2" data-name="Layer 1"><polygon class="cls-1" points="67.77 38.36 28.02 63.86 67.77 88.98 67.77 38.36"/><polygon class="cls-2" points="67.77 38.36 41.14 16.98 1.02 42.86 28.02 63.86 67.77 38.36"/><path class="cls-3" d="M75.28,57.3,44.08,13.72a4.77,4.77,0,0,0-6.66-1.1L8.57,33.28l34,47.46Z"/><rect class="cls-4" x="34.06" y="55.9" width="10.01" height="7.9" transform="translate(-27.54 33.93) rotate(-35.6)"/><rect class="cls-5" x="40.97" y="46.74" width="19.52" height="0.91" transform="translate(-17.99 38.36) rotate(-35.6)"/><rect class="cls-5" x="42.29" y="48.59" width="19.52" height="0.91" transform="translate(-18.82 39.47) rotate(-35.6)"/><rect class="cls-5" x="44.53" y="53.27" width="9.76" height="0.91" transform="translate(-22.04 38.8) rotate(-35.6)"/><rect class="cls-4" x="36.32" y="59.09" width="31.62" height="0.91" transform="translate(-24.92 41.48) rotate(-35.6)"/><rect class="cls-5" x="37.64" y="60.93" width="31.62" height="0.91" transform="translate(-25.74 42.59) rotate(-35.6)"/><rect class="cls-5" x="40.44" y="67.38" width="15.81" height="0.91" transform="translate(-30.45 40.82) rotate(-35.6)"/><rect class="cls-5" x="30.03" y="50.17" width="5.03" height="4.84" transform="translate(-24.53 28.78) rotate(-35.6)"/><rect class="cls-5" x="35.18" y="46.31" width="5.03" height="3.33" transform="translate(-20.88 30.91) rotate(-35.6)"/><rect class="cls-5" x="40.6" y="42.36" width="5.03" height="2.77" transform="translate(-17.41 33.28) rotate(-35.6)"/><rect class="cls-5" x="46.68" y="38.2" width="5.03" height="4.45" transform="translate(-14.34 36.19) rotate(-35.6)"/><rect class="cls-6" x="25.05" y="39.66" width="0.92" height="13.27" transform="translate(-22.18 23.5) rotate(-35.6)"/><rect class="cls-7" x="24.68" y="34.23" width="0.92" height="18.39" transform="translate(-20.58 22.75) rotate(-35.6)"/><rect class="cls-8" x="27.79" y="39.65" width="0.92" height="11.53" transform="matrix(0.81, -0.58, 0.58, 0.81, -21.16, 24.93)"/><rect class="cls-9" x="27.8" y="35.41" width="0.92" height="15.32" transform="translate(-19.79 24.5) rotate(-35.6)"/><rect class="cls-6" x="33.4" y="44.27" width="0.92" height="3.77" transform="translate(-20.54 28.34) rotate(-35.6)"/><rect class="cls-7" x="33.12" y="39.11" width="0.92" height="8.58" transform="translate(-18.99 27.66) rotate(-35.6)"/><rect class="cls-8" x="34.7" y="39.76" width="0.92" height="6.99" transform="translate(-18.61 28.55) rotate(-35.6)"/><rect class="cls-9" x="34.16" y="33.82" width="0.92" height="12.66" transform="translate(-16.9 27.66) rotate(-35.6)"/><rect class="cls-6" x="38.77" y="39.6" width="0.92" height="4.52" transform="translate(-17.03 30.66) rotate(-35.6)"/><rect class="cls-7" x="40.13" y="39.53" width="0.92" height="3.71" transform="translate(-16.51 31.36) rotate(-35.6)"/><rect class="cls-8" x="39.25" y="32.54" width="0.92" height="10.53" transform="translate(-14.59 30.19) rotate(-35.6)"/><rect class="cls-9" x="41.3" y="34.66" width="0.92" height="7.32" transform="translate(-14.5 31.47) rotate(-35.6)"/><rect class="cls-6" x="40.76" y="24.37" width="0.92" height="16.9" transform="translate(-11.4 30.13) rotate(-35.6)"/><rect class="cls-7" x="43.42" y="28.38" width="0.92" height="11.59" transform="translate(-11.7 31.93) rotate(-35.6)"/><rect class="cls-8" x="46.02" y="32.23" width="0.92" height="6.47" transform="translate(-11.96 33.69) rotate(-35.6)"/><rect class="cls-9" x="44.87" y="24.35" width="0.92" height="14.28" transform="translate(-9.86 32.27) rotate(-35.6)"/><circle class="cls-8" cx="45.12" cy="23.88" r="0.75" transform="translate(-5.47 30.73) rotate(-35.6)"/><circle class="cls-7" cx="47.6" cy="27.34" r="0.75" transform="translate(-7.02 32.82) rotate(-35.6)"/><circle class="cls-6" cx="50.08" cy="30.8" r="0.75" transform="translate(-8.57 34.91) rotate(-35.6)"/><circle class="cls-9" cx="52.55" cy="34.26" r="0.75" transform="translate(-10.12 37) rotate(-35.6)"/><polygon class="cls-4" points="28.28 52.47 17.07 36.81 16.64 37.13 16.73 37.25 17.03 37.03 18.54 39.14 18.24 39.36 18.33 39.49 18.64 39.27 20.14 41.38 19.84 41.6 19.93 41.73 20.24 41.51 21.75 43.62 21.44 43.84 21.53 43.97 21.84 43.75 23.35 45.85 23.04 46.07 23.14 46.2 23.44 45.98 24.95 48.09 24.64 48.31 24.74 48.44 25.04 48.22 26.55 50.33 26.25 50.55 26.34 50.68 26.64 50.46 28.24 52.69 51.15 36.29 51.06 36.16 28.28 52.47"/><polygon class="cls-2" points="109.02 63.86 134.52 42.48 93.27 16.98 67.77 38.36 109.02 63.86"/><polygon class="cls-10" points="67.77 38.36 67.77 88.98 109.02 63.86 67.77 38.36"/><polygon class="cls-11" points="94.19 74.2 59.95 92.93 32.58 42.88 62.29 26.64 66.48 28.39 69.93 29.82 94.19 74.2"/><rect class="cls-12" x="50.48" y="54.31" width="18.77" height="1.11" transform="translate(-18.59 33.92) rotate(-27.56)"/><rect class="cls-12" x="63.54" y="68.76" width="8.44" height="1.11" transform="translate(-24.38 39.21) rotate(-27.56)"/><rect class="cls-13" x="52.29" y="57.6" width="18.77" height="1.48" transform="translate(-19.99 35.15) rotate(-27.56)"/><rect class="cls-14" x="52.69" y="67.16" width="6.47" height="2.61" transform="translate(-25.78 34.71) rotate(-28.31)"/><rect class="cls-14" x="59.92" y="66.38" width="6.47" height="2.61" transform="translate(-24.15 36.9) rotate(-27.56)"/><rect class="cls-15" x="63.55" y="71.07" width="11.92" height="3.4" transform="translate(-25.78 40.41) rotate(-27.56)"/><rect class="cls-12" x="40.39" y="51.46" width="16.46" height="1.11" transform="translate(-18.55 28.39) rotate(-27.56)"/><rect class="cls-12" x="57.79" y="42.38" width="16.46" height="1.11" transform="translate(-12.38 35.41) rotate(-27.56)"/><rect class="cls-16" x="62.09" y="45.25" width="9.28" height="0.74" transform="translate(-13.53 36.04) rotate(-27.56)"/><rect class="cls-16" x="44.94" y="54.19" width="9.28" height="0.74" transform="translate(-19.62 29.13) rotate(-27.56)"/><ellipse class="cls-17" cx="60.97" cy="65.33" rx="1.4" ry="1.21" transform="translate(-23.31 35.62) rotate(-27.56)"/><ellipse class="cls-18" cx="75.45" cy="57.77" rx="1.4" ry="1.21" transform="translate(-18.17 41.46) rotate(-27.56)"/><ellipse class="cls-18" cx="72.55" cy="59.28" rx="1.4" ry="1.21" transform="translate(-19.2 40.29) rotate(-27.56)"/><ellipse class="cls-18" cx="69.65" cy="60.79" rx="1.4" ry="1.21" transform="translate(-20.22 39.12) rotate(-27.56)"/><ellipse class="cls-18" cx="66.76" cy="62.31" rx="1.4" ry="1.21" transform="translate(-21.25 37.95) rotate(-27.56)"/><ellipse class="cls-18" cx="63.86" cy="63.82" rx="1.4" ry="1.21" transform="translate(-22.28 36.78) rotate(-27.56)"/><ellipse class="cls-17" cx="67.74" cy="65.18" rx="1.4" ry="1.21" transform="translate(-22.47 38.73) rotate(-27.56)"/><ellipse class="cls-18" cx="70.64" cy="63.67" rx="1.4" ry="1.21" transform="translate(-21.44 39.9) rotate(-27.56)"/><polyline class="cls-19" points="62.48 26.98 65.31 32.17 69.56 30.02"/><path class="cls-20" d="M40.88,43.76c0-.08,0-.16,0-.24s0-.18.17-.14a4,4,0,0,0,2.85-.26c.8-.26,1.56-.66,2.38-.89a4.82,4.82,0,0,1,2.2-.2.51.51,0,0,1,.43.32,17.17,17.17,0,0,0,1.14,2,5.53,5.53,0,0,1,.54,1.2c0,.13,0,.24-.13.27a5.38,5.38,0,0,0-2.09,1.05c-.85.64-1.66,1.32-2.5,2a7.7,7.7,0,0,1-2.24,1.3c-.42.14-.47.1-.49-.32a6.11,6.11,0,0,0-.82-2.41c-.39-.75-.81-1.48-1.14-2.27A3.79,3.79,0,0,1,40.88,43.76Z"/><path class="cls-20" d="M57.37,35.64c0-.08,0-.16,0-.24s0-.18.17-.14A4,4,0,0,0,60.39,35c.8-.26,1.56-.66,2.38-.89a4.82,4.82,0,0,1,2.2-.2.51.51,0,0,1,.43.32,17.17,17.17,0,0,0,1.14,2,5.53,5.53,0,0,1,.54,1.2c0,.13,0,.24-.13.27a5.38,5.38,0,0,0-2.09,1.05c-.85.64-1.66,1.32-2.5,2A7.7,7.7,0,0,1,60.13,42c-.42.14-.47.1-.49-.32a6.11,6.11,0,0,0-.82-2.41c-.39-.75-.81-1.48-1.14-2.27A3.79,3.79,0,0,1,57.37,35.64Z"/><polygon class="cls-1" points="109.02 63.86 109.02 111.48 67.77 136.61 67.77 88.98 109.02 63.86"/><path class="cls-21" d="M76.64,22.11s-6,32.27-8.54,38.56c-1.34,3.27,27.78,8.55,27.78,8.55s8.53-24.61,7.77-30.15l-8.3-12.54Z"/><polygon class="cls-22" points="95.54 27.51 89.95 37.22 103.66 39.06 95.54 27.51"/><line class="cls-23" x1="79.26" y1="29.8" x2="88.36" y2="32.35"/><line class="cls-23" x1="77.78" y1="33.91" x2="86.88" y2="36.46"/><line class="cls-23" x1="76.56" y1="38.18" x2="85.66" y2="40.73"/><polygon class="cls-24" points="76.5 43.72 98.53 49.55 96.73 58.81 73.84 52.48 76.5 43.72"/><polygon class="cls-22" points="73.47 55.89 95.49 61.72 94.77 65.43 72.42 59.34 73.47 55.89"/><polygon class="cls-10" points="28.02 63.86 28.02 112.23 67.77 136.61 67.77 88.98 28.02 63.86"/><circle class="cls-25" cx="80.93" cy="64.8" r="21.26"/><path class="cls-26" d="M82.4,63.3h19.74A21.27,21.27,0,0,0,82.4,43.54Z"/><path class="cls-27" d="M96.61,79.2a21.22,21.22,0,0,0,5.58-13H83.67Z"/><path class="cls-28" d="M79.46,64.16V43.54A21.28,21.28,0,0,0,64.9,78.74Z"/><path class="cls-29" d="M80.5,67.28,67,80.82a21.21,21.21,0,0,0,27.45.39Z"/><path class="cls-30" d="M60,7.78l-3.79,3.79a.76.76,0,1,0,1.07,1.07L61,8.85A.76.76,0,1,0,60,7.78Z"/><path class="cls-30" d="M67.08,7.78A.76.76,0,1,0,66,8.85l4.56,4.56a.76.76,0,0,0,1.07-1.07Z"/><path class="cls-30" d="M84.48,5.52a.76.76,0,0,0-1.07,0l-7.56,7.56a.76.76,0,1,0,1.07,1.07l7.56-7.56A.76.76,0,0,0,84.48,5.52Z"/><circle class="cls-26" cx="54.46" cy="15.12" r="3.78"/><circle class="cls-31" cx="63.53" cy="6.05" r="3.78"/><circle class="cls-31" cx="86.97" cy="3.78" r="3.78"/><circle class="cls-26" cx="73.36" cy="15.88" r="3.78"/><polygon class="cls-2" points="27.44 63.86 0.44 84.86 41.69 110.36 67.19 88.98 27.44 63.86"/><polygon class="cls-2" points="67.77 88.98 93.64 110.36 134.52 84.48 109.02 63.86 67.77 88.98"/></g></g></svg>