<svg id="Layer_1" data-name="Layer 1" xmlns="http://www.w3.org/2000/svg" xmlns:xlink="http://www.w3.org/1999/xlink" viewBox="0 0 26.51 27.96"><defs><style>.cls-1{fill:url(#linear-gradient);}</style><linearGradient id="linear-gradient" x1="11.74" y1="25" x2="38.26" y2="25" gradientUnits="userSpaceOnUse"><stop offset="0" stop-color="#fbcc4e"/><stop offset="1" stop-color="#fbdf33"/></linearGradient></defs><title>icon_4</title><path class="cls-1" d="M37.68,33.63h0l-9.46-9.5,4.29-4.29,3.83-2.47,1.53-2.74-1.78-1.77-2.74,1.53L30.9,18.2l-4.29,4.29-4.26-4.27,0-5.65L16.56,11l-0.62.62L19,14.7l-3,3L13,14.64l-0.62.61L13.88,21h5.5l0,0,4.34,4.35L22.07,27,21,26,19.4,27.6l0.5,0.5c-1.46.56-5.48,4.58-6,6l-0.5-.5-1.62,1.62L15.47,39l1.62-1.62-0.51-.5c1.46-.55,5.48-4.58,6-6l0.5,0.5,1.62-1.62-1-1,1.6-1.6,9.46,9.49h0a2.05,2.05,0,0,0,2.9-2.91h0ZM36.9,35.75a0.91,0.91,0,0,1-1.3-1.29,0.93,0.93,0,0,1,1.3,0,0.91,0.91,0,0,1,0,1.29h0Zm0,0" transform="translate(-11.74 -11.02)"/></svg>