<svg xmlns="http://www.w3.org/2000/svg" viewBox="0 0 170 170"><defs><style>.cls-1{isolation:isolate;}.cls-2,.cls-4{fill:#eee6da;}.cls-3{fill:#e5d8c7;}.cls-4{stroke:#e1cfc0;stroke-width:0.5px;}.cls-17,.cls-4,.cls-5{stroke-miterlimit:10;}.cls-14,.cls-5{fill:#a4cf62;}.cls-17,.cls-5{stroke:#090909;stroke-width:0.25px;}.cls-6{fill:#654e9b;}.cls-7{fill:#fedd56;}.cls-19,.cls-8{fill:#fff;}.cls-9{fill:#5dc0de;}.cls-10{fill:#95c149;}.cls-11{fill:#d28a58;}.cls-12{fill:#468847;}.cls-13{fill:#989898;}.cls-15{fill:#0c0c0c;}.cls-16{fill:#80a83f;}.cls-17,.cls-18{fill:#f3869e;}.cls-17,.cls-18,.cls-19{fill-rule:evenodd;}.cls-20{fill:#876aae;}.cls-21{fill:#231f20;opacity:0.7;mix-blend-mode:multiply;}</style></defs><title>plan_box</title><g class="cls-1"><g id="Layer_1" data-name="Layer 1"><polygon class="cls-2" points="126.54 75.15 126.54 122.77 85.29 147.9 85.29 100.27 126.54 75.15"/><polygon class="cls-3" points="45.54 75.15 45.54 123.52 85.29 147.9 85.29 100.27 45.54 75.15"/><polygon class="cls-3" points="85.29 49.65 85.29 100.27 126.54 75.15 85.29 49.65"/><polygon class="cls-2" points="85.29 49.65 45.54 75.15 85.29 100.27 85.29 49.65"/><polygon class="cls-4" points="85.29 49.65 58.66 28.27 18.54 54.15 45.54 75.15 85.29 49.65"/><polygon class="cls-4" points="126.54 75.15 152.04 53.77 110.79 28.27 85.29 49.65 126.54 75.15"/><path class="cls-5" d="M98.16,78.42a2.75,2.75,0,0,1-2.06,3.29L62.91,89.66a2.75,2.75,0,0,1-3.33-2L48.22,40.17a2.75,2.75,0,0,1,2.06-3.29l33.19-7.94a2.75,2.75,0,0,1,3.33,2Z"/><rect class="cls-6" x="62.03" y="55.9" width="17.85" height="1.06" transform="translate(-11.19 18.07) rotate(-13.46)"/><rect class="cls-7" x="70.88" y="71.06" width="8.03" height="1.06" transform="translate(-14.61 19.4) rotate(-13.46)"/><rect class="cls-8" x="62.9" y="59.35" width="17.85" height="1.41" transform="translate(-12.01 18.37) rotate(-13.46)"/><rect class="cls-9" x="61.63" y="66.47" width="6.15" height="2.48" transform="translate(-13.98 16.92) rotate(-13.46)"/><rect class="cls-9" x="67.95" y="67.78" width="6.15" height="2.48" transform="translate(-14.12 18.43) rotate(-13.46)"/><rect class="cls-10" x="70.02" y="73.45" width="12.4" height="3.23" transform="translate(-15.38 19.8) rotate(-13.46)"/><rect class="cls-7" x="52.61" y="48.28" width="15.66" height="1.06" transform="translate(-9.7 15.41) rotate(-13.46)"/><rect class="cls-7" x="70.76" y="43.94" width="15.66" height="1.06" transform="translate(-8.19 19.51) rotate(-13.46)"/><rect class="cls-11" x="74.2" y="46.75" width="8.82" height="0.7" transform="translate(-8.8 19.59) rotate(-13.46)"/><rect class="cls-11" x="56.32" y="51.03" width="8.82" height="0.7" transform="translate(-10.29 15.55) rotate(-13.46)"/><ellipse class="cls-12" cx="69.55" cy="66.34" rx="1.34" ry="1.15" transform="translate(-13.53 18.01) rotate(-13.46)"/><ellipse class="cls-13" cx="84.66" cy="62.73" rx="1.34" ry="1.15" transform="translate(-12.28 21.43) rotate(-13.46)"/><ellipse class="cls-13" cx="81.63" cy="63.45" rx="1.34" ry="1.15" transform="translate(-12.53 20.74) rotate(-13.46)"/><ellipse class="cls-13" cx="78.61" cy="64.17" rx="1.34" ry="1.15" transform="translate(-12.78 20.06) rotate(-13.46)"/><ellipse class="cls-13" cx="75.59" cy="64.9" rx="1.34" ry="1.15" transform="translate(-13.03 19.38) rotate(-13.46)"/><ellipse class="cls-13" cx="72.57" cy="65.62" rx="1.34" ry="1.15" transform="translate(-13.28 18.69) rotate(-13.46)"/><ellipse class="cls-12" cx="75.83" cy="67.78" rx="1.34" ry="1.15" transform="translate(-13.69 19.51) rotate(-13.46)"/><ellipse class="cls-13" cx="78.85" cy="67.05" rx="1.34" ry="1.15" transform="translate(-13.44 20.2) rotate(-13.46)"/><line class="cls-14" x1="58.88" y1="84.71" x2="97.46" y2="75.48"/><rect class="cls-15" x="58.33" y="79.97" width="39.67" height="0.24" transform="translate(-16.5 20.4) rotate(-13.46)"/><circle class="cls-8" cx="78.83" cy="82.85" r="1.46" transform="translate(-17.12 20.62) rotate(-13.46)"/><path class="cls-15" d="M79.19,84.39a1.58,1.58,0,1,1,1.17-1.91A1.58,1.58,0,0,1,79.19,84.39Zm-0.68-2.84a1.34,1.34,0,1,0,1.61,1A1.34,1.34,0,0,0,78.51,81.55Z"/><path class="cls-16" d="M55.08,40.46l0.05-.2c0-.09.08-0.14,0.17-0.08a3.45,3.45,0,0,0,2.42.39c0.72,0,1.43-.21,2.15-0.23a4.12,4.12,0,0,1,1.86.31A0.44,0.44,0,0,1,62,41a14.66,14.66,0,0,0,.52,1.88,4.72,4.72,0,0,1,.19,1.1c0,0.12,0,.2-0.17.2a4.6,4.6,0,0,0-1.95.42C59.79,45,59,45.35,58.14,45.7a6.58,6.58,0,0,1-2.13.6c-0.37,0-.41,0-0.34-0.37a5.22,5.22,0,0,0-.17-2.17c-0.16-.7-0.36-1.4-0.46-2.12A3.24,3.24,0,0,1,55.08,40.46Z"/><path class="cls-16" d="M73.49,36.27l0.05-.2c0-.09.08-0.14,0.17-0.08a3.45,3.45,0,0,0,2.42.39c0.72,0,1.43-.21,2.15-0.23a4.12,4.12,0,0,1,1.86.31,0.44,0.44,0,0,1,.29.36A14.66,14.66,0,0,0,81,38.7a4.72,4.72,0,0,1,.19,1.1c0,0.12,0,.2-0.17.2a4.6,4.6,0,0,0-1.95.42c-0.84.35-1.65,0.74-2.49,1.09a6.58,6.58,0,0,1-2.13.6c-0.37,0-.41,0-0.34-0.37a5.22,5.22,0,0,0-.17-2.17c-0.16-.7-0.36-1.4-0.46-2.12A3.24,3.24,0,0,1,73.49,36.27Z"/><polygon class="cls-4" points="85.29 100.27 111.17 121.65 152.04 95.77 126.54 75.15 85.29 100.27"/><polygon class="cls-4" points="44.96 75.15 17.96 96.15 59.21 121.65 84.71 100.27 44.96 75.15"/><path class="cls-17" d="M129.59,69.46c-2.38-8.81-9-14.7-14.77-13.17-2.2.59-5.74,2.06-8.24,2.23V56.06h0c0-.14,0-0.26,0-0.41a4.54,4.54,0,0,0-4.52-4.56H95.48a2.9,2.9,0,0,1,0-5.81h9.46a1.65,1.65,0,0,0,1.65-1.66V40.3a0.82,0.82,0,1,0-1.65,0V42c0,1.64-.07,1.66-1.65,1.66H95.48a4.56,4.56,0,0,0,0,9.12h6.58a2.89,2.89,0,0,1,2.88,2.9c0,0.15,0,.27,0,0.41h0v2.48c-2.46-.18-6-1.65-8.12-2.24-5.71-1.54-12.24,4.38-14.59,13.23s0.37,17.27,6.07,18.81c4.26,1.15,9-1.87,12.07-7.14a26,26,0,0,0,5.4.57,26.53,26.53,0,0,0,5.46-.69c3.14,5.25,7.91,8.25,12.22,7.11,5.78-1.53,8.53-9.92,6.15-18.72h0Z"/><path class="cls-18" d="M121.39,75.13a0.83,0.83,0,1,0,.82.83,0.83,0.83,0,0,0-.82-0.83h0Z"/><path class="cls-19" d="M121.39,67.67a0.83,0.83,0,1,0,.82.83,0.83,0.83,0,0,0-.82-0.83h0Z"/><path class="cls-18" d="M114,73.47a0.83,0.83,0,1,0,.82.83,0.83,0.83,0,0,0-.82-0.83h0Z"/><path class="cls-19" d="M114,66a0.83,0.83,0,1,0,.82.83A0.82,0.82,0,0,0,114,66h0Z"/><path class="cls-19" d="M97.53,71H94.24v3.32a0.82,0.82,0,1,1-1.65,0V71H89.3a0.83,0.83,0,0,1,0-1.66H92.6V66a0.82,0.82,0,1,1,1.65,0v3.32h3.29a0.83,0.83,0,0,1,0,1.66h0Z"/><path class="cls-19" d="M114,76.79a2.49,2.49,0,1,1,2.47-2.49A2.48,2.48,0,0,1,114,76.79h0Z"/><path class="cls-19" d="M114,69.33a2.49,2.49,0,1,1,2.47-2.48A2.48,2.48,0,0,1,114,69.33h0Z"/><path class="cls-19" d="M121.39,78.45A2.49,2.49,0,1,1,123.86,76a2.48,2.48,0,0,1-2.47,2.49h0Z"/><path class="cls-19" d="M121.39,71a2.49,2.49,0,1,1,2.47-2.49A2.48,2.48,0,0,1,121.39,71h0Z"/><circle class="cls-20" cx="124.94" cy="34.78" r="12.67" transform="translate(-0.13 0.46) rotate(-0.21)"/><path class="cls-21" d="M115.78,26l-0.2.21A44.59,44.59,0,0,0,133.6,44l0.21-.2A44.29,44.29,0,0,1,115.78,26Z"/><path class="cls-8" d="M119.39,33.32a0.21,0.21,0,0,0-.33.27l0.63,0.76a0.21,0.21,0,1,0,.32-0.27Zm-1.21-1.55a0.21,0.21,0,0,0-.34.25l0.6,0.79a0.21,0.21,0,1,0,.33-0.26Zm2.48,3.06a0.21,0.21,0,0,0-.32.28L121,35.84a0.21,0.21,0,0,0,.15.07,0.21,0.21,0,0,0,.15-0.35ZM122,36.26a0.21,0.21,0,0,0-.3.29l0.7,0.7a0.21,0.21,0,1,0,.3-0.3Zm-6.94-9.42-0.28.36,0.36,0.65a0.21,0.21,0,0,0,.18.11l0.1,0a0.21,0.21,0,0,0,.08-0.29ZM116,28.5a0.21,0.21,0,0,0-.36.22l0.52,0.85a0.21,0.21,0,1,0,.36-0.23Zm7.41,9.15a0.21,0.21,0,1,0-.29.31l0.73,0.67a0.21,0.21,0,1,0,.28-0.31Zm3,2.57a0.21,0.21,0,1,0-.26.33l0.79,0.61a0.21,0.21,0,0,0,.13,0,0.21,0.21,0,0,0,.13-0.38ZM128,41.4a0.21,0.21,0,0,0-.25.34l0.81,0.57a0.21,0.21,0,0,0,.12,0,0.21,0.21,0,0,0,.12-0.38Zm-10.9-11.24a0.21,0.21,0,0,0-.35.24l0.56,0.82a0.21,0.21,0,0,0,.17.09,0.21,0.21,0,0,0,.12,0,0.21,0.21,0,0,0,.05-0.29ZM133,44.51a0.21,0.21,0,0,0-.28.29l0.33-.26ZM130.4,43l-0.83-.53a0.21,0.21,0,0,0-.23.35l0.84,0.53A0.21,0.21,0,1,0,130.4,43ZM124.86,39a0.21,0.21,0,1,0-.28.32l0.76,0.64a0.21,0.21,0,1,0,.27-0.33ZM132.1,44l-0.85-.49a0.21,0.21,0,0,0-.22.36l0.86,0.5,0.1,0A0.21,0.21,0,0,0,132.1,44Z"/><path class="cls-8" d="M119.83,30.12a0.21,0.21,0,1,0-.34.25l0.6,0.79a0.21,0.21,0,1,0,.33-0.26ZM121,31.68a0.21,0.21,0,1,0-.33.27l0.63,0.76a0.21,0.21,0,0,0,.16.07,0.21,0.21,0,0,0,.16-0.35Zm-2.34-3.16a0.21,0.21,0,0,0-.35.24l0.56,0.82a0.21,0.21,0,0,0,.35-0.24Zm-1.06-1.66a0.21,0.21,0,0,0-.36.22l0.52,0.85a0.21,0.21,0,1,0,.36-0.23Zm17,16a0.21,0.21,0,0,0-.22.36l0.28-.32Zm-11-8.25a0.21,0.21,0,1,0-.3.29l0.7,0.71a0.21,0.21,0,1,0,.3-0.3Zm-1.34-1.44a0.21,0.21,0,0,0-.32.28l0.67,0.74A0.21,0.21,0,0,0,123,33.9Zm7.29,6.58a0.21,0.21,0,1,0-.25.34l0.81,0.57a0.21,0.21,0,0,0,.12,0,0.21,0.21,0,0,0,.12-0.39ZM128,38.57a0.21,0.21,0,1,0-.26.33l0.79,0.61a0.21,0.21,0,0,0,.13,0,0.21,0.21,0,0,0,.13-0.38Zm4,2.83-0.83-.53a0.21,0.21,0,0,0-.23.35l0.84,0.53A0.21,0.21,0,0,0,132,41.4Zm-5.54-4.08a0.21,0.21,0,0,0-.28.32L127,38.28a0.21,0.21,0,0,0,.27-0.33Zm-9.82-12.16-0.33.29,0.42,0.76a0.21,0.21,0,0,0,.18.11l0.1,0a0.21,0.21,0,0,0,.08-0.29C117,25.69,116.82,25.41,116.69,25.16ZM133.74,42.4l-0.85-.49a0.21,0.21,0,1,0-.22.36l0.86,0.5,0.1,0A0.21,0.21,0,0,0,133.74,42.4ZM125,36a0.21,0.21,0,0,0-.29.31L125.49,37a0.21,0.21,0,0,0,.28-0.31Z"/><path class="cls-8" d="M135.31,42h0a0.68,0.68,0,0,0,0-.33,1.75,1.75,0,0,0-1.09-.32h0a0.72,0.72,0,0,0,0-.33,1.63,1.63,0,0,0-1.09-.34l0,0a0.68,0.68,0,0,0,0-.33,0.61,0.61,0,0,0-.49-0.26C132.24,40,132,40,131.87,39.94h0a0.72,0.72,0,0,0,0-.33,1.62,1.62,0,0,0-1.07-.41l0,0a0.69,0.69,0,0,0,0-.34,1.81,1.81,0,0,0-1.06-.43h0a0.72,0.72,0,0,0,0-.33,1.62,1.62,0,0,0-1-.47l0,0a0.69,0.69,0,0,0,0-.33,1.79,1.79,0,0,0-1-.49h0a0.72,0.72,0,0,0,0-.33,1.62,1.62,0,0,0-1-.53l0,0a0.69,0.69,0,0,0,0-.32,1.81,1.81,0,0,0-1-.56h0a0.72,0.72,0,0,0,.06-0.32,1.62,1.62,0,0,0-1-.59,0.15,0.15,0,0,1,0,0,0.68,0.68,0,0,0,.06-0.32,1.75,1.75,0,0,0-1-.62h0a0.72,0.72,0,0,0,.08-0.32,1.63,1.63,0,0,0-1-.64l0,0a0.71,0.71,0,0,0,.09-0.32,1.61,1.61,0,0,0-.91-0.68h0a0.7,0.7,0,0,0,.1-0.32,1.76,1.76,0,0,0-.9-0.7l0,0a0.71,0.71,0,0,0,.11-0.32,1.63,1.63,0,0,0-.89-0.72h0a0.72,0.72,0,0,0,.11-0.31,1.62,1.62,0,0,0-.85-0.76l0,0a0.69,0.69,0,0,0,.13-0.31,1.7,1.7,0,0,0-.83-0.78h0a0.7,0.7,0,0,0,.13-0.3,1.73,1.73,0,0,0-.81-0.81l0,0a0.7,0.7,0,0,0,.15-0.3,1.71,1.71,0,0,0-.78-0.84h0l-0.29.21a2.88,2.88,0,0,0,.72.64l0,0a0.67,0.67,0,0,0-.15.3,1.56,1.56,0,0,0,.81.82h0a0.68,0.68,0,0,0-.13.3,1.59,1.59,0,0,0,.83.79l0,0a0.67,0.67,0,0,0-.13.31,1.63,1.63,0,0,0,.86.76h0a0.71,0.71,0,0,0-.12.31,1.62,1.62,0,0,0,.89.73l0,0a0.68,0.68,0,0,0-.11.32,1.51,1.51,0,0,0,.9.71h0a0.68,0.68,0,0,0-.1.32,1.63,1.63,0,0,0,.92.69,0.17,0.17,0,0,1,0,0,0.71,0.71,0,0,0-.09.32,1.64,1.64,0,0,0,1,.64h0a0.69,0.69,0,0,0-.08.32,1.55,1.55,0,0,0,1,.63,0.16,0.16,0,0,1,0,0,0.67,0.67,0,0,0-.06.32,1.64,1.64,0,0,0,1,.59h0a0.7,0.7,0,0,0-.06.33,1.5,1.5,0,0,0,1,.57l0,0a0.67,0.67,0,0,0,0,.33,1.63,1.63,0,0,0,1,.54h0a0.7,0.7,0,0,0,0,.33,0.62,0.62,0,0,0,.44.35c0.23,0.08.48,0.13,0.59,0.16l0,0a0.67,0.67,0,0,0,0,.33,1.63,1.63,0,0,0,1,.48h0a0.71,0.71,0,0,0,0,.33,0.62,0.62,0,0,0,.46.32c0.23,0.07.49,0.1,0.6,0.12l0,0a0.68,0.68,0,0,0,0,.34,1.64,1.64,0,0,0,1.07.41h0a0.71,0.71,0,0,0,0,.33,1.48,1.48,0,0,0,1.08.38l0,0a0.66,0.66,0,0,0,0,.33,1.64,1.64,0,0,0,1.1.34h0a0.7,0.7,0,0,0,0,.33,1.58,1.58,0,0,0,1.09.33h0a0.66,0.66,0,0,0,0,.33,0.24,0.24,0,0,0,.12.12l0.22-.31h0Z"/><path class="cls-8" d="M135.82,40.76h0a0.67,0.67,0,0,0,0-.33,1.75,1.75,0,0,0-1.09-.32h0a0.71,0.71,0,0,0,0-.33,1.62,1.62,0,0,0-1.09-.34l0,0a0.68,0.68,0,0,0,0-.33,0.61,0.61,0,0,0-.49-0.26c-0.23-.06-0.48-0.09-0.59-0.11h0a0.73,0.73,0,0,0,0-.33,1.62,1.62,0,0,0-1.07-.4l0,0a0.68,0.68,0,0,0,0-.34,1.81,1.81,0,0,0-1.06-.43h0a0.72,0.72,0,0,0,0-.33,1.62,1.62,0,0,0-1-.47l0,0a0.69,0.69,0,0,0,0-.33,1.79,1.79,0,0,0-1-.49h0a0.72,0.72,0,0,0,0-.33,1.62,1.62,0,0,0-1-.53l0,0a0.69,0.69,0,0,0,0-.32,1.81,1.81,0,0,0-1-.56h0a0.71,0.71,0,0,0,.06-0.32,1.62,1.62,0,0,0-1-.59,0.17,0.17,0,0,1,0,0,0.69,0.69,0,0,0,.06-0.32,1.75,1.75,0,0,0-1-.62h0a0.71,0.71,0,0,0,.08-0.32,1.63,1.63,0,0,0-1-.64l0,0a0.71,0.71,0,0,0,.09-0.32,1.61,1.61,0,0,0-.91-0.68h0a0.7,0.7,0,0,0,.09-0.32,1.75,1.75,0,0,0-.9-0.7l0,0a0.71,0.71,0,0,0,.11-0.32,1.63,1.63,0,0,0-.89-0.72h0a0.71,0.71,0,0,0,.11-0.31,1.62,1.62,0,0,0-.85-0.76l0,0a0.69,0.69,0,0,0,.13-0.31,1.7,1.7,0,0,0-.83-0.78h0a0.7,0.7,0,0,0,.13-0.3,1.73,1.73,0,0,0-.81-0.81l0,0a0.7,0.7,0,0,0,.15-0.3,0.43,0.43,0,0,0-.16-0.33l-0.37.22,0.18,0.13,0,0a0.67,0.67,0,0,0-.15.3,1.56,1.56,0,0,0,.81.82h0a0.69,0.69,0,0,0-.13.3,1.59,1.59,0,0,0,.83.79l0,0a0.68,0.68,0,0,0-.13.31,1.63,1.63,0,0,0,.86.76h0a0.71,0.71,0,0,0-.12.31,1.63,1.63,0,0,0,.89.73l0,0a0.69,0.69,0,0,0-.11.32,1.51,1.51,0,0,0,.9.71h0a0.68,0.68,0,0,0-.09.32,1.63,1.63,0,0,0,.92.69,0.17,0.17,0,0,1,0,0,0.71,0.71,0,0,0-.09.32,1.64,1.64,0,0,0,1,.64h0a0.69,0.69,0,0,0-.08.32,1.55,1.55,0,0,0,1,.63,0.16,0.16,0,0,1,0,0,0.68,0.68,0,0,0-.06.32,1.64,1.64,0,0,0,1,.59h0a0.7,0.7,0,0,0-.06.33,1.49,1.49,0,0,0,1,.57l0,0a0.67,0.67,0,0,0,0,.33,1.63,1.63,0,0,0,1,.54h0a0.7,0.7,0,0,0,0,.33,0.62,0.62,0,0,0,.44.35c0.23,0.08.48,0.13,0.59,0.16l0,0a0.67,0.67,0,0,0,0,.34,1.63,1.63,0,0,0,1,.48h0a0.71,0.71,0,0,0,0,.33,0.62,0.62,0,0,0,.46.32c0.23,0.06.49,0.1,0.6,0.12l0,0a0.67,0.67,0,0,0,0,.34,1.64,1.64,0,0,0,1.07.41h0a0.71,0.71,0,0,0,0,.33,1.48,1.48,0,0,0,1.08.38l0,0a0.67,0.67,0,0,0,0,.33,1.64,1.64,0,0,0,1.1.34h0a0.69,0.69,0,0,0,0,.33,1.57,1.57,0,0,0,1.09.33h0a0.66,0.66,0,0,0,0,.33,0.45,0.45,0,0,0,.35.2l0.22-.38h-0.28Z"/><path class="cls-8" d="M129.56,45.91h0a0.72,0.72,0,0,0,0-.33,1.63,1.63,0,0,0-1.09-.33l0,0a0.68,0.68,0,0,0,0-.33,0.61,0.61,0,0,0-.49-0.26c-0.23-.06-0.48-0.09-0.59-0.11h0a0.72,0.72,0,0,0,0-.33,1.62,1.62,0,0,0-1.07-.41l0,0a0.69,0.69,0,0,0,0-.34,1.8,1.8,0,0,0-1.06-.43h0a0.72,0.72,0,0,0,0-.33,1.62,1.62,0,0,0-1-.47l0,0a0.69,0.69,0,0,0,0-.33,1.79,1.79,0,0,0-1-.49h0a0.72,0.72,0,0,0,0-.33,1.62,1.62,0,0,0-1-.53l0,0a0.69,0.69,0,0,0,0-.32,1.81,1.81,0,0,0-1-.56h0a0.72,0.72,0,0,0,.06-0.32,1.62,1.62,0,0,0-1-.59,0.16,0.16,0,0,1,0,0,0.68,0.68,0,0,0,.06-0.32,1.75,1.75,0,0,0-1-.62h0a0.71,0.71,0,0,0,.08-0.32,1.63,1.63,0,0,0-1-.64l0,0a0.71,0.71,0,0,0,.09-0.32,1.61,1.61,0,0,0-.91-0.68h0a0.7,0.7,0,0,0,.1-0.32,1.76,1.76,0,0,0-.9-0.7l0,0a0.71,0.71,0,0,0,.11-0.32,1.63,1.63,0,0,0-.89-0.72h0a0.72,0.72,0,0,0,.11-0.31,1.61,1.61,0,0,0-.85-0.76l0,0a0.69,0.69,0,0,0,.13-0.31,1.7,1.7,0,0,0-.83-0.78h0a0.7,0.7,0,0,0,.13-0.3,1.73,1.73,0,0,0-.81-0.81l0,0a0.7,0.7,0,0,0,.15-0.3,0.64,0.64,0,0,0-.31-0.47l-0.18.39,0.14,0.09,0,0a0.68,0.68,0,0,0-.15.3,1.56,1.56,0,0,0,.81.82h0a0.69,0.69,0,0,0-.13.3,1.59,1.59,0,0,0,.83.79l0,0a0.67,0.67,0,0,0-.13.31,1.63,1.63,0,0,0,.86.76h0a0.71,0.71,0,0,0-.12.31,1.63,1.63,0,0,0,.89.73l0,0a0.68,0.68,0,0,0-.11.32,1.51,1.51,0,0,0,.9.71h0a0.69,0.69,0,0,0-.09.32,1.62,1.62,0,0,0,.92.69,0.17,0.17,0,0,1,0,0,0.71,0.71,0,0,0-.09.32,1.64,1.64,0,0,0,1,.64h0a0.69,0.69,0,0,0-.08.32,1.55,1.55,0,0,0,1,.63,0.16,0.16,0,0,1,0,0,0.67,0.67,0,0,0-.06.32,1.64,1.64,0,0,0,1,.59h0a0.69,0.69,0,0,0-.06.33,1.49,1.49,0,0,0,1,.57l0,0a0.67,0.67,0,0,0,0,.33,1.64,1.64,0,0,0,1,.54h0a0.7,0.7,0,0,0,0,.33,0.62,0.62,0,0,0,.44.35c0.23,0.08.48,0.13,0.59,0.16l0,0a0.68,0.68,0,0,0,0,.34,1.64,1.64,0,0,0,1,.47h0a0.71,0.71,0,0,0,0,.33,0.62,0.62,0,0,0,.46.32c0.23,0.07.49,0.1,0.6,0.12l0,0a0.67,0.67,0,0,0,0,.34,1.64,1.64,0,0,0,1.07.41h0a0.7,0.7,0,0,0,0,.33,1.48,1.48,0,0,0,1.08.38l0,0a0.66,0.66,0,0,0,0,.33,1.64,1.64,0,0,0,1.1.34h0a0.7,0.7,0,0,0,0,.33,1,1,0,0,0,.75.3l0.55-.26A2.66,2.66,0,0,0,129.56,45.91Z"/><path class="cls-8" d="M131.25,45.34h0a0.67,0.67,0,0,0,0-.33,1.75,1.75,0,0,0-1.09-.32h0a0.71,0.71,0,0,0,0-.33,1.62,1.62,0,0,0-1.09-.34l0,0a0.69,0.69,0,0,0,0-.34,0.61,0.61,0,0,0-.49-0.26c-0.23-.06-0.48-0.09-0.59-0.11h0a0.72,0.72,0,0,0,0-.33,1.62,1.62,0,0,0-1.07-.41l0,0a0.69,0.69,0,0,0,0-.34,1.8,1.8,0,0,0-1.06-.43h0a0.73,0.73,0,0,0,0-.33,1.62,1.62,0,0,0-1-.47l0,0a0.69,0.69,0,0,0,0-.33,1.79,1.79,0,0,0-1-.49h0a0.72,0.72,0,0,0,0-.33,1.62,1.62,0,0,0-1-.53l0,0a0.69,0.69,0,0,0,0-.32,1.81,1.81,0,0,0-1-.56h0a0.72,0.72,0,0,0,.06-0.32,1.62,1.62,0,0,0-1-.59,0.16,0.16,0,0,1,0,0,0.68,0.68,0,0,0,.06-0.32,1.75,1.75,0,0,0-1-.62h0a0.71,0.71,0,0,0,.08-0.32,1.63,1.63,0,0,0-1-.64l0,0a0.71,0.71,0,0,0,.09-0.32,1.61,1.61,0,0,0-.91-0.68h0a0.7,0.7,0,0,0,.1-0.32,1.75,1.75,0,0,0-.9-0.7l0,0a0.71,0.71,0,0,0,.11-0.32,1.63,1.63,0,0,0-.89-0.72h0a0.72,0.72,0,0,0,.11-0.31,1.62,1.62,0,0,0-.85-0.76l0,0a0.69,0.69,0,0,0,.13-0.31,1.7,1.7,0,0,0-.83-0.78h0a0.7,0.7,0,0,0,.13-0.3,1.73,1.73,0,0,0-.81-0.81l0,0a0.7,0.7,0,0,0,.15-0.3,0.51,0.51,0,0,0-.21-0.39l-0.2.35,0.07,0,0,0a0.68,0.68,0,0,0-.15.3,1.56,1.56,0,0,0,.81.82h0a0.69,0.69,0,0,0-.13.3,1.59,1.59,0,0,0,.83.79l0,0a0.68,0.68,0,0,0-.13.31,1.63,1.63,0,0,0,.86.76h0a0.7,0.7,0,0,0-.12.31,1.62,1.62,0,0,0,.89.73l0,0a0.69,0.69,0,0,0-.11.32,1.51,1.51,0,0,0,.9.71h0a0.68,0.68,0,0,0-.09.32,1.63,1.63,0,0,0,.92.69,0.16,0.16,0,0,1,0,0,0.71,0.71,0,0,0-.09.32,1.64,1.64,0,0,0,1,.64h0a0.69,0.69,0,0,0-.08.32,1.55,1.55,0,0,0,1,.63,0.17,0.17,0,0,1,0,0,0.67,0.67,0,0,0-.06.32,1.64,1.64,0,0,0,1,.59h0a0.7,0.7,0,0,0-.06.33,1.49,1.49,0,0,0,1,.57l0,0a0.67,0.67,0,0,0,0,.33,1.63,1.63,0,0,0,1,.54h0a0.7,0.7,0,0,0,0,.33,0.62,0.62,0,0,0,.44.35c0.23,0.08.48,0.13,0.59,0.16l0,0a0.68,0.68,0,0,0,0,.34,1.64,1.64,0,0,0,1,.47h0a0.71,0.71,0,0,0,0,.33,0.62,0.62,0,0,0,.46.32c0.23,0.06.49,0.1,0.6,0.12l0,0a0.68,0.68,0,0,0,0,.34,1.64,1.64,0,0,0,1.07.41h0a0.71,0.71,0,0,0,0,.33,1.48,1.48,0,0,0,1.08.38l0,0a0.66,0.66,0,0,0,0,.33,1.64,1.64,0,0,0,1.1.34h0a0.7,0.7,0,0,0,0,.33,1.58,1.58,0,0,0,1.09.33h0a0.66,0.66,0,0,0,0,.33,0.44,0.44,0,0,0,.34.2l0.57-.35C131.63,45.35,131.37,45.35,131.25,45.34Z"/></g></g></svg>