<svg id="Layer_1" data-name="Layer 1" xmlns="http://www.w3.org/2000/svg" xmlns:xlink="http://www.w3.org/1999/xlink" viewBox="0 0 38.75 28.9"><defs><style>.cls-1{fill:url(#linear-gradient);}.cls-2{fill:url(#linear-gradient-2);}.cls-3{fill:url(#linear-gradient-3);}.cls-4{fill:url(#linear-gradient-4);}.cls-5{fill:url(#linear-gradient-5);}.cls-6{fill:url(#linear-gradient-6);}.cls-7{fill:url(#linear-gradient-7);}.cls-8{fill:url(#linear-gradient-8);}</style><linearGradient id="linear-gradient" x1="14.08" y1="31.2" x2="36.41" y2="31.2" gradientUnits="userSpaceOnUse"><stop offset="0" stop-color="#fbcc4e"/><stop offset="1" stop-color="#fbdf33"/></linearGradient><linearGradient id="linear-gradient-2" x1="6.22" y1="21.79" x2="26.55" y2="21.79" xlink:href="#linear-gradient"/><linearGradient id="linear-gradient-3" x1="14.32" y1="16.03" x2="37.07" y2="16.03" xlink:href="#linear-gradient"/><linearGradient id="linear-gradient-4" x1="5.62" y1="14.35" x2="16.1" y2="14.35" xlink:href="#linear-gradient"/><linearGradient id="linear-gradient-5" x1="27.5" y1="36.09" x2="44.38" y2="36.09" xlink:href="#linear-gradient"/><linearGradient id="linear-gradient-6" x1="23.63" y1="30.82" x2="39.75" y2="30.82" xlink:href="#linear-gradient"/><linearGradient id="linear-gradient-7" x1="24.93" y1="27.35" x2="34.09" y2="27.35" xlink:href="#linear-gradient"/><linearGradient id="linear-gradient-8" x1="14.08" y1="31.2" x2="35.37" y2="31.2" xlink:href="#linear-gradient"/></defs><title>icon_3</title><path class="cls-1" d="M34.42,29V28.91H24.2c1-.82,1.69-1.64,1.39-2.91l5.73-.42a2.68,2.68,0,0,0-1-.16c-1.56,0-3.12,0-4.68,0a0.82,0.82,0,0,1-.52-0.28,2.25,2.25,0,0,0-2.06-.79,3,3,0,0,0-1.74,1.06c-2.16,2.09-4.34,4.16-6.51,6.24a2.25,2.25,0,0,0,1,3.89l8.95,2.36a2.2,2.2,0,0,0,2.81-1.63,2.24,2.24,0,0,0-1.66-2.71l-1.86-.49V33l12.3-.44a4.37,4.37,0,0,0-1-.08H22a9.87,9.87,0,0,1-1.3-.18c1-.94,1.84-1.77,2.72-2.59a0.82,0.82,0,0,1,.49-0.18l7.68-.35Z" transform="translate(-5.62 -10.55)"/><path class="cls-2" d="M26.55,23.9V23.81h-9V22.47l4.88-.55V21.84H17.52V20.57l2.37-.43V20h-2.4c0-.55,0-1,0-1.5a2.26,2.26,0,1,0-4.52,0c0,1.22,0,2.43,0,3.65,0,0.23,0,.46,0,0.74H12.17c-1.27,0-2.54,0-3.81,0a2.22,2.22,0,0,0-2.15,2.23,2.25,2.25,0,0,0,2.22,2.22h6.81a2.12,2.12,0,0,0,2.09-1.5,10.54,10.54,0,0,0,.24-1.41Z" transform="translate(-5.62 -10.55)"/><path class="cls-3" d="M17.88,19.22L20,17a4.3,4.3,0,0,0,.36.5c0.87,0.88,1.73,1.76,2.62,2.62a2.38,2.38,0,0,0,4-.86,8.12,8.12,0,0,0,.14-1.85l9.92-.64a1.37,1.37,0,0,0-.5-0.06H27a1.11,1.11,0,0,1-.67-0.14c-0.61-.53-1.17-1.11-1.87-1.79l6.66-.58c-2-.07-4.09-0.11-6.14,0a2.15,2.15,0,0,1-1.91-.8c-0.43-.53-1-1-1.5-1.53l5.27-.5a2.17,2.17,0,0,0-.66-0.07c-2,0-4,0-6,0a2.63,2.63,0,0,0-2,.82L14.61,15.6c-0.1.1-.18,0.21-0.29,0.34C16.52,15.5,17.57,16.46,17.88,19.22Z" transform="translate(-5.62 -10.55)"/><path class="cls-4" d="M12.91,10.63V10.55H9.37A3.79,3.79,0,1,0,12.88,16a4,4,0,0,0,.27-2.56l2.94-.46a16.76,16.76,0,0,0-2.49-.06,0.77,0.77,0,0,1-.94-0.71l2.39-.45a14,14,0,0,0-2.49-.11A1.67,1.67,0,0,1,11.35,11Z" transform="translate(-5.62 -10.55)"/><path class="cls-5" d="M27.5,33c2.5,2,4.87,3.93,7.24,5.83a2.42,2.42,0,1,0,3-3.76c-0.47-.4-1-0.78-1.54-1.26l8.14-.61c-2.66-.06-5.31-0.06-8-0.06a1.82,1.82,0,0,1-1.5-.35,0.73,0.73,0,0,0-.47-0.07l-5.8.21C28.3,32.95,28,33,27.5,33Z" transform="translate(-5.62 -10.55)"/><path class="cls-6" d="M39.75,30.12V30.06c-2.56,0-5.13,0-7.69,0a2.55,2.55,0,0,1-.89-0.31,2.57,2.57,0,0,0-.85-0.39c-2,.06-4,0.16-6,0.28a2.85,2.85,0,0,0-.72.27c1,0.77,1.77,1.46,2.62,2.1a1.42,1.42,0,0,0,.79.29c2.23,0,4.46,0,6.69,0,0.14,0,.28,0,0.52,0l-1.91-1.56Z" transform="translate(-5.62 -10.55)"/><path class="cls-7" d="M26,25.94a3,3,0,0,1-1.05,2.81h5l-1.44-1.19L34.09,27c-1.81-.07-3.61-0.1-5.42,0a2.42,2.42,0,0,1-1.79-.64A3.55,3.55,0,0,0,26,25.94Z" transform="translate(-5.62 -10.55)"/><path class="cls-8" d="M24.11,33v0.13l1.86,0.49a2.24,2.24,0,0,1,1.66,2.71,2.2,2.2,0,0,1-2.81,1.63l-8.95-2.36a2.25,2.25,0,0,1-1-3.89c2.17-2.08,4.35-4.15,6.51-6.24a3,3,0,0,1,1.74-1.06,2.25,2.25,0,0,1,2.06.79,0.82,0.82,0,0,0,.52.28c1.56,0,3.12,0,4.68,0a2.68,2.68,0,0,1,1,.16L25.59,26c0.3,1.27-.38,2.09-1.39,2.91H34.42V29l-2.8.15-7.68.35a0.82,0.82,0,0,0-.49.18c-0.88.82-1.74,1.65-2.72,2.59a9.87,9.87,0,0,0,1.3.18H35.37" transform="translate(-5.62 -10.55)"/><path class="cls-2" d="M26.55,23.9l-9,.57a10.54,10.54,0,0,1-.24,1.41,2.12,2.12,0,0,1-2.09,1.5H8.44a2.25,2.25,0,0,1-2.22-2.22,2.22,2.22,0,0,1,2.15-2.23c1.27,0,2.54,0,3.81,0H13c0-.28,0-0.51,0-0.74,0-1.22,0-2.43,0-3.65a2.26,2.26,0,1,1,4.52,0c0,0.48,0,1,0,1.5h2.4v0.11l-2.37.43v1.27h4.88v0.08l-4.88.55v1.34h9V23.9Z" transform="translate(-5.62 -10.55)"/><path class="cls-3" d="M17.88,19.22c-0.3-2.76-1.36-3.72-3.56-3.28,0.11-.14.19-0.25,0.29-0.34L18.17,12a2.63,2.63,0,0,1,2-.82c2,0,4,0,6,0a2.17,2.17,0,0,1,.66.07l-5.27.5c0.54,0.55,1.06,1,1.5,1.53a2.15,2.15,0,0,0,1.91.8c2-.06,4.09,0,6.14,0l-6.66.58c0.7,0.68,1.26,1.26,1.87,1.79a1.11,1.11,0,0,0,.67.14h9.57a1.37,1.37,0,0,1,.5.06l-9.92.64A8.12,8.12,0,0,1,27,19.23a2.38,2.38,0,0,1-4,.86c-0.89-.86-1.75-1.74-2.62-2.62A4.3,4.3,0,0,1,20,17Z" transform="translate(-5.62 -10.55)"/><path class="cls-4" d="M12.91,10.63L11.35,11a1.67,1.67,0,0,0,1.22.67,14,14,0,0,1,2.49.11l-2.39.45a0.77,0.77,0,0,0,.94.71,16.76,16.76,0,0,1,2.49.06l-2.94.46A4,4,0,0,1,12.88,16a3.81,3.81,0,1,1-3.51-5.41H12.9v0.08Z" transform="translate(-5.62 -10.55)"/><path class="cls-5" d="M27.5,33c0.47,0,.8-0.07,1.13-0.08l5.8-.21a0.73,0.73,0,0,1,.47.07,1.82,1.82,0,0,0,1.5.35c2.66,0,5.31,0,8,.06l-8.14.61c0.59,0.48,1.07.87,1.54,1.26a2.42,2.42,0,1,1-3,3.76C32.37,37,30,35,27.5,33Z" transform="translate(-5.62 -10.55)"/><path class="cls-6" d="M39.75,30.12l-7.4.56,1.91,1.56c-0.25,0-.39,0-0.52,0-2.23,0-4.46,0-6.69,0A1.42,1.42,0,0,1,26.25,32c-0.85-.65-1.67-1.33-2.62-2.1a2.85,2.85,0,0,1,.72-0.27c2-.11,4-0.22,6-0.28a2.57,2.57,0,0,1,.85.39,2.55,2.55,0,0,0,.89.31c2.56,0,5.13,0,7.69,0v0.06Z" transform="translate(-5.62 -10.55)"/><path class="cls-7" d="M26,25.94a3.55,3.55,0,0,1,.9.38,2.42,2.42,0,0,0,1.79.64c1.8-.05,3.61,0,5.42,0l-5.62.55,1.44,1.19h-5A3,3,0,0,0,26,25.94Z" transform="translate(-5.62 -10.55)"/></svg>