<svg id="Layer_1" data-name="Layer 1" xmlns="http://www.w3.org/2000/svg" xmlns:xlink="http://www.w3.org/1999/xlink" viewBox="0 0 30.61 28.99"><defs><style>.cls-1{fill:url(#linear-gradient);}.cls-2{fill:url(#linear-gradient-2);}</style><linearGradient id="linear-gradient" x1="9.7" y1="25" x2="40.3" y2="25" gradientUnits="userSpaceOnUse"><stop offset="0" stop-color="#fbcc4e"/><stop offset="1" stop-color="#fbdf33"/></linearGradient><linearGradient id="linear-gradient-2" x1="14.27" y1="23.47" x2="38.16" y2="23.47" xlink:href="#linear-gradient"/></defs><title>icon_5</title><path class="cls-1" d="M40.3,38.34a0.93,0.93,0,0,1-1,1.15H11.14A1.44,1.44,0,0,1,9.7,38.05V11.47a0.93,0.93,0,0,1,1.15-1,0.93,0.93,0,0,1,1.15,1V35.75a1.44,1.44,0,0,0,1.44,1.44H39.34a0.93,0.93,0,0,1,1,1.15h0Zm0,0" transform="translate(-9.7 -10.51)"/><path class="cls-2" d="M37.61,20.36c0.33,0.21.58,0.06,0.54-.33L37.6,13.9a0.52,0.52,0,0,0-.73-0.46L31.1,15.6c-0.37.14-.4,0.42-0.06,0.63L32.1,16.9a0.7,0.7,0,0,1,.21,1L28,24.49a0.94,0.94,0,0,1-1.06.34l-6.77-2.56a1.07,1.07,0,0,0-1.12.3l-4.25,5.15A2.34,2.34,0,0,0,14.29,29l0,4.2c0,0.39.21,0.47,0.46,0.17L20.2,27a1.1,1.1,0,0,1,1.13-.29l6.82,2.59a0.94,0.94,0,0,0,1.06-.34l6.11-9.17a0.74,0.74,0,0,1,1-.21Zm0,0" transform="translate(-9.7 -10.51)"/></svg>