<svg id="Layer_1" data-name="Layer 1" xmlns="http://www.w3.org/2000/svg" viewBox="0 0 170 170"><defs><style>.cls-1,.cls-2{fill:#eee6da;}.cls-1{stroke:#e1cfc0;stroke-miterlimit:10;stroke-width:0.5px;}.cls-3{fill:#e5d8c7;}.cls-4{fill:#f8be3a;}.cls-5{fill:#ef6c23;}.cls-6{fill:#df6326;}</style></defs><title>plan_box</title><polygon class="cls-1" points="126.54 72.06 152.04 50.69 110.79 25.19 85.29 46.56 126.54 72.06"/><polygon class="cls-2" points="126.54 72.06 126.54 119.69 85.29 144.81 85.29 97.19 126.54 72.06"/><polygon class="cls-3" points="45.54 72.06 45.54 120.44 85.29 144.81 85.29 97.19 45.54 72.06"/><polygon class="cls-3" points="85.29 46.56 85.29 97.19 126.54 72.06 85.29 46.56"/><polygon class="cls-2" points="85.29 46.56 45.54 72.06 85.29 97.19 85.29 46.56"/><polygon class="cls-1" points="85.29 46.56 58.66 25.19 18.54 51.06 45.54 72.06 85.29 46.56"/><path class="cls-4" d="M67.36,97.29V33.1c0-3.34,1.56-6.07,3.47-6.07s3.47,2.73,3.47,6.07V97.29"/><path class="cls-4" d="M81.24,97.29V33.1c0-3.34,1.56-6.07,3.47-6.07s3.47,2.73,3.47,6.07V97.29"/><path class="cls-4" d="M95.12,97.29V33.1c0-3.34,1.56-6.07,3.47-6.07s3.47,2.73,3.47,6.07V97.29"/><rect class="cls-5" x="68.7" y="26.76" width="3.89" height="1.11"/><rect class="cls-5" x="73.42" y="25.65" width="3.52" height="3.89" rx="0.61" ry="0.61"/><path class="cls-6" d="M73.51,29.35a0.56,0.56,0,1,1-1.11,0V25.84a0.56,0.56,0,1,1,1.11,0v3.51Z"/><rect class="cls-5" x="82.26" y="26.76" width="3.89" height="1.11" transform="translate(168.4 54.63) rotate(-180)"/><rect class="cls-5" x="77.91" y="25.65" width="3.52" height="3.89" rx="0.61" ry="0.61"/><path class="cls-6" d="M81.33,29.35a0.56,0.56,0,1,0,1.11,0V25.84a0.56,0.56,0,1,0-1.11,0v3.51Z"/><path class="cls-6" d="M76.94,29.35a0.56,0.56,0,1,0,1.11,0V25.84a0.56,0.56,0,1,0-1.11,0v3.51Z"/><rect class="cls-5" x="84.2" y="26.76" width="3.89" height="1.11"/><rect class="cls-5" x="88.92" y="25.65" width="3.52" height="3.89" rx="0.61" ry="0.61"/><path class="cls-6" d="M89,29.35a0.56,0.56,0,1,1-1.11,0V25.84a0.56,0.56,0,1,1,1.11,0v3.51Z"/><rect class="cls-5" x="97.76" y="26.76" width="3.89" height="1.11" transform="translate(199.41 54.63) rotate(-180)"/><rect class="cls-5" x="93.41" y="25.65" width="3.52" height="3.89" rx="0.61" ry="0.61"/><path class="cls-6" d="M96.83,29.35a0.56,0.56,0,1,0,1.11,0V25.84a0.56,0.56,0,1,0-1.11,0v3.51Z"/><path class="cls-6" d="M92.44,29.35a0.56,0.56,0,1,0,1.11,0V25.84a0.56,0.56,0,1,0-1.11,0v3.51Z"/><polygon class="cls-1" points="85.29 97.19 111.17 118.56 152.04 92.69 126.54 72.06 85.29 97.19"/><polygon class="cls-1" points="44.96 72.06 17.96 93.06 59.21 118.56 84.71 97.19 44.96 72.06"/></svg>