<svg id="Layer_1" data-name="Layer 1" xmlns="http://www.w3.org/2000/svg" xmlns:xlink="http://www.w3.org/1999/xlink" viewBox="0 0 30.74 31.64"><defs><style>.cls-1{fill:url(#linear-gradient);}.cls-2{fill:url(#linear-gradient-2);}.cls-3{fill:url(#linear-gradient-3);}.cls-4{fill:url(#linear-gradient-4);}.cls-5{fill:url(#linear-gradient-5);}</style><linearGradient id="linear-gradient" x1="16.28" y1="21.3" x2="33.72" y2="21.3" gradientUnits="userSpaceOnUse"><stop offset="0" stop-color="#fbcc4e"/><stop offset="1" stop-color="#fbdf33"/></linearGradient><linearGradient id="linear-gradient-2" x1="16.28" y1="26.69" x2="33.72" y2="26.69" xlink:href="#linear-gradient"/><linearGradient id="linear-gradient-3" x1="16.28" y1="32.08" x2="33.72" y2="32.08" xlink:href="#linear-gradient"/><linearGradient id="linear-gradient-4" x1="16.47" y1="37.93" x2="33.53" y2="37.93" xlink:href="#linear-gradient"/><linearGradient id="linear-gradient-5" x1="9.63" y1="18.16" x2="40.37" y2="18.16" xlink:href="#linear-gradient"/></defs><title>icon_2</title><path class="cls-1" d="M32.81,18.86H17.19a0.91,0.91,0,0,0-.91.91v3.08a0.91,0.91,0,0,0,.91.9H32.81a0.91,0.91,0,0,0,.91-0.9V19.76a0.91,0.91,0,0,0-.91-0.91h0ZM17.91,21a0.56,0.56,0,1,1,.56-0.56,0.56,0.56,0,0,1-.56.56h0Zm13.42,1.61H27.39V21.3h3.95v1.31Zm0,0" transform="translate(-9.63 -9.18)"/><path class="cls-2" d="M32.81,24.25H17.19a0.91,0.91,0,0,0-.91.91v3.08a0.91,0.91,0,0,0,.91.91H32.81a0.91,0.91,0,0,0,.91-0.91V25.15a0.91,0.91,0,0,0-.91-0.91h0Zm-14.9,2.15a0.56,0.56,0,1,1,.56-0.56,0.56,0.56,0,0,1-.56.56h0ZM31.34,28H27.39V26.69h3.95V28Zm0,0" transform="translate(-9.63 -9.18)"/><path class="cls-3" d="M32.81,29.64H17.19a0.91,0.91,0,0,0-.91.9v3.08a0.91,0.91,0,0,0,.91.9H32.81a0.91,0.91,0,0,0,.91-0.9V30.54a0.91,0.91,0,0,0-.91-0.9h0Zm-14.9,2.15a0.56,0.56,0,1,1,.56-0.56,0.56,0.56,0,0,1-.56.56h0Zm13.42,1.61H27.39V32.08h3.95v1.31Zm0,0" transform="translate(-9.63 -9.18)"/><path class="cls-4" d="M27.7,37.47H26V35.05H24v2.42H22.3v0.64H16.47v2.07H22.3v0.64h5.4V40.18h5.83V38.11H27.7V37.47Zm0,0" transform="translate(-9.63 -9.18)"/><path class="cls-5" d="M34.22,13.89a0.78,0.78,0,0,1-.56-0.31,6.76,6.76,0,0,0-5.4-2.73h-0.4a0.77,0.77,0,0,1-.52-0.16A7.54,7.54,0,0,0,16,13.49a0.78,0.78,0,0,1-.6.44A6.71,6.71,0,0,0,15,27.15v-2a2.18,2.18,0,0,1,.12-0.71,4.07,4.07,0,0,1,1.27-7.93l0.34,0a1.32,1.32,0,0,0,1.39-1,4.89,4.89,0,0,1,8.16-2.31,1.32,1.32,0,0,0,1.19.35,4.06,4.06,0,0,1,4.5,2.22,1.32,1.32,0,0,0,1.32.74l0.41,0a4.07,4.07,0,0,1,1.27,7.93,2.17,2.17,0,0,1,.12.71v2a6.71,6.71,0,0,0-.82-13.26h0Zm0,0" transform="translate(-9.63 -9.18)"/></svg>